<svg id="Layer_1" data-name="Layer 1" xmlns="http://www.w3.org/2000/svg" viewBox="0 0 1525 1525"><defs><style>.cls-1{fill:#29586a;}.cls-2{fill:#94928d;}.cls-3{fill:#595337;}.cls-4{fill:#cacbad;}.cls-5{fill:#866a58;}.cls-6{fill:#cd3412;}.cls-7{fill:#999373;}.cls-8{fill:#5d4430;}.cls-9{fill:#beaf64;}.cls-10{fill:#191835;}</style></defs><title>Artboard 1centreShape</title><g id="WindowParts"><g id="centreShape"><path class="cls-1" d="M778.87,809.17l-3.56.1c-.65.83-1.29,1.67-1.94,2.51l-3.1.35c2.78-8.67-5-8.61-9.39-11.36,0-1.1,0-2.19,0-3.29,9.72,3.62,12.58-5.52,18.08-9.74,3.61-2.09,2.83-5.56,2.74-8.81,10.07-5.12,10.14-5.34,5.4-17.66,2.88,2.79,5.62,2.32,6.15-1.51.93-6.73.95-13.58,1.35-20.38,3.64,5.36,5.58,12,11.82,15.39,0,0-.22,4.65,2.56,5.81-.2,12.52-6.58,22.23-14.25,31.56,1.44,2.73,2,6.29,5.48,7.81-3.86,3.32-7.52,6.94-12.42,8.78C784.58,804.6,781.54,803,778.87,809.17Z"/><path class="cls-2" d="M760.84,797.48c0,1.1,0,2.19,0,3.29-6.7,2.25-5.66,6.63-3.14,11.42-8.44-.59-14.47-6.12-18.4-12.24s-11.29-3.44-14.85-8.45c2.86-.16,5.83.23,7.82-1.3,2.92-6.94-8.69-6.8-5.74-13.58a6.86,6.86,0,0,0,1.68-1.45c8.1,5,9.92,4.13,11.76-5.52l5.39,5.79,3.74.47c-1.84,4.75-.16,8.46,3.42,11.61C754,791.92,757.08,795,760.84,797.48Z"/><path class="cls-3" d="M760.55,818.72c18.56-.78,22.29,3.38,20.58,23-15.89,3.57-15.89,3.57-17.38-7.38-3.62.6-1.56,4.41-4.51,6.91-3.7-3.8-9.84-3.61-15-7.57,1.09-8.57,8.59-11,14-15.16,1.13,10.49,1.13,10.49,9.36,6.63C767.63,820.38,761.11,822.89,760.55,818.72Z"/><path class="cls-1" d="M718.24,688.56c3.64.8,6.12,3,8.27,7.14-10,5.24-1.39,11.3-.42,18.41-2.55,2.5-12-.43-7.26,9.65C708.94,720,710,710,703.47,705.39c-4.36-1.2-1.76,4.83-5.48,5.51-8.62-8.63,2.18-11.66,5.27-16.77l15,1.4Z"/><path class="cls-4" d="M794.56,739.38c-.4,6.8-.42,13.65-1.35,20.38-.53,3.83-3.27,4.3-6.15,1.51l-19-20.4a9.21,9.21,0,0,1-1.06-7.5c7.68-2.92,13.83,5.59,21.49,2.88C790.81,736.64,793.23,736.94,794.56,739.38Z"/><path class="cls-5" d="M788.45,736.25c-7.66,2.71-13.81-5.8-21.49-2.88,1.73-5.12,8.62-3.56,10.68-8.23-2-5.83-2-5.83-6.69-10.92-9.86,1.73,3.12,10-4.23,13l-3.3-2.14,0-4.28c.63-4.37,1.27-8.73,1.86-12.8,9.16-3.33,12.29,2.36,15.27,8.34,1.31-1.24,1.77-3.65,6.26-2.93,4.29.94.14,12.6,10.45,9.88C793.46,728.2,789.15,731.05,788.45,736.25Z"/><path class="cls-4" d="M800.17,800c-3.52-1.52-4-5.08-5.48-7.81,7.67-9.33,14-19,14.25-31.56,1.9-3.59,5-2.37,9.44-1.73C818.52,775.33,814.13,789.57,800.17,800Z"/><path class="cls-1" d="M807.09,695.83c5.61-3.75,9.12-5.51,13.42-4.4,6.39,1.64,10.77,9.12,6.43,13-4.68,4.22-.58,8.48-2.35,12.57-6.42.33-8.39-10.91-17.26-3.08C808.43,706,814.65,700.3,807.09,695.83Z"/><path class="cls-1" d="M740,769.65c-1.84,9.65-3.66,10.51-11.76,5.52-2.44-8.95-4.11-17.94-1.23-27.13,1.21-2.11,2.71-3.82,5.51-4.1,3.94,2.51-.32,8.54,4.39,10.75,2.75.17,2.31,5.79,6.37,3.72C742.32,762.19,739.34,765.39,740,769.65Z"/><path class="cls-2" d="M743.29,758.41c-4.06,2.07-3.62-3.55-6.37-3.72-.1-8.05-.09-16.09-.34-24.13-.15-4.56,2.06-6.3,6.29-6.2l-.49,1.09,2.73,2.64a23.23,23.23,0,0,0,.73,2.28c-5.31,5.31-4.29,8.82,2.86,11.08,2.55.81,5.71,1.23,6.78,4.5l-5.14,5.79Z"/><path class="cls-6" d="M805.9,809.08c2.3-4.68,6.41-7.56,9.42-10.29a7.07,7.07,0,0,1,7.48,2.89q11,13.34-5.86,16.24c-2.44.42-5,.1-7.51.13Q807.66,813.57,805.9,809.08Z"/><path class="cls-6" d="M714.22,814.93c-5.91-1.62-8.3-6.15-10-11.53,2.94-5,6.85-7.21,12.13-7C722.91,807.85,722.91,807.85,714.22,814.93Z"/><path class="cls-3" d="M727,748c-2.88,9.19-1.21,18.18,1.23,27.13a6.86,6.86,0,0,1-1.68,1.45l-3.53-.54c-12-4.15-13-7-7.67-21.44,3.14,4.8-2.63,12.29,6.31,17.87V745.58Z"/><path class="cls-6" d="M825.45,756c14.26-2.5,6.5,13.42,15.51,15.35-4.08,1.07-7.26,3.34-11.79,2.51C826.55,768.46,822.64,763.27,825.45,756Z"/><path class="cls-4" d="M721.68,745.58v26.93c-8.94-5.58-3.17-13.07-6.31-17.87l.78-11.44,5,.09A10.56,10.56,0,0,0,721.68,745.58Z"/><path class="cls-4" d="M723,776.08l3.53.54c-3,6.78,8.66,6.64,5.74,13.58-2,1.53-5,1.14-7.82,1.3C721.22,786.62,715.27,782,723,776.08Z"/><path class="cls-7" d="M757.74,812.19c-2.52-4.79-3.56-9.17,3.14-11.42,4.39,2.75,12.17,2.69,9.39,11.36C766.1,813.18,761.92,812.78,757.74,812.19Z"/><path class="cls-3" d="M693.14,744.64c-6.62.71-11.35,5.57-18.22,7.41C680.32,740.29,681.73,739.77,693.14,744.64Z"/><path class="cls-3" d="M701.22,796.32c-2.06,8.52-3.49,14.49-5,20.87C691.19,810.32,691.2,810.25,701.22,796.32Z"/><path class="cls-8" d="M805.9,809.08q1.76,4.49,3.53,9c-3.74,5.76-7.1,3.06-10.52-.38C798.94,812.83,802.87,811.32,805.9,809.08Z"/><path class="cls-6" d="M718.24,688.56v7l-15-1.4C707.59,690.48,711.68,686.21,718.24,688.56Z"/><path class="cls-3" d="M771.8,669.17c-4.78,10.2-10.6,5.88-16.22,7.42C758.79,667.79,764.72,671.12,771.8,669.17Z"/><path class="cls-9" d="M760.55,818.72c.56,4.17,7.08,1.66,7.12,6.4-8.23,3.86-8.23,3.86-9.36-6.63A2.1,2.1,0,0,1,760.55,818.72Z"/><path class="cls-3" d="M827.5,799.3c7.93,2.8,9.68,6.22,7.88,12.57C829,809.71,830.21,804.77,827.5,799.3Z"/><path class="cls-4" d="M778.87,809.17c2.67-6.14,5.71-4.57,8.88-.44C784.8,808.94,782,811.37,778.87,809.17Z"/><path class="cls-3" d="M810.31,744.66c-1.57,2.79-3.2,5.55-2.93,8.93,2.19.42,5.09,1.49,5.9-1.06C814.16,749.77,814.55,746,810.31,744.66Z"/><path class="cls-3" d="M808.52,738.54c-1.12,2.17-.09,3.26,1.71,4C809.81,741.15,810.7,739.21,808.52,738.54Z"/><path class="cls-3" d="M721.16,743.29l-5-.09c-.33-1.53.11-3.05,1.61-3.29C720.06,739.54,721.12,741.05,721.16,743.29Z"/><path class="cls-7" d="M773.37,811.78c.65-.84,1.29-1.68,1.94-2.51A2,2,0,0,1,773.37,811.78Z"/><path class="cls-4" d="M782,779l-16.28-15.18c-7.41,1.51-10.58,8.77-16.6,12.07-1.84,4.75-.16,8.46,3.42,11.61,1.46,4.4,4.52,7.47,8.28,10,9.72,3.62,12.58-5.52,18.08-9.74,3.61-2.09,2.83-5.56,2.74-8.81Z"/><path class="cls-10" d="M768,740.87l-3.88,1.52a10.28,10.28,0,0,0-.48-2.81c3-10.66-4.45-11.28-11.69-12.06,1.68-10.79,7.87-.53,11.45-2.45l3.3,2.14c7.35-3-5.63-11.26,4.23-13,4.71,5.09,4.71,5.09,6.69,10.92-2.06,4.67-8.95,3.11-10.68,8.23A9.21,9.21,0,0,0,768,740.87Z"/><path class="cls-3" d="M739.88,714.31c1.1,3.69,2,6.87,3,10.05l-.49,1.09,2.73,2.64a23.23,23.23,0,0,0,.73,2.28c-5.31,5.31-4.29,8.82,2.86,11.08,2.55.81,5.71,1.23,6.78,4.5a3.27,3.27,0,0,0,2.56-3.17c0-4.42-2.58-6-6.57-6.21-5-.24-3.12-3.68-2.87-6.34h0l3.37-2.71c1.68-10.79,7.87-.53,11.45-2.45l0-4.28C754.87,722.64,750.05,710.8,739.88,714.31Z"/><path class="cls-4" d="M763.66,739.58l-5.62,3.2c0-4.42-2.58-6-6.57-6.21-5-.24-3.12-3.68-2.87-6.34l3.37-2.71C759.21,728.3,766.61,728.92,763.66,739.58Z"/><path class="cls-6" d="M787.06,761.27l-19-20.4-3.88,1.52a10.28,10.28,0,0,0-.48-2.81l-5.62,3.2a3.27,3.27,0,0,1-2.56,3.17l-5.14,5.79-7.05,6.67c-1,3.78-3.95,7-3.28,11.24l5.39,5.79,3.74.47c6-3.3,9.19-10.56,16.6-12.07l16.09,15-.17.09.36.09-.09-.23C791.73,773.81,791.76,773.47,787.06,761.27Zm-26.15-6.55Z"/></g></g></svg>