<svg id="Layer_1" data-name="Layer 1" xmlns="http://www.w3.org/2000/svg" viewBox="0 0 1525 1525"><defs><style>.cls-1{fill:#5d4430;}.cls-2{fill:#595337;}.cls-3{fill:#7b8874;}.cls-4{fill:#cacbad;}.cls-5{fill:#a64e1e;}.cls-6{fill:#94928d;}.cls-7{fill:#866a58;}.cls-8{fill:#cd3412;}.cls-9{fill:#999373;}.cls-10{fill:#d4858f;}.cls-11{fill:#97200b;}.cls-12{fill:#371912;}.cls-13{fill:#191835;}</style></defs><title>Artboard 1innerCircle6</title><g id="WindowParts"><g id="innerCircle"><g id="ci6"><path class="cls-1" d="M588.87,781.79a11.11,11.11,0,0,1,2.7.11c1.94-.56,3.83,3.3,5.88.22-.87-3.06-3.06-3.53-5.65-3.31,12.17-4.5,23.57-4.21,34.51.44,1.89.8,2.73-4.18,6.77-1.28.52,6.29,5.52,13.25.19,20.89,11.38,7.27,12.88,10.39,10.08,21.61-5.29.49-11.76-3.71-15.28,3.84-.19-2.13,1.51-4.68-1.38-6.21-5.78-7.29-11.13,2.44-16.77.43.72-3.71-2.24-6.25-3-9.48,5.72-.79,10.84,6.55,17.36,1.17l-11.43-4.13c1.27-7.42.82-14.11-7.21-18.26-1.34,3.3,2.58,6.89-1.72,8.91l.11.09c-2.53-7.35-7.61-10.51-15.33-9.31a1.75,1.75,0,0,1,.14-1.7C588.83,784.48,588.85,783.14,588.87,781.79Z"/><path class="cls-1" d="M620.48,801.59c3.1-1.51,6-3.07,5.51-8.11-3.18-1.45-6.83-4.51-9.66.27C614.28,797.22,616.85,800.08,620.48,801.59Z"/><path class="cls-1" d="M615.85,783.64c-4.66-5.7-7.35-2.21-10.53,0C608.7,785.06,611.77,785.64,615.85,783.64Z"/><path class="cls-2" d="M606.9,809.05c.78,3.23,3.74,5.77,3,9.48.19,1.71-2.11,3.11-.61,5l17.38-5.44c2.89,1.53,1.19,4.08,1.38,6.21l.12-.2c-4.87,3.27-3.2,5,1.42,6.08.45.93.9,1.86,1.36,2.79q1.51,6.25,3,12.51l.25-.26c-4,1.93-6.15,6.87-11.34,6.74.3-7-4.91-10.32-8.9-15.57-3.07,6.43,3.44,10.38,1.35,15.39-7.94-1.61-.73,7.83-5.55,8.16-5.12,1.23-2-5.4-5.65-5.21l-4.5-.34c.29-1.38.58-2.75.88-4.13,5.32-12.92,4.49-15.33-5.73-16.61-.8-3.9-7.27-6.51-2.67-11.64,9.46-3.59.87-6.76-.22-10.11,3.9-1.06,8.83,1.49,11.46-2.42,1.15-4.9-3.24-6.69-3.64-9.92-.29-2.33,2.57-2.16,4.26-2.74l-.11-.09c.1,4.42,8.41,3.45,6.16,9.41C608.41,806.46,607.14,807.2,606.9,809.05Z"/><path class="cls-3" d="M553.51,890.34c-1-1.62-1.71-4.34-3-4.71-11.21-3.07-11.24-2.94-7.51-14.17l-.14.1c8.46-3.73,8.34-13.8,16.19-22.35-.85,10,2,16,7.41,21,3.28,3,1.49,7.61,1.72,11.53-1.92,3.95-4.84,6.31-9.47,6Q556.1,889,553.51,890.34Z"/><path class="cls-4" d="M520.41,824.47c-6-6.81,4-12.11,1.76-18.57,6.41.78,12.4-6.83,19.07-1l3.68,4a7.58,7.58,0,0,1,.83,8.09c-2.67,5.1-.24,7.84,3.7,10.29l-.13-.17c1,5-.68,7.34-6,6.07-1.5-4.3-4.4-6.09-9-5.63C529.39,828.09,524.44,828.15,520.41,824.47Z"/><path class="cls-1" d="M568.13,881.73c-.23-3.92,1.56-8.56-1.72-11.53-5.46-5-8.26-11-7.41-21-7.85,8.55-7.73,18.62-16.19,22.35-.12-5.51-3.18-8.78-8.09-10.63a1.67,1.67,0,0,1-1-1.47c-1.7-4.75,2-7.73,3.72-11.34l-.31.21c1.75-.29,3.87-.1,5.13-1.05.82-.62-.66-2.08-2-2.48l0-2.13,5.36-3.94,1.47,1.07c1,8.73,6.16,10.16,13.53,7.69l1.34,1.31c-1,5.66-.07,10.7,4.07,15.1,4.6,4.88,7.19,10.53,4.87,17.44A14,14,0,0,1,568.13,881.73Z"/><path class="cls-1" d="M542,852.5c.78,4.36,2.36,7,7,6.74C550.65,853.84,549.69,850.84,542,852.5Z"/><path class="cls-5" d="M544.92,809l-3.68-4c1.8-7.58,6-6.11,10.63-2.78.46,4,1.79,7.44,5.91,9.06l3.65,4.26,2.42,3.87c1.3,4.61,2,9.2-.22,13.75-5.41-.42-9.7-3.56-14.31-5.93l.13.17C548.15,821.15,552.66,813.54,544.92,809Z"/><path class="cls-6" d="M604,796.83c-1.69.58-4.55.41-4.26,2.74.4,3.23,4.79,5,3.64,9.92-2.63,3.91-7.56,1.36-11.46,2.42l0,.19c-.52-1.54-1.06-3.07-3.07-3.19l.09.11q-.3-6.25-.61-12.5l.39-9C596.4,786.32,601.48,789.48,604,796.83Z"/><path class="cls-7" d="M553.51,890.34q2.58-1.32,5.15-2.65c6.15,7.72,12.79-1.87,20.73,1.07-10.62,12.88-28.32,2.92-37.59,13.49-7.07-1.73-8.61-5.92-7.55-11.64C540.66,889.32,547.17,896,553.51,890.34Z"/><path class="cls-8" d="M571,881.34c2.32-6.91-.27-12.56-4.87-17.44-4.14-4.4-5-9.44-4.07-15.1l2.62-3.71,5.9.22a3.49,3.49,0,0,0,2.8,3c.36,1,.73,2,1.1,2.93-.9,3.53-1,6.89,1.93,9.65a22.83,22.83,0,0,0,0,2.34l.27.07c-3.42,3.11-4.41,6.23,0,9.37l-.11-.23c.16,1.18.33,2.35.5,3.52C576.73,879.67,576.49,883.44,571,881.34Z"/><path class="cls-9" d="M594.77,871.89c-4.52,4.18-8.31,11.26-15.7,3.93a3.73,3.73,0,0,0-2.55-3.38l.11.23,0-9.37-.27-.07c3.52-.53,5.09-3.15,6.44-6l-.21.27c5.21-1.5,9.53-1.26,9.72,5.65.07,2.32-1,4.78,2.11,6A2.7,2.7,0,0,1,594.77,871.89Z"/><path class="cls-2" d="M557.78,811.21c-4.12-1.62-5.45-5.06-5.91-9.06C555,792.05,555,792,565.71,790.43c4.22,4.64-5.12,13,4.67,15.28C566.75,811.26,560.92,807.61,557.78,811.21Z"/><path class="cls-1" d="M564.68,845.09l-2.62,3.71-1.34-1.31c.75-3.8,2.8-8.16-1.61-10.75s-8.49-.15-11.92,3.06l-1.47-1.07q-1.17-2.82-2.35-5.66l-.06.16c5.33,1.27,7.05-1,6-6.07,4.61,2.37,8.9,5.51,14.31,5.93,4,1,8.6-1.83,12.2,2.2C575,842,567.12,840.49,564.68,845.09Z"/><path class="cls-8" d="M631,833c-.46-.93-.91-1.86-1.36-2.79-.48-2-1-4.05-1.42-6.08l-.12.2c3.52-7.55,10-3.35,15.28-3.84,6.19,4.8,2.09,8.36-1.39,12.08S634.83,837.8,631,833Z"/><path class="cls-8" d="M594.82,833.66c10.22,1.28,11,3.69,5.73,16.61-4.65-.93-9.92-.82-11.47-7C588.9,838.88,593.89,837.46,594.82,833.66Z"/><path class="cls-3" d="M498.19,869.58l3.07-.53a3.52,3.52,0,0,0,2.72.88l-.33,0c4.58,13,17.08,18.58,25.3,28.3C514.7,893.2,504,884.18,498.19,869.58Z"/><path class="cls-6" d="M522.42,806.1c-3.12.31-5.39,3.44-8.84,2.69,3.31-9.16,15.62-10.37,16.71-20,5.85-1.6,7,2.47,10.35,4.71C534.68,799,525.78,798.74,522.42,806.1Z"/><path class="cls-6" d="M534,792.21c-.32-.35-.62-1-1-1s-.77.51-1.16.8c.33.36.63,1,1,1S533.59,792.51,534,792.21Z"/><path class="cls-4" d="M615.37,851.79c2.09-5-4.42-9-1.35-15.39,4,5.25,9.2,8.61,8.9,15.57C620.26,857.9,617.74,858.13,615.37,851.79Z"/><path class="cls-7" d="M574.72,899.79c-9.42,7.93-17.92,6.28-26.5,4.23C556,901.86,563.59,898.56,574.72,899.79Z"/><path class="cls-9" d="M634,845.49c6-2.86,9-10.38,18.32-11a46.88,46.88,0,0,1-14.8,14.09c-3.43,2.06-4-.41-3.27-3.32Z"/><path class="cls-10" d="M513.32,808.93c-1.31,7.48-3.94,12.32-12.11,6.05C504.11,810.7,506.09,804.57,513.32,808.93Z"/><path class="cls-3" d="M582.45,842.57q.09,7.45.17,14.92l.21-.27-5.9-.65c-.28-1.87-.55-3.75-.83-5.62l.57-5.7c.94-1,1.87-2.06,2.81-3.08l.13-.07Z"/><path class="cls-6" d="M563.85,819.34l-2.42-3.87c.47-3.21,2.19-3.16,4.46-1.73H566c1.71,4.61,7.72,6.18,8.65,12.58C569.38,825.71,566.63,822.49,563.85,819.34Z"/><path class="cls-9" d="M588.87,781.79c0,1.35,0,2.69,0,4l-14.12-1.55C578.88,777.32,584.48,782.69,588.87,781.79Z"/><path class="cls-4" d="M579.42,794.57c.19,2.74,1,5.59.45,8.18-.85,4.27-2.58,2.21-4,0a4.31,4.31,0,0,0,0-2.49,3,3,0,0,0-1.6-3.94C573.24,787.9,577.73,795.2,579.42,794.57Z"/><path class="cls-6" d="M599.67,854.4l4.5.34c-.58,2.14.61,5.76-3.26,5.38-3-.29-6.13-2.16-5.48-5.65C596,851.35,598.19,853.24,599.67,854.4Z"/><path class="cls-9" d="M612.32,869c.61-4.72,3.69-7.19,9.08-9.89C620.47,865.53,617,867.73,612.32,869Z"/><path class="cls-7" d="M615.78,875.58c3.52-4.89,5.43-8.85,12.07-8.75C624.83,871.35,622.79,874.69,615.78,875.58Z"/><path class="cls-4" d="M492,839.13c6.6,3.72,1.72,9.7,2.87,14.5C489.42,849.69,492.76,844,492,839.13Z"/><path class="cls-11" d="M591.8,778.81c2.59-.22,4.78.25,5.65,3.31-2.05,3.08-3.94-.78-5.88-.22C591.65,780.87,591.72,779.84,591.8,778.81Z"/><path class="cls-1" d="M576.1,851c.28,1.87.55,3.75.83,5.62-.18,1.44-.35,2.88-.52,4.32-2.95-2.76-2.83-6.12-1.93-9.65Z"/><path class="cls-4" d="M594.77,871.89a2.7,2.7,0,0,0-.32-2.8c.4-1.49,1.8-2.64,2.64-1.4C598.52,869.79,598.72,872.25,594.77,871.89Z"/><path class="cls-4" d="M534.51,890.77c-1-3.1-3.39-3.67-6.23-3.22-4.46-8.3-13.08-12.69-18.8-19.83-.9-1.12-2.4.44-2.94,1.84,6.05,7.46,10.75,16.54,21.65,18.17C529.11,891.12,532.05,890.48,534.51,890.77Z"/><path class="cls-1" d="M576.52,872.44a3.73,3.73,0,0,1,2.55,3.38A7.41,7.41,0,0,0,577,876C576.85,874.79,576.68,873.62,576.52,872.44Z"/><path class="cls-8" d="M574.34,796.37a3,3,0,0,1,1.6,3.94A3.59,3.59,0,0,1,574.34,796.37Z"/><path class="cls-1" d="M579.48,842.17c-.94,1-1.87,2.05-2.81,3.08A2.94,2.94,0,0,1,579.48,842.17Z"/><path class="cls-1" d="M573.38,848.31a3.49,3.49,0,0,1-2.8-3A3.33,3.33,0,0,1,573.38,848.31Z"/><path class="cls-11" d="M520.41,824.47c4,3.68,9,3.62,13.88,3.13,4.62-.46,7.52,1.33,9,5.63l.06-.16a5.94,5.94,0,0,0-2.75.51c-4.41-.7-8.14-.24-8.84,5.28H511.25c1.07-5.89,2-10.93,3-16.47Z"/><path class="cls-4" d="M537.48,848.12c-1.75,3.61-5.42,6.59-3.72,11.34-1.75.49-4.07.6-4.56,2.59-1.39,5.75-4.32,2.57-7,1.43l-8.4-15.3c2.16-8.13,8.73-5.07,12.71-3.63C530.15,845.85,533.29,848.43,537.48,848.12Z"/><path class="cls-5" d="M534.72,860.93c4.91,1.85,8,5.12,8.09,10.63l.14-.1c-6.09.44-3.92,7.25-7.62,10-5.41-1.44-9.39-4.81-13.89-10.16C527.44,869.16,533.33,867.45,534.72,860.93Z"/><path class="cls-4" d="M543.37,833.07a5.94,5.94,0,0,0-2.75.51c-4.41-.7-8.14-.24-8.84,5.28.86,3.53,3.19,1.31,5,1.26l3.62,2.55,5.36-3.94Q544.55,835.91,543.37,833.07Z"/><path class="cls-6" d="M540.33,844.8c1.31.4,2.79,1.86,2,2.48-1.26,1-3.38.76-5.13,1.05C537.11,846.16,538.87,845.61,540.33,844.8Z"/><path class="cls-12" d="M550.46,885.63c-11.21-3.07-11.24-2.94-7.51-14.17-6.09.44-3.92,7.25-7.62,10-5.41-1.44-9.39-4.81-13.89-10.16,6-2.15,11.89-3.86,13.28-10.38a1.67,1.67,0,0,1-1-1.47c-1.75.49-4.07.6-4.56,2.59-1.39,5.75-4.32,2.57-7,1.43-4.22,4.71-8.44,2.74-10.7-1.36-2.56-4.61-3.85-10.2,2.3-13.94,2.16-8.13,8.73-5.07,12.71-3.63,3.51,1.27,6.58,3.75,10.63,3.58.06-2,1.73-2.55,3.14-3.33l0-2.13-3.62-2.55c-1.77,0-4.1,2.27-5-1.26H511.25c1.07-5.89,2-10.93,3-16.47l6.19,2.08c-5.94-6.73,3.79-12,1.82-18.34-3,.41-5.27,3.4-8.65,2.66l-.26.14c-1.31,7.48-3.94,12.32-12.11,6.05-8.23,6.09-10.28,14.52-9.19,24.15,6.6,3.72,1.72,9.7,2.87,14.5l3.3,16,3.07-.53a3.52,3.52,0,0,0,2.57.88l-.18,0,.33,0v0c.86-.11,1.72-.22,2.57-.35.54-1.4,2-3,2.94-1.84,5.72,7.14,14.34,11.53,18.8,19.83,2.78-.44,5.07.1,6.16,3,6.34-1.12,12.79,5.4,19.07-.23C552.51,888.72,551.8,886,550.46,885.63Z"/><path class="cls-8" d="M620.48,801.59c-3.63-1.51-6.2-4.37-4.15-7.84,2.83-4.78,6.48-1.72,9.66-.27C626.53,798.52,623.58,800.08,620.48,801.59Z"/><path class="cls-6" d="M610.06,806.15c2.25-6-6.06-5-6.16-9.41,4.3-2,.38-5.61,1.72-8.91,8,4.15,8.48,10.84,7.21,18.26A6.8,6.8,0,0,1,610.06,806.15Z"/><path class="cls-9" d="M626.69,818.1l-17.38,5.44c-1.5-1.9.8-3.3.61-5C615.56,820.54,620.91,810.81,626.69,818.1Z"/><path class="cls-3" d="M610.06,806.15a6.8,6.8,0,0,0,2.77-.06l11.43,4.13c-6.52,5.38-11.64-2-17.36-1.17C607.14,807.2,608.41,806.46,610.06,806.15Z"/><path class="cls-9" d="M615.85,783.64c-4.08,2-7.15,1.42-10.53,0C608.5,781.43,611.19,777.94,615.85,783.64Z"/><path class="cls-12" d="M544.92,809c7.74,4.59,3.23,12.2,4.53,18.38-3.94-2.45-6.37-5.19-3.7-10.29A7.58,7.58,0,0,0,544.92,809Z"/><path class="cls-13" d="M530.33,821.25l-8-8.75C532.35,814.9,530.33,821.25,530.33,821.25Z"/><path class="cls-3" d="M547.19,839.8c3.43-3.21,7.37-5.75,11.92-3.06s2.36,7,1.61,10.75C553.35,850,548.19,848.53,547.19,839.8Z"/><path class="cls-4" d="M542,852.5c7.67-1.66,8.63,1.34,7,6.74C544.38,859.51,542.8,856.86,542,852.5Z"/><path class="cls-8" d="M591.93,811.91l0,.19c-.52-1.52-1-3-3-3.17l-.6-12.41c-2.72-1.76-3.91-10.47-8.87-1.95.19,2.74,1,5.59.45,8.18-.85,4.27-2.58,2.21-4,0-3.87,3.8,1.56,9.46,1.34,9.61a4.21,4.21,0,0,0,0,2.28c-.38,1.69.44,2.8,1.8,3.63,3,6,8.71,2.44,13,3.7C601.61,818.43,593,815.26,591.93,811.91Zm-3.13-3"/><path class="cls-1" d="M576.66,863.3l0,9.37C572.25,869.53,573.24,866.41,576.66,863.3Z"/><path class="cls-13" d="M576.41,860.89c.17-1.44.34-2.88.52-4.32l5.9.65c-1.35,2.86-2.92,5.48-6.44,6A22.83,22.83,0,0,1,576.41,860.89Z"/><path class="cls-13" d="M535.5,793c-.66.53-1.36,1.52-2,1.46s-1.13-1.18-1.69-1.83c.67-.53,1.37-1.52,2-1.46S534.94,792.38,535.5,793Z"/></g></g></g></svg>