<svg id="Layer_1" data-name="Layer 1" xmlns="http://www.w3.org/2000/svg" viewBox="0 0 1525 1525"><defs><style>.cls-1{fill:#191835;}.cls-2{fill:#f6ba9c;}.cls-3{fill:#595337;}.cls-4{fill:#b5ad9d;}.cls-5{fill:#866a58;}.cls-6{fill:#94928d;}.cls-7{fill:#371912;}.cls-8{fill:#cd3412;}.cls-9{fill:#005bab;}.cls-10{fill:#beaf64;}.cls-11{fill:#999373;}</style></defs><title>Artboard 1innerCircle1</title><g id="WindowParts"><g id="innerCircle"><g id="ci1"><path class="cls-1" d="M850.2,584.73c3.74,1.57,8.92-.48,11.3,4.51l0,1.48-3.27,7.17c.69,3.23,4.21,4,5.74,6.44,0,2.21-.37,4.28-2.76,5.26-12.37-7.77-12.78-8.06-20.61,3.07-3.42,4.85-8.77,5.59-12.76,8.89l.19.19c1.32-7.47,6.14-13.37,9.23-20,2.77-6,3.36-10.89-2.56-17.06-1,7-2.68,12.32-5.3,16.82l-7.71-.85c-.92-14-3.12-16.21-15.47-15.8-3.94.13-7.88.36-11.82.54l-3.52,0,3.48-3.07c5-3.92,5.3-7.76-.2-11.5-7.41.84-15.58.75-14.67,11.87,0,1.91,0,3.83,0,5.75-1.27,4-1,7.43,3.1,9.68-8,7.64-8.57,11.85-3,23.6,2.62.21,5.58-.41,6.91,2.88-2.56.5-6.38-.84-5.95,4.44,4,2.72,8,1.59,12.3,1.55-2.31-3-3.48-4.56-4.65-6.1l0-.14c4.24.77,6.43-1.17,6.53-5.3.15-5.75.05-11.5.06-17.26,4.14,7,12.17,6.75,18.33,9.59,4.2,3.47-.44,10.44,5.48,12.94-.26,3.23-5.27,3.09-4.77,7.83,10,6.15,22.23,2.78,33.21,5.9.29,3-2.25,5.9-.22,8.81,3.34,1.62,5.5-4.81,9.14-1.32,2.71,2.61,5.58,4.4,8.87.76-3.06-12.64-2.85-12.93,9.76-13.72,2.72-2.19-2.45-5.86,1.53-7.8,6.87.45,6.63-4.32,5.79-8.65-1-5-4.57-5.46-8.76-3.6-1.09-4.26-4.9-9,2.17-11.78,3.51,3.4,6.6,3.73,9.5-.9a21.09,21.09,0,0,0,3.31-11.13c2.44-2.9,9.21,7.75,9.17-2.93,4.28-2.77,8.25,1.38,12.33.79,3-3.5,4.49-7.59,1.37-10.84-4-4.18,1.85-5.52,1.52-8.41l-.22.22c3.26-3.31,2.55-7,.6-12-2.9,4.21-6,.25-9.86,1.21-4.49.24,5,11.16-5.15,7.92,4-4.58.7-8.48-1.18-12.51,3.57-3.56,8.73,2.13,12.1-1.38,1.41-11.37-6.24-5.09-9.87-5.73.8-5.59,5.1-6.86,10.68-7.51-6.59-9.85-13.41-17.6-21.69-24.07a3.18,3.18,0,0,0-3.61-3.05l-1.3.15c-5.89-4.41-12-2.91-18.18-.73-1.72-9.79-11.37-3.4-16.22-7.86-3.08-2.83-8.49-2.66-11.91,1.78-2.34.4-5,.15-5.75,3.35l.06,0c-7.92.25-11.23,5.14-12.31,12.26-13.3-2.82-18.19,8.85-27.19,13.49a13.16,13.16,0,0,0,9.07,7.22c-.33,4.08.1,8,2.93,11.22L794,557.48c6.55,8.38,16.15,7.55,24.56,9.73l5.9.27c5.12,0,5.76,9.75,12.7,5.91,2.9,1.09,2.38,5.47,5.81,6.05a26.13,26.13,0,0,0,2.8-.16l4.34.53C850.1,581.45,850.15,583.09,850.2,584.73Z"/><path class="cls-2" d="M860.82,609.59c1.66,4.15,3.73,8,7.37,10.81-13.42,13.76-17.39,14-30.38,2.11a12,12,0,0,0-7.58,4.2c-1.89.14-5.16.82-5.16.82a6.3,6.3,0,0,0-.62-2.77l3-3.21c4-3.3,9.34-4,12.75-8.89C848,601.53,848.45,601.82,860.82,609.59Z"/><path class="cls-2" d="M819.19,609.69c-.19,4.87.75,9.81-.94,14.58-5.92-2.5-1.28-9.47-5.48-12.94-6.16-2.84-14.19-2.56-18.33-9.59q-.21-8.19-.43-16.38c3.94-.18,7.88-.41,11.82-.54,12.35-.41,14.55,1.85,15.47,15.8l.18-.26C817.69,602.73,817.33,605.94,819.19,609.69Z"/><path class="cls-3" d="M894,549.6c.58-6-.3-11-6.07-15-5.57-3.89-9.42-9.85-12.08-16.88,2.18-2.28,4.51-4.73,6.84-7.19l1.3-.15,3.6,3.05c8.29,6.47,15.11,14.22,21.7,24.07-5.58.65-9.88,1.92-10.68,7.51,3.63.64,11.27-5.64,9.86,5.73-3.36,3.51-8.52-2.18-12.09,1.38C894.58,552.21,894.12,551.05,894,549.6Z"/><path class="cls-4" d="M894,549.6c.14,1.45.6,2.61,2.38,2.55,1.88,4,5.14,7.93,1.18,12.51-6.47-.5-11.58.09-6.79,8.53-5,3.06-10.32,2.56-13.46-1.9-4.23-6-10.67-6.49-16.51-8.17-.17-7.75,6-3.76,8.68-5.7,3.69.21,4.94-2.37,5.94-5.23C881,546.88,886.91,544.18,894,549.6Z"/><path class="cls-5" d="M890.75,573.19c-4.79-8.44.32-9,6.79-8.53,10.16,3.24.66-7.68,5.15-7.92,3.85-1,7,3,9.86-1.21,2,5-2.08,8.69-4.16,10.53l3.78,1.22c.33,2.89-5.54,4.23-1.52,8.41,3.12,3.25,1.6,7.34-1.37,10.84-4.08.59-8-3.56-12.33-.79-7.47-4.37,2.39-9.71-.94-14.45Z"/><path class="cls-2" d="M875,600.7c-2.27-6.58-8.93-7.07-13.85-10l0-1.48c3.51-1,6.21-2.73,5.75-7l-.11.38c8.49-3.09,16.23-3.57,21,6.07a21.09,21.09,0,0,1-3.31,11.13C881.57,604.43,878.48,604.1,875,600.7Z"/><path class="cls-5" d="M864.49,509.83c-1.47,5.18-6,7.49-10,5.66-6.47-3-12.06.83-18,.37l-5.83-8.78-.06,0c2.44-.21,5.24.2,5.75-3.35,3.42-4.44,8.83-4.61,11.9-1.78C853.12,506.43,862.76,500,864.49,509.83Z"/><path class="cls-6" d="M803.17,551.27c13.55.34,14.75,1.63,14.93,15.94-8.41-2.18-18-1.35-24.56-9.73Z"/><path class="cls-3" d="M827.5,621.5c-2,.3-3.81.89-5.68-.72l1.52-5.43c1.91-4.05,3.95-8-2-10.82-.51-.24,0-2.73.09-4.17l-.18.26,7.71.85c2.62-4.5,4.35-9.84,5.3-16.82,5.92,6.17,5.32,11.11,2.56,17.06C833.78,608.37,828.82,614,827.5,621.5Z"/><path class="cls-3" d="M815.26,525.13l-15,14.92a13.14,13.14,0,0,1-9.07-7.22c9-4.64,13.89-16.31,27.19-13.49Z"/><path class="cls-7" d="M815.26,525.13l3.1-5.79c1.08-7.12,4.39-12,12.31-12.26l5.83,8.78c-1.07,2.58-3.35,3.11-5.76,3.42l-.54-.5c-1.24-3.59-2-1.11-2.78.24l-.61.51c-2.45,4.82-6.74,5.74-11.59,5.47Z"/><path class="cls-4" d="M779.2,621.67c.43-2.36,2.58-2.7,4.52-3.79-1.89-3.79-7.11-6.83-3.41-12.13l3.38,6c2-3.66-.15-8.52,4.82-10.89,4.94,8,3.14,15.73-.66,23.45l0,.14a1.12,1.12,0,0,0-1.7.11C784.78,621.26,781.82,621.88,779.2,621.67Z"/><path class="cls-5" d="M790.48,585.34c-4.53-.88-3.38-5.88-5.69-8.31-3.45.55-1.52,6.11-5.69,5.61-.91-11.12,7.26-11,14.66-11.87l.21,11.5Z"/><path class="cls-8" d="M875.77,624.73c-1.78-3.89-4.23-7.62-3-12.25,4.19-1.86,7.79-1.44,8.76,3.6C882.4,620.41,882.64,625.18,875.77,624.73Z"/><path class="cls-8" d="M794.44,601.74q-.21-8.19-.43-16.38l-3.53,0c-4.53-.88-3.38-5.88-5.69-8.31-3.45.55-1.52,6.11-5.69,5.61,0,1.91,0,3.83,0,5.75-1.27,4-1,7.43,3.1,9.68-8,7.64-8.57,11.85-3,23.6.43-2.36,2.58-2.7,4.52-3.79-1.89-3.79-7.11-6.83-3.41-12.13l3.38,6c2-3.66-.15-8.52,4.82-10.89,4.94,8,3.14,15.73-.66,23.45,4.24.77,6.43-1.17,6.53-5.3C794.53,613.25,794.43,607.49,794.44,601.74Z"/><path class="cls-6" d="M824,567.48c-.93-1.58-1.85-3.17-3.54-6.06,10-.35,12.8,6.24,16.24,12C829.76,577.23,829.12,567.53,824,567.48Z"/><path class="cls-3" d="M786.11,624.55a1.12,1.12,0,0,1,1.7-.11c1.17,1.54,2.34,3.08,4.65,6.1-4.32,0-8.25,1.17-12.3-1.55C779.72,623.71,783.55,625.05,786.11,624.55Z"/><path class="cls-6" d="M849.65,579.81c5.77.43,12.29-3.65,17.08,2.79l.11-.38c-5.43,2.57-11.79-1.14-17.06,2.51C849.74,583.09,849.69,581.45,849.65,579.81Z"/><path class="cls-6" d="M807,572.75c3.14.16,7.28-1.78,8.07,4.62-4.15,1.91-7.06.27-9.57-3.08A13.64,13.64,0,0,1,807,572.75Z"/><path class="cls-9" d="M857.84,597.89c4.31-1.26,6.89,1.09,9,4.34l-3.29,2.1C862.05,601.84,858.53,601.12,857.84,597.89Z"/><path class="cls-9" d="M846.44,576.72a10.45,10.45,0,0,0-1.13,2.56,26.13,26.13,0,0,1-2.8.16c-1.48-3-.31-5.75.62-8.55l5.12-.33.09.1Q847.38,573.69,846.44,576.72Z"/><path class="cls-8" d="M794,582.27l-.21-11.5C799.27,574.51,798.92,578.35,794,582.27Z"/><path class="cls-7" d="M836.36,503.75c-.51,3.55-3.31,3.14-5.75,3.35C831.31,503.9,834,504.15,836.36,503.75Z"/><path class="cls-5" d="M805.47,574.29c-1-.71-2.89-1.4-1.63-2.8s2.41,0,3.13,1.26A13.64,13.64,0,0,0,805.47,574.29Z"/><path class="cls-1" d="M887.57,513.46l-3.6-3.05A3.16,3.16,0,0,1,887.57,513.46Z"/><path class="cls-10" d="M874.54,534.72c-3.3,6.87-10.61,6.31-15.9,9.3-.57,1.76-.59,3.84-2.83,4.81-3.62-2.7-.66-4.53.92-6.53-1.59-6-9.48-11.5-.38-18.27,9.95-7.39,14-6.53,17.09,5.17C874,531.08,874.21,533,874.54,534.72Z"/><path class="cls-2" d="M818.58,545.77c8.19.92,15.88,4.08,25.58,7.47-4.31-8-9-12.84-5.67-20.9,1.64-3.89-2.63-9.16-8.08-10.82a19.62,19.62,0,0,1-2.95.35l3.36,5.88a22.92,22.92,0,0,1,1.74,1.65c-1.57,2-1.85,0-2.52-.87h-9.7c-2.33,3.44-2,6.17,1,8.56l0,0C825.11,541.49,821.11,543.39,818.58,545.77Zm2.88-8.72c.32-2.12-.2-4.89,3.26-4.78a2.44,2.44,0,0,1,1.61,1.76C826.48,537.73,823.34,536.41,821.46,537.05Z"/><path class="cls-11" d="M848.25,570.56l-5.12.33c3.33-5-.09-10.19-.11-14.69,5-4.76,9.5-5.33,13.2-.35,3.56,4.79.24,8.12-3.59,11C851.09,568,849.71,569.31,848.25,570.56Z"/><path class="cls-11" d="M875.4,552.19c-1,2.86-2.25,5.44-5.94,5.23a8.83,8.83,0,0,0-2.39-1.7c-3.39-1-7.85-1.66-5.67-6.52s6.45-3.66,10.05-1.36C873.05,548.86,874.1,550.71,875.4,552.19Z"/><path class="cls-9" d="M875,576c-8,.87-14.22,2.43-17.66-6.4C865.16,564.85,870,567.43,875,576Z"/><path class="cls-11" d="M846.44,576.72q.94-3,1.9-6.06c2.31.23,5.73-.1,5.23,3.22C853,577.72,849,576.21,846.44,576.72Z"/><path class="cls-7" d="M827.46,521.87a7.91,7.91,0,0,1-.65-2.34l.61-.51a25.85,25.85,0,0,0,2.78-.24l.54.5a5.36,5.36,0,0,0-.33,2.24A19.62,19.62,0,0,1,827.46,521.87Z"/><path class="cls-5" d="M830.2,518.78a25.85,25.85,0,0,1-2.78.24C828.24,517.67,829,515.19,830.2,518.78Z"/><path class="cls-4" d="M821.35,537.09l.11,0s0,.08,0,.12Z"/><path class="cls-4" d="M826.33,534c.15,3.7-3,2.38-4.87,3,.32-2.12-.2-4.89,3.26-4.78A2.44,2.44,0,0,1,826.33,534Z"/><path class="cls-4" d="M830.82,527.75h0l-3.36-5.88a7.91,7.91,0,0,1-.65-2.34c-2.45,4.82-6.74,5.74-11.59,5.47-.53,7.19-7,15.34,3.36,20.77,2.52-2.38,6.52-4.28,2.8-8.65-3-2.39-3.38-5.14-1-8.59H830c.67.86,1,2.87,2.52.87A21.28,21.28,0,0,0,830.82,527.75Zm-.69.7.3-.31Zm.63-.63-.17.16Z"/></g></g></g></svg>