<?xml version="1.0" encoding="utf-8"?>
<!-- Generator: Adobe Illustrator 24.0.0, SVG Export Plug-In . SVG Version: 6.00 Build 0)  -->
<svg version="1.1" id="Layer_1" xmlns="http://www.w3.org/2000/svg" xmlns:xlink="http://www.w3.org/1999/xlink" x="0px" y="0px"
	 viewBox="0 0 84.5 100.7" style="enable-background:new 0 0 84.5 100.7;" xml:space="preserve">
<style type="text/css">
	.st0{fill:none;stroke:#000000;stroke-width:4;stroke-linecap:round;stroke-miterlimit:10;}
</style>
<g>
	<path d="M50.8,8l20.9,84H10.1L31.3,8H51 M53.4,2H28.7c-1.1,0-2.2,0.9-2.5,1.9L2.9,96.1c-0.3,1,0.4,1.9,1.5,1.9h73
		c1.1,0,1.8-0.9,1.5-1.9l-23-92.2C55.6,2.9,54.5,2,53.4,2L53.4,2z"/>
	<g>
		<path d="M46.1,31c0.4,1-0.2,1.9-1.3,1.9l-7.5,0c-1.1-0.1-1.7-0.9-1.3-1.9l2.2-5.9c0.4-1.1,1.6-1.9,2.7-1.9l0.2,0
			c1.1,0.1,2.3,0.9,2.7,1.9L46.1,31z"/>
	</g>
	<line class="st0" x1="41" y1="78.8" x2="41" y2="9.7"/>
</g>
</svg>
