<svg id="Layer_1" data-name="Layer 1" xmlns="http://www.w3.org/2000/svg" viewBox="0 0 1525 1525"><defs><style>.cls-1{fill:#421a20;}.cls-2{fill:#7b8874;}.cls-3{fill:#191835;}.cls-4{fill:#5d4430;}.cls-5{fill:#999373;}.cls-6{fill:#97200b;}.cls-7{fill:#595337;}.cls-8{fill:#371912;}.cls-9{fill:#cacbad;}.cls-10{fill:#94928d;}.cls-11{fill:#beaf64;}.cls-12{fill:#cd3412;}.cls-13{fill:#005bab;}.cls-14{fill:#d4858f;}.cls-15{fill:#b5ad9d;}.cls-16{fill:#866a58;}.cls-17{fill:#29586a;}</style></defs><title>Artboard 1outerCircle3</title><g id="WindowParts"><g id="outerCircle"><g id="co3"><path class="cls-1" d="M1422.55,787.84l2.29,3.14.93,8.94c-3.69.45-7.79-1.11-11.46,2.7,1.15,4.67,3.44,8.17,8.9,8.94,3.12-3.91,1.56-8.06,2.52-11.7,3.1,1.09,5.07,5.13,9.21,3.51l1.34,1.18-1.22-1.38q.26-7.63.52-15.25l2.42-3.22a62.59,62.59,0,0,1,19.09,18c2.14-3.4,3.77-6,7.29-5.48.61,4.87-4.91,11,2.86,14.4-2.78,1.09-7.06-.9-8,3.9a7.49,7.49,0,0,1-.58,2.72c-5-4.1-9.79-8.71-17.6-4.1.62,8.75-2.6,18.06,5.78,25q-1.55,6.22-3.1,12.44c-4.9-3.35-2.37-11.32-9.16-14.27-3.65,4.17-4.7,9.31-5.75,14.46l-3.11-.43c-1.35-4.59-8-1.86-9.19-6.66,2.85.12,5.94,1.54,9-2.49-1.07-8.25,1.45-17.6-1.49-27-12,4.42-21.3,13.44-25.4,24.09-20.55,14.32-20.6,18.33-.37,30.21,0,1.58.09,3.16.13,4.75l-5.47-2.24c-10.29-1.53-22.33-.12-24.87-14.74,5.12,1.46,6.73,9,13.81,8-1.93-6.26-7.59-9.22-10.63-14.11,4.43.14,9.24,1.23,11.69-5.71-4.86-1.78-6.37-8.16-12.22-9.35-3.76,3.78-5.78,7.45-2.39,12.09-2.42,1.33-2.72,3.69-3,6.07-4.22-.1-2.63,5.35-5.88,6.17-3.45.63-3.48,5.69-7.39,5.71.92-4.31,1-9,4.78-12.13,4.8-4,1.91-7.79-.39-11.57,2.58,0,5.37.48,6.55-2.8,3.87-9.55,3.61-10.18-4.45-10.63l-4.32.73a8.42,8.42,0,0,0,2.38-8.85,16.75,16.75,0,0,1,8.92,3.11c1.57,1.65,1.78,4.71,5.89,4.92-3.19-10.21-.89-22-11.89-28.63-5-4.22-6.61-12.74-15.36-12.34l-12-3c-4.62-4.82.69-6.56,2.87-9.27,1.86-3.32,7.11-2.95,8-7.51l-5.08-4.37c7.63-1.06,15.24-2.34,22.89-3.09,3.71-.36,8.06-1.6,10.57,2.94.51,4.16-4.68,4.52-5.51,8.34l8.57,8.06c7,13.21,24.86,13.74,30.94,28.09,4.3-5.08,5.76-9.65,5-14.88,1.68-2.69-.7-6.89,3.24-8.74.33,2.49-1.69,5.53,1.84,7.45Z"/><path class="cls-1" d="M1432.79,836.28c7.55-10,4.69-18.26,3.43-28.45C1426.19,816.24,1427.28,824.29,1432.79,836.28Z"/><path class="cls-1" d="M1336.11,777.3c4.88,4.38,7.58,7.3,14.24,6C1346.09,779.84,1343.87,776,1336.11,777.3Z"/><path class="cls-2" d="M1356.45,842.6c2.3,3.78,5.19,7.53.39,11.57-3.76,3.17-3.86,7.82-4.78,12.13-11.58,12.79-25.78,14.35-41.43,9.62-3.48-1.4-6.61-3-3.18-9,2.33-3,6.35,3.91,9.74.67-14.72-5.83-1.57-13.5-1.33-20.54,4.62-.23,9.35,1.62,14.28-.64L1322,843l18.17-1.47a3.42,3.42,0,0,0,3.9-2.24c1.86-.68,3.15-1.45.35-2.73l-4.08.26-4.79.09-7.27-3.08a2.3,2.3,0,0,0-1.91,1.89l-.47,3.17c-2.43.48-5.23.31-6,3.54-4.06,0-5-3-5.63-6.14,2.46-.14,4.77-.5,5.53-3.4.28-1.88,3.31-2.64,2.08-5.13,10.63,3.15,21.15,7.81,32.37,2.19l4.32-.73q-1.27,3.54-2.53,7.08a3.78,3.78,0,0,0-2.65,3.32,2,2,0,0,0,2.23,2Z"/><path class="cls-3" d="M1133.1,878.18l-6.6-2.92c-1.65-4,3.31-7.1,1.76-11-7.35-7.07-16.24-6.62-25.19-5.91,1.3-4.42,1-9.45,4.93-12.86,2,15.32,15.67,6.75,22.47,12.57,3.63-7.95,2.63-16,7.42-22.11l.93.21c-.79,3.64,1.71,6.25,2.89,9.28,3,7.23,7.65,9.79,20.18,10.83l-5.69-4.84c8.28-1.62,14.33,6.76,22.56,5.33,3.52-4.71,1.85-9.73,1.73-14.58l.91-.1c2.46,2.3,2.35,5.37,2.34,8.33,0,6.28,3.11,7.83,8.65,6q.21,3.74.4,7.47c-2.39-1.43-4.46-4.42-8.22-1.2.16,7-2.18,14.7,1.75,22.09,9.06-3,5.18-10.44,7.25-15.42l3.1.45c-1.37,5.6,3.45,6.44,6.66,7.44,1.65.51,1.76-2.69,1.47-4.56,2.52-.1,5,0,6.33,2.64L1202,885c-2.37-.14-5.66-2.44-5.85,2.5-.33,8.15-6.82,8.06-12.37,9.23l.21.1c-1.87-4.63-6-2.77-9.29-3.21l.15.18c7.5-10.26-7.28-8.78-8.25-13.77,3.61-8,9.62,3.14,13.31-3.79-11.9-5.63-22.87-13.36-36.69-14.82.22,5.4,7.3,4.27,7.12,10.05C1144.57,873.19,1133.5,863.45,1133.1,878.18Z"/><path class="cls-3" d="M1180.13,864.47c-2.41-1.31-4.19-5.19-8.43-2.5C1174.43,864.32,1176.27,866.92,1180.13,864.47Z"/><path class="cls-4" d="M1127.34,648.76c1.73-12.33,10.1-18.79,21.18-20.49,6.93-1.07,12.33-11.92,20.72-3.59l8.79.09c-1.14,3.63-7.13,4-6.09,9.14-14,.51-27,4-40.06,15.52,9-3.64,2.49,5.18,7.54,4.79,8.79-2.24,16.18-10.45,26.32-5.53a11.27,11.27,0,0,1-.15,2.72c-3.77,1.14-7.75,1.92-10.63,5.94,5.57,1.51,9.12-2.51,13.48-2.78l3.43.4h0l2.8,5.5c-3.16,1-7.65.38-7.36,6.46l6.81-2.61c-4.1,5.24.18,9.82,1.16,14.66a17.78,17.78,0,0,0-2.63-.07c-2.88-3.47-3.89-9.7-10.76-7.31.22-4.1-2.54-5.57-5.51-4.26-5.33,2.34-11.83,2.53-16.12,7.51,2.65,2.09,5,.9,7.35.57,0,1.2-.07,2.4-.1,3.6-4.43,0-7.37,2.18-8.89,6.32-4.17-5.22-5.31-11.53-6.42-17.85.54-2.68.12-5-2.37-6.61Z"/><path class="cls-1" d="M1192.79,863.86q-.19-3.74-.4-7.47l.3-4.42.56-9.55c3.39-.36,7.23.39,9.2-3.6,3.39,2.93,7.08,4.68,11.66,3.08h11.06c5.64-9.38,5.49-18.3,1.53-27.37a3.77,3.77,0,0,0-.7-2.87,5.33,5.33,0,0,1,.74-2.29l5,.16a7.94,7.94,0,0,0,.84,2.41l-.36,21.3c.11,1.17.21,2.33.32,3.5a8,8,0,0,0,0,2.62,7.17,7.17,0,0,0-.35,5.92l-3,6.15c-1.46,3.9-7.68,9.4,3.09,9.17l-.15-.29c-4,4-8.08,8-5.7,14.47a3.87,3.87,0,0,0,2.19,3.89,5.73,5.73,0,0,1,1.34,2.51l-6.45.24-.24-.19-3.28-2.48-8.94-3.45c-1.38-2.63-3.81-2.74-6.33-2.64-3.09.1-5.65-1.27-8.13-2.88l-3.1-.45Z"/><path class="cls-5" d="M1489.11,700.2c5.33,11.2,9.6,22.47,8.56,35.43-.44,5.61,6,10.82,2.4,17.44-5.7,4.87-12.35-5.74-17.14,1.43-3.57-2.26-1.94-6.58-5.32-7.86-2.12-.68-2.69.83-2.92,2.31-.57,3.62.78,9.2-6.22,5.54-.61-7.88.53-16-3.06-23.47q-.48-3.36-.94-6.7c.23-2.56-.17-5.49,3.55-6,.36,1.42.71,2.85,1.26,5.06,1.16-2.75,1.68-4.45-1.39-4.93,2.5-3.27,5.6-6,9.85-5.63C1487.57,713.81,1488.18,707,1489.11,700.2Z"/><path class="cls-5" d="M1486,720.31a2.57,2.57,0,0,0-3.37-1.6c-1.24.35-1.56,1.2-.95,2.34.71,1.35,1.85,2.28,3.32,1.7C1485.55,722.52,1485.67,721.15,1486,720.31Z"/><path class="cls-3" d="M1283.79,613.28c0,.55,0,1.09,0,1.64-3.57,2.36-7.5,3.43-11.73,4.24-3,.58-5,3.07-.22,5-2.43,5.07-8.77,2.64-12,6.23-6.8-6.89-10.26,1.22-15,3.36-6.47-.34-12,2.3-18.94,5.52,4.61,4.34,0,8.09.3,12.33-4.73,2.81-5.07,7.75-6,12.4l-.24.2c-5.27-3-2.16-6.62-.64-10.07,1.81-4.1,4.64-8.33.24-12.35-4-3.64-7.44.6-11.14,1.27a3.11,3.11,0,0,0-3.41,2.57l-.19.16c-2.24-1.18-4.23-2.61-5-5.18,6.57-1.86,13-4,18.63-7.44.52-3.76-3.19-6.9,0-10.18,3.15-1.71,5.51.43,8,1.73-.51,1.67-1,3.34-1.64,5.32,3.17.65,5.68-.52,5.91-3.12.22-2.34-2.64-1.92-4.45-2,.09-5.58,7.38-12.36-2.69-16.27,1.68-2.3,3-4.72,2.75-7.71,2.93-5.8,6.1-.85,9.18-.21-.39,2.74-.79,5.47-1.29,9,6.74-.85,10.59,4.94,16.41,6.16l-.14-.15c-1.87,4.06-2.42,7.28,3.77,4.81,2.24-.9,4.62-2.11,5.46-4.81l-.26.18c4.48-1.52,12.33,3.73,12.58-6.27a3.43,3.43,0,0,1,1.68.18C1277.49,609.51,1280.66,611.36,1283.79,613.28Z"/><path class="cls-6" d="M1186.77,785.56c5.85-4.73.77-13.86,7.53-18.34,3.1-1.18,5.28,1.54,8,2.29,2.41,6.53,4.41,13.36,11.93,16.11a5.73,5.73,0,0,0,.21,2.6l-.28-.42c-3.45,1.63-2.87,4.81-3,7.73-1.1,9.73-4.37,18.82-8.19,27.75l-13.53-5.13c-2.11-1.1-2.34-3.14-2.59-5.16-.05-3.49-.11-7-.16-10.47a15.86,15.86,0,0,1,0-1.95c0-2.47,0-4.94,0-7.41l0-1.44c0-1.57,0-3.14.07-4.7Z"/><path class="cls-6" d="M1141.71,845.4c-1.18-3-3.68-5.64-2.89-9.28,4-2,8.31-2.47,12-6.44a33.28,33.28,0,0,1,21.3-10.6c9.27,5.84,2.49,16.56,8.37,23.06.12,4.85,1.79,9.87-1.73,14.58-8.23,1.43-14.28-7-22.56-5.33C1150.72,851,1146.54,847.39,1141.71,845.4Z"/><path class="cls-7" d="M1401.15,712.32c3.15-.61,5.23.68,6.42,3.57-2.71,3.48-4.12,7.31-3.06,11.78-.07,1-.14,2-.2,3.06-3.73-2.44-7-5.36-9-9.43,3.14,0,7.16.84,5.2-4.88-3,.66-4,2.92-5,5.08-4.31-.74-6.77,2.35-9.08,4,3.5,8,3.53,17.86,12.09,23,4.1-4.94,6.85-9.46,6.66-15.23l5.53,3.35-.18-.21a17.63,17.63,0,0,1,.32,2.89c-6.2,2-1.6,9.52-6.27,12.31l-3,1c-2.36-.28-4.74-.64-6.35,1.78a26.48,26.48,0,0,1-2.67.1c-2.08-2.71-4.19-2.7-6.32,0l-2.52-.07c-2-4,1.27-8.77-2.39-13.36-1.5,4.43-4.2,5.94-8.18,3.85-3.88-5.16-1.73-10.93-1.42-16.52-12,1.36-9.22-6.85-9-13.38,1.62.41,2.74,3,5,1.08-.39-3.81-2-6.5-6.24-6.75-1.84-5-1.82-5.06,1.34-4.48,1.87.35,3.68,1,5.52,1.51,2.75,3.79,3,10.43,10.35,8.92-.68,2.44-.74,4.9,2.33,5.4,4.12.67,7.17-1,8.36-5.28l3.52-.66C1395.87,714.8,1397.83,711.2,1401.15,712.32Z"/><path class="cls-8" d="M1362.85,624.49l-4.84-5.72c8.36-.06,15.33,6.37,25.77,5.81-8.08-7.1-17.7-6.42-24.54-11.56,0-2,0-4-.07-5.93l24.25,6.45c2.48,3.2,6.07,4,10,4.77.87-3,1.7-5.94,2.53-8.86,7.07,3.75,15.22,5.67,20.63,12.23-3.84.58-6.09,3.48-8.65,5.93l-12.4-2.93c-.48-.91-.33-3.06-2.25-1.15l2.12,1.28c-2.11,2.62-6.61,4.5-2.8,9-1.89.1-4-.69-5.52,1.22,1.71,2.41,3.3,5,7,4,.86-2.25-1.18-3.5-1.62-5.26,4.34.24,7.48,2.46,9.82,6-8.86,1.81-3.6,7.85-3.68,12.29l-6-3.53C1383.89,638.94,1376.26,628.12,1362.85,624.49Z"/><path class="cls-4" d="M1214.23,785.62c-7.52-2.75-9.52-9.58-11.93-16.11,3-9.6,9.84-5.37,16.29-5.41-1.8,4-6.43,2.14-7.43,5.63-1.35,2.48-3.88,4.72-1.43,8.4,15.82,6,33,7,49.93,9,15.73,6.61,29.2,1.58,41.77-8.11l3.61-.43-.12-.18c3.12,4.15,11,7.58,2,13.65-.38.25.65,2.6,1,4l-9.39.34c-7-3.37-14-3.16-21,0a1.31,1.31,0,0,0,.27,1.54c-6.79-1.8-13.36-5.05-21.7-3.71.2,3.22.38,5.93.56,8.64l-.11,6.18-3.16,0c-.87-4.2.83-8.47-1.45-12.81-3-5.75-8.37-6.49-13.46-7.35-5.33-.9-5.94,3.75-6.79,7.58-4.09-1.41-.61-7.67-5.49-8.58l-2.82.15C1220.29,787.52,1217.91,784.1,1214.23,785.62Z"/><path class="cls-4" d="M1303.63,787.45c.36-.34,1-.66,1-1s-.57-.71-.9-1.06c-.34.52-.68,1-1,1.55Z"/><path class="cls-4" d="M1291.67,790.48l1-1.08a9.71,9.71,0,0,0-2-.94c-.25-.05-.66.61-1,.94Z"/><path class="cls-9" d="M1354.23,829.9c-11.22,5.62-21.74,1-32.37-2.19-3.73.15-7,.29-6.39-5.35.76-6.93.74-13.94,1-20.48,9.35-6.43,15,1.22,21.71,4.35l-.16-.39c-.39,2.53.83,3.44,3.19,3.21l-.19-.19c2.48,5.34,7.06,8.37,12,10.94.83,1.36,2.09,1.53,3.5,1.25A8.42,8.42,0,0,1,1354.23,829.9Z"/><path class="cls-4" d="M1332.36,616.42c-3.35,9.07,5.29,13.28,8.45,20.77-3.34,9.08-5,19.11-2,29.39l-.67.34c-2.3.11-5.65-1.31-6.29,1.88-.56,2.78,2.06,4.22,4.86,4.39,1.49.09,3,0,4.5.06l-.32-.19c-1.53,3.35,3.74,3.29,3.11,6.19l.19-.23-5.63-.46c-3.6-4.66-11.34-2.09-14.15-7.53,1.26-2.55,3.41-4.46.34-6.85-3.52.63-9.27-2.64-8,5.7.47,3.09-3.64,2.48-5.89,3.1q.09-6,.17-12c4.5.06,9,0,13.51.21,6.58.29,8.55-3.47,8.67-9-6.11-7.05-11.67-14.52-22.47-12.33l.06.1c9.29-4.65,16.93-10.58,17.73-21.6-2.73-3.33-5.79-2.66-8.68-2.66-5.69.07-11.48-1.32-16.8.8-3,3.66-1.46,7.74-2.14,11.43-1.84-5.93-6.58-11.55-1.91-18.16,2.9,5.36,8,3.05,12,2.94a136.24,136.24,0,0,1,20.9.48Z"/><path class="cls-9" d="M1295.7,887.64c-.15,6.76,0,13.69-9,15.18-2.82-4.23-8.09-2.34-11.67-4.66-9.36-11.33-22.87-19.94-24.76-37.08l12.38-.77c5.17,4.64,10.79,8.41,17.89,9.35-.91,10.26-10.84,1.16-14.16,6.7,3.52,5.2,11.24-.75,14.37,5.29-3.17.25-6.26.63-7.49,4.61,4.67,1.27,6-1.75,7.34-4.78C1286.39,881.64,1290.48,886,1295.7,887.64Z"/><path class="cls-9" d="M1149.12,711.23c-.61,6.43-3.47,9.86-10.59,9.33-6.84-.5-13.74-.11-21.44-.11,1.32-8.88-3.48-17,1.09-25.19,4.46-2.65,9.59-.3,14.34-1.34l9.27,2.52c5,2.17,6.62,6.5,7.35,11.4C1149.13,709,1149.13,710.1,1149.12,711.23Z"/><path class="cls-9" d="M1137.89,835.91c-4.79,6.11-3.79,14.16-7.42,22.11-6.8-5.82-20.5,2.75-22.47-12.57,1.76-6.13,3.53-12.26,5.13-17.81,6.65-4.17,13.63-.52,19.64-3.26l-.28-.44c-.38,1.42,0,2.85,1.39,3,.53.05,1.26-1.93,1.89-3l-.25.44C1146.44,826.14,1134.91,832.52,1137.89,835.91Z"/><path class="cls-5" d="M1133.1,878.18c.4-14.73,11.47-5,17.27-6.72.18-5.78-6.9-4.65-7.12-10.05,13.82,1.46,24.79,9.19,36.69,14.82-3.69,6.93-9.7-4.22-13.31,3.79,1,5,15.75,3.51,8.25,13.77L1160.29,889C1150.39,887.51,1143,879.82,1133.1,878.18Z"/><path class="cls-2" d="M1203,823.28c3.82-8.93,7.09-18,8.19-27.75,2.52-2,2.91-4.79,3-7.73l.28.42c5.5,5.59,3.39,11.89,1,17.71s-1.29,10.06,3.64,13.49c3-1.36,4-5.07,7.58-4.89,4,9.07,4.11,18-1.53,27.37h-11.06a11.66,11.66,0,0,0,.06-2.64l4.58-.8c-2.42-2.7-3.49-.94-4.58.81-3.71.32-6.38-2.41-9.66-3.35C1206.53,831.41,1204.66,827.36,1203,823.28Z"/><path class="cls-10" d="M1443.71,851.65q1.55-6.23,3.1-12.44l0,0,1.46.11,1.46-.17c.91,2.67,2.31,2.44,3.57.41s4.75-4.27-.14-6.2c0-1-.07-2.06-.1-3.1h0c2.47-1.18,2.55-3.6,3-5.82l.14-.15,2.27-.29c-2,.05,2.46.32.72,1.33s.4,1.91,1.29.14c1.76-3.5,2.74-7.1-1.26-10,1-4.8,5.25-2.81,8-3.9l.4,3.19c-1.71,1.32-4,2.56-.56,4.86.47-1.49.9-2.85,1.32-4.21l3.42-.53a4.1,4.1,0,0,1,1.81.08c.49,3.72,2.44,6,6.31,6.33a9,9,0,0,1-.1,3c-5,1.65-.9,7.86-4.94,10.8-1.53-2-2.63-3.39-3.72-4.81.74-.36,2-.58,2.13-1.12.48-1.6-.91-2-2.1-2.28-.31-1.1-.76-2.83-2.07-1.76s.16,1.94,1.34,2.35a3.32,3.32,0,0,0,.21,2.4c-2.54,1.4-3,3.71-2.77,6.32l.19-.16c-5.94,2.77-7,8.44-9.46,13.72,3.38.87,5.2-2.84,8.21.21.88,1.82-5.3,5.82,1,7.24-1,2.78-2.61,3.82-5.69,2.62-4.88-1.9-9.56-5.54-15.28-2.55a3.52,3.52,0,0,1-2.67-3.44c.41-.16,1.08-.23,1.17-.5.34-1-.25-1.56-1.49-1.63Z"/><path class="cls-4" d="M1277.12,699.83c15.55.81,15.55.81,21.49-11.88.94,3.13,5.86,2.94,5.76,6.93A41.61,41.61,0,0,0,1287,709.57c-6.15,3.95,2.14,8-.12,12q-.06,4.42-.14,8.83l-1.11.54c-2.39-1.15-1.13-4.92-4.17-5.66-1.74,1.59-3.91,2.8-2.54,6,1,2.46,3.39,5.4-1.43,8.49-2.1-9.06-8.57-10.6-16.45-9.29-3.09.52-6,.46-7.85-2.68l.2-.28c3.79-3.38,9.21-2.39,14.41-5.14-7.78-1.65-16,.56-20.35-7.15l-.11.16,3.73-.58,5.12.93c8.86,5.79,15.48-1.14,22.89-2.85-.39-4.87-4.31-2.77-6.3-5.46C1276.58,706.32,1277.49,703.36,1277.12,699.83Z"/><path class="cls-11" d="M1301.43,779c-12.57,9.69-26,14.72-41.77,8.11.32-2.43.64-4.85.95-7.23-14.08-5.12-29.67-2.29-43-9.56l5.48-1.21,39.72-.06,14.49,4.09c5.2,11,6.25,11.25,18.63,5.27Z"/><polygon class="cls-11" points="1269.96 785.75 1269.52 786.48 1270.23 786.57 1269.96 785.75"/><path class="cls-5" d="M1350.65,726.52c-.47-3.33-.93-6.66-1.41-10.09-11.61-3.24-19.86,4.58-29.31,8-5.48-8.59-5.29-18.88-8.32-28.21-.43-1.31,1.55-3.39,2.41-5.12l14.72,9.55c2.76,3.14,4.37,7.64,9.32,8,6-1.36,10.58-4.7,14.61-9,.26,4.19,4.08,8.24.47,12.57C1351.92,717,1355.48,722.47,1350.65,726.52Z"/><path class="cls-10" d="M1332.36,616.42l-.42-3.23a11.69,11.69,0,0,0,1.26-2.07,1.31,1.31,0,0,0-.67-1.1c-7.26-1.3-14.7,1.22-21.92-1.09-.58-7,5-16-9.07-19.2,10.85-2.3,19.14-1.36,27.39-1.26,2,3.74,5.87,4.88,9.25,6.71,3,4.35,5,9.46,10.92,11.45-2.85,5.11-9.61.8-11,6.24C1336.81,615.1,1334.45,615.54,1332.36,616.42Z"/><path class="cls-12" d="M1464.47,724.32q.46,3.34.94,6.7c-.49,3.62,1.37,7.74-2,10.6-4.47,2.23-9.92,0-13.73,3.76-5.64-.35-12.18,1.59-15-5.9a2.78,2.78,0,0,0,.41-2.39c10.17-3.34,1.21-13.22,6.4-18.1l19.21-2.76C1462.5,718.66,1461.51,722.42,1464.47,724.32Z"/><path class="cls-6" d="M1259.84,630.35c3.2-3.59,9.54-1.16,12-6.23,4.22-3.74,10-2.45,14.73-4.45,9.68,8.93,10.29,16.31,2.18,24.74-6.08.75-10.68-8.84-17.44-2.19h-8.72c-3.59-2.84-8.75-5.17-3.53-10.87Z"/><path class="cls-5" d="M1253.18,727.86c1.85,3.14,4.76,3.2,7.85,2.68,7.88-1.31,14.35.23,16.45,9.29,4.82-3.09,2.46-6,1.43-8.49-1.37-3.24.8-4.45,2.54-6,3,.74,1.78,4.51,4.17,5.66-.25,3.2,5.24,6.41-1,9.78-5.1,2.77-4.65,11-12,13.76-3.88-5.11-12.11-3.13-16.4-9L1265,744c-4.76-1.22-7.51-2.35-8.46,1.69-6.8-2.83-5.38-12.35-12.29-15.09C1245.88,725.31,1249.9,727.8,1253.18,727.86Z"/><path class="cls-7" d="M1280.52,869.66c-7.1-.94-12.72-4.71-17.89-9.35l-.17.2c2.6-.81,5.73,1.39,8.11-1.43-2.18-3.27-7.41-3.43-8.1-8.08,2.27-.07,4.93,1,6.24-2.41-1.78-4.19-2.76-9-6.28-12.51a23.37,23.37,0,0,0-14.35,2.62c-4.83-3.4-10.25-2.11-15.53-2-.11-1.17-.21-2.33-.32-3.5l26.45-1.94c.25-4.3.51-8.75.78-13.21,5.33,1.95,3.07,9.71,8.73,11.41l.31.66.12,3.13c-.52,2.73-.4,5.16,2.82,6.18l-.25-.15c1.25,13.15,10.56,21.3,18.72,30.16a3,3,0,0,0,2.75,3,2.21,2.21,0,0,1,.25,2.23c0,1.18,0,2.36,0,3.54Z"/><path class="cls-4" d="M1353.14,712.27c3.61-4.33-.21-8.38-.47-12.57a24.84,24.84,0,0,0-4.81-11.87q-1.83-4.41-3.68-8.81l-.19.23c4-.54,7.2,1.24,8.44,4.82,1.89,5.46,6.09,4.08,9.92,4.24l-.23-.29c.45,4-5.17,1.73-5.24,5.28,2.21,4.41,5.65,7.31,10.83,7.87a2.6,2.6,0,0,0,.42,2.35c0,.94.09,1.89.15,2.83h0c-1.84-.51-3.65-1.16-5.52-1.51-3.16-.58-3.18-.51-1.34,4.48.42,1.89.83,3.78,1.25,5.67-.18,6.53-2.92,14.74,9,13.38-.31,5.59-2.46,11.36,1.42,16.52,4,2.09,6.68.58,8.18-3.85,3.66,4.59.43,9.37,2.39,13.36-9.86.78-16.32-2.28-15.77-13.64.1-2.21-1.67-3.34-3.57-4.1l-4.78-3.45C1358.41,725.93,1359.53,717.94,1353.14,712.27Z"/><path class="cls-11" d="M1132.77,824.38c-3.26-5.4-9.56-1.11-14.26-4.85,2.38-5.23-1.83-10.85.62-18.06l30.08,2.56a17.29,17.29,0,0,1-2.28,16.85c-3.5,3.22-9.49-3.69-11.41,3.5l.25-.44h-3.28Z"/><path class="cls-5" d="M1141.72,757.4c-6-6-15-6.83-21.53-12l.25.17q-1.39-7.17-2.78-14.34c5.35-10.83,15-4.63,23.19-6.25.73,6.28,1.4,12.1,2.07,17.92-.4,2.2-.69,4.37,1.44,6v.2c0,1.71-.07,3.41-.11,5.11l0,.2C1143.43,755.35,1142.58,756.38,1141.72,757.4Z"/><path class="cls-5" d="M1227,745.17c-5.74-6.24-13.08-11.47-12.85-21.24,10.62-1.56,22.35-6.38,30.36,6.54C1243.2,739.15,1237.5,743.93,1227,745.17Z"/><path class="cls-2" d="M1298.55,796.4l9.39-.34c3,7.45.27,14.94.11,22.41-4.42,4.71-10.52,0-15.29,2.71-2.15-9.54-13.36-13.28-14.91-23.21a1.31,1.31,0,0,1-.27-1.54c1.83,1.51,4.93.63,6.17,3.27.54,1.62,1.06,3.31,2.73.72C1290.63,799.47,1294.93,799,1298.55,796.4Z"/><path class="cls-9" d="M1304.48,833.63c.14,1,.78,2.4.35,2.86-5.6,6.14-3.5,13.58-3.69,20.63-2.43.3-4.74.74-4.9,3.89l.14-.07-3.77-.51.13.1a3.8,3.8,0,0,0-3.16-3.17l.17.16c-5.31-7.29-10.34-14.53-1.75-23,.5-.49-2-1.41-3.38-1.27-.42-2.43-.67-4.82,2.35-5.8C1294.38,825,1299,830.43,1304.48,833.63Z"/><path class="cls-6" d="M1310.74,639.86c10.8-2.19,16.36,5.28,22.47,12.33-.12,5.53-2.09,9.29-8.67,9-4.5-.19-9-.15-13.51-.21C1308.18,654,1299.45,647.06,1310.74,639.86Z"/><path class="cls-12" d="M1282.26,687.53l-22.46.09,3.25-6.79c4.79-1.39,24.44-17.88,26.54-22.33,11.89,6.81,10.16,17.57,9.27,27.72C1292.94,690.87,1287,676.18,1282.26,687.53Z"/><path class="cls-9" d="M1449.78,663.91c.53-3.82,3.88-2.69,6.13-3.5,3.44,11.29,3.76,11.39,11.85,3.75,7.2,8.39,14.13,17,18.86,27.09l-18.29,6.57a60.2,60.2,0,0,0-12.72-24.8c-1.07-1.7-2.13-3.4-3.2-5.09A3.77,3.77,0,0,0,1449.78,663.91Z"/><path class="cls-9" d="M1468.08,682.07c2.07-4.41,2.54-8-4.14-8.53-1.08,4.41,1.34,6.58,4,8.63.55,3.78.5,8.12,6.8,7.2C1475.74,683.58,1472.35,682.43,1468.08,682.07Z"/><path class="cls-7" d="M1217.6,770.36c13.34,7.27,28.93,4.44,43,9.56-.31,2.38-.63,4.8-.95,7.23-17-2.06-34.11-3-49.93-9-2.45-3.68.08-5.92,1.43-8.4Z"/><path class="cls-10" d="M1449.78,663.91a3.77,3.77,0,0,1,2.63,4c-3.76.59-4.63,3.62-5.59,6.58.12,1.32.23,2.64.35,4-6.78-4.28-9.44-12.29-15.52-17.21l-.19-.21a3.21,3.21,0,0,0-2.71-2.73l-6.5-9.39c8.39,1.37,1.7-7.54,6.06-8.92,2.75.81,5,3.25,8.14,2.72,1.44-2.29,3.34-3.52,6.49-2.62,3.11,5.26-3.73,8.46-2.62,13.89C1443.21,656.82,1445,661.78,1449.78,663.91Z"/><path class="cls-9" d="M1103.07,858.31c9-.71,17.84-1.16,25.19,5.91,1.55,3.94-3.41,7-1.76,11l-.27-.2c-1.41-1.29-2.81-2.59-4.66-4.3-1.51,2.55-3,5-4.46,7.52-5.37-4.31-16-.43-17.27-11.16,2.35-1.6,3.89-3.53,2.66-6.59A1.86,1.86,0,0,0,1103.07,858.31Z"/><path class="cls-13" d="M1410.26,721.69l6.37-2.24c7.35,2.31,3.19,13.21,11.63,14.16A35.25,35.25,0,0,0,1431,745a6.33,6.33,0,0,1-2.32,7.89c-4,2.94-6.21-.7-8.92-2.46l-.2-1.26c.11-4.6-.79-8.56-6.2-9.59l.19.21c.19-2.18-1.15-3-3-3.43l.18.21c-.68-4.2,1.25-8.88-2.3-12.55A2.16,2.16,0,0,1,1410.26,721.69Z"/><path class="cls-12" d="M1138.62,685.33c1.52-4.14,4.46-6.29,8.89-6.32,0,4.42,3.12,5,6.5,6.5,5.62,2.45,11.47,1.09,17.12,2.43,6.49,1.53,9.65,4.15,6.84,11a3.85,3.85,0,0,1-2.77.71c-2.7-3.32-6.19-2.57-9.67-1.85-8-.53-16.08-1-23.66-4.15-.54-3.09.16-6.66-3.4-8.55Z"/><path class="cls-6" d="M1178,698.94c2.81-6.85-.35-9.47-6.84-11-5.65-1.34-11.5,0-17.12-2.43-3.38-1.48-6.52-2.08-6.5-6.5,0-1.2.07-2.4.1-3.6,1.85-2.47,4.4-2,6.94-1.66-.7,1.6-2.66,2.92-.69,5.65,6-3,12.35,3.69,18.79-.5a17.78,17.78,0,0,1,2.63.07c4,3,7.75,3.36,11.09-1l.72,4.4-.09,11.9,0,0c-4.93,1-1.21,7.31-5.43,8.73C1179.31,702.6,1178.27,701.1,1178,698.94Z"/><path class="cls-6" d="M1464.38,797.26c-3.52-.52-5.15,2.08-7.29,5.48a62.59,62.59,0,0,0-19.09-18c.19-5.61-2-11.43,1.26-16.81,6.43-1.09,4,7.52,8.92,7.82a19.6,19.6,0,0,0,10.38-.71l.46.64c-4.61,11.11-3.23,14.69,5.91,15.28a3.33,3.33,0,0,1,.52,2.3C1465.1,794.57,1464.74,795.91,1464.38,797.26Z"/><path class="cls-5" d="M1413.62,784.64c-3.94,1.85-1.56,6.05-3.24,8.74-9.19-5.43-15.45-14.24-23.85-20.58,1.65-4.25,8-4.2,8.62-9.37l.07,0,3.38,0,4.37,3.83c5.69-7.25,7,1.33,10.31,2.84.25,2,.51,4,.76,6l.35,5.37c-.31,1.19-.61,2.38-.92,3.57Z"/><path class="cls-5" d="M1405.92,783.87c3.33-2.46,5.72-4.8,3.64-9.91C1405.25,776.34,1403.44,778.92,1405.92,783.87Z"/><path class="cls-8" d="M1468.33,697.82l18.29-6.57c3.83,2.15,1.83,5.92,2.49,9-.93,6.77-1.54,13.61-11.37,12.64-4.25-.41-7.35,2.36-9.85,5.63l.13-.13c-3.72.49-3.32,3.42-3.55,6-3-1.9-2-5.66-3.82-8.09a12.27,12.27,0,0,1,1.35-.91c3.36-1.67,7-2.94,9.22-6.93C1470.3,705,1469.32,701.42,1468.33,697.82Z"/><path class="cls-4" d="M1310.63,875.92c15.65,4.73,29.85,3.17,41.43-9.62,3.91,0,3.94-5.08,7.39-5.71-1.67,10-8.24,19.46-3.13,30.15-9.28-.48-3.74-10-7.82-13.17-6.58,1.62-12.89,3.1-19.16,4.74-3.69,1-3,3.1-1.15,5.38-3.14.1-5.28-2.1-7.8-3.42-6.31-5.59-12.44-2.95-18.55.42C1300.51,877.49,1308.5,879.65,1310.63,875.92Z"/><path class="cls-5" d="M1127.34,648.76l2.49,12.11c-3.12,1-7.49-1.61-9.34,3.18-3.26-8-14-5.18-18.62-12.21,5.84-7.15,13.67-8.93,20.41-11.19C1126.47,642.82,1126.45,646,1127.34,648.76Z"/><path class="cls-10" d="M1343,800.39l-.56-1.09c-.22.23-.69.55-.64.68a11.14,11.14,0,0,0,.86,1.54C1342.82,801.14,1342.93,800.77,1343,800.39Z"/><path class="cls-7" d="M1380.68,924.63c-.75.61-1.4,1.5-2.26,1.79-4.59,1.54-9.6.94-13.61,3.47-3.53-3.94.3-8.51-3-11.49a123.42,123.42,0,0,0,39.28-13l.9,5.73a72.48,72.48,0,0,1-20.72,9.73C1378.53,921.7,1378.88,923,1380.68,924.63Z"/><path class="cls-12" d="M1150.69,712.4c7.69-5.87,15.9-2.33,23.6-2.87,2,6,1.39,10.17-1.33,14-17.91,1.38-19,.85-22.19-11.17Z"/><path class="cls-11" d="M1142,783.31c-8.84,2.63-15.88,1.17-22.81-2.5a17.12,17.12,0,0,0-.52-11.63c7.45-.61,15,3.94,21.74-1.34C1143,772.63,1142,777.59,1142,783.31Z"/><path class="cls-11" d="M1134,777a13.94,13.94,0,0,0,2.24,1c.24.06.66-.5,1-.77a13.62,13.62,0,0,0-2.25-1C1134.7,776.13,1134.29,776.7,1134,777Z"/><path class="cls-10" d="M1307.07,734.61c1.62,8.22,6.42,12.93,1.21,18.91a29.52,29.52,0,0,1-24.47-3.91c-.34-7.74,4.67-7.27,10-6.71S1306.48,748,1307.07,734.61Z"/><path class="cls-13" d="M1429.21,856.1c-.14-1.42-.28-2.84-.41-4.26,1-5.15,2.1-10.29,5.75-14.46,6.79,3,4.26,10.92,9.16,14.27l.23.15a3.81,3.81,0,0,0,.32,2.13,3.52,3.52,0,0,0,2.67,3.44c.75,7.31-4.28,6.38-8.71,6S1432.44,858.23,1429.21,856.1Z"/><path class="cls-12" d="M1300.91,627.93c.68-3.69-.9-7.77,2.14-11.43,5.32-2.12,11.11-.73,16.8-.8,1.26,6.08-1.55,10.55-6.42,13.36-4.35,2.52-6.16,5.77-5.82,10.54C1298.61,639.6,1303.71,631.49,1300.91,627.93Z"/><path class="cls-12" d="M1162.47,817.53l-7.35.58c.17-11.64.17-11.64,11.77-19.58,11.2,11.86,11.15,12.8-.86,17.51A2.84,2.84,0,0,0,1162.47,817.53Z"/><path class="cls-9" d="M1492.3,769.84c11.65,14.85,10,25.12-6.22,39.51-2-4.49,3.73-9,0-13.5l0-.82C1490.94,787.33,1491.5,778.56,1492.3,769.84Z"/><path class="cls-6" d="M1449.65,745.38c3.81-3.8,9.26-1.53,13.73-3.76,3.4-2.86,1.54-7,2-10.6,3.59,7.49,2.45,15.59,3.06,23.47-8.78.62-17.53.9-26.86-.87,2.06-7.48,8.67-3.34,12.71-6.38Z"/><path class="cls-13" d="M1434.94,803.37c-4.14,1.62-6.11-2.42-9.21-3.51l0,.06-.93-8.94c1.74-6.63-.42-13.76,2.68-20.91,10.81,2.48,5.7,11.95,8.06,17.85q-.25,7.62-.52,15.25Z"/><path class="cls-1" d="M1144.26,754.13c0-1.7.07-3.4.11-5.11,3.69-7.29,9.42-4.61,15.23-3.51s9.61,2.8,8.4,10.4C1159.93,758.7,1152,759.35,1144.26,754.13Z"/><path class="cls-7" d="M1120.49,664.05c1.85-4.79,6.22-2.15,9.34-3.18,2.49,1.59,2.91,3.93,2.37,6.61l-14.68,23.65c-6.45-1.75-5.7-6.92-5.79-11.25,1.78-4.41,6.17,1.14,8.76-2.78Z"/><path class="cls-2" d="M1287,709.57a41.61,41.61,0,0,1,17.38-14.69c-.68,1.69-3.11,3.44-1.13,5.17,4.33,3.78,2.93,8,1.74,12.39-6.39,3.24,0,11.82-6.28,15.1l-.39-6.49a11.17,11.17,0,0,0,.16-2.38c.1-2.13-1-3-3-2.88a21.14,21.14,0,0,1-2.74-.34Z"/><path class="cls-4" d="M1262.8,769.09l-39.72.06c.33-5.78,4.45-6.59,8.46-5.21,7.84,2.7,14.24,3.48,22-2.12,6.12-4.38,13.79,4.55,23.71.07C1272.22,769.35,1265.72,764.45,1262.8,769.09Z"/><path class="cls-13" d="M1186.77,785.56l.09,1.46c-2.29,1.53-2.52,3.1-.07,4.7l0,1.44c-3.25,2.45-3,4.92,0,7.41a15.86,15.86,0,0,0,0,1.95c-3.31,3.54-2.52,7,.16,10.47.25,2,.48,4.06,2.59,5.16.74,4.44-.65,6.78-6.51,5.49-5-11.52-6.79-23.47-2.55-36.3C1182.06,782.39,1184.11,784.14,1186.77,785.56Z"/><path class="cls-3" d="M1243.14,718.21c.43-2.61,2.44-2.5,4.13-2.88a3.25,3.25,0,0,1-.43-2.36c-3-2.06-6.75-3.07-8.51-6.67a7.59,7.59,0,0,1-2.7-.92c-.92,3.85,1.78,6.75,2.65,10.13-.14,1.83-.76,3.17-3,2.9-5.28-1.39-11-1.67-14.94-6.33a6.17,6.17,0,0,1,0-2.67c-8.48-2-14.43-9.48-23-10.33-2.54-4.66-1.09-9.22-1.76-13.52a8.58,8.58,0,0,0-2.35-.45c-.28,1.14-.55,2.28-.83,3.42q0,5.84,0,11.65c.48,1.9.75,4.49-1,5.07-5.34,1.73-2.88,4.39-1.43,7.07l6.63,1.32-5.76,1.43-4.4.56c2.56,8.47-2.44,15.93-3.19,24a1.62,1.62,0,0,1-1.14,2.3c-.57,3.34-1.15,6.68-1.72,10-1,.5-2.16.86-1.3,2.36,7.89,1.2,15.1-2.36,22.7-3.22a4.47,4.47,0,0,0,3.45,3.41c.18-2.18-.37-5.11,3-5,3.2.11,2.77,3,3,5.2a28.29,28.29,0,0,0,2.91-.09l.23-8.23c-1.67-.61-3.1-1.4-2.72-3.57,1.86-3.36,2.08-3.37,5-.1l.24,2.92c1.41,2.82,4,2.34,6.49,2.43l3.62-2.86c-5.74-6.24-13.08-11.47-12.85-21.24,10.55-1.55,22.19-6.31,30.19,6.29,1.72-4.76,5.61-2.42,8.8-2.36l.2-.28C1251.52,722.74,1246.21,721.6,1243.14,718.21Z"/><path class="cls-5" d="M1471.18,830.38c1.09,1.42,2.19,2.83,3.72,4.81,4-2.94,0-9.15,4.94-10.8,3.72,13.76-5.47,22.84-11.94,32.91-6.34-1.42-.16-5.42-1-7.24-3-3-4.83.66-8.21-.21,2.43-5.28,3.52-11,9.46-13.72,1.11,2.46-2,5.85,2.11,8.08,5.77-4.53.78-6-2.3-7.92-.22-2.61.23-4.92,2.77-6.32Z"/><path class="cls-10" d="M1304.48,833.63c-5.44-3.2-10.1-8.61-17.51-6.19-3,1-2.77,3.37-2.35,5.8-5-2.91-10.58-2.92-16.12-3.08l-.31-.66c2-3.74,8-.87,9.41-5.57,5.42,1.12,10.66,1.22,15.16-2.75,4.77-2.7,10.87,2,15.29-2.71C1308.21,823.84,1307.46,829,1304.48,833.63Z"/><path class="cls-7" d="M1250.52,615.77c-5.82-1.22-9.67-7-16.41-6.16.5-3.49.9-6.22,1.29-9,6-4.58,12.11.29,18.16-.1l2.51,3.82a3.21,3.21,0,0,0,3,2.46C1257.77,611.29,1248.17,607.82,1250.52,615.77Z"/><path class="cls-7" d="M1337.89,763.92l5.08,4.37c-.84,4.56-6.09,4.19-8,7.51-13.73-.12-13.73-.12-17-10.13C1324.4,762.19,1331.33,764.53,1337.89,763.92Z"/><path class="cls-14" d="M1464.38,797.26c.36-1.35.72-2.69,1.07-4,5,1,9.38-1.39,13.91-2.85.58,6.33-3.76,12.08-2.23,18.52-3.45.56-6,1.94-5.31,6.08l-3.42.53-.76-.65-.4-3.19C1459.47,808.21,1465,802.13,1464.38,797.26Z"/><path class="cls-7" d="M1334.73,917.52,1347,918l.18,5.86-15.77.79-5,0-6.13,1.58c-2.6-4.59-9.94.81-12.68-7.18C1316.91,916.53,1326.07,919.09,1334.73,917.52Z"/><path class="cls-11" d="M1144,797.24c-8.79-.36-17.32,2.29-25.71-3.82.82-9.58,9.16-5.61,14.32-5.28C1137.12,788.44,1145.8,786,1144,797.24Z"/><path class="cls-7" d="M1437.75,888.19c-4.72,6.46-7.51,14.9-17.06,16.58-2.59-2.37-2.89-5.91-4.13-9,2.9-4.45,7.75-6,12.16-8.21.4,1.42.83,1.72,1,.84,0-.16-.71-.51-1.1-.77a8,8,0,0,1,4.94-5.12C1435.91,883.73,1437.55,885.42,1437.75,888.19Z"/><path class="cls-13" d="M1192.69,852l-.3,4.42c-5.54,1.81-8.67.26-8.65-6,0-3,.12-6-2.34-8.33.37-4.41-1.13-8.95.94-13.66,8.53-.74,6.6,6.55,8.32,10.91C1190.49,843.65,1189,848.23,1192.69,852Z"/><path class="cls-6" d="M1307.61,639.6c-.34-4.77,1.47-8,5.82-10.54,4.87-2.81,7.68-7.28,6.42-13.36,2.89,0,6-.67,8.68,2.66-.8,11-8.44,16.95-17.73,21.6Z"/><path class="cls-7" d="M1305,778.61c-3.38-4.88-9.67-4.23-14-7.19-.86-6.13,2.05-8.08,7.66-7.87,5.3.19,10.44.6,11.68,6.89.78,4,.76,8.4-5.51,8Z"/><path class="cls-5" d="M1180.45,751.92c-1,.5-2.16.86-1.3,2.36-1.22.41-3.44,1.66-3.25-.49,1-11.26,3.94-22.28,3.88-33.71,0-4,3.73-4.06,6.72-4.45,2.56,8.47-2.44,15.93-3.19,24-1.07.42-1.79,1-1.14,2.3C1181.6,745.23,1181,748.57,1180.45,751.92Z"/><path class="cls-5" d="M1117.52,691.13l14.68-23.65c1.11,6.32,2.25,12.63,6.42,17.85l-.15-.23c-.78,3.17-4,3.87-5.91,6Z"/><path class="cls-9" d="M1292.91,874.72a2.21,2.21,0,0,0-.25-2.23l-2.75-3c-8.16-8.86-17.47-17-18.72-30.16,5.68,1.3,6.19,7,8.76,10.76s4.56,7.52,9.8,7.44l-.17-.16a3.16,3.16,0,0,0,3.16,3.17l-.13-.1c0,5.1,4,9.39,2.88,14.7l-1.33,0Z"/><path class="cls-15" d="M1428.72,887.56c-4.41,2.22-9.26,3.76-12.16,8.21-5.58.84-4.89-2.22-2.19-4.51,7.6-6.45,15.63-12.38,23.5-18.51l3.2,2.91c-2.92,3.74-1.49,6,3,6.37-1.56,3.63-3.61,5.27-6.34,6.16-.2-2.77-1.84-4.46-4.16-5.68a8,8,0,0,0-4.94,5.12Z"/><path class="cls-9" d="M1383.42,613.54l-24.25-6.45c-2.64-4.63,1-8.76,1.39-13.15.25-3.07,3.44-1.57,5.2.26l-3.32,3.4c-.16,2.5-.29,5.27,3.13,5.33,4.15.08,2.58-2.91,2.27-5.11l7.37,3.49c-2.47,7.58,4.53,6.63,8,8.87C1383.27,611.3,1383.34,612.42,1383.42,613.54Z"/><path class="cls-5" d="M1280.52,869.66l12.38,8.6c2.44,2.68,3,5.91,2.8,9.38-5.22-1.61-9.31-6-15.12-6.16l.15.17c-3.13-6-10.85-.09-14.37-5.29C1269.68,870.82,1279.61,879.92,1280.52,869.66Z"/><path class="cls-5" d="M1477.13,808.89c-1.53-6.44,2.81-12.19,2.23-18.52.5-5.71.8-11.44,1.58-17.11.36-2.64,1-6.1,5.29-3.82,2,8.54-5.8,17-.17,25.59l0,.82c-5.67,2.57-5.45,8-6.23,12.91l-1.32.41Z"/><path class="cls-5" d="M1401.13,905.38a123.42,123.42,0,0,1-39.28,13c-1.24-.82-2.49-1.64-2-3.46,11.77-1.06,22.31-6.14,33.05-10.39a17.44,17.44,0,0,1,8.32-1.59A2.78,2.78,0,0,1,1401.13,905.38Z"/><path class="cls-7" d="M1331.39,924.64l15.77-.79c.53,2.36,2.76,4.28,1.54,8.1-5.65,2.15-11.79,1.68-17.51.3C1328.6,929.07,1331,927,1331.39,924.64Z"/><path class="cls-9" d="M1301.84,884.69c6.11-3.37,12.24-6,18.55-.42-4.31,5.21-7.09,13.11-16.49,9.38C1303.05,890.7,1300.05,888.24,1301.84,884.69Z"/><path class="cls-12" d="M1464.93,790.92c-9.14-.59-10.52-4.17-5.91-15.28,3.1-1.09,2.45-7.44,7.52-5.55,2.28.85,1.75,3.31,1.9,5.25l-.57.31c-4.2,3.54-2.7,8.21-2.49,12.62C1465.27,789.16,1465.12,790,1464.93,790.92Z"/><path class="cls-7" d="M1303.9,893.65c9.4,3.73,12.18-4.17,16.49-9.38,2.52,1.32,4.66,3.52,7.8,3.42l.77.63-.28,5.74c-8.34-.82-15.47,3.55-23.15,5.54-.29.07-.17,1.75-.24,2.68l-3.19.2C1301.8,899.35,1300,895.92,1303.9,893.65Z"/><path class="cls-15" d="M1173.49,794.72c-1-9.68-4.72-20.05,2.7-29.43C1178.23,775.15,1175.19,784.69,1173.49,794.72Z"/><path class="cls-5" d="M1436.45,642.73c-3.19.53-5.39-1.91-8.14-2.72h-5.39c-.27-4.33-5.87-5-6.31-9.23a1.61,1.61,0,0,1,1.35-.63c2.33-.06,6.15-1.75,6.72.33,2.1,7.62,5.61,3.71,8.09,1.23C1438.52,634.74,1433.27,639.82,1436.45,642.73Z"/><path class="cls-7" d="M1486.06,795c-5.63-8.57,2.14-17,.17-25.59l6.07.4C1491.5,778.56,1490.94,787.33,1486.06,795Z"/><path class="cls-5" d="M1298.7,727.54c6.33-3.28-.11-11.86,6.28-15.1,2.13,7,10.07,14.07-.42,20.78-1.21-2.46-3.58-2.47-5.82-2.77l.1.14v-3.21Z"/><path class="cls-7" d="M1356.65,752.1c-2.25-6.79,4.09-12.26,2.93-18.89l4.78,3.45C1364.3,743.06,1370.69,752.69,1356.65,752.1Z"/><path class="cls-7" d="M1395.15,763.43c-.65,5.17-7,5.12-8.62,9.37-2.62.09-5-.3-6.32-3l-2.83-6C1383.27,762.17,1389.18,761.35,1395.15,763.43Z"/><path class="cls-7" d="M1295.92,778.45c-12.38,6-13.43,5.68-18.63-5.27C1284.29,772.13,1290.27,774.69,1295.92,778.45Z"/><path class="cls-10" d="M1458.56,775a19.6,19.6,0,0,1-10.38.71c-3-5.06-1.65-9.42,4-9.92C1457.62,765.31,1459.81,769.53,1458.56,775Z"/><path class="cls-16" d="M1359.24,613c6.84,5.14,16.46,4.46,24.54,11.56-10.44.56-17.41-5.87-25.77-5.81-2.3.61-4.18.23-5.16-2.23Z"/><path class="cls-5" d="M1181.59,703c4.22-1.42.5-7.76,5.43-8.73.69,3-4.44,11.45,5.49,5.92.48,1.9.75,4.49-1,5.07-5.46,1.77-2.76,4.51-1.34,7.25C1182.32,713.78,1178.13,711.81,1181.59,703Z"/><path class="cls-16" d="M1468.44,775.34l4.44-13c2,10.12,1.89,16.95.1,23.69-.53,2-2.34,4.79-5.41,2l.3-12.36Z"/><path class="cls-5" d="M1380.68,924.63c-1.8-1.6-2.15-2.93.63-3.79a72.48,72.48,0,0,0,20.72-9.73c1.35.39,3,.25,3.84,3A80.74,80.74,0,0,1,1380.68,924.63Z"/><path class="cls-13" d="M1310.61,608.93c7.22,2.31,14.66-.21,21.92,1.09a1.31,1.31,0,0,1,.67,1.1,11.69,11.69,0,0,1-1.26,2.07,136.24,136.24,0,0,0-20.9-.48c-4.06.11-9.14,2.42-12-2.94Z"/><path class="cls-9" d="M1374.41,780.17l-8.57-8.06c.83-3.82,6-4.18,5.51-8.34a2.69,2.69,0,0,0,2.1.52c.59,2.08.74,4.38,2.84,5.71C1375.65,773.39,1381.22,777.92,1374.41,780.17Z"/><path class="cls-10" d="M1467.76,664.16c-8.09,7.64-8.41,7.54-11.85-3.75.89-2.28,2.13-4.23,4.72-5C1463.54,657.91,1466.33,660.48,1467.76,664.16Z"/><path class="cls-6" d="M1414,776c-.25-2-.51-4-.76-6,.42-2.32,0-5.39,3.54-5.41,2.85,0,4.46,2.24,5.26,4.59s.76,5.19-2.17,6.26C1418.13,776.13,1416,775.88,1414,776Z"/><path class="cls-7" d="M1283.79,613.28c-3.13-1.92-6.3-3.77-10.18-3.57l8-9C1286.75,604.76,1288.61,608.51,1283.79,613.28Z"/><path class="cls-5" d="M1441.07,875.66l-3.2-2.91c5.38-8.21,10.14-2.21,15.09.42C1450.88,884.24,1445.08,875.24,1441.07,875.66Z"/><path class="cls-14" d="M1479.94,821.38c-3.87-.34-5.82-2.61-6.31-6.33,3-4,7-4.31,9.94-1C1487.31,818.19,1482.79,819.7,1479.94,821.38Z"/><path class="cls-5" d="M1383.42,613.54c-.08-1.12-.15-2.24-.23-3.36,2.47.2,5,2.88,7.19-1.16,1.45-2.7,3.85-1.87,5.55.43-.83,2.92-1.66,5.83-2.53,8.86C1389.49,617.56,1385.9,616.74,1383.42,613.54Z"/><path class="cls-10" d="M1286.54,619.67c-4.75,2-10.51.71-14.73,4.45-4.78-1.89-2.79-4.38.22-5,4.23-.81,8.16-1.88,11.73-4.24l5.14,1.85C1288.11,617.73,1287.33,618.7,1286.54,619.67Z"/><path class="cls-12" d="M1404.64,903.87c.24-3,2-4.22,5-3.85a3.9,3.9,0,0,1,3.73,3.88c.22,3-1.56,4.63-4.42,4.7C1405.91,908.69,1404.43,907,1404.64,903.87Z"/><path class="cls-10" d="M1319.88,842.38c.81-3.23,3.61-3.06,6-3.54,3.38.15,6.85.73,9.65-2l4.79-.09c0,1.57-.11,3.14-.17,4.71L1322,843l-1.17.07Z"/><path class="cls-12" d="M1422.55,787.84l-7.09,4.25c-3.53-1.92-1.51-5-1.84-7.45l-.15.33a4.1,4.1,0,0,0,2.61-3.43l.32-.22,3.42-.28C1422.82,782.47,1422.66,785.16,1422.55,787.84Z"/><path class="cls-17" d="M1444.7,653.59c2.06-4.73,4.87-6.28,9-2.21,1.1,1.1,1.67,2.75.45,3.93C1450.34,659,1447.12,658.43,1444.7,653.59Z"/><path class="cls-3" d="M1250.52,615.77c-2.35-7.95,7.25-4.48,8.55-8.94,3,.42,3.4,2.67,3.53,5.09-1.6.86-2.93,2-3.25,3.88l.26-.18h-9.23Z"/><path class="cls-1" d="M1332.18,785c-2.38,3.61-6.06,2.35-9.36,2.51l-5.51-3.87C1324.68,773.86,1327,787,1332.18,785Z"/><path class="cls-7" d="M1479.81,808.76c.78-4.93.56-10.34,6.23-12.91,3.77,4.48-2,9,0,13.5Z"/><path class="cls-4" d="M1132.56,691.08c1.86-2.11,5.13-2.81,5.91-6,3.56,1.89,2.86,5.46,3.4,8.55a15.31,15.31,0,0,1-.08,2.79l-9.27-2.52C1132.54,693,1132.55,692,1132.56,691.08Z"/><path class="cls-7" d="M1117.11,878.28c1.48-2.48,3-5,4.46-7.52,1.85,1.71,3.25,3,4.66,4.3C1125.92,883.87,1121.42,880.79,1117.11,878.28Z"/><path class="cls-9" d="M1404.56,751.59c4.67-2.79.07-10.29,6.27-12.31l1.23.81,1.44-.27-.19-.21c0,1.94,0,3.89.07,5.84l.21-.23c-3.2,1-2.3,4.11-3.19,6.29l-5.83.1Z"/><path class="cls-12" d="M1214.18,754.58c.08-2.74.15-5.49.23-8.23a5.6,5.6,0,0,1,2.52-.75c1.41,2.82,4,2.34,6.49,2.43C1224.46,756,1218.56,754.22,1214.18,754.58Z"/><path class="cls-2" d="M1298.74,730.45c2.24.3,4.61.31,5.82,2.77-4.06,2.75-7.77,8.67-12.93,1.41.63-.64,1.26-1.29,1.88-1.94C1295.69,732.94,1297.69,732.81,1298.74,730.45Z"/><path class="cls-2" d="M1295.49,875.13c1.1-5.31-2.92-9.6-2.88-14.7l3.77.51C1298.62,865.83,1301.56,870.76,1295.49,875.13Z"/><path class="cls-5" d="M1375.21,601.31l-7.37-3.49-5.4-.22,3.32-3.4c3.78,0,7.42.64,10.43,3.14C1378.5,599.24,1376.8,600.3,1375.21,601.31Z"/><path class="cls-11" d="M1407.91,627.61c2.56-2.45,4.81-5.35,8.65-5.93.46,2.82.93,5.65,1.4,8.47a1.61,1.61,0,0,0-1.35.63l-5.75-.56c-.58-1.51-1.13-3-3.25-2.67Z"/><path class="cls-12" d="M1301.75,905.64l12.78.08C1311,911.69,1307.52,911.67,1301.75,905.64Z"/><path class="cls-5" d="M1259.35,615.8c.32-1.93,1.65-3,3.25-3.88,3.71,1.56,5.93-2.7,9.33-2.39C1271.68,619.53,1263.83,614.28,1259.35,615.8Z"/><path class="cls-2" d="M1286.73,730.42q.07-4.41.14-8.83l1.25,0,1.22.22,4.17,10.9c-.62.65-1.25,1.3-1.88,1.94C1289.43,733.89,1289.6,730.38,1286.73,730.42Z"/><path class="cls-12" d="M1419.51,749.2l.2,1.26c-.71,1.8-1.56,4.08-3.84,3.32-4.71-1.56-1.87-5.59-2.28-8.56l-.21.23Z"/><path class="cls-15" d="M1214.17,839.26a11.66,11.66,0,0,1-.06,2.64c-4.58,1.6-8.27-.15-11.66-3.08.69-1,1.37-1.93,2.06-2.9,3.28.94,6,3.67,9.66,3.35Z"/><path class="cls-9" d="M1359.58,733.21c-1.17-7.28,0-15.27-6.44-20.94-1.22,4.68,2.34,10.2-2.49,14.25-.47-3.33-.93-6.66-1.41-10.09-11.61-3.24-19.86,4.58-29.31,8-4.48,8.07.82,23.94.12,24.16-.42,2.64-.93,5.32,3,5.6,2.42-.68,28,.26,29.9.08.67-1.59,1.75-2.48,3.58-2.12l.09,0C1354.4,745.31,1360.74,739.84,1359.58,733.21Z"/><path class="cls-5" d="M1338.18,595.18c-3.38-1.83-7.26-3-9.25-6.71C1332.42,590.15,1342.06,583.35,1338.18,595.18Z"/><path class="cls-3" d="M1192.69,852c-3.71-3.74-2.2-8.32-2-12.68l2.59,3.13Z"/><path class="cls-5" d="M1120.19,745.36c1,2.56,5.8,5.61-1,7.21-2.82-2.89-1.05-5,1.28-7Z"/><path class="cls-12" d="M1205.3,754.47c.18-2.18-.37-5.11,3-5,3.2.11,2.77,3,3,5.2Z"/><path class="cls-6" d="M1467.87,775.65l-.3,12.36a6,6,0,0,0-2.19.26C1465.17,783.86,1463.67,779.19,1467.87,775.65Z"/><path class="cls-7" d="M1320.25,926.2l6.13-1.58c-.35,1.84-.58,4-2.59,4.6S1320.41,928.42,1320.25,926.2Z"/><path class="cls-5" d="M1174.73,893.61c3.32.44,7.42-1.42,9.29,3.21C1180.41,897.25,1176.78,897.71,1174.73,893.61Z"/><path class="cls-6" d="M1165.53,697.8c3.48-.72,7-1.47,9.67,1.85C1171.74,700.29,1168.28,700.87,1165.53,697.8Z"/><path class="cls-1" d="M1376.29,770c-2.1-1.33-2.25-3.63-2.84-5.71l3.93-.47,2.83,6Z"/><path class="cls-4" d="M1395.21,754.42c1.61-2.42,4-2.06,6.35-1.78C1399.88,754.79,1397.58,754.71,1395.21,754.42Z"/><path class="cls-4" d="M1386.22,754.47c2.13-2.65,4.24-2.66,6.32,0Z"/><path class="cls-5" d="M1189.84,712.28l6.82,1.36-5.76,1.43A8,8,0,0,0,1189.84,712.28Z"/><path class="cls-7" d="M1404.57,751.61l5.83-.1C1408.53,755.85,1406.59,756.09,1404.57,751.61Z"/><path class="cls-3" d="M1102.5,860.53c1.23,3.06-.31,5-2.66,6.59C1099.06,864.25,1099.2,861.76,1102.5,860.53Z"/><path class="cls-9" d="M1319.78,832.84c-.76,2.9-3.07,3.26-5.53,3.4C1313.51,830.9,1317.33,833,1319.78,832.84Z"/><path class="cls-12" d="M1149.12,711.23c0-1.13,0-2.26,0-3.39,2,1,1.51,2.88,1.55,4.56l.08-.07A1.32,1.32,0,0,1,1149.12,711.23Z"/><path class="cls-1" d="M1144.36,748.82c-2.13-1.59-1.84-3.76-1.44-6C1145,744.45,1144.83,746.6,1144.36,748.82Z"/><path class="cls-2" d="M1296.24,861c.16-3.15,2.47-3.59,4.9-3.89C1300.81,860.06,1298.91,861,1296.24,861Z"/><path class="cls-7" d="M1353,754.26c.67-1.59,1.75-2.48,3.58-2.12A3.29,3.29,0,0,1,1353,754.26Z"/><path class="cls-6" d="M1419.82,781l-3.42.28C1417.37,779.15,1418.5,778.9,1419.82,781Z"/><path class="cls-6" d="M1416.08,781.54a4.1,4.1,0,0,1-2.61,3.43c.31-1.19.61-2.38.92-3.57A6.41,6.41,0,0,1,1416.08,781.54Z"/><path class="cls-1" d="M1141.72,757.4c.86-1,1.71-2,2.56-3.07A2.66,2.66,0,0,1,1141.72,757.4Z"/><path class="cls-10" d="M1432.5,862.68c-1.9,6.21-4.33,9-8.84,10q-2,1.86-4,3.73c-3.3,6-9.49,8.34-14.76,11.85,1.95,3.29,2.23,6.46-2,7.88-4.55,1.55-1.61,4.43-1.7,6.79a17.44,17.44,0,0,0-8.32,1.59c-10.74,4.25-21.28,9.33-33.05,10.39-4.32.89-9.45-1.66-12.87,3l-12.25-.47c.39-5.36-3.38-5.5-6.92-5-6.1.76-10.51-1.24-13.28-6.75l-12.78-.08c.12-1,.23-2.11.35-3.16l3.19-.2c9.63-.21,19.21,4.88,29,1.47-.29-5.13-4.56-6.37-5.63-9.69q.13-2.87.28-5.74c4,4.87,8,9.74,12.29,15,5.38-2.1,13.33,2.92,15.52-6.79l2.82,0c1.73.19,2.31,1.56,3,2.87l-2,1.83c2.12,1.61,3.46.42,4.67-1.29,3.5-3.65,8.06-6.5,9.17-12,3.31,1.86,5.38,6.87,10.76,2.86,3.84-2.86,8.68-4.37,13.08-6.47L1403,881c4.54,1.36,7.61-1.18,10.57-4,1.39-1.1,2.86-2.13,3.2-4l3.16.06a3.69,3.69,0,0,1,2.55-.91C1424.09,868.15,1426.92,865.54,1432.5,862.68Z"/><path class="cls-3" d="M1256.07,604.37l-2.51-3.82A3.67,3.67,0,0,1,1256.07,604.37Z"/><path class="cls-10" d="M1235.07,921.7l3.51-.34C1237.6,923.41,1236.42,923.42,1235.07,921.7Z"/><path class="cls-6" d="M1162.47,817.53A2.84,2.84,0,0,1,1166,816,3,3,0,0,1,1162.47,817.53Z"/><path class="cls-5" d="M1310.9,688.2c1.39.58,2.86,1.08,3.11,2.89A3.08,3.08,0,0,1,1310.9,688.2Z"/><path class="cls-7" d="M1398.6,763.37l-3.38,0C1396.34,761,1397.46,760.93,1398.6,763.37Z"/><path class="cls-6" d="M1428.8,851.84l-3.11-.43c-1.35-4.59-8-1.86-9.19-6.66-5.25-4.14-11.93-3.52-17.88-5.35-20.55,14.32-20.6,18.33-.37,30.21,0,1.58.09,3.16.13,4.75,1.06,2.54,4.85,3.15,4.62,6.59,4.54,1.36,7.61-1.18,10.57-4a4.86,4.86,0,0,1,3.26-4.43l-.06.44c2.31-7,10.67-9.49,12.44-16.86C1429.07,854.68,1428.93,853.26,1428.8,851.84Z"/><path class="cls-5" d="M1356.32,890.74c-5.11-10.69,1.46-20.16,3.13-30.15,3.25-.82,1.66-6.27,5.88-6.17l-.18-.16c.19,1.9,1,3.21,3.1,3.34l-.21-.22c2.54,14.62,14.58,13.21,24.87,14.74-7.22-1.27-5.49,7.34-8.69,8.73-6.72,1.63-8.79-4-13-5.26l-.57-.67.69.55c-4.63,5.57,2.08,8.35,3.08,12.54-1.11,5.49-5.67,8.34-9.17,12-.91-.14-1.82-.32-2.72-.54-.64-1.31-1.22-2.68-3-2.87-.5-2.43-.51-5.14-3.52-6.13Z"/><path class="cls-12" d="M1416.5,844.75c-5.25-4.14-11.93-3.52-17.88-5.35,4.1-10.65,13.37-19.67,25.4-24.09,2.94,9.35.42,18.7,1.49,27C1422.44,846.29,1419.35,844.87,1416.5,844.75Z"/><path class="cls-3" d="M1376.29,770l3.92-.18c1.31,2.68,3.7,3.07,6.32,3,8.4,6.34,14.66,15.15,23.85,20.58.73,5.23-.73,9.8-5,14.88-6.08-14.35-23.89-14.88-30.94-28.09C1381.22,777.92,1375.65,773.39,1376.29,770Z"/><path class="cls-6" d="M1446.81,839.21c-8.38-7-5.16-16.28-5.78-25,7.81-4.61,12.65,0,17.6,4.1a4,4,0,0,1,0,2.76,3.11,3.11,0,0,0-2.42,3.3l-.14.15c-2.69,1.06-3.18,3.27-3,5.82h0c-2.7,1.2-3.49,3.34-3,6.11l.07-.09c-2,0-2.93,1.12-3.27,2.93Z"/><path class="cls-7" d="M1350.06,805.35c1.4-6.89-5.56-10.93-5.89-17.24,8.75-.4,10.33,8.12,15.36,12.34.82,8.2,7.65,14.88,6,23.71a16.75,16.75,0,0,0-8.92-3.11c-1.41.28-2.67.11-3.5-1.25l.06-4.12c2.06.27,3.73,3.77,7.14-.18-4.28-2-2-9.37-9.1-9.34l-.83,0Z"/><path class="cls-13" d="M1432.79,836.28c-5.51-12-6.6-20,3.43-28.45C1437.48,818,1440.34,826.27,1432.79,836.28Z"/><path class="cls-12" d="M1368.3,848.35c-3.39-4.64-1.37-8.31,2.39-12.09,5.85,1.19,7.36,7.57,12.22,9.35-2.45,6.94-7.26,5.85-11.69,5.71l.11.1-3.18-3.21Z"/><path class="cls-5" d="M1365.53,824.16c1.65-8.83-5.18-15.51-6-23.71,11,6.66,8.7,18.42,11.89,28.63C1367.31,828.87,1367.1,825.81,1365.53,824.16Z"/><path class="cls-6" d="M1425.73,799.86c-1,3.64.6,7.79-2.52,11.7-5.46-.77-7.75-4.27-8.9-8.94,3.67-3.81,7.77-2.25,11.46-2.7Z"/><path class="cls-12" d="M1365.33,854.42c.25-2.38.55-4.74,3-6.07l-.15-.14,3.18,3.21-.11-.1c3,4.89,8.7,7.85,10.63,14.11-7.08.9-8.69-6.59-13.81-8l.21.22c-.35-1.74-1-3.17-3.1-3.34Z"/><path class="cls-10" d="M1356,836.25q1.26-3.54,2.53-7.08c8.06.45,8.32,1.08,4.44,10.63l-6.85-.48Z"/><path class="cls-14" d="M1336.11,777.3c7.76-1.34,10,2.54,14.24,6C1343.69,784.6,1341,781.68,1336.11,777.3Z"/><path class="cls-13" d="M1458.61,821a4,4,0,0,0,0-2.76,7.49,7.49,0,0,0,.58-2.72c4,2.86,3,6.46,1.26,10-.89,1.77-3,.87-1.29-.14s-2.73-1.28-.72-1.33Z"/><path class="cls-2" d="M1356.14,839.32l6.85.48c-1.17,3.28-4,2.81-6.54,2.8l-.85-1a3.92,3.92,0,0,0,.63-2.35Z"/><path class="cls-3" d="M1435.06,803.17l1.22,1.38-1.34-1.18Z"/><path class="cls-9" d="M1335.57,836.86c-2.8,2.71-6.27,2.13-9.65,2l.47-3.17c1.27,0,1.95-.58,1.91-1.89Z"/><path class="cls-9" d="M1340.19,841.48c.06-1.57.12-3.14.17-4.71l4.08-.26a5.11,5.11,0,0,0-.35,2.73A3.42,3.42,0,0,1,1340.19,841.48Z"/><path class="cls-10" d="M1328.3,833.78c0,1.31-.64,1.9-1.91,1.89A2.3,2.3,0,0,1,1328.3,833.78Z"/><path class="cls-10" d="M1344.09,839.24a5.11,5.11,0,0,1,.35-2.73C1347.24,837.79,1346,838.56,1344.09,839.24Z"/><path class="cls-9" d="M1356,836.25l.12,3.07.09-.09a7.94,7.94,0,0,0-2.86.34A3.78,3.78,0,0,1,1356,836.25Z"/><path class="cls-10" d="M1353.37,839.57a7.94,7.94,0,0,1,2.86-.34,3.92,3.92,0,0,1-.63,2.35A2,2,0,0,1,1353.37,839.57Z"/><path class="cls-7" d="M1235.63,705.38c-.92,3.85,1.78,6.75,2.65,10.13-2.29-.37-3,.83-3,2.9-5.28-1.39-11-1.67-14.94-6.33h11c1.53-3.08.27-4.64-2.25-5.64-.59-3.9-2-7.33-5.41-9.65-1.59-3.43.53-8.06-3.4-10.72-13.76,2.1-13.76,2.1-18.81,10.44,7.1,2.52,14.09,2.22,21.14,1.09-.36,2.57-6.36,1.64-3.59,6.36l10.3,2.25c-1.67,4.8-5.66,3.06-9,3.2-8.48-2-14.43-9.48-23-10.33-2.54-4.66-1.09-9.22-1.76-13.52l.58-.62c4.2.65,8.44,1.5,11.83-2.2,5.93-.86,13.37.06,11.53-9.87l.61-2.91,1.11-.74-1.25-1.87c-.06-1.07-.12-2.13-.19-3.19l.24-.2c3.62.56,6-2.34,9.07-3.28l.71,1c.08,3.82-7.57,7.22-.64,11.43-4.23,6-4.49,12.1-.12,18.19v0C1228.21,697.44,1234,700.46,1235.63,705.38Z"/><path class="cls-7" d="M1247.44,715.29c4.4,7.71,12.57,5.5,20.35,7.15-5.2,2.75-10.62,1.76-14.41,5.14-1.86-4.84-7.17-6-10.24-9.37C1243.58,715.51,1245.72,715.72,1247.44,715.29Z"/><path class="cls-11" d="M1220.4,709.41c3.32-.14,7.31,1.6,9-3.2l-.23.23c2.52,1,3.78,2.56,2.25,5.64h-11A6.17,6.17,0,0,1,1220.4,709.41Z"/><path class="cls-5" d="M1192.49,688.53c-2.32,1.45-1.79,5.62-5.49,5.75l.09-11.9,5.8,2.93.43-.2C1193,686.25,1192.77,687.39,1192.49,688.53Z"/><path class="cls-5" d="M1211.69,742.78c1.86-3.36,2.08-3.37,5-.1Z"/><path class="cls-11" d="M1211.69,742.78l5-.1.24,2.92a5.6,5.6,0,0,0-2.52.75C1212.74,745.74,1211.31,745,1211.69,742.78Z"/><path class="cls-3" d="M1182.17,741.89c-.65-1.28.07-1.88,1.14-2.3A1.62,1.62,0,0,1,1182.17,741.89Z"/><path class="cls-7" d="M1246.84,713a4.26,4.26,0,0,1,4.22,1.9l-3.73.58A3.25,3.25,0,0,1,1246.84,713Z"/><path class="cls-11" d="M1235.32,718.41c-.09-2.07.67-3.27,3-2.9C1238.14,717.34,1237.52,718.68,1235.32,718.41Z"/><path class="cls-7" d="M1195.67,685.56a8.58,8.58,0,0,0-2.35-.45l-.43.2c0-1,.08-2,.13-3a3.54,3.54,0,0,1,3.23,2.59Z"/><path class="cls-13" d="M1192.79,863.86l.78,5.47c-2.07,5,1.81,12.45-7.25,15.42-3.93-7.39-1.59-15.06-1.75-22.09C1188.33,859.44,1190.4,862.43,1192.79,863.86Z"/><path class="cls-13" d="M1223.59,881.42c-2.07,5.71-11.36,1.42-12.21,8.82l-9.31-2.78.14.16A5.85,5.85,0,0,1,1202,885l9.1-9.69,8.94,3.45,3.28,2.48Z"/><path class="cls-7" d="M1141.71,845.4c4.83,2,9,5.56,14.49,6l5.69,4.84C1149.36,855.19,1144.71,852.63,1141.71,845.4Z"/><path class="cls-12" d="M1196.67,869.78c2.48,1.61,5,3,8.13,2.88.29,1.87.18,5.07-1.47,4.56C1200.12,876.22,1195.3,875.38,1196.67,869.78Z"/><path class="cls-13" d="M1180.13,864.47c-3.86,2.45-5.7-.15-8.43-2.5C1175.94,859.28,1177.72,863.16,1180.13,864.47Z"/><path class="cls-15" d="M1202,885a5.85,5.85,0,0,0,.18,2.63l-6-.13C1196.37,882.55,1199.66,884.85,1202,885Z"/><path class="cls-7" d="M1359,652.11c-2.42-8.13.81-16.14.48-24.23,2.75,1,7.84,3.12,7.15,4.13-5.2,7.63,2.43,10.57,4.93,15.25.69,1.3,2.46,1.47,3.92.66,1.2-3.14-6.72-6.14.71-9.81l14.09,20,2.67,8.29a35.32,35.32,0,0,0-8.8,7.39c-2.07,2.45-4.85,3.29-6.81-.57,2.07-1.06,4.15-2.12.66-4.51l-.73,4.43c-4.23-1.42-3.36-5.11-3.68-8.27,7.89-8.93-4.16-10-5.11-16.07C1365.17,652.16,1363.05,655.7,1359,652.11Z"/><path class="cls-6" d="M1460.65,716.23,1441.44,719c-5.19,4.88,3.77,14.76-6.4,18.1q-.29-7.85-.58-15.7c-1-1.92-1.92-3.85-2.87-5.77,15.68-1,15.69-1,19.56-15.38.52-1.9,1-3.81,1.51-5.72l.59-.71c3.67,3.15,4.9,7.57,6.19,11.94q1.29,4.79,2.56,9.57A12.27,12.27,0,0,0,1460.65,716.23Z"/><path class="cls-7" d="M1338.8,666.58l5.18,0c4,3.62,8.61,3.64,13.84,2.38-.79-3.48-2-6.45-5.29-8.1.2-1,.43-2,.7-2.94,10.33,0,9.31,9,12,15.08-.56.4-1.13.8,0,0-.91,1.1-.47.57,0,0,4.14-.11,3.33,7.48,8.64,5.55-1.32,5.77-6.1,3-9.42,3.79l.69,0c-.9-3.43-3.65-3.21-6.3-3.18l.3.15c-.69-2.29-2.62-2.81-4.63-3.21-4.81,0-8.53-4.65-13.68-3.14l.32.19c-1-2.11-3.42-3.55-3.07-6.33Z"/><path class="cls-11" d="M1373.92,678.61c-5.31,1.93-4.5-5.66-8.64-5.55h0c-2.73-6-1.71-15.09-12-15.08-.36-4.16,5.41-2.35,5.72-5.86,4.1,3.59,6.22,0,9.48-3.33,1,6.05,13,7.14,5.11,16.07l-6.47-3.49C1369.69,668,1371.81,673.28,1373.92,678.61Z"/><path class="cls-11" d="M1407.29,685.6l-9.24-9.63c.11-1.49-.29-2.7-1.84-3.25-.25-1.78,1-2.43,2.29-3.06l8.85.26.37.26a3.53,3.53,0,0,0,2.69,3.52q1.48,4.23,3,8.46l.33-.18a4.85,4.85,0,0,0-5.75,3Z"/><path class="cls-9" d="M1340.88,673.06c5.15-1.51,8.87,3.18,13.68,3.14l4.63,3.21-.3-.15c1,3.28,3.55,3.41,6.3,3.18l-.69,0q-1.08,3-2.15,5.91c-3.83-.16-8,1.22-9.92-4.24-1.24-3.58-4.4-5.36-8.44-4.82C1344.62,676.35,1339.35,676.41,1340.88,673.06Z"/><path class="cls-15" d="M1429.27,721.36l-.84,2.82c-4.15-6.48-10.44-12.06-8.69-21l-.3.19,6.19.05-.14-.26c.93,4.16-1.1,9.11,3.27,12.37l-.1-.21C1428.86,717.35,1429.07,719.36,1429.27,721.36Z"/><path class="cls-11" d="M1392.9,666.38l-2.67-8.29a8,8,0,0,0,2.12-.26l5.77-2.06,3.84,4.89.29,3.75a4.65,4.65,0,0,0-1.41,2.38,1.86,1.86,0,0,0-2.4.71Z"/><path class="cls-5" d="M1435,737.09q-.29-7.85-.58-15.7l-5.19,0-.84,2.82c-4.15-6.48-10.44-12.06-8.69-21l-.21-.1c2.59-8.23.14-15-6-20.76-1,2.57-3.77,1.67-5.62,2.59l-.66.66h0l-9.24-9.63c-1.65-.5-2.48-1.46-1.84-3.25-.25-1.78,1-2.43,2.29-3.06q-.06-1.08-.06-2.16l-5.54-1.12a35.32,35.32,0,0,0-8.8,7.39c-2.07,2.45-4.85,3.29-6.81-.57l-.07-.08c-4.23-1.42-3.36-5.11-3.68-8.27l-6.47-3.49c2.62,6.6,4.74,11.92,6.85,17.25-1.32,5.77-6.1,3-9.42,3.79-.68,1.86-1.35,3.72-2,5.57,9.23-1.63,14.51,5.14,20.7,9.95,2,.77,4.83-.44,5.81,2.57l.26.15c1.92-.28,2.92.75,3.46,2.43,3.33,2.62,8,4,8.45,9.25,3.15-.61,5.23.68,6.42,3.57h0c-2.71,3.48-4.12,7.31-3.06,11.78,2-.41,2.91-2.06,3.88-3.62,0-1.31,1.88-2.51,1.87-2.36l6.37-2.24c7.35,2.31,3.19,13.21,11.63,14.16l6.37,5.87A2.78,2.78,0,0,0,1435,737.09Z"/><path class="cls-5" d="M1398.44,667.5a1.86,1.86,0,0,1,2.4-.71c2.62.11,5.37-.06,6.51,3.13l-8.85-.26Q1398.44,668.58,1398.44,667.5Z"/><path class="cls-3" d="M1429.27,721.36c-.2-2-.41-4-.61-6l2.93.27c1,1.92,1.91,3.85,2.87,5.77Z"/><path class="cls-9" d="M1389,700.49c-2.52.47-4.73.23-5.81-2.57C1385.15,698.69,1388,697.48,1389,700.49Z"/><path class="cls-9" d="M1392.7,703.07l-3.32.32a8.77,8.77,0,0,1-.14-2.75C1391.16,700.36,1392.16,701.39,1392.7,703.07Z"/><path class="cls-5" d="M1396.21,672.72c1.55.55,2,1.76,1.84,3.25C1396.4,675.47,1395.57,674.51,1396.21,672.72Z"/><path class="cls-7" d="M1223.47,608.57h0c1.68-2.3,3-4.72,2.75-7.71-2.29-.82-4.25-3.75-6.71-2.62-10,4.6-20.92,7.09-29.76,14.06-8.73,1-18.56.16-20.51,12.38,2.89,0,1.87,4.18,2.67,9,10-5.14,20.62-1.35,30.94-2.8.35,6-3.84,5.36-6.88,6.19.58,1.88,2.06,2.81,3.75,3.5,6.57-1.86,13-4,18.63-7.44.52-3.76-3.19-6.9,0-10.18,3.09-1.67,5.41.33,7.88,1.64C1226.48,619.05,1233.38,612.42,1223.47,608.57Z"/><path class="cls-10" d="M1196,637.06c.58,1.88,2.06,2.81,3.75,3.5.8,2.57,2.79,4,5,5.18a3.39,3.39,0,0,1-.33,2.1l-7.1,5.45c3.44,8.09-4.77,12.92-4.85,19.33-2.61,2.32-2.66,4.52.32,6.56l.13.21a13.32,13.32,0,0,0,.1,3c0,1-.09,2-.13,3l-5.8-2.93-.72-4.4c.27-5.62,5.09-10.14,4.48-16.36-5.47.49-9.85,3.66-14.93,2.6,2-2.05.42-2.92-1.25-3.76l-2.8-5.5a5.08,5.08,0,0,0,1.13-.52c.19-.16.18-.55.26-.83l-1.39,1.36-3.43-.4-2.85-3.16a11.27,11.27,0,0,0,.15-2.72l-.06.16c6.62.8,12.81-4.45,20-.6,2.25,1.19,9.67-.26,6-7.69C1191.2,639.47,1193.89,637.53,1196,637.06Z"/><path class="cls-7" d="M1165.74,648.69c-10.14-4.92-17.53,3.29-26.32,5.53-5.05.39,1.46-8.43-7.54-4.79,13.11-11.53,26.06-15,40.06-15.52l-.16-.18,2.31,5.14c-1.5,4.46-10.33,2.64-8.41,10Z"/><path class="cls-12" d="M1175.92,664.22c5.08,1.06,9.46-2.11,14.93-2.6.61,6.22-4.21,10.74-4.48,16.36-3.34,4.35-7.1,4-11.09,1-1-4.84-5.26-9.42-1.16-14.66Q1175,664.22,1175.92,664.22Z"/><path class="cls-12" d="M1172.65,678.9c-6.44,4.19-12.81-2.53-18.79.5-2-2.73,0-4,.69-5.65l7.34-2.16C1168.76,669.2,1169.77,675.43,1172.65,678.9Z"/><path class="cls-16" d="M1161.89,671.59l-7.34,2.16c-2.54-.36-5.09-.81-6.94,1.66-2.33.33-4.7,1.52-7.35-.57,4.29-5,10.79-5.17,16.12-7.51C1159.35,666,1162.11,667.49,1161.89,671.59Z"/><path class="cls-5" d="M1165.59,651.41l2.85,3.16c-4.36.27-7.91,4.29-13.48,2.78C1157.84,653.33,1161.82,652.55,1165.59,651.41Z"/><path class="cls-10" d="M1175.92,664.22q-.9,0-1.8.09l-6.81,2.61c-.29-6.08,4.2-5.46,7.36-6.46C1176.34,661.3,1177.92,662.17,1175.92,664.22Z"/><path class="cls-9" d="M1259.46,818.09c-.27,4.46-.53,8.91-.78,13.21l-26.45,1.94.36-21.3c3.84.75,7.61-3.74,11.94.78,1.62,1.68,8.34,3.49,8.91-3.66l3.16,0-.26-.19c-.21,3.58-2.57,7.9,3.23,9.41Z"/><path class="cls-5" d="M1253.44,809.06c-.57,7.15-7.29,5.34-8.91,3.66-4.33-4.52-8.1,0-11.94-.78a7.94,7.94,0,0,1-.84-2.41v-13c.85-3.83,1.46-8.48,6.79-7.58,5.09.86,10.44,1.6,13.46,7.35C1254.27,800.59,1252.57,804.86,1253.44,809.06Z"/><path class="cls-5" d="M1226.7,814.53c-3.54-.18-4.54,3.53-7.58,4.89-4.93-3.43-6-7.58-3.64-13.49s4.46-12.12-1-17.71a5.73,5.73,0,0,1-.21-2.6c3.68-1.52,6.06,1.9,9.2,2.43.68,7.89-4.3,16.39,2.57,23.61A3.77,3.77,0,0,1,1226.7,814.53Z"/><path class="cls-5" d="M1231.74,796.48v13l-5-.16c-2-7.12.29-14.33-.49-21.47C1231.13,788.81,1227.65,795.07,1231.74,796.48Z"/><path class="cls-9" d="M1226.25,787.9c.78,7.14-1.49,14.35.49,21.47a5.33,5.33,0,0,0-.74,2.29c-6.87-7.22-1.89-15.72-2.57-23.61Z"/><path class="cls-9" d="M1248.08,838.7l-15.49.66a8,8,0,0,1,0-2.62C1237.83,836.59,1243.25,835.3,1248.08,838.7Z"/><path class="cls-10" d="M1226.51,874.78a4.16,4.16,0,0,1,2.19,3.89A3.87,3.87,0,0,1,1226.51,874.78Z"/><path class="cls-10" d="M1223.35,881.23l-3.28-2.48Z"/><path class="cls-5" d="M1329,888.32l-.77-.63c-1.89-2.28-2.54-4.41,1.15-5.38,6.27-1.64,12.58-3.12,19.16-4.74,4.08,3.17-1.46,12.69,7.82,13.17l-.26-.28q.36,3.06.71,6.11c-2.19,9.71-10.14,4.69-15.52,6.79C1336.91,898.06,1332.93,893.19,1329,888.32Z"/><path class="cls-9" d="M1305.29,902.28c.07-.93,0-2.61.24-2.68,7.68-2,14.81-6.36,23.15-5.54,1.07,3.32,5.34,4.56,5.63,9.69C1324.5,907.16,1314.92,902.07,1305.29,902.28Z"/><path class="cls-4" d="M1356.77,896.57q-.35-3-.71-6.11c3,1,3,3.7,3.52,6.13Z"/><path class="cls-4" d="M1362.54,899.46c.9.22,1.81.4,2.72.54-1.21,1.71-2.55,2.9-4.67,1.29Z"/><path class="cls-8" d="M1486,720.3c-.32.85-.44,2.22-1,2.45-1.47.58-2.61-.35-3.32-1.7-.61-1.14-.29-2,.95-2.34A2.59,2.59,0,0,1,1486,720.3Z"/><path class="cls-8" d="M1467.89,718.47c3.07.48,2.55,2.18,1.39,4.93-.55-2.21-.9-3.64-1.26-5.06Z"/><path class="cls-6" d="M1250.64,643.67a18,18,0,0,0,.33,2.54l-21.06,15.46-.71-1-3-9.12c-.35-4.24,4.31-8-.3-12.33,6.92-3.22,12.47-5.86,18.94-5.52l-.36-.08C1239.33,641.4,1251.42,638.56,1250.64,643.67Z"/><path class="cls-12" d="M1226.15,651.56l3,9.12c-3.08.94-5.45,3.84-9.07,3.28C1221.08,659.31,1221.42,654.37,1226.15,651.56Z"/><path class="cls-10" d="M1244.79,633.71c4.79-2.14,8.25-10.25,15-3.36l-.81,1c-4.92.43-9.31,4.2-14.6,2.29Z"/><path class="cls-7" d="M1250.38,615.62h9.23c-.84,2.7-3.22,3.91-5.46,4.81C1248,622.9,1248.51,619.68,1250.38,615.62Z"/><path class="cls-7" d="M1226.16,624.84c1.81.11,4.67-.31,4.45,2-.23,2.6-2.74,3.77-5.91,3.12.61-2,1.13-3.65,1.64-5.32Z"/><path class="cls-10" d="M1208.35,643c-.72,1.41-1.67,2.51-3.41,2.57A3.11,3.11,0,0,1,1208.35,643Z"/><path class="cls-3" d="M1186.89,813c-2.68-3.45-3.47-6.93-.16-10.47C1186.78,806,1186.84,809.5,1186.89,813Z"/><path class="cls-4" d="M1214.16,787.8c-.05,2.94-.44,5.74-3,7.73C1211.29,792.61,1210.71,789.43,1214.16,787.8Z"/><path class="cls-3" d="M1186.73,800.57c-3-2.49-3.21-5,0-7.41C1186.76,795.63,1186.74,798.1,1186.73,800.57Z"/><path class="cls-3" d="M1186.79,791.72c-2.45-1.6-2.22-3.17.07-4.7C1186.84,788.58,1186.82,790.15,1186.79,791.72Z"/><path class="cls-11" d="M1392.35,657.83a8,8,0,0,1-2.12.26l-14.09-20c-7.43,3.67.49,6.67-.71,9.81-1.46.81-3.23.64-3.92-.66-2.5-4.68-10.13-7.62-4.93-15.25.69-1-4.4-3.12-7.15-4.13-3.14-5.45,2.54-2,3.42-3.39,13.41,3.63,21,14.45,29.75,23.94C1392.51,651.56,1392.43,654.7,1392.35,657.83Z"/><path class="cls-11" d="M1352.53,660.91c3.34,1.65,4.5,4.62,5.29,8.1-5.23,1.26-9.85,1.24-13.84-2.38C1346,663.45,1348,660.33,1352.53,660.91Z"/><path class="cls-9" d="M1389.52,703.27c-5,5.59,1.2,7.93,3.32,11.46l-3.52.66c-4.13-.45-5.28-7.22-10.52-5.27-.93,1.86,2.62,3.52-.17,5.15-7.32,1.51-7.6-5.13-10.35-8.92h0c2.69-1.09,1.81-2-.15-2.83a2.6,2.6,0,0,1-.42-2.35c.34-1.85.69-3.71,1.07-5.74,6,1.33,7.72,7.49,12.58,9.64Z"/><path class="cls-3" d="M1405.16,733.25a9.37,9.37,0,0,1-.85-2.52c.06-1,.13-2,.2-3.06,2-.41,2.91-2.06,3.88-3.62,3.55,3.67,1.62,8.35,2.3,12.55Z"/><path class="cls-9" d="M1362.67,715c-.42-1.89-.83-3.78-1.25-5.67,4.28.25,5.85,2.94,6.24,6.75C1365.41,718,1364.29,715.4,1362.67,715Z"/><path class="cls-10" d="M1395.49,721.5c1-2.16,2-4.42,5-5.08,2,5.72-2.06,4.85-5.2,4.88Z"/><path class="cls-3" d="M1413.5,739.82l-1.44.27-1.23-.81a17.63,17.63,0,0,0-.32-2.89C1412.35,736.8,1413.69,737.64,1413.5,739.82Z"/><path class="cls-17" d="M1410.86,630.22l5.75.56c.44,4.21,6,4.9,6.31,9.23,0,4.34-5.32,2.67-6.41,5.75l-6,0,.22.16c-.46-2-2-2.76-3.78-3.15l-4.72-3.07c-2.34-3.52-5.48-5.74-9.82-6l.16.09c-3.81-4.47.69-6.35,2.8-9l.13-.13,12.4,2.93-.3-.06A3.54,3.54,0,0,0,1410.86,630.22Z"/><path class="cls-12" d="M1402.24,639.67l4.72,3.07a4.9,4.9,0,0,0,3.78,3.15l-.22-.16c.81,3.34,5.41,4.35,5.13,9l-6.41,4.85c-4.89-1.16-5.88-7-10.7-7.74l0,.11C1398.64,647.52,1393.38,641.48,1402.24,639.67Z"/><path class="cls-7" d="M1392.35,657.83c.08-3.13.16-6.27.25-9.4l6,3.53,0-.11-.42,3.92Z"/><path class="cls-12" d="M1392.42,633.69c.44,1.76,2.48,3,1.62,5.26-3.68,1.07-5.27-1.54-7-4,1.55-1.91,3.63-1.12,5.52-1.22Z"/><path class="cls-17" d="M1395.38,624.81l-2.12-1.28c1.92-1.91,1.77.24,2.25,1.15Z"/><path class="cls-9" d="M1256.71,802.9c7.89,6.09,14.37,13.58,20.89,21-1.46,4.7-7.39,1.83-9.41,5.57-5.66-1.7-3.4-9.46-8.73-11.41l.11.21c-.07-3.48,1.4-7.49-3.23-9.41l.26.19Z"/><path class="cls-3" d="M1283.75,799.7c-1.24-2.64-4.34-1.76-6.17-3.27,7-3.19,14-3.4,21,0-3.62,2.56-7.92,3.07-12.07,4A2.76,2.76,0,0,0,1283.75,799.7Z"/><path class="cls-9" d="M1338.13,666.92c-.35,2.78,2,4.22,3.07,6.33-1.5,0-3,0-4.5-.06-2.8-.17-5.42-1.61-4.86-4.39C1332.48,665.61,1335.83,667,1338.13,666.92Z"/><path class="cls-5" d="M1280.58,881.48c-1.33,3-2.67,6-7.34,4.78,1.23-4,4.32-4.36,7.49-4.61Z"/><path class="cls-3" d="M1132.49,823.94h3.28c-.63,1.06-1.36,3-1.89,3C1132.47,826.79,1132.11,825.36,1132.49,823.94Z"/><path class="cls-15" d="M1214.17,839.27c1.09-1.75,2.16-3.51,4.58-.81l-4.58.8Z"/><path class="cls-13" d="M1453.11,833.41c4.89,1.93,1.37,4.2.14,6.2s-2.66,2.26-3.57-.41a3.31,3.31,0,0,0,.35-2.87l-.07.09C1452,836.48,1452.67,835.05,1453.11,833.41Z"/><path class="cls-14" d="M1468.4,815.5c-.42,1.36-.85,2.72-1.32,4.21-3.43-2.3-1.15-3.54.56-4.86Z"/><path class="cls-1" d="M1453,830.31c-.15-2.55.34-4.76,3-5.82C1455.57,826.71,1455.49,829.13,1453,830.31Z"/><path class="cls-1" d="M1453.11,833.41c-.44,1.64-1.09,3.07-3.15,3-.44-2.77.35-4.91,3-6.11C1453,831.35,1453.07,832.38,1453.11,833.41Z"/><path class="cls-1" d="M1458.61,821l-.15,3-2.27.29A3.11,3.11,0,0,1,1458.61,821Z"/><path class="cls-5" d="M1470.48,827.57c-1.18-.41-2.59-1.33-1.34-2.35s1.76.66,2.07,1.76Z"/><path class="cls-5" d="M1471.21,827c1.19.33,2.58.68,2.1,2.28-.17.54-1.39.76-2.13,1.12l-.49-.41a3.32,3.32,0,0,1-.21-2.4Z"/><path class="cls-1" d="M1450,836.33a3.31,3.31,0,0,1-.35,2.87l-1.46.17-1.46-.11C1447.1,837.45,1448.07,836.34,1450,836.33Z"/><path class="cls-3" d="M1444.26,853.93a3.81,3.81,0,0,1-.32-2.13c1.24.07,1.83.65,1.49,1.63C1445.34,853.7,1444.67,853.77,1444.26,853.93Z"/><path class="cls-15" d="M1202.07,887.46l9.31,2.78,17.32,7.16c-4.08,4.48-8,.11-12-.25l-14.58-6.66Z"/><path class="cls-12" d="M1241.67,887.05l-3.31,3.86a5.16,5.16,0,0,1,.37,2.09c-4.22-1.35-8.54-2.5-11.7-5.73-1-4.53,5.63-1.53,5-5.47Z"/><path class="cls-5" d="M1289.34,721.79l-1.22-.22-1.25,0c2.26-4-6-8.07.12-12l5.71,5.88c-2.46,1-2.94,3-2.4,5.38Z"/><path class="cls-3" d="M1244.43,633.63c5.29,1.91,9.68-1.86,14.6-2.29-5.22,5.7-.06,8,3.53,10.87l-11.92,1.46C1251.42,638.56,1239.33,641.4,1244.43,633.63Z"/><path class="cls-3" d="M1256.53,745.7c1-4,3.7-2.91,8.46-1.69l-8.68,1.44Z"/><path class="cls-5" d="M1235.53,848.32c9,.25,18.43-3,26.94,2.68.69,4.65,5.92,4.81,8.1,8.08-2.38,2.82-5.51.62-8.11,1.43-7.65-7.41-17.45.21-25.38-3.28C1234.58,854.28,1235.78,851.19,1235.53,848.32Z"/><path class="cls-2" d="M1289.75,857.52c-5.24.08-7.26-3.68-9.8-7.44s-3.08-9.46-8.76-10.76l.25.15c.2-2.58.74-5.31-2.82-6.18l-.12-3.13c5.54.16,11.11.17,16.12,3.08,1.43-.14,3.88.78,3.38,1.27C1279.41,843,1284.44,850.23,1289.75,857.52Z"/><path class="cls-9" d="M1268.62,833.29c3.56.87,3,3.6,2.82,6.18C1268.22,838.45,1268.1,836,1268.62,833.29Z"/><path class="cls-5" d="M1289.91,869.48l2.75,3A3,3,0,0,1,1289.91,869.48Z"/><path class="cls-7" d="M1234.05,899.59l-5.35-2.19c-4.08,4.48-8,.11-12-.25l-14.58-6.66-.09-2.87-5.9-.13c-.33,8.15-6.82,8.06-12.37,9.23,7.41,8.32,16.69,12.37,27.76,11.11,2.32-.26,4.15-.3,4.78,1.52,3.13,9,11.82,9.27,18.72,12.35l3.51-.34.32-.27C1229.5,911.8,1228.66,908.25,1234.05,899.59Z"/><path class="cls-7" d="M1368.13,703.52c2,.84,2.84,1.74.15,2.83C1368.22,705.41,1368.17,704.46,1368.13,703.52Z"/><path class="cls-2" d="M1292.74,860.53a3.16,3.16,0,0,1-3.16-3.17A3.8,3.8,0,0,1,1292.74,860.53Z"/><path class="cls-5" d="M1335,685.12c-1.79,2.27-.68,7.14-5.78,6.43-9.39-1.18-2.91-6.93-1.39-8.34,2.56-2.35,6.81-2.88,10.35-4.17a12.06,12.06,0,0,0-.2,3h0Z"/><path class="cls-8" d="M1425.63,703.45l-6.19-.05c2.78-8.45.26-15.39-6.07-21.24q-1.47-4.23-3-8.46l.15-3.72c3.55-3.53,7,.68,10.61.26,5.93-.67,10.42-1.94,10.48-9,6.08,4.92,8.74,12.93,15.52,17.21,4.59-1.75-.15-2.65-.35-4,1-3,1.83-6,5.59-6.58,1.07,1.69,2.13,3.39,3.2,5.09a13.41,13.41,0,0,0-2.77,9.67c-6.75,4,2.26,7.34.41,11.12l-.59.71c-8.62-6.26-17.71-3.23-27-2Z"/><path class="cls-17" d="M1452.84,682.69a13.41,13.41,0,0,1,2.77-9.67,60.2,60.2,0,0,1,12.72,24.8c1,3.6,2,7.21,2.89,10.57-2.2,4-5.86,5.26-9.22,6.93q-1.27-4.79-2.56-9.57c3.39-2,2.43-4.85,1.17-7.51C1458.12,693,1455.44,687.87,1452.84,682.69Z"/><path class="cls-5" d="M1468.08,682.07c4.27.36,7.66,1.51,6.66,7.3-6.3.92-6.25-3.42-6.8-7.2Z"/><path class="cls-5" d="M1467.94,682.17c-2.66-2-5.08-4.22-4-8.63,6.68.52,6.21,4.12,4.14,8.53Z"/><path class="cls-6" d="M1431.65,661.26c-.06,7-4.55,8.31-10.48,9-3.66.42-7.06-3.79-10.61-.26a4.67,4.67,0,0,0-2.84.2l-.37-.26c-1.14-3.19-3.89-3-6.51-3.13a4.65,4.65,0,0,1,1.41-2.38c2.62-1.46,2.2-2.68-.29-3.75l-3.84-4.89.42-3.92c4.82.7,5.81,6.58,10.7,7.74l6.41-4.85c.28-4.66-4.32-5.67-5.13-9l6,0-.07,0c.62,3.46,3.58,2.65,5.81,3.18v0l6.5,9.39,2.71,2.73Z"/><path class="cls-3" d="M1416.51,645.76c1.09-3.08,6.45-1.41,6.41-5.75h5.39c-4.36,1.38,2.33,10.29-6.06,8.92v0c-.2-4.23-3.43-2.93-5.81-3.18Z"/><path class="cls-8" d="M1431.46,661.05l-2.71-2.73A3.21,3.21,0,0,1,1431.46,661.05Z"/><path class="cls-10" d="M1446.82,674.51c.2,1.31,4.94,2.21.35,4C1447.05,677.15,1446.94,675.83,1446.82,674.51Z"/><path class="cls-3" d="M1419.51,749.2l-6.13-3.75c0-2-.05-3.9-.07-5.84C1418.72,740.64,1419.62,744.6,1419.51,749.2Z"/><path class="cls-3" d="M1416.83,872.52c-.18,2.14-1.76,3.25-3.26,4.43A4.86,4.86,0,0,1,1416.83,872.52Z"/><path class="cls-7" d="M1405.92,783.87c-2.48-5-.67-7.53,3.64-9.91C1411.64,779.07,1409.25,781.41,1405.92,783.87Z"/><path class="cls-5" d="M1293.51,732.69l-4.17-10.9,1-1,8,.22.39,6.49.14-.16c-2.47,1.07-3.29,2.14,0,3.21l-.1-.14C1297.69,732.81,1295.69,732.94,1293.51,732.69Z"/><path class="cls-4" d="M1298.31,721.05l-8-.22c-.54-2.4-.06-4.33,2.4-5.38a21.14,21.14,0,0,0,2.74.34l3,2.88A11.17,11.17,0,0,1,1298.31,721.05Z"/><path class="cls-5" d="M1298.47,718.67l-3-2.88C1297.46,715.69,1298.57,716.54,1298.47,718.67Z"/><path class="cls-7" d="M1467.92,836.29c3.08,1.93,8.07,3.39,2.3,7.92-4.16-2.23-1-5.62-2.11-8.08Z"/><path class="cls-15" d="M1428.65,887.63c.39.26,1.14.61,1.1.77-.2.88-.63.58-1-.84Z"/><path class="cls-3" d="M1362.44,597.6l5.4.22c.31,2.2,1.88,5.19-2.27,5.11C1362.15,602.87,1362.28,600.1,1362.44,597.6Z"/><path class="cls-2" d="M1298.84,730.59c-3.29-1.07-2.47-2.14,0-3.21Z"/><path class="cls-8" d="M1410.86,630.22a3.54,3.54,0,0,1-3.25-2.67C1409.73,627.18,1410.28,628.71,1410.86,630.22Z"/><path class="cls-9" d="M1371.35,875.47l-.69-.55.57.67Z"/><path class="cls-1" d="M1365.15,854.26c2,.17,2.75,1.6,3.1,3.34C1366.16,857.47,1365.34,856.16,1365.15,854.26Z"/><path class="cls-10" d="M1351.21,806.16h0l-.83,0-.32-.77c1.4-6.89-5.56-10.93-5.89-17.24l-12-3c-2.37,3.57-6,2.32-9.33,2.48-8.65,6.65-2.37,8.93,3.4,9.19,6.79.31,11.35,1.78,12,9.09h-.12c-.39,2.49.8,3.4,3.1,3.21,2.5,5.21,7,8.21,11.95,10.75l.06-4.12c2.06.27,3.73,3.77,7.14-.18C1356,813.48,1358.28,806.13,1351.21,806.16Zm-4.48.79h0Z"/><path class="cls-1" d="M1371.33,851.42l-3.18-3.21Z"/><path class="cls-11" d="M1222.67,697.6c-7.05,1.13-14,1.43-21.14-1.09,5-8.34,5-8.34,18.81-10.44,3.93,2.66,1.81,7.29,3.4,10.72Z"/><path class="cls-5" d="M1219.61,672.87c-7.65-6.77-13.65-14.55-15.19-25l-7.1,5.45c3.44,8.09-4.77,12.92-4.85,19.33.11,2.19.22,4.37.32,6.56l.13.21a13.32,13.32,0,0,0,.1,3,3.54,3.54,0,0,1,3.23,2.59c4.2.65,8.44,1.5,11.83-2.2C1214,681.88,1221.45,682.8,1219.61,672.87Z"/><path class="cls-11" d="M1229.38,706.21l-10.3-2.25c-2.77-4.72,3.23-3.79,3.59-6.36l1.07-.81c3.39,2.32,4.82,5.75,5.41,9.65Z"/><path class="cls-5" d="M1220.22,670a3.21,3.21,0,0,1-.14-2.61l1.25,1.87Z"/><path class="cls-11" d="M1235.28,682c2.53-13.75,12.27-18.25,22.58-22,4.34,6.6,5.42-.63,7.8-2.3l7.39-.18c2.89,4.41,4.39,9.38-2.27,10-10.22,1-12.74,7.89-13.07,17.46C1249.58,696.37,1234,687.48,1235.28,682Z"/><path class="cls-11" d="M1377.22,673.12l.73-4.43c3.49,2.39,1.41,3.45-.66,4.51Z"/><path class="cls-12" d="M1425.63,703.45v-11c9.32-1.19,18.41-4.22,27,2-.5,1.91-1,3.82-1.51,5.72-3.87,14.43-3.88,14.43-19.56,15.38l-2.93-.27.1.21c-1.56-4,1.17-9.13-3.27-12.37Z"/><path class="cls-13" d="M1452.84,682.69c2.6,5.18,5.28,10.32,7.77,15.55,1.26,2.66,2.22,5.48-1.17,7.51-1.29-4.37-2.52-8.79-6.19-11.94C1455.1,690,1446.09,686.66,1452.84,682.69Z"/><path class="cls-5" d="M1365.19,682.44c-2.75.23-5.32.1-6.3-3.18C1361.54,679.23,1364.29,679,1365.19,682.44Z"/><path class="cls-5" d="M1359.19,679.41l-4.63-3.21C1356.57,676.6,1358.5,677.12,1359.19,679.41Z"/><path class="cls-5" d="M1365.28,673.06c-.43.52-.87,1.05,0,0-1.18.84-.61.44,0,0Z"/><path class="cls-8" d="M1413.7,682c-.86,3-3.82,2-5.75,3A4.85,4.85,0,0,1,1413.7,682Z"/><path class="cls-5" d="M1407.72,670.18a4.67,4.67,0,0,1,2.84-.2l-.15,3.72A3.53,3.53,0,0,1,1407.72,670.18Z"/><path class="cls-3" d="M1425.49,703.19c4.44,3.24,1.71,8.37,3.27,12.37C1424.39,712.3,1426.42,707.35,1425.49,703.19Z"/><path class="cls-5" d="M1402,660.66c2.49,1.07,2.91,2.29.29,3.75Z"/><path class="cls-4" d="M1165.68,648.85c-1.92-7.34,6.91-5.52,8.41-10l-2.31-5.14c10-5.24,20.71-1.4,31.07-2.86.35,6-3.84,5.36-6.88,6.19-2.08.47-4.77,2.41-4.23,3.5,3.66,7.43-3.76,8.88-6,7.69C1178.49,644.4,1172.3,649.65,1165.68,648.85Z"/><path class="cls-5" d="M1192.47,672.62c.11,2.19.22,4.37.32,6.56C1189.81,677.14,1189.86,674.94,1192.47,672.62Z"/><path class="cls-4" d="M1171.87,655l1.39-1.36c-.08.28-.07.67-.26.83a5.08,5.08,0,0,1-1.13.52Z"/><path class="cls-10" d="M1286.68,902.82c-2.82-4.23-8.09-2.34-11.67-4.66,0,.26,0,.46,0,.59,0-.13,0-.33,0-.59-9.36-11.33-22.87-19.94-24.76-37.08l12-.75c-7.62-7.09-17.32.36-25.18-3.1-2.5-3-1.3-6-1.55-8.91a4.41,4.41,0,0,0-3.29-3l-3,6.15c-1.46,3.9-7.68,9.4,3.09,9.17,0-.09,15.09,3.36,17.56,12.54,2.19,8.18,8.3,13.8,14,20-5.42,4.38-8.89-2.67-13.5-2.24a3.21,3.21,0,0,0-2.85-.69c-1.38-2.11-3.69-2.49-5.86-3.11l-3.31,3.86h0a5.16,5.16,0,0,1,.37,2.09c-4.22-1.35-8.54-2.5-11.7-5.73-1-4.53,5.63-1.53,5-5.47a2.41,2.41,0,0,0-2-.62l-6.45.24c-2.07,5.71-11.36,1.42-12.21,8.82l17.32,7.16,5.35,2.19c-5.39,8.66-4.55,12.21,4.85,21.5l5.66,2.65c3.78.44,7-2.54,11.19-1.18,3.53,1.14,3.21-2.14,2.73-4.56l10.41-3.41c3.83,1.3,7,4.93,11.69,3.2h0c4.88-2.4,8.15-6.3,11.21-10.41Z"/><path class="cls-3" d="M1256.34,808.89c4.63,1.92,3.16,5.93,3.23,9.41C1253.77,816.79,1256.13,812.47,1256.34,808.89Z"/><path class="cls-6" d="M1410.74,645.89a4.9,4.9,0,0,1-3.78-3.15C1408.77,643.13,1410.28,643.89,1410.74,645.89Z"/><path class="cls-9" d="M1347.86,687.83h0q-1.83-4.41-3.68-8.81l-5.63-.46h0c-3.6-4.66-11.34-2.09-14.15-7.53,1.26-2.55,3.41-4.46.34-6.85-3.52.63-9.27-2.64-8,5.7.47,3.09-3.64,2.48-5.89,3.1-1.86,5.08-.5,10.15,0,15.22,1.39.58,2.86,1.08,3.11,2.89h0l14.72,9.55c2.76,3.14,4.37,7.64,9.32,8,6-1.36,10.58-4.7,14.61-9A24.84,24.84,0,0,0,1347.86,687.83Zm-18.69,3.72c-9.39-1.18-2.91-6.93-1.39-8.34,2.56-2.35,6.81-2.88,10.35-4.17a12.06,12.06,0,0,0-.2,3h0l-3,3.07h0C1333.16,687.39,1334.27,692.26,1329.17,691.55Z"/><path class="cls-16" d="M1416.44,645.79c2.38.25,5.61-1,5.81,3.18C1420,648.44,1417.06,649.25,1416.44,645.79Z"/></g></g></g></svg>