<svg id="Layer_1" data-name="Layer 1" xmlns="http://www.w3.org/2000/svg" viewBox="0 0 1525 1525"><defs><style>.cls-1{fill:#191835;}.cls-2{fill:#371912;}.cls-3{fill:#999373;}.cls-4{fill:#beaf64;}.cls-5{fill:#5d4430;}.cls-6{fill:#595337;}.cls-7{fill:#97200b;}.cls-8{fill:#cd3412;}.cls-9{fill:#cacbad;}.cls-10{fill:#b5ad9d;}.cls-11{fill:#94928d;}.cls-12{fill:#421a20;}.cls-13{fill:#866a58;}.cls-14{fill:#a64e1e;}.cls-15{fill:#f6ba9c;}</style></defs><title>Artboard 1outerCircle4</title><g id="WindowParts"><g id="outerCircle"><g id="co4"><path class="cls-1" d="M1047.13,1051.34l6.69-6.26a1.53,1.53,0,0,1,1.54-.34c1.67.61,3.53,2.47,3.85,1,1.63-7.48,6.88-4.51,10.83-4.6a1.55,1.55,0,0,0,1.35-.87c4.2-8.7,5.72-17-2.11-24.64a1.51,1.51,0,0,0-1.4-.39c-4.38,1.06-7.37,4-10.33,6.89a1.55,1.55,0,0,1-2.26-.1c-2.08-2.45-4.14-4.81,0-8.26,2.88-2.42.31-4.78-.74-7.13a1.54,1.54,0,0,1,.09-1.43c4.31-7,12.33-11.35,14.29-19.93a1.4,1.4,0,0,1,1.13-1.07,3,3,0,0,0,2.32-2,1.75,1.75,0,0,1,.2-.35l7.21-9.24q4.21-5.57,8.45-11.12a1.54,1.54,0,0,1,2.62.23c1.8,3.92,6.23,5,9.81,6.64,15.65,7.35,31.44,14.4,47.18,21.57a1.39,1.39,0,0,0,.33.1c9.07,1.67,15.95,9.67,25.71,9.35a1.53,1.53,0,0,1,1.46.92,4.53,4.53,0,0,0,2.06,2.42c1.74.87,3.1-1.9,1.36-2.77a6.15,6.15,0,0,0-.71-.28,1.53,1.53,0,0,1-.17-2.86c1.34-.61,2.7-1.2,3.09-2.65a1.5,1.5,0,0,1,1.93-1c4.41,1.43,9.94,1.52,10.17,8a1.55,1.55,0,0,1-1.08,1.53c-9.75,3.16-10.93,5.71-5.54,11.18,10.2,10.37,10.23,10.4.4,22a2,2,0,0,0-.17.23c-4.14,6.86-3.55,13.69-.26,20.5a1.54,1.54,0,0,1-.38,1.87c-1.46,1.19-3.39,1.08-5.21,1.27h-.3l-.19,0a1.55,1.55,0,0,1-1.29-2.06c.48-1.34,1-2.68,1.45-4a1.67,1.67,0,0,0,.07-.8c-1-5.86-2.33-11.57-8.75-14.18a4.83,4.83,0,0,0-3.39.42,1.55,1.55,0,0,1-2.26-1.29c-1.87-37.1-8.49-43.11-43-39.49-.4.05-3.73,2.46-3.63,2.07,3-12-17-9.44-17.94-6-.81,2.86-16.29,28.66-12.55,42,3.82,13.7,13.38,21.28,27.26,23.3a1.55,1.55,0,0,1,1.24,1c1.47,4.06,7.5,4.36,8.8,8.56a1.54,1.54,0,0,1-1.16,2c-4.52.93-5.29,6.5-8.69,8.81a1.53,1.53,0,0,1-2.35-1.13c-.2-1.84-.55-3.62-3.09-3.55-11.56.3-19.35-6.49-27-13.75a1.53,1.53,0,0,0-2.22.1l-.46.51a1.53,1.53,0,0,1-2.66-.94c-.21-2.25-1.69-3.68-5.26-3.83a1.57,1.57,0,0,0-1.64,1.49c-.25,4.34,2.77,5.57,5.87,6.71a1.54,1.54,0,0,1,.82.73c5.75,10.84,15.83,16,26.67,20.25a1.33,1.33,0,0,1,.41.25c7.29,6.14,14.88,3.78,22.48,1.11a1.49,1.49,0,0,1,1.66.41c1.5,1.84,3.94,1.19,6,1.6l-.13-.34c-8.12,6.89-18.3.77-28.16,4.35a1.55,1.55,0,0,0-.55,2.59l19.34,18.23a1.52,1.52,0,0,1-.38,2.5,5.6,5.6,0,0,0-2.22,1.82,1.62,1.62,0,0,1-1.1.66,4.13,4.13,0,0,1-4.68-2.47c-3.09-8.86-13.21-9.31-18.54-15.49l.16.16c-6.79-10.37-9.1-11-19.16-6.52-3.5,1.57-7.41,2.21-11.13,3.28l.15.11a7.57,7.57,0,0,1,.17-2,1.53,1.53,0,0,1,.68-.93c5.14-3.2,10.81-5.66,15.08-10a1.54,1.54,0,0,0,.21-1.84c-1.38-2.41-2.94-4.15-5.28-4.93a1.48,1.48,0,0,0-1.62.34,1.52,1.52,0,0,0-.28.43,1.55,1.55,0,0,1-2.9-.65c-.11-1.42-.22-2.81-.33-4.21a1.57,1.57,0,0,0-.26-.75c-6.39-9.47-14-17.72-26.87-20.61A1.54,1.54,0,0,1,1047.13,1051.34Z"/><path class="cls-1" d="M1248.47,1054.1c2.43-2.75.8-5.22-.27-7.95-1.89-4.84.18-7.34,5.27-7.48l0,0,2.78,3.24c.32,3.84,2.22,6,6.27,5.82l9,6.23-.11-.08c.47.74.85,2,1.42,2.11,1.79.29,2.12-1,2-2.53.36-.35.66-.85,1.08-1s1.35,0,1.38.18c1.53,8,1.55,16.66,8.8,22.47,4.63,6.79,6.87,15,12.64,21.13l-.14-.16c-.06,2.5-.16,5,3,5.91,3.85,2.23-2.56,7.67,2.93,9.39,0,8.56,4.17,16.55,3.39,25.26-.35,4,2.63,4.9,5.85,5.23-2,2.81-7,3.62-5.61,8.61-.89,10.34.82,20.92-3,31-2.06,5.42,2.1,7.9,5.23,10.85-3.85.44-7.49.26-9.07,5.51-1.94,6.46-5.28,12.5-8,18.73-3.27-9.76-.2-20.93-6.69-30l.1.29c5.44-18.31-1.23-35-7.17-51.69-.53-1.5-3.17-2.24-4.82-3.33-.08-1-.18-1.9-.33-2.84l-.09.1c3.54-3.25,8.5-6.08,3.57-11.88-.86-1.38-1.05-3.46-3.43-3.21l.33.4c1-8-3.39-14.36-6.36-21-4.84-10.82-11.64-20.72-15.15-32.18-.2-1.82-.77-3.4-2.67-4.12C1249.29,1056.51,1248.26,1055.75,1248.47,1054.1Z"/><path class="cls-2" d="M1274.4,1129c.15.94.25,1.89.33,2.84-2.8,2-6.24-4.33-8.81.68-4.23-1.84-4.19-6.57-6.54-9.65-7.28-9.51-14.4-19.4-27.78-18.6-3.25,11.89-.25,23,4,34l0,3.26,0,.14c-2.22.29-3.82-.11-4.3,3.68-1.57,12.45-6,17.07-15.07,17.85-9.07,1.35-18.13,2.57-27.35,2.22-2.74-.11-6-.21-7.54,3.11-5.46-2.82-1.67-5.21,1.16-7.24-4.55-3.26-10.67.91-13.48-4.73,5,1.17,7.37-4.29,11.4-4.85,7.27,5.73,11.44,7.83,17.24,8.78,10,1.62,15.07-3.89,18.07-19.53,2.68-14-6.74-28.45-19.61-30.16,3.47-9.08,9.68-15.82,17.87-20.85l5.59,3.25c2.53,2.61,4,7.84,9.11,4.84,8.64-5.07,17.84-9.71,21.75-20v.13c10.69,10.38,13.9,25.8,24.46,36.26l-.33-.4c1.11,1.1-1.82,6.52,3.43,3.21,4.93,5.8,0,8.63-3.57,11.88-1.2-9.52-6-17.11-11.92-24.19-4.5,2.6-7.58,4.57-4.16,9.58C1262.47,1120.69,1267,1126.37,1274.4,1129Z"/><path class="cls-3" d="M1196,1110.76c12.87,1.71,22.29,16.2,19.61,30.16-3,15.64-8.1,21.15-18.07,19.53-5.8-1-10-3-17.24-8.78-4,.56-6.43,6-11.4,4.85-7.79-11.24-8-11.48,1.7-20.7C1179.23,1127.63,1185.3,1116.84,1196,1110.76Z"/><path class="cls-4" d="M1128.27,1117l-23.13-21.81c10.54-5.57,21.67,2.07,30.4-5.34,4.47.26,8.92.59,13.39.74,25.78.87,25.81.9,22.4,26.4-3.46,2.68-7.79,4.75-10.21,8.17-6.69,9.45-14,8.65-22.36,2.88C1136.18,1123.49,1132.32,1120.16,1128.27,1117Z"/><path class="cls-4" d="M1149.52,1115.79c-1.93-3.18-4.1-5.94-8.13-3.08-2.5,1.77-2.46,4.25-.07,6C1145.32,1121.77,1147.49,1118.83,1149.52,1115.79Z"/><path class="cls-3" d="M1129.45,1184c6.14-6.25,9-15.08,17.26-21.28,8.87,3.73,22.87-3.6,28.16,11.9-1.12,14,1.54,28.28-2.11,43.54l-18.26-11.4c-4.75-4.61-10.41-8.25-14.21-13.89-1.14-1.69-3.23-4.21-4.92-.08l-5.74-6A7.48,7.48,0,0,1,1129.45,1184Z"/><path class="cls-2" d="M1171.33,1117c3.41-25.5,3.38-25.53-22.4-26.4-4.47-.15-8.92-.48-13.39-.74l.13.34c-.26-2.94,3.14-3.68,3.7-6.13,4.2,3.6,10.55,5.29,13.35,1.37,7.6-10.65,22.81-12.6,27.92-25.56,2.24-.26,4.67,0,6.21-2.22,4.92-.14,7.07,6.14,12.29,5.29l-.16-.15-.18,3.18c-8.88,2-.18,6.72-1.57,9.87,8.3,1.18,5.66,8.22,4.17,11.37-5.56,11.75-15,20.76-24.2,29.81C1176.21,1118,1173.33,1117,1171.33,1117Z"/><path class="cls-5" d="M1008.83,1168.52c8.07,19.61,15.28,39.64,27.06,57.51,2,6,3.58,11.85-6.05,12-2.24-13.73-14.2-21.5-19.89-33.25-4.39,1.9-8.25,4-13,3.66-3.54-.25-3.17,3-3.29,5.39-5.87-1.87-6.23-6.67-6.22-11.67,4-.92,3.17-4.11,3.29-6.86,3.29-3.44,6.3-7.28,12-6.82l-9.35-22.84c6.08-5,3.47-9.43-2.21-10.94-3.28-.87-3.4-1.93-3.62-4.19l5.09-4.43c1.9,3,3,6.54,6.93,7.33a3.91,3.91,0,0,0,3.15,2.81C1005.37,1160,1004.63,1165.5,1008.83,1168.52Z"/><path class="cls-6" d="M1198.8,1066l.18-3.18c1.89-.86,3.37-1.85,1.07-4.18l-.91,4.33c-5.22.85-7.37-5.43-12.29-5.29-3.71-7.16-4.55-14.35-.13-21.56.37,5.29-.58,10.7,1.7,17,9.85-11.62,23.25-20.15,20.37-37.46,3.69-1.66,4.88,5.69,8.56,1.41l8.82,6.67-.06-.14c.25,1.84,1.08,3.1,3.12,3.19l-.14-.19c10.26,14.36-5.3,22.11-8.78,32.87-1.24,3.83-5.89,6.56-9,9.8l-9.21-.34,0,0c-.4-1.62-1.18-2.8-3.06-2.77Z"/><path class="cls-2" d="M1304.52,1111.36c-5.49-1.72.92-7.16-2.93-9.39.29-2.62.71-5.3-3-5.91l.14.16c.53-8.53-4.75-14.82-8.49-21.66-1.27-2.33-3-1.76-4.15.53-7.25-5.81-7.27-14.43-8.8-22.47,0-.16-1-.32-1.38-.18s-.72.64-1.08,1l-3.42.42.11.08c-1-7.18-5.26-11-12.25-12.19l.16.13c.15-2.26-.91-3.3-3.16-3.15l.14.17c0-2.62-1.81-3.07-3.82-3.31-.18-3.64-4.31-9,4-8.91,2.79,3.88,5.37,8.06,12.38,9.42-1.77-3.3-2.65-5-3.54-6.63v.06c8.45-5,12.18,4.36,18.42,6.06l-.09-.1c5.68,5.93-7.2,7.26-3.46,12.89,16-5.54,18.07-4.28,21.78,12.69.17.79,1.2,1.39,1.82,2.08,2.05,3.69,11,6.75,1.08,11.56-3.22-2.85-2.3-8.92-8.76-10.25.54,7,5.61,11.53,7.73,17.24s8.73,10,6.91,17.44l.11-.16c-5.27,1.64-2.26,6.14-3.2,9.27l.14-.14A4.67,4.67,0,0,0,1304.52,1111.36Z"/><path class="cls-5" d="M1148,990c-15.79-7.19-31.64-14.26-47.34-21.64-4.3-2-9.82-3.11-10.54-9.36.35-2.19.69-4.39,1-6.58-3.14,7.56-10.46,6.13-16.36,7.7a9.91,9.91,0,0,1-2.77-.21c-.89-4.75-1.17-10.12-8.48-8.39,3.93-5.36,6.52-11.72,12-15.93a2.82,2.82,0,0,1,2.77,2.75,11.73,11.73,0,0,1-2.94,8.84c-3.93.88-3.52,2.74-.73,4.47,2.36,1.47,5.5,6,7.09-.81-.57-4.26,2.06-6.44,5.35-8.19,3.67-.66,6.2,1.07,8.13,4,9.64-13.62,9.64-13.62.81-22.62,10.35.29,15.63,8,21.64,14.7-3.16.63-7.5-1.39-8.8,3.49-.93,3.47,1.37,5.19,4,7.07,1.87,1.31,6.75.78,4.74,5.89-4.2,4.21-9-4.42-13.56.25l19.56,11c-1.35,1.23-2.7,2.47-4.92,4.52l16.94,7.21c3.27,3.56,8.39,3.45,12.13,6.07l3.38.69a2.18,2.18,0,0,0,0,1.82Z"/><path class="cls-3" d="M1305,1074.7c9.92-4.81,1-7.87-1.08-11.56a1.66,1.66,0,0,0,1.3-1.23c1.83,1,2.24-.24,2.63-1.58,18.78,13.87,26.21,34.13,29.21,55.85,1.38,10,5.33,19.7,4,30.17-.93,7.14.29,15.29-11.14,8.14-2.58-1.61-6.16,2.88-9.81,1.65l-.22-8.73c1.28-10.75,0-21.4-2.24-32.19,5.7-.76,11-.27,14-6.48l-3.91-12.41-10.89-3.24,0,0c2.62-8.58-1.29-14.82-9.44-15.06A3.56,3.56,0,0,1,1305,1074.7Z"/><path class="cls-3" d="M1327.14,1137.26l3.52-.55c-.84-5.92-1.68-11.84-2.86-20.09C1320.74,1125.62,1327.92,1131.15,1327.14,1137.26Z"/><polygon class="cls-2" points="1146.77 1303.05 1145.98 1302.57 1145.88 1303.32 1146.77 1303.05"/><path class="cls-5" d="M1154.5,1206.73l18.26,11.4c3.65-15.26,1-29.56,2.11-43.54,2.38.11,5-.33,6.22,2.56.39,11.26-4.55,22.07-2.77,33.45.72,5.7-2.46,11.77,1.33,17.14,4,1.26,6.78-2.22,10.3-1.83,6,5.55,12.17-2.78,18.23.11l3,2.13c-12.27,1.71-2.25,8.53-3,12.89l-.15,5.76c-3.34.35-5.17,4.62-9.08,3.47,1.28-4,7.6-5.55,4.14-12.1s-8.41-5.14-13.45-5.5c-9.34-2.18-17.51,1.09-25.09,5.94-2.93,1.87-1.09,4.09,1.16,5.6.74,7.46,7.44,13.18,6.23,21.22-8.59-6-8.56-16.86-14.37-25l-18.55,1-7,0h-21.58c-8.1,1.63-6,8.36-11.28,8.79-1-4.19,2-10.29-5.44-11.44-.29-2.78-.43-5.5,3-6.59,1.07,4.56,4.14,5.74,8.37,4.94l3.56.48c11,1.65,21.88.41,32.82-.22,10.57-2.68,22.41-2.21,30.84-11.47-5-8.39-14.46-10.44-19.52-17.36A6.63,6.63,0,0,0,1154.5,1206.73Z"/><path class="cls-2" d="M1253.08,1247.43q10.68,12,21.38,23.9c-14,4.14-23.5,15.41-36.85,22.1,5.46,4.3,7.58,8.34,4.34,13.61-3.93,2.19-8,4-12.65,3.55-12.87-9.64,2.09-13.51,4.72-19.75l-10.57-6.22c5.71-2.21,10.44-5.82,14.84-9.08-.87-4.47-3.72-3.58-5.83-4.1q-1.71-4.12-3.44-8.25l8.68,4.28c3.23,1,6.17,6.17,9.85.69C1256.94,1263.26,1252,1254.54,1253.08,1247.43Z"/><path class="cls-3" d="M1237.7,1267.47l-8.68-4.28c-11.62-9.39-7.46-24.77-13.65-36.26-.4-.75,1.14-2.54,1.77-3.85l-.26.06c6.93-1.88,12.11.25,17.35,5.36,6.39,6.22,10.34,14.88,18.85,18.93-1.1,7.11,3.86,15.83-5.53,20.73-.16-5.73-5.56-7.7-7.53-13.29C1237,1261.53,1236.86,1262.58,1237.7,1267.47Z"/><path class="cls-3" d="M1216.11,1163.16c1.68,5.18,3,10.54,7.09,14.54l.09,5.48c.06,3.88-1.25,8.07,1.16,11.52,4.51,6.46-.67,9.43-4.24,13.07-12.52-10.25-22.21-23.22-33.29-34.84-1.74-1.82-3.37-3.5-5.7-4.44,1.56-3.32,4.8-3.22,7.54-3.11C1198,1165.73,1207,1164.51,1216.11,1163.16Z"/><path class="cls-2" d="M1038.51,1162.61l-1.23,0-1.23,0-.81-25q.54-7.63,1.09-15.28c3.34,7.73-.53,16.63,5.19,26.76.93-14,1.69-25.64,2.45-37.23l1.32-6.83c2.27-.21,4.65-.12,6.16-2.34l5.28-.17,0,0c1.25,2.25,2.44,1.71,3.61-.07a4.71,4.71,0,0,0,3-3.6l1.17.17,1.15-.24,3.54.28-.15-.12-1.57,3-1.15.3-.3,1.15c-3.49,3.21-5.43,7.38-7.17,11.66-2.31,1.17-2.71,2.53-.41,4.14,4.14,9.94-2.42,21.58,5,31-3.32,1-3.11,5.07-5.87,6.52-1.15-3.89,1.47-9.19-3.81-11.5-5.38,1.46-6.87,5.74-5.73,9.47,3.06,10-1.19,19.51-.72,29.26-7.81-2.87-7.09-9.94-8-16.21,5.14-5.12,2.17-10.88,2-17.75C1037.67,1154.64,1039.32,1158.86,1038.51,1162.61Z"/><path class="cls-2" d="M1050.87,1112.58c-3.7,9.08-4.91,18,1.5,27.27C1060,1129.61,1055,1121.13,1050.87,1112.58Z"/><path class="cls-5" d="M1226.17,1023.7l-8.82-6.67-6.24-5.6c-.35-1.79-1.28-2.8-3.24-2.46l-.28-.14c-.76-2.52-2.59-3.45-5.07-3.41l-6.28-3.21c-4-8.56,2.11-18.38-3.34-26.76l3.58-3.56c4-.44,7.86,2.45,11.87.27,4.18.08,9.37-4.4,12,2.68-1.38,1.13-5.64-.56-4.06,3.24s4.68,1,7.16.59l-.43,6-16.17-2.54c.11,4.36,5.36,4.08,6,7.07-1.23,4.18-2.35,8-3.77,12.77,10.71,3.15,15.69,18.31,30.82,14.07l-4-7c.35-4,5.67-3,5.72-6.73,9.86,8.36,2.71,14.66-2.56,21.2C1234.8,1025.27,1230.39,1017.11,1226.17,1023.7Z"/><path class="cls-4" d="M1178.32,1210.6c-1.78-11.38,3.16-22.19,2.77-33.45,4.17,4.07,9.05,7.44,12.18,12.51,4.09,9,6.68,18.49,6.68,28.09,9.34,1.17,6.59-8,11.08-10.49,3.29,4.8,12.8,7.31,5.85,15.88l.26-.06c-3.34-.1-6.85-.71-9,2.94-6.06-2.89-12.19,5.44-18.23-.11C1187.73,1219.54,1189.65,1210,1178.32,1210.6Z"/><path class="cls-3" d="M1123.61,966.49l-19.56-11c4.6-4.67,9.36,4,13.56-.25,2-5.11-2.87-4.58-4.74-5.89-2.68-1.88-5-3.6-4-7.07,1.3-4.88,5.64-2.86,8.8-3.49l.05.06c1.88,3.83,5.27,5.61,9,7.24,12.28,5.32,24.44,10.91,36.65,16.39a6.67,6.67,0,0,0,2.37.81c.26,3.87-1.53,9.26,5.83,7.88,0,1.6,0,3.2,0,4.79-2.78-.4-5.28.09-7.22,2.32h-1c.54-8-3.86-12.5-10.62-15.94-4.11-2.09-6.72.15-9.18,2-3.36,2.56-.14,5.2,1,7.71h0l-6.41.88C1133.45,970.37,1129,967.42,1123.61,966.49Z"/><path class="cls-6" d="M1223.45,1284.62l10.57,6.22c-2.63,6.24-17.59,10.11-4.72,19.75-6.36,12.53-13.81,2.31-20.84,1-3.45,9.51-13.33,13.8-22.78,9.85-.13-.06,0-.88.12-1.26a6.13,6.13,0,0,1,.94-1.13c3-.15,6.79,2.12,8.43-2.68-2.89-2.33-5.42,1.18-8.12.3l-.1-.11c-.19-1.85-1.53-2.31-3.07-2.52l-.39-.31c2.75-7.44,9.52-5.53,15.1-6.71,6.71-1.43,14.93-.89,17.3-10.23-6.54-3.53-11.63,4.46-17.8.92.6-4,6.29-1.59,7-5.33.57-3.41,4.87-2.72,6-5.48Z"/><path class="cls-2" d="M1293.31,1216.53c2.73-6.23,6.07-12.27,8-18.73,1.58-5.25,5.22-5.07,9.07-5.51l.64,3c-4.83,3.88.65,4.19,2,5.91.84,3.69-4.69,7-.37,11.21,7-5.66,3.7-16.83,13.37-24.19,0,14.3-8.52,25.71-3.26,37.73l-14.38,0c-5.25-1.52-6.29,3.83-9.42,5.79C1296.17,1227.06,1291.32,1223.07,1293.31,1216.53Z"/><path class="cls-3" d="M1322.81,1226c-5.26-12,3.25-23.43,3.26-37.73-9.67,7.36-6.41,18.53-13.37,24.19-4.32-4.16,1.21-7.52.37-11.21q.48-2.73,1-5.45c4.7-4.29,2.21-10,2.94-15,3.51-2.22,2.16-6,2.87-9.07,9.19,3.69,15.45.79,18.25-12.27,4.13,10.57-1.19,16.75-.59,23.38.69,7.48-5.58,13.06-5.25,21.32C1332.54,1211.54,1330.26,1220.57,1322.81,1226Z"/><path class="cls-6" d="M1299,1231.8c3.13-2,4.17-7.31,9.42-5.79a5.12,5.12,0,0,0,.31,2.39c3.41,5.16,7.12,4.49,11,.58,5.3,7.36.17,13.62-3.17,19-5.89,9.58-13.61,17.92-21.82,26-3.2-4.43-4.5-9.3-8.42-12.38,1-4.58,9.16-5.63,6.05-12.24a13,13,0,0,0,.28-2c1.25-.6,2.95-.78,2.57-2.84C1306.11,1243.11,1300.42,1236.82,1299,1231.8Z"/><path class="cls-6" d="M1132.07,1241.48l7,0q-1.85,19.38-3.68,38.76c-2.74,1.42-2.89,4.22-3.57,6.74a10.47,10.47,0,0,0-1.57-.25c-2.73-8,6.53-16,0-24.41-11.81,0-23.14,1.17-30.84,12.06l-1.85,11.35c-4.38.4-10.61-5.31-13,3.26-5.31-4.16-6.39,1.33-8.77,3.85l-.75-9.45c6.22-1.69,9.09-5,5.5-11.41,5.35-.09,5.13-3.71,4.15-7.18s-1.49-6.43,1.73-8.89c5.72,5.35-.1,16.2,10.45,21.41-2.05-8.28-7-14.94-.94-21.53l2.73,3.23c.1,1.82.21,3.64.37,6.55,10.75-5.09,22-5.92,32.79-8.69C1132.27,1251.24,1133.32,1246.39,1132.07,1241.48Z"/><path class="cls-5" d="M1053.86,1244.16c.26.88.52,1.76.8,2.63a2.8,2.8,0,0,0,2.56,3l.22,0c-2,3.6-2.12,6.61,1,10.07,2.68,2.93.6,5.06-3,5.61l-15.41-14.4c6.41,10.91,12.35,22.22,25.61,25.94,1.3,3.3,4.25,3.34,7.1,3.56-5.11,2.19-8,10.56-15.67,5.63-5.66-11.93-16.23-19.77-24.53-29.49-2.12-.65-2.42.82-2.7,2.31-3.22-1.41-3.26-4.71-4.64-7.86,6.32-3.82,12.76-7.52,19-11.54,2.9-1.87,4.53.62,6.72,1.24C1052,1242,1052.9,1243.07,1053.86,1244.16Z"/><path class="cls-1" d="M1078.23,1154.5c5-1.25,10.42,3.69,15.15-1.1a15.63,15.63,0,0,0,6,9c1.68,3.53,4,6.87,3.31,11.12-.2,3.82,3.73,5.58,5,11.13-2.17,1.67-5.17,4.21-8.4,6.4s-6.61,4-10.28,6.15c-5.26-5.74,2.17-14.93-5.49-19.62-3-2.81-2.34-6-.74-9.11,3-5.7-1.54-8.34-4.51-11.65A7.34,7.34,0,0,1,1078.23,1154.5Z"/><path class="cls-6" d="M1242,1307c3.24-5.27,1.12-9.31-4.34-13.61,13.35-6.69,22.81-18,36.85-22.1-.57,4.81,7,6.33,2.82,14.6-3.44,6.75-7.24,6.66-11.76,9.09C1257.75,1299.21,1251,1305.3,1242,1307Z"/><path class="cls-7" d="M1277.44,1180.52a90.73,90.73,0,0,0-7-36.07l-4.5-12c2.57-5,6,1.29,8.81-.68,1.65,1.09,4.29,1.83,4.82,3.33,5.94,16.7,12.61,33.38,7.17,51.69C1280.56,1189.24,1279.59,1184,1277.44,1180.52Z"/><path class="cls-8" d="M1047.35,1184c-.47-9.75,3.78-19.28.72-29.26-1.14-3.73.35-8,5.73-9.47,5.28,2.31,2.66,7.61,3.81,11.5-2,7.64-3.78,14.82-1.14,23.2,3,9.69-.23,20.49,5.36,30.48,2.41,4.32-.46,11.45-8.81,6.53Z"/><path class="cls-6" d="M1241.64,1002.32c-.05,3.75-5.37,2.71-5.72,6.73l4,7c-15.13,4.24-20.11-10.92-30.82-14.07,1.42-4.81,2.54-8.59,3.77-12.77-.67-3-5.92-2.71-6-7.07l16.17,2.54C1225.8,994.13,1232.32,999.7,1241.64,1002.32Z"/><path class="cls-9" d="M1011.82,1038.45c2.67,5.65,1.24,10-3.75,13.76-5.86,4.37-11.44,9.11-17.13,13.69l-12.38,6-.53-.88c-1.26-2.66,2.59-7-2.68-8.34l.29.18c-4-8.25-3.5-14.92,7.2-18.33,4.31.17,5.54,7.91,11.5,6.23,8.58.13,9-9.28,14.69-12.55a24.5,24.5,0,0,0,2.93.48Z"/><path class="cls-7" d="M1299,1231.8c1.41,5,7.1,11.31-3.78,12.67-10.83-13.54-13.77-29.91-16.4-46.32-.93-5.84,4.32-8.3,7.79-11.6,6.49,9,3.42,20.22,6.69,30C1291.32,1223.07,1296.17,1227.06,1299,1231.8Z"/><path class="cls-6" d="M1075.8,1292.79c2.38-2.52,3.46-8,8.77-3.85,5.06,2.78,10.27,5.33,15.14,8.41s12.65,2.64,14.66,10.14c-7.19.13-.34,8.64-5.84,9.78-13-5.78-27-9.87-37.7-20.51Z"/><path class="cls-6" d="M1083.33,1300.5c.86-1,2.46-2,2.6-3.1a3.22,3.22,0,0,0-3.5-3.66,4.21,4.21,0,0,0-3,2.73C1079.18,1298.58,1081.12,1299.63,1083.33,1300.5Z"/><path class="cls-6" d="M993.67,1213.84c.12-2.42-.25-5.64,3.29-5.39,4.74.34,8.6-1.76,13-3.66,5.69,11.75,17.65,19.52,19.89,33.25-9.4,3.39-14.45-2.68-19.48-8.89C1005.55,1223.23,1003.86,1213.91,993.67,1213.84Z"/><path class="cls-6" d="M1135.54,1309.65c7.73,1.24,15.56,2.09,23.18,3.82,5.86,1.33,11.57,3.71,9.75,11.81-14.19,1.92-28.27,2.1-42-2.63,4.87-4.26,4.12-9.64,3-15.09h3.15l0,0A2.54,2.54,0,0,0,1135.54,1309.65Z"/><path class="cls-5" d="M1163.36,962.45c-12.21-5.48-24.37-11.07-36.65-16.39-3.77-1.63-7.16-3.41-9-7.24,7.87-1.57,16.39-7.52,22,4.17,1.38,2.86,5.45,1.88,8.35,2,8.85.48,15.93,4.63,22.37,9.52C1170.13,959.77,1164.71,959.1,1163.36,962.45Z"/><path class="cls-1" d="M946.62,1117.21c-9.87,1.1-7.2-8.18-10.42-12.59l-.3-3.33c1.19-4.38-3.68-8.29-1-12.82l7.29,1.55c2.42,0,4.79-.21,6.11-2.73.31-2.1.62-4.21.94-6.31l1.22.12c6.64,1.4-1.78,7.29,2.73,9.31a4.3,4.3,0,0,0,1.48-.13c3.93-2,7.83-4.06,11.74-6.11.18,5.72-9.67,6.93-6.32,14.07l-2.57,3.49c-1.62.6-3,1.42-3.47,3.27-4.14.3-8.23.47-12.06-3.06Z"/><path class="cls-10" d="M1056.34,1023.3c3.56-3.45,6.9-7.25,12.34-8.24,8.75,8,6.92,16.78,2.33,26-4,.75-10-3.42-11.8,4.69-.38,1.78-3-1.29-4.84-1.16q-2.92-4.17-5.84-8.33C1052.24,1032.6,1053.84,1027.68,1056.34,1023.3Z"/><path class="cls-6" d="M1274.78,1114.39c-10.56-10.46-13.77-25.88-24.46-36.26-2.08-7-6.19-12.88-10.65-18.54.92-5.06,3.42-7.58,8.8-5.49-.21,1.65.82,2.41,2.13,3a4.75,4.75,0,0,0,2.67,4.12c3.51,11.46,10.31,21.36,15.15,32.18C1271.39,1100,1275.82,1106.44,1274.78,1114.39Z"/><path class="cls-3" d="M1230.87,1208.27c10.16,2,17.93,3.21,25.49,7.84v23.23C1247,1230.31,1233.16,1224.9,1230.87,1208.27Z"/><path class="cls-5" d="M1317,1180.75c-.73,5.06,1.76,10.75-2.94,15l-3-.46-.64-3c-3.13-3-7.29-5.43-5.23-10.85,3.81-10.06,2.1-20.64,3-31,3.53-2.39,7.32-3.76,11.65-3l.22,8.73c1.82,6.89-2.09,11.69-6,16.49.82,2.79-2,6.9,3,8.17Z"/><path class="cls-11" d="M1056.34,1023.3c-2.5,4.38-4.1,9.3-7.81,12.94-4-8.39-13.15-11.34-18.82-18,2.19-.5,4-1.53,1.88-3.78-3.32-3.57-5.57-8.42-10.93-9.71a4.58,4.58,0,0,1,5-2.5c5.23,5.18,11.74,9.43,11.34,17.75,7.87-2.17,2.78-5.79,2.65-8.73l2.84-3.43c5.17,6.53,7.93-.79,11.74-2,.71,2.62,4.23,5.23,1,7.92C1050.44,1017.81,1054.12,1020.35,1056.34,1023.3Z"/><path class="cls-3" d="M1268.42,1252.62c-4.12-1-6.49-4.3-9.91-7.62,2.36-6.69,0-14.17,2.1-22.65,8.1,4.85,17.86,5.79,21,16.06C1275.57,1241.62,1272.56,1247.64,1268.42,1252.62Z"/><path class="cls-12" d="M1239.67,1059.59c4.46,5.66,8.57,11.51,10.65,18.54V1078c-12.26-4.91-27.55,2.6-30.86,15.16l-5.59-3.25c.07-1,.15-1.93.26-2.9a4.07,4.07,0,0,0,2.9-3.16c2.69-3.32,5.82-5.7,6.89-10.83C1225.47,1065.55,1230.77,1059.78,1239.67,1059.59Z"/><path class="cls-9" d="M1038.91,990.4a6.08,6.08,0,0,1-2.61-.73,2.79,2.79,0,0,0-.51-2.77l12.09-14.84c7.19-.26,10.18,6.06,15,9.55A31.5,31.5,0,0,1,1050.64,998C1044.73,998.34,1043.29,992.13,1038.91,990.4Z"/><path class="cls-2" d="M1072.82,1280.61c-2.85-.22-5.8-.26-7.1-3.56l-10.2-11.54c3.56-.55,5.64-2.68,3-5.61-3.16-3.46-3-6.47-1-10.07,4.6-3.11,1.3-8,2.73-11.87,3,7.63,6.7,15.12,6.66,23.58,0,6,3.05,7.81,8.47,7,.67,2.81,3.76,1.85,5.25,3.37,3.59,6.42.72,9.72-5.5,11.41Z"/><path class="cls-9" d="M1144.3,1150.59a3.09,3.09,0,0,1-.38,2.39l-26,.07q-.15-7.23-.28-14.44l-.09-.36,3-.35c.75-.28,2.1-.46,2.16-.84.28-1.79-1.08-1.73-2.34-1.62a2.42,2.42,0,0,0-2-.74c0-1.59-.09-3.19-.13-4.79a5.06,5.06,0,0,0,2-.3l.13.12c1,3,3.35,3.13,5.91,2.89l.14.08Z"/><path class="cls-4" d="M1102.73,1173.49c.71-4.25-1.63-7.59-3.31-11.12,10.51-3.44,21-6.29,30.28,2.9C1122.82,1174.93,1113.66,1177.1,1102.73,1173.49Z"/><path class="cls-3" d="M1096,924.06c8.83,9,8.83,9-.81,22.62-1.93-2.93-4.46-4.66-8.13-4l-8.77-4.31a2.82,2.82,0,0,0-2.77-2.75c6.82-8.54,10.63,2.63,16.48,1.77.74-9-8.48-6.23-13.26-9.35.12-6.29,2.32-9.52,9-7.31C1090.52,921.67,1093.23,922.94,1096,924.06Z"/><path class="cls-3" d="M1038.91,990.4c4.38,1.73,5.82,7.94,11.73,7.6a31.5,31.5,0,0,0,12.22-16.39l6.22,2.66c-1.59,9.51-10.52,14-14.87,21.57-3.81,1.26-6.57,8.58-11.74,2-4.09-4.25-9.61-7.21-11.85-12.67C1030.23,987.42,1040.18,999.58,1038.91,990.4Z"/><path class="cls-6" d="M1066.1,1103.44c-1.75,14.1,1,27.82,3.89,41.45.87,4.16-.3,5.48-3.89,6a8.76,8.76,0,0,0-2.62-.65c-7.38-9.42-.82-21.06-5-31,.14-1.38.27-2.76.41-4.14C1060.67,1110.82,1062.61,1106.65,1066.1,1103.44Z"/><path class="cls-7" d="M1075.3,1268.56c-5.42.79-8.5-1-8.47-7,0-8.46-3.61-16-6.66-23.58a7.8,7.8,0,0,0-.29-2.84c0-2,.09-4.07.13-6.1l.06-.09c3.56-.58,6.14,1.82,9.12,3l.06.11c-2.75,4.16-2.11,7.38,2.61,9.48C1069.84,1250.94,1078.53,1259,1075.3,1268.56Z"/><path class="cls-8" d="M1268.42,1252.62c4.14-5,7.15-11,13.19-14.21,5.88.24,6.57,6.92,11.05,8.9a13,13,0,0,1-.28,2c-3.68,1.78-4.87,6.62-9.27,7.52L1277,1262Z"/><path class="cls-3" d="M966.42,1084.17c-3.91,2-7.81,4.1-11.74,6.11a4.3,4.3,0,0,1-1.48.13c-4.51-2,3.91-7.91-2.73-9.31,2.25-5.5-5.51-8.69-3.27-14.19,4.89-2.08,3.82,4.75,7.26,4.85.93,4.19,2.06,8.22,7.16,9.13-1.43-3.81-3.63-7-7.4-8.9,3.63-3.24.29-7.32,1.26-11.52l5.5,2.25c.15,7.23,7.78,11.09,8.2,18.2A4,4,0,0,0,966.42,1084.17Z"/><path class="cls-4" d="M1078.33,1156.79c3,3.31,7.47,6,4.51,11.65-1.6,3.08-2.29,6.3.74,9.11v18.35C1073.58,1178.09,1072.37,1168.8,1078.33,1156.79Z"/><path class="cls-6" d="M990.74,1195.31c-.12,2.75.67,5.94-3.29,6.86-4.68-8.41-6.93-18.32-15.07-24.61l.18.17c-.71-3.33-1.28-6.7-2.16-10-1.06-3.92.79-5.37,4.32-5.68l12.17,22.14Q988.81,1189.75,990.74,1195.31Z"/><path class="cls-5" d="M1171.56,971.14c-7.36,1.38-5.57-4-5.83-7.88,3.83,1.83,7.22,1.69,9.77-2.17s5.63-2.13,8.66-.75c1.54,6.58,9.64,6.17,12.32,11.55l-3.58,3.56C1186.15,972.21,1179.66,967.67,1171.56,971.14Z"/><path class="cls-6" d="M1283.82,1035.58c-6.24-1.7-10-11.07-18.42-6.06,5-6.95-2.74-11.91-2.81-18.07l-.18.16c8.7.75,13.61,7.68,20.09,12.11C1287.9,1027.42,1283.31,1031.66,1283.82,1035.58Z"/><path class="cls-6" d="M1303.87,1063.14c-.62-.69-1.65-1.29-1.82-2.08-3.71-17-5.79-18.23-21.78-12.69-3.74-5.63,9.14-7,3.46-12.89,3.81-2.42,7.08-3,10.25,1.4,3.49,4.85,7.62,9.24,11.47,13.83a2.89,2.89,0,0,0,2.28,2.94l0,3.29c-2.59.76-2.49,2.91-2.58,5A1.66,1.66,0,0,1,1303.87,1063.14Z"/><path class="cls-9" d="M942.2,1090l-7.29-1.55c-2.69,4.53,2.18,8.44,1,12.82a3.37,3.37,0,0,0-2.13.57l-3.34-2.61L923.92,1082c1.15-5.31,5.21-5.84,7.82-7.37,5.39,1.85,5.58,6.53,8.07,9.4a2.77,2.77,0,0,0,2,3.66A2.23,2.23,0,0,0,942.2,1090Z"/><path class="cls-3" d="M986.89,1184.2l-12.17-22.14c-1.68-3.76-5.61-1.67-8.17-3.15-2.1-4.89-4.17-9.79-6.32-14.65-1.53-3.46-.73-5.53,3.26-5.89.36,2.27.33,4.69,2.52,6.22,1.81,6.29,4.45,11.74,12.18,12,1.12,4.54,1.38,9.54,6.4,12h0c-.58,4.65,1.54,7.52,5.9,8.91l.15.27-2.37,5.35A12.74,12.74,0,0,1,986.89,1184.2Z"/><path class="cls-9" d="M1009,1038.24c-5.67,3.27-6.11,12.68-14.69,12.55l-1.05-2.86c-.09-1.83-1.26-2.61-2.89-2.93l-.1-.1c-.08-2.33-.16-4.67-.25-7l5.54-8.47,13.27,6.34-.38-.23A20.84,20.84,0,0,0,1009,1038.24Z"/><path class="cls-3" d="M1095.94,1255.74c-6,6.59-1.11,13.25.94,21.53-10.55-5.21-4.73-16.06-10.45-21.41,1.91-5.91,3.84-11.8,7.34-17,7.41,1.15,4.42,7.25,5.44,11.44l.35-.22C1095.81,1250.33,1096.41,1253.37,1095.94,1255.74Z"/><path class="cls-1" d="M1111.65,1205.17c-2.69,3.45-2.74,8.38-6.31,11.36-.45-7.47-10.9-.2-11.19-10.2,1.12-6.49,10.45-6.94,14.88-12.53C1114,1197.11,1104.8,1202.74,1111.65,1205.17Z"/><path class="cls-3" d="M1211,1207.26c-4.49,2.48-1.74,11.66-11.08,10.49,0-9.6-2.59-19-6.68-28.09A112,112,0,0,1,1211,1207.26Z"/><path class="cls-6" d="M1026.57,1035.65l-3.39-.18c-4.51-2.94-9.23-5.34-14.75-5.65l.13.09c1.16-4.89-1.57-7.31-5.63-8.89,1.75-4.79,5.7-3.31,9.17-3.21-1.19,5.86,3.63,8.1,7,11,.74.65,2.15-1.07,2.31-2.55,2.57-1.89.54-2.17-.92-2.65l.14.44c1.4-2.32,3.06-4.31,5.68-1.55C1030.29,1026.72,1030.6,1031.19,1026.57,1035.65Z"/><path class="cls-3" d="M1144.3,1150.59l-18-17.89,5.26-5,7.23,4.37C1144.2,1137.22,1146.44,1143.25,1144.3,1150.59Z"/><path class="cls-10" d="M1032.62,1256.75c8.3,9.72,18.87,17.56,24.53,29.49-10.17-6.43-18.55-14.57-24.33-25.22C1032.75,1259.59,1032.69,1258.17,1032.62,1256.75Z"/><path class="cls-9" d="M1063.51,951.55c7.31-1.73,7.59,3.64,8.48,8.39-3.19,5.39,2.24,2.18,3.31,3.32l-.2-.22v6.24l.13-.16c-5.43,1.66-9.25-1.16-13-4.49s-.16-4.91,1.24-7.09C1068,955.59,1063.28,953.55,1063.51,951.55Z"/><path class="cls-3" d="M978.56,1071.93a7.94,7.94,0,0,1-4.56,5.36c-4.53-4.12-3.38-12.38-10.61-14.43-.24-5.54,2.2-6.72,6.76-4a66.74,66.74,0,0,1,5.49,4l-.29-.18c1.1,2.72.27,6,2.68,8.34Z"/><path class="cls-6" d="M1063.45,957.54c-1.4,2.18-4.91,3.86-1.24,7.09s7.59,6.15,13,4.49l.1,3c-5.14,5.56-10.24.29-15.36,0l.24.23c-.6-3.84-1.63-7.38-5.93-8.69C1054.9,957.94,1058.64,956.93,1063.45,957.54Z"/><path class="cls-9" d="M1220.21,1207.77c3.57-3.64,8.75-6.61,4.24-13.07-2.41-3.45-1.1-7.64-1.16-11.52,6.81,5.19,6.38,12.93,6.45,20.14,0,3.64-1,8.19-6.72,7.54-.43-1.42-1.11-2.61-2.71-2.94Z"/><path class="cls-6" d="M1196.48,971.89c-2.68-5.38-10.78-5-12.32-11.55,8.73,2.58,17.57,4.93,24.19,11.82C1204.34,974.34,1200.45,971.45,1196.48,971.89Z"/><path class="cls-6" d="M1069.08,984.27l-6.22-2.66c-4.8-3.49-7.79-9.81-15-9.55.26-3.56,3.65-4.28,5.67-6.26.72,3.71,2.72,6.11,6.66,6.53l-.24-.23c2.1,5.87,8,7,12.43,9.94A3.16,3.16,0,0,1,1069.08,984.27Z"/><path class="cls-6" d="M1138.83,1132.11l-7.23-4.37-5.26,5-.14-.08c-.57-4,2.07-8.57-2.26-11.83l-.74-.91a5.71,5.71,0,0,1,5.07-2.88c4,3.16,7.91,6.49,10.49,11C1138.78,1129.4,1138.81,1130.75,1138.83,1132.11Z"/><path class="cls-3" d="M1039.63,1011.32c.13,2.94,5.22,6.56-2.65,8.73.4-8.32-6.11-12.57-11.34-17.75.25-4.37,2.55-2.81,4.21-1.21C1033.25,1004.35,1036.38,1007.89,1039.63,1011.32Z"/><path class="cls-3" d="M1008.43,1029.82c5.52.31,10.24,2.71,14.75,5.65-3.28,2.93-7,4.31-11.36,3l.14.27c-.09-2.23-1.14-3.41-3.48-3.18l.38.23Q1008.65,1032.8,1008.43,1029.82Z"/><path class="cls-9" d="M949.25,1081c-.32,2.1-.63,4.21-.94,6.31l-5.78-3.7.09,0c0-3.93-4-6.79-2.86-11.24C946.71,1071.12,945.78,1078.53,949.25,1081Z"/><path class="cls-9" d="M1020.66,1004.8c5.36,1.29,7.61,6.14,10.93,9.71,2.1,2.25.31,3.28-1.88,3.78C1027.12,1013.5,1018.56,1012.73,1020.66,1004.8Z"/><path class="cls-6" d="M972.38,1177.56c-.75,3.65,1.25,7.55-1,11.17-6.19.59-4.63-4.37-5.47-7.59l1.07-1,5.59-2.46Z"/><path class="cls-6" d="M1226.17,1023.7c4.22-6.59,8.63,1.57,12.91-.18l1.36,5.41c-4.25.69-7.27-3.45-11.35-2.37l.14.19c.07-2.15-1-3.2-3.12-3.19Z"/><path class="cls-6" d="M1265.41,1029.46c.89,1.66,1.77,3.33,3.54,6.63-7-1.36-9.59-5.54-12.38-9.42C1261.11,1022.54,1262.48,1028.46,1265.41,1029.46Z"/><path class="cls-13" d="M1283.11,1256.88c4.4-.9,5.59-5.74,9.27-7.52,3.11,6.61-5,7.66-6.05,12.24C1283.12,1261.49,1283.55,1258.89,1283.11,1256.88Z"/><path class="cls-6" d="M1151.47,1158.48c3.75-7.72,7-6.64,11.15-2.37C1159.06,1161.38,1155.71,1158.44,1151.47,1158.48Z"/><path class="cls-9" d="M1021.4,1026.27c-.16,1.48-1.57,3.2-2.31,2.55-3.36-2.91-8.18-5.15-7-11l8.52,6.25-.14-.44A3.33,3.33,0,0,0,1021.4,1026.27Z"/><path class="cls-10" d="M1048.17,1047.64c-1,3.87-.9,8.51-6.3,9.47l-.24-.15-.48-3.61C1042.75,1050.55,1041.48,1044.2,1048.17,1047.64Z"/><path class="cls-2" d="M1069.19,1231.93c-3-1.18-5.56-3.58-9.12-3,.78-3.11,3-4.54,5.67-5.4C1070.48,1225.13,1069.08,1228.82,1069.19,1231.93Z"/><path class="cls-9" d="M1002.93,1021c4.06,1.58,6.79,4,5.63,8.89C1001.27,1030.37,1001.73,1025.93,1002.93,1021Z"/><path class="cls-2" d="M1202.11,1068.89l9.21.34c-.32,2.27,0,5.26-3.41,5.14S1203.14,1071.68,1202.11,1068.89Z"/><path class="cls-2" d="M1319.74,1229c-3.88,3.91-7.59,4.58-11-.58Z"/><path class="cls-2" d="M1071.86,1241.52c-4.72-2.1-5.36-5.32-2.61-9.48C1073.48,1234.28,1072,1238.09,1071.86,1241.52Z"/><path class="cls-2" d="M1053.86,1244.16c-1-1.09-1.91-2.18-2.87-3.26,1.18-1.88,2.91-3.17,4.63-1.22S1055.86,1243.2,1053.86,1244.16Z"/><path class="cls-9" d="M1060.21,972.33c-3.94-.42-5.94-2.82-6.66-6.53a5,5,0,0,0,.73-2.16C1058.58,965,1059.61,968.49,1060.21,972.33Z"/><path class="cls-2" d="M1187.05,1316.66c2.7.88,5.23-2.63,8.12-.3-1.64,4.8-5.43,2.53-8.43,2.68A14.77,14.77,0,0,1,1187.05,1316.66Z"/><path class="cls-6" d="M1223.44,978.67c-2.48.44-5.62,3.11-7.16-.59s2.68-2.11,4.06-3.24C1222.15,975.49,1223.66,976.38,1223.44,978.67Z"/><path class="cls-5" d="M1319.83,1171.68c-.71,3.1.64,6.85-2.87,9.07l0,0c-.23-2.81-.45-5.63-.68-8.45Z"/><path class="cls-7" d="M1316.31,1172.35c.23,2.82.45,5.64.68,8.45-5-1.27-2.16-5.38-3-8.17A2.4,2.4,0,0,1,1316.31,1172.35Z"/><path class="cls-9" d="M990.05,1037.9c.09,2.33.17,4.67.25,7C985.62,1042.73,986.23,1040.37,990.05,1037.9Z"/><path class="cls-6" d="M965.9,1181.14c-2.39-1.33-3.42-3-1.37-5.44,2.08.88,2.24,2.7,2.44,4.49Z"/><path class="cls-2" d="M1060,1229c0,2-.08,4.07-.13,6.1C1056.88,1233,1056.36,1231,1060,1229Z"/><path class="cls-2" d="M1305.17,1061.91c.09-2.06,0-4.21,2.58-5,0,1.13,0,2.26,0,3.39C1307.41,1061.67,1307,1063,1305.17,1061.91Z"/><path class="cls-3" d="M1149.39,1144.79c1.77,1.35,1.89,2.79.22,4.28a.85.85,0,0,1-.86,0C1147,1147.37,1147.7,1146,1149.39,1144.79Z"/><path class="cls-2" d="M1199,1066.1c1.88,0,2.66,1.15,3.06,2.77A3.2,3.2,0,0,1,1199,1066.1Z"/><path class="cls-1" d="M941.85,1087.66a2.77,2.77,0,0,1-2-3.66,26.7,26.7,0,0,0,2.81-.38l-.09,0Z"/><path class="cls-2" d="M1217,1083.85a4.07,4.07,0,0,1-2.9,3.16Z"/><path class="cls-1" d="M930.43,1099.25l3.34,2.61A3.19,3.19,0,0,1,930.43,1099.25Z"/><path class="cls-3" d="M1220.31,1207.92c1.6.33,2.28,1.52,2.71,2.94A2.67,2.67,0,0,1,1220.31,1207.92Z"/><path class="cls-2" d="M1057.22,1249.8a2.8,2.8,0,0,1-2.56-3Z"/><path class="cls-6" d="M1032.62,1256.75c.07,1.42.13,2.84.2,4.27l-2.9-2C1030.2,1257.57,1030.5,1256.1,1032.62,1256.75Z"/><path class="cls-3" d="M1035.79,986.9a2.79,2.79,0,0,1,.51,2.77c-1.11.77-2.21.56-2.32-.72C1033.92,988.33,1035.15,987.59,1035.79,986.9Z"/><path class="cls-2" d="M1183.88,1314c1.54.21,2.88.67,3.07,2.52Z"/><path class="cls-6" d="M1262.59,1011.45l-.67-.59.49.75Z"/><path class="cls-6" d="M1252.61,1035.58c2,.24,3.85.69,3.82,3.31a7,7,0,0,1-3-.25l0,0C1253.18,1037.64,1252.89,1036.61,1252.61,1035.58Z"/><path class="cls-9" d="M990.4,1045c1.63.32,2.8,1.1,2.89,2.93A3.19,3.19,0,0,1,990.4,1045Z"/><path class="cls-2" d="M1307.73,1053.65a2.89,2.89,0,0,1-2.28-2.94Z"/><path class="cls-6" d="M1041.15,1053.35l.48,3.61c-1.8-.24-2.39-1.51-2.64-3.08A12.38,12.38,0,0,1,1041.15,1053.35Z"/><polygon class="cls-9" points="1113.66 1031.1 1112.78 1030.51 1112.68 1031.5 1113.66 1031.1"/><path class="cls-4" d="M1117.22,1019a4.15,4.15,0,0,1-6-5.53,36.76,36.76,0,0,1,3.82-5.12c4-3.88,9-7.26,14.9-2.85,5.66,4.21,10.82,4.42,16.18,5.52l6.77,7.62c0,.41.09.82.16,1.23a4.17,4.17,0,0,1-2.69,4.71c-5.6,1.9-15.19,3-15.13-1.94.1-8.53-13-5.4-16.47-4.42a4,4,0,0,0-1.43.73Z"/><path class="cls-14" d="M1135.24,1042.24c.72-1.41,2.4-2.69,3.26-1.46,7.14,10.23,16.93,9.62,27.29,7.17-2,10.63,7.15,9,12.64,11.42a7,7,0,0,0,2.21.5c-5.11,13-20.32,14.91-27.92,25.56-2.8,3.92-9.15,2.23-13.35-1.37-1.76-4.45,4.56-7.49,2.49-12.24a28.09,28.09,0,0,0-15.08,1,7.73,7.73,0,0,1-.23-1.58c.1-6.39-8.31-5.77-9.28-11.28-.33-5.14,2.74-7,8-7.56,6.48,4.45,7.9,16.55,19.25,15.52,7.13-.64,9.19-6.46,12-12-5.72-4.1-13.61,1.1-18.24-5a3.46,3.46,0,0,0-2.24-3.28Z"/><polygon class="cls-14" points="1160.49 1054.93 1161.28 1055.42 1161.39 1054.69 1160.49 1054.93"/><path class="cls-10" d="M1211.11,1011.43l6.24,5.6c-3.68,4.28-4.87-3.07-8.56-1.41,2.88,17.31-10.52,25.84-20.37,37.46-2.28-6.29-1.33-11.7-1.7-17,9.92-11.75,9.92-11.75-.31-22.15-5.58-5.66-4.12-8.2,6.61-11.52l3.22-.21,6.28,3.21c.9,2.31,2.4,3.74,5.07,3.41l.28.14A2.74,2.74,0,0,0,1211.11,1011.43Z"/><path class="cls-4" d="M1087.27,1108.09c-4.33-9.28-13-4.51-19.72-6.1l1.57-3c3.72-1.07,7.63-1.71,11.13-3.28,10.06-4.5,12.37-3.85,19.16,6.52-1.7-.06-3.63-2.63-5,.24-.65,1.37-.37,3.47,1.18,3.79,3.12.65,4.53-1,3.67-4.19,5.33,6.18,15.45,6.63,18.54,15.49l-9.21,2.83-6.13,3-.16-.16c1.41-7.74-8.82-1.56-8.94-7.47l-1.43-3.09-1.72,1.38a20.47,20.47,0,0,1-2.33.25Z"/><path class="cls-9" d="M1196.24,1002.21l-3.22.21c.48-8.76-7.31-7.52-12.06-10-5.28-5-13.39-5.26-18.31-10.88,0-1.05.07-2.1.1-3.14l.58-.2h1c1.83,2.73,4.69,2.83,7.53,3,5.28,3.94,10.65,7.7,17.75,7.28-5.47-3.54-9.42-10.8-17.81-7.2-.08-1.8-.17-3.59-.25-5.39,0-1.59,0-3.19,0-4.79,8.1-3.47,14.59,1.07,21.34,4.31C1198.35,983.83,1192.29,993.65,1196.24,1002.21Z"/><path class="cls-10" d="M1077.86,1066.36l5-5.67c8,7.66,16,15.18,28.15,14.86,3.49-.09,2.85,3.32,3.36,5.56l.19-.34c-4,.75-8.66.65-9.36,6.34l.17-.2c-11.1-4.3-21.43-9.59-27.18-20.87Z"/><path class="cls-14" d="M1162.65,981.58c4.92,5.62,13,5.86,18.31,10.88.82,4.83-5.22,3.66-6.12,7l.1-.11c-10.41,1-17.49-7.66-27-9.31l3.22-3.23c.4-.14,1-.17,1.18-.45.48-.77,0-1.28-1.22-1.37l-3.38-.69c-.53-4.48,1.1-6,5.35-3.88l3.83.68Z"/><path class="cls-6" d="M1108.58,1120.36l9.21-2.83c1.12,2.36,3.06,2.83,5.41,2.35l.74.91c-.51,3.27.75,7.26-3.65,8.94l-.13-.12c0-1.83.53-3.79-1.42-5.07-1.38,1.67-1,3.51-.54,5.37,0,1.6.09,3.2.13,4.79-.26,1.19-.53,2.37-.8,3.55l.09.36-9.31-.19C1104.1,1132.33,1109.8,1126.4,1108.58,1120.36Z"/><path class="cls-3" d="M1114.38,1081.11c5.76-1.17,5.44-9.86,12.17-9.82a7.73,7.73,0,0,0,.23,1.58q1.2,7.45,2.41,14.9c-8.06,2.85-16.11,5.8-23.81-.86l-.17.2c3.75-1.19,8-1.56,9.36-6.34Z"/><path class="cls-9" d="M1129.19,1087.77q-1.21-7.44-2.41-14.9a28.09,28.09,0,0,1,15.08-1c2.07,4.75-4.25,7.79-2.49,12.24-.56,2.45-4,3.19-3.7,6.13C1133.38,1089.72,1130.59,1090.61,1129.19,1087.77Z"/><path class="cls-9" d="M1075.33,972.15l-.1-3-.13.16c4.2-2.08,4.59-4.16,0-6.24l.2.22-.54-3.11c5.9-1.57,13.22-.14,16.36-7.7-.35,2.19-.69,4.39-1,6.58q-5.17,6.81-10.34,13.61Z"/><path class="cls-2" d="M1178.43,1059.37c-5.49-2.39-14.59-.79-12.64-11.42,0-3.7,2.92-6.07,4.1-9.24a4.47,4.47,0,0,1,1.89.08c-1.66,14-1.66,14,8.82,14.59C1179.88,1055.38,1179.15,1057.38,1178.43,1059.37Z"/><path class="cls-3" d="M1180.6,1053.38c-10.48-.63-10.48-.63-8.82-14.59C1178.34,1041.46,1179.55,1047.37,1180.6,1053.38Z"/><path class="cls-9" d="M1075.33,972.15l4.41.49-7.34,9.4c-4.46-2.92-10.33-4.07-12.43-9.94C1065.09,972.44,1070.19,977.71,1075.33,972.15Z"/><path class="cls-15" d="M1078.2,1066c-3.6-1.32-7.35-2.53-6.22-8.39,7.13-.32,7.63,3.38,5.88,8.71Z"/><path class="cls-14" d="M1174.84,999.45c2.36,0,4.8-.2,6.47,3.59-4,.71-5.49-.87-6.37-3.7Z"/><path class="cls-10" d="M1070.33,1049.26a2.07,2.07,0,0,1,0-3.31A2.07,2.07,0,0,1,1070.33,1049.26Z"/><path class="cls-2" d="M1319.8,1147.41c-4.33-.71-8.12.66-11.65,3-1.39-5,3.65-5.8,5.61-8.61l-5.88-33.75-.14.14c1.94-.5,3.87,3.32,6.08-.25l-2.88-9-.11.16c3.94-.09,6.37-1.65,6-6l10.89,3.24,3.91,12.41c-3,6.21-8.33,5.72-14,6.48C1319.82,1126,1321.08,1136.66,1319.8,1147.41Z"/><path class="cls-6" d="M1307.88,1108.1l5.88,33.75c-3.22-.33-6.2-1.28-5.85-5.23.78-8.71-3.37-16.7-3.39-25.26A4.67,4.67,0,0,1,1307.88,1108.1Z"/><path class="cls-6" d="M1286.11,1075.09c1.13-2.29,2.88-2.86,4.15-.53,3.74,6.84,9,13.13,8.49,21.66C1293,1090.11,1290.74,1081.88,1286.11,1075.09Z"/><path class="cls-6" d="M1259.29,1041.74c7,1.14,11.27,5,12.25,12.19l-9-6.23Z"/><path class="cls-1" d="M1259.29,1041.74l3.21,6c-4,.16-6-2-6.27-5.82l.18-.13,3,.12Z"/><path class="cls-6" d="M1277.88,1117.2c-5.25,3.31-2.32-2.11-3.43-3.21C1276.83,1113.74,1277,1115.82,1277.88,1117.2Z"/><path class="cls-6" d="M1298.61,1096.06c3.69.61,3.27,3.29,3,5.91C1298.45,1101.08,1298.55,1098.56,1298.61,1096.06Z"/><path class="cls-6" d="M1271.43,1053.85l3.42-.42c.12,1.48-.21,2.82-2,2.53C1272.28,1055.87,1271.9,1054.59,1271.43,1053.85Z"/><path class="cls-1" d="M1253.27,1061.18a4.75,4.75,0,0,1-2.67-4.12C1252.5,1057.78,1253.07,1059.36,1253.27,1061.18Z"/><path class="cls-1" d="M1253.45,1038.64a7,7,0,0,0,3,.25l-.14-.17.12,3-.18.13Z"/><path class="cls-14" d="M966,1144.59c-2.19-1.53-2.16-3.95-2.52-6.22l-.16.1c4.68-1.9,3.23-5,1.76-8.31-3.73-8.36-7.36-16.77-11-25.16.44-1.85,1.85-2.67,3.47-3.27,7.14,6.15,6.43,17,14,23-2.21-9.56-4.72-18.93-11.47-26.49-3.35-7.14,6.5-8.35,6.32-14.07a4,4,0,0,1,2.76-3.25c.73,6.62,5.05,11.74,7.44,17.68,3.49,8.7,8.26,17.26-.44,25.87l6.5,2.43c2.61-1.71-2.81-4.69,2.21-6.57,5.32,10.77,12,21,14.64,33.09-3.94-.79-5-4.32-6.93-7.33l-5.09,4.43.11,0L983.5,1143c-4.49-.48-3.69,5.52-7.7,5.63C971.13,1151.1,971.46,1140.69,966,1144.59Z"/><path class="cls-1" d="M1047.35,1184c-7.81-2.87-7.09-9.94-8-16.21l-.87-5.17-1.23,0-1.23,0-.81-25h0q.54-7.63,1.09-15.28l-.18-7.15-.33-6.67.18-27.67h0c1-.41,1.86-11.57,5.59-15.83a2.19,2.19,0,0,0-.17-1.49c-1.91-1.53-3.05-3,.54-3.67h0c0-.91-.07-1.81-.1-2.72l-.24-.15c-1.8-.24-2.39-1.51-2.64-3.08.32-4.18.65-8.35,1-12.41-4.27-3.1-8.29-5.68-13.38-5.82l-3.39-.18c-3.28,2.93-7,4.31-11.36,3,2.67,5.65,1.24,10-3.75,13.76-5.86,4.37-11.44,9.11-17.13,13.69.69.45,1.35.93,2,1.42-.65-.49-1.31-1-2-1.42l-12.38,6a7.94,7.94,0,0,1-4.56,5.36c-4.53-4.12-3.38-12.38-10.61-14.43a21.64,21.64,0,0,1-2.41-.14c.15,7.23,7.78,11.09,8.2,18.2.73,6.62,5.05,11.74,7.44,17.68,3.49,8.7,8.26,17.26-.44,25.87l6.5,2.43c2.61-1.71-2.81-4.69,2.21-6.57,5.32,10.77,12,21,14.64,33.09a3.91,3.91,0,0,0,3.15,2.81c2.69,3.78,2,9.27,6.15,12.29,8.07,19.61,15.28,39.64,27.06,57.51,6.41-1.69,10.45-7.87,17.13-9.06ZM1007,1102.35a6.56,6.56,0,0,1-5.32-7.69c1.2-6.62,6-8.28,12.19-6.83h0c1,1.83,1.59,3.94,3.77,4.83h0C1017.81,1100,1014.63,1103.88,1007,1102.35Zm26.5,33.3,1,1.17Z"/><path class="cls-9" d="M1013.88,1087.83c1,1.83,1.59,3.94,3.77,4.83.16,7.3-3,11.22-10.64,9.69a6.56,6.56,0,0,1-5.32-7.69C1002.89,1088,1007.72,1086.38,1013.88,1087.83Z"/><path class="cls-2" d="M1042.12,1110.83c-3.09-.07-4.24,2.53-6,4.34l-.33-6.67C1038.11,1108.76,1040.6,1108.49,1042.12,1110.83Z"/><path class="cls-1" d="M1270.42,1144.45l-4.5-12c-4.23-1.84-4.19-6.57-6.54-9.65-7.28-9.51-14.4-19.4-27.78-18.6-3.25,11.89-.25,23,4,34,2.27,1.12,2.38,2.21,0,3.26l0,.14c-2.22.29-3.82-.11-4.3,3.68-1.57,12.45-6,17.07-15.07,17.85,1.68,5.18,3,10.54,7.09,14.54,16.79,9.59,32.93,4.3,49.16-2.93l5.08,5.75A90.73,90.73,0,0,0,1270.42,1144.45Z"/><path class="cls-8" d="M1219.46,1093.16c3.31-12.56,18.6-20.07,30.86-15.16-3.91,10.29-13.11,14.93-21.75,20C1223.47,1101,1222,1095.77,1219.46,1093.16Z"/><path class="cls-7" d="M1274.4,1129c-7.39-2.61-11.93-8.29-16.17-14.51-3.42-5-.34-7,4.16-9.58,5.94,7.08,10.72,14.67,11.92,24.19Z"/><path class="cls-1" d="M1235.57,1138.23c2.27,1.12,2.38,2.21,0,3.26Z"/><path class="cls-3" d="M1149.52,1115.79c-2,3-4.2,6-8.2,3-2.39-1.8-2.43-4.28.07-6C1145.42,1109.85,1147.59,1112.61,1149.52,1115.79Z"/><path class="cls-6" d="M1142.09,1201.4l-6.72-8.64c1.69-4.13,3.78-1.61,4.92.08,3.8,5.64,9.46,9.28,14.21,13.89a6.63,6.63,0,0,1-1.66,1.88,10,10,0,0,0-2.37-.26Z"/><path class="cls-10" d="M1038.51,1162.61c.81-3.75-.84-8,2.89-12.58.15,6.87,3.12,12.63-2,17.75Z"/><path class="cls-3" d="M990.74,1195.31q-1.92-5.57-3.85-11.11a12.74,12.74,0,0,0,1.37-1c2.36.9,4.28,6.11,7,2.09s-1.62-5.81-4.64-7.44l-.15-.27c.83-4.83.76-9-5.9-8.91h0c2.81-2.45,1.52-7.64,6-9a12,12,0,0,0,.55,2.6c-.09,1.68.48,2.93,2.22,3.42l9.35,22.84C997,1188,994,1191.87,990.74,1195.31Z"/><path class="cls-6" d="M990.57,1159.63c-4.46,1.36-3.17,6.55-6,9-5-2.46-5.28-7.46-6.4-12,3.52-1.43,3.94-7.7,9.43-6.06l-.11,0c.22,2.26.34,3.32,3.62,4.19,5.68,1.51,8.29,5.9,2.21,10.94-1.74-.49-2.31-1.74-2.22-3.42C993.94,1160.74,992.06,1160.23,990.57,1159.63Z"/><path class="cls-2" d="M1199.14,1062.94l.91-4.33c2.3,2.33.82,3.32-1.07,4.18Z"/><path class="cls-5" d="M1226.11,1023.56c2.13,0,3.19,1,3.12,3.19C1227.19,1026.66,1226.36,1025.4,1226.11,1023.56Z"/><path class="cls-9" d="M1316.79,1093.09c.41,4.39-2,6-6,6,1.82-7.44-4.73-11.58-6.91-17.44s-7.19-10.26-7.73-17.24c6.46,1.33,5.54,7.4,8.76,10.25a3.56,3.56,0,0,0,2.44,3.37,42,42,0,0,0,9.44,15.06Z"/><path class="cls-7" d="M1310.94,1099l2.88,9c-2.21,3.57-4.14-.25-6.08.25C1308.68,1105.11,1305.67,1100.61,1310.94,1099Z"/><path class="cls-6" d="M1256.41,1041.75l-.12-3c2.25-.15,3.31.89,3.16,3.15Z"/><path class="cls-1" d="M1123.61,966.49c5.37.93,9.84,3.88,14.5,6.43l-2.52,5.35,0,0L1118.69,971C1120.91,969,1122.26,967.72,1123.61,966.49Z"/><path class="cls-1" d="M1153.11,980.41c-4.25-2.11-5.88-.6-5.35,3.88-3.74-2.62-8.86-2.51-12.13-6.07l0,0c4.53.15,9.27.6,8.93-6.23h0C1147,975.21,1153.69,974.07,1153.11,980.41Z"/><path class="cls-1" d="M1078.27,938.37l8.77,4.31c-3.29,1.75-5.92,3.93-5.35,8.19l-6.36-3.66A11.73,11.73,0,0,0,1078.27,938.37Z"/><path class="cls-11" d="M1075.33,947.21l6.36,3.66c-1.59,6.76-4.73,2.28-7.09.81C1071.81,950,1071.4,948.09,1075.33,947.21Z"/><path class="cls-1" d="M1074.76,960.15l.54,3.11c-1.07-1.14-6.5,2.07-3.31-3.32A9.91,9.91,0,0,0,1074.76,960.15Z"/><path class="cls-1" d="M1151.14,985c1.22.09,1.7.6,1.22,1.37-.19.28-.78.31-1.18.45A2.18,2.18,0,0,1,1151.14,985Z"/><path class="cls-6" d="M1327.14,1137.26c.78-6.11-6.4-11.64.66-20.64,1.18,8.25,2,14.17,2.86,20.09Z"/><path class="cls-2" d="M1316.83,1093.13a42,42,0,0,1-9.44-15.06C1315.54,1078.31,1319.45,1084.55,1316.83,1093.13Z"/><path class="cls-3" d="M1199,1250.27c3.91,1.15,5.74-3.12,9.08-3.47,3,2.25.75,4.51,0,6.77-3.35,7.44-11.12,10.82-15.74,17.11-.57.66-1.75,1.73-1.62,1.91,1.29,1.89,2.1.38,3-.58,9.41.37-.35,6.18,2.4,8.44l.08-.11c-5.14-.21-10.26,5.46-15.42.05a28.39,28.39,0,0,0-2.92-.09l.21.17c.28-3.55.64-7.12-3.15-9.29l.14.16c.72-2.19,3.39-3.45,3-6.19l-.2.17c4.69.33,8-1.31,9.22-6.21l-.14.12c4.75.46,7.81-1.61,9.21-6.16l-.15.13c2.36.25,3.44-.78,3.18-3.16Z"/><path class="cls-3" d="M1211.17,1286.89c-1.17,2.76-5.47,2.07-6,5.48-4.79.75-9.56,1.71-14.37,2.19-3.65.37-7-.25-6.6-5.29,3.71-3.35,10.34-2.8,12-8.93l-.08.11c5.55,1,10.51-.72,15.32-3.19l-.2-.13C1211.17,1280.38,1211.17,1283.64,1211.17,1286.89Z"/><path class="cls-14" d="M1171.85,1301.42c1,3.3,4.43,3.09,6.85,4.71-8.27,2.16-15.39-2.88-23.24-2.63,5.36-3,11.11-1.08,16.56-2Z"/><path class="cls-4" d="M1196.14,1280.34c-1.64,6.13-8.27,5.58-12,8.93a10.18,10.18,0,0,1-3.44-8.88C1185.88,1285.8,1191,1280.13,1196.14,1280.34Z"/><path class="cls-3" d="M1132.68,1301.4a8.34,8.34,0,0,1,0-2.73l7.91.37C1138.14,1302.75,1135,1300.42,1132.68,1301.4Z"/><polygon class="cls-3" points="1146.77 1303.05 1145.88 1303.32 1145.98 1302.57 1146.77 1303.05"/><path class="cls-3" d="M1176.07,1297.62c9-5.37.54-11.66,1.72-17.25-4.31-1.88-2.74-5.75-2.92-9l-3.15.24c-3-2.11-.35-4.22,0-6.33l.25.17c-8.59-6-8.56-16.86-14.37-25l-18.55,1q-1.85,19.38-3.68,38.76c-2.74,1.42-2.89,4.22-3.57,6.74.34,2.77.69,5.54,1,8.3l3.27-.37c9.28-8.43,20.44-4,31-4.75-6.32,3.39-14.26.92-19.89,6.15,4.58,2.86,9.6,1.41,14.48,1.61,3.68.15,8.09-1,10.34,3.54l14.35-.82Z"/><path class="cls-3" d="M1150.08,1266.11c-4.82-1.07-5.87,1.09-8,4.81C1146.49,1270.32,1148.48,1269.31,1150.08,1266.11Z"/><path class="cls-3" d="M1189.66,1232.67c5,.36,10-.93,13.45,5.5s-2.86,8.11-4.14,12.1l.13-.23c-2.1,0-3.43.79-3.18,3.16l.15-.13c-4.28.24-7.66,1.83-9.21,6.16l.14-.12c-4.49,0-7.44,2.22-9.22,6.21l.2-.17-6.27.11.25.17c1.21-8-5.49-13.76-6.23-21.22C1173.33,1239.58,1182.45,1238.11,1189.66,1232.67Z"/><path class="cls-4" d="M1132.07,1241.48c1.25,4.91.2,9.76-.24,15.35-10.76,2.77-22,3.6-32.79,8.69-.16-2.91-.27-4.73-.37-6.55.29-3,.59-6,.89-8.92l-.35.22c5.28-.43,3.18-7.16,11.28-8.79Z"/><path class="cls-4" d="M1141.52,1237.44c2.1-10,1.74-20.7,9-29.09a10,10,0,0,1,2.37.26c5.06,6.92,14.48,9,19.52,17.36C1163.93,1235.23,1152.09,1234.76,1141.52,1237.44Z"/><path class="cls-6" d="M1208.07,1253.57c.73-2.26,3-4.52,0-6.77l.15-5.76c1.62.76,3.11,2.13,6.07.47-2.74-3.93-2.85-8.65-3.11-13.36l-3-2.13c2.11-3.65,5.62-3,9-2.94-.63,1.31-2.17,3.1-1.77,3.85,6.19,11.49,2,26.87,13.65,36.26q1.73,4.13,3.44,8.25c-6.35,4.66-14.69,1.9-21.28,5.69l.2.13c2.32-5.55,10.35-5.91,11.44-10.5,0-6.07-7.49,1.28-6.11-6.44C1217.54,1255.66,1214.16,1251.76,1208.07,1253.57Z"/><path class="cls-3" d="M1178.32,1210.6c11.33-.56,9.41,8.94,11.63,15.31-3.52-.39-6.33,3.09-10.3,1.83C1175.86,1222.37,1179,1216.3,1178.32,1210.6Z"/><path class="cls-3" d="M1211.16,1228.15c.26,4.71.37,9.43,3.11,13.36-3,1.66-4.45.29-6.07-.47C1208.91,1236.68,1198.89,1229.86,1211.16,1228.15Z"/><path class="cls-9" d="M1211.18,1277.13c6.59-3.79,14.93-1,21.28-5.69,2.11.52,5-.37,5.83,4.1-4.4,3.26-9.13,6.87-14.84,9.08l-12.28,2.27C1211.17,1283.64,1211.17,1280.38,1211.18,1277.13Z"/><path class="cls-6" d="M1237.7,1267.47c-.84-4.89-.69-5.94,2.32-12.6,2,5.59,7.37,7.56,7.53,13.29C1243.87,1273.64,1240.93,1268.46,1237.7,1267.47Z"/><path class="cls-8" d="M1050.87,1112.58c4.15,8.55,9.17,17,1.5,27.27C1046,1130.56,1047.17,1121.66,1050.87,1112.58Z"/><path class="cls-8" d="M1058.93,1115.1c-.14,1.38-.27,2.76-.41,4.14C1056.22,1117.63,1056.62,1116.27,1058.93,1115.1Z"/><path class="cls-6" d="M1079.44,1079.22c-2.5.58-.73,4.62-3.76,4.72-.25-3.1-.48-6.06-.72-9-4.72-7.06-10.08-13.47-17.76-17.53l-6.54-9.35a6.21,6.21,0,0,1-2.49-.4c-1,3.87-.9,8.51-6.3,9.47,0,.91.07,1.81.1,2.72v0c-3.59.72-2.45,2.14-.54,3.67a2.19,2.19,0,0,1,.17,1.49c-3.73,4.26-4.64,15.42-5.59,15.83l-.18,27.67c2.29.26,4.78,0,6.3,2.32a1.39,1.39,0,0,0,1.85,1l1.32-6.83c2.27-.21,4.65-.12,6.16-2.34l5.28-.17,0,0,3.61-.07a4.71,4.71,0,0,0,3-3.6l1.17.17,1.15-.24,3.54.28a7.42,7.42,0,0,1,.33-2.57c5.59-3.57,11.89-6.13,16.37-11.14C1084.31,1082.19,1082.51,1080,1079.44,1079.22Z"/><path class="cls-6" d="M1056.77,1102.54l3.61-.07C1059.21,1104.25,1058,1104.79,1056.77,1102.54Z"/><path class="cls-6" d="M1207.59,1008.83c-2.67.33-4.17-1.1-5.07-3.41C1205,1005.38,1206.83,1006.31,1207.59,1008.83Z"/><path class="cls-6" d="M1211.11,1011.43a2.74,2.74,0,0,1-3.24-2.46C1209.83,1008.63,1210.76,1009.64,1211.11,1011.43Z"/><path class="cls-9" d="M1087.27,1108.09l.6,6.17c.34,3.56,2.07,6.45,4.32,9.11-7.4-4.94-10.06,1.54-13.7,5.68-2.28-3.86-4.53-7.74-6.86-11.57-1.86-3.06-3.73-6.09-1-9.56,2.62-3.31,5.84-3.1,9.43-1.72A62.25,62.25,0,0,0,1087.27,1108.09Z"/><path class="cls-4" d="M1078.49,1129.05c3.64-4.14,6.3-10.62,13.7-5.68l7.18,2.94,0,0c-3.13,10.85-9.84-2.4-14.31,3.57-.91,4,7.18,2.41,5.94,10.25-.4,1.51-2.77,5-8.75,5.44C1081,1140.14,1079.75,1134.6,1078.49,1129.05Z"/><path class="cls-3" d="M1117.9,1153.05q-.15-7.23-.28-14.44l-9.31-.19h0c-4.21-6.09,1.49-12,.27-18.06l-6.13,3a3.58,3.58,0,0,1-3.1,2.93c-3.13,10.85-9.84-2.4-14.31,3.57-.91,4,7.18,2.41,5.94,10.25-.4,1.51-2.77,5-8.75,5.44-1.22-5.4-2.48-10.94-3.74-16.49-2.28-3.86-4.53-7.74-6.86-11.57-1.86-3.06-3.73-6.09-1-9.56,2.62-3.31,5.84-3.1,9.43-1.72a62.25,62.25,0,0,0,7.19,1.89c-4.33-9.28-13-4.51-19.72-6.1l-1.15.3-.3,1.15c-1.75,14.1,1,27.82,3.89,41.45.87,4.16-.3,5.48-3.89,6,3.17,4.15,8.47,1.12,12.13,3.61,5-1.25,10.42,3.69,15.15-1.1l-.18.15c.27-5,1.88-8.83,7.66-9.21h0l-4.65,9-2.79.24a15.6,15.6,0,0,0,6,8.84c10.51-3.44,21-6.29,30.28,2.9,6-2.59,10.56-7,14.22-12.29Z"/><path class="cls-5" d="M1100.86,1144.34l-4.65,9-3,.26C1093.47,1148.58,1095.08,1144.72,1100.86,1144.34Z"/><path class="cls-4" d="M1102.45,1123.35a3.58,3.58,0,0,1-3.1,2.93l0,0c.42-1.56,1.19-2.78,2.92-3.12Z"/><path class="cls-5" d="M1153.11,980.41c.58-6.34-6.12-5.2-8.62-8.38-1.1-2.51-4.32-5.15-1-7.71,2.46-1.87,5.07-4.11,9.18-2,6.76,3.44,11.16,7.9,10.62,15.94l-.58.2c-2.49-.34-5-.76-5.81,2.65Z"/><path class="cls-5" d="M1144.52,972c.34,6.83-4.4,6.38-8.93,6.23l2.52-5.35Z"/><path class="cls-5" d="M1171.89,981.24c-2.84-.16-5.7-.26-7.53-3,1.94-2.23,4.44-2.72,7.22-2.32.08,1.8.17,3.59.25,5.39Z"/><path class="cls-1" d="M1311,1195.33l3,.46q-.46,2.71-1,5.45C1311.68,1199.52,1306.2,1199.21,1311,1195.33Z"/><path class="cls-3" d="M1126.62,1292.41c-10.92-3.24-19.71-9.68-27.21-18.08,7.7-10.89,19-12.11,30.84-12.06,6.5,8.45-2.76,16.38,0,24.41C1129.44,1288.86,1130,1291.86,1126.62,1292.41Z"/><path class="cls-2" d="M1198.09,1297.7c.6-4,6.29-1.59,7-5.33-4.79.75-9.56,1.71-14.37,2.19-3.65.37-7-.25-6.6-5.29a10.18,10.18,0,0,1-3.44-8.88,28.39,28.39,0,0,0-2.92-.09c-1.26,5.61,7.31,11.93-1.73,17.32l10.25,3-14.35.82c-2.25-4.55-6.66-3.39-10.34-3.54-4.88-.2-9.9,1.25-14.48-1.61l-11.06-1.4-3.27.37c-.34-2.76-.69-5.53-1-8.3a10.47,10.47,0,0,0-1.57-.25c-.78,2.18-.24,5.18-3.6,5.73-10.92-3.24-19.71-9.68-27.21-18.08l-1.85,11.35c-4.38.4-10.61-5.31-13,3.26,5.06,2.78,10.27,5.33,15.14,8.41s12.65,2.64,14.66,10.14c-7.19.13-.34,8.64-5.84,9.78,6.9-1.3,12.33,2.27,17.9,5.38,4.87-4.26,4.12-9.64,3-15.09h3.15l0,0a2.54,2.54,0,0,0,2.92,2.06c7.73,1.24,15.55,2.09,23.18,3.82,5.86,1.33,11.57,3.71,9.75,11.81,4.76-4.17,12.36-4.65,15-11.56,2.75-7.44,9.52-5.53,15.1-6.71,6.71-1.43,14.93-.89,17.3-10.23C1209.35,1293.25,1204.26,1301.24,1198.09,1297.7Zm-65.41,3.7a8.34,8.34,0,0,1,0-2.73l7.91.37C1138.14,1302.75,1135,1300.42,1132.68,1301.4Zm22.78,2.1c5.32-3,11-1.12,16.43-2,1,3.18,4.42,3,6.81,4.6C1170.43,1308.29,1163.31,1303.25,1155.46,1303.5Z"/><path class="cls-5" d="M1099.56,1250.05c-.3,3-.6,6-.89,8.92l-2.73-3.23C1096.41,1253.37,1095.81,1250.33,1099.56,1250.05Z"/><path class="cls-10" d="M1055.52,1265.51l10.2,11.54c-13.26-3.72-19.2-15-25.61-25.94Z"/><path class="cls-6" d="M960.23,1144.26c-1.51-3.41-.75-5.47,3.11-5.87,0,0,0,0,0,.08,4.68-1.9,3.23-5,1.76-8.31-3.73-8.36-7.36-16.77-11-25.16-4.14.3-8.23.47-12.06-3.06l4.62,15.27c-9.87,1.1-7.2-8.18-10.42-12.59-3.79.7-7,1.7-4.47,6.7,3.34,6.62,7.7,13,9.44,20,1.64,6.61,5.13,8.25,11.37,7.52-2.16,3.41-10.18,2.57-4.4,8.6h0l6.15,12.23c4.71,9.47,8.39,2.87,12.26-.79C964.45,1154,962.38,1149.12,960.23,1144.26Z"/><path class="cls-10" d="M1135.37,1192.76l-5.74-6a7.48,7.48,0,0,1-.18-2.75c-10.71,3-12.26,13.8-17.8,21.2-2.69,3.45-2.74,8.38-6.31,11.36l-8.57,15.71c1.07,4.56,4.14,5.74,8.37,4.94l3.56.48c1.59-6.41,8-1.55,11.86-5.33-3.84-3.9.29-8,0-12.32a3.11,3.11,0,0,0,3-3c7.79-3.28,10.86-12.15,18.5-15.6ZM1123.58,1217Zm-2.95,2.52a4.18,4.18,0,0,0-.06.51h0A4.18,4.18,0,0,1,1120.63,1219.5Z"/><path class="cls-1" d="M978,1071.05c-2.41-2.29-1.58-5.62-2.68-8.34C980.62,1064.08,976.77,1068.39,978,1071.05Z"/><path class="cls-1" d="M1008.48,1035.54c2.34-.23,3.39,1,3.48,3.18a24.5,24.5,0,0,1-2.93-.48A20.84,20.84,0,0,1,1008.48,1035.54Z"/><path class="cls-6" d="M1083.33,1300.5c-2.21-.87-4.15-1.92-3.93-4a4.21,4.21,0,0,1,3-2.73,3.22,3.22,0,0,1,3.5,3.66C1085.79,1298.55,1084.19,1299.53,1083.33,1300.5Z"/><path class="cls-10" d="M960.1,1098.24c6.75,7.56,9.26,16.93,11.47,26.49-7.61-6-6.9-16.85-14-23Z"/><path class="cls-1" d="M941.85,1087.66l.68-4.07,5.78,3.7c-1.32,2.52-3.69,2.68-6.11,2.73A2.23,2.23,0,0,1,941.85,1087.66Z"/><path class="cls-3" d="M1120.29,1129.73c4.4-1.68,3.14-5.67,3.65-8.94,4.33,3.26,1.69,7.85,2.26,11.83C1123.64,1132.86,1121.28,1132.7,1120.29,1129.73Z"/><path class="cls-3" d="M1118.2,1129.91c-.51-1.86-.84-3.7.54-5.37,2,1.28,1.47,3.24,1.42,5.07A5.06,5.06,0,0,1,1118.2,1129.91Z"/><path class="cls-3" d="M1117.53,1138.25c.27-1.18.54-2.36.8-3.55a2.42,2.42,0,0,1,2,.74,16.76,16.76,0,0,1,.18,2.46Z"/><path class="cls-6" d="M1120.55,1137.9a16.76,16.76,0,0,0-.18-2.46c1.26-.11,2.62-.17,2.34,1.62C1122.65,1137.44,1121.3,1137.62,1120.55,1137.9Z"/><path class="cls-1" d="M954.22,1072c3.77,1.9,6,5.09,7.4,8.9-5.1-.91-6.23-4.94-7.16-9.13Z"/><path class="cls-2" d="M987.62,1150.57c-5.49-1.64-5.91,4.63-9.43,6.06-7.73-.3-10.37-5.75-12.18-12,5.45-3.9,5.12,6.51,9.79,4.07,4-.11,3.21-6.11,7.7-5.63Z"/><path class="cls-6" d="M990.63,1177.8c3,1.63,7.44,3.31,4.64,7.44s-4.65-1.19-7-2.09Z"/><path class="cls-6" d="M984.58,1168.62c6.66-.14,6.73,4.08,5.9,8.91C986.12,1176.14,984,1173.27,984.58,1168.62Z"/><path class="cls-1" d="M1021.4,1026.27a3.33,3.33,0,0,1-.92-2.65C1021.94,1024.1,1024,1024.38,1021.4,1026.27Z"/><path class="cls-6" d="M1075.1,963c4.59,2.08,4.2,4.16,0,6.24Z"/><path class="cls-8" d="M1099,1027.57c12.32,4.38,25.09-1.43,37.48,1.28a55.18,55.18,0,0,0-22.6,18.65c-9.7-1.32-17.33-4.49-23.3-10.46C1090.68,1031.87,1094.83,1029.71,1099,1027.57Z"/><path class="cls-3" d="M1102.29,1123.19c-1.73.34-2.5,1.56-2.92,3.12l-7.18-2.94c-2.25-2.66-4-5.55-4.32-9.11a20.47,20.47,0,0,0,2.33-.25l3.15,1.71C1093.47,1121.63,1103.7,1115.45,1102.29,1123.19Z"/><path class="cls-1" d="M1099.25,1102c.86,3.23-.55,4.84-3.67,4.19-1.55-.32-1.83-2.42-1.18-3.79,1.38-2.87,3.31-.3,5-.24Z"/><path class="cls-9" d="M1093.35,1115.72l-3.15-1.71,1.72-1.38Z"/><path class="cls-5" d="M1171.83,981.32c8.39-3.6,12.34,3.66,17.81,7.2-7.1.42-12.47-3.34-17.75-7.28Z"/><path class="cls-3" d="M1156.94,981.09c.79-3.41,3.32-3,5.81-2.65,0,1-.07,2.09-.1,3.14Z"/><path class="cls-1" d="M1114.57,1080.77c-1.31,4.78-5.61,5.15-9.36,6.34C1105.91,1081.42,1110.53,1081.52,1114.57,1080.77Z"/><path class="cls-5" d="M990.57,1159.63c1.49.6,3.37,1.11.55,2.6A12,12,0,0,1,990.57,1159.63Z"/><path class="cls-6" d="M1171.71,1265.26l6.27-.11c.41,2.74-2.26,4-3,6.19l-3.28.25C1168.76,1269.48,1171.37,1267.37,1171.71,1265.26Z"/><path class="cls-6" d="M1174.86,1271.18c3.79,2.17,3.43,5.74,3.15,9.29C1173.33,1278.61,1175.12,1274.55,1174.86,1271.18Z"/><path class="cls-9" d="M1208.07,1253.57c6.09-1.81,9.47,2.09,8.64,6.75-1.38,7.72,6.1.37,6.11,6.44-1.09,4.59-9.12,5-11.44,10.5-4.81,2.47-9.77,4.23-15.32,3.19-2.75-2.26,7-8.07-2.4-8.44-.42-.46-.87-.9-1.33-1.33C1197,1264.39,1204.72,1261,1208.07,1253.57Z"/><path class="cls-6" d="M1186.86,1259.23c1.55-4.33,4.93-5.92,9.21-6.16C1194.67,1257.62,1191.61,1259.69,1186.86,1259.23Z"/><path class="cls-6" d="M1177.78,1265.32c1.78-4,4.73-6.24,9.22-6.21C1185.83,1264,1182.47,1265.65,1177.78,1265.32Z"/><path class="cls-6" d="M1195.92,1253.2c-.25-2.37,1.08-3.15,3.18-3.16C1199.36,1252.42,1198.28,1253.45,1195.92,1253.2Z"/><path class="cls-9" d="M1193.66,1272c-.85,1-1.66,2.47-3,.58-.13-.18,1-1.25,1.62-1.91C1192.79,1271.11,1193.24,1271.55,1193.66,1272Z"/><path class="cls-6" d="M1150.08,1266.11c-1.6,3.2-3.59,4.21-8,4.81C1144.21,1267.2,1145.26,1265,1150.08,1266.11Z"/></g></g></g></svg>