<svg id="Layer_1" data-name="Layer 1" xmlns="http://www.w3.org/2000/svg" viewBox="0 0 1525 1525"><defs><style>.cls-1{fill:#371912;}.cls-2{fill:#595337;}.cls-3{fill:#cd3412;}.cls-4{fill:#94928d;}.cls-5{fill:#5d4430;}.cls-6{fill:#beaf64;}.cls-7{fill:#97200b;}.cls-8{fill:#191835;}.cls-9{fill:#999373;}.cls-10{fill:#cacbad;}.cls-11{fill:#29586a;}.cls-12{fill:#a64e1e;}.cls-13{fill:#7b8874;}.cls-14{fill:#b5ad9d;}.cls-15{fill:#d4858f;}.cls-16{fill:#005bab;}</style></defs><title>Artboard 1outerCircle7</title><g id="WindowParts"><g id="outerCircle"><g id="co7"><path class="cls-1" d="M281.37,909l-3.82-.25c-2.14-4-5.25-7.55-5.56-11.47-4.38-1.62-6.53,1.79-9.6,1.64l-2.94-5.25c3.77-3.26,11.34-3.42,9.31-11.41,10.49-2.8,19.08-10.06,29.51-11.39-.19-3.45-1.77-4.69-3.27-6l9.17,3.54c6.55-3.61,8.66-9.67,9.63-16.14.69-4.59.39-9.19-5.93-9.85l3-5.72,12.07-3.49,6.15-.16,17.67-.17,6.3-2.65c2.93,1.53,5.72-.09,8.57-.39l4.3.32c-5.33,7.55-2.68,12.28,5.34,15.11-2.38,4.58-10.19,1.48-11.46,8.71-1.06,1.14,4.82.25,1.68,2.95l-6,.5c.05-1.66-1-3.47-2.27-3.12a130.36,130.36,0,0,0-35.8,15.18c8.63.59,15.23-6,23.6-6-1.54,3.63-1.5,6.36,3.56,6.21-.52,1.94.66,2.67,2.23,3.13,2.31,14.14-1.82,16.83-17.55,11.4L329,879a4.83,4.83,0,0,0,.73-1.3,3,3,0,0,0-.27-1.35c-15,1.75-27.94,8.87-41,16.19l4.13.95c0,2,0,3.94,0,5.91C291.35,905.54,286.69,907.64,281.37,909Z"/><path class="cls-2" d="M99.8,864.32c-7.22,2.46-12.33,4-14.4,11.38C91.79,873.76,96.5,872,99.8,864.32Z"/><path class="cls-3" d="M310.86,736.65l-3.3-.1.22.19c0-2.12-1.07-3.22-3.2-3.26l.21.21c0-2.14-1.06-3.23-3.19-3.29l.2.26c.34-7.38-5.1-5.88-9.4-6.12l.25.2c-.57-3.75-3.52-3.25-6.09-3.42l.16.13c-2.38-5.07-6.05-8.7-11.56-10.24a3.82,3.82,0,0,1-.56-2.53c-1.44-6.51,5.29-8.82,7-13.7l3.16-.62c9.58-.57,16.72-7.45,24.71-10.53,3.65,3.3-.38,7.83,3.41,10.22,1.09-3.63-1.14-8.1,2.86-11.19a30,30,0,0,1,4.29-.66c8-.1,15.95-.11,23.93-.14,1.9,4.8,8.9,3.51,10.8,9.15l-5.73,4.4c3.24,1.61,7.54,2.67,4.05,7.77l0,0-6.21,0,.13.07c-3.74-4.49-6.83-4.65-9,1.35l-.61,1.06c-5.51,3-9.64.47-13.43-4.85-2.13,5.83-5.4,8.63-10.39,9.08l-5.69-6.1c.58,5-5.2,7.86-1.72,12.92,2.15-2.44,4.13-4.7,7.44-4.8,5.05,5.49,11.42-1,17.11,1.72,1.22,2.09,2.89,4.1,3.58,6.4s.44,4.89.59,7.36l.06-.07a7.79,7.79,0,0,0-5.86,6.26c-2.83,4.5-5.88,8.8-11.41,11.68-3.76-1.62-3-7.46-7.08-9l.92-.66Z"/><path class="cls-2" d="M265.73,804.1c-1-9,2-18.36-2.68-26.88C262.84,786.33,260.59,795.56,265.73,804.1Z"/><path class="cls-2" d="M295.89,771.17c1.52,1,2.81,3.21,4.75.67a1.15,1.15,0,0,0,0-1.08C298.9,768.47,297.4,769.65,295.89,771.17Z"/><path class="cls-4" d="M204.46,832.72c-.31-1.76-2.16-2.42-4.1-2.34-2.1.1-4,1.65-3.76,3.6.27,2.41,2.08,4.39,5,3.6C203.48,837.06,204.86,835.68,204.46,832.72Z"/><path class="cls-4" d="M253.46,597.58c.21-2.35,1.4-6.47,3.26-4.73,4.95,4.61,9.9.9,14.69,1.64,6.76,7.87,7.54,7.87,12.34,0a11.86,11.86,0,0,1,2.45-.2c.15,2.87,2.47,3.91,4.32,5.56,6.89,6.16,13.53,12.59,20.26,18.93-2.78.51-5.82-1.47-8.46.89,1.86,5.33,10.24,3.5,10.95,10-2.27,5.36,1.72,3.57,4.11,3.6a2.85,2.85,0,0,0,2.53-2.65l-.11.13c4.65-.07,5.62,2,3.31,5.83L320,640c-7.07.63-12.59-2.92-18.05-6.65,2.17-8.75-5.26-6.82-9.45-8.51l-3.09.32c-12-8-25.54-7.39-39.06-6.69l.16.35-2.46-2.52-4-1.38-5.94-4.62c6.94-2.62,4.88-14,15.28-12.66a3.57,3.57,0,0,0,3.07,2.89c1.57,3.83,5.17,3.15,8.22,3.69,3.35,2.74,6.75,5.25,12.05,3.48-3.31-3.73-7.19-4.1-10.94-4.79-2.44-3.78-6.1-2.42-9.48-2.23C256.28,598.8,255.16,597.92,253.46,597.58Z"/><path class="cls-5" d="M105.29,606.25c1.09-12.38,9-6.45,15.08-5.66,7.26,2.68,13.45-.79,19.36-4,3-1.65.88-4-1.24-5.47,7.82-4.58,16.92-4.6,26.58-7.55-1.69,9.39,8,12.37,10.15,19.79l-.94.94c-4.27-1.13-6.71.92-8.13,4.72l-.5,3.13c-2.66,1.3-2.83,3.66-2.67,6.17A3.65,3.65,0,0,0,166,621.6l0-.11c-.07,1.1-.13,2.2-.2,3.3l-6.4-.51.5-.81-.56-.78c-2.22-8.42,4.42-15.27,5.13-24.8-7.37,1.7-14.18-4-20.12,2.79-7.9,1.06-12.8,6.46-17.47,12.16A94,94,0,0,0,111.35,632c-1.78,3-1.77,5.56,1.41,7.28,2.94,1.59,4.37-.48,5.39-2.91,2.33,4.18,3.44,9.76,9.83,8.91,5.46-1.87,7.07-9.19,13.74-8.54-1.83,6-11.21,7.91-8.92,16.2-6-4.69-12.13-5-18.53-.94-1.06-9.24-2.56-10-11.73-5.68-3.65-6.24,2.09-12.56-.15-18.82.27-1.7,1.5-2.35,3-2.75,1.69-.12,2.56-1.25,3.21-2.63l6.24-5.11C108.62,615.12,109.33,608.87,105.29,606.25Z"/><path class="cls-5" d="M111.77,607.76c2.68,4.92,5.63,6.86,9.76,3.33,2.22-1.9,2.15-4.46,0-6.35C117.29,601.05,114.47,603.48,111.77,607.76Z"/><path class="cls-5" d="M157,593.79l1.15-.78c-.34-.31-.64-.85-1-.9-1.29-.19-1.85.34-1.37,1.21C155.9,593.62,156.55,593.65,157,593.79Z"/><path class="cls-4" d="M165.92,670.31l.07-3.17c2.75-2.52,8-4.08,3.49-9.33-3.87-9-.43-18.06,0-27.09,5.25-4.45,7,5.34,11.73,2.89h11.4l18.63.25a11.14,11.14,0,0,1,0,2.16c-11.28,1.17-22.85-1.19-34.78,2.34-1,6.6-2.21,12.65.29,19.52,12.85-6.51,26.75-6.65,40.11-9.32.06,4.36,2.4,9.23-2.76,12.42-1.43-2.42-1.78-6-5.9-5.56l-6.36,0c-3.41-1-6.26.09-8.78,2.38l-3.45.46c-6-.22-9.9,3.69-14,6.83-3.16,10.2,2.1,19.53,2,29.25l-5.68-3c.28-2.25,1.24-4.67-1.63-6.2-2.88,1-4.79,2.76-4.63,6.13-5.31,1.21-10.73,2.16-15,6a2.48,2.48,0,0,1-2.21.44l-4.92-1.11a35.75,35.75,0,0,0,10-12.79c-8.75-8.68-16.07-18.09-20.46-29.48,4,.77,7.28,2.38,8.49,6.66,4.65,6.47,7,15.09,15.1,17.46,5.34-1.36,5.05-7.08,9.27-8.18"/><path class="cls-6" d="M271.32,637.12c1.18,5.38,2.43,5.24,3.36,6.41s2.14,2.58,3.28,3.79a1.25,1.25,0,0,1,.4.65,1.19,1.19,0,0,1-.44.92c-2.51,2.66-6,4.51-7.61,7.81a2.84,2.84,0,0,1-.52.87,2.15,2.15,0,0,1-1.55.43c-3.6-.07-6.72-2.49-10.22-3.37a32,32,0,0,1-4.14-1c-3-1.19-4.79-4.35-5.28-7.52a5,5,0,0,1,.08-2.27,5.61,5.61,0,0,1,.86-1.5c4.92-6.93,7-11.39,15-14.86C264.5,627.51,270.15,631.76,271.32,637.12Z"/><path class="cls-5" d="M126.67,764.06c1-1,2-2,2.92-3.06,5-5.52,7.62,9.62,14.69,1.23,2.81-3.34,9.9,4.23,14.7,7.48-4.28,10.39-6,21.37-8,32.24,3.06.84,4.3-1.13,6-1.89,3.88-3.06,8.42-5.34,11.4-9.49.26-.86.54-1.72.83-2.56l5.76-.1-.07.07c-.13,4.18-5.58,7-3,11.89a17.48,17.48,0,0,1-.51,2.69l-3.05.85c-12.45-6.19-14.76,9.07-23.79,9.83,1.43,5.48,2.54,9.72,3.65,14l-3-.68a14.24,14.24,0,0,0-5-10.07c-6.61,2.94-9.36,7.43-7.19,14.09l-.75,5.49c-2.73-11.41-12.2-11-20.91-11.92l.14.14c2-6.27,8.38-1.2,11.5-4.53-.82-5.84-4.87-10.76-4.78-16.86a11.3,11.3,0,0,1,2.1.16c5.08,2.62,3.21,9,6.73,12.45l.71,6,17.12-21.36c4.83-9.71,3.13-19.34.72-30.51-5,4.09-4,8.22-4.5,11.91l-2.92,3C131.58,779.19,134.2,768.76,126.67,764.06Z"/><path class="cls-7" d="M211.25,633.87l-18.63-.25c-6.5-5-12.41-10.29-6.87-19.56,1.92-2.32,6.46.45,7.4-3.94-3.88-.78-7.72-1.6-11.93,1.88v21.61c-4.75,2.45-6.48-7.34-11.73-2.89-1.22-2-2.45-4-3.68-5.93.07-1.1.13-2.2.2-3.3l5.35,2.09c.26-5.27,2.93-11.16-5.71-11.43l.5-3.13c4.84,2.09,6.54-1.22,8.13-4.72l.94-.94a6.06,6.06,0,0,0,1.59.18l1.19.27c7.74,5.72,15.62,3.53,23.51.4,1.39-2.68,2.76-2.7,4.11,0l2.55,2.71c4.65,7.95,1.16,19.15,10.84,24.66C216.3,634.46,213.63,633.51,211.25,633.87Z"/><path class="cls-8" d="M57.1,775.72l3.07,3.14q-.06,4.62-.13,9.22c-1.81.29-4.89.11-4.34,2.49a143.48,143.48,0,0,0,11.61,31.7c1,2,3.53,1.31,5.41,1.69-.5,7.82-3.31,14.87-7.24,21.54-3.16-1.29-2.07-3.24-1.55-5.84,1.6-8-4.69-19.37-12.87-24.32-3.93-3.84-14,5.42-12.43-8.34-3,3.06-2.27,5.71-5.44,6.55-1.26-8.6-11.13-15.64-3.67-25.7,3.69,4.23,1.25,10.88,7,15.74,2.53-3.91,7.68-3,11.76-5.5L44.33,776c.09-3.06.18-6.13.28-9.19q1.32-.15,2.67-.24c2.59,2.86,3.21,7.16,6.78,9.31l-.15-.17c-.71,2.88-.92,5.66,1.51,7.94,3-2.13,1.93-5,1.54-7.81Z"/><path class="cls-9" d="M44.84,721.34c6,1.17,1.6,7,6.34,11.57-1.88-9.42,1.5-16.19,2.84-23.42,3.51.38,3.85,3.1,3.13,5.43-3.25,10.5-2.54,21.62-4.82,32.07-7.77,2.85-13.34-1.11-19.06-4.89l-12,5.26c1.13-13.41.84-26.35,8.18-37.83,1.36-2.57,2.58-5.29,5.8-6.39,5.33,4-3.14,7.84.35,11.52,9,2.79,3.55-9.66,11-9.49.72,5.42-3.21,10.76-1.64,16.29-3,2-3.13,4.34-1,7.17Z"/><path class="cls-9" d="M37,725.72c2.1-2.28,2-4.4-.69-6a2.69,2.69,0,0,0-2.5.83C32.17,723.83,34.58,724.82,37,725.72Z"/><path class="cls-9" d="M35.24,734.79c.62-2.7-.68-3.33-2.18-3.33a2.81,2.81,0,0,0-2.22,1.3,2.51,2.51,0,0,0,1.67,3.31A2,2,0,0,0,35.24,734.79Z"/><path class="cls-5" d="M368,882.15c9.15-3,18.56-5.47,28-11.78-5.06-2.7-10.49-4.42-12.66-9.69l.19-.41a2.7,2.7,0,0,0,1.84-3.11c.79-1.89-.31-2.53-1.88-2.85,5.23-2.68,2.38-7.87,3.86-12.4l-10.08.47c3.16-5,9.84-3.38,13.59-7.26,9.33,9.49,18.68,2.68,28,0l.87,5a3.48,3.48,0,0,1-3.57,2.68,38.59,38.59,0,0,0-18.95,1.49c-4.29,1.4-3,4.22-1.65,7,.23,3.38-.87,7.05,2.19,9.79q.54,2.63,1.1,5.25c1.16,5.35,1.49,11.27,8.68,12.4-9.82,7.71-22.08,9.72-33.11,14.69C370.34,890.43,368.68,886.58,368,882.15Z"/><path class="cls-9" d="M362.38,628c13.35-.88,20.32,13.43,33.31,13.45,3.66-.57,1.51-6.78,6.69-6.77,6.23-.66,10.26,3.92,14.68,7.75-.47.39-.92.79-1.36,1.21-3,.22-4.74-3.88-8.73-2.23-4.4,4.71-4.69,12.84-11.07,16.78-.77-4,.11-8.4-2.91-12.16l-6.57,3.26c-6.4-3.5-12.25-8.65-23.83-7.55l23.88,13.09,0,0c-1.65,4.45-4.2,2-6.85,1.1-6.82-2.3-12.69-7.19-20.26-7.41-1.35-2.5-3.6-2.49-6-2.11a1.42,1.42,0,0,0-1.19-1.24l-.18-1-1.11-.34-4.22-1.38c.31-3.9,2.48-5.73,6.33-5.7,2.29,2.76,4.27,6.47,9,3.63-2-5.71-6.06-2.9-9.05-3.53C350.3,627.72,360.47,632.24,362.38,628Z"/><path class="cls-4" d="M220.17,889.33c-6.18-2.59-11.28-2.59-18.38.86C208.56,890.82,213.23,891.55,220.17,889.33Z"/><path class="cls-10" d="M171.91,799.87c-2.61-4.86,2.84-7.71,3-11.89l5.88-3.48c3.67.59,6.57,4.6,11.05,2.33.89-3.69-.14-8.4,4.53-10.57l11.11-3.5c-.23,11.53,3.65,22.18.57,33.21C196.11,803.22,183.56,804.17,171.91,799.87Z"/><path class="cls-2" d="M298.39,745.22c.15,2.27-1.22,4.69-2.84,4.72-11.75.25-23.51.11-35.26-.18-.6,0-1.14-2.54-1.71-3.9.9-5.07.13-10.09-1-15.1l4.85-.22c4,2.29,1.37,9.44,7.59,10.17,1.05-5.14,8-3.71,9.61-8.62.59-4.5-3.31-6.8-5.37-10.06l12.47-.58-.16-.13a12.24,12.24,0,0,0,.21,2.83c-4,3-1,5.93,1.07,6.88C294.12,734,295.27,740.23,298.39,745.22Z"/><polygon class="cls-2" points="282.69 738.1 282.05 737.55 281.94 738.48 282.69 738.1"/><path class="cls-11" d="M216.85,648.57c-13.36,2.67-27.26,2.81-40.11,9.32-2.5-6.87-1.32-12.92-.29-19.52,11.93-3.53,23.5-1.17,34.78-2.34C221.6,636.4,217.21,643.39,216.85,648.57Z"/><path class="cls-9" d="M196.16,700.6c1-.05,2.41-.56,2.92-.09,4.93,4.56,8.12,19.27,6,27-5.29-2.61-5.91,6.64-10.25,4.84-5.55-3.75,2.37-7.3-1.85-11.58-4.49,8.78-13.83,12.9-18.07,21.66h0l-.38-3.13q.63-10.3,1.25-20.62c4.45.19,6-3.2,7.82-6.3,3.74-4.52,11.81-4.51,12.59-12.1Z"/><path class="cls-11" d="M65.48,845.5c3.93-6.67,6.74-13.72,7.24-21.54,3.81-3.38,2.07-7.69,2-11.73v-17.6c13.58,8,9.46,20.47,8.63,31.09-.84,10.91-2.38,22.48-11.26,30.88l-2.73.49c-.52-1.66-1.77-2.09-3.34-2l-.38-1.15A8.24,8.24,0,0,1,65.48,845.5Z"/><path class="cls-4" d="M359.39,648.55c7.57.22,13.44,5.11,20.26,7.41,2.65.89,5.2,3.35,6.85-1.1,2.64,2.78,4.57,5.42,5.05,9.85.41,3.71,3.11,1.33,4.18-1l5.47.52,3.56,3.25a5.6,5.6,0,0,0-.1,2.08c-7.39-.45-12.46,2.53-14.57,9.86l-.91-.19c.68-3.44-1.23-6.05-2.78-8.78-6.14-5.21-14-4.87-21.24-6.65-4.07-4.12-9.4-5.35-14.8-6.42-3.12-2-2.69-6.79-6.37-8.41l-2.94-3.11c-.53-1.89-4.06-3.23-.88-6.06l6.55,2.65,4.22,1.38a1.62,1.62,0,0,0,1.29,1.37,1.42,1.42,0,0,1,1.19,1.24c-1.42,3-3.32,6.14,2.66,5.54a3.65,3.65,0,0,0,.54,1.18c.19.2.66.12,1,.17l-1.47-1.41A4.66,4.66,0,0,1,359.39,648.55Z"/><path class="cls-6" d="M376.73,803c4.28-7.05,11.4-4.47,17.53-5.08,4.28-.43,8.76,2.66,12.91-.68l1.15,3.16a3.08,3.08,0,0,0-.61,2.6c-6.46,4.23.05,9.66-1.2,14.46a76,76,0,0,0-21,2.87c-5.11-1.28-4.15-7.14-8.28-8.43l.21.35C377.2,809.13,377,806,376.73,803Z"/><path class="cls-9" d="M65.48,845.5a8.24,8.24,0,0,0,.13,8.44l-5.6.9a6.83,6.83,0,0,0-2.58-.73c-5.47-5.1-6-13.68-12.64-18,1.46-.31,1.71-.68.75-1.09l-.55,1.3c-4.57-4.53-6.24-10.52-8.67-15.48,3.94-6.36,12.42,3.47,14.74-5.54,8.18,4.95,14.47,16.28,12.87,24.32C63.41,842.26,62.32,844.21,65.48,845.5Z"/><path class="cls-9" d="M51.93,822.13c-3.14,1.78-4.88,4-1.79,7,1.48,1.43,4.09,1.78,5.19-.39C57,825.41,54.91,823.4,51.93,822.13Z"/><path class="cls-9" d="M56.57,833.91c-1.5.69-2.37,1.94-1.81,3.44a2.42,2.42,0,0,0,3.59,1.18,2.89,2.89,0,0,0,1.1-2.38C59.28,834.66,58.52,833.36,56.57,833.91Z"/><path class="cls-5" d="M362.68,724.22l.06-4.22c5.49,1.3,10.4,5.84,16.24,3.84,3.1-6.17-2.38-8.82-3.42-12.87-1.22-4.72-3.09-9.68,1.53-13.82l1,.79c-1.06,7.37,2.05,11.19,9.58,11.21,4.4,0,8.79,0,13.19,0L407,709,401.68,718l-17.4,2.89c-.3,3.3-.55,6.11-.81,8.92,1,2.07,2,4.15,3.07,6.23-4.2,4.35-4.88,8.71,0,13.09-2.26,3.55-4.4,3.22-6.45-.19-.54-6.72,1.71-13.68-1.66-20.76l-10-.81-.05,0C367.63,724.19,364.88,724.7,362.68,724.22Z"/><path class="cls-11" d="M123.46,683.47c-1.88-2.4-2.7-5.75-6.08-6.83-2.44,4.82-6.89,2.35-10.28,2.38-6.4.05-10,2.65-11.3,8.82-3.64,1.45-2.29,9.64-9.14,6.75l-3.45-.08c-4.82,7.44,2.16,16.12-3,24.44,11.07-10.28,22.47-17.51,37.4-16.37l3,1,3-.16c1.78-3.85,3.72-5.19,6.1-.3a1.48,1.48,0,0,0,2.06.08l6.67,0C133.81,696.34,124.66,692.91,123.46,683.47Z"/><path class="cls-5" d="M281.64,695c-1.75,4.88-8.48,7.19-7,13.7-1.49-1.69-3-3.37-4.44-5.06-2.37,2.15-1.2,4.62-1.82,6.7l-5.85-4c-2.33-3.69-4.56-7.79-9.32-2.52l-.07,0c-3.82-5.07-9.19-6.79-15.23-6.78-2.51,0-4.89.76-5.55,3.69-.8,3.52.63,5.56,4.25,6a2.22,2.22,0,0,0-.67,2.66c-7.55,3.44-1.68,8.15-1.16,12.34-2.81,1.19-5.25,3.55-8.69,2.74-.34-4,4.15-7.93.08-11.94,3.12-4.75,3.94-9.64.63-15.54H217a3.6,3.6,0,0,1,3.46-2.69c7.89-.83,17.18,3.86,22.81-5.82,2.28,3.43,5.23,5.94,9.42,6.7,1.57,1.56,3,2.46,3.84-.63l.06,0c3.23,4.08,7.7,3,11.93,2.86A18.28,18.28,0,0,0,281.64,695Z"/><path class="cls-4" d="M217.64,897.26c6.69-.57,11.69-5.13,7.67-10.4C220.18,880.14,220.56,873,219,866c-.55-2.47-2.88-2.29-4.86-2.32-6.53,9.13-15.84,13.36-26.68,14.58.35,7.32,1.44,13.43,9.81,13.19-.74,4.29-7.64-1.28-7.46,5.06l5.86,1.07c-1.56,2.26-4.06,2-6.33,2.4.67,4.23-1.21,6.07-5.4,5.71l-3.07,0c-1.56.43-3.91-.48-4.08,2.28,2.81,2.31,7.28-.46,9.49,3.36,7.33-.86,14.5,7.64,21.94.38,0-2.54,0-5.21,3.43-5.47a45.16,45.16,0,0,0,16.78-4.44C225.72,897.18,220.33,900.66,217.64,897.26Z"/><path class="cls-9" d="M69,652.2c2.17,2.71,4.08,4.76,1.18,8.88-6.26,8.89-11.58,18.46-17.42,28-5.94-4.17,5.38-9.74-1.6-13.94-5.94,0-3.54,8.65-9,9.57-3.77-1.37-.18-4-.85-5.88,6.66-11.35,12.15-23.51,22.17-32.41C67.38,646.62,65.33,652,69,652.2Z"/><path class="cls-9" d="M59,660.18c2.19,1.24,4.34,1.92,6.42-.22C62,655.61,62,655.61,59,660.18Z"/><path class="cls-9" d="M55.34,665c-.75,1.59-2.12,3.32.2,4.64,1.21.69,3.21.4,3.34-.93C59.06,666.72,57.22,665.63,55.34,665Z"/><path class="cls-10" d="M395.57,851.3c-1.36-2.8-2.64-5.62,1.65-7a38.59,38.59,0,0,1,18.95-1.49c-.75,4.21-7.25.88-7.61,5.81,2.86,2.49,6.79-2.54,10.24,2.85-3.25,4.26,6.75,8.69.9,14.85-.27-1.28-1.11-2-1.69-1.42s.09,1.5,1.37,1.73a3.61,3.61,0,0,0,3.4,2.93c0,2.07-1.47,2.69-3.13,3.09-4.94-5.48-15.82-2.58-16.59-15.25-1.87,4.94-1.49,7.74-4.2,9q-.56-2.62-1.1-5.25c-.94-4.84,6.71-6.18,5.06-11.24C399.65,848.16,397.91,851,395.57,851.3Z"/><path class="cls-10" d="M252.67,695.07c-4.19-.76-7.14-3.27-9.42-6.7-5.63,9.68-14.92,5-22.81,5.82,0-1.05,0-2.1,0-3.15h7.34c-4.34-9.51,1.49-14.3,8-18.6,8.16-.47,9,11.76,17.83,9.94,3,3.51,2.84,7.82,3,12l-.06,0Z"/><path class="cls-9" d="M418.87,835.14c-9.35,2.66-18.7,9.47-28,0l-1.56-4.53c2.63-13.17,13.18-8.31,21.17-9.31C417.63,823.24,416.73,830.12,418.87,835.14Z"/><path class="cls-2" d="M317.45,603.19c15.75-5.73,27.78,5,41.18,9.47,3.45,1.16,4.38,3.79.79,6.4-3.39-2.08-6.47-3.42-6.34,2.72l-6.1.08c-2.73-4.58-6.78-6.46-12-5.87-4.48-8.54-10.05.87-14.94-.91C321.33,610.65,320.94,606.59,317.45,603.19Z"/><path class="cls-9" d="M44.33,776l3.94,22.07c-4.08,2.51-9.23,1.59-11.76,5.5-5.74-4.86-3.3-11.51-7-15.74a46.5,46.5,0,0,1-4.43-28.58l7.43,2c1.55,7.94-3.15,17.69,5.7,23.45C43.29,783.05,40.86,777.76,44.33,776Z"/><path class="cls-9" d="M37.72,795.45c3.37-1,4.81-2.59,3.93-5.36a2.35,2.35,0,0,0-3.36-1.45C36.07,790.15,35.77,792.39,37.72,795.45Z"/><path class="cls-2" d="M126.67,764.06c7.53,4.7,4.91,15.13,11.48,20.38l0,3c-5.06,3.31-8.52,6.94-2.56,12.5-.12,6.69-7.32,9.45-8.6,15.5-3.52-3.46-1.65-9.83-6.73-12.45a20,20,0,0,0,.32-2.79,2.88,2.88,0,0,0,1.78-3.53C123,785.71,127,775.17,126.67,764.06Z"/><path class="cls-10" d="M232.22,787.94q1.84,4.68,3.7,9.34c-1.52,3.58,1.36,6,2.33,8.93.37,7.25,1.44,14.61-3.18,21.1-6.93-4.48-3.29-16.25-13-18.82,1.14-2,2.29-4.1,3.47-6.23-11.07-.36-4.6-10.27-4.38-12.2C221.93,783.34,227.69,785.33,232.22,787.94Z"/><path class="cls-4" d="M129.67,703.16a1.48,1.48,0,0,0,2.06.08c-2.92,6.48-10.7,8.64-13.52,15.22C109,726.24,101.76,735.7,94.76,745c1.3-19.42,5-25.12,25.68-39.13,1.71,0,3.35,0,3.28-2.4l-.2.13Z"/><path class="cls-10" d="M390.09,679.42c2.11-7.33,7.18-10.31,14.57-9.86,4,1.26,8.65.75,12.17,4.31,1.07,5.19.93,10.23-3.16,14.47-7.83,0-15.74,1.25-23.58-1.74Z"/><path class="cls-10" d="M395.38,682.07c.85-1.14,2.86-2.08.66-3.93-.17,1.51-.32,2.82-.47,4.13l-1,.72Z"/><path class="cls-9" d="M268.76,882.21c2,8-5.54,8.15-9.31,11.41-3.7-2.28-11.15,9-12.07-3.33,3.84-3,6.65-6.25,5.79-11.92-.78-5.18-.8-10.66,3.1-15.09a25,25,0,0,0,2.56-.74c4.45.88,6.64-1.32,7.44-5.43,2.55,4.25,6,7,11.26,6.37-6.61,3-14.5,5-12.07,15.15-2.76-.2-4.68-3.76-8.45-1.73-.85,7.7,1.63,9.79,8.6,5.07Z"/><path class="cls-12" d="M368.39,727.32l10,.81c3.37,7.08,1.12,14,1.66,20.76-8.74,4.52-16.87,4.41-24-3.11l3.14-3.16-.07-.07c4.42,4.53,5.86,1.5,5.61-2.64C364.41,735.1,363.63,730.51,368.39,727.32Z"/><path class="cls-2" d="M175,742.44c4.24-8.76,13.58-12.88,18.07-21.66,4.22,4.28-3.7,7.83,1.85,11.58,4.34,1.8,5-7.45,10.25-4.84,0,4.5-2.66,7.1-6.29,9.05-4.84,2.39-6.2,6.46-5.52,11.5-4.73,1.28-9.48.51-14.23.22C175.26,748.05,174.44,745.73,175,742.44Z"/><path class="cls-1" d="M353.08,621.78c-.13-6.14,2.95-4.8,6.34-2.72,2.7,2.41-.57,6.8,3,8.93-1.91,4.25-12.08-.27-9.39,8.86l.06-.1c-3.85,0-6,1.8-6.33,5.7l-6.55-2.65c-3.18,2.83.35,4.17.88,6.06l0,0c-7.43.17-12.66-7.78-20.64-5.55L320,640l3.07-3.35c7.82-.28,10.14-4.71,8.91-11.82a9.12,9.12,0,0,0,2.65-.27l3.51.35c-.44,4.21-2.56,8.93,3.47,11.33,6.93-2.57,5.05-7,2.33-11.53l3.31-.33,2.78.5c1.2,1.61,2.81,3.43,4.75,2.32s.55-2.11-1.06-2.42Z"/><path class="cls-5" d="M262.42,730.54l-4.85.22c1.14,5,1.91,10,1,15.1-.74-.1-1.49-.17-2.24-.22-9.94-1.15,6-6.91,1.93-7.75-9.5-2.35-12,3.63-17.2,4.05l3.26,6.69h-6c.95-6.4-3.76-11.81-3.14-18.15a11.53,11.53,0,0,0,2.55.29,10.81,10.81,0,0,1,.62,2.77c-.09,2.27,1.28,2.77,3.19,2.63,6.27.08,8.65-4.92,11.73-9,7.58-4.43,14.5-10.19,24.19-10.59l-2.28-5.36c5.51,1.54,9.18,5.17,11.56,10.24l-12.47.58C269,723,263.78,724.11,262.42,730.54Z"/><path class="cls-5" d="M390.09,679.42v7.18c7.84,3,15.75,1.75,23.58,1.74l-.81,6.42-5.54-.9c-2.84-3.83-5.77-2.88-8.75-.19-3.44,1.13-6.84.18-9.76-1.24-6.4-3.15-8.15,1.73-10.69,5.51l-1-.79c.16-2.47-.65-5.8.65-7.27,6.29-7.11,2.7-12.48-2.52-17.53-3.16-3.06-6.84-5.59-10.3-8.36l.24-.19c7.22,1.78,15.1,1.44,21.24,6.65-1.78,0-4.83-.22-4.48,1.68.67,3.57,2.39,7.27,7.26,7.1Z"/><path class="cls-2" d="M389.39,793.64c-4.8,1.24-8.31-.38-8.47-5.46-.25-8.3-2.31-16.81,2.05-27,4.42,6.27,13.37,2.79,15.74,11.15a14,14,0,0,0-.32,2.59c-2.45,1.52-7.28-1.56-7.07,5.81C391.41,784,393.42,790,389.39,793.64Z"/><path class="cls-3" d="M341.51,776.78c-1.92-5.59-8.32-2-11.62-5.94-1.7-3.72-2.47-7.87,0-12.51,7.27.56,12.75,5.2,18.43,8.72,5.88,3.64,6.74,9.54,2.42,15.41-2.38,3.24-4.15-.21-6.17-.87Z"/><path class="cls-9" d="M186.26,911.25c7.33-.86,14.5,7.64,21.94.38H222v9.5c-6.18-5.18-11.81,1.25-18.91-1.42-4.08-1.52-9.3,9.74-18,6.09-3.12-3.22-1.05-8.26-3.31-12.26C180.75,911.68,184.43,911.57,186.26,911.25Z"/><path class="cls-9" d="M189.51,920.67l2.4-1.15c-.3-.38-.6-1.08-.91-1.08a12.88,12.88,0,0,0-2.58.43C188.78,919.47,189.14,920.07,189.51,920.67Z"/><path class="cls-13" d="M256.27,863.28c-3.9,4.43-3.88,9.91-3.1,15.09.86,5.67-1.95,8.89-5.79,11.92l-1.33,0-1.33-.1c-2-7.33,3.57-12.89,4.45-19.56-5.22-5.42-8.8-11.54-7.35-19.57l4.54,5c1.88-1.86.3-5.11,3-6.28C255.5,852.37,251.41,860.11,256.27,863.28Z"/><path class="cls-2" d="M175,787.91l-5.76.1c-1.09-2.38-1.84-5.19-5.95-4.48-.21,3.91,1.46,6.14,5.12,7-3,4.15-7.52,6.43-11.4,9.49,2.52-10.57,2.2-21.86,8.2-31.59,1.08-1.74.27-3.86-2.17-4.57,3.15-4.87,4.92-3.17,5.85,1.33.54,2.66-.74,5.9,2.65,7.55s3.16,4.16,1.56,7.11c-1.24,2.28-1.49,4.56,1.91,5.36A7.92,7.92,0,0,1,175,787.91Z"/><path class="cls-9" d="M317.45,603.19c3.49,3.4,3.88,7.46,2.55,11.89l-.51,3.8c-2.89-3.26-5.84-2-8.8-.12l.09.07c-6.73-6.34-13.37-12.77-20.26-18.93-1.85-1.65-4.17-2.69-4.32-5.56l6.44.32c8.6,1.76,14.6,11.12,24.71,8.45Z"/><path class="cls-6" d="M383.47,729.76c.26-2.81.51-5.62.81-8.92l17.4-2.89a30,30,0,0,0,3.73,2.36c2.57,1.17,6.17,1.1,5.86,5.37s-2.8,6-6.83,6.38c-2.92.25-5.83.75-8.75,1.13-.57-1.49-1.45-2.58-3.24-2.46l-.35-.24c-1.83-3.69-3.8-3.19-5.85-.19l-1.45,0Z"/><path class="cls-10" d="M377.22,811.86c-1.05,2.57,1.51,6.39-1.93,7.89-4.56,2-5.44-2.8-7.64-5-3.13-11.64-14.55-13.12-22.75-18.56l-.84-5.32a4.89,4.89,0,0,0-.07-2.76A153.35,153.35,0,0,1,371.4,806c2.71,1.41,1.66,6.44,6,6.26Z"/><path class="cls-2" d="M317.35,603.11c-10.11,2.67-16.11-6.69-24.71-8.45l3.79-7.12c9.73,0,17.1,6.09,25.15,9.45C322.06,601.06,318.16,600.83,317.35,603.11Z"/><path class="cls-2" d="M398.39,774.87a14,14,0,0,1,.32-2.59c3.13-2.57,5.85-6.18,11.78-3.73-1.32,7.81,4.2,15.35,2.47,23.34-4.11,4.05-8.15,1-11.91,1.41-.73-1.64-2.4-3-1-5.16C401.73,785.6,400.47,776.9,398.39,774.87Z"/><path class="cls-2" d="M386.51,749.08c-4.85-4.38-4.17-8.74,0-13.09,4.43.18,8.85.33,13.27.55,4.17.21,8.64,1,7.9,6.32-.56,4-3.25,7.29-8.44,5.19C394.87,746.27,390.66,747.45,386.51,749.08Z"/><path class="cls-6" d="M208.19,655.43c4.12-.43,4.47,3.14,5.9,5.56-2.41,9,2.27,19.14-4.42,27.59-1.43-1.36-2.76-2.62-4.08-3.89C206.13,674.91,202.39,664.75,208.19,655.43Z"/><path class="cls-6" d="M419.7,866.3c5.85-6.16-4.15-10.59-.9-14.85-3.45-5.39-7.38-.36-10.24-2.85.36-4.93,6.86-1.6,7.61-5.81a3.48,3.48,0,0,0,3.57-2.68c6.43,1.57,6,7.28,6.42,11.82a25.23,25.23,0,0,0,5.65,14.1l-9,3.51a3.61,3.61,0,0,1-3.4-2.93Z"/><path class="cls-2" d="M163.1,912.37q-.48,3-1,5.92A117.49,117.49,0,0,1,123.2,902.4l2.67-2.85C138.79,902.36,149.81,910.65,163.1,912.37Z"/><path class="cls-2" d="M44.33,776c-3.47,1.74-1,7-6.11,8.65-8.85-5.76-4.15-15.51-5.7-23.45,3.14-.59,6.25-1.88,9.47-.39l-.16-.16c.14,2.41.42,4.75,2.78,6.16Z"/><path class="cls-14" d="M102.54,646.33c9.17-4.28,10.67-3.56,11.73,5.68l.3-.16c-5.86,2-8.37,6.61-9.32,12.35l.25-.25c-3-1-3.51,3.49-6.33,3l.17.14c-3.85-5.08-2-10.13.07-15.18,3-.88,3.75-3,3.15-5.86Z"/><path class="cls-9" d="M183.64,712.4c-1.8,3.1-3.37,6.49-7.82,6.3-.81-6.79-2.24-13.59.18-20,4.57-3.34,9.6,4.72,13.63-1.19l1-.8c2.76,0,4.2,1.88,5.51,3.93l.07-.3C190.93,703.18,183.73,704.1,183.64,712.4Z"/><path class="cls-4" d="M96.19,884.31c8.12,2.52,16.23,7.33,24.39.11l-.28.25c2.93,1.87,8-2.92,9.6,3.11-16.77,9.4-24.37,9.65-33.55,1C94.87,887.42,93.6,885.9,96.19,884.31Z"/><path class="cls-4" d="M120.58,884.42c-4.88.09-9.87,1.55-14.71-1.06-1.16-6.87,6.55-6.61,8.56-10.8l3.65-.83a10.21,10.21,0,0,1,2.28.9c1.86,3.08,3.85,5.18,8,3.12,2.79-1.38,4.31.52,4.72,3.3a2.73,2.73,0,0,0-.63,2.39c-3.88,1.7-9.39-2.75-12.13,3.23Z"/><path class="cls-6" d="M398.39,774.87c2.08,2,3.34,10.73,1.69,13.27-1.43,2.19.24,3.52,1,5.16-3.85,1.2-7.72,2-11.66.34,4-3.66,2-9.6,1.93-13C391.11,773.31,395.94,776.39,398.39,774.87Z"/><path class="cls-9" d="M241.82,851.08c-1.45,8,2.13,14.15,7.35,19.57-.88,6.67-6.45,12.23-4.45,19.56-2.19.24-3.24-.86-3.47-2.94q0-7.39,0-14.77c-.12-1.13-.25-2.26-.38-3.39-.16-3.74-3.58-6.67-2.7-10.68l.12-7.14c.17-2.12.58-4.13,2.51-5.44Z"/><path class="cls-2" d="M240.86,869.11c.13,1.13.26,2.26.38,3.39-5.9.62-5.17,10.3-12.41,9.1a50.43,50.43,0,0,1-5.05-21.16C230,862.34,232.86,870.78,240.86,869.11Z"/><path class="cls-9" d="M163.1,912.37c-13.29-1.72-24.31-10-37.23-12.82.59-1.82,1.09-4.87,3.21-4.16,11.34,3.76,22.55,7.91,33.69,12.21C164.87,908.41,165,910.63,163.1,912.37Z"/><path class="cls-6" d="M398.86,866.34c2.71-1.22,2.33-4,4.2-9,.77,12.67,11.65,9.77,16.59,15.25-2.78,4.52-8.77,2.69-12.11,6.11C400.35,877.61,400,871.69,398.86,866.34Z"/><path class="cls-9" d="M313,776.62c-8.63-.76-7.86-7.33-8.2-13.22l2.93.12c6,1.74,10.08.91,12.2-2.46,5.88,2,7,6.42,5.95,11.93-4.7,1.7-8.62-.12-11.61-3.56-2.85,2.94.06,4,.24,5.68C314,775.6,313.54,776.11,313,776.62Z"/><path class="cls-11" d="M78,748.4c-7.84-4.11-7.87-4.45-1.84-22.72C81.54,729.8,81.54,729.8,78,748.4Z"/><path class="cls-4" d="M171.91,799.87c11.65,4.3,24.2,3.35,36.11,6.1v6.17c-8.19-7-14.07,1-20.85,3.22l-.92-1.19c.68-3.06,6.32-3.12,4.68-7.61-6.14-1.08-12.63.75-18.36-2.65q-.57-.69-1.17-1.35A17.48,17.48,0,0,0,171.91,799.87Z"/><path class="cls-9" d="M404.76,667.48l-3.56-3.25c3.44-.11,7,.38,10.09-1.66,1.12-3.4-3.36-4.93-2.56-9,2.77-1.66,5.44-4.94,10-2.55.53.6,1.07,1.2,1.6,1.81l-2.15,13.58Z"/><path class="cls-2" d="M220.08,730c2.35-3.69,6-2.38,9.25-2.32-1.44,4.67-2.48,9.31,2.35,12.78,3.63,2.6,2.88,5.33.5,8.23l-9.21-.44C224.41,741.76,221.36,736,220.08,730Z"/><path class="cls-2" d="M187.05,768.45c6.53-5.07,9.94-12.08,18.32-10.84,3.36,1.93,3,7.18,1.85,7.29C200.82,765.49,196.62,776.11,187.05,768.45Z"/><path class="cls-9" d="M123.2,902.4a117.49,117.49,0,0,0,38.92,15.89c-2.57,5.1-6.77,2.8-10,1.64-9.7-3.47-19.2-7.49-28.77-11.29-.85-1-1.71-2-2.56-2.95C120.55,903.84,121.7,903,123.2,902.4Z"/><path class="cls-2" d="M208.19,655.43c-5.8,9.32-2.06,19.48-2.6,29.26l-4,3.66c-5.92-11-2.15-22,.19-33Z"/><path class="cls-2" d="M262.39,898.87c3.07.15,5.22-3.26,9.6-1.64.31,3.92,3.42,7.43,5.56,11.47-2.86,0-7.62,3.2-8,1.17-1.8-10.46-8.95-3.53-14.09-3.67C255.75,900.45,259.34,899.93,262.39,898.87Z"/><path class="cls-2" d="M237.71,730.77a11.53,11.53,0,0,1-2.55-.29c-1.79-.08-2.36-1.45-2.95-2.8,3.68-.84,3.09-3.45,2.53-6.06-.52-4.19-6.39-8.9,1.16-12.34,2.69.45,5.91-.49,8.11,3.79C238.62,717.44,240,724.66,237.71,730.77Z"/><path class="cls-14" d="M307.56,736.55c-1.05,5.27,5,8.37,4.13,14.19-5.45-1-11-1.24-12.82-7.92l.32-13a5.48,5.48,0,0,1,2.61.81l-.2-.26a3.53,3.53,0,0,0,3.19,3.29l-.21-.21c.39,1.75,1.14,3.15,3.2,3.26Z"/><path class="cls-9" d="M283.75,594.54c-4.8,7.82-5.58,7.82-12.34,0,.46-3.55,1.47-6.75,5.31-8.27C281.16,587.14,283.14,590.25,283.75,594.54Z"/><path class="cls-10" d="M220.08,730c1.28,6,4.33,11.78,2.89,18.25h-8.15C215.93,741.76,209.33,733.8,220.08,730Z"/><path class="cls-2" d="M180.83,770.07c-1-4.49-7-3.68-8.3-7.83C178,756,178,756,186.6,757.55c1.07,5.57-2,9.17-6,12.31Z"/><path class="cls-2" d="M244.33,748.63l-3.26-6.69c5.21-.42,7.7-6.4,17.2-4.05,4.07.84-11.87,6.6-1.93,7.75C254.26,754.38,248.62,748.78,244.33,748.63Z"/><path class="cls-6" d="M407.32,693.86l5.54.9c-3.39,4.16-5.61,8.8-5.83,14.26l-6.14.11c-4.43-4.92.74-9.63.31-14.46Z"/><path class="cls-4" d="M99.39,646c-2.08-5.59-4,.92-6,.11L81.2,658.45c-2.43-5.29-7.21-6-12.21-6.25,2.17,2.71,4.08,4.76,1.18,8.88-6.26,8.89-11.58,18.46-17.42,28-5.94-4.17,5.38-9.74-1.6-13.94-5.94,0-3.54,8.65-9,9.57-3.77-1.37-.18-4-.85-5.88-9.72,6-14.84,19.22-11.86,30.73,1.36-2.57,2.58-5.29,5.8-6.39,5.33,4-3.14,7.84.35,11.52,9,2.79,3.55-9.66,11-9.49.71,5.39-3.16,10.7-1.66,16.2,5.83,1.22,1.52,7,6.23,11.54-1.88-9.42,1.5-16.19,2.84-23.42a4,4,0,0,1,3-3.15c8.61-7,8.7-19,15.51-27q4.31-6.19,8.59-12.4c5.46-6.84,10.82-13.77,17.85-19.15A1.61,1.61,0,0,1,99.39,646Z"/><path class="cls-2" d="M196.34,776.26c-4.67,2.17-3.64,6.88-4.53,10.57-4.48,2.27-7.38-1.74-11.05-2.33C183.71,777.5,188.31,773.63,196.34,776.26Z"/><path class="cls-9" d="M232.21,727.68c.59,1.35,1.16,2.72,2.95,2.8-.62,6.34,4.09,11.75,3.14,18.15l-6.12,0c2.38-2.9,3.13-5.63-.5-8.23-4.83-3.47-3.79-8.11-2.35-12.78A2.53,2.53,0,0,1,232.21,727.68Z"/><path class="cls-4" d="M228.83,881.6c7.24,1.2,6.51-8.48,12.41-9.1q0,7.38,0,14.77C236.51,886.68,230.58,888.72,228.83,881.6Z"/><path class="cls-2" d="M138.49,591.12c2.12,1.48,4.27,3.82,1.24,5.47-5.91,3.21-12.1,6.68-19.36,4C124.71,594.19,132.91,595.16,138.49,591.12Z"/><path class="cls-2" d="M86.46,687.48c2.52-7.92,3.16-17,12.88-20.39l-.17-.14c.5,8.76-7.5,13.85-9.35,21.6a2.6,2.6,0,0,1-2.26,0Z"/><path class="cls-4" d="M120.36,872.63a10.21,10.21,0,0,0-2.28-.9c4.11-4.2,11.16-.84,15-5.81l.95.05,1-.16,4.09.51-1.4,9.55-1-.14C132,870.76,126.11,872,120.36,872.63Z"/><path class="cls-9" d="M105.29,606.25c4,2.62,3.33,8.87,9.52,10.77l-6.24,5.11-3.2-.36-.25-.29c3.39-6.48.12-8.55-5.85-8.83l-.56-.65Z"/><path class="cls-10" d="M344,788.06a4.89,4.89,0,0,1,.07,2.76c-.85-.07-1.71-.12-2.56-.16-2.19-4.9-10.27-7.21-6.46-14.74,2.25-.47,4.47-.61,6.47.86l3,4.81Z"/><path class="cls-11" d="M81.67,774.94l-.57-10.8c.27-2.86.56-5.73-3.57-6-2.58-.44-4.78,0-6,2.6-.15,6.26-.36,12.51-.43,18.77-.07,5.05.59,9.76,6.67,11.2C84.47,786.83,79.59,780,81.67,774.94Z"/><path class="cls-10" d="M175,785.25c-3.4-.8-3.15-3.08-1.91-5.36,1.6-2.95,1.82-5.36-1.56-7.11,1.72-5.7,6.35-1.36,9.34-2.71l-.23-.21C183.34,776.68,178.1,780.58,175,785.25Z"/><path class="cls-4" d="M54.06,775.9c-3.57-2.15-4.19-6.45-6.78-9.31.87-2.62-.82-5.81,2.32-8.68,6.12,3.52,3.23,10,4.66,14.81C54.19,773.78,54.13,774.84,54.06,775.9Z"/><path class="cls-3" d="M81.67,774.94l-.57-10.8c2.68-1.44,2-6.14,6-6.25C86.27,763.87,91.32,771.76,81.67,774.94Z"/><path class="cls-2" d="M320,761.06c-2.12,3.37-6.24,4.2-12.2,2.46C310.88,758,314.56,755.25,320,761.06Z"/><path class="cls-9" d="M120.36,872.63c5.75-.66,11.6-1.87,16.27,3.1-.79,1.54-1.66,3-3.57,3.32-.41-2.78-1.93-4.68-4.72-3.3C124.21,877.81,122.22,875.71,120.36,872.63Z"/><path class="cls-6" d="M266,763.56c-.42,2.37-.85,4.74-1.32,7.39-6.7-6.75-6.7-6.75.76-10.18A8.35,8.35,0,0,0,266,763.56Z"/><path class="cls-8" d="M60,766.64l-1.4.05h-1.4c-.19-4.58-.59-9.33,6.61-8.74C65.55,762.38,60.37,763.5,60,766.64Z"/><path class="cls-9" d="M422.65,651.85a5.9,5.9,0,0,1-2.31,1c-.53-.61-1.07-1.21-1.6-1.81,1-3.27-.67-5.48-3-7.38.44-.42.89-.82,1.36-1.21,5.42,1.13,8.8,3.43,5.45,9.57Z"/><path class="cls-2" d="M120.3,884.67c2.74-6,8.25-1.53,12.13-3.23,1,2.83.93,5.27-2.53,6.34C128.31,881.75,123.23,886.54,120.3,884.67Z"/><path class="cls-9" d="M193.31,748.07c-.68-5,.68-9.11,5.52-11.5C199.3,741.52,197.8,745.51,193.31,748.07Z"/><path class="cls-2" d="M377.43,812.21c-4.37.18-3.32-4.85-6-6.26l5.33-3C377,806,377.2,809.13,377.43,812.21Z"/><path class="cls-4" d="M181.41,584.7c-1.56-.16-2.69-.87-2.28-2.58a3.23,3.23,0,0,1,1.59-2c1.56-.68,2.6.27,2.9,1.75C184,583.56,183,584.41,181.41,584.7Z"/><path class="cls-10" d="M331.51,776.13c.15,1.76,1.29,3.67-.77,5.14-3.24-.7-4.43-3-4.93-6Z"/><path class="cls-7" d="M335,727.47l-.7,6.54-5.16-.28A7.79,7.79,0,0,1,335,727.47Z"/><path class="cls-9" d="M386.39,633.71a5.9,5.9,0,0,1-5-5c5-1.16,5,1.89,4.8,5.2Z"/><path class="cls-5" d="M98.93,647.76a1.61,1.61,0,0,1,.46-1.81l3.17.1c.6,2.84-.11,5-3.15,5.86Z"/><path class="cls-4" d="M190.91,581.42c.36,0,.92-.06,1,.12a1.73,1.73,0,0,1,.29,1.34c-.63,1.48-1.33,1.42-1.73-.14C190.41,582.36,190.77,581.86,190.91,581.42Z"/><path class="cls-5" d="M386.25,730.3c2.05-3,4-3.5,5.85.19Z"/><path class="cls-9" d="M184.1,694.8h6a17.8,17.8,0,0,1,.5,1.87l-1,.8C187.36,697.46,185.23,697.16,184.1,694.8Z"/><path class="cls-2" d="M86.66,694.59l-3.45-.08c.79-2.48.77-5.33,3.25-7l1.1,1.08a5.47,5.47,0,0,0,.51,2Z"/><path class="cls-2" d="M57.43,854.11a6.83,6.83,0,0,1,2.58.73l.21,5.4-.34.35C57,859.22,56.76,856.83,57.43,854.11Z"/><path class="cls-8" d="M54.06,775.9c.07-1.06.13-2.12.2-3.18a21.62,21.62,0,0,0,2.54,0c.11,1,.21,2,.29,3l-.13.14-3.05-.13Z"/><path class="cls-9" d="M422.51,652l.38.24c.38.62.07.12-.24-.38Z"/><path class="cls-5" d="M392.45,730.73c1.79-.12,2.67,1,3.24,2.46A3,3,0,0,1,392.45,730.73Z"/><path class="cls-2" d="M63.31,863.12l1.89,1.57c-1.77,1.95-1.84-.16-2.43-1Z"/><path class="cls-9" d="M386.18,633.92l2.12,1.19c-2.36,1.88-1.27-1-1.91-1.4Z"/><path class="cls-2" d="M102.39,627.51l-3.09.33s-1.46-3.69-.94-5.53a14.09,14.09,0,0,0-9.49-3.64c-3.82.08-4.41,2.91-4.92,5.8-3.28,3-8.3,4.77-8.63,10.19,2.59,1.51,4.06,0,5.69-.67v0a3.4,3.4,0,0,0,2.94,3.2,4.59,4.59,0,0,0,.13,2.52c.29.8.38,2.1.89,2.29,1.62.62,2.14-.59,2.39-1.92l1.36.18,1.41-.2q1.66,3,3.31,6c2,.81,3.87-5.7,6-.11l3,.09C99.08,639.89,104.6,633.67,102.39,627.51Z"/><path class="cls-5" d="M122.39,796.7a2.88,2.88,0,0,1-1.78,3.53c-.07-1.14-.14-2.27-.22-3.41l-.09.06A8.14,8.14,0,0,0,122.39,796.7Z"/><path class="cls-2" d="M123.72,703.45c.07,2.39-1.57,2.45-3.28,2.4a15.07,15.07,0,0,1,.1-2.23Z"/><path class="cls-2" d="M120.76,905.69c.85,1,1.71,2,2.56,2.95C121.57,908.44,120.64,907.51,120.76,905.69Z"/><path class="cls-2" d="M66,855.09c1.57-.09,2.82.34,3.34,2A2.85,2.85,0,0,1,66,855.09Z"/><path class="cls-2" d="M60.22,860.24l3.09,2.89-.54.54-2.89-3.08Z"/><path class="cls-13" d="M310.84,836.67a15.16,15.16,0,0,1-12.43-6.19c-2.26-7.48,7.22-2,7.5-7.91-8.8-5.34-2.7-13-1.72-20.32-.56-6,1.45-11.49,3.51-16.89,1.58-4.12,3.63-.67,5.45.13q.36,5.78.74,11.53c-3.21,1.24-5.65,3-4.87,7.33,4-1.26,5.05-3.93,4.71-7.47,4.64-.24,6.95,5.86,12.08,4.54,5.18-3.68,4.27-7.19-.11-10.68,4-5.82,7.36.52,11.06.53,1.85,3,2.05,5.91-.48,8.67-4.28,4.27-6,11.32-13.42,12.18-1.13-2.18-2.53-4-6.26-4.34.12,3.52-6.13,4.91-2.9,10.1,4.11-.64,4.67-6.49,9.3-5.94,0,1.06-.05,2.13-.07,3.19-3.66,1-4.66,2.61-1.46,5.43,2.2-1.6,1.26-3.66,1.37-5.5,2.32.47,5,.43,4,4.22-1.16,4.68-1,9.73-3.95,13.9Z"/><path class="cls-3" d="M292.53,844.81a3,3,0,0,0,3.3-1.9l5.73-.75,6.31.23c6.32.66,6.62,5.26,5.93,9.85-1,6.47-3.08,12.53-9.63,16.14L295,864.84c-4.65-5-11.08-6.89-17-9.7.22-2.27-3.16-3.91-.71-7.26C282.38,848.61,287.38,846.44,292.53,844.81Z"/><path class="cls-11" d="M377.25,842.38l10.08-.47c-1.48,4.53,1.37,9.72-3.86,12.4-2.51,3-7.51,2.1-9.38,6.05l.22-.13-5.91.38a2.71,2.71,0,0,0-3.16,2.1l-20.72,6.93c-5.06.15-5.1-2.58-3.56-6.21,4-4,9.34-4.76,14.47-6l6-.5c3.14-2.7-2.74-1.81-1.68-2.95,1.27-7.23,9.08-4.13,11.46-8.71l-.11.13c2.38-.4,5.06-.2,6.22-3.08Z"/><path class="cls-10" d="M278,855.14c5.91,2.81,12.34,4.69,17,9.7,1.5,1.29,3.08,2.53,3.27,6-10.43,1.33-19,8.59-29.51,11.39l-3.15-.24-.15-3.34c-2.43-10.19,5.46-12.16,12.07-15.15.35-.31.88-.57,1-.94s-.34-.79-.65-1.08C273.93,857.78,273.92,857.79,278,855.14Z"/><path class="cls-10" d="M285.11,863.88l-1,1a14.47,14.47,0,0,0,2.41,1c.24.06.66-.56,1-.87Z"/><path class="cls-3" d="M365.9,830.13c14.82-8.14,14.82-8.14,23.38.46l1.56,4.53c-3.75,3.88-10.43,2.27-13.59,7.26l.1-.09c-2.64-.12-5.26-.2-6.22,3.08l.11-.13C363.22,842.41,360.57,837.68,365.9,830.13Z"/><path class="cls-2" d="M341.47,800.35c-4.29,4.44-2.5,8.93.19,13.14,3.62,5.68,7.57,11.15,11.37,16.71l-6.3,2.65c0-9.29-6.08-14.58-12.26-20.7-4.35,7.24-6.73,13.6-5.41,20.87l-6.15.16c3-4.17,2.79-9.22,3.95-13.9.95-3.79-1.7-3.75-4-4.22l.09.07c0-1.06,0-2.13.07-3.19l-.14.18c7.38-.86,9.14-7.91,13.43-12.18Z"/><path class="cls-10" d="M329.06,833c-1.32-7.27,1.06-13.63,5.41-20.87,6.18,6.12,12.27,11.41,12.26,20.7Z"/><path class="cls-15" d="M355.43,857.4c-5.13,1.27-10.47,2-14.47,6-8.37,0-15,6.62-23.6,6a130.36,130.36,0,0,1,35.8-15.18C354.47,853.93,355.48,855.74,355.43,857.4Z"/><path class="cls-14" d="M344.52,869.64l20.72-6.93c-3.24,8.73-12.41,6.55-18.49,10.06C345.18,872.31,344,871.58,344.52,869.64Z"/><path class="cls-2" d="M383.32,860.68l-9.1-.31c-1.76,2.89-3.6,4.42-5.82.24a2.71,2.71,0,0,0-3.16,2.1c-3.24,8.73-12.41,6.55-18.49,10.06,2.31,14.14-1.82,16.83-17.55,11.4L329,879a4.83,4.83,0,0,0,.73-1.3,3,3,0,0,0-.27-1.35c-15,1.75-27.94,8.87-41,16.19l4.13.95c0,2,0,3.94,0,5.91-1.25,6.11-5.91,8.21-11.23,9.52.56,2.34,2.46,3.5,4.39,2.94,14.52-4.16,30.11-7.11,41.87-16.34,4.81-3.77,7.2-.85,10.47-1.82,4.41,1.21,1.25,7.88,7.34,8.88,5.65-1.59,10.68-5.87,15.79-9.34l-1.53-7.78c2.74-1,2-4.08,3.54-6.07l4.79,2.73c9.15-3,18.56-5.47,28-11.78C390.92,867.67,385.49,866,383.32,860.68Z"/><path class="cls-9" d="M133.06,865.92c-3.82,5-10.87,1.61-15,5.81l-3.65.83c-.13-8.65.22-17.4-5.67-24.72,4.12-1.9,2-5.88,2.93-8.83,2.48.56,4.37-.14,5.51-2.51C125.32,844.78,127.37,856.33,133.06,865.92Z"/><path class="cls-4" d="M74.69,812.23c.1,4,1.84,8.35-2,11.73-1.88-.38-4.42.32-5.41-1.69a143.48,143.48,0,0,1-11.61-31.7c-.55-2.38,2.53-2.2,4.34-2.49l-.1-.27c.68,3.23-1.08,7.28,3.14,9.33l-.14-.27c-1.12,8.76,5.76,14.77,6.88,22.83C74.12,818.16,71.84,813.74,74.69,812.23Z"/><path class="cls-3" d="M60,788.08q.08-4.61.13-9.22c10.5,4.9,12,8.37,10.41,23.34-5.11,1.9-4.58-4.29-7.64-5.33l.14.27c-.61-3.26.47-7.09-3.14-9.33Z"/><path class="cls-3" d="M90.08,797c.11,4.14,2.2,7.64,4.26,10.9,4.57,7.25.94,11.37-6.14,17.73.5-11.36-3.9-20.08,2-28.48Z"/><path class="cls-4" d="M111.69,839c-1,3,1.19,6.93-2.93,8.83-3.26-6.05-6.39-12.15-6.87-19.18-.17-2.52-.17-5,3.46-4.8Q108.53,831.44,111.69,839Z"/><path class="cls-2" d="M105.87,883.36c-1.16-6.87,6.55-6.61,8.56-10.8-.13-8.65.22-17.4-5.67-24.72-3.26-6.05-6.39-12.15-6.87-19.18-.17-2.52-.17-5,3.46-4.8.06-1,.11-2,.16-3.05l6,3.44c2-6.27,8.38-1.2,11.5-4.53-.82-5.84-4.87-10.76-4.78-16.86l-.27-5.63c1.58.27,1.56-.42,2.38-.4V762.18c-7.18,1.58-13.24,1.7-18.33-2.14-5.26-4-6.81.56-9.28,3.35-2.75-.93-2.35-5-5.55-5.5-.87,6,4.18,13.87-5.47,17.05-2.08,5.07,2.8,11.89-3.94,15.8-6.08-1.44-6.74-6.15-6.67-11.2.07-6.26.28-12.51.43-18.77-4.15,2.26-1,7.54-4.65,10.62-2.23-1.56-5.52-1.54-6.89-4.75l-1.4.05h-1.4l-.36,6.09c.12,1,.22,2,.3,3l3.08,3.14c10.5,4.9,12,8.37,10.41,23.34-5.11,1.9-4.58-4.29-7.64-5.33-1.12,8.76,5.76,14.77,6.88,22.83,4.3-1.54,2-6,4.87-7.47v-17.6c13.58,8,9.46,20.47,8.63,31.09-.84,10.91-2.38,22.48-11.26,30.88l-.33,3.48.71.71c2.55.05,4.88-.25,3.16,3.86-5.54,13.24-.54,19.26,14.2,17.38,2.6-.33,4.9-.27,6.39,2.28,8.12,2.52,16.23,7.33,24.39.11C115.7,884.51,110.71,886,105.87,883.36ZM88.2,825.59c.49-11.27-3.82-19.94,1.91-28.28.22,4,2.23,7.38,4.23,10.55C98.91,815.11,95.28,819.23,88.2,825.59Z"/><path class="cls-5" d="M111.69,839q-3.16-7.57-6.34-15.15c.06-1,.11-2,.16-3.05l6,3.44-.14-.14c.24,2.4.75,4.69,2.88,6.22q1.49,3.09,3,6.17C116.06,838.87,114.17,839.57,111.69,839Z"/><path class="cls-9" d="M99.8,864.32c-3.3,7.64-8,9.44-14.4,11.38C87.47,868.35,92.58,866.78,99.8,864.32Z"/><path class="cls-1" d="M344,649c3.68,1.62,3.25,6.36,6.37,8.41l-.42,1c-5.74-.79-10.68.59-15.26,6.11,4.77,4.88,6,11.73,9.22,17.66l.1-.12c-8,0-15.95,0-23.93.14a30,30,0,0,0-4.29.66c-4,3.09-1.77,7.56-2.86,11.19-3.79-2.39.24-6.92-3.41-10.22-8,3.08-15.13,10-24.71,10.53,16.44-9.78,21.22-26.56,26-43.81l-8.62-11.21a4.15,4.15,0,0,0-1-2.29l.72-3.36.13-.35c5.46,3.73,11,7.28,18.05,6.65l.39.29c7.14,4.93,13.65,11.57,23.66,8.61Z"/><path class="cls-1" d="M338.29,675.64c-6.56-10.13-15-14.73-25.83-17.77-.36,5.39-.65,9.65-.93,13.8C319.77,676.19,328.05,677.29,338.29,675.64Z"/><path class="cls-7" d="M350.36,657.38c5.4,1.07,10.73,2.3,14.8,6.42l-.24.19a35.15,35.15,0,0,0-3.81,1.45c2.28,8.68,1,18.37,7.15,26-7,1.47-7.07,11.81-15.14,12,3.49-5.1-.81-6.16-4.05-7.77l5.73-4.4c-1.9-5.64-8.9-4.35-10.8-9.15l-.1.12,8.21-.65c-9.26-7.72.45-15.67-2.17-23.12Z"/><path class="cls-9" d="M275.16,711.21l2.28,5.36c-9.69.4-16.61,6.16-24.19,10.59,2.48-5.43-1.34-11.86,2.94-17.43,3.88.15,7.94,5,12.15.59.62-2.08-.55-4.55,1.82-6.7,1.47,1.69,2.95,3.37,4.44,5.06A3.82,3.82,0,0,0,275.16,711.21Z"/><path class="cls-7" d="M347.29,719.57c-3.13,4.17-8.58,4.75-12.33,8-.15-2.47.11-5.06-.59-7.36s-2.36-4.31-3.58-6.4c-5.69-2.71-12.06,3.77-17.11-1.72a8.54,8.54,0,0,0,0-2c5-.45,8.26-3.25,10.39-9.08,3.79,5.32,7.92,7.84,13.43,4.85C334.23,717.14,334.43,717.43,347.29,719.57Z"/><path class="cls-13" d="M347.29,719.57c-12.86-2.14-13.06-2.43-9.82-13.76l.61-1.06,9-1.35-.13-.07c3.35,4.45,3.24,9.83,4,15Z"/><path class="cls-7" d="M351,718.3c-.76-5.14-.65-10.52-4-15l6.21,0c.61,3.66-.73,7.5,1.06,11.07C356.09,718.14,353.18,718,351,718.3Z"/><path class="cls-7" d="M313.65,710a8.54,8.54,0,0,1,0,2c-3.31.1-5.29,2.36-7.44,4.8-3.48-5.06,2.3-7.89,1.72-12.92Z"/><path class="cls-8" d="M299.19,729.85c-1-3.42-6-1.62-6.79-5.31,4.3.24,9.74-1.26,9.4,6.12A5.48,5.48,0,0,0,299.19,729.85Z"/><path class="cls-7" d="M347.08,703.4l-9,1.35C340.25,698.75,343.34,698.91,347.08,703.4Z"/><path class="cls-8" d="M292.65,724.74l-5.88-.59a12.24,12.24,0,0,1-.21-2.83C289.13,721.49,292.08,721,292.65,724.74Z"/><path class="cls-8" d="M307.78,736.74c-2.06-.11-2.81-1.51-3.2-3.26C306.71,733.52,307.76,734.62,307.78,736.74Z"/><path class="cls-8" d="M310.86,736.65l.73-.86-.92.66Z"/><path class="cls-8" d="M304.79,733.69a3.53,3.53,0,0,1-3.19-3.29C303.73,730.46,304.8,731.55,304.79,733.69Z"/><path class="cls-9" d="M304.19,802.25c-1,7.29-7.08,15,1.72,20.32-.28,5.93-9.76.43-7.5,7.91l-6-3.88q1.71-2.77,3.41-5.57c3.74-1.31,3.69-4.25,2.22-6.86-.83-1.49-2.2,0-2.85,1.22-3.88,2.76-9.93,4.53-5.23,11.28a60.63,60.63,0,0,1-21.61-.79A145.16,145.16,0,0,0,270,778.64c-.59-4.5,3.25-7,8-3.41-6.42,6.24-4.38,11.26,2.25,15.61l-.37,3.6c-4.28,3.21.26,5.24,1,7.77-2.06.91-3.6,2.77-2.16,4.55,3.16,3.87,7,2.7,10.51.15l.47-10.12c1.81-5.7-.69-8.45-6.23-9.11l-3.29-11.26c8.08-1.82,14.61,2.7,21.61,5.3-4.66,5.93-4.84,11.95-.32,18Z"/><path class="cls-1" d="M265.42,851.37c2.91-2-.67-3.81-.14-5.74,8.91-6,18-4.43,27.25-.82-5.15,1.63-10.15,3.8-15.23,3.07-2.45,3.35.93,5,.71,7.26-4.09,2.65-4.08,2.64-.15,6.32.31.29.72.79.65,1.08s-.63.63-1,.94c-5.29.61-8.71-2.12-11.26-6.37Z"/><path class="cls-6" d="M265.73,804.1c-5.14-8.54-2.89-17.77-2.68-26.88C267.73,785.74,264.73,795.1,265.73,804.1Z"/><path class="cls-10" d="M280.26,790.84c-6.63-4.35-8.67-9.37-2.25-15.61a7.22,7.22,0,0,1,2.22,1.19q1.65,5.64,3.29,11.26Z"/><path class="cls-9" d="M295.63,839.17c-4.87.45-10,1.85-13.37-4.07,7.6-4.41,13.44-.13,19.37,3.63Z"/><path class="cls-4" d="M265.37,824.07l-6-2.94c-.27-2.4.66-5.36-2.89-6.23l.4.1c.49-1.74-.37-4.83,2.06-4.73,2.11.08,5.46.85,6,3.5C265.68,817.08,265.29,820.62,265.37,824.07Z"/><path class="cls-10" d="M289.92,826.67c-4.7-6.75,1.35-8.52,5.23-11.28l.63,5.64q-1.69,2.79-3.41,5.57l-1.21.43Z"/><path class="cls-5" d="M341.47,800.35l-5.18-.41c2.52-2.76,2.32-5.67.47-8.67l4.74-.6c.85,0,1.71.08,2.56.15l.84,5.32-2.06,4Z"/><path class="cls-1" d="M295.63,839.17l6-.44c0,1.14-.05,2.28-.07,3.43l-5.73.75Z"/><path class="cls-10" d="M295.89,771.17c1.51-1.52,3-2.7,4.73-.41a1.15,1.15,0,0,1,0,1.08C298.7,774.38,297.41,772.15,295.89,771.17Z"/><path class="cls-9" d="M314.55,775.11c.61.74,1.87,1.93,1.72,2.16-1.43,2.12-2.32.51-3.23-.66C313.54,776.11,314,775.6,314.55,775.11Z"/><path class="cls-13" d="M325.94,790.73c-.6.58-.86,3-2.06.38A4.69,4.69,0,0,0,325.94,790.73Z"/><path class="cls-2" d="M172.51,852.75c-.7-4.08-6.17-4-6.94-8.07v-10c-2.85-1.16-4.16.59-5.72,1.66-3.25,3.3-7.88.51-11.41,2.59a3.44,3.44,0,0,1-.82-2.59q-1.2-4.89-2.39-9.78l3,.68c3.4.32,2.4,9.49,8.56,4.25,6.36-2,10.4-5.43,7.93-12.86l-7.41-1.22c.22-5.48,7.38-3.88,8.54-8.39l-.1.12c2.9-1,2.59-3.41,2.62-5.69l3.05-.85q.6.66,1.17,1.35c-.2,4.59-.45,9.19-.59,13.79-.13,4.07,2.66,2.73,4.83,2.5a10.15,10.15,0,0,1,1.87,2.11c-8.44,6-8.73,13.35-4,21.84C176.43,847.4,179.54,851.47,172.51,852.75Z"/><path class="cls-14" d="M208.37,863.61c-9-2.18-5.25-14.14-13.88-16.44,3.92-3.75,7.37-4,12-.67-3.44,5.74.7,11.23,1.75,17.18Z"/><path class="cls-2" d="M204.46,832.72c.4,3-1,4.34-2.89,4.86-2.89.79-4.7-1.19-5-3.6-.22-2,1.66-3.5,3.76-3.6C202.3,830.3,204.15,831,204.46,832.72Z"/><path class="cls-4" d="M187.17,815.36c-1.65,3.75-5.08,5.34-8.49,6.95a10.15,10.15,0,0,0-1.87-2.11,19.36,19.36,0,0,1,9.44-6Z"/><path class="cls-9" d="M180.79,857.53c3.51,1.19,5.69,3.36,5.41,7.65-2.62,1.26-3.37-2.84-5.67-2.1l.29.33q.13-3.07.25-6.17Z"/><path class="cls-2" d="M175.54,857.46a4.28,4.28,0,0,1-3.2-4.69C174,853.94,176,854.86,175.54,857.46Z"/><path class="cls-3" d="M283.54,685.39c-.22.09-.92-3-2.8-3.69-2.71-9.91-14.59-10.27-19-18.37,4.15-5.73,6.73,4.45,10.65,1,6.24-1,14.69-11.71,12.64-13.74-2.5-2.47-4.21-5.14-4.55-8.65,7,1.24,11.37,5.8,14.55,11.81C294.48,655.49,296.14,676.61,283.54,685.39Z"/><path class="cls-2" d="M265.34,691.43q1.59,2.93,3.16,5.85c-4.23.11-8.7,1.22-11.93-2.86-.12-4.22.07-8.53-3-12v0c5.24-1.54,5.89,4,9,5.8Z"/><path class="cls-10" d="M262.55,688.15c-3.06-1.82-3.71-7.34-9-5.8,2.4-4.7,6.23-3.84,10.44-2.7C263.52,682.59,263,685.37,262.55,688.15Z"/><path class="cls-10" d="M319.49,618.88l.51-3.8c4.89,1.78,10.46-7.63,14.94.91a11.27,11.27,0,0,1,.22,2.24l-3.3.57c-.24-1.21-.12-3-2.15-1.3l2.33,1.14a6.86,6.86,0,0,1,.27,2.74l-.9.85c-2.75.34-5.22-2.83-8.33-.55.34,8.55,5.51,3.49,9,3.13h0c1.23,7.11-1.09,11.54-8.91,11.82,2.31-3.88,1.34-5.9-3.31-5.83-1.71-3.17-3.9-3.47-6.53-1.08-.71-6.51-9.09-4.68-10.95-10,2.64-2.36,5.68-.38,8.46-.89l-.09-.07C313.57,622.15,316.49,623.66,319.49,618.88Z"/><path class="cls-8" d="M292.54,624.83c4.19,1.69,11.62-.24,9.45,8.51l-.13.35-3,0,0,0c-.11-2-1.11-3-3.17-2.89h0Z"/><path class="cls-9" d="M265.82,602.9c3.75.69,7.63,1.06,10.94,4.79-5.3,1.77-8.7-.74-12.05-3.48A3,3,0,0,0,265.82,602.9Z"/><path class="cls-1" d="M313.27,629.73c2.63-2.39,4.82-2.09,6.53,1.08l.11-.13c-.85.88-1.69,1.77-2.53,2.65C315,633.3,311,635.09,313.27,629.73Z"/><path class="cls-9" d="M292.54,624.83l3.14,6c-4.57.86-5.84-1.92-6.23-5.66Z"/><path class="cls-9" d="M256.34,600.67c3.38-.19,7-1.55,9.48,2.23a3,3,0,0,1-1.11,1.31c-3-.54-6.65.14-8.22-3.69Z"/><path class="cls-10" d="M317.38,633.33c.84-.88,1.68-1.77,2.53-2.65A2.85,2.85,0,0,1,317.38,633.33Z"/><path class="cls-6" d="M250.55,618.81l-2.46-2.52Z"/><path class="cls-9" d="M253.46,597.58c1.7.34,2.82,1.22,2.88,3.09l.15-.15a3.57,3.57,0,0,1-3.07-2.89Z"/><path class="cls-14" d="M374.09,860.36c1.87-4,6.87-3.07,9.38-6.05,1.57.32,2.67,1,1.88,2.85a2.77,2.77,0,0,0-1.84,3.11l-.19.41Z"/><path class="cls-14" d="M368.4,860.61l5.91-.38C372.52,863.21,370.65,864.85,368.4,860.61Z"/><path class="cls-16" d="M123.46,683.47c-1.88-2.4-2.7-5.75-6.08-6.83-3.88-3.43-9.49-1.6-14-4.4,1.65-2.67,3.22-5.21,2.14-8.29l-.25.25c5.11-2.6,7.94-6.93,9.32-12.35l-.3.16c6.4-4.1,12.58-3.75,18.53.94a1,1,0,0,0,.36,1.32c4.39,11.39,11.71,20.8,20.46,29.48a35.75,35.75,0,0,1-10,12.79Z"/><path class="cls-6" d="M153.67,627.7c-6.77-.43-9.67-5.67-13.17-10.6,2.23-5.18,4.57-10.46,3.86-16.42,5.94-6.84,12.75-1.09,20.12-2.79-.71,9.53-7.35,16.38-5.13,24.8-2.53,1-5.25,1.78-5.75,5.08Z"/><path class="cls-7" d="M111.77,607.76c2.7-4.28,5.52-6.71,9.74-3,2.17,1.89,2.24,4.45,0,6.35C117.4,614.62,114.45,612.68,111.77,607.76Z"/><path class="cls-3" d="M165.65,612.15c8.64.27,6,6.16,5.71,11.43L166,621.49l0,.11a3.94,3.94,0,0,0-3.05-3.28C162.82,615.81,163,613.45,165.65,612.15Z"/><path class="cls-4" d="M174.28,604.3c-1.59,3.5-3.29,6.81-8.13,4.72C167.57,605.22,170,603.17,174.28,604.3Z"/><path class="cls-9" d="M105.12,621.48,100,621q-.33-4.18-.68-8.39l-.56-.65c-4.42.54-6.93,3.91-9.84,6.67a14.09,14.09,0,0,1,9.49,3.64l-1.56,5.51,1.25,0,1.25.05,3.09-.33c.27-1.7,1.5-2.35,3-2.75,0-1,0-2,0-3Z"/><path class="cls-8" d="M157,593.79c-.43-.14-1.08-.17-1.24-.47-.48-.87.08-1.4,1.37-1.21.38,0,.68.59,1,.9Z"/><path class="cls-2" d="M105.36,624.76v-3l3.2.36C107.92,623.51,107.05,624.64,105.36,624.76Z"/><path class="cls-7" d="M163,618.32A3.94,3.94,0,0,1,166,621.6,3.65,3.65,0,0,1,163,618.32Z"/><path class="cls-6" d="M171.24,712c-7.72,1.55-14.17,8.11-22.87,5.81-3.35-4.8-8.2-8.61-9.74-14.62l-.07.22,10-5.78a2.48,2.48,0,0,0,2.21-.44c6.9,0,13.9-1.35,21.35,1.11C171.78,703.13,171.51,707.58,171.24,712Z"/><path class="cls-2" d="M184.1,694.8l-6.46-.49-5.68-3-6.26-.07c-5.31,1.21-10.73,2.16-15,6,6.9,0,13.9-1.35,21.35,1.11-.3,4.81-.57,9.26-.84,13.7-7.72,1.55-14.17,8.11-22.87,5.81-3.35-4.8-8.2-8.61-9.74-14.62l-6.9,0c-2.92,6.48-10.7,8.64-13.52,15.22,1.57,3.95,7.13,5.32,7.11,9.5-1.2,3.52-7,1-5.28,6.8,13.69.36,28,4.87,39.92-6.72l2.74-.65v0l.21,0c.73,6-4.68,10.88-3,16.92,6,6.61,10.09-.95,15-1.83-.13-1-.25-2.09-.38-3.13q.63-10.3,1.25-20.62c-.81-6.79-2.24-13.59.18-20,4.57-3.34,9.6,4.72,13.63-1.19C187.36,697.46,185.23,697.16,184.1,694.8Z"/><path class="cls-2" d="M169.48,657.81c-3.87-9-.43-18.06,0-27.09-1.22-2-2.45-4-3.68-5.93l-6.4-.51h0l.5-.81-.56-.78c-2.51,1-5.2,1.77-5.73,5-6.73-.45-9.63-5.68-13.12-10.59,2.23-5.18,4.57-10.46,3.86-16.42-7.9,1.06-12.8,6.46-17.47,12.16A94,94,0,0,0,111.35,632c-1.78,3-1.77,5.56,1.41,7.28,2.94,1.59,4.37-.48,5.39-2.91,2.33,4.18,3.44,9.76,9.83,8.91,5.4-1.85,7-9,13.55-8.54,1.1-6.19,6.23-5.44,10.58-6l-1.62,2.77c-3.11.71-5,4.64-8.83,3.44-2,5.89-11.13,7.81-8.86,16a1,1,0,0,0,.36,1.32c4,.77,7.28,2.38,8.49,6.66,4.65,6.47,7,15.09,15.1,17.46,5.3-1.35,5.06-7,9.17-8.15,0-1,.05-2.06.07-3.1C168.74,664.62,174,663.06,169.48,657.81Z"/><path class="cls-2" d="M193.05,657.77v32c-8.42-10-4.82-20.89-3.45-31.58Z"/><path class="cls-2" d="M148.52,697.65l-10,5.78c-4.55-7-13.89-10.42-15.1-20l20.14,13.07Z"/><path class="cls-3" d="M181.22,633.61V612c4.21-3.48,8.05-2.66,11.93-1.88-.94,4.39-5.48,1.62-7.4,3.94-5.54,9.27.37,14.51,6.87,19.56Z"/><path class="cls-13" d="M172,691.26l-6.26-.07c-.16-3.37,1.75-5.14,4.63-6.13C173.2,686.59,172.24,689,172,691.26Z"/><path class="cls-10" d="M165.83,809c-1.16,4.51-8.32,2.91-8.54,8.39-4.26,4.54,1.8,9.47-.52,14.08-6.16,5.24-5.16-3.93-8.56-4.25-1.11-4.24-2.22-8.48-3.65-14,9-.76,11.34-16,23.79-9.83,0,2.28.28,4.73-2.62,5.69-.85-2.62-2-3.58-4.41-.58Z"/><path class="cls-9" d="M114.21,830.33c-2.13-1.53-2.64-3.82-2.88-6.22,8.71.92,18.18.51,20.91,11.92,2,7,8.28,13.4,3.25,21.49-4.12-7.43-7.85-15.13-12.58-22.15C121.24,832.9,120.11,826.63,114.21,830.33Z"/><path class="cls-6" d="M138.18,787.47l0-3,2.92-3c5.85,5.27,2,12.5,3.78,18.6l-17.12,21.36-.71-6c1.28-6.05,8.48-8.81,8.6-15.5l-.15.12c4-2.83,9.92-5,3.78-11.23C138.91,788.38,138.55,787.92,138.18,787.47Z"/><path class="cls-10" d="M135.49,857.52c5-8.09-1.24-14.47-3.25-21.49l.75-5.49c2.65.23,4.79.87,4.78,4.27,0,7.64,4.41,14.17,5.6,21.47-1.36,3.39-5,3.08-7.34,4.67Z"/><path class="cls-2" d="M144.85,800.09c-1.75-6.1,2.07-13.33-3.78-18.6.46-3.69-.46-7.82,4.5-11.91C148,780.75,149.68,790.38,144.85,800.09Z"/><path class="cls-10" d="M168.36,790.57c-3.66-.9-5.33-3.13-5.12-7,4.11-.71,4.86,2.1,5.95,4.48C168.9,788.85,168.62,789.71,168.36,790.57Z"/><path class="cls-8" d="M118.19,802.86l-.27-5.63a6.32,6.32,0,0,1,2.47-.41c.08,1.14.15,2.27.22,3.41a20,20,0,0,1-.32,2.79A11.3,11.3,0,0,0,118.19,802.86Z"/><path class="cls-8" d="M241.9,808.76c-.92-1.28-1.57-2.93-3.65-2.55-1-2.93-3.85-5.35-2.33-8.93C242.24,798.85,245.71,801.91,241.9,808.76Z"/><path class="cls-2" d="M336.76,791.27l4.74-.6c-2.19-4.91-10.27-7.22-6.46-14.75l-3.53.21c.15,1.76,1.29,3.67-.77,5.14-3.24-.7-4.43-3-4.93-6a3.83,3.83,0,0,0,.11-2.32c-4.7,1.7-8.62-.12-11.61-3.56-2.85,2.94.06,4,.24,5.68.61.74,1.87,1.93,1.72,2.16-1.43,2.12-2.32.51-3.23-.66-8.63-.75-7.86-7.32-8.2-13.21a17.39,17.39,0,0,0-15.7,3,20.74,20.74,0,0,0,0-2.23h0c.52-2.74.73-5.34-2.82-6.25h0a13.51,13.51,0,0,0-2.62-.07,3.5,3.5,0,0,0-3.43,1.94c-4.78-1.09-10.45-5-12.11,3.81-.74,0-1.47,0-2.2,0-.42,2.37-.85,4.74-1.32,7.39-6.7-6.75-6.7-6.75.76-10.18-1.83-5-5.92-2.71-9.26-2.88-11.9.69-13.27,2.36-9.14,11.65-6.08-.81-8.94,8.17-16.91,4.94,6.79-3.57,13.81-6.83,9.69-15.5-6.54-3.23-13.15,1.17-19.27-2.44-1.65-1-7.11.26-6.48,5.69.45,3.78,2.49,5.26,5.91,5,1.92-.14,3.79-1,5.71-1.43,1.18-.25,1.78.33,1.7,1.56-1.92,3.08-6.95-.06-8.49,4,3.7,7.76,3.71,7.73,9,10.78,2.22,1.28,6.29,1.34,4.34,5.8q1.84,4.68,3.7,9.34c6.32,1.57,9.79,4.63,6,11.48,1.87,5.53,9.49,10.43,1.9,17a2.43,2.43,0,0,0,1.55,2.06,8.73,8.73,0,0,1,10,2.46q5,7.66,10,15.33c8.91-6,18-4.43,27.25-.82a3,3,0,0,0,3.3-1.9l-.2-3.74c-4.87.45-10,1.85-13.37-4.07,7.6-4.41,13.44-.13,19.37,3.63,0,1.14-.05,2.28-.07,3.43l6.31.23,3-5.72a15.16,15.16,0,0,1-12.43-6.19l-6-3.88-1.21.43-1.24-.36a60.63,60.63,0,0,1-21.61-.79A145.16,145.16,0,0,0,270,778.64c-.59-4.5,3.25-7,8-3.41a7.22,7.22,0,0,1,2.22,1.19c8.08-1.82,14.61,2.7,21.61,5.3,6.34,6.13-2.17,12-.32,18l2.67,2.48c-.56-6,1.45-11.49,3.51-16.89,1.58-4.12,3.63-.67,5.45.13q.36,5.7.73,11.4c4.54-.1,6.86,5.83,11.93,4.53,5.13-3.64,4.28-7.12,0-10.57-.53.74-.67.18-.07-.06l.07.06a.63.63,0,0,1,.11-.12h-.24C329.67,784.92,333.06,791.26,336.76,791.27Zm-86.37,14.9c-4.18-6-10.24-11.74-2.25-19.4l8.49,2.93-9.2-16.46c6.64-.11,12.07,1.62,11.74,9.62-.24,5.69,3.79,13.63-6.79,14.87,2.38,2.34,7.29,2.12,6.4,7.1C256.34,807.34,253.22,805.86,250.39,806.17Zm15,17.9-6-2.94c-.27-2.4.66-5.36-2.89-6.23l.4.1c.49-1.74-.37-4.83,2.06-4.73,2.11.08,5.46.85,6,3.5C265.68,817.08,265.29,820.62,265.37,824.07Z"/><path class="cls-4" d="M223.49,603.18c-2.68-9.86-7.91-4.45-12.63-2.11a9.42,9.42,0,0,0-2.79-.41q.52-2.83,1.07-5.65c4.25-1,9,1.84,13.77-2.08-1-2.82,2.66-7.1-2.45-9.16-4.88.2-2.33,7-8,6.6-2.33-4.26-1.49-12.64-10.48-10.81-2.67.92-2.06,2.15-.32,3.47,2,2.91,2.61,4.18-2.11,5.6-6.16,1.86-14.18-1.57-18.5,5.91h0l-4.28,9,1.19.27c7.74,5.72,15.62,3.53,23.51.4,1.39-2.68,2.76-2.7,4.11,0l2.55,2.71c6.48-1.14,13.46,1.17,22.88-2.12Z"/><path class="cls-4" d="M171.8,893.66l.52-7.44c2.41-3,4.7,3.4,7,.66,3.1-6-13.8-3.07-4.68-11.5l.4.31c6.63,3,10.51,7.29,7.67,14.56-3.05,4.41-8.17-.4-10.91,3.41Z"/><path class="cls-10" d="M168.48,863c-4-2-8-3.88-11.75.45l-.06-3.21a10.63,10.63,0,0,0,.09-3l-.16.14c2.71.18,5.08-.31,6.26-3.16l.59-.39C168.64,855,168.42,859.1,168.48,863Z"/><path class="cls-4" d="M153.75,857.46l.3-4.58c3.24-.67,7.42-10.14,9.4,1l-.59.39c-2.43.38-5.4-.31-6.26,3.16l.16-.14-3.17,0Z"/><path class="cls-10" d="M174.64,875.38c-1.21-3-3.76-5.69-2.52-9.54,2.76,2.82,9.37,4.32,2.92,9.85Z"/><path class="cls-10" d="M156.51,869.48l8.94.36c.62,1.72,2.53,3.47.62,5.25-1.17,1.09-2.58.36-3.95-.57a29.75,29.75,0,0,0-5.35-2.3l.1.13A4.19,4.19,0,0,0,156.51,869.48Z"/><path class="cls-8" d="M189.32,899.93c.67,4.23-1.21,6.07-5.4,5.71A11.46,11.46,0,0,1,189.32,899.93Z"/><path class="cls-4" d="M53.91,775.73l3.05.13c.39,2.78,1.43,5.68-1.54,7.81C53,781.39,53.2,778.61,53.91,775.73Z"/><path class="cls-3" d="M377.09,697.15c.16-2.47-.65-5.8.65-7.27,6.29-7.11,2.7-12.48-2.52-17.53-3.16-3.06-6.84-5.59-10.3-8.36a35.15,35.15,0,0,0-3.81,1.45c2.28,8.68,1,18.37,7.15,26-7,1.47-7.07,11.77-15.09,12,.59,3.66-.74,7.48,1.05,11,1.87,3.72-1,3.54-3.27,3.88l-3.66,1.27c-3.12,4.15-8.53,4.74-12.27,7.92-.23,2.18-.47,4.35-.7,6.52,7.9,2.69,14.45,7.88,21.7,11.77l3.14-3.16h0c4.35,4.42,5.78,1.4,5.53-2.71-.29-4.79-1.06-9.37,3.63-12.55-3.46.39-6.93.78-9.1-2.87l3.45-.27.06-4.22c5.49,1.3,10.4,5.84,16.24,3.84,3.1-6.17-2.38-8.82-3.42-12.87C374.34,706.25,372.47,701.29,377.09,697.15Zm-18.56,26.71h0Zm1.09,18.23,0,0,0,0Z"/><path class="cls-12" d="M362.68,724.22c2.2.48,4.95,0,5.66,3.14-3.49.39-7,.79-9.16-2.94l-.08.08Z"/><path class="cls-12" d="M359.18,724.42l-.59-.51.51.59Z"/><path class="cls-12" d="M359.16,742.62l.46-.53c.52-.44,0,0-.53.46Z"/><path class="cls-2" d="M37,725.72c-2.46-.9-4.87-1.89-3.19-5.16a2.69,2.69,0,0,1,2.5-.83C39.07,721.32,39.14,723.44,37,725.72Z"/><path class="cls-5" d="M35.24,734.79a2,2,0,0,1-2.73,1.28,2.51,2.51,0,0,1-1.67-3.31,2.81,2.81,0,0,1,2.22-1.3C34.56,731.46,35.86,732.09,35.24,734.79Z"/><path class="cls-4" d="M44.84,721.34,44,728.63c-2.17-2.83-2-5.2,1-7.17Z"/><path class="cls-6" d="M395.57,851.3c2.34-.35,4.08-3.14,7.25-1.45,1.65,5.06-6,6.4-5.06,11.24C394.7,858.35,395.8,854.68,395.57,851.3Z"/><path class="cls-2" d="M383.51,860.27a2.77,2.77,0,0,1,1.84-3.11A2.7,2.7,0,0,1,383.51,860.27Z"/><path class="cls-8" d="M395.9,658.18c-.06,1.85-.11,3.69-.17,5.53-1.07,2.33-3.77,4.71-4.18,1-.48-4.43-2.41-7.07-5.05-9.85l0,0-.05-5.54L393,646C396,649.78,395.13,654.2,395.9,658.18Z"/><path class="cls-4" d="M386.42,649.28l.05,5.54-23.88-13.09C374.17,640.63,380,645.78,386.42,649.28Z"/><path class="cls-2" d="M353,636.85c3,.63,7.06-2.18,9.05,3.53-4.72,2.84-6.7-.87-9-3.63Z"/><path class="cls-1" d="M359.39,648.55a4.66,4.66,0,0,0-3.24,3.37l-.07.06c-6,.6-4.08-2.58-2.66-5.54C355.79,646.06,358,646.05,359.39,648.55Z"/><path class="cls-1" d="M352.23,645.2a1.62,1.62,0,0,1-1.29-1.37l1.11.34Z"/><path class="cls-2" d="M220.17,889.33c-6.94,2.22-11.61,1.49-18.38.86C208.89,886.74,214,886.74,220.17,889.33Z"/><path class="cls-9" d="M262.42,730.54c1.36-6.43,6.54-7.54,11.83-8.51,2.06,3.26,6,5.56,5.37,10.06-1.6,4.91-8.56,3.48-9.61,8.62C263.79,740,266.44,732.83,262.42,730.54Z"/><polygon class="cls-9" points="282.69 738.1 281.94 738.48 282.05 737.55 282.69 738.1"/><path class="cls-8" d="M183.64,712.4c.09-8.3,7.29-9.22,12.59-12.1C195.45,707.89,187.38,707.88,183.64,712.4Z"/><path class="cls-9" d="M214.26,860.67l-5.93,3c-6.76,6.92-15.7,7-24.37,8.57l-3.31-8.8c-4,0-3.29-4.07-5.11-5.95a4.28,4.28,0,0,1-3.2-4.69l.17,0c-.7-4.08-6.17-4-6.94-8.07l-5.08-3q-.31-2.67-.64-5.36c-3.25,3.3-7.88.51-11.41,2.59a9.78,9.78,0,0,0,3.78,6.61,6.91,6.91,0,0,1,.45,2c-1.8,1.21-2.51,4.27-6.86,2.91,0-4.48-4.22-9.46,1.81-14.06q-1.2-4.89-2.39-9.78a14.24,14.24,0,0,0-5-10.07c-6.61,2.94-9.36,7.43-7.19,14.09,2.65.23,4.79.87,4.78,4.27,0,7.64,4.41,14.17,5.6,21.47-1.36,3.39-5,3.08-7.34,4.67-.36,1.62-.72,3.24-1.07,4.86l4.09.51q-.69,4.78-1.4,9.55c1.92,4.68-2.05,9.23-.86,13.71A126.31,126.31,0,0,0,165,899.87c-1.35-4.73,1.69-8,1.54-11.78,2.62,1,1.41,5.68,5.25,5.57.16-2.4.33-4.8.52-7.44,2.41-3,4.7,3.4,7,.66,3.1-6-13.8-3.07-4.68-11.5-1.21-3-3.76-5.69-2.52-9.54,2.76,2.82,9.37,4.32,2.92,9.85,6.63,3,10.51,7.29,7.67,14.56-3.05,4.41-8.17-.41-10.91,3.41-1.31,2.34-4.16,4.21-2.26,7.62,3.2,2.73,8.64,0,11.31,4.33l3.07,0a11.46,11.46,0,0,1,5.4-5.71c2.27-.38,4.77-.14,6.33-2.4l-5.86-1.07c-.18-6.34,6.72-.77,7.46-5.06-8.37.24-9.46-5.87-9.81-13.19,10.84-1.22,20.15-5.45,26.68-14.58A4.62,4.62,0,0,0,214.26,860.67Zm-57.53,2.82q0,3,0,6l8.74.35h0c.62,1.72,2.53,3.47.62,5.25-1.17,1.09-2.58.36-3.95-.57a28.77,28.77,0,0,0-5.23-2.26,4.17,4.17,0,0,0-.34-2.67l-5.73-3.25c-1.08-3.64-5.84-8.5,2.93-8.88l.3-4.58c3.24-.67,7.42-10.14,9.4,1,5.19,1.12,5,5.21,5,9.15C164.48,861,160.48,859.16,156.73,863.49Z"/><path class="cls-12" d="M389.18,679.23c-4.87.17-6.59-3.53-7.26-7.1-.35-1.9,2.7-1.66,4.48-1.68C388,673.18,389.86,675.79,389.18,679.23Z"/><path class="cls-1" d="M356.15,651.92l1.47,1.41c-.34-.05-.81,0-1-.17a3.65,3.65,0,0,1-.54-1.18Z"/><path class="cls-1" d="M341.05,645.86,344,649l.1-.08c-1.63-.4-2.82-1.25-3-3.06Z"/><path class="cls-8" d="M408.32,800.36a7.88,7.88,0,0,1,.36,1.89c0,.25-.63.47-1,.71A3.08,3.08,0,0,1,408.32,800.36Z"/><path class="cls-4" d="M105.5,664c1.08,3.08-.49,5.62-2.14,8.29,4.53,2.8,10.14,1,14,4.4-2.44,4.82-6.89,2.35-10.28,2.38-6.4.05-10,2.65-11.3,8.82-3.64,1.45-2.29,9.64-9.14,6.75l1.41-4,1.75-2.05c1.85-7.75,9.85-12.84,9.35-21.6C102,667.44,102.45,663,105.5,664Z"/><path class="cls-2" d="M129.67,703.16l-6.15.42C125.3,699.63,127.27,698.21,129.67,703.16Z"/><path class="cls-2" d="M51.93,822.13c3,1.27,5.11,3.28,3.4,6.65-1.1,2.17-3.71,1.82-5.19.39C47.05,826.17,48.79,823.91,51.93,822.13Z"/><path class="cls-5" d="M56.56,833.91c2-.55,2.72.75,2.89,2.24a2.89,2.89,0,0,1-1.1,2.38,2.42,2.42,0,0,1-3.59-1.18C54.2,835.85,55.07,834.6,56.56,833.91Z"/><path class="cls-8" d="M45,836.36l.55-1.3c1,.41.71.78-.75,1.09Z"/><path class="cls-10" d="M268.34,710.32c-4.21,4.41-8.27-.44-12.15-.59-4.28,5.57-.46,12-2.94,17.43-3.08,4.09-5.46,9.09-11.73,9l-3.19-2.63a10.81,10.81,0,0,0-.62-2.77c2.27-6.11.91-13.33,6.3-17.7-2.2-4.28-5.42-3.34-8.11-3.79a2.22,2.22,0,0,1,.67-2.66c5.41-1.55,12.08,4.13,16.53-2.89l.07,0c2.28,3.89,6,2.33,9.32,2.52Z"/><path class="cls-2" d="M253.1,703.73c-4.45,7-11.12,1.34-16.53,2.89-3.62-.42-5-2.46-4.25-6,.66-2.93,3-3.68,5.55-3.69C243.91,696.94,249.28,698.66,253.1,703.73Z"/><path class="cls-2" d="M262.49,706.28c-3.28-.19-7,1.37-9.32-2.52C257.93,698.49,260.16,702.59,262.49,706.28Z"/><path class="cls-2" d="M252.67,695.07l3.84-.63C255.7,697.53,254.24,696.63,252.67,695.07Z"/><path class="cls-5" d="M59,660.18c3-4.57,3-4.57,6.42-.22C63.36,662.1,61.21,661.42,59,660.18Z"/><path class="cls-5" d="M55.36,665c1.86.63,3.7,1.72,3.52,3.71-.13,1.33-2.13,1.62-3.34.93C53.22,668.32,54.59,666.59,55.36,665Z"/><path class="cls-6" d="M419.38,866.61c-1.28-.23-2-1.06-1.37-1.73s1.42.14,1.69,1.42Z"/><path class="cls-10" d="M335.16,618.23a11.27,11.27,0,0,0-.22-2.24c5.26-.59,9.31,1.29,12,5.87l.22-.16-3.11.48-5.87-1.65Z"/><path class="cls-4" d="M350.07,624.87l-2.77-.5a7.26,7.26,0,0,1-.1-2.67l-.22.16,6.1-.08c.23,1,.45,2,.68,3Z"/><path class="cls-9" d="M37.72,795.45c-1.95-3.06-1.65-5.3.57-6.81a2.35,2.35,0,0,1,3.36,1.45C42.53,792.86,41.09,794.48,37.72,795.45Z"/><path class="cls-6" d="M135.62,800c-6-5.56-2.5-9.19,2.56-12.5.37.45.73.91,1.07,1.39l-3.78,11.23Z"/><path class="cls-2" d="M413.92,806.05c-.49-4.12.16-9.48-6.75-8.85.38,1,.77,2.1,1.15,3.16a7.88,7.88,0,0,1,.36,1.89c0,.25-.63.47-1,.71-6.46,4.23.05,9.66-1.2,14.46a76,76,0,0,0-21,2.87c-5.11-1.28-4.15-7.14-8.28-8.43-1.05,2.57,1.51,6.39-1.93,7.89-4.56,2-5.44-2.8-7.64-5-3.13-11.64-14.55-13.12-22.75-18.56l-2.06,4c3.7,9.09,14.9,8.26,20.18,15.27,2,5,4.59,10.13-1.42,14.38l4.3.32c14.82-8.14,14.82-8.14,23.38.46,2.63-13.17,13.18-8.31,21.17-9.31C414,816.76,414.58,811.47,413.92,806.05Z"/><path class="cls-5" d="M395.57,682.27c.15-1.31.3-2.62.47-4.13,2.2,1.85.19,2.79-.66,3.93Z"/><path class="cls-5" d="M395.38,682.07l-.78.92,1-.72Z"/><path class="cls-13" d="M265.46,878.63l.15,3.34c-7,4.72-9.45,2.63-8.6-5.07C260.78,874.87,262.7,878.43,265.46,878.63Z"/><path class="cls-13" d="M265.42,851.37l.85,5.74c-.8,4.11-3,6.31-7.44,5.43C261.86,859.3,256.72,851.26,265.42,851.37Z"/><path class="cls-2" d="M341.07,645.83c.2,1.81,1.39,2.66,3,3.06-10,3-16.52-3.68-23.66-8.61C328.41,638.05,333.64,646,341.07,645.83Z"/><path class="cls-3" d="M344,624.7c2.72,4.57,4.6,9-2.33,11.53-6-2.4-3.91-7.12-3.47-11.33h-.12l6-.1Z"/><path class="cls-2" d="M335.16,618.23l3.06,2.3c-.05,1.46-.11,2.92-.16,4.38h.12l-3.51-.35a2.76,2.76,0,0,0-2.36-3.17,6.86,6.86,0,0,0-.27-2.74l-.18.16Z"/><path class="cls-9" d="M350.07,624.87l3.69-.1c1.61.31,2.94,1.35,1.06,2.42S351.27,626.48,350.07,624.87Z"/><path class="cls-3" d="M347.2,621.7a7.26,7.26,0,0,0,.1,2.67l-3.32.33.11.11a7.27,7.27,0,0,0,0-2.63Z"/><path class="cls-10" d="M332.31,621.38a2.76,2.76,0,0,1,2.36,3.17,9.12,9.12,0,0,1-2.65.27h0a4.84,4.84,0,0,1-.63-2.58Z"/><path class="cls-2" d="M238.33,733.54l3.19,2.63C239.61,736.31,238.24,735.81,238.33,733.54Z"/><path class="cls-8" d="M401.2,694.67a7.32,7.32,0,0,0-2.63-1c3-2.69,5.91-3.64,8.75.19Z"/><path class="cls-8" d="M189.51,920.67c-.37-.6-.73-1.2-1.09-1.8a12.88,12.88,0,0,1,2.58-.43c.31,0,.61.7.91,1.08Z"/><path class="cls-4" d="M319.49,618.88c-3,4.78-5.92,3.27-8.8-.12C313.65,616.87,316.6,615.62,319.49,618.88Z"/><path class="cls-5" d="M114.57,651.85c-1.38,5.42-4.21,9.75-9.32,12.35C106.2,658.46,108.71,653.9,114.57,651.85Z"/><path class="cls-13" d="M238.29,833.24c-1.07,4.58,4.05,7.94,2.5,12.61-1.93,1.31-2.34,3.32-2.51,5.44l-3.27.08.15.21c-.12-4.37-1.63-7.8-6.17-9.21v.35C229.38,836.9,233.6,834.84,238.29,833.24Z"/><path class="cls-8" d="M235,851.37l3.27-.08-.12,7.14C235.5,856.79,234.87,854.25,235,851.37Z"/><path class="cls-4" d="M238.29,833.24l7.06-5.4a2.43,2.43,0,0,1-1.55-2.06c7.59-6.59,0-11.49-1.9-17-.92-1.28-1.57-2.93-3.65-2.55.37,7.25,1.44,14.61-3.18,21.1-6.93-4.48-3.29-16.25-13-18.82-1.06-1.61-2.07-3.31-5.51-1.75,5.51,6.91.34,16.4,6.29,23.46-5.51-.16-7.14,1.59-3,6.16q.48,2.6.94,5.17c-1.41,5.76-.8,11.19,2.64,16.16h0a3.09,3.09,0,0,0,.37,2.75c6.2,1.9,9.08,10.34,17.08,8.67-.16-3.74-3.58-6.67-2.7-10.68-2.6-1.6-3.25-4.06-3.15-6.85h.15c-.11-4.36-1.62-7.78-6.13-9.19C229.55,836.82,233.69,834.8,238.29,833.24Z"/><path class="cls-11" d="M89.82,688.55l-1.75,2.05a5.57,5.57,0,0,1-.51-2A2.6,2.6,0,0,0,89.82,688.55Z"/><path class="cls-2" d="M105.12,621.48,100,621q-.33-4.18-.68-8.39C105.24,612.93,108.51,615,105.12,621.48Z"/><path class="cls-2" d="M323,811.94c-4.63-.55-5.19,5.3-9.3,5.94-3.23-5.19,3-6.58,2.9-10.1,3.73.3,5.13,2.16,6.26,4.34Z"/><path class="cls-2" d="M313.73,796.88c.34,3.54-.7,6.21-4.71,7.47-.78-4.34,1.66-6.09,4.87-7.33Z"/><path class="cls-2" d="M322.84,815.06c-.11,1.84.83,3.9-1.37,5.5-3.2-2.82-2.2-4.43,1.46-5.43Z"/><path class="cls-5" d="M371.13,845.37c1-3.28,3.58-3.2,6.22-3.08C376.19,845.17,373.51,845,371.13,845.37Z"/><path class="cls-1" d="M285.11,863.88l2.44,1.17c-.33.31-.75.93-1,.87a14.47,14.47,0,0,1-2.41-1Z"/><path class="cls-2" d="M59.94,787.81c3.61,2.24,2.53,6.07,3.14,9.33C58.86,795.09,60.62,791,59.94,787.81Z"/><path class="cls-6" d="M338.29,675.64c-10.24,1.65-18.52.55-26.76-4,.28-4.15.57-8.41.93-13.8C323.3,660.91,331.73,665.51,338.29,675.64Z"/><path class="cls-3" d="M349.94,658.41c2.62,7.45-7.09,15.4,2.17,23.12l-8.21.65c-3.23-5.93-4.45-12.78-9.22-17.66C339.26,659,344.2,657.62,349.94,658.41Z"/><path class="cls-9" d="M298.82,633.67l3,0-.72,3.36A3,3,0,0,1,298.82,633.67Z"/><path class="cls-2" d="M280.26,790.84l3.26-3.16c5.54.66,8,3.41,6.23,9.11-3.4-.31-7.39,1.85-9.86-2.35C280,793.24,280.14,792,280.26,790.84Z"/><path class="cls-2" d="M280.93,802.21c3.34.59,5.93,2.49,8.35,4.7-3.56,2.55-7.35,3.72-10.51-.15C277.33,805,278.87,803.12,280.93,802.21Z"/><path class="cls-4" d="M295.78,821l-.63-5.64c.65-1.24,2-2.71,2.85-1.22C299.47,816.78,299.52,819.72,295.78,821Z"/><path class="cls-9" d="M295.62,633.76l-.59.71.71-.6Z"/><path class="cls-9" d="M295.67,630.81c2.06-.14,3.06.89,3.17,2.89l-3.22.06.12.11C295.72,632.85,295.69,631.83,295.67,630.81Z"/><path class="cls-2" d="M331.41,622.23a4.84,4.84,0,0,0,.63,2.58c-3.45.36-8.62,5.42-9-3.13C326.19,619.4,328.66,622.57,331.41,622.23Z"/><path class="cls-2" d="M332,618.64l-2.33-1.14c2-1.73,1.91.09,2.15,1.3Z"/><path class="cls-5" d="M152.11,630.72l-1.62,2.77c-3.16.72-5.05,4.77-9,3.39C142.55,630.54,147.72,631.31,152.11,630.72Z"/><path class="cls-10" d="M156.71,869.68l-5.89-3.34c-1.08-3.64-5.84-8.5,2.93-8.88l-.16-.14c.28,1.77,1.65,2.39,3.08,3l.06,3.21C156.72,865.55,156.71,867.62,156.71,869.68Z"/><path class="cls-2" d="M165.83,809l-4.51-.46c2.36-3,3.56-2,4.41.58Z"/><path class="cls-2" d="M135.47,800.09l3.78-11.23C145.39,795.09,139.44,797.26,135.47,800.09Z"/><path class="cls-9" d="M156.6,857.44c.86-3.47,3.83-2.78,6.26-3.16C161.68,857.13,159.31,857.62,156.6,857.44Z"/><path class="cls-9" d="M156.67,860.28c-1.43-.57-2.8-1.19-3.08-3l3.17,0A10.63,10.63,0,0,1,156.67,860.28Z"/><path class="cls-1" d="M344.09,622.18a7.27,7.27,0,0,1,0,2.63l-6,.1c.05-1.46.11-2.92.16-4.38Z"/></g></g></g></svg>