<svg id="Layer_1" data-name="Layer 1" xmlns="http://www.w3.org/2000/svg" viewBox="0 0 1525 1525"><defs><style>.clsWindow-13{fill:#371912;}.clsWindow-4{fill:#595337;}.clsWindow-3{fill:#94928d;}.clsWindow-1{fill:#191835;}.clsWindow-9{fill:#5d4430;}.clsWindow-8{fill:#999373;}.clsWindow-7{fill:#cd3412;}.clsWindow-10{fill:#beaf64;}.clsWindow-16{fill:#7b8874;}.clsWindow-12{fill:#b5ad9d;}.clsWindow-5{fill:#cacbad;}.clsWindow-2{fill:#29586a;}.clsWindow-15{fill:#a64e1e;}.clsWindow-6{fill:#866a58;}.clsWindow-18{fill:#97200b;}.clsWindow-20{fill:#009597;}.clsWindow-14{fill:#005bab;}.clsWindow-19{fill:#421a20;}.clsWindow-11{fill:#f6ba9c;}</style></defs><title>Artboard 1outerCircle5</title><g id="WindowParts"><g id="outerCircle"><g id="co5"><path class="clsWindow-13" d="M767.38,1456.15c-.22-4.2-1.57-6.45-6-3.42-.22-1.1-.44-2.2-.65-3.29.73-9.25,1.47-18.5,2.41-30.19-6.17,7.65-7.64,16.73-17.61,15.27,2.75-8.82,13.13-12,15.53-21.07,4.44-5.81,4.62-11.85-.52-17-3.08-3.08-.66-5.19-.19-7.75.08-2.71.17-5.42.25-8.12,6.45-9.07.36-16.75-2.75-24.76,1.63-7.39,5-15-2.91-21.1-1.32-2.88-3.4-5.5-3-9l-.17.06c4.32-.38,4.89,6.36,10.27,5-.42-4.84-.5-9.77-1.38-14.55-.92-5-5.42-5.1-9.38-5.39-4.16-.31-5.28,1.7-3.82,5.44l-4.55.28c-.73-6.13-4.65-7.19-9.53-5.35-3.14,1.19-5.87,3.47-8.78,5.27-3.85-2.12-2.49-5.88-2.85-9.09,2.71-1.36,1.64-2.28-.35-3.1,3.47-6.16,9.64,3,13.27-2.51,4.83-3.9-.36-10.92,4.47-15,1.69,4.74-.91,10.14,3,15.69,5.14,3.27,11.58,1.5,19,1.28-1.88-7.14,4.48-13.57-.4-20.39,4.76-9.9,3.55-20.32,2.61-30.71-1.1-5.27,3.33-12.45-5.21-15.16,2.38-2.61,6.22-4.24,5.89-8.69l.18-.21a5.86,5.86,0,0,1,2.65.44c.76,3.73,3.14,5.47,6.84,5.64,2.89.14,6,1.17,7.93-2.26l7.14-9.56c.72.07,1.45.12,2.17.16l.36,3.23a4.62,4.62,0,0,1-.71,2.6,3.56,3.56,0,0,0-2.36,3.43,3.55,3.55,0,0,1-.88,2.51A10.58,10.58,0,0,0,782,1243c-.38,2.94-1.84,2.87-3.26.4l.14-1.42c-3.42-6-7.46-5.38-11.84-1.11q.32,17.84.65,35.68c0,2.59-.06,5.17-.08,7.76-.23,2.89-.61,5.78-.63,8.67a5.36,5.36,0,0,0,4.13,5.36c4.22.71,3.53-3.59,4.73-5.92,5.88,9,16.18,8.65,24.81,11.84,5,1.39,5.15-4.57,8.54-5.62,3.36,3.66,7.54,3.22,11.81,2.36,5.08,1.1,9.57.6,12.39-4.5,7.51-.6,14.81-3.24,22.59-1.53,3.67.8,4.94-2,4.59-5.45,10.35.26,20.57-.2,30.69-3,4.11-1.12,7.77-2.06,8.39-6.79s-3.24-6.31-6.2-9c-3.81-3.45-7.88-1.87-11.8-2.65l.27-3c5.05-14.13,6.07-27.66-5.86-39.26-3-6.69-8.4-10.39-15.17-12.45l3.15-2.43c6.63.62,8.7-3.27,8.91-9l0,.13c3.44,0,3.66,10.52,9.42,2.87l6-.27a30.9,30.9,0,0,1,6,12.09c-1.46,4.71-5.71,6.47-9.64,9,5.68,12.76,8.74,26.71,16,39.25,3.69-2.79,3.32-8.26,8.27-8.67l-.05-.1c.91,1.24,1.82,2.47,2.72,3.71.47,5.65,1.78,10.89,6.31,15.19,3.61-3.84,5.52-7.9,9.53-9.85,2,1.23,3,3.48,1.22,4.84-4.21,3.25-6.8,8.65-12.57,8.55-.48,5,2.28,6.35,5,7.71-.16,3.36-.74,5.14-5.12,3.76-4.58-1.43-10-2.08-10,5.67a28.32,28.32,0,0,0-21.27,5.6l-11.91.12c-5.51-4.55-8.25,1.78-12.26,3.12-10.28-.7-20.29.69-30.45,2.42-5.28.89-2.68,5.6-5.74,6.63l-3-.13-9,.1v0c-2.93-5.82-7.1-2.75-10.66-1.94-3.79,4.26.43,10.26-4.11,13.79a3.25,3.25,0,0,1-.49-2.41c2.63-8.23-3.08-10.84-9-11.7-10-1.45-12,6.68-13.84,17.92-.83-6.09-1.09-8-1.36-10-.32-2.86,1.32-6.56-4-8.73a50.19,50.19,0,0,0-1.52,24.88c.23,1.22,2.32.94,3.26-.5,6,3.83,5.24,14.37,14.65,14.86,1,2.08,2,4.15,2.92,6.22a13.77,13.77,0,0,0,.13,2.49c-8.89.87-5.11,7.47-5.51,12.18-1.14,7.36-2.3,14.73-3.41,22.1-1,6.75,2.78,8.87,8.7,8.87l3.19,2.54,1.45,0,1.43-.23,7,2.79,8.13,1.39c1.46,2.3,4,2,6.16,2.59,2.45.67.94,1.79-.13,2.65l-8.76-.43-3.09-2.74c-6.48.32-12.29-2.17-18-4.63-4.93-2.12-6.08,0-6.06,4.29-7.8,2.56-6.37,9.11-5.94,14.78.33,4.33,1.9,8.56,2.92,12.84,0,.8,0,1.61,0,2.42-1.89-.24-3.6-1.87-5.44-.88C767.53,1444.5,772.87,1451.35,767.38,1456.15Z"/><path class="clsWindow-13" d="M885.7,1219.22c-.34-5.73-.34-5.73-6.27-6.65C880.75,1215.55,881.19,1219.27,885.7,1219.22Z"/><path class="clsWindow-13" d="M757.72,1132l4.55,6.43c3-10.45-.24-19.89,3-29.49,14.87.4,28.77-8.5,44.17-3.68a7.58,7.58,0,0,1,.2,3l-4.51,3.31c-9.12-1.17-17.86,1.57-26.74,2.81a9.1,9.1,0,0,1-2.5.07l-7.17,0c-.18.36-.61.87-.5,1.06a10.92,10.92,0,0,0,1.35,1.63q0,6.24,0,12.49c-1.29.46-1.52.94-.64,1.2.14,0,.51-.64.76-1a12.52,12.52,0,0,0,8.15,2.27,10.49,10.49,0,0,1,1-2.32c3,2.75,5.91-2.69,8.05-1,2.72,2.66-.46,3.89.43,5.87,5.65.82,11.14-2.71,15.37-.8,7.77-6.1,3.15-13.26,4.13-19.67l1.45-.09,1.45,0c3.79,4.42,1.17,10,2.82,14.87-.2,2.49-.62,5,3.38,4.5,6.82-.85,13.64-1.82,20.54-1h-.19c-1,3.93-6.24,3.23-7.46,7.11.42,2.54,2.53,3.92,4.45,5.44-.47.85-.73,2-1.45,2.49-8.7,6.13-9.15,12.73-2.69,19.82l1.44,4.25q-.2,3-.38,5.92a11.35,11.35,0,0,1-2.23.4c-.61-4.24.54-9.22-5.83-11.84-9.45,3.13-12.95,11.87-16.52,20.54-.91.07-1.81.13-2.72.18v-7.44l-5.78,2c-2.06-18.09-9.7-31.2-29.86-34.64-1.06,4.31-3.25,7.67-1.83,11.85,2.7,23.45-3.7,9.08-5.17-7.6-7.46-6.52-14.69,3.91-20.45-3.51l-.07.11c6.86-1.24,13.41-2.8,12.17-12.16l-.1.13Z"/><path class="clsWindow-4" d="M649.07,1096.2c9.95-7.12,18.38-1.27,27,3.15-2,.13-4-.14-5.85.47-7.59,2.57-7,10-8.68,15.85-1.23,4.34,2.88,4.11,5.74,4.41,0,5.19-6,1.56-7.26,5,5.61,1.66,10.65,2,13-4.89,2.69-4.18,4.62-8.49,1.89-14.34-1.61,5.23-3,9.79-4.41,14.36l-3.38-.09c.79-7.87.08-16.39,8.95-20.79,10-1.56,18.88,2.74,28,5.51,0,8.79.58,17.56-3.19,26-2.63,5.87-5.43,6.6-9.48,1.5,3.09-5.31-2.8-1.17-3.08-2.93.19-2.13.37-4.25.56-6.38h2c2.14,7.55,4.75.08,7.12.22,1.92-1.85,2.83-3.71,0-5.61-1.13-2.27,1.24-6.94-4.25-6.25-1.66,1.26-2.89,3.33-5.46,2.9-.33-1.21-.65-2.42-1-3.84-1.2,2,0,2.87,1.13,3.75l-.25,3.3-7.82-1.53c-5.25,9.68,2.65,10.67,8.08,13.28a8,8,0,0,1,.69,2.55c-5.63,1.3-10.44-3.9-14.6-2.46-.7,15.78-9,28.54-13.33,42.43.21-8.39-.22-16.7-3.16-24.69-.78-2.62,1.48-6-2.07-8.07-3.75,1.26-.61,9.8-8.72,7.09,0-6,4-13.62-4-18.85-6.7,10.91-7.65,23.13-9.5,35.09l-1.23,1.8,1.75-1.28c2.1,1.77,3.76,3.84.29,5.58-2.46,1.25-5.45.62-6.75,4.53-3.17,9.58-9.53,18.16-8.82,28.94a4.55,4.55,0,0,0-1.12.5c-.17.14-.14.53-.21.81l1.17-1.47c1.89,1.7,3.89,4.23.8,5.67-9.45,4.4-11.36,13-13.28,21.75-2.6-.12-4.74.56-5.77,3.24-2.51.93-4.45,4.31-8.73,1.1,1.62-4.35,3.4-9.11,5.18-13.86.49,1.33,1,2.67,1.48,4,1.25-6.63,13.26-10.39,5.08-19.21l3.21-5.6c8.77-7.84,9.61-19.18,13-29.41,1-.81,2.32-2,1.13-3.09s-2.15.37-2.94,1.31c-.71.29-1.43.57-2.15.84a23.48,23.48,0,0,1,5.42-12.31c.81,2,2.58,3.66,4.06,1.56,2.84-4,5.1-8.55,2.36-13.71-3-12.19,2-21.11,13.66-24,2.26-.79,5,.9,7-1.27l-3.92-3.33c3.81-2.9,7.33,3.33,11.49-.42,1.2-4.67,2.5-9.76,3.78-14.76Z"/><path class="clsWindow-13" d="M661.28,1171.75c4.33-13.89,12.63-26.65,13.33-42.43,4.16-1.44,9,3.76,14.6,2.46a2.52,2.52,0,0,1,2.22.55c4.05,5.1,6.85,4.37,9.48-1.5,3.77-8.4,3.23-17.17,3.19-26l5.29.2c-2.13,3.08-1.26,6.08.27,9-3.46,4.5-3.93,9.6-2.95,15-.52,1.76-1,3.53-1.49,5.14,3.28,2.6,8.1.39,10.54,4.25-8.61-.53-17.37-1.43-22,7.51.75,5.49,5.84,3.25,8.25,6,1.92,1.81-9.48,6.27,1,6.82l.73.91,0,3.1v-.09a3.12,3.12,0,0,0-2.89,3.64,4.19,4.19,0,0,1-.06,2c-2.68.3-5.57.29-5.72,4.1a6.85,6.85,0,0,1-.69,2c-5.79,8.08-18,51.69-18,51.69l-3.45-3.9-2.27-2.19a3.89,3.89,0,0,1-.38-2.74c5-4.44,6-10.26,5.77-16.51-2.25-3.64-5.7-1.52-8.65-1.79-3-8.76-10.9-16.33-6.63-26.89Z"/><path class="clsWindow-4" d="M609.68,1392.44c-6.27-.16-8.91-4-12-9.17-3.83-6.35,1.15-13.66-5.23-20.11-5.22-5.27-4.69-15-4.23-23,.88-15.21-3.48-30.64,2.19-46.29,6.9.29,13.61,7.37,21.55.33,2.87-2.55,7.74,1.77,6.86,7.43l.18-.24c-3.13,2.93-6.28,1.25-9.82-.29-4.11,11.62.11,23.79-2.73,35.17a31.82,31.82,0,0,0-14,6.48c.21,9.37,3,15.88,14.32,12.87.59,4.69.59,4.69,3.61,3,2.21,1.7,2.58,4,2.2,6.58-7.28,8.24,5.33,13.52,2.88,21.9Z"/><path class="clsWindow-3" d="M888.29,1204.65l-6,.27c-1.67-.62-2.8-1.64-2.73-3.59l1-.63-1.24-1.51c-.18-1.14-.35-2.28-.53-3.42,4.2-3,4.15-6,.07-9.1-.43-1.37.55-3.39-1.76-4-1.2,2.16-.21,3.29,1.67,4.06q0,4.53.07,9.06c-7.59-6.36-5.59-17.41-11.94-24.38-.34-3.32-1-6.32-5.51-4.74l-3.75-4.54c-3.27-9.25-6.07-18.57-3.9-28.32-3.83-1.06-5.82.77-8.1,1.44v0c-1.93-4.73-6-2.5-9.31-2.9h.19c4.25-5.55,11.36-2,16.45-5.25,6.75-4.33,7.72-7.57-1-10.11-1.13-2.73,3.66-4.64,1.07-7.55-2.29-1.9-5.52,1.77-7.58-1.33a2,2,0,0,0-.07-2.72q1.86-3.26,3.74-6.5a9.36,9.36,0,0,1,2.94.14,5.62,5.62,0,0,1,5.53,3c.89,5.13,0,10.64,3.32,15.25,1.6,3.79,3.58,7,8.56,5.54l3.33.22.17.16c-.05,1-.1,2.07-.14,3.1-1.69.21-3.57-.37-5,1.38,2.43,2,3.9,1.16,4.83-1.51,2.13.89,3.28,3.68,6.13,3.17l-.11-.16c-3.7,4.92-9.26,5.46-16.06,5.3,6.07,10.63,6.44,22,13.13,31-.3,4.5,1.88,7.35,6,9-.35,6.37,1.78,10.55,9.61,10.52,4.23-10.67-3.77-9.62-9.68-10.45l.18-5.7.16-.17c2.73-1.76,9,6.77,8.94-3.12l-.22.06c3.74,4.15,3.51,10.15,6.47,14.49,3.67,5.35-12.43,12.6-11.68,15C886.51,1198.28,887.38,1201.47,888.29,1204.65Z"/><path class="clsWindow-4" d="M906,1295.83c0-7.75,5.42-7.1,10-5.67,4.38,1.38,5-.4,5.12-3.76,5.51-1.51,7.26,2.5,9.18,6.25-.13.94-.24,1.88-.35,2.82-2.73.82-6-1-9.31,2.45,2.09,14.94-1.14,30.55-2.7,47.52,5.28-3.92-.07-10.35,6.09-12,2.42,5.22,10.43,1.26,12.26,7.47-3.62.74-7.81-1.43-10.95,2.1-.44,3.5,1,6,4.52,5.93,4.93-.15,6.12-4,6.28-8.18,5.34-.94,2-7.28,5.7-9.21q.09,6.27.19,12.55c-10.08,8.73-13.57,21.8-20,34.09-4.32-6.22,4-12.76-4-16.07l-8.62.14c1.91-10.75,8.18-20.87,5-33-4.67,4.58-.57,11.36-5.18,15.29q0-11.2,0-22.39c6.55-9,2.1-18.44,1.32-27.74-2.72,9.22-.36,18.63-1.16,27.93-2.43-.25-5,.77-7.92-1.35C908.39,1313.66,905.28,1304.46,906,1295.83Z"/><path class="clsWindow-4" d="M922.5,1351.51c-1.25,1.68-1.55,3.39.48,4.57a2.6,2.6,0,0,0,2.39-.82C926,1353,924.31,1352.14,922.5,1351.51Z"/><path class="clsWindow-1" d="M652.91,1328.65a6.78,6.78,0,0,0,2.05-.21l1,.81c5.73,4.29,1.1,11,3.49,16.8,5.56,0,9.55-2.45,13.25-5.69,1.57,3.28,3.52,6.09,7.66,6.23l2.43,3c-8.25.48-10.17,5.55-9.2,12.71,2,8.06-7.36,15.91-.45,24.06.07,1.05.14,2.1.22,3.15-4.28,1.37-6.5,4-5.36,8.71a3.65,3.65,0,0,0-.36,2.47c-4.08,2.08-3.79,6.12-4.39,9.77l-1.73,2.53-3.14.71c-1.08-8.47,4.31-15.1,6.67-22.55,2.42-7.62,3.47-14.74,1-22.31-7.53,1.14-6.87,6.14-8.15,10.27-3.35,10.74-3.65,22.62-11.55,31.7-1.06-5.52,2.84-10.1,2.93-15.41l0-9.27c0-1,0-1.94,0-2.91,5-12.21,4.58-24.12-.79-37.52-7.26,4.52-13.74,3.68-20.09,4,1.71-4.13,7.46-1.29,9.21-5.34,3.93-4.63,9.24,1.82,13.94-2.17C651.9,1338.07,652.41,1333.36,652.91,1328.65Z"/><path class="clsWindow-9" d="M721.8,1307.49c.36,3.21-1,7,2.85,9.09,6.08,5.75,12.22-2,18.31.08l4.55-.28c2,2.88,4.91,5.39,4.31,9.47l.17-.06a2.78,2.78,0,0,0-2.12-.06c-9.09-8.21-15.33-7.59-33.71,3.47-.21,5,1.62,9.32,4.5,13.58l10-2.08a3.48,3.48,0,0,0,3-3.13l0,0,3.83.64-.15,5.69L722.18,1349c3.18,6,5.32,11.68,8.91,16.25,4.08,5.21,6.83,12.77,15.56,12.33-2.72,6,4.66,7.21,5.55,11.5-5.68-.07-9.37-4.07-12.26-7.8-9.39-12.13-22.28-18-36.33-22.25l-.17-.14.15-6.18c6.59,2.36,12,7.72,22.57,9.38l-22.55-16.32c0-1.55,0-3.1,0-4.65L705,1341l1.32.17c2.14,3.29,4.35,6.49,9,7.09,2.36-6.81-2.71-12.12-3.59-18.2-.38-2.59-3-1.41-4.79-.83-9.36-4.87,3.41-7.6,1.24-12-5.57,1.63-16.67,2.24-16.67,2.24-3.32-.31-2.93-4.64-5.84-5.38,4.21-4.11,5-15.43,15.08-7.06-1.61,1-4.61-.84-5.27,2.55,3.07.58,6.5,3.39,7.93-2,4.5-1.2,8.28.7,12,2.79.26,1.77,0,3.79,2.29,4.63,1.66-2.71,1.41-4.51-2.19-4.82C716.55,1307,719.27,1307.43,721.8,1307.49Z"/><path class="clsWindow-9" d="M905.92,1415.58l-.33,4c-5.76-5.85-13.48-8.88-20-13.83l-9.09,7.65c-5.41-3-10.74-1.26-15.17,1.58-4.8,3.08-8.93,6.88-14,1.21-4.28-4.78-6.12-10-1.27-15.68,6.07,0,2.15-6.94,5.89-8.59l1.37,0,1.35.16c.15,2.63-1.14,6.3,3.86,5.49,1.1-2.15-.7-3.53-1.14-5.22,6.9,0,13.84.49,20.06-1.76,5.08,2.64,5.08,9.4,10.69,10.61l5.75-.07c1.09,2.74,3.42,3.2,6,3.23C898.53,1409.91,904.58,1411.47,905.92,1415.58Z"/><path class="clsWindow-4" d="M918.17,1238s0,.07,0,.11l-.34-.12Z"/><path class="clsWindow-4" d="M921.18,1216.85l-.14.24,0-.08Z"/><path class="clsWindow-4" d="M779.26,1410c0-4.31,1.13-6.41,6.06-4.29,5.71,2.46,11.52,5,18,4.63.53,1.48,1.31,2.68,3.09,2.74l8.76.43c-.32,5,4.5,7.47,5.9,11.63l-3.27,3.66c-9.58-1.86-6.59,8.64-11.34,11.53-3.93-1.68-7.84-3.43-12.28-2.25l-3-.57a3.26,3.26,0,0,0-2.74-2.78C787,1425.86,785.49,1417,779.26,1410Z"/><path class="clsWindow-9" d="M604.29,1241l2.57-2.92c5.07-1,7.3,4.4,11.28,5.17,3.85,0,4.05-4.35,7-5.14L625,1238v8.22l6.13-5.18-.14,0a23.16,23.16,0,0,1-1.06,8.62c-1.56,4.81,1.94,2.5,3.84,2.27,1.5,6.66-1,13.19-3.42,18.6-3.16,7.13,0,10.94,3.56,15.55-5.72,8.36-7.34-2.93-11.43-2.38-.64-1.58-.23-3.73-3.27-4.7v7.29c-4.61-1.36-4.05-8.11-9.25-8.84l9.9-27.69-12-5c-1.72,2.6-2.51,5.09-5.33,5.48-2.59-1.48-4.8-3.45-4.09-6.67C599.12,1240.44,602,1241.08,604.29,1241Z"/><path class="clsWindow-3" d="M646.38,1449.77l-3.51-3.53c.12-4.88,3.29-7.9,6.22-11.38,3.37-4,6-8.83-3.56-8-2.24.2-2.55-2.5-2.44-4.54l12.28-3c2.37,9.09,9.56,13.35,17.45,17l-5.6-8c6.48.5,9.2,7.62,15.35,8.69.44,3.56,5.48,3.22,5.8,6.87-1.86.13-3.92-.93-5.51,1,2.56,1.59,4.07,7.76,8.32,1.84l3.78-.42c2.73,2.35,6.81,2.84,8.69,6.36-5.73-.89-10.62,5.07-17.2.26l2,5.92.16-.19c-13-3-21.11-14.17-32.29-20.06C651.68,1441.35,651.61,1447.84,646.38,1449.77Z"/><path class="clsWindow-9" d="M762,1458.5c2.32,2.73,3.42,7.06,8.34,6.38,1.81,4.31,5.58,2.24,8.59,2.64-4.1,7.19-9.78,5.3-15.1,2.29-2.56,2.2-2.69,4.75-3.13,7.18l-22.4-1.16c-1.35,6.49-2.61,12.52-3.86,18.55-2.61.43-5.09.39-6.93-1.93,6-4.48,1.63-12.19,6.52-17-8.27-7-18.54.15-26-6.43.74-2,1.57-4.12,2.82-7.42,7.95,4.08,16,3.69,25.27,2.75l-5.39-5.87c2.46.26,5.72-.4,7.24.93,10.5,9.2,10.39,9.33,21.6,6.45-4.51-3.4-9.91-.69-14-2.38,3.82-4.51,11.77,3.43,14.91-4.81A3.83,3.83,0,0,0,762,1458.5Z"/><path class="clsWindow-8" d="M730.74,1458.5l5.39,5.87c-9.26.94-17.32,1.33-25.27-2.75-1.25,3.3-2.08,5.47-2.82,7.42,7.49,6.58,17.76-.52,26,6.43-4.89,4.79-.5,12.5-6.52,17-2.46-.6-4.75-1.43-5.33-4.33-2.26-11.25-11.15-12.08-19.86-11.67-4.49.2-7.3-1.52-10.36-3.7-.32-4.64,1.16-7.87,6.25-9-2.85-2.83-5.93-4.61-9.77-5l-2-5.92c6.58,4.81,11.47-1.15,17.2-.26l0,0c6.26,5.44,14.28,6.35,22.37,9.48,0-4,1.19-6.41,4.94-6A10,10,0,0,1,730.74,1458.5Z"/><path class="clsWindow-7" d="M633.91,1286c-3.56-4.61-6.72-8.42-3.56-15.55,2.4-5.41,4.92-11.94,3.42-18.6a3.08,3.08,0,0,1,.61-1.77c7.33-.75,9.54,6.88,15,9.18l-.19-.28a9.35,9.35,0,0,0,2.85,6.45c9.94,10.24,9.48,13.3-2.9,21.06l.18-.16c-2.3.69-5.1.38-6.32,3.2l.13-.2C639.61,1289.5,636.94,1287.27,633.91,1286Z"/><path class="clsWindow-8" d="M694.81,1286.51l-11.76,11.08-21.27-4.22c-2.62-8.64,3.54-15.48,2.91-24.75,9.77,3.41,20,1.85,26.18,10.25,1.53-2.54,3.75-8.54,9.75-1.31l.13-.24c-4.06,1.77-6.21,4.81-6.19,9.29Z"/><path class="clsWindow-8" d="M918,1362.09c8,3.31-.33,9.85,4,16.07,6.43-12.29,9.92-25.36,20-34.09-3.08,19-6.62,37.8-17.54,54.24h-3.16l-.24-3.31c.35-.79,3.31.44,1.53-2l-1.33,2.19c-3.86-2.36-7.26-5.58-12.51-4.85,2.21-6.54,3.93-11.6,5.65-16.66C909.47,1367.91,918.83,1366.58,918,1362.09Z"/><path class="clsWindow-4" d="M876.49,1413.43l9.09-7.65c6.53,5,14.25,8,20,13.83l.16.08,3,3c-5,8.39-11,15.61-20.88,18.42-.9-3.28-2.34-6-6.15-6.62l.12.13c-3.31-6.87-.64-13.41,3.68-21.94-7.59,5.86-11.23,11.84-18.38,12.63Z"/><path class="clsWindow-4" d="M709.66,1114.12c-1.53-3-2.4-6-.27-9,10.7,3.49,21.75,3.52,32.82,3.48l-2.82,6H719.58c-.19,5.22-2.56,9.59-1.09,16.06a91.15,91.15,0,0,0,27.09,1.46c1,3.21,3.86,2.91,6.37,3.24,1.24,9.36-5.31,10.92-12.17,12.16-.94-3.67-4-5.76-6.24-8.51,2-1.66,6,1,7.34-4.85-6.62,3-13.39-2-18.86,3.9l-3.14.63-3.12-.18c-2.44-3.86-7.26-1.65-10.54-4.25.46-1.61,1-3.38,1.49-5.14,7.19-3,9.95-10,5.76-14.95C712.08,1113.68,710.63,1114.11,709.66,1114.12Z"/><path class="clsWindow-8" d="M646.38,1449.77c5.23-1.93,5.3-8.42,10-11.21,11.18,5.89,19.25,17,32.29,20.06,5.43,8.47-3.08,9.16-6.57,13.62Z"/><path class="clsWindow-9" d="M851.59,1458.73l-3.19,9.16c-6.88.26-3.82-5.89-5.73-9.32-5.8,3.32-12.78,4.31-17.27,10.51,3.19,1.73,6.62,1.63,8.06,4.69-5.58-.51-11.65,1.54-16.06-4.31-2-2.67-5.3-1.35-8,0-6.6,3.15-10.77-.7-14.68-5.21,4.15.19,8.7,2.09,11.7-2.71l-.26.16c5.91-.12,11.78-.34,16.19-5.49l-4.12-1.1,5.88-4.87a10.46,10.46,0,0,0,6.28-6.48l5.67,2.49c.59,3.06-5.45,2.34-3.58,6.42h7.14l-.1-.08C842.73,1456.17,849.06,1453.73,851.59,1458.73Z"/><path class="clsWindow-4" d="M851.59,1458.73c-2.53-5-8.86-2.56-12.11-6.17,2.38-.71,4-1.93,3.68-4.84-3.74,0-3.64,2.47-3.58,4.92h-7.14c-1.87-4.08,4.17-3.36,3.58-6.42l17.12-11,9.39,7.73c3.73-2.66,8.17-4.07,10.07-8.54l9.23.17-.12-.13c-1,3.91,6.73,8-.29,11.8-3.59,1.61-7,3.53-11.3,2.8-6.46-1.1-11.58,1.66-15.82,6.35-1.8.3-2.4,1.58-2.57,3.19Z"/><path class="clsWindow-8" d="M927.46,1265.3c-4,2-5.92,6-9.53,9.85-4.53-4.3-5.84-9.54-6.31-15.19a3.55,3.55,0,0,0-2.72-3.71l.05.1c0-3.61.76-7.46-3.41-9.56a9.32,9.32,0,0,1,.29-2.63c2.1-.39,4.48-.09,5.83-2.35l6.53-3.7-.34-.12c4.82,9,10.73.45,16.87,1,1.6,4.43-.49,6.81-4.64,8.23-.44-.68.6-3.24-1.81-1.43l2,1.23C924.18,1252.34,926.36,1258.9,927.46,1265.3Z"/><path class="clsWindow-8" d="M643.09,1422.36c-.11,2,.2,4.74,2.44,4.54,9.56-.87,6.93,3.94,3.56,8-2.93,3.48-6.1,6.5-6.22,11.38-8.51-6-14.79-13.88-20.28-22.6l6.35-7.19c3.69-.06,4.73-2.76,5.62-5.62,3.25-.69,6.5-1.33,8.46,2.45l.05,0c-5.65,3.14-4.24,6.2.09,9.23Z"/><path class="clsWindow-4" d="M734.48,1494.38c1.25-6,2.51-12.06,3.86-18.55l22.4,1.16v-.06l.63,6c-.35,3.37-.7,6.74-1.11,10.62C751.9,1497.2,743.09,1494,734.48,1494.38Z"/><path class="clsWindow-10" d="M667.48,1199.09c2.95.27,6.4-1.85,8.65,1.79-4.58,3-9.54,5.48-13.63,9s-6.71,7.91-.23,11.87c5-.8,3.77-6.64,7.11-10.51l1,6.15a3.89,3.89,0,0,0,.38,2.74,4,4,0,0,0,.37,2.78L667.9,1238l-1.39,2.75c-10.18-4.86-10.64-15.57-14.56-24.19l5.1-8.61Z"/><path class="clsWindow-7" d="M652.91,1328.65c-.5,4.71-1,9.42-1.45,13.53-4.7,4-10-2.46-13.94,2.17l-.92-1.19q.25-7.31.52-14.61l-.11.17c6.23,2.49,9.4-1.15,12.6-5.2-3.4-5.92-8.24-3.25-12.24-3.8l-3.32-.36c.61-4.47-1.12-7.44-5.58-8.65-.84.08-1.69.13-2.53.18,1.31-4.15,7.43-6.37,4.84-12.08,3.53-.47,7.09-1,9.58,2.5-6.23.53-8.1,3.73-4.83,9,3.17,5.12,8.08,7.27,14.17,6.27C654.81,1319.53,651.14,1324.82,652.91,1328.65Z"/><path class="clsWindow-13" d="M824.07,1450.21l-5.88,4.87c-4.08,2.09-9.07,2.52-12.07,6.59l.26-.16-9.25-.45c-.69-3-9.73-2.76-3.38-8.56,3.51,3.62,6.66,4.38,9.74-.7-3.15-2.92-6-1.72-8.77-1.34.95-4.19,3.48-8.44-.54-12.41,4.44-1.18,8.35.57,12.28,2.25l3.14,2.88C812.05,1450.41,818.47,1449.46,824.07,1450.21Z"/><path class="clsWindow-16" d="M658.3,1322.49c-5.92-6.23-3.49-12.53-.54-19.37l22.22,2.11c1,5.85-5.31,7.13-6.58,11.38A48.78,48.78,0,0,0,658.3,1322.49Z"/><path class="clsWindow-12" d="M602.53,1250.16c2.82-.39,3.61-2.88,5.33-5.48l12,5L610,1277.4c-5.81-.32-7.82-5.11-10.55-8.67C598.44,1262,605.09,1256.88,602.53,1250.16Z"/><path class="clsWindow-12" d="M611.45,1252.06c-1.85.27-3,1.3-3.14,2.83-.06.71.88,1.84,1.64,2.24,1.85,1,2.65-.52,3-1.93S613,1252.41,611.45,1252.06Z"/><path class="clsWindow-12" d="M608.55,1264.61c-.76-.33-1.71-1.1-2.23-.88a2.35,2.35,0,0,0-.94,2.14c.23.57,1.42.74,2.18,1.09Z"/><path class="clsWindow-4" d="M652,1216.54c3.92,8.62,4.38,19.33,14.56,24.19-2.52,6-1,13.09-4.88,18.73l-3.35-6.25c1.69-.93,3.16-2,1.76-4.27-2.56.59-1.4,2.75-1.83,4.21-6-2.62-7.14-7.63-5.36-13.09,2.07-6.37-1-7.7-6.22-7.82C647.12,1226.57,648.51,1221.21,652,1216.54Z"/><path class="clsWindow-5" d="M860.92,1117.34c-3.27-4.61-2.43-10.12-3.32-15.25,5.53-2.67,5,4.49,8.18,5.39,5.27-2.5,3.65-12.59,12.37-10.63q2.19,5.48,4.36,11C877.38,1115.65,869,1116.22,860.92,1117.34Z"/><path class="clsWindow-2" d="M779.26,1410c6.23,7.06,7.72,15.89,9.17,24.73l-3.11,3.63-9.08-.74c-1-4.28-2.59-8.51-2.92-12.84C772.89,1419.08,771.46,1412.53,779.26,1410Z"/><path class="clsWindow-5" d="M649.07,1096.2l10.62,4c-1.28,5-2.58,10.09-3.78,14.76-4.16,3.75-7.68-2.48-11.49.42l3.92,3.33c-2,2.17-4.7.48-7,1.27l-1.7-2.5L640,1114l.9-5c1.74-.68,2.27-2.05,2.16-3.78Z"/><path class="clsWindow-4" d="M767.38,1456.15c5.49-4.8.15-11.65,3.42-17,1.84-1,3.55.64,5.44.88l.34.34a3.22,3.22,0,0,0,2.6,2.92c.36,1.51.88,2.91,2.54,3.47l3.3,3-.08-.09c.19,2.46.54,4.84,3.22,5.95C782.2,1462.86,772,1463.12,767.38,1456.15Z"/><path class="clsWindow-10" d="M646.63,1232.24c5.18.12,8.29,1.45,6.22,7.82-1.78,5.46-.68,10.47,5.36,13.09l.07.06,3.35,6.25c-4.58,11.71-8.31.19-12.43-.45l.19.28q-1.89-7.49-3.77-15Q646.13,1238.28,646.63,1232.24Z"/><path class="clsWindow-13" d="M680.33,1346.59c-4.14-.14-6.09-2.95-7.66-6.23l3.51-20.48.56-.51,5.68.24c.28.82.52,1.66.72,2.51a10.07,10.07,0,0,1-.49,10v5.28c-.11,1.33-.22,2.67-.32,4l.09,1.22C681,1343.56,679.88,1344.67,680.33,1346.59Z"/><path class="clsWindow-8" d="M878.15,1096.85c-8.72-2-7.1,8.13-12.37,10.63-3.22-.9-2.65-8.06-8.18-5.39a5.62,5.62,0,0,0-5.53-3c5.25-8.68,14.8-5.44,22.3-7.74C876.26,1090.75,877.84,1094.27,878.15,1096.85Z"/><path class="clsWindow-8" d="M709.54,1271.64c-2.4,6.62-5.59,13.12-2.94,19.22-1.49,5.81-7.92,3.55-9.09,8.07-2.57,0-5,0-4.07-3.81.65-2.82.93-5.74,1.37-8.61l-.25.1c4.23-1.65,5.52-5.26,6.19-9.29l-.13.24Z"/><path class="clsWindow-4" d="M833.46,1473.77c-1.44-3.06-4.87-3-8.06-4.69,4.49-6.2,11.47-7.19,17.27-10.51,1.91,3.43-1.15,9.58,5.73,9.32C845.66,1475.55,838.8,1472.71,833.46,1473.77Z"/><path class="clsWindow-7" d="M649.7,1316.59c-6.09,1-11-1.15-14.17-6.27-3.27-5.28-1.4-8.48,4.83-9C652.21,1308.88,652.21,1308.88,649.7,1316.59Z"/><path class="clsWindow-10" d="M860.92,1117.34c8.11-1.12,16.46-1.69,21.59-9.54,2.82,2.82,4,6.06,2.62,10l-11.71,3a3.92,3.92,0,0,0-3.94,2.14C864.5,1124.31,862.52,1121.13,860.92,1117.34Z"/><path class="clsWindow-13" d="M739.39,1114.58l2.82-6c7.2-.33,11.23,4.53,15.29,9.33-5.06-.91-8.92-.54-8.84,6.26a23.13,23.13,0,0,0,3.19,11.33l.1-.13c-2.51-.33-5.33,0-6.37-3.24l.06-11.7c.29-4.47-3.25-4.88-6.24-5.88Z"/><path class="clsWindow-4" d="M760.78,1449.44c.21,1.09.43,2.19.65,3.29.2,1.92.4,3.85.61,5.77a3.83,3.83,0,0,1-1.5.19c-4.59-1.4-9.68.9-14.11-1.83-.26-3.47-.5-6.8,3-10.44C752.61,1448.48,756.35,1451.05,760.78,1449.44Z"/><path class="clsWindow-8" d="M609.68,1392.44l5.68-5.36c2.45-8.38-10.16-13.66-2.88-21.9,2.5,8.27,8.16,15.36,9.42,24.27l-12,5.56.15.26A8.72,8.72,0,0,1,609.68,1392.44Z"/><path class="clsWindow-4" d="M751.85,1135.47a23.13,23.13,0,0,1-3.19-11.33c-.08-6.8,3.78-7.17,8.84-6.26l.22,14.08Z"/><path class="clsWindow-15" d="M630.78,1298.81c2.59,5.71-3.53,7.93-4.84,12.08-5.43,5.75-3.73-4.26-7.05-3.18l.06-6.3-.18.24C622.18,1298.18,625.57,1294.63,630.78,1298.81Z"/><path class="clsWindow-8" d="M615.88,1168.48c.72-.27,1.44-.55,2.15-.84l1.81,1.78c-3.37,10.23-4.21,21.57-13,29.41C606.18,1187.62,613.53,1178.79,615.88,1168.48Z"/><path class="clsWindow-1" d="M658.3,1322.49a48.78,48.78,0,0,1,15.1-5.88l3.34,2.76-.56.51-20.25,9.37-1-.81Z"/><path class="clsWindow-12" d="M897.12,1144.48c-8.63-6-9-16-12.28-24.65C894.88,1125.09,893.74,1135.91,897.12,1144.48Z"/><path class="clsWindow-8" d="M603.65,1204.43c8.18,8.82-3.83,12.58-5.08,19.21-.49-1.34-1-2.68-1.48-4C598.79,1214.35,599.91,1208.83,603.65,1204.43Z"/><path class="clsWindow-6" d="M905.92,1415.58c-1.34-4.11-7.39-5.67-6.08-11.22l.19-.17c4.24,1.55,6.44,7.11,12,6.1l1.34.08,1.32-.29a3.36,3.36,0,0,0,3,3l-2.28,3.83-3.74.26Z"/><path class="clsWindow-4" d="M624.94,1416.28c-10.47,7-10.23-2.86-12.89-8.15l1-1c4.22,4.44,9.65,3.35,14.87,3.22Z"/><path class="clsWindow-8" d="M627.72,1144c2.74,5.16.48,9.7-2.36,13.71-1.48,2.1-3.25.48-4.06-1.56C623.5,1152.15,624.05,1147.26,627.72,1144Z"/><path class="clsWindow-2" d="M742.53,1232.24c-4.67-2.4-9.15-5.17-14-8,3.05-4.7,5.87-9,8.69-13.36l-6.63-4.11c-3.87,8.37-7.76,8.67-18.18,1.39a4.19,4.19,0,0,1-2.6-3.52c-5-3.08-2.43-8.16-3.19-12.36-1-5.2,2.23-9.48,3.18-14.26-.06-1.15-.11-2.3-.17-3.45l-4.58,2.71c-2.44-2.86-.84-7-4.15-8.87-2.68.3-5.57.29-5.72,4.1,8.74,3.36,7.5,10.78,7.73,18.38-5.64-4.6-9.75-9.14-8.42-16.4-4.82,6.73-20.71,48.65-21.47,47.79a2.4,2.4,0,0,1-1.9.59L667.9,1238a13.36,13.36,0,0,0,2.37.16h0l.33,8.79c-.06,2.11-.13,4.22-.19,6.33-1.86,2.86-4.25,5.58-2,10.43,11.43,1,23,5.53,35.33,4.71.17-1.15.35-2.3.52-3.45a9.74,9.74,0,0,1-.13-2.35c5.82,2.11,11.22,5.51,17.64,5.76,2.27-4,5.22-3.92,8.6-1.34a3.57,3.57,0,0,1,.88,1.7,2.27,2.27,0,0,1,1.9-.25l6.18-3.61q2-13.26,4-26.52C742.59,1236.39,746,1234.05,742.53,1232.24Z"/><path class="clsWindow-6" d="M917.65,1413.1a3.36,3.36,0,0,1-3-3,11,11,0,0,0,.64-2.71c2.29-1.28,2.77-3.48,3-5.83l3.06-3.23h3.16C924.25,1404.18,919.69,1408.06,917.65,1413.1Z"/><path class="clsWindow-8" d="M612.05,1408.13a17,17,0,0,1-5.86-9.23c-.94-3.63,1.45-3.62,3.87-3.63l-.15-.26c-1,4.59,4,7.6,3.18,12.14Z"/><path class="clsWindow-7" d="M649.15,1286.52c2.35.13,5.26-.8,5.76,4.47-4,.65-8,5.12-11.77-1.63l-.13.2c2.35-.59,5.07-.44,6.32-3.2Z"/><path class="clsWindow-9" d="M881.42,1446.25c7-3.77-.69-7.89.29-11.8,3.81.57,5.25,3.34,6.15,6.62C887.85,1445.45,885.49,1446.91,881.42,1446.25Z"/><path class="clsWindow-4" d="M794.72,1450.46c2.76-.38,5.62-1.58,8.77,1.34-3.08,5.08-6.23,4.32-9.74.7A3,3,0,0,0,794.72,1450.46Z"/><path class="clsWindow-3" d="M624.94,1416.28l3-5.91.14-.14,5.69-.21.77.81c-.89,2.86-1.93,5.56-5.62,5.62Z"/><path class="clsWindow-9" d="M606.41,1229.15l-3,9.15c-2.33-1.32-2.64-3.57-2.74-5.91C601.67,1229.71,603.81,1229,606.41,1229.15Z"/><path class="clsWindow-8" d="M797.13,1461.06l9.25.45c-3,4.8-7.55,2.9-11.7,2.71C794.54,1462.43,796,1461.83,797.13,1461.06Z"/><path class="clsWindow-9" d="M768.88,1481.25c-.45-.63-1.28-1.26-1.28-1.89a2,2,0,0,1,2.59-2.21c.59.11,1.48,1.08,1.43,1.57A2.91,2.91,0,0,1,768.88,1481.25Z"/><path class="clsWindow-6" d="M619.21,1286.24V1279c3,1,2.63,3.12,3.27,4.7C621.94,1285.21,621.07,1286.36,619.21,1286.24Z"/><path class="clsWindow-8" d="M703.34,1307.64c-1.43,5.36-4.86,2.55-7.93,2,.66-3.39,3.66-1.54,5.27-2.55A6.28,6.28,0,0,0,703.34,1307.64Z"/><path class="clsWindow-13" d="M785.32,1438.33l3.11-3.63a3.26,3.26,0,0,1,2.74,2.78C789.63,1440.6,787.72,1441.11,785.32,1438.33Z"/><path class="clsWindow-7" d="M779,1467.52c-3-.4-6.78,1.67-8.59-2.64C773.31,1465.54,777.44,1462.3,779,1467.52Z"/><path class="clsWindow-3" d="M846,1096.54a6.28,6.28,0,0,1-6.62,2.07C841,1096.14,843.33,1095.73,846,1096.54Z"/><path class="clsWindow-4" d="M941.68,1329.2c-2.25-.58-4.68-1-4.71-4.1C939.18,1325.73,941.69,1326,941.68,1329.2Z"/><path class="clsWindow-13" d="M788.16,1455.62c-2.68-1.11-3-3.49-3.22-5.95C787.91,1450.63,788.15,1453.06,788.16,1455.62Z"/><path class="clsWindow-9" d="M761.36,1482.88l-.63-6C764.72,1478.51,764.39,1480.55,761.36,1482.88Z"/><path class="clsWindow-4" d="M640,1114l-.33,3.54C636.53,1116,637.45,1114.92,640,1114Z"/><path class="clsWindow-2" d="M703.71,1268.4c.17-1.15.35-2.3.52-3.45C706.15,1266.42,706,1267.57,703.71,1268.4Z"/><path class="clsWindow-4" d="M643.07,1105.13c.11,1.73-.42,3.1-2.16,3.78C640.51,1107,641.57,1105.94,643.07,1105.13Z"/><path class="clsWindow-9" d="M911.63,1417.19l3.74-.26C914.26,1419,913,1419.29,911.63,1417.19Z"/><path class="clsWindow-9" d="M908.74,1422.65l-3-3A2.91,2.91,0,0,1,908.74,1422.65Z"/><path class="clsWindow-13" d="M779.18,1443.27a3.22,3.22,0,0,1-2.6-2.92Z"/><path class="clsWindow-13" d="M785,1449.76l-3.3-3A3.44,3.44,0,0,1,785,1449.76Z"/><path class="clsWindow-9" d="M851.73,1458.59c.17-1.61.77-2.89,2.57-3.19A3.32,3.32,0,0,1,851.73,1458.59Z"/><path class="clsWindow-2" d="M802.94,1186.71c.91,0,1.81-.11,2.72-.18.94,2.47-3.12,5.21.91,8,4.46-7.37,12.41-9.51,19.52-13q-.57,2.57-1.12,5.13l-3.5,5.82a3.1,3.1,0,0,0,3.22,3.31,4.29,4.29,0,0,1,2.37.61,4.89,4.89,0,0,0,.28,1.82c-13.39,0-9.55,11-11.65,18.28l-.72,22.86c-6.76,3.76-5,10.89-6.61,16.68-3.34-1.29,0-7-4.69-7.44-4.23,2.74,2.16,13.77,5.29,11.16l.06,8.36a181.15,181.15,0,0,0-8.4,36.12c-8.63-3.19-18.93-2.87-24.81-11.84.91-6.42-.35-10.62-8.23-8.11,0-2.59,0-5.17.08-7.76,2,1.4,3.87,3.11,6.6,1.18-1.34-11.74-1.62-23.45,4.45-34.33,1.42,2.47,2.88,2.54,3.26-.4a10.58,10.58,0,0,1,5.46-8.08c-.29,6.58,3.24,11.26,9.27,11.46,6.62.22,11.07-4.69,12.22-11.24.78-4.38,2-10.37-.14-13.17-2.95-3.82-1.6-13.75-11.27-10.49-.56-5.71,4.24-10.63,2.45-16.53C799.76,1191.76,800.05,1188.76,802.94,1186.71Z"/><path class="clsWindow-9" d="M821.07,1425.11c-1.4-4.16-6.22-6.59-5.9-11.63,1.07-.86,2.58-2,.13-2.65-2.21-.6-4.7-.29-6.16-2.59,7.12.46,13.36-1.35,15.24-9,1.14-4.59-.59-8.93-8.2-10.08-2.25,7.74-8.79,12.61-15.17,17.64l-7-2.79c1.38-3.5,4.56-4.83,7.49-6.67,4.41-2.76,6.16-6.7,3-12.23-1.21,8.42-6.87,1.8-8.8,3.16-3.78,2.68-7.43,2.22-8.56-.52-1.44-3.49-2.27-8.81,3.85-10.48,4.19,4.71,7.83,3.62,11.88-.37-4.48-4.62-7.93-1.73-11.44-.26.22-2.45.61-4.83,2.43-6.71,4.5-4.65,1.52-6.64-2.91-8.1a4.19,4.19,0,0,1-2.77-3.32,13.77,13.77,0,0,1-.13-2.49c13.28,3.84,20.69,18.55,35.81,19.24.28-1.41.55-2.84.83-4.27,9.19,4.81-7.1,10.94,1.34,16.12,6.59-9.88,11.1-.07,16.65,2-1.43,4-6.51,2.22-8.62,5.51-.78,4.76,3.66,10-.86,14.69,7,1.48,7.17,6.75,6.87,14.17l-7.61-6.64C830.35,1421.74,828.35,1427.46,821.07,1425.11Z"/><path class="clsWindow-15" d="M909.21,1322.17q0,11.19,0,22.39a4.71,4.71,0,0,1-.15,1.75c-8,3.34-14.57,10.45-24.27,9.5l.14.18c-.68-5.31-4-10-3.58-15.58,5.3-2,2.36-7.37,6-11.2l-8.51-.61c-.29-2.61,5.34-2.07,2.34-7.59a16.43,16.43,0,0,1,3.51-19.58,28.32,28.32,0,0,1,21.27-5.6c-.72,8.63,2.39,17.83-4.55,25.18,2.91,2.12,5.49,1.1,7.92,1.35Z"/><path class="clsWindow-8" d="M715.61,1440.48c5.08-4.14,7.69-10,11.11-17,1.38,7.25.91,13.83,5.3,18.77,2.21-1,2.08-3.15,2.56-5,1.87,1,1.21,4.51,4.17,4.48l3.47-4.37c.55,1.38,1.74,2.64,3,1.91,2-1.13,1.46-3.16.57-5l-.22.28c10,1.46,11.44-7.62,17.61-15.27-.94,11.69-1.68,20.94-2.41,30.19-4.43,1.61-8.17-1-11.31-3-3.54,3.64-3.3,7-3,10.44,4.43,2.73,9.52.43,14.11,1.83-3.14,8.24-11.09.3-14.91,4.81,4,1.69,9.44-1,14,2.38-11.21,2.88-11.1,2.75-21.6-6.45-1.52-1.33-4.78-.67-7.24-.93a10,10,0,0,0,.19-2.38c1.24-1.94,3.58-3.66.5-7.33-8.28,6.65-17.8,7.71-27.81,3.88l0,0c-1.88-3.52-6-4-8.69-6.36.54-3.27,4.43-6.86-.93-9.56l6.42-8.36c1.25,3.15,2.43,6.34,3.79,9.45C706.81,1443.68,710.62,1444.68,715.61,1440.48Z"/><path class="clsWindow-7" d="M824.37,1313.72c3.06-1,.46-5.74,5.74-6.63,10.16-1.73,20.17-3.12,30.45-2.42,4,5.51,3.05,13.55,9.17,18l0,0c.8,4.46-3.7,7.88-2.43,12.43-8.48,7.12-18.28,6.62-28.53,5-3.74-2.84-.37-9.37-5.62-11.41-.85,0-1.7,0-2.55-.1C831.34,1322.48,827.35,1318.31,824.37,1313.72Z"/><path class="clsWindow-4" d="M746.65,1377.53c-8.73.44-11.48-7.12-15.56-12.33-3.59-4.57-5.73-10.29-8.91-16.25l15.07-5.07c7.07,2.61,8.16,10.84,13.57,15.4l7.08-3.44c3.11,8,9.2,15.69,2.75,24.76-4-1.26-5.92-8.51-11.83-4-2-2.84-2.24-.36-2.87.93Z"/><path class="clsWindow-18" d="M881.62,1268.11c3.92.78,8-.8,11.8,2.65,3,2.69,6.82,4.27,6.2,9s-4.28,5.67-8.39,6.79c-10.12,2.75-20.34,3.21-30.69,3-1.93-.32-2.83-1.69-3.44-3.36.22-10.89-4.83-20.28-8.61-30l6.59,3.58C863.45,1278,866.59,1279,881.62,1268.11Z"/><path class="clsWindow-10" d="M763.43,1252.77c-3.48,7.11-.89,15.84-6.3,23.66-6.7-3-17,.92-17.83-11.57q2-13.26,4-26.52l14.88-.73C766.76,1240.32,762.33,1247.5,763.43,1252.77Z"/><path class="clsWindow-7" d="M767.55,1227.73c-.56-22.34,3.65-44.59,1.11-67,7.5-1.65,12.05,4.72,17.72,5.73,2.72,8-.91,14.8,0,21.78.34,2.78-2.65,4.66-5.74,5-.83-3.47-3.38-2.44-5.12-1.52s.19,2,.69,2.89a10.08,10.08,0,0,1-.52,1.61c-5,.38-5.62,3.81-5.57,8,.09,8,0,16,0,24A5.57,5.57,0,0,0,767.55,1227.73Z"/><path class="clsWindow-8" d="M772.79,1319.34c.27,2,.53,3.9,1.36,10C776,1318.09,778,1310,788,1311.41c5.94.86,11.65,3.47,9,11.7-9.8,3.87-7.83,12.9-9,20.55-2.17,1.5-2,4.1-2.87,6.19-9.41-.49-8.63-11-14.65-14.86C770.54,1329.67,769.51,1324.19,772.79,1319.34Z"/><path class="clsWindow-12" d="M857.1,1286.14c.61,1.67,1.51,3,3.44,3.36.35,3.42-.92,6.25-4.59,5.45-7.78-1.71-15.08.93-22.59,1.53,0-13.28-7.27-2.5-11-3.3-.49-.39-1-.79-1.43-1.21,4.38-5,10.36-9.65,4.06-17.19,3.29-4.36-1.78-8.38-.53-12.65,4.35-2.53,5.7-9.14,12.08-8.92-1.9,8.33,9.4,8.79,10.47,16.72-6,.06-12.58-8.23-16,1.74,1.13,6.75,10.65,1.75,11.64,8.54-5.85,2.63-5.85,2.85.06,12.28l7.15-9.28C852,1284.56,854.19,1286.56,857.1,1286.14Z"/><path class="clsWindow-20" d="M797.51,1211.46c9.67-3.26,8.32,6.67,11.27,10.49,2.17,2.8.92,8.79.14,13.17-1.15,6.55-5.6,11.46-12.22,11.24-6-.2-9.56-4.88-9.27-11.46a12.9,12.9,0,0,1,3.24-5.94,4.62,4.62,0,0,0,.71-2.6,3.59,3.59,0,0,0,2.13-3.57,4.7,4.7,0,0,0,.76-2.65c2.46-1.43,3.14-3.64,2.8-6.32A6.14,6.14,0,0,0,797.51,1211.46Z"/><path class="clsWindow-4" d="M760.82,1283.48c4.76-9.9,3.55-20.32,2.61-30.71-3.48,7.11-.89,15.84-6.3,23.66-6.7-3-17,.92-17.83-11.57l-6.18,3.61c-.11,3.69,2.56,8.15-3.13,10.53-4.47-4,2.38-6.76,1.23-10.28a3.57,3.57,0,0,0-.88-1.7c-2.65,1.72-5.64,1.36-8.56,1.45-2.59,3.36-5.19,6.71-7.82,10.11-2-2.13-.05-6.54-4.42-6.94-2.4,6.62-5.59,13.12-2.94,19.22-1.49,5.81-7.92,3.55-9.09,8.07,7.46,4.09,16.4,1.69,23.94,5.46,3.47-6.16,9.64,3,13.27-2.51,4.83-3.9-.36-10.92,4.47-15,1.69,4.74-.91,10.14,3,15.69,5.14,3.27,11.58,1.5,19,1.28C759.34,1296.73,765.7,1290.3,760.82,1283.48Z"/><path class="clsWindow-8" d="M791,1361.88c4.43,1.46,7.41,3.45,2.91,8.1-1.82,1.88-2.21,4.26-2.43,6.71l-.44.63c-6.12,1.67-5.29,7-3.85,10.48,1.13,2.74,4.78,3.2,8.56.52,1.93-1.36,7.59,5.26,8.8-3.16,3.18,5.53,1.43,9.47-3,12.23-2.93,1.84-6.11,3.17-7.49,6.67l-1.43.23-1.45,0a3.16,3.16,0,0,0-3.19-2.54c-5.92,0-9.7-2.12-8.7-8.87,1.11-7.37,2.27-14.74,3.41-22.1Z"/><path class="clsWindow-4" d="M758.22,1237.61l-14.88.73c-.75-1.95,2.7-4.29-.81-6.1-4.67-2.4-9.15-5.17-14-8,3.05-4.7,5.87-9,8.69-13.36a17,17,0,0,1,12.11-3c-4.66,14.51-1.26,20.82,11.35,21h3.44C764.44,1233.37,760.6,1235,758.22,1237.61Z"/><path class="clsWindow-4" d="M824.43,1262.13c-1.25,4.27,3.82,8.29.53,12.65a7.13,7.13,0,0,0-.75,2.37l-3.27,2.63c-3,1.26-4.48,3.77-5.64,6.58l-7.94,5c7.85,1.06,1.63,4.57,1.8,7.24-3.39,1.05-3.54,7-8.54,5.62a181.15,181.15,0,0,1,8.4-36.12c5.92,0,10.26-4.17,15.54-5.87Z"/><path class="clsWindow-4" d="M881.62,1268.11c-15,10.91-18.17,9.91-26.54-8.42l8.14-6.77c3.43-.66,3.42-3.17,3.14-5.83l.38-.31c4.66,5.69,14.18,8.1,12.26,18.22l2.89.06Z"/><path class="clsWindow-8" d="M788,1343.66c4.17,13.61,13.93,17.91,27.52,12.11,4.36,3.26,4.59,9.16,8.26,12.87a4,4,0,0,0,.91,2.4c-.28,1.43-.55,2.86-.83,4.27-15.12-.69-22.53-15.4-35.81-19.24-1-2.07-1.95-4.14-2.92-6.22C786,1347.76,785.84,1345.16,788,1343.66Z"/><path class="clsWindow-10" d="M757.9,1355.84l-7.08,3.44c-5.41-4.56-6.5-12.79-13.57-15.4l.15-5.69,8.31,2.79c.85,2.76,2.44,4.24,5.67,4.12-.63-4-3.08-4.11-5.4-4.41-.88-7.86,5-5.42,9-6C762.87,1340.82,759.53,1348.45,757.9,1355.84Z"/><path class="clsWindow-8" d="M778.71,1243.38c-6.07,10.88-5.79,22.59-4.45,34.33-2.73,1.93-4.64.22-6.6-1.18q-.33-17.83-.65-35.68c4.16-1.87,8-.4,11.84,1.11Z"/><path class="clsWindow-7" d="M884.73,1301.43a16.43,16.43,0,0,0-3.51,19.58c3,5.52-2.63,5-2.34,7.59-2.57.17-5,.08-6.14-2.88,3.21-1.48,2-2.36-.42-3.06a15.76,15.76,0,0,1-2.57,0l0,0c1.28-5.49-3.75-10.07-2.36-15.91,3.54-.11,3.14,6.21,7.38,4.47l-1.93-9.67Z"/><path class="clsWindow-5" d="M801,1406.85c6.38-5,12.92-9.9,15.17-17.64,7.61,1.15,9.34,5.49,8.2,10.08-1.88,7.6-8.12,9.41-15.24,9Z"/><path class="clsWindow-12" d="M751.82,1325.85c.6-4.08-2.28-6.59-4.31-9.47-1.46-3.74-.34-5.75,3.82-5.44,4,.29,8.46.34,9.38,5.39.88,4.78,1,9.71,1.38,14.55C756.71,1332.21,756.14,1325.47,751.82,1325.85Z"/><path class="clsWindow-14" d="M772,1354.32c10.93,4.08,6.15,12,7.65,20.6C765.21,1369.56,771.92,1361.12,772,1354.32Z"/><path class="clsWindow-6" d="M872.9,1202.05a27.34,27.34,0,0,0-6.32-18.54c.2-3.48-1.43-6.28-3.28-9l1.17,0,2.42-3.09c6.35,7,4.35,18,11.94,24.38l-.05,0c.18,1.14.35,2.28.53,3.42a4.86,4.86,0,0,0,.28,2.14c-.07,2,1.06,3,2.73,3.59C876.56,1212.57,876.34,1202,872.9,1202.05Z"/><path class="clsWindow-4" d="M745.71,1341l-8.31-2.79-3.83-.64c4-5.93,10.11-8.92,16.3-11.82a2.78,2.78,0,0,1,2.12.06c-.4,3.45,1.68,6.07,3,9-4,.53-9.89-1.91-9,6Z"/><path class="clsWindow-13" d="M872.82,1301.55l1.93,9.67c-4.24,1.74-3.84-4.58-7.38-4.47-1.39,5.84,3.64,10.42,2.36,15.91-6.12-4.44-5.16-12.48-9.17-18C864.57,1303.33,867.31,1297,872.82,1301.55Z"/><path class="clsWindow-12" d="M809.16,1298.62c-.17-2.67,6.05-6.18-1.8-7.24l7.94-5c1.81,1.92-3.76,11.21,5.6,5.61.46.42.94.82,1.43,1.21,1.88,3,.49,5.44-1.36,7.8C816.7,1301.84,812.52,1302.28,809.16,1298.62Z"/><path class="clsWindow-12" d="M767.58,1284.29c7.88-2.51,9.14,1.69,8.23,8.11-1.2,2.33-.51,6.63-4.73,5.92A5.36,5.36,0,0,1,767,1293C767,1290.07,767.35,1287.18,767.58,1284.29Z"/><path class="clsWindow-12" d="M772.79,1319.34c-3.28,4.85-2.25,10.33-2.3,15.65-.94,1.44-3,1.72-3.26.5a50.19,50.19,0,0,1,1.52-24.88C774.11,1312.78,772.47,1316.48,772.79,1319.34Z"/><path class="clsWindow-4" d="M821,1301c1.85-2.36,3.24-4.8,1.36-7.8,3.76.8,11-10,11,3.3C830.54,1301.58,826.05,1302.08,821,1301Z"/><path class="clsWindow-8" d="M743,1316.66c-6.09-2.09-12.23,5.67-18.31-.08,2.91-1.8,5.64-4.08,8.78-5.27C738.31,1309.47,742.23,1310.53,743,1316.66Z"/><path class="clsWindow-6" d="M908.76,1283.86c-6.45-5-5.57-10-6.15-14.56C907.69,1272.17,908.62,1276.74,908.76,1283.86Z"/><path class="clsWindow-12" d="M791,1361.88l-8.28,8.86c.4-4.71-3.38-11.31,5.51-12.18A4.19,4.19,0,0,0,791,1361.88Z"/><path class="clsWindow-6" d="M885.7,1219.22c-4.51,0-5-3.67-6.27-6.65C885.36,1213.49,885.36,1213.49,885.7,1219.22Z"/><path class="clsWindow-6" d="M864,1210.92c1.61-4.34,4.79-7.15,8.91-9C872.71,1207.65,870.64,1211.54,864,1210.92Z"/><path class="clsWindow-2" d="M778.85,1242c-3.84-1.51-7.68-3-11.84-1.11C771.39,1236.58,775.43,1236,778.85,1242Z"/><path class="clsWindow-2" d="M773.78,1234.79c1.81-3.69,4.91-2.82,7.93-2.26C779.82,1236,776.67,1234.93,773.78,1234.79Z"/><path class="clsWindow-2" d="M788.85,1223l2-3.6.47,3.48-.28.28C790.3,1223.09,789.57,1223,788.85,1223Z"/><path class="clsWindow-2" d="M793.51,1222.79a3.59,3.59,0,0,1-2.13,3.57l-.36-3.23.28-.28C792,1222.86,792.78,1222.84,793.51,1222.79Z"/><path class="clsWindow-2" d="M790.67,1229a3.57,3.57,0,0,1-2.36,3.43A3.57,3.57,0,0,1,790.67,1229Z"/><path class="clsWindow-3" d="M908.9,1256.25a3.55,3.55,0,0,1,2.72,3.71C910.72,1258.72,909.81,1257.49,908.9,1256.25Z"/><path class="clsWindow-9" d="M788,1401.71a3.16,3.16,0,0,1,3.19,2.54Z"/><path class="clsWindow-9" d="M806.41,1413.05c-1.78-.06-2.56-1.26-3.09-2.74Z"/><path class="clsWindow-13" d="M733.23,1156.31a29.84,29.84,0,0,0-12,15.07c-1.92-.06-2.82-1.28-3.32-2.94,1.71-2.51,5.71-4.32,2.68-8.45-3.63,1.9-5,4.63-3.88,8.46l-6.91,9.61c-.06-1.15-.11-2.3-.17-3.45.2-4.13,3.94-7.37,3-11.8-1.63-4.77-5.52-3-8.79-3.06l-.73-.91c5.92-5,13.83.7,19.91-3.62,3.95-6.91,1.76-12.18-4.1-16.55L722,1138l11.52,1c2.21,2.75,5.3,4.84,6.24,8.51l.07-.11C735.34,1148.65,734.09,1152.33,733.23,1156.31Z"/><path class="clsWindow-7" d="M722.22,1195.81c4.44,2.42,6,7,8.36,11-3.87,8.37-7.76,8.67-18.18,1.39-.11-1.74-.64-3.17-2.6-3.55l.07.08C709.64,1195.73,715.81,1195.61,722.22,1195.81Z"/><path class="clsWindow-15" d="M717.9,1168.44c.5,1.66,1.4,2.88,3.32,2.94a2.74,2.74,0,0,1-1.92,3.11c-6.84,4.29-.55,12.57-5.71,17.83h-7c-1-5.2,2.23-9.48,3.18-14.26l6.91-9.61Z"/><path class="clsWindow-13" d="M706.61,1192.32h7c5.16-5.26-1.13-13.54,5.71-17.83-1.65,7.46-1.27,14.65,2.92,21.32-6.41-.2-12.58-.08-12.35,8.92C704.75,1201.65,707.38,1196.54,706.61,1192.32Z"/><path class="clsWindow-20" d="M694.48,1174.53a6.85,6.85,0,0,0,.69-2c8.74,3.36,7.5,10.78,7.73,18.38C697.26,1186.33,693.15,1181.79,694.48,1174.53Z"/><path class="clsWindow-20" d="M712.59,1162.81c1,4.43-2.77,7.67-3,11.8l-4.58,2.71c-2.44-2.86-.84-7-4.15-8.87a4.19,4.19,0,0,0,.06-2l2.89-3.64v.09C706.75,1162.51,709.66,1161.14,712.59,1162.81Z"/><path class="clsWindow-5" d="M733.12,1268.47c-.11,3.69,2.56,8.15-3.13,10.53-4.47-4,2.38-6.76,1.23-10.27A2.24,2.24,0,0,1,733.12,1268.47Z"/><path class="clsWindow-1" d="M730.34,1267c-2.68,1.74-5.72,1.35-8.67,1.45C724,1264.38,726.93,1264.42,730.34,1267Z"/><path class="clsWindow-13" d="M709.8,1204.65c2,.38,2.49,1.81,2.6,3.55A4.19,4.19,0,0,1,709.8,1204.65Z"/><path class="clsWindow-10" d="M732.65,1167.93c.7-2.87,1.74-5.52,5.44-6.43,4.73,5.35,10.67-2.17,16.81,2.53,1.2,12,.3,25.53-.12,39a4,4,0,0,1-1.91-.19c-.77-11.62-.77-11.62-10.37-12.27-.61,4.36,4.09,6.68,5.15,10.38-2.43-.22-6.34.28-6.81-1.56-1.39-5.48-7.54-5.37-10.05-7.41-3.7-9.46,6.11-13.25,8.61-19.72C737.76,1169.81,732,1172.77,732.65,1167.93Z"/><path class="clsWindow-5" d="M806.88,1114.1c-1,6.41,3.64,13.57-4.13,19.67-4.23-1.91-9.72,1.62-15.37.8-.89-2,2.29-3.21-.43-5.87-2.14-1.68-5,3.76-8.05,1,.23-5.13,1.58-10.3-.47-15.37,9.19-1.28,18.21-4.17,27.67-2.68A3.48,3.48,0,0,0,806.88,1114.1Z"/><path class="clsWindow-18" d="M830.48,1168.59c-7.79-7.59-7.86-14.64,1.39-21.15.72-.5,1-1.64,1.45-2.49,3.57-3.9,5.49-9.92,12.32-9.65v0l-5,7.55c2.32,2.61,7.7.7,7.78,4.75.72,8.21-13.32,11.09-4,21Z"/><path class="clsWindow-20" d="M826.09,1181.53c-7.11,3.5-15.06,5.64-19.52,13-4-2.8,0-5.54-.91-8,3.57-8.67,7.07-17.41,16.52-20.54,6.37,2.62,5.22,7.6,5.83,11.84-.55,1.22-1.09,2.44-1.63,3.66Z"/><path class="clsWindow-12" d="M811.92,1111.06l5.89.44c1.91,1.09.2,4.51,3.16,4.94l-.06,4.79c-2.1,2-1,4.8-1.85,7.11l-6.46.58c-1.65-4.82,1-10.45-2.82-14.87Z"/><path class="clsWindow-8" d="M769.65,1129.55q0-6.24,0-12.49c.15-.38.52-.86.4-1.1a9.4,9.4,0,0,0-1.25-1.59l7.17,0c1.89,5.73-.88,12,2,17.62a12.52,12.52,0,0,1-8.15-2.27Z"/><path class="clsWindow-7" d="M845.64,1135.3c-6.83-.27-8.75,5.75-12.32,9.65-1.92-1.52-4-2.9-4.45-5.44,1.22-3.88,6.49-3.18,7.46-7.11C839.61,1132.8,843.71,1130.57,845.64,1135.3Z"/><path class="clsWindow-1" d="M777.92,1132c-2.87-5.63-.1-11.89-2-17.62a9.1,9.1,0,0,0,2.5-.07c2.05,5.07.7,10.24.47,15.37A10.49,10.49,0,0,0,777.92,1132Z"/><path class="clsWindow-18" d="M830.62,1171.63l18.07-.31c-3.42,6.34-11.59.34-15.32,5.89a11.42,11.42,0,0,0-2.71.66l-.43-.44Z"/><path class="clsWindow-1" d="M811.92,1111.06l-2.14,3-1.45,0-1.45.09a3.48,3.48,0,0,1-.78-2.44l3.61-3.72A3.14,3.14,0,0,1,811.92,1111.06Z"/><path class="clsWindow-1" d="M769.77,1129.76c-.25.35-.62,1-.76,1-.88-.26-.65-.74.64-1.2Z"/><path class="clsWindow-18" d="M826.38,1181.49c.54-1.22,1.08-2.44,1.63-3.66a11.35,11.35,0,0,0,2.23-.4l.41.44Z"/><path class="clsWindow-1" d="M768.76,1114.37A9.4,9.4,0,0,1,770,1116c.12.24-.25.72-.4,1.1a10.92,10.92,0,0,1-1.35-1.63C768.15,1115.24,768.58,1114.73,768.76,1114.37Z"/><path class="clsWindow-3" d="M646.63,1232.24q-.51,6-1,12.07a15.93,15.93,0,0,1-10.82,3.16c.3-5.94,5.27-11,4.54-17.88l-5,2.51-.08.12c.85-5.54,2-11,6-15.26.22,2.38-1.1,5,1.43,7.66,3.64-5.68,5.14-11.72,6.95-18.39-6.33,1.93-4,8.7-8.48,10.81.69-3.75-1.68-6.4-3.34-9.32l4.75-13.85c-4.82-1.46-10.92-1.55-12.6-7.52-1.53-5.42,2.42-9.3,4.33-14.74,9.22.29,21.75,5.06,21.13-11.82,4.46-1.5,1.39-3.93.75-6.06.19-2.57.12-5.26,2.94-6.67,2.94,8,3.37,16.3,3.16,24.69l-.43.45c-6.06,5-5.87,13.08-9.4,19.35-4.14,7.38-2,12.89,5.6,16.38l-5.1,8.61C648.51,1221.21,647.12,1226.57,646.63,1232.24Z"/><path class="clsWindow-5" d="M667.25,1120.08c-2.86-.3-7-.07-5.74-4.41,1.65-5.82,1.09-13.28,8.68-15.85,1.8-.61,3.89-.34,5.85-.47h0c-8.87,4.4-8.16,12.92-8.95,20.79Z"/><path class="clsWindow-5" d="M688.52,1129.23c-5.43-2.61-13.33-3.6-8.08-13.28l7.82,1.53c.22,1.85.43,3.69.65,5.54-.19,2.13-.37,4.25-.56,6.38Z"/><path class="clsWindow-5" d="M693.87,1111.37c5.49-.69,3.12,4,4.25,6.25,0,1.87,0,3.74,0,5.61-2.37-.14-5,7.33-7.12-.22Q692.41,1117.19,693.87,1111.37Z"/><path class="clsWindow-5" d="M670.49,1120.24c1.4-4.57,2.8-9.13,4.41-14.36,2.73,5.85.8,10.16-1.89,14.34A10.12,10.12,0,0,1,670.49,1120.24Z"/><path class="clsWindow-12" d="M670.49,1120.24a10.12,10.12,0,0,0,2.52,0c-2.37,6.93-7.41,6.55-13,4.89,1.31-3.47,7.27.16,7.26-5l-.14.07Z"/><path class="clsWindow-1" d="M693.87,1111.37q-1.46,5.82-2.92,11.64h-2c-.22-1.85-.43-3.69-.65-5.54l.25-3.3-.1.09C691,1114.7,692.21,1112.63,693.87,1111.37Z"/><path class="clsWindow-1" d="M698.07,1123.23c0-1.87,0-3.74,0-5.61C700.9,1119.52,700,1121.38,698.07,1123.23Z"/><path class="clsWindow-5" d="M691.43,1132.33a2.52,2.52,0,0,0-2.22-.55,8,8,0,0,0-.69-2.55l-.17.17C688.63,1131.16,694.52,1127,691.43,1132.33Z"/><path class="clsWindow-1" d="M688.51,1114.18c-1.18-.88-2.33-1.77-1.13-3.75.38,1.42.7,2.63,1,3.84Z"/><path class="clsWindow-8" d="M634.33,1162.84l-1.75,1.28,1.23-1.8Z"/><path class="clsWindow-8" d="M618,1167.64c.79-.94,1.69-2.51,2.94-1.31s-.08,2.28-1.13,3.09Z"/><path class="clsWindow-8" d="M618.89,1201.73l-1.17,1.47c.07-.28,0-.67.21-.81a4.55,4.55,0,0,1,1.12-.5Z"/><path class="clsWindow-7" d="M718.88,1138.67c5.86,4.37,8,9.64,4.1,16.55-6.08,4.32-14-1.35-19.91,3.62-10.5-.55.9-5-1-6.82-2.41-2.77-7.5-.53-8.25-6,4.59-8.94,13.35-8,22-7.51Z"/><path class="clsWindow-18" d="M657.05,1207.93c-7.63-3.49-9.74-9-5.6-16.38,3.53-6.27,3.34-14.33,9.4-19.35-4.27,10.56,3.6,18.13,6.63,26.89Z"/><path class="clsWindow-4" d="M670.36,1217.39l-1-6.15c-3.34,3.87-2.12,9.71-7.11,10.51-6.48-4-3.76-8.43.23-11.87s9-6,13.63-9C676.33,1207.13,675.32,1213,670.36,1217.39Z"/><path class="clsWindow-8" d="M709.66,1114.12c1,0,2.42-.44,2.81,0,4.19,5,1.43,12-5.76,14.95C705.73,1123.72,706.2,1118.62,709.66,1114.12Z"/><path class="clsWindow-2" d="M712.59,1162.81c-2.93-1.67-5.84-.3-8.76,0l0-3.1C707.07,1159.79,711,1158,712.59,1162.81Z"/><path class="clsWindow-2" d="M703.84,1162.76,701,1166.4A3.12,3.12,0,0,1,703.84,1162.76Z"/><path class="clsWindow-4" d="M673,1222.32a2.4,2.4,0,0,1-1.9.59,4,4,0,0,1-.37-2.78Z"/><path class="clsWindow-1" d="M628.85,1226.9c2.2,1.36,2,5.17,5.4,5.32l.08-.12c-.43,3.22,1.39,7.29-3.34,8.89l.14,0c-.22-1.68-.45-3.36-.71-5.32L625,1238l.11.11c0-2-.07-4-.1-6.07C628.48,1232,628.48,1229.29,628.85,1226.9Z"/><path class="clsWindow-4" d="M655.18,1153.73c.64,2.13,3.71,4.56-.75,6.06-1.5-.16-3.73-.72-3.28-2.06C651.68,1156.12,653.77,1155,655.18,1153.73Z"/><path class="clsWindow-3" d="M613.09,1407.15c.82-4.54-4.19-7.55-3.18-12.14l12-5.56c-1.26-8.91-6.92-16-9.42-24.27.38-2.56,0-4.88-2.2-6.58-.66-4.54-.66-4.54-3.61-3-11.33,3-14.11-3.5-14.32-12.87a31.82,31.82,0,0,1,14-6.48c2.84-11.38-1.38-23.55,2.73-35.17,3.54,1.54,6.69,3.22,9.82.29l-.06,6.3v-.2c-6.23,9.49-2.09,19.92-2.7,29.92l0,3.84c-.42,1.29-.83,2.58-1.49,4.65-4.18-3.8.65-9.81-6-14,3.36,17.65,12.94,30.63,19.21,44.93.49,2.05,1,4.11,1.48,6.16,1.87,1.88,1.33,5.59,4.77,6.28l-.2-.31c0,2.66-.13,5.4,3.24,6.34l-.21-.28.55,5.82-.46.37c-2.52,1.3-3.39,3.44-3.08,6.16l.18-.19c-1.64-.88-3.28-1.76-4.83-2.61-1.7,1.81-1.38,3.73-1.25,5.62l-.14.14C622.74,1410.5,617.31,1411.59,613.09,1407.15Z"/><path class="clsWindow-3" d="M611.51,1324.85c2.35-6.21,2.33-10.79-.59-16.39C609.83,1314.15,608.57,1318.74,611.51,1324.85Z"/><path class="clsWindow-8" d="M606.67,1355.64c3-1.58,3-1.58,3.61,3C607.26,1360.33,607.26,1360.33,606.67,1355.64Z"/><path class="clsWindow-12" d="M852,1117c.61,6.73-2.88,5.28-6.63,3.31-.74-1.25-.45-3.46-2.91-3.13-3.13-1.43-3-4-2.49-6.81,2.2.94,2-.65,2.06-2l3.46-.29c2.06,3.1,5.29-.57,7.58,1.33C855.63,1112.39,850.84,1114.3,852,1117Z"/><path class="clsWindow-18" d="M881.69,1174.53c5.91.83,13.91-.22,9.68,10.45-7.83,0-10-4.15-9.61-10.52Z"/><path class="clsWindow-18" d="M852.17,1169c4.55-.08,5.42-3.12,5.46-6.81l3.75,4.54,3.09,7.83-1.17,0C860.51,1170.8,854.58,1173.42,852.17,1169Z"/><path class="clsWindow-4" d="M864.47,1174.52l-3.09-7.83c4.55-1.58,5.17,1.42,5.51,4.74Z"/><path class="clsWindow-6" d="M878.83,1195.81q0-4.53-.07-9.06l.09-.08c4.08,3.06,4.13,6.1-.07,9.1Z"/><path class="clsWindow-4" d="M932.93,1228.63c-3.14-13.61-8.13-24.93-12.38-36.46-.83-2.23-3.13-2.14-5.16-2.05l-6.42,2.57h0l-5.93-.24a1.42,1.42,0,0,1,.19-2.23c.87-.2,1.74-.41,2.6-.65h0c1.88,0,3.26-2.78,3.27-2.78,3.34-.72,11.09,2.91,6-6.1-1.21-7.88-5.83-14.3-9.09-21.29-.39-3.15.5-6.66-2.53-9.07-1.54-2.71-3.17-5.33-6.52-6.1a.59.59,0,0,1,0,.13c-8.47-6-8.82-16-12.13-24.53a2.65,2.65,0,0,0,.29-2l-11.71,3a8,8,0,0,0-.61,2.36l.17.16c-.05,1-.09,2-.14,3,2,.91,3.14,3.43,5.74,3.15-3.7,4.73-9.19,5.26-15.9,5.1,6.07,10.63,6.44,22,13.13,31-.3,4.48,1.86,7.32,5.89,8.93l.17-5.61.16-.17c2.7-1.74,8.89,6.56,8.94-2.79,3.5,4.13,3.35,10,6.25,14.22,3.67,5.35-12.43,12.6-11.68,15,1,3.16,1.84,6.35,2.75,9.53a30.9,30.9,0,0,1,6,12.09c3.46,2.53,2.62,6.35,2.93,9.83,16.79-6,18.13-5.32,20.91,11.43,6.79.24,8.65-2.52,5.69-9-1.69-3.71-8.73-6.5-2.85-11.94-1.27-3.87-3.36-7.55-2.73-11.85l-.12-.27h0l.12.27c1.21,3.85,6.72,6.71,2.91,11.72C923.55,1221.45,925.35,1226.55,932.93,1228.63Zm-57.75-105.29,3.68,6Z"/><path class="clsWindow-6" d="M878.76,1186.75c-1.88-.77-2.87-1.9-1.67-4.06,2.31.59,1.33,2.61,1.76,4Z"/><path class="clsWindow-4" d="M845.46,1108.15l-3.46.29a8.34,8.34,0,0,1-2.06.11h0c0-1-.07-2-.1-3l.18-.09h5.36A2,2,0,0,1,845.46,1108.15Z"/><path class="clsWindow-4" d="M872.72,1126.23c-.93,2.67-2.4,3.54-4.83,1.51,1.38-1.75,3.26-1.17,5-1.38Z"/><path class="clsWindow-13" d="M879.59,1201.33a4.86,4.86,0,0,1-.28-2.14l1.24,1.51Z"/><path class="clsWindow-4" d="M869.48,1122.88a3.92,3.92,0,0,1,3.94-2.14,8,8,0,0,0-.61,2.36Z"/><path class="clsWindow-13" d="M824.7,1371a4,4,0,0,1-.91-2.4c1.8-4.61,5.94-.08,8.4-2.14,1.83-2.53,1.29-5.3.84-8.06q.08-14.87.14-29.72c5.25,2,1.88,8.57,5.62,11.41,10.25,1.61,20.05,2.11,28.53-5l.22.15c2.58,7.18,6.85,9.77,13.81,5.1l0,0c-.38,5.56,2.9,10.27,3.58,15.58-8.28-9.93-18.9-13.24-31.66-12.49-16.24,1-16.84,1.18-16.14,18.66,2.1,1,2.84-2.13,3.45-1.77,4.71,2.8,9.21,6,14.61,9.57,8.21-9.56,18.24-3.13,27.88-2.24,2.91-4,1.42-8.09,1.72-11.91,9.7,1,16.25-6.16,24.27-9.5.92,4.7-1.24,8.71-2.68,13-.52,1.54-1.6,5.7,3,3l8.62-.14c.79,4.49-8.57,5.82-3.61,11.6l-8.75,3.22c.1-1.84.71-3.77-.85-5.35l-5,2.39.25.17c-1.47-3.57-4.45-3.37-7.54-3.12-16,1.26-31.27,4.73-44.1,15.22l.24-.17c-2.59-.2-5-.07-5.94,3l-.07.11c-5.55-2.06-10.06-11.87-16.65-2C817.6,1382,833.89,1375.85,824.7,1371Z"/><path class="clsWindow-8" d="M941.68,1329.2c-2.25-.58-4.68-1-4.71-4.1,10.2-10.46.3-21.42,1.68-32.45H930.3c-.13.94-.24,1.88-.35,2.82-2.73.82-6-1-9.31,2.45,2.09,14.94-1.14,30.55-2.7,47.52,5.28-3.92-.07-10.35,6.09-12,2.39,5.17,10.27,1.34,12.2,7.3,5.21-1,1.89-7.27,5.61-9.19A4.57,4.57,0,0,0,941.68,1329.2Z"/><path class="clsWindow-7" d="M909.42,1362.23c-4.62,2.73-3.54-1.43-3-3,1.44-4.24,3.6-8.25,2.68-13a4.71,4.71,0,0,0,.15-1.75c4.61-3.93.51-10.71,5.18-15.29C917.6,1341.36,911.33,1351.48,909.42,1362.23Z"/><path class="clsWindow-8" d="M936.14,1340.73c-.16,4.23-1.35,8-6.28,8.18-3.49.1-5-2.43-4.52-5.93,3.14-3.53,7.33-1.36,10.95-2.1Z"/><path class="clsWindow-6" d="M909.37,1322.36c.8-9.3-1.56-18.71,1.16-27.93.78,9.3,5.23,18.76-1.32,27.74Z"/><path class="clsWindow-8" d="M922.51,1351.51c1.8.63,3.52,1.45,2.86,3.75a2.6,2.6,0,0,1-2.39.82C921,1354.9,921.25,1353.19,922.51,1351.51Z"/><path class="clsWindow-9" d="M703.61,1359c.18,7.84,4,15,3.3,23.19-.59,7,7.25,8.49,10.89,12.82,2.1,2.51,10.47,2.68,4.22,9.15-3.33-4.84-8-2.88-12.44-2.55l-.66-6.84c-2.43-8-7.61-8.65-14.27-5.31a2.74,2.74,0,0,0-2.65,3.17v0l-8.39,2.56c-.58-7-8.23-1.35-10.29-5.73-.08-1-.15-2.1-.22-3.15h14.52c1.13-15.23,1.13-15.23-3.82-28.22-4.55,7.21,3.47,17.35-5.62,23.52-4.61-5.76,1.83-14.13-4.63-19.36-1-7.16,1-12.23,9.2-12.71,4.87-2.57,2.22-4.75-.35-6.94l-.09-1.22,5.84-.45,1,5.57c-.84,6.94-1.56,13.86,3.48,19.7,5.33-.08,6.68-5.74,10.81-7.38Z"/><path class="clsWindow-14" d="M655.37,1419.35l-12.28,3,.07.1-.09-9.23-.05,0a3,3,0,0,0,3.28-2.5c7.9-9.08,8.2-21,11.55-31.7,1.28-4.13.62-9.13,8.15-10.27,2.49,7.57,1.44,14.69-1,22.31-2.36,7.45-7.75,14.08-6.67,22.55l.11-.31c-3.82.57-3.37,3.43-3.29,6.1Z"/><path class="clsWindow-7" d="M628.31,1349.69c6.35-.34,12.83.5,20.09-4,5.37,13.4,5.79,25.31.79,37.51l-9.13.11a11.4,11.4,0,0,1-4.81-6.88c1.39-11.15,18.58-9.59,12.22-22.29-8.45-2.93-15.5.34-22.72,2l0,.21q1.66-3.21,3.34-6.41Z"/><path class="clsWindow-14" d="M655.93,1329.25l20.25-9.37-3.51,20.48c-3.7,3.24-7.69,5.69-13.25,5.69C657,1340.29,661.66,1333.54,655.93,1329.25Z"/><path class="clsWindow-7" d="M673.56,1362.27c6.46,5.23,0,13.6,4.63,19.36,9.09-6.17,1.07-16.31,5.62-23.52,5,13,5,13,3.82,28.22H673.11C666.2,1378.18,675.6,1370.33,673.56,1362.27Z"/><path class="clsWindow-3" d="M646.3,1410.78a3,3,0,0,1-3.28,2.5c-2-3.78-5.21-3.14-8.46-2.45l-.77-.81a10.23,10.23,0,0,1,.39-2.8l-.18.19c3-1.05,2.92-3.67,3.08-6.16l.46-.37c2,0,2.79,4.16,6.43,1-3-2-2.78-6.2-7-6.82l.21.28c-.29-2.52.69-5.68-3.24-6.34l.2.31c.2-1.1.4-2.21.61-3.32l4.9-.32.7.72c-.73,6.62,2.54,9.31,8.86,9C649.14,1400.68,645.24,1405.26,646.3,1410.78Z"/><path class="clsWindow-2" d="M683.62,1395.21c-4.6,4.22-10.21,3.17-15.65,3-1.14-4.7,1.08-7.34,5.36-8.71C675.39,1393.86,683,1388.17,683.62,1395.21Z"/><path class="clsWindow-7" d="M637.52,1344.35c-1.75,4.05-7.5,1.21-9.21,5.34l-.27.18c-3.12-1.14-3-3.71-2.79-6.32l7.09-4.45,4.26,4.06Z"/><path class="clsWindow-2" d="M649.23,1395.37c-6.32.33-9.59-2.36-8.86-9l8.84-.29Z"/><path class="clsWindow-2" d="M667.61,1400.66c2.63.88,6.41,1.54,5,5.21s-5.14,5.3-9.38,4.56C663.82,1406.78,663.53,1402.74,667.61,1400.66Z"/><path class="clsWindow-2" d="M661.49,1413c2.66,1.36,2.21,4.14,2.91,6.4l0-.13-6.31,0,.28.22.06-6.07-.11.31Z"/><path class="clsWindow-12" d="M682.41,1342.62c2.57,2.19,5.22,4.37.35,6.94l-2.43-3C679.88,1344.67,681,1343.56,682.41,1342.62Z"/><path class="clsWindow-3" d="M649.21,1386.1l-8.84.29-.7-.72a5.4,5.4,0,0,0,.39-2.38l9.13-.11C649.21,1384.16,649.22,1385.13,649.21,1386.1Z"/><path class="clsWindow-8" d="M749.87,1325.73c-6.19,2.9-12.31,5.89-16.3,11.82l0,0c-1,1-2,2.09-3,3.13l-10,2.08c-2.88-4.26-4.71-8.62-4.5-13.58C734.54,1318.14,740.78,1317.52,749.87,1325.73Z"/><path class="clsWindow-4" d="M703.44,1358.84c-4.13,1.64-5.48,7.3-10.81,7.38-5-5.84-4.32-12.76-3.48-19.7l5.63,3.63c1.57,5.63,5.23,4.34,9,2.71l-.18-.2Z"/><path class="clsWindow-5" d="M706.27,1341.17l.6-11.94c1.79-.58,4.41-1.76,4.79.83.88,6.08,6,11.39,3.59,18.2C710.62,1347.66,708.41,1344.46,706.27,1341.17Z"/><path class="clsWindow-8" d="M703.19,1350.06l.42-4.34L726.16,1362c-10.61-1.66-16-7-22.57-9.38l.18.2A4.71,4.71,0,0,0,703.19,1350.06Z"/><path class="clsWindow-4" d="M715.46,1310.24c3.6.31,3.85,2.11,2.19,4.82-2.29-.84-2-2.86-2.29-4.63Z"/><path class="clsWindow-4" d="M730.65,1340.7c1-1,2-2.09,3-3.13A3.48,3.48,0,0,1,730.65,1340.7Z"/><path class="clsWindow-13" d="M821.07,1425.11c7.28,2.35,9.28-3.37,11.4-8.23l7.61,6.64c.3-7.42.16-12.69-6.87-14.17,4.52-4.66.08-9.93.86-14.69,2.11-3.29,7.19-1.5,8.62-5.51l.07-.11c3.8,3.06,2.4,7.61,3.28,11.5-4.85,5.65-3,10.9,1.27,15.68,5.08,5.67,9.21,1.87,14-1.21,4.43-2.84,9.76-4.55,15.17-1.58l-9.36,11.84-3.61,2.32c-2.51,1.34-4.89,2.8-5.25,6,4.58,4.42,9.54,2.27,14.45,1l-.12-.17c-1.9,4.47-6.34,5.88-10.07,8.54l-9.39-7.73-17.12,11-5.67-2.49c-6.66-4.65,4.46-6.54,1.43-10.91-4-3.82-9-.73-13.65-1.34a6.55,6.55,0,0,0-.33-2.71Z"/><path class="clsWindow-19" d="M888.12,1401.2c-5.61-1.21-5.61-8-10.69-10.61-6.22,2.25-13.16,1.74-20.06,1.76a4.87,4.87,0,0,0-2.72-.27l-1.35-.16-1.37,0c-1.08-2-2.16-3.93-3.23-5.9l-.24.17c7.11,2.87,15.26,4.54,21.29.21,9.35-6.71,20.55-7.53,30.35-12.31l-.25-.17c1,4.59-3,7.84-3.27,12.09a3.68,3.68,0,0,0-2.5,3.34Q891.11,1395.29,888.12,1401.2Z"/><path class="clsWindow-6" d="M899.84,1404.36c-2.55,0-4.88-.49-6-3.23l0,.1c3.14-1,2.68-3.77,3.12-6.12l-.12.15c6.63-1.59,13-1.59,18.69,3-3.53,3.72-6.9,5.81-12.27,2.28-3.65-2.39-3,1.66-3.21,3.69Z"/><path class="clsWindow-3" d="M848.7,1386.05c1.07,2,2.15,3.93,3.23,5.9-3.74,1.65.18,8.55-5.89,8.59-.88-3.89.52-8.44-3.28-11.5C843.7,1386,846.11,1385.85,848.7,1386.05Z"/><path class="clsWindow-6" d="M888.12,1401.2q3-5.91,6-11.82l1.45-.25,1.47.1-.13-.1c0,2,0,4.08,0,6.13l.12-.15a6.33,6.33,0,0,0-3.12,6.12l0-.1Z"/><path class="clsWindow-3" d="M854.65,1392.08a4.87,4.87,0,0,1,2.72.27c.44,1.69,2.24,3.07,1.14,5.22C853.51,1398.38,854.8,1394.71,854.65,1392.08Z"/><path class="clsWindow-3" d="M897.26,1226.57c-.31-3.48.53-7.3-2.93-9.83-1.46,4.71-5.71,6.47-9.64,9,5.68,12.76,8.74,26.71,16,39.25,3.69-2.79,3.32-8.26,8.27-8.67,0-3.61.76-7.46-3.41-9.56a9.32,9.32,0,0,1,.29-2.63c1.07-3,3.41-2.74,5.83-2.35l6.53-3.7C915.4,1221.25,914.09,1220.52,897.26,1226.57Z"/><path class="clsWindow-1" d="M918.28,1205.16c1.22,3.91,6.88,6.79,2.76,11.93C919.77,1213.19,917.65,1209.49,918.28,1205.16Z"/><path class="clsWindow-12" d="M817.8,1428.77a6.55,6.55,0,0,1,.33,2.71c-3.92,3.11-2.3,10.26-8.53,11.7l-3.14-2.88C811.21,1437.41,808.22,1426.91,817.8,1428.77Z"/><path class="clsWindow-6" d="M631,1241c4.73-1.6,2.91-5.67,3.34-8.89l5-2.51c.73,6.93-4.24,11.94-4.54,17.88a5.83,5.83,0,0,0-.42,2.64,3.08,3.08,0,0,0-.61,1.77c-1.9.23-5.4,2.54-3.84-2.27A23.16,23.16,0,0,0,631,1241Z"/><path class="clsWindow-8" d="M656.05,1139c-3.75,1.26-.61,9.8-8.72,7.09,0-6,4-13.62-4-18.85-6.7,10.91-7.65,23.13-9.5,35.09l.52.52c2.1,1.77,3.76,3.84.29,5.59-2.46,1.24-5.45.61-6.75,4.52-3.17,9.58-9.53,18.15-8.82,28.93,1.84,1.7,3.64,4.13.64,5.52-9.45,4.4-11.36,13-13.28,21.75l-3,9.15c.29.9.59,1.78.91,2.67l2.57-2.92c5.07-1,7.3,4.4,11.28,5.17,3.8,0,4.05-4.23,6.86-5.11v8.08l6.13-5.18c-.22-1.68-.45-3.36-.71-5.32l-5.31,2.23c0-2-.07-3.94-.1-5.91,3.47-.06,3.47-2.72,3.84-5.11,2.2,1.36,2,5.17,5.4,5.32.85-5.54,2-11,6-15.26l-.1.08c.69-3.75-1.68-6.4-3.34-9.32l4.75-13.85c-4.82-1.46-10.92-1.55-12.6-7.52-1.53-5.42,2.42-9.3,4.33-14.74,9.22.29,21.75,5.06,21.13-11.82-1.5-.16-3.73-.72-3.28-2.06.53-1.61,2.62-2.69,4-4,.19-2.57.12-5.26,2.94-6.67C657.34,1144.44,659.6,1141,656.05,1139Z"/><path class="clsWindow-6" d="M664.4,1419.36c4.08.44,4.63-4.85,9.13-5.18,3.42,6,9.8,9.55,15.07,14.36-5.43.38-1.58,7.38-6,8.46-6.15-1.07-8.87-8.19-15.35-8.69l.27.17c.29-2.46-.83-3.51-3.25-3.26l.22.29,0-6.28Z"/><path class="clsWindow-4" d="M682.57,1437c4.45-1.08.6-8.08,6-8.46l-.1-.1c2.76,2.14,1.61,6.9,5.53,8.27,5.36,2.7,1.47,6.29.93,9.56l-3.78.42.27.1a3.26,3.26,0,0,0-3.16-3.19l.08.27C688.05,1440.22,683,1440.56,682.57,1437Z"/><path class="clsWindow-6" d="M667.22,1428.31l5.6,8c-7.89-3.62-15.08-7.88-17.45-17l-.2.11,3.23,0-.28-.22a11.56,11.56,0,0,0,6.34,6.3l-.22-.29a3.43,3.43,0,0,0,3.25,3.26Z"/><path class="clsWindow-6" d="M691.18,1446.69c-4.25,5.92-5.76-.25-8.32-1.84,1.59-1.91,3.65-.85,5.51-1l-.08-.27c.08,2,1.52,2.71,3.16,3.19Z"/><path class="clsWindow-9" d="M703.62,1452.67c10,3.83,19.53,2.77,27.81-3.88,3.08,3.67.74,5.39-.5,7.33-3.75-.38-4.9,2.05-4.94,6C717.9,1459,709.88,1458.11,703.62,1452.67Z"/><path class="clsWindow-1" d="M634.38,1250.11a5.83,5.83,0,0,1,.42-2.64,15.93,15.93,0,0,0,10.82-3.16q1.89,7.49,3.77,15C643.92,1257,641.71,1249.36,634.38,1250.11Z"/><path class="clsWindow-1" d="M649.33,1286.36c-1.25,2.76-4,2.61-6.32,3.2C644.23,1286.74,647,1287.05,649.33,1286.36Z"/><path class="clsWindow-1" d="M700.75,1277.32c-.67,4-2,7.64-6.19,9.29C694.54,1282.13,696.69,1279.09,700.75,1277.32Z"/><path class="clsWindow-3" d="M896.82,1395.26c0-2,0-4.09,0-6.13,4.77-2.75,4.65-9,8.81-12.22l8.75-3.22c-1.72,5.06-3.44,10.12-5.65,16.66,5.25-.73,8.65,2.49,12.51,4.85l-.2-.2.24,3.31-3.06,3.23-2.76-3.32C909.84,1393.67,903.45,1393.67,896.82,1395.26Z"/><path class="clsWindow-1" d="M921.29,1395.2l1.33-2.19c1.78,2.43-1.18,1.2-1.53,2Z"/><path class="clsWindow-9" d="M863.52,1427.59l3.61-2.32c7.15-.79,10.79-6.77,18.38-12.63-4.32,8.53-7,15.07-3.68,21.94l-9.23-.17.12.17c.43-1.68.85-3.36,1.34-5.31C870.18,1429.46,866.35,1431.25,863.52,1427.59Z"/><path class="clsWindow-12" d="M820.91,1121.23l.06-4.79a11.73,11.73,0,0,1,.72-7.89l5.87-.52,0,0c-.67,6.17,7,9.47,5.51,16.64-4-.17-8.27-1.4-11.84,1.34A4.45,4.45,0,0,1,820.91,1121.23Z"/><path class="clsWindow-4" d="M853,1127.14c-5.09,3.27-12.2-.3-16.45,5.25-6.9-.79-13.72.18-20.54,1-4,.51-3.58-2-3.38-4.5l6.46-.58,2.19-2.31c3.57-2.74,7.84-1.51,11.84-1.34,1.49-7.17-6.18-10.47-5.51-16.64l.85-1-.87,1-5.87.52c-2.17-.16-3.53.73-3.88,3l-5.89-.44a3.14,3.14,0,0,0-2.21-3.12,7.56,7.56,0,0,0-.23-2.72l29.9-6.61a6.28,6.28,0,0,0,6.62-2.07l3.13,2.39q-1.87,3.24-3.74,6.5H840c-.89-2.23-1.9-4.09-4.54-1.24l4.36,1.33c0,1,.07,2,.1,3a1.52,1.52,0,0,1,0,1.84c-.55,2.77-.64,5.37,2.49,6.81.12,1.92.23,3.85.35,5.78.85-.88,1.71-1.76,2.56-2.65,3.75,2,7.24,3.42,6.63-3.31C860.69,1119.57,859.72,1122.81,853,1127.14Z"/><path class="clsWindow-1" d="M820.91,1121.23a4.45,4.45,0,0,0,.34,4.8l-2.19,2.31C819.92,1126,818.81,1123.21,820.91,1121.23Z"/><path class="clsWindow-1" d="M821.69,1108.55a11.73,11.73,0,0,0-.72,7.89c-3-.43-1.25-3.85-3.16-4.94C818.16,1109.28,819.52,1108.39,821.69,1108.55Z"/><path class="clsWindow-1" d="M842.78,1123l-.35-5.78c2.46-.33,2.17,1.88,2.91,3.13Z"/><path class="clsWindow-3" d="M839.85,1105.51l-4.36-1.33c2.64-2.85,3.65-1,4.54,1.24Z"/><path class="clsWindow-1" d="M827.56,1108l.87-1-.85,1Z"/><path class="clsWindow-5" d="M745.64,1120.4l-.06,11.7a91.15,91.15,0,0,1-27.09-1.46c-1.47-6.47.9-10.84,1.09-16.06h19.81v-.06C739.61,1118.48,741.78,1120.33,745.64,1120.4Z"/><path class="clsWindow-10" d="M733.54,1139,722,1138c5.47-5.88,12.24-.85,18.86-3.9C739.49,1140,735.5,1137.33,733.54,1139Z"/><path class="clsWindow-4" d="M809.6,1443.18c6.23-1.44,4.61-8.59,8.53-11.7,4.61.61,9.67-2.48,13.65,1.34,3,4.37-8.09,6.26-1.43,10.91a10.46,10.46,0,0,1-6.28,6.48C818.47,1449.46,812.05,1450.41,809.6,1443.18Z"/><path class="clsWindow-6" d="M806.12,1461.67c3-4.07,8-4.5,12.07-6.59l4.12,1.1C817.9,1461.33,812,1461.55,806.12,1461.67Z"/><path class="clsWindow-9" d="M839.58,1452.64c-.06-2.45-.16-4.93,3.58-4.92.37,2.91-1.3,4.13-3.68,4.84Z"/><path class="clsWindow-3" d="M905.83,1244.16c1.07-3,3.41-2.74,5.83-2.35C910.31,1244.07,907.93,1243.77,905.83,1244.16Z"/><path class="clsWindow-1" d="M930.28,1247.06l-2-1.23c2.41-1.81,1.37.75,1.81,1.43Z"/><path class="clsWindow-3" d="M643.07,1413.23l.09,9.23C638.83,1419.43,637.42,1416.37,643.07,1413.23Z"/><path class="clsWindow-15" d="M636.6,1343.16l-4.26-4.06-7.09,4.45c-2.48-8.18-4.49-16.41-2.18-26.6l14,11.6Q636.85,1335.86,636.6,1343.16Z"/><path class="clsWindow-18" d="M637.12,1328.55l-14-11.6c-2.31,10.19-.3,18.42,2.18,26.6-.2,2.61-.33,5.18,2.79,6.32q-1.68,3.2-3.34,6.41c-5.38-3.56.13-13.27-8.47-15l0-3.84c5.77-9.53,1.26-20,2.7-29.92v.2c3.32-1.08,1.62,8.93,7.05,3.18.84-.05,1.69-.1,2.53-.18-.65,4.5.76,7.68,5.58,8.65l3.32.36-.36,9Z"/><path class="clsWindow-15" d="M637,1328.72l.36-9c4,.55,8.84-2.12,12.24,3.8C646.41,1327.57,643.24,1331.21,637,1328.72Z"/><path class="clsWindow-6" d="M634.05,1319.36c-4.82-1-6.23-4.15-5.58-8.65C632.93,1311.92,634.66,1314.89,634.05,1319.36Z"/><path class="clsWindow-9" d="M611.45,1252.06c1.53.35,1.85,1.72,1.5,3.14s-1.15,2.89-3,1.93c-.76-.4-1.7-1.53-1.64-2.24C608.44,1253.36,609.6,1252.33,611.45,1252.06Z"/><path class="clsWindow-1" d="M608.55,1264.62l-1,2.34c-.76-.35-1.95-.52-2.18-1.09a2.35,2.35,0,0,1,.94-2.14C606.84,1263.51,607.79,1264.28,608.55,1264.62Z"/><path class="clsWindow-10" d="M658.21,1253.15c.43-1.46-.73-3.62,1.83-4.21,1.4,2.31-.07,3.34-1.76,4.27Z"/><path class="clsWindow-4" d="M708.11,1317.26c-5.55,1.63-12.63-9.67-16.76,2.22-3.21-.38-2.87-4.62-5.75-5.36l-3.18,5.49c.28.82.52,1.66.72,2.51h0a10.07,10.07,0,0,1-.49,10c0,1.76,0,3.52,0,5.28h0c-.11,1.33-.21,2.67-.32,4l5.84-.45c7.92-5.75,6.37,3.68,9.35,5.85l5.68,3.26.42-4.34c0-1.55,0-3.1,0-4.65L705,1341l1.32.17q.3-6,.61-11.94C697.51,1324.36,710.28,1321.63,708.11,1317.26Z"/><path class="clsWindow-4" d="M745.64,1120.4c-3.86-.07-6-1.92-6.24-5.88C742.39,1115.52,745.93,1115.93,745.64,1120.4Z"/><path class="clsWindow-9" d="M915.51,1398.22l2.76,3.32c-.19,2.35-.67,4.55-3,5.83a4.19,4.19,0,0,0-3.3,2.92c-5.54,1-7.74-4.55-12-6.1.24-2-.44-6.08,3.21-3.69C908.61,1404,912,1401.94,915.51,1398.22Z"/><path class="clsWindow-3" d="M912,1410.29a4.19,4.19,0,0,1,3.3-2.92,11,11,0,0,1-.64,2.71l-1.32.29Z"/><path class="clsWindow-8" d="M634.18,1407.22a10.23,10.23,0,0,0-.39,2.8l-5.69.21c-.13-1.89-.45-3.81,1.25-5.62C630.9,1405.46,632.54,1406.34,634.18,1407.22Z"/><path class="clsWindow-15" d="M845.49,1207.94c.73,12.17-10,7.19-15.39,9.54-3.9,1.72-9.54-.51-14.41-1,2.1-7.23-1.74-18.24,11.65-18.28C832.33,1203.44,838.91,1205.69,845.49,1207.94Z"/><path class="clsWindow-15" d="M826.38,1181.49l4.27-3.62a11.62,11.62,0,0,1,2.72-.66c3,1.76,6.51,3.55,5.47,7.6-.81,3.12-.08,4.86,2.65,5.38,12.08,2.27,8.13,8.62,4,15.09l-9-4.8c-.87-7.1-9.86-7.41-11.56-13.82q.56-2.57,1.12-5.13Z"/><path class="clsWindow-8" d="M824.56,1262.25c-5.28,1.7-9.62,5.89-15.54,5.87l-.06-8.36-.6-3.72c1.62-5.79-.15-12.92,6.61-16.68C816,1247.9,825.63,1252.83,824.56,1262.25Z"/><path class="clsWindow-13" d="M778.93,1207.85c7.94-2.8,12.92-10.4,21-12.92,1.79,5.9-3,10.82-2.45,16.53a6.14,6.14,0,0,1-.44,2.36c-2.7,1.33-3,3.73-2.8,6.32a4.7,4.7,0,0,1-.76,2.65c-.73,0-1.47.07-2.21.06l-.47-3.48c0-3.1-.54-5.41-4.55-5.81C783,1213.23,779.67,1212,778.93,1207.85Z"/><path class="clsWindow-20" d="M808.36,1256l.6,3.72c-3.13,2.61-9.52-8.42-5.29-11.16C808.38,1249,805,1254.75,808.36,1256Z"/><path class="clsWindow-11" d="M836.53,1200.48l-9.47-4.08a4.29,4.29,0,0,0-2.37-.61l-3.22-3.31,3.5-5.82C826.67,1193.07,835.66,1193.38,836.53,1200.48Z"/><path class="clsWindow-7" d="M821.47,1192.48l3.22,3.31A3.1,3.1,0,0,1,821.47,1192.48Z"/><path class="clsWindow-8" d="M712.93,1413.11c3.42,2.35,3.39,8,8.48,8.76-1.28,3.35-1.95,7-5.31,9.18C714.3,1425.2,711.73,1419.49,712.93,1413.11Z"/><path class="clsWindow-8" d="M721.86,1419.39c-.4-3.48-.82-7,1.86-9.87C724,1413,725.59,1416.69,721.86,1419.39Z"/><path class="clsWindow-13" d="M751.83,1388.92l3.07.31C753.45,1393.32,752.78,1389.74,751.83,1388.92Z"/><path class="clsWindow-5" d="M739.86,1401.18l-2.11-1.47c2.26-1.5,1.83.43,2,1.58Z"/><path class="clsWindow-5" d="M742.89,1404.21c-2.06,0-2.81-1.23-3-3l-.1.11c2.21-.21,3,1,3,3Z"/><path class="clsWindow-7" d="M866.58,1183.51c.2-3.48-1.43-6.28-3.28-9-2.79-3.7-8.72-1.08-11.13-5.54,4.55-.08,5.42-3.12,5.46-6.81-3.27-9.25-6.07-18.57-3.9-28.32-3.83-1.06-5.82.77-8.1,1.44l-5,7.55c2.32,2.61,7.7.7,7.78,4.75.72,8.21-13.32,11.09-4,21H830.48c0,1,.09,2,.14,3l18.07-.31h0c-3.42,6.35-11.59.34-15.32,5.89,3,1.76,6.51,3.55,5.47,7.6-.81,3.12-.08,4.86,2.65,5.38,12.08,2.27,4.08,15.52,4,15.09l-9-4.8-9.47-4.08a4.89,4.89,0,0,0,.28,1.82c5,5.22,11.57,7.47,18.15,9.72.73,12.17-10,7.19-15.39,9.54-3.9,1.72-9.54-.51-14.41-1l-.72,22.86c1,8.47,10.5,13.4,9.6,22.67,4.24-2.59,5.63-9,11.94-8.82,3.06-2,6.08.21,9.12.11,1.37-5.24,2.58-10.54,6.07-14.91-1-2-.6-4.76-3.1-6-1.63,2.13-3.52,3.5-6.33,2.19.87-15.6,3.09-18.13,18.59-21.24l3.15-2.43c1.61-4.34,4.77-7.13,8.89-9A27.37,27.37,0,0,0,866.58,1183.51Z"/><path class="clsWindow-8" d="M791.44,1376.69c3.51-1.47,7-4.36,11.44.26-4,4-7.69,5.08-11.88.37Z"/><path class="clsWindow-13" d="M869.75,1322.69a15.76,15.76,0,0,0,2.57,0l.42,3.06c1.12,3,3.57,3,6.14,2.88l8.51.61c-3.66,3.83-.72,9.25-6,11.2l0,0c-3.75-10.38-4.54-10.67-13.81-5.1l-.22-.15C866.05,1330.57,870.55,1327.15,869.75,1322.69Z"/><path class="clsWindow-13" d="M742.22,1437.29c.7-1.59,1.57-3,3.58-3,.89,1.8,1.42,3.83-.57,5C744,1439.93,742.77,1438.67,742.22,1437.29Z"/><path class="clsWindow-4" d="M833,1358.44q.08-14.87.14-29.72c-.85,0-1.7,0-2.55-.1l-6.25.14c-1.58-4.94-7.26-9.06-3-15.17l-9,.1c1.63,3.61,4,7.08,4.72,10.86,1.07,5.86-1.76,8.31-9.8,5.64,6.91-4.65.26-11.6,5.07-16.52-2.93-5.82-7.1-2.75-10.66-1.94-3.79,4.26.43,10.26-4.11,13.79-.18,12.57,10.9,17.09,17.66,24.7.91-2.61-.24-4.66-1.28-7-2.75-6.25,1-7.56,6.68-8,1.89,6.94-2.2,10.89-5.36,15.16l.33,5.46c4.36,3.26,4.59,9.16,8.26,12.87,1.8-4.61,5.94-.08,8.4-2.14C834,1364,833.48,1361.2,833,1358.44Z"/><path class="clsWindow-8" d="M812.28,1313.69c1.63,3.61,4,7.08,4.72,10.86,1.07,5.86-1.76,8.31-9.8,5.64,6.91-4.65.26-11.6,5.07-16.52Z"/><path class="clsWindow-8" d="M815.16,1350.22c.91-2.61-.24-4.66-1.28-7-2.75-6.25,1-7.56,6.68-8,1.89,6.94-2.2,10.89-5.36,15.16Z"/><path class="clsWindow-9" d="M748.82,1376.6l-2.87.93C746.58,1376.24,746.84,1373.76,748.82,1376.6Z"/><path class="clsWindow-4" d="M842.66,1280.21l.06,12.28C836.81,1283.06,836.81,1282.84,842.66,1280.21Z"/><path class="clsWindow-2" d="M794.27,1220.14c-.16-2.59.1-5,2.8-6.32C797.41,1216.5,796.73,1218.71,794.27,1220.14Z"/><path class="clsWindow-12" d="M824.21,1277.15c-.13,2.07-1.16,3-3.27,2.63Z"/><path class="clsWindow-10" d="M876,1225.8l-3.24,3.16-12-8.87c-5.39,3-12.28,4-12.21,12.31,2.5,1.25,2.14,4,3.1,6h0c-3.42,4.29-4.65,9.46-6,14.59,2,.1,2.78,1.45,3.09,3.28l6.28,3.41,8.14-6.77h0c3.43-.66,3.42-3.17,3.14-5.83l.38-.31c4.66,5.69,14.18,8.1,12.26,18.22l2.89.06C886.94,1250.93,888,1237.4,876,1225.8ZM865.48,1238l.91-.36Zm3.31-1.49,0,0Zm-.75.4-.1,0Zm-.8.37-.32.13Z"/><path class="clsWindow-4" d="M746,1340.69c2.32.3,4.77.39,5.4,4.41-3.23.12-4.82-1.36-5.67-4.12Z"/><path class="clsWindow-15" d="M872.74,1325.72l-.42-3.06C874.76,1323.36,876,1324.24,872.74,1325.72Z"/><path class="clsWindow-15" d="M717.9,1168.44h-1.2c-1.1-3.83.25-6.56,3.88-8.46C723.61,1164.12,719.61,1165.93,717.9,1168.44Z"/><path class="clsWindow-4" d="M640.16,1217c4.44-2.11,2.15-8.88,8.48-10.81-1.81,6.67-3.31,12.71-6.95,18.39-2.53-2.69-1.21-5.28-1.43-7.66Z"/><path class="clsWindow-14" d="M616.23,1341.27c8.6,1.74,3.09,11.45,8.47,15l0-.21c-.13,5.46,2,10.29,4.15,15.13l-1,5.79.06-.12c-6.27-14.3-15.85-27.28-19.21-44.93,6.69,4.17,1.86,10.18,6,14C615.4,1343.85,615.81,1342.56,616.23,1341.27Z"/><path class="clsWindow-6" d="M618.9,1307.51c-1.44,9.93,3.07,20.39-2.7,29.92C616.81,1327.43,612.67,1317,618.9,1307.51Z"/><path class="clsWindow-4" d="M611.51,1324.85c-2.94-6.11-1.68-10.7-.59-16.39C613.84,1314.06,613.86,1318.64,611.51,1324.85Z"/><path class="clsWindow-6" d="M637,1395.06c4.2.62,4,4.85,7,6.82-3.64,3.16-4.48-1-6.43-1Z"/><path class="clsWindow-7" d="M629.39,1383c-.49-2-1-4.11-1.48-6.16l-.06.12,3.29.2,2.75,5.77Z"/><path class="clsWindow-6" d="M629.39,1383l4.5-.07.88,3c-.21,1.11-.41,2.22-.61,3.32C630.72,1388.62,631.26,1384.91,629.39,1383Z"/><path class="clsWindow-6" d="M634,1389c3.93.66,2.95,3.82,3.24,6.34C633.83,1394.4,634,1391.66,634,1389Z"/><path class="clsWindow-8" d="M637.08,1401.25c-.16,2.49-.06,5.11-3.08,6.16C633.69,1404.69,634.56,1402.55,637.08,1401.25Z"/><path class="clsWindow-1" d="M839.94,1110.4a1.52,1.52,0,0,0,0-1.85,8.34,8.34,0,0,0,2.06-.11C841.94,1109.75,842.14,1111.34,839.94,1110.4Z"/><path class="clsWindow-7" d="M884.81,1355.81c-.3,3.82,1.19,7.93-1.72,11.91-9.64-.89-19.67-7.32-27.88,2.24-5.4-3.61-9.9-6.77-14.61-9.57-.61-.36-1.35,2.81-3.45,1.77-.7-17.48-.1-17.71,16.14-18.66,12.76-.75,23.38,2.56,31.66,12.49Z"/><path class="clsWindow-7" d="M852.4,1357.76c3.61,2.94,5.82,5.62,9.63,2.7C860.31,1357,857.88,1355.33,852.4,1357.76Z"/><path class="clsWindow-3" d="M900.1,1374.12c-9.8,4.78-21,5.6-30.35,12.31-6,4.33-14.18,2.66-21.29-.21,12.83-10.49,28.08-14,44.1-15.22C895.65,1370.75,898.63,1370.55,900.1,1374.12Z"/><path class="clsWindow-12" d="M867.54,1335.27c9.27-5.57,10.06-5.28,13.81,5.1C874.39,1345,870.12,1342.45,867.54,1335.27Z"/><path class="clsWindow-6" d="M905.68,1376.91c-4.16,3.19-4,9.47-8.81,12.22l.13.1-.42-3.19c.26-4.25,4.25-7.5,3.27-12.09l5-2.39C906.39,1373.14,905.78,1375.07,905.68,1376.91Z"/><path class="clsWindow-4" d="M760.59,1396.47c-3.08-3.08-.66-5.19-.19-7.75l-5.5.51c-1.4,4-2.08.74-3-.22-5.52-.2-9.14-4.12-12-7.78-9.39-12.13-22.28-18-36.33-22.25.18,7.84,4,15,3.3,23.19-.59,7,7.25,8.49,10.89,12.82,2.1,2.51,10.47,2.68,4.22,9.15q.84,2.68,1.7,5.38c.3,3.46,1.87,7.17-1.86,9.87a21.16,21.16,0,0,0-.45,2.48c-1.28,3.35-1.95,7-5.31,9.18-1.8-5.85-4.37-11.56-3.17-17.94l-3-3.12a7.73,7.73,0,0,1-.3-8.4l-.66-6.84c-4.57.83-11-3.19-12.78,4.91a3.75,3.75,0,0,1-1.26-.43,4.65,4.65,0,0,1-.78-1.18c.57-2.29-1.06-3.73-2.09-5.4l-8.39,2.56c-4.6,4.22-10.21,3.17-15.65,3a3.65,3.65,0,0,0-.36,2.47c2.63.88,6.41,1.54,5,5.21s-5.14,5.3-9.38,4.56l-1.73,2.53c2.66,1.36,2.21,4.14,2.91,6.4,4.08.44,4.63-4.85,9.13-5.18,3.42,6,9.8,9.55,15.07,14.36l-.1-.1c5.87-3.5,11.66-16.26,12.18-14.93,3.8.54,2.51,3.93,3.41,6.09q-1.82,4.37-3.64,8.75c1.25,3.15,2.43,6.34,3.79,9.45,2.57,5.88,6.38,6.88,11.37,2.68s7.69-10,11.11-17c1.38,7.25.91,13.83,5.3,18.77,2.21-1,2.08-3.15,2.56-5l-3.24-9.41c3.88-8.21,16.42-11.6,11.55-23.55,5.53-4.53,1.05-6.51-2.48-8-6.56-2.77-14-3.86-18.37-10.49,10,4.22,24.25.53,27.92,16.51.68,2.93,3.08,9.32,9.52,5.83q.82,2.68,1.63,5.39C765.55,1407.64,765.73,1401.6,760.59,1396.47Zm-17.79,7.74c-1.94,0-2.69-1.21-2.92-2.92C742,1401.14,742.75,1402.29,742.8,1404.21Zm-3.07-3.12-2-1.38C739.88,1398.29,739.62,1399.94,739.73,1401.09Z"/><path class="clsWindow-8" d="M694.78,1350.15l-5.63-3.63-1-5.57c7.92-5.75,6.37,3.68,9.35,5.85l-.19-.1a3.44,3.44,0,0,0-2.52,3.37Z"/><path class="clsWindow-4" d="M694.65,1389.44l-2.65,3.17A2.74,2.74,0,0,1,694.65,1389.44Z"/><path class="clsWindow-1" d="M658.4,1419.43l-3.23,0c-.08-2.67-.53-5.53,3.29-6.1Z"/><path class="clsWindow-18" d="M634.77,1386c-.3-1-.59-2-.88-3l-2.75-5.77c-.08-2.24,0-4.54-2.24-6-2.13-4.84-4.28-9.67-4.15-15.13,7.22-1.61,14.27-4.88,22.72-2,6.36,12.7-10.83,11.14-12.22,22.29a11.4,11.4,0,0,0,4.81,6.88,5.4,5.4,0,0,1-.39,2.38Z"/><path class="clsWindow-1" d="M664.46,1425.51a11.56,11.56,0,0,1-6.34-6.3l6.31,0Z"/><path class="clsWindow-9" d="M703.19,1350.06a4.71,4.71,0,0,1,.58,2.8c-3.76,1.63-7.42,2.92-9-2.71l0-.08a3.43,3.43,0,0,0,2.52-3.37l.19.1Z"/><path class="clsWindow-4" d="M863.52,1427.59c2.83,3.66,6.66,1.87,10.54,1.68-.49,2-.91,3.63-1.34,5.31-4.91,1.28-9.87,3.43-14.45-1C858.63,1430.39,861,1428.93,863.52,1427.59Z"/><path class="clsWindow-3" d="M896.58,1386l.42,3.19-1.47-.1-1.45.25A3.68,3.68,0,0,1,896.58,1386Z"/><path class="clsWindow-9" d="M893.82,1401.23a6.33,6.33,0,0,1,3.12-6.12C896.5,1397.46,897,1400.27,893.82,1401.23Z"/><path class="clsWindow-3" d="M667.49,1428.48a3.43,3.43,0,0,1-3.25-3.26C666.66,1425,667.78,1426,667.49,1428.48Z"/><path class="clsWindow-3" d="M691.45,1446.79c-1.64-.48-3.08-1.17-3.16-3.19A3.26,3.26,0,0,1,691.45,1446.79Z"/><path class="clsWindow-18" d="M848.8,1256.3c-2.66.45-3.16-1.27-3.36-3.32C847.67,1253,848.49,1254.38,848.8,1256.3Z"/><path class="clsWindow-3" d="M628.9,1371.2c2.22,1.45,2.16,3.75,2.24,6l-3.29-.2Z"/><path class="clsWindow-13" d="M852.4,1357.76c5.48-2.43,7.91-.78,9.63,2.7C858.22,1363.38,856,1360.7,852.4,1357.76Z"/><path class="clsWindow-4" d="M697.32,1346.7a3.43,3.43,0,0,1-2.52,3.37A3.43,3.43,0,0,1,697.32,1346.7Z"/></g></g></g></svg>