<svg id="Layer_1" data-name="Layer 1" xmlns="http://www.w3.org/2000/svg" viewBox="0 0 1525 1525"><defs><style>.clsWindow-1{fill:#191835;}.clsWindow-6{fill:#866a58;}.clsWindow-11{fill:#f6ba9c;}.clsWindow-9{fill:#5d4430;}.clsWindow-7{fill:#cd3412;}.clsWindow-8{fill:#999373;}.clsWindow-4{fill:#595337;}.clsWindow-12{fill:#b5ad9d;}.clsWindow-14{fill:#005bab;}.clsWindow-3{fill:#94928d;}.clsWindow-10{fill:#beaf64;}.clsWindow-5{fill:#cacbad;}</style></defs><title>Artboard 1innerCircle7</title><g id="WindowParts"><g id="innerCircle"><g id="ci7"><path class="clsWindow-1" d="M564.76,700.91c1,2,2.89,3.55,2.45,6.08-14-1.39-15.9,0-15.17,11.5-3.75,3.17-7.42.27-11.13-.14-5.95.08-10.34-4.31-15.82-5.57l-5.8-.78.28.33c-.3-1.89-1.76-2.56-3.31-3.12l.09.1c-.35-1.14-.77-2.4-2.25-2-.53.14-.8,1.24-1.19,1.91a3.58,3.58,0,0,0-2.74,3.87c-2.11-.74-2.76.38-2.83,2.23-3-.67-3.16-3.07-3.29-5.48,3.73-2.13,7.35-4.34,6.86-9.51,3.32-2.45,3.82-4.61-.64-6.27l.2.11c-5.87-9.9-.17-22.16-5.9-32-4.46-1-8.32-1.65-12.29-.83l8.84-18.42c4.6-.83,7.45,1.24,8.59,4.72,13.58-1.14,19.7-16.61,33.85-16.62l-.12-.22c-1.16,5.58-5.45,11.61,2.3,15.9,5.54,3.31,6.61,9.92,9.77,15,5.88-3.24,2.6-11.28,9-13,2.69,5.51-8.25,14.51,4.21,17.79,8-5.58,3.93-13.8,5.38-20.62l4.92-3.06c-1.32,5.74,4,9.92,3.6,15.43l.11-.19c-7,3.53-7,3.53-3.2,11.66l2.71-6.41c.92,4.26,2.36,8.75-4.17,9.87l-4.3-.12c-.26-1.28-1.1-2-1.69-1.39s.18,1.42,1.48,1.6Q565,679.09,568.16,689a90.16,90.16,0,0,0-6.54,7.44C558.8,700.33,561.17,701.16,564.76,700.91Z"/><path class="clsWindow-6" d="M631.74,676.2a30.72,30.72,0,0,1-7.5,10.32c-.21,5,6.3,8,3.23,13.5l-5.48-5c0-2.07-1.25-3.14-3-3.83a16.76,16.76,0,0,0-6-6.3c-13.35-8-13.08-14.07.57-23,2.83-1.84,4.79-9.74,9.11-1.32C626.24,665.51,633.65,668.17,631.74,676.2Z"/><path class="clsWindow-11" d="M586.12,727.43q-.07-9.06-.16-18.12c4.45-6.63,10.81-7.37,17.92-5.82l-.19-.06c1.92,5.14,5.65,2.06,8.73,1.93,2.55.62,5,.95,6.7-1.76l.18-.1,1.19.19,1.21-.14,0,0c-.12,1.63-.24,3.27-.35,4.9-11.7-.91-10.08,8.79-12.31,15.43C602.37,731.28,593.45,724.17,586.12,727.43Z"/><path class="clsWindow-6" d="M543.56,631c-14.15,0-20.27,15.48-33.85,16.62-1.14-3.48-4-5.55-8.59-4.72,6.5-12.75,17.77-19.55,30.86-25.21,3.49,4,4.48,10.76,11.38,10.28C543.42,629,543.49,630,543.56,631Z"/><path class="clsWindow-9" d="M586.12,727.43c7.33-3.26,16.25,3.85,22.94-3.53,5.22,1.91,11.71-1.85,16.12,3.62-7.43-1.2-14.36,1.25-21.39,3-6.73-1-1,8.88-9.42,9.27-18.35.86-18.29,2.14-26.15-2.86C572.51,723.54,573.84,722.83,586.12,727.43Z"/><path class="clsWindow-6" d="M492.28,661.35c4-.82,7.83-.14,12.29.83,5.73,9.82,0,22.08,5.9,32-4.13.33-8.12,0-11.4-5-.38,4.32-.56,6.31-.73,8.29-6.95-3.6-6.62-10.37-6.79-16.61C491.38,674.35,492,667.84,492.28,661.35Z"/><path class="clsWindow-7" d="M631.74,676.2c1.91-8-5.5-10.69-9-15.59,2.84-2.35,1.91-4.18-.8-5.76a2.72,2.72,0,0,1,2.4-3.06c1.95.3,4.19.1,5.81,1,3.91,2.17,6.7,5.37,6.34,10.33,5.36-2.18,7.89,2.55,11.36,4.79,5.52,3.57.38,9.09,2.22,13.35-11.15,8.51-11.91-2.25-14.59-8.4Z"/><path class="clsWindow-9" d="M543.56,631c-.07-1-.14-2-.2-3l-4.63-7.45c18.54-10.61,23.4-10.29,36.25,2.25-1.09,8.13-9.57,3.11-12.9,7.24l-3,.39c-5.7-5.64-6.55,2.05-9.66,3.52-.82-3.27-3.81-2.39-5.95-3.14Z"/><path class="clsWindow-9" d="M553.86,623.62c9.83,1.25,9.83,1.25,13-3.23C562.68,621.73,557.5,619.13,553.86,623.62Z"/><path class="clsWindow-1" d="M625.18,727.52c-4.41-5.47-10.9-1.71-16.12-3.62,2.23-6.64.61-16.34,12.31-15.43,4-1.35,4.17-3,.35-4.9l0,0c.09-2.83.19-5.67.29-8.5l5.48,5,.59.07c-.73,4.26.45,8.17,2.14,12-2,4.37,2.22,8.4.72,12.74-.08,2.58-.61,4.85-3.71,5.32C626.54,729.27,625.86,728.4,625.18,727.52Z"/><path class="clsWindow-8" d="M622,695.05c-.1,2.83-.2,5.67-.29,8.5l-1.21.14-1.19-.19c-5.18-5.49-10.38-6-15.61-.07l.19.06c-4.72-4.32-7-11.59-14.72-12.29,1.05-3.47,2.38-6.75,5.63-8.82l-.29-.15c13.54,9.6,16.15,10.56,24.5,9C620.74,691.91,622,693,622,695.05Z"/><path class="clsWindow-1" d="M589.16,691.2c7.74.7,10,8,14.72,12.29-7.11-1.55-13.47-.81-17.92,5.82-1.82-3.69-7.52-3-8.69-9.3C578.41,694.91,582.5,691.61,589.16,691.2Z"/><path class="clsWindow-8" d="M582.59,658.17c.36-5.51-4.92-9.69-3.6-15.43,1.3-3.16,4.26-2.63,6.8-3l.83.88L585.5,640c5.89-5.76,6.27,3.94,13.61,3.16C590.17,647.44,593.93,659.62,582.59,658.17Z"/><path class="clsWindow-4" d="M630.2,712.09c-1.69-3.83-2.87-7.74-2.14-12,4.12-1.69,8.17-4.21,12.79-1.17C643.27,711.6,641.41,713.93,630.2,712.09Z"/><path class="clsWindow-12" d="M525.09,712.78c5.48,1.26,9.87,5.65,15.82,5.57-1.76,3.95-5.49,4.18-8.2,2.59-3.22-1.89-5.18-.15-7.63.74l-.51-2.29-1.29.82,2.06,1.23c-4.83,1.36-11.93-1.65-15.11-6.4a1.79,1.79,0,0,1-.06-2,3.58,3.58,0,0,1,2.74-3.87l3.44.1-.09-.1,3.31,3.12-.28-.33C520.83,715.18,522.7,715.93,525.09,712.78Z"/><path class="clsWindow-14" d="M574.07,645.8c-1.45,6.82,2.64,15-5.38,20.62-12.46-3.28-1.52-12.28-4.21-17.79l-.11.33,3.2-2.57.43-.5a3.25,3.25,0,0,0,2.61-3.2l-.23.15Z"/><path class="clsWindow-6" d="M624.32,651.79a2.72,2.72,0,0,0-2.4,3.06c-12.82-1.56-14.23-3.29-11.1-15.3C616.29,643,627.76,638,624.32,651.79Z"/><path class="clsWindow-14" d="M594.79,682.38c-8.89-10.7-8.89-10.7,3.24-18.77a1.9,1.9,0,0,1,2.25-1.92c.21,4.83.51,9.66.61,14.5.09,4.26-2.35,6-6.39,6Z"/><path class="clsWindow-7" d="M498.34,697.45c.17-2,.35-4,.73-8.29,3.28,5,7.27,5.33,11.4,5l-.2-.11q.33,3.13.64,6.27c.49,5.17-3.13,7.38-6.86,9.51C499.23,707.05,497.37,702.91,498.34,697.45Z"/><path class="clsWindow-4" d="M552,718.49c-.73-11.45,1.17-12.89,15.17-11.5a2.67,2.67,0,0,0,0,1.7,3.77,3.77,0,0,0-2.36,3.71l-.19.3c-2.32.78-2.31,1.93-.52,3.35a1.09,1.09,0,0,0,0,1.58c-1.74.55-3.38,1.36-5.29.21-5.82-3.51-2.6,2-3.39,3.47Z"/><path class="clsWindow-7" d="M625.18,727.52c.68.88,1.36,1.75,2,2.63-2.43,1.76-2.26,4.21-1.8,6.74-.19.79-.37,1.57-.56,2.35-7.15-1.09-12.7-7.4-20.52-6.31-.16-.82-.34-1.64-.54-2.45C610.82,728.77,617.75,726.32,625.18,727.52Z"/><path class="clsWindow-9" d="M604.33,732.93c7.82-1.09,13.37,5.22,20.52,6.31-4.94,7-12,2.07-18.44,3.82Z"/><path class="clsWindow-9" d="M625.41,736.89c-.46-2.53-.63-5,1.8-6.74,3.1-.47,3.63-2.74,3.71-5.32,3.25-.17,6.85.59,5.15,4.49s-.93,9.09-5.3,11.78C627.69,741.33,627.84,737.48,625.41,736.89Z"/><path class="clsWindow-4" d="M559.05,630.43l3-.39c6.9,1.58,7.46,7.28,8.3,12.8l.23-.15c-2,.17-2.17,1.78-2.61,3.2l-.43.5-1.41-.21C558.14,643.48,562.2,635.33,559.05,630.43Z"/><path class="clsWindow-12" d="M600.28,661.69a1.9,1.9,0,0,0-2.25,1.92c-2.16-.06-4.42-1-3.25-3.25,2-3.77,4.84-7.06,7.48-10.76C605.94,654.81,602.81,658.19,600.28,661.69Z"/><path class="clsWindow-3" d="M568.16,689l4.9-.22c-.94,5.31-6.4,7.53-8.3,12.18-3.59.25-6-.58-3.14-4.52A90.16,90.16,0,0,1,568.16,689Z"/><path class="clsWindow-1" d="M555.48,721.31c.79-1.5-2.43-7,3.39-3.47,1.91,1.15,3.55.34,5.29-.21.64,3,.34,5.72-3.17,6.65C558.39,725,556.48,723.87,555.48,721.31Z"/><path class="clsWindow-3" d="M582.21,663.23l-2.71,6.41c-3.77-8.13-3.77-8.13,3.2-11.66Z"/><path class="clsWindow-10" d="M572.53,720.42c.78-4.31-.86-9,2.94-13.22C579.19,712.93,578.76,717.27,572.53,720.42Z"/><path class="clsWindow-1" d="M564.87,712.4a3.77,3.77,0,0,1,2.36-3.71A3.16,3.16,0,0,1,564.87,712.4Z"/><path class="clsWindow-8" d="M510.17,713.08a1.79,1.79,0,0,0,.06,2l-1.41.45-1.48-.18C507.41,713.46,508.06,712.34,510.17,713.08Z"/><path class="clsWindow-1" d="M564.16,716.05c-1.79-1.42-1.8-2.57.52-3.35C564.51,713.82,564.33,714.94,564.16,716.05Z"/><path class="clsWindow-8" d="M531.9,678.11c7.28-8.54,11.6-.61,17.72,2.39-2,5.45-6.66,9.75-6.09,17,.78,9.72-12.65,16.65-20.7,11.3-3.21-2.13-7.48-5.62-6.79-10.77.72-5.42,4.16-8.83,9.45-10.43,4.21-1.27,8.81,2.28,12.73-.86C540.74,680.34,532.91,682.54,531.9,678.11Z"/><path class="clsWindow-8" d="M542.28,669.34c-9.13-3.88-15.83,3.65-23.56,3.18-13.91-14.83-13.36-16.56,7.4-23.19C533.81,653.84,532.75,665.79,542.28,669.34Z"/><path class="clsWindow-8" d="M566.16,646.18c-8-2.7-4-10.85-7.11-15.75-5.6-5.54-6.52,1.79-9.51,3.43-.4,4,.71,8.37-2.79,11.63,1.93-3.64-3.33-9,2.59-11.69-.87-3.08-3.8-2.25-5.9-3-1.16,5.58-5.45,11.61,2.3,15.9,5.54,3.31,6.61,9.92,9.77,15,5.88-3.24,2.6-11.28,9-13l-.11.33Z"/><path class="clsWindow-5" d="M549.78,661.25a3,3,0,0,1-3,3c-2,.17-4.13-.34-3.64-3.07.23-1.31,1.09-3.15,2.11-3.52C547.17,657,549.15,657.65,549.78,661.25Z"/><path class="clsWindow-8" d="M525.09,712.78c-2.39,3.15-4.26,2.4-5.8-.78Z"/><path class="clsWindow-6" d="M510.91,700.32q-.32-3.14-.64-6.27C514.73,695.71,514.23,697.87,510.91,700.32Z"/><path class="clsWindow-4" d="M574.52,673c-.74-2.11-2.38-3.18-3.57-2s-.16,2.23,1.72,2.87c-5,3.85-6.51,8.89-4.51,15.12l4.9-.22,5-15.63Z"/><path class="clsWindow-8" d="M519.57,712.33l-3.31-3.12C517.81,709.77,519.27,710.44,519.57,712.33Z"/><path class="clsWindow-8" d="M516.35,709.31l-3.44-.1c.39-.67.66-1.77,1.19-1.91C515.58,706.91,516,708.17,516.35,709.31Z"/><path class="clsWindow-4" d="M603.69,703.43c5.23-5.92,10.43-5.42,15.61.07l-.18.1c-2.41-.1-4.82-.17-6.7,1.76C609.34,705.49,605.61,708.57,603.69,703.43Z"/><path class="clsWindow-8" d="M621.72,703.57c3.82,1.92,3.61,3.55-.35,4.9C621.48,706.84,621.6,705.2,621.72,703.57Z"/><path class="clsWindow-8" d="M612.42,705.36c1.88-1.93,4.29-1.86,6.7-1.76C617.45,706.31,615,706,612.42,705.36Z"/><path class="clsWindow-5" d="M553.86,623.62c3.64-4.49,8.82-1.89,13-3.22C563.69,624.87,563.69,624.87,553.86,623.62Z"/><path class="clsWindow-1" d="M525.34,721.44l-2.06-1.23,1.29-.82.51,2.29Z"/><path class="clsWindow-1" d="M564.37,649l1.79-2.78,1.41.21Z"/><path class="clsWindow-1" d="M568,645.89c.44-1.42.64-3,2.61-3.2A3.25,3.25,0,0,1,568,645.89Z"/><path class="clsWindow-4" d="M546.75,645.49c2-3.69-3.47-9.13,2.81-11.79C549.11,637.75,550.3,642.18,546.75,645.49Z"/><path class="clsWindow-4" d="M556.43,639.14c.73.53,2.2,1.22,2.06,1.56a23.74,23.74,0,0,1-2.51,3.8c-.68-.57-1.64-1.06-2-1.71C553.14,641.06,554.08,639.81,556.43,639.14Z"/></g></g></g></svg>