<svg id="Layer_1" data-name="Layer 1" xmlns="http://www.w3.org/2000/svg" viewBox="0 0 1525 1525"><defs><style>.clsWindow-9{fill:#5d4430;}.clsWindow-16{fill:#7b8874;}.clsWindow-4{fill:#595337;}.clsWindow-18{fill:#97200b;}.clsWindow-7{fill:#cd3412;}.clsWindow-3{fill:#94928d;}.clsWindow-5{fill:#cacbad;}.clsWindow-15{fill:#a64e1e;}.clsWindow-8{fill:#999373;}.clsWindow-17{fill:#d4858f;}.clsWindow-13{fill:#371912;}.clsWindow-1{fill:#191835;}.clsWindow-19{fill:#421a20;}</style></defs><title>Artboard 1innerCircle4</title><g id="WindowParts"><g id="innerCircle"><g id="ci4"><path class="clsWindow-9" d="M887.82,944.68c8.44-7.85,11.93-8.34,18.08-2.52-4.1,1.31-3.19,4.76-2.4,7.27,3.4,10.88,5.16,21.33-4,30.58-.65.65.23,2.82.39,4.28l.16-.15c-8.62,9.59-15.91,20.49-27.06,27.61l-.33-3.43c-.08-3.8-.17-7.61-.25-11.41,3.21-6-3.27-8.09-5.44-8.35-6.51-.78-9.6-6.08-14.9-9.36,7.82,9.2-3.72,17.49,0,26-3.37.71-.53,8.46-6.74,6,.37-5.73-.25-11.49,1.25-15.66-3.44-5.38-6.59-3.79-9.76-2-5.89-9.2,5.43-13.85,5.67-21.44,4.2,1,7.89,6,12.84.93,4.8-4.9,1.44-8.59-1-12.61l.54-.76c6,2.1,12,.3,18.08.42-1.68,6.28-11.61-.68-12.12,7.57,3.7,4.38,9.85.63,14.39,5.31,9,9.29,11.13,8.59,21.43-.65,3.31,0,6-.75,5.95-4.86-.1-8.79-.71-17.42-7.79-24.83-3,7.43,8.1,14.66-1,20.88.55-6.66-4.87-9.18-8.81-12.73C885.8,948.67,888.39,947.43,887.82,944.68Z"/><path class="clsWindow-9" d="M879.93,996.8c4.81-4.11,9.42-7.55,9.93-15.61-6.79,3.1-13.29-5.23-19.56,2.22Z"/><path class="clsWindow-16" d="M842.48,972.06c-.24,7.59-11.56,12.24-5.67,21.44-1,2-2,4-3.08,5.93l-3.16-.13c-1.49-1,.51-5.51-3.93-3.71s-9.57,1-13.76,3.75c-1.38-7.54-6.75-15.63,3-21.59a13.89,13.89,0,0,0,2.29-1.26c5.69-3.38,14.39,6.19,18.45-4.26l-.21.13,6.15,0Z"/><path class="clsWindow-4" d="M833.08,948.41c6.14,2.44,9.81-6.34,16-3.52,5,.33,10.26,2,14.21-2.87,6.22.9,12.32,6.42,18.71.47a18,18,0,0,1-.15,2.54c-4.87,5.46-11.21,2.29-16.9,2.82-7.24.69-12.81,2.63-10.16,11.77l-.54.76c-4.37-1-7.75,2.18-11.74,2.8-2.7-4.72-8.39-3.42-12.15-6C831.12,954.2,834.55,952.06,833.08,948.41Z"/><path class="clsWindow-18" d="M817.89,932.69l9.53-5.76c.71,3.13,5.29,2.73,5.63,6.19-6,13.3-6.16,13.39-17.81,9.14-2.23.09-4.62-.69-6.6,1.07l3.7,4.09c-3.34.7-7-.15-12.21,4.53,2.67-7.94-.76-13.62,3.68-18.54C808.64,935.83,813.19,932.87,817.89,932.69Z"/><path class="clsWindow-9" d="M827.45,896.57c1.86,6.88,9.62,5.93,13.65,10.38-.81,3.85-2.92,8.37,3,10.51,3.94,1.42,6.47,0,8.28-3.68,1.68-3.42,4.74-4.78,8.52-4.55-5.12,4.22-4.63,8.5-.12,12.82-1.44,2.26-3.6,4.27-2.58,7.4l-3.37.39c-.6-2.73.72-6-3-8.7-4.69,1-10.74-3.27-15.41,2.81-6.69-7.74-9-17.5-12.45-26.76l.31-.5,3.23-.05Z"/><path class="clsWindow-7" d="M830.4,957.17c3.76,2.59,9.45,1.29,12.15,6l.06-.15c-4,1.81-3.76,6.44-6.16,9.33l.21-.13c-6.18,1.29-13.65-3-18.45,4.26a13.89,13.89,0,0,1-2.29,1.26c-4.59,1.08-9.29,2.36-9.3-5,8.33-1.92,13.24-9.46,20.79-12.67,1.79-.25,3.09-1,3.12-3Z"/><path class="clsWindow-3" d="M852.06,1005.2c-3.72-8.51,7.82-16.8,0-26,5.3,3.28,8.39,8.58,14.9,9.36,2.17.26,8.65,2.35,5.44,8.35l-11.77,7.9-6,.88A4,4,0,0,0,852.06,1005.2Z"/><path class="clsWindow-5" d="M882,942.49c-6.39,6-12.49.43-18.71-.47l.28.17c.32-1.9-.53-2.93-2.38-3.23a8.86,8.86,0,0,1-.23-2.71l2.37-3.46c5.69-1.84,11.38-3.69,16.62-11.54C881.27,930.29,888.23,935.27,882,942.49Z"/><path class="clsWindow-15" d="M854.83,959.62c-2.65-9.14,2.92-11.08,10.16-11.77,5.69-.53,12,2.64,16.9-2.82l5.93-.35c.57,2.75-2,4-2.89,6.05-2.85.37-4.06,4.61-7.65,3.23-4.09.28-5.53,2.45-4.54,6.35l.17-.27C866.88,959.92,860.81,961.72,854.83,959.62Z"/><path class="clsWindow-7" d="M899.88,984.29c-.16-1.46-1-3.63-.39-4.28,9.17-9.25,7.41-19.7,4-30.58-.79-2.51-1.7-6,2.4-7.27,6.18,14.68,5.81,29.8,3.08,45.09C905.3,988.25,902.76,985.75,899.88,984.29Z"/><path class="clsWindow-8" d="M839.26,930c-2.92-1.06-2.59-3.72-2.86-6.09-6.65-7.73-9-17.46-12.4-26.7-.57.07-1.15.16-1.72.27-5.29-1.66-8.32.87-10.22,5.5-.52,8.64-7.36,4.77-11.66,5.93-5.33,5.05-5.82,11.07-3.51,17.64,6.28-1.46,12.69-2.5,19.16-7.14-.25,5.54,3.42,8.86,1.84,13.3l9.53-5.76c.71,3.13,5.29,2.73,5.63,6.19,1.24,1.9,2.1,4.23,5,4.38C840.22,935.28,838.9,932.48,839.26,930ZM821,900.09c.06,6,5.1,12.46-1.91,17.66C813.47,911.18,818.7,905.79,821,900.09Z"/><path class="clsWindow-18" d="M833.73,999.43c1-2,2.06-3.95,3.08-5.93,3.17-1.79,6.32-3.38,9.76,2-1.5,4.17-.88,9.93-1.25,15.66l-2.71.53c-4.76-1.83-11.54-.74-12.22-8.46Z"/><path class="clsWindow-18" d="M845.33,891.38c-.74,2.21-2.55,2.46-4.49,2.49-3.75-.53-7.94.65-11.3-3.2-1.56-3.87,1.89-8,.74-12.25C839.22,877.2,842.59,880.11,845.33,891.38Z"/><path class="clsWindow-16" d="M817.89,932.69c-4.7.18-9.25,3.14-14.08.72-3-2.91-6.54,1.4-9.59-.7l.21.2a6.24,6.24,0,0,1,2.46-6.38c6.28-1.46,12.69-2.5,19.16-7.14C815.8,924.93,819.47,928.25,817.89,932.69Z"/><path class="clsWindow-7" d="M836.45,924c4.67-6.08,10.72-1.84,15.41-2.81,3.68,2.72,2.36,6,3,8.7-5.2,5.49-10.38,6.83-15.52-.08l.15.29c0-2.59,0-5.14-3.06-6.24Z"/><path class="clsWindow-8" d="M908.51,991.11c-13,20.53-16.79,24-31.43,28.78.6-1.91,1.13-3.6,1.67-5.29,10.24-2.37,14.91-11,20.7-18.39C901.79,993.23,903,988.44,908.51,991.11Z"/><path class="clsWindow-9" d="M908.51,991.11c-5.47-2.67-6.72,2.12-9.06,5.1-5.79,7.37-10.46,16-20.7,18.39l0-.07c.61-4.58,5.13-5.6,7.69-8.4,6-6.47,12.67-12.44,13.64-22l-.16.15c2.88,1.46,5.42,4,9.1,3Z"/><path class="clsWindow-8" d="M900,984.14c-1,9.55-7.69,15.52-13.64,22-2.56,2.8-7.08,3.82-7.69,8.4-2.1-.53-4.63-.18-5.73-2.78C884.13,1004.63,891.42,993.73,900,984.14Z"/><path class="clsWindow-4" d="M824.23,875.7c-.39,15.37-1.5,16.26-15,12,3.13-6.93,3.2-8.26,8-8C821.39,880,821.19,875.57,824.23,875.7Z"/><path class="clsWindow-4" d="M860.63,1004.81l11.77-7.9c.08,3.8.17,7.61.25,11.41-4.83,1.85-9.62,6.3-14.55.19C859.79,1007.86,860.34,1006.43,860.63,1004.81Z"/><path class="clsWindow-8" d="M781.67,930.86c4.84,8.25,3.64,13.49,1.42,20.64C777.61,945,778.34,939.58,781.67,930.86Z"/><path class="clsWindow-8" d="M794.22,932.71c-.53,4.76,1.48,9.89-4.09,17.06-1.43-8.19-6.58-13.82,4.3-16.86Z"/><path class="clsWindow-17" d="M790.83,926.36c-.42,2.58-2.25,3.67-5,3.39a3.78,3.78,0,0,1-3.64-3.8c-.14-2.87,1.72-4.53,4.44-4.55S791,923.06,790.83,926.36Z"/><path class="clsWindow-16" d="M827.65,957.82c-2.13-.17-4.77,3.74-6.35-.79l11.78-8.62c1.47,3.65-2,5.79-2.68,8.76l.13-.17A6,6,0,0,0,827.65,957.82Z"/><path class="clsWindow-8" d="M875.76,896.36c5,2.86,7.75,5.43,9,11.33C879.37,905.09,876.35,902.76,875.76,896.36Z"/><path class="clsWindow-3" d="M858.19,929.45c-1-3.13,1.14-5.14,2.58-7.4,2.23-1.11,4.48-2,7.23-.29C865.65,925.63,862.21,927.89,858.19,929.45Z"/><path class="clsWindow-16" d="M863.33,942c-4,4.88-9.22,3.2-14.21,2.87,1-5.23,5.8-2,8.39-3.7l6.1,1Z"/><path class="clsWindow-3" d="M812.34,947.42l-3.7-4.09c2-1.76,4.37-1,6.6-1.07C815.33,944.57,816.18,947.31,812.34,947.42Z"/><path class="clsWindow-9" d="M860.63,1004.81c-.29,1.62-.84,3.05-2.53,3.7l-3.5-2.82Z"/><path class="clsWindow-4" d="M863.61,942.19l-6.1-1a3.53,3.53,0,0,1,3.72-2.23C863.08,939.26,863.93,940.29,863.61,942.19Z"/><path class="clsWindow-4" d="M863.37,932.79,861,936.25A2.91,2.91,0,0,1,863.37,932.79Z"/><path class="clsWindow-8" d="M877.28,954c3.59,1.38,4.8-2.86,7.65-3.23,3.94,3.55,9.36,6.07,8.81,12.73.08,1,.2,1.95.34,2.92-2.07,3.41-3.64,6.58,2.8,6.06l-.27-.17c-10.3,9.24-12.42,9.94-21.43.65-4.54-4.68-10.69-.93-14.39-5.31.51-8.25,10.44-1.29,12.12-7.57l-.17.27C875.9,959.37,875.8,956.1,877.28,954Z"/><path class="clsWindow-7" d="M879.93,996.8l-9.63-13.39c6.27-7.45,12.77.88,19.56-2.22C889.35,989.25,884.74,992.69,879.93,996.8Z"/><path class="clsWindow-16" d="M842.55,963.18c4-.62,7.37-3.8,11.74-2.8,2.47,4,5.83,7.71,1,12.61-5,5.06-8.64.11-12.84-.93l.12.28q0-4.67,0-9.31Z"/><path class="clsWindow-4" d="M894.08,966.38c-.14-1-.26-2-.34-2.92,9.13-6.22-1.93-13.45,1-20.88,7.08,7.41,7.69,16,7.79,24.83,0,4.11-2.64,4.87-5.95,4.86l.27.17C896.82,970,897.39,967.31,894.08,966.38Z"/><path class="clsWindow-13" d="M829.54,890.67c-1.56-3.87,1.89-8,.74-12.25l-6-2.72c-.39,15.37-1.5,16.26-15,12-1.89,2.77-3.76,2.38-5.85.12-4.73-5.15-9.14-4-15.66,2.07,8.78-.15,9.66,4.37,9.48,9.75-.12,3.38-.55,7,3.14,9.14l-.08.1c4.29-1.29,11.29,2.78,11.81-6,1.9-4.63,4.93-7.16,10.22-5.5.57-.11,1.15-.2,1.72-.27l.31-.5c1-1.8,2.09-3.37,3.2-.14,4.31-1.53,10.85,8,13.33-2.68C837.09,893.34,832.9,894.52,829.54,890.67Z"/><path class="clsWindow-8" d="M856,894c.13-.32-2.1-2.2-3.4-2.44a43.73,43.73,0,0,0-7.25-.17c-.74,2.21-2.55,2.46-4.49,2.49-2.48,10.68-9,1.15-13.33,2.68-1.11-3.23-2.16-1.66-3.2.14l3.16-.05c1.9,6.79,9.61,5.88,13.63,10.31-.81,3.85-2.92,8.37,3,10.51,3.94,1.42,6.47,0,8.28-3.68,1.68-3.42,4.74-4.78,8.52-4.55.92-1.13,2.32-2.11,2.71-3.39C865.58,899.19,852.7,901.84,856,894Z"/><path class="clsWindow-18" d="M818.21,976.49c4.8-7.26,12.27-3,18.45-4.26C832.6,982.68,823.9,973.11,818.21,976.49Z"/><path class="clsWindow-13" d="M842.61,963q0,4.65,0,9.31l-6.15,0C838.85,969.47,838.59,964.84,842.61,963Z"/><path class="clsWindow-9" d="M833.73,999.43l-3.34,3.8.07-.79.1-3.15h0Z"/><path class="clsWindow-13" d="M821,900.09c.06,6,5.1,12.46-1.91,17.66C813.47,911.18,818.7,905.79,821,900.09Z"/><path class="clsWindow-1" d="M821.88,1011c-1.72-2.11-4.07-2.56-6.61-2.5.71-1.77-.6-5.65,3.63-3.82,2.84,1.24,5.66.74,8.52.7A8.44,8.44,0,0,1,821.88,1011Z"/><path class="clsWindow-5" d="M830.56,999.29l-.1,3.15a25.66,25.66,0,0,1-2.87.6l-4.46-1.77A8.92,8.92,0,0,1,830.56,999.29Z"/><path class="clsWindow-4" d="M830.53,957c0,2-1.33,2.8-3.12,3-7.55,3.21-12.46,10.75-20.79,12.67l-5-7.47c5.18-6,9.52-13.74,19.73-8.22,1.58,4.53,4.22.62,6.35.79A6,6,0,0,1,830.53,957Z"/><path class="clsWindow-19" d="M877.28,954c-1.48,2.14-1.38,5.41-4.54,6.35C871.75,956.41,873.19,954.24,877.28,954Z"/><path class="clsWindow-9" d="M836.39,923.81c3,1.1,3.08,3.65,3.06,6.24C836.28,929,836.68,926.25,836.39,923.81Z"/><path class="clsWindow-7" d="M872.82,893.41c.21,3.67-2.28,5.34-5.33,5.72-3.42.44-5.71-2-6.1-5-.43-3.34,2-5.64,5.15-6C870,887.71,871.72,890.31,872.82,893.41Z"/><path class="clsWindow-9" d="M842.56,1014c0-.77.05-1.54.05-2.31-4.76-1.83-11.54-.74-12.22-8.46l.07-.79a25.66,25.66,0,0,1-2.87.6l-4.46-1.77a8.91,8.91,0,0,1,7.43-2c-1.47-1,.51-5.5-3.92-3.7s-9.57,1-13.76,3.75c-6.72-4.42-6.5-13.33-11.55-19.05-3.06,3.45.45,7.9-2.49,10.89-2.76-1.57-2.88-5.86-7.66-4.69,1.57,11.57,7.07,20.31,16.68,27.54,2.87-6.48-5.84-7.75-3.32-13,4,1.93,6.27,6.32,10.79,7.32.56-1.84-.52-5.41,3.57-3.64,2.84,1.24,5.66.74,8.52.7a8.44,8.44,0,0,1-5.54,5.62c-1.69-2.07-4-2.54-6.49-2.5-3.95,9.75-3,11,9,12l0,0c4.44,7.54,9,8.36,15.22,2.76,0-.74.05-1.47.09-2.21l.34-.33c.83-.08,1.65-.17,2.47-.27,5.85-1,13.27,3.84,17.86-4.33C854.3,1012.54,848.2,1015.29,842.56,1014Z"/><path class="clsWindow-9" d="M894.08,966.38c3.31.93,2.74,3.64,2.8,6.06C890.44,973,892,969.79,894.08,966.38Z"/></g></g></g></svg>