<svg id="Layer_1" data-name="Layer 1" xmlns="http://www.w3.org/2000/svg" viewBox="0 0 1525 1525"><defs><style>.clsWindow-9{fill:#5d4430;}.clsWindow-12{fill:#b5ad9d;}.clsWindow-5{fill:#cacbad;}.clsWindow-4{fill:#595337;}.clsWindow-16{fill:#7b8874;}.clsWindow-7{fill:#cd3412;}.clsWindow-15{fill:#a64e1e;}.clsWindow-13{fill:#371912;}.clsWindow-18{fill:#97200b;}.clsWindow-8{fill:#999373;}.clsWindow-17{fill:#d4858f;}.clsWindow-3{fill:#94928d;}.clsWindow-6{fill:#866a58;}.clsWindow-1{fill:#191835;}</style></defs><title>Artboard 1innerCircle8</title><g id="WindowParts"><g id="innerCircle"><g id="ci8"><path class="clsWindow-9" d="M691.71,573.15l-5.65.45c-1.43-2.81-2.61-5.85-5.85-7.73-2.3,4.83.79,7.46,2.06,10.53-5.25,8.27-13.46,6.16-21.1,6-5.74-2.95-10.8-9.29-18.27-3.68a5.51,5.51,0,0,1-.12-1.9c4.47-6.19,10.92-2.5,16.46-3.17,5.77-.69,12.17.19,13.48-8.25-8.24-9-16.13-1.88-24.08.52,3.51-4,6.33-8.6,13.19-7.7,4.65.61,4.11-2.9,2.56-6l6.15-2.88c-.84,5.27-1.07,11.14,6,11.06,7.23-.08,5.88-6.55,5.93-11.42a3,3,0,0,1,2.15-2.94c.38,1.55,2.07,3.25,2.84,2.51,6.89-6.61,14.72-3,22.25-2.44-2.52,4.75-6.93,2.93-10.67,2.87-7.73-.11-12,3.34-12.84,11,6.46,4.6,11.51-2.21,17.29-1.48.12.77.24,1.53.37,2.3C698.9,564.05,692.12,565.46,691.71,573.15Z"/><path class="clsWindow-9" d="M678,577.36c-5.89-.63-9.33-2.31-13.15,1.2C668.45,579.43,671.57,580.15,678,577.36Z"/><path class="clsWindow-12" d="M694.51,625.43c-2.59-.92-4.32-3.94-8-2.21-15.3,7.22-15.35,7.12-27.67-5.61-.08-2.93,3-3.53,4.3-6-.83-4.63-7.51,2.24-7-6.36,3.92-8.16,14.37,1.43,20.88-3.15a2.53,2.53,0,0,0,1.87.41l3.2,1.57c.75,2.61,4.21,4.16,3.12,7.42-1.69,5.1,2.82,3.05,4.6,4.14,3.44,2.26,6.31,5.5,10.7,6.06h0c0,2.56,1.13,5.77-3.33,5.73A2.5,2.5,0,0,0,694.51,625.43Z"/><path class="clsWindow-5" d="M649.3,542.89c3,6.42,7.77,9.94,15.09,9.39,1.55,3.06,2.09,6.57-2.56,6-6.86-.9-9.68,3.67-13.19,7.7q-.63.67-1.29,1.32c-11.11,3.2-14.14-6-19-12.39l.15.33c.64-4.12,6.27-3.93,7-8.16l-4.25-1.24c1.74-3.74,4.93-5.48,8.75-6.36l6.27.82-.28-.21,3.38,3.12Z"/><path class="clsWindow-4" d="M689.83,615.67c-1.78-1.09-6.29,1-4.6-4.14,1.09-3.26-2.37-4.81-3.12-7.42,1.42-.45,2.65-1.07,2.51-2.88,4.86-3.08-.57-6.67.48-9.93,8.06.46,9-6.22,11.43-11.39,1.11,3.55-.57,7.71,2.45,10.93,3.28,1.47,5.1-1.58,7.59-2.58a4.31,4.31,0,0,0,1,1.21c-.59,4.9-1.5,9.76,1,14.5,1.37,2.57.59,4.72-2.37,5.73-2.3,1.41-2.42,3.85-2.94,6.11l-5-5.5c-.38,2.22-.67,3.88-1,5.55Z"/><path class="clsWindow-4" d="M702.1,605.79c1.84-2.93,1.85-4.85-.52-6.42C699.87,601.42,700.71,603.21,702.1,605.79Z"/><path class="clsWindow-16" d="M706.27,609.7c3-1,3.74-3.16,2.37-5.73-2.53-4.74-1.62-9.6-1-14.5,4.87-.39,10.2,3.47,14.56-1.59a4.78,4.78,0,0,1,2.65.93c-1.2,3.05-6.1,6.2.25,9-.05,1.8-.1,3.6,2,5.13l.63-5.47c-.14-2.52-.08-5,2.82-6.06.51,1.52.72,3.35,3.05,3.07l.24,3.37-.28,5.75.33-.32-12.5,9.32.32-.13-7.58-.69c-3.9,2.33-2,8.7-6.58,11.66C703.51,619,707.27,614.1,706.27,609.7Z"/><path class="clsWindow-5" d="M684.61,546.1c9.8-5.67,3.2-17.86,9.85-24.78l2.24-2.22h7.68c-1.82,4.35-7.5,3.59-8,9.08,4.51-3,9.65-2.65,14.78-3.09,4.5,5.61,5.3,11.73,1.49,18.25l.16-.33a3.14,3.14,0,0,0-3.34,3.27l.27-.11c-7.53-.51-15.36-4.17-22.25,2.44C686.68,549.35,685,547.65,684.61,546.1Z"/><path class="clsWindow-5" d="M704.88,532.72c-.36-.33-.78-1-1-.89a13.89,13.89,0,0,0-2.37,1c.3.35.7,1.06.88,1A18.05,18.05,0,0,0,704.88,532.72Z"/><path class="clsWindow-7" d="M647.35,567.26q.66-.64,1.29-1.32c8-2.4,15.84-9.52,24.08-.52-1.31,8.44-7.71,7.56-13.48,8.25-5.54.67-12-3-16.46,3.17-4,.45-6.4-1.23-6.94-5.34C639,568.22,644.68,571.85,647.35,567.26Z"/><path class="clsWindow-16" d="M642.9,578.74c7.47-5.61,12.53.73,18.27,3.68,1.93,3.84.59,7.77-3.06,8-5.73.3-7.71,5.56-13,7.79C642.72,591.58,636.15,586.24,642.9,578.74Z"/><path class="clsWindow-15" d="M703.48,558.54c-5.78-.73-10.83,6.08-17.29,1.48.85-7.64,5.11-11.09,12.84-11,3.74.06,8.15,1.88,10.67-2.87l-.27.11c1.94-.25,3.17-1.22,3.34-3.27l-.16.33c2.2,0,5.26-.8,5.52,2.38.41,5.06-5.19,4.32-7.52,6.84l.13-.21Z"/><path class="clsWindow-7" d="M696.7,519.1l-2.24,2.22c-4.14.23-5.32,3-6.49,6.51-1.09,3.31-4.11,3.61-8,1.17-1.65-5.65.86-12.92-3.12-18.83,6.07-.72,11.72,1.07,17.38,2.88C697.43,514.09,696.87,516.66,696.7,519.1Z"/><path class="clsWindow-13" d="M613.19,552.65c3.23-15,6-30.25,21.24-39-5.82,11.42-14.67,21.77-12.33,35.82l.1-.1a4.8,4.8,0,0,0-3.48,3.31Z"/><path class="clsWindow-7" d="M637.92,531.27l8.69-8c3.62-.68,2.31,5.08,5.73,4.89l-.19-.22c.15,4.05,2.94,5.44,6.31,6.25l-.21-.25c-.4,5.57-2.54,9.41-9,9l.09.28c-.42-1.8-1.35-3.06-3.38-3.12l.28.21c-.85-3.61-3.56-3.15-6.21-2.83C637.43,536.05,637.28,533.8,637.92,531.27Z"/><path class="clsWindow-16" d="M710.74,552.35l-.13.21c9.69-2.75,16.56-.4,19.17,10.58-5.85,3.44-12.78-.18-17.8,4.67C708.92,561.92,708.88,557.19,710.74,552.35Z"/><path class="clsWindow-18" d="M721.4,612.64c11.71,4.36,5.83,10.74,2.75,17.09-5.52.16-10.22-.69-11.67-5.62-2.22-7.56,6.4-7.49,9.24-11.6Z"/><path class="clsWindow-7" d="M685.1,591.3c-1.05,3.26,4.38,6.85-.48,9.93-2,0-4.08-.34-5.71,1.31a2.53,2.53,0,0,1-1.87-.41c-4.39-3.48-9.7-7-4.22-13.23C677.85,583.14,681.48,588,685.1,591.3Z"/><path class="clsWindow-7" d="M709.47,576.41c4.27,5.24,1,8.61-2.9,11.85-2.49,1-4.31,4-7.59,2.58-3-3.22-1.34-7.38-2.45-10.93C700,575.43,704.7,575.89,709.47,576.41Z"/><path class="clsWindow-8" d="M628.4,554.87c-1.42,8,2.37,15.36,4.25,24.55-11.27-8.71-11-19.37-10.45-30.1l-.1.1,2.53.1c.4,2.52,1,4.91,3.92,5.68Z"/><path class="clsWindow-8" d="M613.19,552.65l5.53,0c-.8,8.88.93,17.32,4,25.72C613.81,572,612.62,562.65,613.19,552.65Z"/><path class="clsWindow-4" d="M654.94,521.68c-1.94-2.82-1.58-5.84-.79-8.9,6.51-8.08,12.75.22,19.12.32-.06.77-.09,1.54-.11,2.32C666.49,515.76,660.65,518.55,654.94,521.68Z"/><path class="clsWindow-17" d="M733.85,597.89l-.24-3.37,3.06-6.09a7.39,7.39,0,0,0,6.3,0c1.56,3.78,5.41,7.69.87,11.55C740.14,603.12,736.72,600.88,733.85,597.89Z"/><path class="clsWindow-4" d="M743,588.43a7.39,7.39,0,0,1-6.3,0l.17.27q-.08-9.13-.14-18.28c3.31.25,7.43-1.57,8.83,3.5-5.51,4.07-1.39,9.93-2.73,14.77Z"/><path class="clsWindow-18" d="M694.51,625.43a2.5,2.5,0,0,1,2.7,2c-2.92,6.58-2.92,6.58-15.89,6.2C682.71,625.9,690.45,628.52,694.51,625.43Z"/><path class="clsWindow-5" d="M691.71,573.15c.41-7.69,7.19-9.1,12.14-12.31,1.44.53,2.65,2.3,1.64,2.92C700.75,566.69,697.6,572,691.71,573.15Z"/><path class="clsWindow-3" d="M733.57,603.64c7.89,5.55,2.63,12.77,2.14,19.37-2.68-6.33-1.93-13-1.81-19.69Z"/><path class="clsWindow-5" d="M744.06,622.49c-1.19-6.2-3.31-12.19.59-19.37C747,610.59,746.66,616.68,744.06,622.49Z"/><path class="clsWindow-17" d="M707.25,511.73c-4.45.06-6.58-2.29-6.66-7,2.81-2.3,4.6-.43,6.18,1.43C708,507.66,709.4,509.32,707.25,511.73Z"/><path class="clsWindow-13" d="M628.55,555.2c-2.93-.77-3.52-3.16-3.92-5.68,2.72-.34,5.42-.7,6.64-3.72l4.25,1.24C634.82,551.27,629.19,551.08,628.55,555.2Z"/><path class="clsWindow-3" d="M736.7,570.42q.06,9.14.14,18.28C731.79,582.64,732.28,576.55,736.7,570.42Z"/><path class="clsWindow-8" d="M653.3,618.89c-4-.76-5.94-3.2-6.34-7.07C651.37,612.16,655.58,612.58,653.3,618.89Z"/><path class="clsWindow-3" d="M697.33,615.86c.29-1.67.58-3.33,1-5.55l5,5.5c.3,2.55,3.29,6.37-2.79,5.93h0C699.46,619.77,698.4,617.81,697.33,615.86Z"/><path class="clsWindow-6" d="M682.27,576.4c-1.27-3.07-4.36-5.7-2.06-10.53,3.24,1.88,4.42,4.92,5.85,7.73C685.46,575.43,684.55,576.84,682.27,576.4Z"/><path class="clsWindow-3" d="M742.8,588.69c1.34-4.84-2.78-10.7,2.73-14.77C745.12,578.93,749.35,584.81,742.8,588.69Z"/><path class="clsWindow-3" d="M734.65,537.4c-5-2.26-7.22-3.82-5.89-7.7C732.35,529.88,733,532.43,734.65,537.4Z"/><path class="clsWindow-13" d="M640.08,537.43c2.65-.32,5.36-.78,6.21,2.83l-6.27-.82Q640,538.43,640.08,537.43Z"/><path class="clsWindow-18" d="M725.68,574.34c1.05-.77,2.48-1.77,1.25-3s-2.34,0-3.15,1.14c-4.46,2.42-10.74-1.7-14.31,4,4.27,5.24,1,8.61-2.9,11.85a4.31,4.31,0,0,0,1,1.21c4.87-.39,10.2,3.47,14.56-1.59C727.87,584.54,730.47,580.4,725.68,574.34Z"/><path class="clsWindow-13" d="M643.59,504.83c-3.06,1.49-3.57,3.09-.3,4.86a26.8,26.8,0,0,1,.92-4.06c2.11-.35,5.07,1.46,5.7-2.77C647,500.49,645.18,502.24,643.59,504.83Z"/><path class="clsWindow-16" d="M670.54,549.4c3.88-3.39,7.88-2.43,11.92-.36-.05,4.87,1.3,11.34-5.93,11.42C669.47,560.54,669.7,554.67,670.54,549.4Z"/><path class="clsWindow-5" d="M678,577.36c-6.38,2.79-9.5,2.07-13.15,1.2C668.62,575.05,672.06,576.73,678,577.36Z"/><path class="clsWindow-3" d="M654.94,521.68c5.71-3.13,11.55-5.92,18.22-6.26,5.48,2.66-1.91,7.13,1.42,10.1-5.4,5-3.18,11.05-1.63,17.34-5.09-3.65-6.35-12.15-14.7-9l.21.25c.89-5.11-2.8-5.59-6.31-6.25l.19.22c0-1.08,0-2.16.08-3.24l2.43-3.12Z"/><path class="clsWindow-3" d="M669.87,523.41c-1.12-1.76-2.28-.75-3.44-.06C667.57,524.31,668.71,524.91,669.87,523.41Z"/><path class="clsWindow-1" d="M697.33,615.86l3.2,5.87c-4.39-.56-7.26-3.8-10.7-6.06Z"/><path class="clsWindow-1" d="M678.91,602.54c1.63-1.65,3.72-1.28,5.71-1.31.14,1.81-1.09,2.43-2.51,2.88Z"/><path class="clsWindow-13" d="M646,540.05c2,.06,3,1.32,3.38,3.12Z"/><path class="clsWindow-5" d="M702.1,605.79c-1.39-2.58-2.23-4.37-.52-6.42C704,600.94,703.94,602.86,702.1,605.79Z"/><path class="clsWindow-3" d="M724.82,588.81c-1.2,3.05-6.1,6.2.25,9-.05,1.8-.1,3.6,2,5.13l.63-5.47c-.14-2.52-.08-5,2.82-6.06C730.79,585.9,727.34,588.38,724.82,588.81Z"/><path class="clsWindow-13" d="M704.88,532.72a18.05,18.05,0,0,1-2.52,1.11c-.18.06-.58-.65-.88-1a13.89,13.89,0,0,1,2.37-1C704.1,531.77,704.52,532.39,704.88,532.72Z"/><path class="clsWindow-13" d="M712.77,543c-.17,2-1.4,3-3.34,3.27A3.14,3.14,0,0,1,712.77,543Z"/><path class="clsWindow-13" d="M708,536.5c1.2,2.07-.06,5.27-1,4.67C701.57,537.85,708,536.5,708,536.5Z"/><path class="clsWindow-13" d="M711.09,533.5l1.41,2.56-4.2.76A24.32,24.32,0,0,0,711.09,533.5Z"/><path class="clsWindow-13" d="M688,527.83c-1.09,3.31-4.11,3.61-8,1.17-1.65-5.65.86-12.92-3.12-18.83a4,4,0,0,0-3.55,2.93c-.06.77-.09,1.54-.11,2.32,5.48,2.66-1.91,7.13,1.42,10.1-5.4,5-3.18,11.05-1.63,17.34-5-3.62-6.33-12-14.45-9,.66-4.7-2.79-5.25-6.16-5.89,0-1,0-2,.08-3a2.89,2.89,0,0,1,2.43-3.12l.09-.08c-1.94-2.82-1.58-5.84-.79-8.9-2.89-4-7.87.22-11-2.82,3.65,13-15.06,13.53-14.48,25.13,4.3.8,5.68-4.06,9.25-3.82l8.69-8c3.55-.66,2.37,4.86,5.56,4.88.23,3.8,2.86,5.18,6.06,6-.43,5.47-2.59,9.21-8.93,8.8,3,6.42,7.77,9.94,15.09,9.39l6.15-2.88c3.88-3.39,7.88-2.43,11.92-.36a3,3,0,0,1,2.15-2.94c9.8-5.67,3.2-17.86,9.85-24.78C690.32,521.55,689.14,524.29,688,527.83Z"/><path class="clsWindow-13" d="M671.5,523.56c-2.37,3.2-4.69,1.92-7-.1C666.85,522,669.21,519.86,671.5,523.56Z"/></g></g></g></svg>