<svg id="Layer_1" data-name="Layer 1" xmlns="http://www.w3.org/2000/svg" viewBox="0 0 1525 1525"><defs><style>.clsWindow-1{fill:#191835;}.clsWindow-4{fill:#595337;}.clsWindow-9{fill:#5d4430;}.clsWindow-13{fill:#371912;}.clsWindow-15{fill:#a64e1e;}.clsWindow-8{fill:#999373;}.clsWindow-6{fill:#866a58;}.clsWindow-14{fill:#005bab;}.clsWindow-7{fill:#cd3412;}.clsWindow-5{fill:#cacbad;}.clsWindow-2{fill:#29586a;}.clsWindow-18{fill:#97200b;}.clsWindow-10{fill:#beaf64;}.clsWindow-16{fill:#7b8874;}.clsWindow-12{fill:#b5ad9d;}.clsWindow-11{fill:#f6ba9c;}.clsWindow-3{fill:#94928d;}.clsWindow-17{fill:#d4858f;}.clsWindow-19{fill:#421a20;}</style></defs><title>Artboard 1outerCircle2</title><g id="WindowParts"><g id="outerCircle"><g id="co2"><path class="clsWindow-1" d="M1084.27,293.12c-1.26,2.1-3.31,2.33-5.47,2.32-4.82-6.9-4.82-6.9-13.06,2.5-3.45,1.28-4.37,6.14-8.71,6.16-8.26-3.21-17.93-3.37-24.09-11.14.2-1.26.39-2.51.59-3.77l2.42-2.56a142.22,142.22,0,0,1,45.77-36.5l8.66-5.2c2.78-2.1,4.87-4.21.15-6.48l-3.13-5.59,5.66-1.62q1.62,3.34,3.23,6.69c1,3.12,3.11,3,5.71,2.15,9.7-3.3,19.6-5.56,29.91-5.55l6.48-2.49.34.25c5.56,5.15,12.17,2,18.34,2.34,3.92.08,8.57,1.57,11.63,0,9.29-4.81,16.58-.05,24.34,3.36l.06,12.34c-2.43,3.52-6.37,1.82-9.55,2.73-15.37,4.35-24.27,17-23.31,33.22-.26,7.7,2.47,14.63,5.56,21.46l-9-2.41c-6.26-2.34-12.15,0-18.12,1.4a22.79,22.79,0,0,1-.21-2.86c-.86-7.13,2.84-13.8,3.29-20.73-9.11-1.61-15.76,7.74-24.15,2.54-1.06-1.56-2.13-3.12-3.19-4.69a45.68,45.68,0,0,0,15.54-1.13c4.89,1.11,9.78,2.42,15.62-.52-4.36-6.69-8-13.8.44-19.57-2.55-5.13-5.58-8.24-9.75-10.23l-.26.44c.11-2.39-1.07-3.21-3.32-2.71-1.63-.43-2.87-.14-3.29,1.73-5.66,2.27-10.71,5.4-14.43,10.38-6.13,1.67-11.66,3.82-9.65,12l.3-.29c-11.32-3.14-15.58,6-21.43,12.34l.21-.2c-2.66.73-6.1,1-5.83,4.71C1078.74,291,1081.17,292.71,1084.27,293.12Z"/><path class="clsWindow-1" d="M1226.37,470.8c-.15-.87-.28-1.74-.39-2.62,3.89,0,7.5-3.82,11.6-.84,3.37,4,7.12,5.77,11.4,1.42a4.47,4.47,0,0,0,.69-5.58c-3.25-5.23-7.36-3.85-11.54-1.23-1-6,8-14.05-3.64-17.88,8.35-11.66,16.51-23.46,25.14-34.9,3.18-4.21,3.73-7.51-.26-11.15,5.54-.59,10.43-2.1,12-8.38,2.43-1.55,3.85-3.59,3.2-6.63l0,0c2.43-.36,2.89-2,2.59-4.08,6-14.34,9.66-28.87,3.52-44.18,2.75-1.39,3.73-7.65,8.63-3.14,9.71,12.61,4.84,28.51,9.54,42.26-1.51,5.69,2.52,8.83,5.69,12.37-5.91,4.74-9,20.28-5.89,29.4l-.45,4.6c-2.79-.46-4.52.21-5.56,3.32-1.9,5.68-4.4,11.16-6.65,16.73l-11.24,18.19c-4.06,9.67-20.22,24.35-21.24,24.43-.36-4.33-2-8.78-6.61-8.64C1239.7,474.46,1233.55,469.7,1226.37,470.8Z"/><path class="clsWindow-4" d="M1229.06,388.93l.21,6.22c-2.6,1.33-3.24,3.56-2.88,6.25l.11-.15c-5,1-6.2,4.63-6.3,9,.89,2.11,1.79,4.22,2.68,6.34-1.8.2-2.65,1.41-3.17,3-2.88-1.51-1.87-4.46-2.52-6.8-.12-4.9-2-8.9-6.08-11.71l.12.12c-2.08-4.51-5.94-6.53-10.59-7.49l-10.07,9.32c-.54-4.22-1-7.85-1.47-11.48-1.94,2.67-1.15,5.95-3.24,8.27-3.18,1.18-3.81-4.52-7.36-2.76-.34,5.36,5.2,8.38,5.18,13.49-1.46-.29-3.35-.08-4.31-.92-9.8-8.57-19.44-17.32-29.78-26.61,8.86-13.12,21-22.23,32.26-32.1,3.16,1.14,6,2.17,5.12,6.22,3.09,9.24-7.53,5.8-9.55,10.31-3.31,7.63-17.66,2.23-17.63,14.13,8.56,4.15,14.87.25,21-4.21,4.24,3.08,8.16,7.2,14.42,4.31.86-3.49,1.76-7.08,2.33-9.38-1.83-5.69-9-6.49-7.72-12.9q.08-5,.17-10c3.32-3.67,8.3-3.29,12.39-5.09l6.17,4.91c-5.31,3-11.44,4.7-16.56,10.54,6.07,3.9,8.48,9.93,13.09,14.19-.12,10.07,5.35,17.25,10.8,24.08C1222.52,396.44,1224.58,391.06,1229.06,388.93Z"/><path class="clsWindow-9" d="M1033.53,289.19c-.2,1.26-.39,2.51-.59,3.77-3.24,2.17-6.29,1.76-9.18-.72,3.24-8.66,18.73-12.12,11.1-26l-8,4.94.08.12c.08-2.23.5-4.61-2.44-5.51l-.89-.82,15.55-17.86c5.07,3,8.73,6.36,14.09,7.58,2.39-1.86,5.13-4,7.88-6.11-.16-4.88-1.37-9.33-6.11-13.23,13.1-6.77,22.22-20,38.71-18.67l-.13,3.31c-4,1.91.1,3.54.18,5.3-10.55,4.62-20.34,10.45-32.27,18.17l7.59.38c2.66-.06,4.9.7,6.19,3.25-1.42.35-3.33-.64-4.18,1.48,2.17,1.42,3.08-.23,4.1-1.57,2.78-.22,5.64-.62,6.56,3.09a142.22,142.22,0,0,0-45.77,36.5C1034.55,286.93,1033,287.12,1033.53,289.19Z"/><path class="clsWindow-13" d="M1125.69,521.79l3.85.25c-4.79,9.6-13.45,17.07-15.34,28.32-1.13,6.74-.66,11.62,8.2,10.67,2.23-6.49,1.64-13.5,7.09-18,2.81,5.25,5.91.68,8.89.27a3.49,3.49,0,0,0,2.38,3.59c.2.84.35,1.69.47,2.55-2.14,2.71-5.65,2.81-8,6.77-3.56,5.86-10.69,14.36-19,10.08-7.39-3.79-11.13.05-15.73,1.87,1.07,7.34,13.61,11.75,3.78,20.89-9.58-4.51-9.54-17.46-19-22.06-2.87,1.44-5.8,2.29-7.57,4.86,2.33,4,9.51-1.73,10.53,5.37-3.39-1.69-5.45,1-8,1.93-4.82-5.06-5.27,6.58-8.56,3.24-5.1-2.7.7-7.79-4.07-9.54,1.93-3.67,1.26-7.36.1-11.06l3.08-.52c.1,2.34-1.53,5,2.23,7.68,3-3.84,9.28-4.26,10.29-10.75,10.15,7.66,17-4.22,26.07-3.5,2.07-8.07,4.23-15.3,8.06-22.15l-6.87-1.24c0-.9,0-1.8,0-2.71C1113.15,523.58,1121.11,527,1125.69,521.79Z"/><path class="clsWindow-15" d="M1298.86,373.84c-4.7-13.75.17-29.65-9.54-42.26,1.14-7.12-8.45-11.36-6.46-17,2.72-7.71-6.19-7.32-6.11-12.26.59-.57,1.21-1.12,1.85-1.64,1.61-1.75.37-5.59,4.19-5.73l4,.5-.19-.15c.39,1.74,1,3.27,3.2,3.18l-.13-.16-.06,3.1c.07,11.47,7.73,10.16,15.25,9.08,5.83,11.66,10.54,23.67,11.51,36.84l-5.56,2.34c-1.08-12.26-4-23.89-11.07-34.14,3.32,11.54,2.45,24.46,10.93,34.3C1305.07,357,1301.85,365.36,1298.86,373.84Z"/><path class="clsWindow-8" d="M1100.85,378.61A16.89,16.89,0,0,0,1103,377c.85-.85.8-1.79-.14-2.16-1.4-.54-2.64,0-2.91,1.48C1099.81,377,1100.51,377.85,1100.85,378.61Z"/><path class="clsWindow-4" d="M1102.19,589c9.83-9.14-2.71-13.55-3.78-20.89,4.6-1.82,8.34-5.66,15.73-1.87,8.35,4.28,15.48-4.22,19-10.08,2.4-4,5.91-4.06,8-6.77l.33.08c-.46,6.91-.53,13.68,6.11,18.21,0,.75,0,1.51.09,2.26l-3.23.43c-.47-.68-.86-1.86-1.42-2-1.22-.2-1.63.68-1.09,1.85,0,1-.09,2.08-.13,3.13l-39.69,20.65C1102.2,592.39,1102.19,590.71,1102.19,589Z"/><path class="clsWindow-6" d="M1253.52,482.88c1-.08,17.18-14.76,21.24-24.43,3,.12,2.61,3.47,5,5.06,1-3.46,3.42-5.66,6.11-7.65.3,1.9.59,3.79.89,5.69a3.66,3.66,0,0,0-2.61,3.55l-3.25,5.66-10.72,14.84c-1.75,2.44,0,3.12,1.9,3.7,3.34,6.63.89,12.06-3.91,16.65-4.62,4.42-7.84-1.15-11.71-2.13l.18.19c-3.22-5.07-6.77-1.82-9.91.27a20.25,20.25,0,0,1-5.15-12.37l-.26,0c2.64,0,4.85-.77,6.14-3.29l2.81-2.29c1.48-.84,3.29-1.4,3.3-3.6Z"/><path class="clsWindow-8" d="M987.68,344.12c3.08.88,3.29,3.76,4.26,6.1a4.63,4.63,0,0,0-.37,2.46l-13.71,33.16c-3.44-6.9-9.29-5.58-14.59-6.11.06-3,.13-5.9.19-8.84l-.13.14c1.66,0,2.52-.78,2.39-2.49l.89-.8c4.62-2.35,1.93-3.95-.57-5.57,1.86-11.59,9.8-21.62,8.74-34l3.64-5.93c6.43,2.49,2.2,6.35,1.19,9.72C977.41,339.35,978.53,344.38,987.68,344.12Z"/><path class="clsWindow-8" d="M1154.68,368.09c-6.21,10-13.87,3.83-20.17.88-5.25-2.45-9.72-7.14-13.72-11.57-6.28-7-12.3-13.69-21.88-16.51-4.1-1.2-3.06-4.33.59-6.07,11.53.33,20.64,5.27,27.31,16.27,1-9.72,1.89-17.63,2.74-25.54,3.09-1.66,3.29-4.53,3.4-7.58.06-1.71.13-4.47,2.9-1.53a3,3,0,0,0,2.68,3.22l.06.06c3.42,4.5,1.29,8.36-1.79,11.66-6.45,6.93-4.49,13,1.29,19-1.95,0-3.87.13-5.11,3.32C1137.9,361.38,1147.81,362.63,1154.68,368.09Z"/><path class="clsWindow-8" d="M1179.76,546.72c.36-1.8-.71-2.62-2.19-2.71a2.66,2.66,0,0,0-2.18,1.12,2.44,2.44,0,0,0,1.25,3.37C1178,549,1179.2,548.14,1179.76,546.72Z"/><path class="clsWindow-8" d="M1170.44,550.68a3.11,3.11,0,0,0-2.76-2.76c-.48-.06-1.43.89-1.61,1.53-.48,1.76.56,2.62,2.22,2.43C1169,551.79,1169.73,551.1,1170.44,550.68Z"/><path class="clsWindow-14" d="M1170.94,487.84c-2.42.18-6.08,1.41-6.94-.76-3.48-8.87-12.17-13.8-16-22.26l3-3.44a2.91,2.91,0,0,0,2.66-2.77,3.32,3.32,0,0,0,2.49-3.3q1.94-4.35,3.89-8.68l0,.22c3,0,5,.73,6,4.38,1.59,5.46,2.39.43,3.42-.66q2.64,6.89,5.27,13.76c1.51,5.52,9,7.41,8.54,14.15Z"/><path class="clsWindow-9" d="M1310.86,349.66l5.56-2.34c7.87,1.79,1.49-5.24,4.14-6.69,12.68,16.19,5.54,34.33,5.12,51.82-6.67-7.67.81-17.36-4.2-26.26-2.87,2.84-6.91.57-10.3,2.43-4,7.87,1.61,15.85-.5,23.69l-5.65.07-.48-6.17c-3.17-3.54-7.2-6.68-5.69-12.37,3-8.48,6.21-16.86,11.86-24Z"/><path class="clsWindow-7" d="M1193,238c-7.76-3.41-15-8.17-24.34-3.36-3.06,1.58-7.71.09-11.63,0-5.63-4.58-12.25-1.36-18.34-2.34l-.34-.25c.72-3.83,7.64-3.48,6-8.89l7-.71,17.11.25c11.4.53,23.18-1.39,33.64,5.23l-.14,4-4.52,1.06c2.37,2.5,3.49.82,4.59-1,5.66,2.4,8.42,7.71,12.11,12.09l0-.11C1206.6,244,1200.58,238.33,1193,238Z"/><path class="clsWindow-8" d="M1205.13,374c-4.61-4.26-7-10.29-13.09-14.19,5.12-5.84,11.25-7.58,16.56-10.54,14.13,3.84,20-6.82,27.19-16.43,4.3,1.4,10.11.25,8.56,8.15l.25-.22c-1.08,0-3.18,2.17-3.25,3.33-7.55,5.72-9.59,15.95-17.52,21.35.36-4.62.72-9.24,1.08-14-11.38,2.11-9.22,15-16.89,19.61l.23-.19a4.16,4.16,0,0,0-3.18,3.17Z"/><path class="clsWindow-4" d="M1026.75,506.67a29.68,29.68,0,0,1,8.67-9c1.11,7.8,6.19,2.51,9.55,2.9,0,1.07,0,2.14,0,3.21-1.55.67-3.81.91-2.6,3.51,1.11,2.37,3.47,2.57,5.69,2.91l-.3-.24c8.91,6.54,19.44,8.25,30,10.06.76,1.52,2.87,2.68,1.06,5.13H1069c-4.13-.47-7.57-3.77-12-3a4.45,4.45,0,0,0-.41-1.18c-.12-.19-.52-.18-.8-.26l1.42,1.23-.16,3.28-.27,3.71c-6.6,3.93-12.21,9.05-17.53,14.52-1.45-3.48-8-3.39-6.31-9.09.6-1.77-.3-4,2.15-5.65l6.23,5.24c.82-5.69,5.17-8.45,9.59-10.82a78.22,78.22,0,0,0-15.78-15.79c-2.73.4-1.92,3.2-3.17,4.22Z"/><path class="clsWindow-8" d="M1211.11,401.1c4.13,2.81,6,6.81,6.08,11.71-6.67,5.35-15.64,5.4-23,10.56l-10.51-12.8c0-5.11-5.52-8.13-5.18-13.49,3.55-1.76,4.18,3.94,7.36,2.76,2.09-2.32,1.3-5.6,3.24-8.27.47,3.63.93,7.26,1.47,11.48l10.07-9.32c4.65,1,8.51,3,10.59,7.49-1.44.47-1.74.92-.85,1C1210.56,402.3,1210.86,401.51,1211.11,401.1Z"/><path class="clsWindow-8" d="M1202.13,401.25c-5.09.18-6.61,2.62-4.59,7.54,4.07-1.17,4.36-4.37,4.47-7.67l.78-.56Z"/><path class="clsWindow-4" d="M1259.37,398c4,3.64,3.44,6.94.26,11.15-8.63,11.44-16.79,23.24-25.14,34.9-4.38,4.34-8.81,8.65-13.13,13.05-2.43,2.47-4,1.59-5.32-1.05.54-1.17,1.07-2.34,1.6-3.51l-.29.23c4.15-1.69,5.88-5,6.15-9.26l-.2.29c12.89-13.66,18.78-31.88,30.23-46.48l6.12,1Z"/><path class="clsWindow-13" d="M1144.39,223.15c1.64,5.41-5.28,5.06-6,8.89l-6.48,2.49c0-1.87.35-5.06-1.93-4.55-11.26,2.51-23.34,1.64-33.69,8q-1.61-3.35-3.23-6.69c.89-1.89,3.48-2.75,3.25-5.33-.19-2.3-.23-4.67-2.76-5.88l.13-3.31,14.57-5.89.34,2.91c3.24,3.3,2,7.66,1.78,12.06l13.42-3.35,8.34-.13Z"/><path class="clsWindow-8" d="M1229.06,388.93c-4.48,2.13-6.54,7.51-13.13,9.1-5.45-6.83-10.92-14-10.8-24.08l-.06.07,3.18-3.17-.23.19c4.1-1.14,5.5,2.86,8.38,4.59l6.56-7.91c7.12,4.49,8.23-3.88,12.37-5.77,3,3,1.45,6.1.21,9.19C1231.05,376.22,1232.78,383.57,1229.06,388.93Z"/><path class="clsWindow-7" d="M999.32,349.91c2-5.67-3-6.75-6-9.14,1.25-3.06,3.53-5.78,3.16-9.4,2.87-10.53,10.19-19.24,12.33-30.07,5.31-6.68,9.08-.84,13.68,1.63-3.18,8.59-9,16-10.36,25.11l-2.34,5.94c-6,3.74-3.47,12.91-10.24,16.18Z"/><path class="clsWindow-7" d="M1304.55,386.21l.48,6.17c.85,3.13,3.24,2.88,5.65,2.58.81,3.37-1,7.38,1.52,10.39,5.85-2.14-.62-8.32,5.29-10.2,5.21-2.19,5,4.36,8,6.09a30.18,30.18,0,0,1-8.29,18.34c-5.17-3.38-12.9-1-16.88-7.4-.19-.32-1.48,2-1.69,3.43C1295.53,406.49,1298.64,391,1304.55,386.21Z"/><path class="clsWindow-5" d="M1202.18,227.92c-10.46-6.62-22.24-4.7-33.64-5.23.38-9,10.24,1.2,12.14-8.12-8.51,1.93-12.39-5.43-19.54-9.07l10.82-1.05c4.45,5.82,11.08,2.82,16,2.54,6.86-.38,12.36,2.26,18.43,3.73,5.48,1.32,5.38,5,4.5,9.24l.2-.23a4,4,0,0,0-2.75.77c-5.36-.85-9.89-4.75-15.62-4.24-2.18-2.52-5-3.87-6.89-.46-.86,1.53,1.59,3.27,3.88,3.3a61.35,61.35,0,0,1,17.72,7.06C1206.47,229,1204.37,228.62,1202.18,227.92Z"/><path class="clsWindow-13" d="M1298.66,415.61c.21-1.41,1.5-3.75,1.69-3.43,4,6.44,11.71,4,16.88,7.4l2.43,5.71c-4.86,1.23-9.22-1.76-13.88-2.69-4.08,10.7-7.8,20.45-11.51,30.2l-5,2.83-3.41.23c-2.69,2-5.15,4.19-6.11,7.65-2.38-1.59-2-4.94-5-5.06L1286,440.26a5.5,5.5,0,0,0,.72,1.28c.3.3,1,.67,1.16.56,6.21-6,6.46-14.79,10.33-21.89Z"/><path class="clsWindow-6" d="M1205.47,513.25l12-6.95,1.23.09,1.17-.43,3.5.42c1.37,2.49,2.56,5.14,5.34,6.41,2.32-4-2.5-5.71-2.84-8.87q1.51-1.53,3-3.08c2,0,4.36-4.32,5.92-.46,1.75,4.34,5.56,6.81,7.83,10.43-2.29,8.51-9,11.76-16.34,14.28,1-8.13-4.77-5.72-9-5.74A14.4,14.4,0,0,1,1205.47,513.25Z"/><path class="clsWindow-7" d="M1304.91,310.48c-7.52,1.08-15.18,2.39-15.25-9.08,2.88-1,2.59-2,.06-3.1l.13.16c-.19-1.94-.78-3.48-3.2-3.18l.19.15c.62-2.68-1.54-6,1.36-8.05,3.4-2.37,4.78,1.83,7.19,2.8.1,3.76,1.59,6,6,5.37-.07-4.25-3.15-6.84-5.36-9.88,0-.74-.06-1.48-.11-2.22,11.79,6.81,16.75,14.93,14.68,24.06C1308.37,307.91,1305.76,307.53,1304.91,310.48Z"/><path class="clsWindow-5" d="M1129.55,325.55c-.85,7.91-1.7,15.82-2.74,25.54-6.67-11-15.78-15.94-27.31-16.27l23.43-15.9c3.57,1,3.9,5.14,6.76,6.81Z"/><path class="clsWindow-2" d="M996.48,331.37c.37,3.62-1.91,6.34-3.16,9.4-2.5.07-4.78.51-5.64,3.35-9.15.26-10.27-4.77-8.07-12.12,1-3.37,5.24-7.23-1.19-9.72,3.4-4.13,1.92-10.89,7.72-14,5.34-1.37,7.38,6.4,12.86,5.11-1.26,3.56-2.13,7.39-5.46,9.22-4-.08-2.46-4-4.59-5.14-3.05,1.89-5.36,4.15-4.16,9.05C990.47,323.68,992.4,329.77,996.48,331.37Z"/><path class="clsWindow-7" d="M1253.47,259.09c4,6.12-1.4,8.18-5.19,11.49-5.21-6.59-14.7-9.62-15.13-20.09-.08-2-3-1.2-5.92,2.53a34.19,34.19,0,0,1-13-9l0,.11c4.85.61,9.06-1.34,13.27-3.31,4.13-.57,6.38,3.7,10.19,3.95,3.37,3.76,6.49,7.88,12.09,8.45.57,1.73,1.56,2.94,3.58,2.86Z"/><path class="clsWindow-4" d="M1117.57,285.67c8.39,5.2,15-4.15,24.15-2.54-.45,6.93-4.15,13.6-3.29,20.73-3.24.4-6.93,2.51-8.81-2.28-1.5-3.84-4.23-6.46-9.36-8.94.44,7.09.83,13.38,1.31,21.21C1114.38,300.09,1113.83,295.48,1117.57,285.67Z"/><path class="clsWindow-18" d="M1068.93,308.89c25.14,8.71,27.35,10.74,25.06,22.39C1072.2,327,1066.05,321.82,1068.93,308.89Z"/><path class="clsWindow-10" d="M1207.31,259.33a5.73,5.73,0,0,1,8.48.91c3.81,5,6.78,10.49,6.85,17.64a3.27,3.27,0,0,0,.47,1.85c1.88,2.8,1.66,6.5-.95,8.57a33.2,33.2,0,0,1-10.19,5.64c-3.62,1.18-7.24-1.58-7.53-5.5-.56-7.74-3.94-14.39-9.78-20.18-1.05-1.05-2.19-2.05-3.27-3.1-5.2-5.06,1.36-13.82,7.15-9.5a10,10,0,0,1,1.94,2C1203.52,261.64,1205.53,261,1207.31,259.33Z"/><path class="clsWindow-4" d="M939.41,440.29c-3.68-1.06-7.52-1.81-9.88-5.32,2.2-1.21,3.38-2.48.22-4,5.64-12.72,12-25.15,15.34-38.77l6.35,3c-3.8,12.59-10.55,24.25-12.53,38.21,4.52-4.23,6.53.7,9.49,1.36.38,1.32.75,2.65,1.16,4.1C946.55,441.87,941.84,433.66,939.41,440.29Z"/><path class="clsWindow-1" d="M1060.56,350.26c6.38-3.45,6.78-16.37,18.49-11.45,7.25,8.88,3,17.56-1,26.24-2.69,0-4.2-2.05-6-3.55a3.4,3.4,0,0,0-4-2,2.62,2.62,0,0,1-1.72.48c-.32-2.81-.07-5.93-3.74-6.94C1061.46,352.49,1060.32,351.88,1060.56,350.26Z"/><path class="clsWindow-5" d="M1294.27,452.8c3.71-9.75,7.43-19.5,11.51-30.2,4.66.93,9,3.92,13.88,2.69a168.38,168.38,0,0,1-12.83,31.92c-1.5,2.81-2.89,7.07-7.78,4.27.63-4,7.18-5.64,4.47-10.84C1299.39,447.79,1297.41,452.58,1294.27,452.8Z"/><path class="clsWindow-5" d="M1309,442.77c-.44-2-1.82-2.64-3.08-2.33s-2.76,1.37-2.91,2.3c-.36,2.31,1.34,3.51,3.44,2.84C1307.53,445.23,1308.23,443.63,1309,442.77Z"/><path class="clsWindow-5" d="M1312.84,431.61c-.43-1.39-1-2.73-2.81-2.3a2.72,2.72,0,0,0-2.19,3.06c.14,1.49.89,2.63,2.7,2.05C1311.87,434,1313.25,433.51,1312.84,431.61Z"/><path class="clsWindow-16" d="M1084.27,428.26c-9.11-7.89-19.29-11-32.26-6.38l6.37-11.37c9,8,18.81,7.3,29,2.8l-.22-.17c3.3,4.2,8,2.9,12.27,3l3.13-1.93-.21,5.73-1.12,0-1.12-.08c-2-.57-3.13.51-3.81,2.26C1094.19,428,1090.27,430.21,1084.27,428.26Z"/><path class="clsWindow-5" d="M1102.19,589c0,1.68,0,3.36,0,5l-1.35.16-1.25-.53c-1.52-2.84-2.54-1.85-3.38.45-5.45,1.84-10.83-.25-19.7.66,12.07-7-.93-10.36,1.63-15.68,2.55-.91,4.61-3.62,8-1.93-1-7.1-8.2-1.33-10.53-5.37,1.77-2.57,4.7-3.42,7.57-4.86C1092.65,571.57,1092.61,584.52,1102.19,589Z"/><path class="clsWindow-14" d="M1216,456.07c1.32,2.64,2.89,3.52,5.32,1.05,4.32-4.4,8.75-8.71,13.13-13.05,11.65,3.83,2.68,11.87,3.64,17.88-.18,1.8-.36,3.59-.55,5.39-4.1-3-7.71.88-11.6.84-3.07-2.23-6.17-4.42-9.2-6.69C1214.76,460,1213,458.32,1216,456.07Z"/><path class="clsWindow-5" d="M1026.75,506.67l5.19,4.89c1.25-1,.44-3.82,3.17-4.22a78.22,78.22,0,0,1,15.78,15.79c-4.42,2.37-8.77,5.13-9.59,10.82l-6.23-5.24c-2.45,1.63-1.55,3.88-2.15,5.65-4.34.11-6-2.28-5.91-6.32l-.2.22c4.6-1.12,5.73-5.58,8.91-9l-8.89-.4a5.25,5.25,0,0,0-3.22-5.86C1022.62,509.91,1023.89,507.9,1026.75,506.67Z"/><path class="clsWindow-12" d="M1129.92,279.85a45.68,45.68,0,0,1-15.54,1.13c1.65-7.64-4.63-7.75-9.1-9.58-2-8.21,3.52-10.36,9.65-12,.12,2.36-.8,4.86,1.51,7.71,4.13-6.38,10.79-10.48,12.92-18.09.42-1.87,1.66-2.16,3.29-1.73.23,2,1.6,2.56,3.32,2.71l.26-.44c-4.17,5.9-8.78,11.55-12.37,17.78s-1.51,9.13,5.81,7.07l-.18-.15Q1129.72,277,1129.92,279.85Z"/><path class="clsWindow-4" d="M974.78,328.21c1.06,12.34-6.88,22.37-8.74,34-4-.49-7.29-2.6-11.44-5.06C959,345.82,962.88,334.36,974.78,328.21Z"/><path class="clsWindow-4" d="M1144.4,410.1c-2.71,5.92-7.07,5.38-11.88,3l.2.2-5.12-7.26c3.77-7.61,10.91-11.94,18.27-19.37.73,6.44,11.79,6.14,4.94,14.59C1143.78,401.07,1142,403.6,1144.4,410.1Z"/><path class="clsWindow-5" d="M1325.52,401.24c-3.06-1.73-2.82-8.28-8-6.09-5.91,1.88.56,8.06-5.29,10.2-2.57-3-.71-7-1.52-10.39a3.08,3.08,0,0,0,0-2.65c2.11-7.84-3.47-15.82.5-23.69,3.39-1.86,7.43.41,10.3-2.43,5,8.9-2.47,18.59,4.2,26.26C1325.63,395.38,1325.57,398.31,1325.52,401.24Z"/><path class="clsWindow-5" d="M1318.16,372.56c-2.82-.48-3.57.7-3.85,2.13-.42,2.09.41,3.68,2.58,4.16,1.78.4,2.48-.93,2.72-2.33C1320,374.52,1319.4,372.86,1318.16,372.56Z"/><path class="clsWindow-5" d="M1319.26,389.92c.44-4.78-.88-7.24-2.6-6C1313.25,386.41,1317.53,387.07,1319.26,389.92Z"/><path class="clsWindow-14" d="M1250.26,486.38l-2.81,2.29c-2.39.46-4.87.75-6.14,3.29l.26,0c-7.73-5.12-11.34-13.21-15.2-21.11,7.18-1.1,13.33,3.66,20.54,3.44,4.65-.14,6.25,4.31,6.61,8.64l0-.1C1251.52,483.12,1250.57,484.46,1250.26,486.38Z"/><path class="clsWindow-5" d="M1214.81,317.21c5.3-6.18,8.87-14,18.75-19.3-3.29,8.76-7.64,15.56-1.36,23,2.7,3.18-4.89,4-4.63,7.86-4.45-.37-8.35-3.36-12.76-1.24Z"/><path class="clsWindow-10" d="M1066.37,360a2.62,2.62,0,0,0,1.72-.48,2.83,2.83,0,0,1,.94,2.17v17c6.27-1.12,7.8-6.46,12.16-7.65a12.45,12.45,0,0,1,2.64.44,11.09,11.09,0,0,0,.31,2.57l.16-.21c-2,.1-2.7,1.58-3.15,3.24l.15-.15c-1.58.39-2.72,1.16-2.67,3a8,8,0,0,0-.33,2.75c-6,3.68-12.12,5.26-17.26-.89C1057.11,377.08,1060.31,365.4,1066.37,360Z"/><path class="clsWindow-4" d="M1132.52,413.11c1.26,6.22,6,12.36.33,18.7-2.3.4-5.17-.55-6.29,2.65-2.15.53-2.9,1.82-2.14,3.94l-7.16-1.31c2.9-5.41,3.07-11.06,2.48-16.48-9.26-3-3.61,9.4-10.41,8.4-.57-.42-1.13-.86-1.68-1.31-.86-9,6.79-11.06,12.16-15,1.79,4,5.25,6,8.38,8.49,2.15-2.91,1.43-5.37,1.26-7.78l3.27-.1Z"/><path class="clsWindow-14" d="M1009.79,334l2.34-5.94c12.88-4.86,16.48-3.51,17.22,6.43l.41,0c-1.89.18-2.71,1.51-3.31,3.08l-2.84,3c-3.58,1.52-5.56,6.88-11.21,3.53C1007.59,341.2,1009.37,337.65,1009.79,334Z"/><path class="clsWindow-8" d="M1295.88,283.45c0,.74.09,1.48.11,2.22l-.6,4.51c-2.41-1-3.79-5.17-7.19-2.8-2.9,2-.74,5.37-1.36,8.05l-4-.5c-1.44-7.75-8.47-12-11.72-18.63,1.29-5.22,6.56,2.65,7.23.15,2.1-7.29-6.54-8.23-3.06-14.76C1285.37,266.08,1289.06,276.37,1295.88,283.45Z"/><path class="clsWindow-8" d="M1283.19,282.93c1.86.3,3.09-.31,3-2.09a3.2,3.2,0,0,0-1.25-2.47,2.56,2.56,0,0,0-3.5,1.46C1280.86,281.42,1281.86,282.47,1283.19,282.93Z"/><path class="clsWindow-5" d="M960.07,451.35a40.55,40.55,0,0,0-12.38-7l-8.28-4c-3.68-1.06-7.52-1.81-9.88-5.32-11.11.84-8.66,10.44-12.35,16.91L940.71,464c1.86-3.22,3.3-5.7,4.74-8.18l2.8-.12c.63,4-3.43,6.63-3.07,10.52a8.22,8.22,0,0,0,5.48,4.21c2.19.42,3.5-1.06,4.69-2.61C957.17,462.48,962.59,458.24,960.07,451.35Zm-11.63,4c-.41-1.8-.28-3.46,1.49-4.73C951.94,453.15,951.57,454.74,948.44,455.38Z"/><path class="clsWindow-4" d="M1154.68,368.09c-6.87-5.46-16.78-6.71-21.7-14.41,1.24-3.19,3.16-3.28,5.11-3.32,5,4.28,6.64,1.84,6.82-3.44,3.85.61,1.09,11.16,8.85,5.89a19.44,19.44,0,0,0,2.64.12c2.48,1.74,2,6.8,6.78,6C1162,363.45,1157.71,365.21,1154.68,368.09Z"/><path class="clsWindow-11" d="M1210,485.28c-3.2,0-6.46-1.27-6.94-4.19-1.73-10.64-8.29-12.61-16.93-9.92-1.72-3.08.39-4.34.91-6l3-1.08c2.33.12,4.72.4,5.79-2.45C1209,465.15,1214.77,474.78,1210,485.28Z"/><path class="clsWindow-5" d="M1059.93,473.24c4.64,10,4.23,13.68-5.12,15.55-5.68,1.13-.78,5.17-3.61,5.8-4.29-.34-6.13,1.89-6.23,5.94-3.36-.39-8.44,4.9-9.55-2.9Z"/><path class="clsWindow-12" d="M1105.58,271.11c1.14,6-2.91,8.8-7,11.68-4.83,3.34-9.51,6.87-14.26,10.33-3.1-.41-5.53-2.09-5.74-5.16-.27-3.73,3.17-4,5.83-4.71C1083.86,284.33,1094.26,268,1105.58,271.11Z"/><path class="clsWindow-3" d="M1177.42,367.47c2-4.51,12.64-1.07,9.55-10.31l2.9,2.26c-1.24,6.41,5.89,7.21,7.72,12.9-.57,2.3-1.47,5.89-2.33,9.38-6.26,2.89-10.18-1.23-14.42-4.31C1183.2,372.88,1183.13,369.2,1177.42,367.47Z"/><path class="clsWindow-5" d="M1002.86,497.66c-2.77,0-3.81,4.79-7.43,2.57-1.21-3.69,4-4.91,3.36-8.38,4.64-3,11.39,1.56,15.27-5,3.34,4.9,11.52,5.63,9.36,13.79-7.74-2.12-8.43,7.2-13.76,9-2.68-4,.12-8.35-1.78-11.9-1.48-2.78-3.62-3.07-5.26.18Z"/><path class="clsWindow-8" d="M1235.1,233.34c-1.16-.37-2.53-1.31-3.61-1-1.49.37-1.92,2.09-1.21,3.47a2.72,2.72,0,0,0,2.3,1C1234.12,236.57,1234.89,235.31,1235.1,233.34Z"/><path class="clsWindow-16" d="M1138.41,207c3.4.13,6.8.14,10.18.44,1.91.17,4,.67,2.23,3.43-4.4,3.08-14-4.11-13.51,6.93-5.36.7-2.84-8.28-9-6.05-4.33,5.51.52,7.74,3.77,10.54l-8.34.13c.61-12.81-9-7.82-15.2-8.71l-.34-2.91,21.21-3.57h6.26A4,4,0,0,0,1138.41,207Z"/><path class="clsWindow-3" d="M1135.85,316.44c-2.77-2.94-2.84-.18-2.9,1.53-.11,3-.31,5.92-3.4,7.58l.14.18q.12-7.35.25-14.69l8.7-4.32c6-1.4,11.86-3.74,18.12-1.4l-3.06,9.74c-3,1.71-6.9-3.89-9.54,1.11l-5.57,3.55-.06-.06A3.68,3.68,0,0,0,1135.85,316.44Z"/><path class="clsWindow-5" d="M996.87,491.93c-3.38.39-4.66,4.85-8.6,4.54-2.7-7.68,10.52-7.91,6.89-16.51-6.47,1.47-6.77,10.36-13.2,11.46-1.24-7.82,4.57-13.71,5.72-20.88l-.22.21c4.88.34,7.11,5.67,11.83,6.3,1.25,3.19,5.5,4,6.21,8.73C999.9,484.08,999.33,489.13,996.87,491.93Z"/><path class="clsWindow-4" d="M1214.81,317.21v10.31c4.41-2.12,8.31.87,12.76,1.24,1.89,5.25-1.93,6-5.31,5.81-6.51-.33-11.25,3.19-16.27,6.3-.3-1.68-.61-3.35-.91-5C1203.82,327.28,1209.42,322.3,1214.81,317.21Z"/><path class="clsWindow-8" d="M1209.79,528c-11.13.42-11.13.42-10.78,12.61-5.58-1.18-4.09-5.42-3.79-9.73-14.8,2.86-26.88,12.24-41.18,15.42,3.5,4.63,9.25,8.55,3.75,16.77l-10.12,4.64c0,.75,0,1.51.09,2.26l3,.69a4.75,4.75,0,0,1,2.49-.72,3.17,3.17,0,0,1,3.64-1.93l1.4-.54,1.5.14,2.88-.46a2.86,2.86,0,0,1,3.32-2.25l2.52-3.18-4.34-2,4.87-1c13.13,1.38,25-.45,33-12.55,8.54.18,8.46.18,8.59-8,0-.54,2.5-1,3.84-1.55C1215,532.58,1216.12,528.25,1209.79,528Z"/><path class="clsWindow-5" d="M962.52,464.13c2.45-6.47,7.1-7.52,13.08-5.3l-.23-.42c1,7.13,10.1,6.24,12.09,12.34l.22-.21c-8.33-.4-12,10.31-20.84,8.7l8.35-13.43c-3-2.5-4.32,0-5.91,1.67C966.43,467.57,963.51,467.8,962.52,464.13Z"/><path class="clsWindow-4" d="M1096.61,370.69c-.32,1.43-.65,2.86-1,4.29-4.87-.65-6.84-5.93-11.36-7.15l.09.09c-1.19-7.65,1.9-14.15,4.84-20.91,5.74,0,10,1.68,13.54,5.28a27.83,27.83,0,0,0-11.58,5.28C1091.59,362.59,1094.2,366.6,1096.61,370.69Z"/><path class="clsWindow-5" d="M1039.23,543.45c5.32-5.47,10.93-10.59,17.53-14.52,2.4,5.27,9.48,7.43,9.48,14.28-6.11-4.12-9.5,5.4-15.26,3-.47-3.56,4.14-5.61,2.8-9.43,1.3.52,2.4.35,2.94-1.07.1-.24-.42-1-.65-1-1.51,0-1.93,1.1-2,2.39l-9.91,11.07A5.7,5.7,0,0,1,1039.23,543.45Z"/><path class="clsWindow-6" d="M1026.81,271.22l8-4.94c7.63,13.84-7.86,17.3-11.1,26-5.06-2.7-1.78-8.08-3.77-11.77C1023.6,278.38,1025.48,275,1026.81,271.22Z"/><path class="clsWindow-4" d="M996.87,491.93c2.46-2.8,3-7.85,8.63-6.15-.71-4.69-5-5.54-6.21-8.73l.32-.3,5.19.22,6.43,5.43,5.86.59,9.87,11.22c0,2.8-.1,5.53-3.54,6.42,2.16-8.16-6-8.89-9.36-13.79-3.88,6.57-10.63,2-15.27,5l-.95.29Z"/><path class="clsWindow-5" d="M1174.71,464.33q-2.62-6.88-5.27-13.76c-1.44-4.39,1.75-9-.58-13.33l-.19.35,5.63.88-.38-.36,1.52,2.39c1.58,4.09,2.46,8.5,5.46,11.93C1181.17,454.43,1179.54,465.33,1174.71,464.33Z"/><path class="clsWindow-7" d="M1217.64,452.56c-5.46,1.7-7.9-1.71-9.91-5.85q3.11-6.27,6.22-12.56c9.31-3.81,9.31-3.81,9.35,9.67l.2-.29c-4.2,1.65-7,4.21-6.15,9.26Z"/><path class="clsWindow-8" d="M996.48,331.37c-4.08-1.6-6-7.69-11.69-4.83-1.2-4.9,1.11-7.16,4.16-9.05,2.13,1.16.59,5.06,4.59,5.14,3.33-1.83,4.2-5.66,5.46-9.22,3.07-4.2,3.87-10.24,9.81-12.11C1006.67,312.13,999.35,320.84,996.48,331.37Z"/><path class="clsWindow-16" d="M1047.54,346.78l-.21-12.19c1.52-3.18,3.83-4.39,7.23-3-.33,4.45-2.12,9.11,1.84,13l1.17,2.61c-.48,1.78.5,2.16,2,2.06,0,.68.33,1,1,1-.24,1.62.9,2.23,2.07,2.82,1.22,5.05-3.52,4.21-5.77,5.84l.27.19c.64-2.85-.69-3.75-3.32-3.36l.42.39C1053.26,352.12,1049.59,350,1047.54,346.78Z"/><path class="clsWindow-18" d="M1214,434.15q-3.1,6.28-6.22,12.56c-5.26-.61-6.7-4.38-5.29-8.42,1.75-5,1.18-10,.6-14.89C1214.45,420.65,1208.78,432.24,1214,434.15Z"/><path class="clsWindow-8" d="M966.84,479.24c8.83,1.61,12.51-9.1,20.84-8.7-1.15,7.17-7,13.06-5.72,20.88C976.39,488,970,485.59,966.84,479.24Z"/><path class="clsWindow-16" d="M945.09,392.21c-3.35,13.62-9.7,26.05-15.34,38.77-5.2-1.92-2.58-5.16-1.47-8.25,3.62-10.05,9-19.41,11.38-29.93Z"/><path class="clsWindow-8" d="M1160.36,422.26c3.16-1.6,2.24-6.64,7.88-7.49L1174,418l-2.15,13.33-.3,1.15c-1.09,1.07-1.87,1-3,2C1162.73,432.5,1160.49,428.08,1160.36,422.26Z"/><path class="clsWindow-5" d="M1304.91,310.48c.85-3,3.46-2.57,5.65-3l1.53,5.93c-.35,1.53.5,2.33,1.75,2.89l6.72,24.3c-2.65,1.45,3.73,8.48-4.14,6.69C1315.45,334.15,1310.74,322.14,1304.91,310.48Z"/><path class="clsWindow-8" d="M1169,334.8c4.26,1.79,7.16,6.21,12.27,6.37a32.84,32.84,0,0,1-9.58,8.72c-5-3-8.74-7.19-12-11.92.26-2.59,0-5.46,3.34-6.47l-.14-.05C1165.39,336.36,1166.07,336.73,1169,334.8Z"/><path class="clsWindow-3" d="M1159.66,338c3.26,4.73,7,9,12,11.92-1.36,4.38-7.77,4-8.48,9-4.74.83-4.3-4.23-6.78-6C1157.46,347.94,1154.68,342.11,1159.66,338Z"/><path class="clsWindow-5" d="M1160.36,422.26c.13,5.82,2.37,10.24,8.18,12.28l.13,3,.19-.35c-15.64-8.89-18.37-15-14-33.66C1159.2,409.89,1158.47,416.52,1160.36,422.26Z"/><path class="clsWindow-8" d="M1051,546.25c5.76,2.36,9.15-7.16,15.26-3l-.15-.19c0,2.19,1.05,3.23,3.21,3.23l-.22-.21.15,6.2c-5.94,1-10.46,4-13.26,9.46-2.49-1.3-3.93-3.53-5.19-5.92,3.88-1,7.51-2.35,9.49-6.23,1-.42,3.19-.52,1.93-2.11-1-1.24-2.32,0-2.71,1.52l-8.32.43C1051.1,548.34,1051,547.29,1051,546.25Z"/><path class="clsWindow-5" d="M1205.08,335.84c.3,1.68.61,3.35.91,5l-3.56,3.44c-4.09,1.8-9.07,1.42-12.39,5.09-3-.79-4.44-2.51-1.93-5,3.48-3.48,7.37-6.56,11.07-9.81l3.23-.47Z"/><path class="clsWindow-4" d="M1274.55,383c-6.79-2.88-6.52-7.09-2.29-12.06-1.88-.53-5.25-1.8-5.42-1.48-3.9,7.84-8.74,3.58-13.44,1.28,0,10.18-9.27,9.08-15,12.27,5.13,4.68,13.81,2.33,17.9,9.06,1.92-.93-.09,2.13-.14,3.19,1.69.33,3.77.22,3.54,2.71,5.4-.61,10.13-2.18,11.65-8.34C1273.78,388.09,1275.2,386.05,1274.55,383Z"/><path class="clsWindow-3" d="M1081.19,371c-4.36,1.19-5.89,6.53-12.16,7.65v-17l3-.21c1.82,1.5,3.33,3.53,6,3.55l3.19,2.87C1081.26,369,1081.23,370,1081.19,371Z"/><path class="clsWindow-4" d="M1075.49,458.74l6.17,6.1c-1.54,9.84-9.62,4.7-14.71,6.41a11.26,11.26,0,0,1-1.42-.94C1066.5,464.44,1070.32,461,1075.49,458.74Z"/><path class="clsWindow-5" d="M1214.47,536.57c.51-4,1.65-8.32-4.68-8.57-2-6.88,6.15-4.81,7.59-8.65,4.2,0,9.95-2.39,9,5.74l-.08,0c-3.27-2.35-6.84-2.78-8.2,1.47s2.63,4,5.41,4.2l.1.08a9.37,9.37,0,0,0-.29,2.84Z"/><path class="clsWindow-8" d="M1105.16,353.29a5.67,5.67,0,0,0-2.42-1,27.83,27.83,0,0,0-11.58,5.28c.43,5,3,9,5.45,13.12-.32,1.43-.65,2.86-1,4.29,5,13.91,19.82,14.38,29.18,23.06,4.41-6.31,11-8.91,14.53-16.51C1126.58,373.67,1118,361.06,1105.16,353.29Z"/><path class="clsWindow-8" d="M1060.77,462.21l-1-4.1c.65-9.49-6.57-17.33-5.64-26.88l-.19.18c6.08,4.79,6.46,12.44,9.18,18.87,1.25,2.94,1.95,5.35,5.7,4.84C1067.89,459.47,1063,459.29,1060.77,462.21Z"/><path class="clsWindow-17" d="M1220.34,220.55c4.64,4,2.11,7.84-.16,11.71l.26-.19c-7.7-.65-10.32-5.12-9.3-12.34l-.2.23,8.6-.19Z"/><path class="clsWindow-8" d="M1117.13,399.46c-3.84-3.9-8.73-7.63-13.6-8-5.33-.39-6.57-4.24-9.65-6.48.63,7.83-8.79,10.24-9.39,17.4l8.12,5.36,3.34-.58a15.6,15.6,0,0,0,.56,2.8c1.14.59,2.39,1.09,2.1,2.76l.82,3.44,3.13-1.93c2-3.71,4.83-5.58,9.16-4l2.93-2.73C1115.6,404.86,1118.26,402.75,1117.13,399.46Zm-20.75,6-4.79-5.5c8-7.89,10.41.37,14.17,4.37C1103.2,409.47,1099.82,407.76,1096.38,405.5Z"/><path class="clsWindow-4" d="M1294.27,452.8c3.14-.22,5.12-5,9.25-2.16,2.71,5.2-3.84,6.88-4.47,10.84-2.94-2.49-9.64,1.32-9.78-5.85Z"/><path class="clsWindow-5" d="M1272.07,489.3c-1.91-.58-3.65-1.26-1.9-3.7l10.72-14.84c3.12.44,3,3.17,3.74,5.29-3.76,2.42-10.12,3.89-3.61,10C1279.51,491.21,1275.15,488.49,1272.07,489.3Z"/><path class="clsWindow-4" d="M1026.81,271.22c-1.33,3.78-3.21,7.16-6.82,9.25-3.46-.6-6-2-3.49-5.88,2.12-3.34,4.69-6.4,7.06-9.58l.89.82c-.65,2.48-.22,4.49,2.44,5.51Z"/><path class="clsWindow-8" d="M1281,486.07c-6.51-6.13-.15-7.6,3.61-10,2.51,0,5,0,6.78,2.36C1289.89,483.61,1284.5,483.55,1281,486.07Z"/><path class="clsWindow-3" d="M962.52,464.13c1,3.67,3.91,3.44,6.76,3.35-1.77,4-3.14,8.29-8.11,9.55-5.58-1.4-4.25-5.58-3.82-9.4C960,467.81,960.67,465.11,962.52,464.13Z"/><path class="clsWindow-12" d="M1065.74,297.94c8.24-9.4,8.24-9.4,13.06-2.5l-9.47,6.12A5.63,5.63,0,0,1,1065.74,297.94Z"/><path class="clsWindow-13" d="M1162.76,570.41c2.35.14,4.84-.93,7.78,1.5-5.53,3.73-10.57,7.39-17.72,7.37,0-7.72,8.26-4.42,10-8.95Z"/><path class="clsWindow-3" d="M955.78,385.61l4.37-12.12a2.34,2.34,0,0,1,.74-2.23,5.26,5.26,0,0,0,2.57-.37c-.06,2.94-.13,5.89-.19,8.84-2.77,3.61-1.64,9.89-7.59,11.39C954.13,389.16,954.71,387.38,955.78,385.61Z"/><path class="clsWindow-4" d="M1095.79,439.81c8.36.28,6.73-9.23,11.86-12.11.55.45,1.11.89,1.68,1.31.68,2.28,4.73,1.55,4.33,4.86-2.4,1.5-5.49,2.49-5,6.29l-3.74.32Z"/><path class="clsWindow-16" d="M1095.79,439.81l9.11.67a5.34,5.34,0,0,1,.89,2.76c-5.14,4.16-10.32,5.49-15.57.17Z"/><path class="clsWindow-5" d="M1059.78,458.11c-3.13.49-6.28-4.37-9.4,0-3.35,2.09-6.73,4-10.94,3.47a23.75,23.75,0,0,0-18.59,5.7c-4.09-2.16-2.22-7-5.56-8.87-1.46,7.71.52,14.54,5.26,20.67-2.19.36-3.55,1.47-3.46,3.87l9.87,11.22c3.11-.57,5.35-2.12,6.07-5.39h0c5.67-.95,7.73-6.57,12-9.31,2.13-8.59,11.39-10.71,15.72-17.3Z"/><path class="clsWindow-16" d="M1129.45,413.41c.17,2.41.89,4.87-1.26,7.78-3.13-2.48-6.59-4.53-8.38-8.49C1123.38,408.11,1126.36,411.5,1129.45,413.41Z"/><path class="clsWindow-3" d="M1280.69,334.72c-3.31.53-6.07-3.56-10.67-.48-3.65,4.15-3.55,12.36-10.44,15.63l-3.66-.13c-.62-2.83-.62-6-2-8.41-1.78-3.08-4.65-6-7.28-.29l-2-.32a3.91,3.91,0,0,1-3.25,3.33c-7.55,5.72-9.59,15.95-17.52,21.35a6,6,0,0,1-.87,2.32c7.12,4.49,8.23-3.88,12.37-5.77h0c3,3,1.45,6.1.21,9.19l3.37,3.36c3.39-2.53,1.83-6.68,3.21-9.86l11.44.43,6-1.22c3.58-7,10.76-5,16.55-7.63,2.25,6.57,2.2,11.47-3.8,14.73-4.23,5-4.5,9.18,2.29,12.06l0,0c-.48-2.21.91-3.24,2.59-4.08C1283.14,364.56,1286.83,350,1280.69,334.72Zm-38.58,29.39s0,.06,0,.1S1242.11,364.14,1242.11,364.11Zm.24-.68,0,0Zm-.15.31,0,.08Z"/><path class="clsWindow-5" d="M1078.3,382.66a8,8,0,0,1,.33-2.75c1.69-.27,2.32-1.51,2.67-3l-.15.15a3.85,3.85,0,0,0,3.15-3.24l-.16.21c3.14.83,5.49,2.46,6,5.91-2.33,3.07-7.39,2.16-9.06,6.19l.21-.12Z"/><path class="clsWindow-12" d="M1065.74,297.94a5.63,5.63,0,0,0,3.59,3.62L1056.46,311c-3-3.24,1.07-4.71.57-6.89C1061.37,304.08,1062.29,299.22,1065.74,297.94Z"/><path class="clsWindow-8" d="M1023.61,513a5.25,5.25,0,0,1,3.22,5.86c0,3.12,0,6.25,0,9.37l.2-.22c-3.22-.5-8.18-.45-4.87-5.49C1024.36,519.16,1023.93,516.31,1023.61,513Z"/><path class="clsWindow-5" d="M1056,561.7c2.8-5.42,7.32-8.43,13.26-9.46l-.21-.16c1.11,5.18-5.93,5-6.14,9.33l.4-.22C1060.76,560.22,1058.72,566,1056,561.7Z"/><path class="clsWindow-8" d="M1129.94,311q-.14,7.35-.25,14.69c-2.86-1.67-3.19-5.85-6.76-6.81C1125.58,316.57,1126.26,312.48,1129.94,311Z"/><path class="clsWindow-8" d="M1144.4,410.1c-2.45-6.5-.62-9,6.41-8.83Z"/><path class="clsWindow-5" d="M1102.56,414.25c2-3.71,4.83-5.58,9.16-4-2.41,3.54-4.77,7.11-7.25,10.6-1.17,1.63-2.83,1.62-1.32.3a10.5,10.5,0,0,0-.8-1.16Z"/><path class="clsWindow-6" d="M1223.48,530.81c-2.78-.21-6.82.17-5.41-4.2s4.93-3.82,8.2-1.47Z"/><path class="clsWindow-5" d="M1051.17,549.39l8.32-.43.78.59c-2,3.88-5.61,5.25-9.49,6.23-1.42-.77-3.3-1.18-2.76-3.49,1.66-.33,3.1-.88,3.17-2.93Z"/><path class="clsWindow-8" d="M1219.71,419.61c.52-1.57,1.37-2.78,3.17-3l5.92,7.33C1223.21,426.47,1221.79,422.36,1219.71,419.61Z"/><path class="clsWindow-8" d="M1065.62,561.77c1.16,3.7,1.83,7.39-.1,11.06-7.13-2.65-.63-7.93-2.24-11.64l-.4.22,1.34.42Z"/><path class="clsWindow-4" d="M1081.13,386.14c1.67-4,6.73-3.12,9.06-6.19a3.88,3.88,0,0,1,.13,2.45C1088.39,386.43,1084.53,385.72,1081.13,386.14Z"/><path class="clsWindow-15" d="M1276.75,302.3c-2.44-2.36-5.37-4.44-4.9-9.59,4.35,1.28,6.29,3.87,6.75,8C1278,301.18,1277.34,301.73,1276.75,302.3Z"/><path class="clsWindow-1" d="M1056.4,344.59c-4-3.85-2.17-8.51-1.84-13C1059,335.4,1056.84,340.12,1056.4,344.59Z"/><path class="clsWindow-8" d="M1220.2,410.29c.1-4.41,1.31-8.05,6.3-9C1227.31,406.29,1224.33,408.69,1220.2,410.29Z"/><path class="clsWindow-8" d="M1226.39,401.4c-.36-2.69.28-4.92,2.88-6.25C1231.32,398.62,1230.34,400.7,1226.39,401.4Z"/><path class="clsWindow-13" d="M1147.76,570l3,.69c-2.11,3.56-5.58,2.82-8.83,2.76,0-1,.08-2.09.13-3.13a19.17,19.17,0,0,1,2.51.11Z"/><path class="clsWindow-7" d="M1256.5,250l5.51.15c-.76,2.56-3,2.95-5.12,3.49Z"/><path class="clsWindow-11" d="M1205.07,458.61c-2.93-1-3-2.71-.8-5.74l.86,5.69Z"/><path class="clsWindow-8" d="M1219.54,219.77c1-2.39,2.45-3.88,5.48-1.88-.28,3.05-3,2-4.68,2.66Z"/><path class="clsWindow-8" d="M1135.72,207.25h-6.26C1131.55,204.29,1133.63,204.45,1135.72,207.25Z"/><path class="clsWindow-13" d="M1168.47,561.72l-4.34-2,4.87-1C1168.82,559.72,1168.64,560.72,1168.47,561.72Z"/><path class="clsWindow-1" d="M1256.16,395.27c1.78.35,4,.2,3.49,3.1l-6.12-1A2.5,2.5,0,0,1,1256.16,395.27Z"/><path class="clsWindow-5" d="M1002.62,497.87c2.58.88,3.68,2.3,1.72,5.06-3.12-1.09-1.12-3.54-1.48-5.27Z"/><path class="clsWindow-5" d="M1096.3,422.21c.68-1.75,1.76-2.83,3.81-2.26C1099.45,421.73,1098,422.13,1096.3,422.21Z"/><path class="clsWindow-4" d="M1096.22,594.15c.84-2.3,1.86-3.29,3.38-.45Z"/><path class="clsWindow-13" d="M1159.75,567.61l2.89-.47.12,3.27.09-.08Z"/><path class="clsWindow-13" d="M1153.21,569.94a3.17,3.17,0,0,1,3.64-1.93A3.09,3.09,0,0,1,1153.21,569.94Z"/><path class="clsWindow-13" d="M1162.62,567.17a2.86,2.86,0,0,1,3.33-2.27A2.81,2.81,0,0,1,1162.62,567.17Z"/><path class="clsWindow-4" d="M1081.19,371c0-1,.07-2.07.1-3.11h3.07l-.09-.09c-.15,1.21-.29,2.43-.44,3.64A12.45,12.45,0,0,0,1081.19,371Z"/><path class="clsWindow-8" d="M963.46,370.89a5.26,5.26,0,0,1-2.57.37c-.25-1.81.86-2.8,2.19-3.65l.95.95a8.51,8.51,0,0,0-.7,2.47Z"/><path class="clsWindow-8" d="M955.08,363.09c-3.11-.06-3.42,2.39-3.69,4.86a3.77,3.77,0,0,0-.95,2.76h0c-1.57.54-2,1.77-2,3.29L943,385.14a5,5,0,0,1,2,1l3.65.43.19,0,6.88-1,4.37-12.12C954.3,372,960.81,364.8,955.08,363.09Z"/><path class="clsWindow-8" d="M963.08,367.61c1.28-2.65,2.44-2.2,3.53.13l-.89.8a1.34,1.34,0,0,0-1.69,0Z"/><path class="clsWindow-8" d="M1051.19,549.36c-.07,2-1.51,2.6-3.17,2.93C1048.14,550.29,1049.14,549.27,1051.19,549.36Z"/><path class="clsWindow-1" d="M1059.54,349.26c-1.47.1-2.45-.28-2-2.06C1059.07,347.09,1059.81,347.69,1059.54,349.26Z"/><path class="clsWindow-6" d="M1223.29,533.73a9.37,9.37,0,0,1,.29-2.84c.65.57,1.84,1.13,1.85,1.71C1225.46,533.75,1224.44,534.13,1223.29,533.73Z"/><path class="clsWindow-4" d="M1202.41,334.09l-3.23.47C1199.9,331.94,1201,331.85,1202.41,334.09Z"/><path class="clsWindow-6" d="M1256.45,503.82l-.43.57.61-.38Z"/><path class="clsWindow-7" d="M1313.84,316.33c-1.25-.56-2.1-1.36-1.75-2.89A2.31,2.31,0,0,1,1313.84,316.33Z"/><path class="clsWindow-13" d="M1284.14,465.1a3.66,3.66,0,0,1,2.61-3.55Z"/><path class="clsWindow-11" d="M1205.13,458.56l2,1.18-1.51.9c-.18-.68-.37-1.35-.56-2Z"/><path class="clsWindow-4" d="M1077.9,455.39a3.66,3.66,0,0,1-2.47,3.4A3.19,3.19,0,0,1,1077.9,455.39Z"/><path class="clsWindow-7" d="M1129.49,543c-5.45,4.52-4.86,11.53-7.09,18-8.86,1-9.33-3.93-8.2-10.67,1.89-11.25,10.55-18.72,15.34-28.32,8.63-6.61,16-14.83,25.45-20.06,3.38,1.44,5.33,3.4,5,7.29C1149.5,519.93,1136.67,528.94,1129.49,543Z"/><path class="clsWindow-5" d="M1109,458.34l3.34-6.26-.39.46-.34.12-3.08-.22c-1.46-2.9.88-6.94-2.74-9.2-5.14,4.16-10.32,5.49-15.57.17-5.15,2.92-8,8.18-12.32,12a3.67,3.67,0,0,1-2.4,3.37l6.16,6.08c-1.54,9.84-9.62,4.7-14.71,6.41-3.35,6.44,3.57,5.11,6.44,7-2.53,1.44-6.23-.3-5.5,4.79,12.78-2.08,26.46.48,37.7-8.71,6.2-1.94,6.72-7.73,8.6-12.6C1112.2,461,1111.59,458,1109,458.34Zm-9.35,6.63c-1,1.85-2.41,2.46-4.48,1.4.31-2.29,2.42-1.63,3.71-2.27,2.3-3.56,5.13-6.16,9.74-5.55C1107.33,463,1103.6,464.14,1099.65,465Z"/><path class="clsWindow-13" d="M1217.38,519.35c-1.44,3.84-9.62,1.77-7.59,8.65-11.13.42-11.13.42-10.78,12.61-5.58-1.18-4.09-5.42-3.79-9.73-14.89,2.88-27,12.37-41.46,15.49-.47-3-2.61-3.71-5.24-3.64a6,6,0,0,1-.77-2.71l-.2.18c7-1.3,14.4-1.72,18.29-9.17,2-3.76,5.93-4.33,9.29-5.87,9.31,5.61,14.68-1.86,21-6.3l-.23.2c1.69-.33,3.73-.19,4.93-1.13.81-.64-.56-2.08-1.79-2.57,1.59-2.41,4-2.37,6.46-2.11A14.4,14.4,0,0,0,1217.38,519.35Z"/><path class="clsWindow-10" d="M1087.49,516c11.37,4.4,20.45-2.29,30.1-6.21,4,1.76,6.19,4.79,6.25,9.24-11.95-.27-21.55,7.45-32.79,9.61.76-4.57,1.13-8.93-5.46-9.11-2.86,2.44-1.19,5.3-.77,8.05-5.43.15-11.14,2.09-15.83-2.49h9.79c1.81-2.45-.3-3.61-1.06-5.13,1.92-.78,3.52-1.87,3.82-4.15Z"/><path class="clsWindow-16" d="M1126.44,443.58l8.74-2.62c-.34,1.84.35,2.83,2.29,2.79q.36,4,.7,8c-7.56,2.83-10.5,10-14.74,15.88-2.07-.22-5.1,1-4.76-2.95.31-3.76-2.19-3.18-4.46-3l.43.17c-.29-3.11,1.2-6.7-2.42-8.91l-.27-.38-.34.12c.78-2,.27-4.75,3-5.78,3.23,4.94,6-.43,9-.42a3.62,3.62,0,0,0,3.06-3.21Z"/><path class="clsWindow-7" d="M1170.94,487.84l12.31-9.36,10.44-5.24c1.35,10.63.52,11.5-28.78,30.16C1164.22,496.71,1168,492.41,1170.94,487.84Z"/><path class="clsWindow-14" d="M1145.88,540.33l-8.52-.6c1.88-5.73,5.56-8.79,9.36-11.17,4.08,1,4.13,3.64,4.65,6l-3.82,5.63.2-.18A4.41,4.41,0,0,1,1145.88,540.33Z"/><path class="clsWindow-4" d="M1196.1,518.86c-6.29,4.44-11.66,11.91-21,6.3C1182.5,524.33,1188.13,517.7,1196.1,518.86Z"/><path class="clsWindow-6" d="M1147.55,540.2l3.82-5.63,14.47-3.54C1162,538.48,1154.53,538.9,1147.55,540.2Z"/><path class="clsWindow-6" d="M1140.76,546.87a3.49,3.49,0,0,1-2.38-3.59l6.44.1v0Z"/><path class="clsWindow-4" d="M1199,515.36c1.23.49,2.6,1.93,1.79,2.57-1.2.94-3.24.8-4.93,1.13C1195.77,516.85,1197.5,516.2,1199,515.36Z"/><path class="clsWindow-6" d="M1145.88,540.33a4.41,4.41,0,0,0,1.87-.31,6,6,0,0,0,.77,2.71l-3.71.62v0Z"/><path class="clsWindow-5" d="M1108.83,494.38a3.11,3.11,0,0,1,3.17,3l-.47.44c-1.83-.21-3.1-1-3-3.06Z"/><path class="clsWindow-4" d="M1129.92,279.85q-.21-2.82-.43-5.62c3.66-1.78,3.39-4.23.64-7.91-.19,3.25-.33,5.65-.46,8.06-7.32,2.06-9.39-.87-5.81-7.07s8.2-11.88,12.37-17.78c4.17,2,7.2,5.1,9.75,10.23-8.42,5.77-4.8,12.88-.44,19.57C1139.7,282.27,1134.81,281,1129.92,279.85Z"/><path class="clsWindow-3" d="M1138.21,244c9.87-2.38,17.74-6.58,25.71.38-1.81,7.68-6.83,11-13.2,12.76C1144.91,254.51,1142.43,249.46,1138.21,244Z"/><path class="clsWindow-5" d="M1153.7,315.06l3.06-9.74,9,2.41-.2-.12c-.79,3.1-4,5.45-2.81,9.15l.19-.28c-6.66,5.49-6.29,14.08-9.3,21.17-3.45.35-5.8-.58-5-4.67C1149.93,326.89,1154,321.58,1153.7,315.06Z"/><path class="clsWindow-13" d="M1081.72,250.13c-.92-3.71-3.78-3.31-6.56-3.09l.08.09c-1.29-2.55-3.53-3.31-6.19-3.25,5.39-4.88,11.94-7.85,18.35-11l3.13,5.59c-.07,2.16-5.4,4.2-.15,6.48Z"/><path class="clsWindow-4" d="M1096.29,237.93c10.35-6.31,22.43-5.44,33.69-8,2.28-.51,2,2.68,1.93,4.55-10.31,0-20.21,2.25-29.91,5.55C1099.4,241,1097.29,241.05,1096.29,237.93Z"/><path class="clsWindow-5" d="M1087.4,232.86c-6.41,3.17-13,6.14-18.35,11l-7.59-.38c11.93-7.72,21.72-13.55,32.27-18.17a13.38,13.38,0,0,0,2.58.58c.23,2.58-2.36,3.44-3.25,5.33Z"/><path class="clsWindow-4" d="M1129.36,249c-2.13,7.61-8.79,11.71-12.92,18.09-2.31-2.85-1.39-5.35-1.51-7.71C1118.65,254.39,1123.7,251.26,1129.36,249Z"/><path class="clsWindow-13" d="M1138.73,232.29c6.09,1,12.71-2.24,18.34,2.34C1150.9,234.24,1144.29,237.44,1138.73,232.29Z"/><path class="clsWindow-4" d="M1090.38,244.93c-5.25-2.28.08-4.32.15-6.48C1095.25,240.72,1093.16,242.83,1090.38,244.93Z"/><path class="clsWindow-1" d="M1033.53,289.19c-.49-2.07,1-2.26,2.42-2.56Z"/><path class="clsWindow-4" d="M1136,250c-1.72-.15-3.09-.73-3.32-2.71C1134.9,246.76,1136.08,247.58,1136,250Z"/><path class="clsWindow-5" d="M1237.58,467.34c.19-1.8.37-3.59.55-5.39,4.18-2.62,8.29-4,11.54,1.23a4.47,4.47,0,0,1-.69,5.58C1244.7,473.11,1241,471.32,1237.58,467.34Z"/><path class="clsWindow-4" d="M1298.21,420.21c-3.87,7.1-4.12,15.91-10.33,21.89-.11.11-.86-.26-1.16-.56a5.5,5.5,0,0,1-.72-1.28c2.25-5.57,4.75-11.05,6.65-16.73C1293.69,420.42,1295.42,419.75,1298.21,420.21Z"/><path class="clsWindow-4" d="M1274.58,383c-.48-2.21.91-3.24,2.59-4.08C1277.47,381,1277,382.62,1274.58,383Z"/><path class="clsWindow-1" d="M996.47,434.33c-4.52,2.64-.74,9-6.14,12.18-6-4.43-14.17,1.29-21-3.47a13.6,13.6,0,0,1,.36-2.36c6.3-7.46,8.84-16.61,11.49-25.71L992,404c3.84.36,5.86-3.44,10.13-4.47C1002,411.74,995.08,422.46,996.47,434.33Z"/><path class="clsWindow-5" d="M1000.68,449.19c-4.79-3.88-3.1-9.25-3.27-14.19,4.93-4.1,8.47-8,7.81-15.79-.79-9.29,1-18.88,6.68-27.06l-.33-.16,6,6.36c-1.4,8.51-5.89,17,5.17,23.78,3.53,2.18,4.11,10.65-2.2,14.9l-3.89,3.35C1010.34,441.5,1005.94,446.11,1000.68,449.19Z"/><path class="clsWindow-8" d="M948.4,434.76c-3-.66-5-5.59-9.49-1.36,2-14,8.73-25.62,12.53-38.21,7.21-1.38,13.33,2.94,20.09,4,.52.08.54,3.33.79,5.1l.15-.22c-2.26-.15-3.47.76-3.19,3.17l.27-.15-7.75-4.58c-1.47,2.93-4.32,4.57-4.52,7.84l.26-.19L952,408.82c2.37,5.29,3,10.63,8.33,13.52,3.58,2,3.54,4.25.68,6.84-3.79-1.79-3.79-1.79-3.17,5.7l.34.27-3.87-.66C952.22,432,950.28,432.78,948.4,434.76Z"/><path class="clsWindow-15" d="M992,404,981.23,415c-14.78,8.59-18.63,7.81-23.69-4.81l-.26.19c4.34-.16,9,.8,12.27-3.26l-.27.15c2.05-.07,3.51-.73,3.19-3.17l-.15.22c6.82-.29,9.64-6.62,14.61-9.71l6.74,4C993.12,400.42,992.56,402.23,992,404Z"/><path class="clsWindow-5" d="M1014.64,377c8.68,3.21,14.24,8.41,11.88,18.66-5.45.71-9.71-3.5-14.95-3.65l.33.16C1010.1,386.61,1010.39,381.44,1014.64,377Z"/><path class="clsWindow-18" d="M993.67,398.62l-6.74-4,13.77-15.46C1005.36,389.56,998.88,393.86,993.67,398.62Z"/><path class="clsWindow-15" d="M1020.82,348.94l1.92-2.46,4,4.47c-6.18,5.72-11.72,11.93-15.32,19.67-3.26-7.78.64-13,6.27-17.61A4.25,4.25,0,0,0,1020.82,348.94Z"/><path class="clsWindow-7" d="M1036.15,343.67c-3-5.16-7.09-3.86-11.29-1.9l-2.12,4.71,4,4.47c-6.18,5.72-11.72,11.93-15.32,19.67l5.11.5c4.66-5.48,6.33-13.34,13.42-16.89l-.17-3.87A16.79,16.79,0,0,0,1036.15,343.67Z"/><path class="clsWindow-4" d="M994.24,370.28c-1.08-6.09,1.93-9.89,5.75-13.37C999.73,361.83,1000.06,367,994.24,370.28Z"/><path class="clsWindow-8" d="M945.06,386.17l3.65.43C947.17,389.28,946,388.57,945.06,386.17Z"/><path class="clsWindow-7" d="M1020.82,348.94a4.25,4.25,0,0,1-3.15,4.07Z"/><path class="clsWindow-2" d="M999.55,350.16l-1.44,1.2c.41-.48.81-1,1.21-1.45Z"/><path class="clsWindow-2" d="M991.57,352.68a4.63,4.63,0,0,1,.37-2.46,8.65,8.65,0,0,1,.5,1.82C992.46,352.23,991.88,352.47,991.57,352.68Z"/><path class="clsWindow-7" d="M1167.89,301.86l24-18.36c.35,2.61-.83,5.43,5.21,7.25l11.36,21.91Z"/><path class="clsWindow-4" d="M1153.68,337.65c3-7.09,2.64-15.68,9.3-21.17q0,7.51,0,15c-3.36,1-3.08,3.88-3.34,6.47-5,4.14-2.2,10-3.26,15a19.44,19.44,0,0,1-2.64-.12Z"/><path class="clsWindow-4" d="M1162.79,316.76c-1.18-3.7,2-6.05,2.81-9.15l3.5.06C1168.47,311.72,1167.71,315.69,1162.79,316.76Z"/><path class="clsWindow-4" d="M1169,334.8c-2.9,1.93-3.58,1.56-6.11-3.35C1165.92,330.71,1167.39,332.86,1169,334.8Z"/><path class="clsWindow-1" d="M1096.31,225.91a13.38,13.38,0,0,1-2.58-.58c-.08-1.76-4.23-3.39-.18-5.3C1096.08,221.24,1096.12,223.61,1096.31,225.91Z"/><path class="clsWindow-6" d="M1026.89,271.34c-2.66-1-3.09-3-2.44-5.51C1027.39,266.73,1027,269.11,1026.89,271.34Z"/><path class="clsWindow-13" d="M1075.16,247c-1,1.34-1.93,3-4.1,1.57.85-2.12,2.76-1.13,4.18-1.48Z"/><path class="clsWindow-8" d="M1108.48,531.29l6.87,1.24c-3.83,6.85-6,14.08-8.06,22.15-9.1-.72-15.92,11.16-26.07,3.5l.11.3c.13-2.76,1-5.88-3.27-6.41l.31.34a3.27,3.27,0,0,0-3.35-3.34l.25.29c.07-2.23-.68-3.65-3.25-3.25l.28.14c-.57-9.49,7.53,1.15,8.46-3.54,1.52-7.63,6.92-5.57,11.68-5.21C1098.81,538,1104.2,536.11,1108.48,531.29Z"/><path class="clsWindow-8" d="M1086.55,545.59c1.83-1.78,6.18-.79,6-5C1088.68,539.94,1087.24,542.48,1086.55,545.59Z"/><path class="clsWindow-4" d="M1108.48,531.29c-4.28,4.82-9.67,6.69-16,6.21-4.76-.36-10.16-2.42-11.68,5.21-.93,4.69-9-6-8.46,3.54l-3.22-.21.22.21c-.17-2-.89-3.4-3.21-3.23l.15.19c0-6.85-7.08-9-9.48-14.28l.27-3.71c9,6.65,18.63,10.52,29.79,8,1.07-3-.44-4.34-2-5.61-.42-2.75-2.09-5.61.77-8.05,6.59.18,6.22,4.54,5.46,9.11.69,3.53,2.28,5.24,6.17,3.69,3.68-1.46,7.52-2.53,11.28-3.77C1108.51,529.49,1108.5,530.39,1108.48,531.29Z"/><path class="clsWindow-8" d="M1069.08,546l3.22.21-.28-.14c.11,2.06.88,3.45,3.25,3.25l-.25-.29c.22,2,.8,3.66,3.35,3.34l-.31-.34c-.64,3,.39,5.19,3.27,6.41l-.11-.3c-1,6.49-7.33,6.91-10.29,10.75-3.76-2.71-2.13-5.34-2.23-7.68,3.58-2.94,5.7-5.92.32-9.17l.21.16Z"/><path class="clsWindow-18" d="M1144.81,543.35l3.71-.62c2.63-.07,4.77.59,5.24,3.64l.15-.23c-8.06,3.59,4.65,9.71-4.48,14.91-2.13,1-5-.88-4.52-6.09.28-3.23,1.19-5.67-3.35-5.46l-.33-.08c-.12-.86-.27-1.71-.47-2.55Z"/><path class="clsWindow-1" d="M1069,552.08c5.38,3.25,3.26,6.23-.32,9.17l-3.08.52-1.4.06-1.34-.42C1063.09,557.09,1070.13,557.26,1069,552.08Z"/><path class="clsWindow-16" d="M1310.72,349.82c-8.48-9.84-7.61-22.76-10.93-34.3,7,10.25,10,21.88,11.07,34.14Z"/><path class="clsWindow-8" d="M1289.72,298.3c2.53,1.08,2.82,2.12-.06,3.1Z"/><path class="clsWindow-8" d="M1286.65,295.28c2.42-.3,3,1.24,3.2,3.18C1287.64,298.55,1287,297,1286.65,295.28Z"/><path class="clsWindow-5" d="M996.35,449.78l3.4,6.11.07-.19c-4.1-.14-10.72-2.86-6.1,5.95-.72,3.18-1.68,5.2-5.8,3.43-4.4-1.89-7.12-6.85-12.55-6.67l.23.42.12-6.45-.26.29C981.69,446.4,989.18,449.22,996.35,449.78Z"/><path class="clsWindow-4" d="M969.74,440.68a13.6,13.6,0,0,0-.36,2.36l-4.88,5.24C964.79,440.82,964.79,440.82,969.74,440.68Z"/><path class="clsWindow-3" d="M957.83,434.88c-.62-7.49-.62-7.49,3.17-5.7C960.52,431.4,960.67,434,957.83,434.88Z"/><path class="clsWindow-5" d="M975.72,452.38c-2.2.77-4.43,1.9-6.65-1.11,2.76-1.85,5.2-4.41,6.39,1.4Z"/><path class="clsWindow-3" d="M954.3,434.49l3.87.66c-.65,1.17-1.35,3.36-1.93,3.33C953.75,438.35,954.43,436.12,954.3,434.49Z"/><path class="clsWindow-13" d="M1141.56,549.5c4.54-.21,3.63,2.23,3.35,5.46-.45,5.21,2.39,7.06,4.52,6.09,9.13-5.2-3.58-11.32,4.48-14.91,3.48,4.69,9.44,8.61,3.88,16.93l-10.12,4.64C1141,563.18,1141.1,556.41,1141.56,549.5Z"/><path class="clsWindow-1" d="M1144.53,570.4a19.17,19.17,0,0,0-2.51-.11c-.54-1.17-.13-2,1.09-1.85C1143.67,568.54,1144.06,569.72,1144.53,570.4Z"/><path class="clsWindow-3" d="M964,368.56a1.34,1.34,0,0,1,1.69,0c.13,1.71-.73,2.49-2.39,2.49A8.51,8.51,0,0,1,964,368.56Z"/><path class="clsWindow-16" d="M1138.59,319.72l5.57-3.55c3.21,4.1,3.74,7.95,2.22,13.47-1.46,5.31-6.81,11.14-1.47,17.28-.18,5.28-1.8,7.72-6.82,3.44-5.78-5.95-7.74-12.05-1.29-19C1139.88,328.08,1142,324.22,1138.59,319.72Z"/><path class="clsWindow-16" d="M1135.85,316.44a3.68,3.68,0,0,1,2.68,3.22A3,3,0,0,1,1135.85,316.44Z"/><path class="clsWindow-4" d="M1179.77,546.71c-.57,1.43-1.77,2.28-3.13,1.79a2.44,2.44,0,0,1-1.25-3.37,2.66,2.66,0,0,1,2.18-1.12C1179.05,544.1,1180.12,544.92,1179.77,546.71Z"/><path class="clsWindow-4" d="M1170.44,550.68c-.71.42-1.4,1.11-2.15,1.2-1.66.19-2.7-.67-2.22-2.43.18-.64,1.13-1.59,1.61-1.53A3.11,3.11,0,0,1,1170.44,550.68Z"/><path class="clsWindow-12" d="M1276.06,356.22c-5.79,2.6-13,.61-16.55,7.63-.49,3.63-3.16,4.28-6.16,4.47l.21-3.25-11.44-.43c-1.38,3.18.18,7.33-3.21,9.86-.23,2.83-1.8,5.59-.51,8.52,5.73-3.19,15-2.09,15-12.27,4.7,2.3,9.54,6.56,13.44-1.28.17-.32,3.54.95,5.42,1.48C1278.26,367.69,1278.31,362.79,1276.06,356.22Z"/><path class="clsWindow-4" d="M1259.51,363.85c-.49,3.63-3.16,4.28-6.16,4.47l.21-3.25Z"/><path class="clsWindow-13" d="M1211.14,219.73c-1,7.22,1.6,11.69,9.3,12.34-.08,4.87,5,5.56,7,8.73-4.21,2-8.42,3.92-13.27,3.31-3.69-4.38-6.45-9.69-12.11-12.09l-.07-.09.14-4c2.19.7,4.29,1.1,5.3-1.76l.91-5.66A4,4,0,0,1,1211.14,219.73Z"/><path class="clsWindow-8" d="M1161.14,205.5l10.82-1.05c-11.52-3.5-23-6.44-33.55,2.58,3.4.13,6.8.14,10.18.44,1.91.17,4,.67,2.23,3.43-4.4,3.08-14-4.11-13.51,6.93-5.36.7-2.84-8.28-9-6.05-4.33,5.51.52,7.74,3.77,10.54l12.26.83,7-.71,17.11.25c.38-9,10.24,1.2,12.14-8.12C1172.17,216.5,1168.29,209.14,1161.14,205.5Z"/><path class="clsWindow-13" d="M1202.11,232c-1.1,1.79-2.22,3.47-4.59,1l4.52-1.06Z"/><path class="clsWindow-4" d="M1223.83,365.4a6,6,0,0,1-.87,2.32l-6.56,7.91c-2.88-1.73-4.28-5.73-8.38-4.59,7.67-4.63,5.51-17.5,16.89-19.61C1224.55,356.16,1224.19,360.78,1223.83,365.4Z"/><path class="clsWindow-1" d="M1244.6,340.72a3.91,3.91,0,0,1-3.25,3.33c.07-1.16,0-3.26,0-3.26Z"/><path class="clsWindow-5" d="M1084.49,402.4c.6-7.16,10-9.57,9.39-17.4l-3.56-2.6c-1.9,4-5.66,3.35-9,3.72-1.58,4.5-6.48,5.57-9.21,8.89l8.27,4c-2.11,9.62-11.59,1.88-15.29,6.87q3.5-5.42,7-10.83l-5.92-2.93h0c-1.77.07-2.6-1.08-3.24-2.49l-5.18-4.28c-1.43,11.92-10,9.85-17.71,8.66-1.16,2.65-1,5.46-3.54,6.85.11,6,4,9.58,8.52,12.63,1.71,3.93,4.35,3,6.66.93,2-1.84,3-5.12,6.76-3.9,9,8,18.81,7.3,29,2.8C1084.58,410.16,1078.75,407.81,1084.49,402.4Z"/><path class="clsWindow-4" d="M1062.87,389.62l-5.18-4.28-1.28-5.17c1-3.16.63-6.31-.07-9.46q.26-5.9.52-11.79c2.25-1.63,7-.79,5.77-5.84,3.67,1,3.42,4.13,3.74,6.94-6.06,5.38-9.26,17.06-5.33,21.75,5.14,6.15,11.29,4.57,17.26.89l3,3.36c-1.53,4.59-6.5,5.65-9.25,9l0,0-5.92-2.93h0C1065.76,390.32,1064.52,389.71,1062.87,389.62Z"/><path class="clsWindow-16" d="M1096.51,410c1.14.59,2.39,1.09,2.1,2.76l-11.45.4.22.17c-2.8-3.15-8.63-5.5-2.89-10.91l8.12,5.36Z"/><path class="clsWindow-3" d="M1072.09,395l8.27,4c-2.11,9.62-11.59,1.88-15.29,6.87q3.5-5.42,7-10.83Z"/><path class="clsWindow-8" d="M1067.89,483c-.73-5.09,3-3.35,5.5-4.79-2.87-1.88-9.79-.55-6.44-7a11.26,11.26,0,0,1-1.42-.94c-2.14.45-4.39.71-5.6,2.93,4.64,10,4.23,13.68-5.12,15.55-5.68,1.13-.78,5.17-3.61,5.8-4.29-.34-6.13,1.89-6.23,5.94,0,1.07,0,2.14,0,3.21l3,6.14c9.12-2.22,18.31,6.67,27.4-.14,0-.78.06-1.57.09-2.35l-13.24-.89c5.75-2,10.25-6.11,15.74-8.32.17.91.36,1.81.59,2.7l3.09.11c.07-1,.14-2,.22-3l-.09-3.22c4.44-8.27,4.44-8.27,16.57-10.43,1.59.79,1.61,2.33,1.77,3.78s.25,2.87.4,4.6c2.91-2.91-2.14-9.36,4.91-9.8l.2-8.57C1094.35,483.51,1080.67,481,1067.89,483Z"/><path class="clsWindow-8" d="M1056.27,498.68c-4.26-.52-7.12.52-7.33,4.73,0,.85,2.09,2.69,3,2.55C1056.11,505.3,1055.78,501.84,1056.27,498.68Z"/><path class="clsWindow-5" d="M1047.77,509.92c9.18-2.38,18.43,6.67,27.57-.18,5.49-1.45,5.47,2.7,6.2,6.09-.3,2.28-1.9,3.37-3.82,4.15C1067.21,518.17,1056.68,516.46,1047.77,509.92Z"/><path class="clsWindow-5" d="M1084.82,527.6c1.56,1.27,3.07,2.57,2,5.61-11.16,2.53-20.82-1.34-29.79-8l.16-3.28-.21.21c4.44-.81,7.88,2.49,12,3C1073.68,529.69,1079.39,527.75,1084.82,527.6Z"/><path class="clsWindow-16" d="M1045,503.74l3.09,6.42c-2.22-.34-4.58-.54-5.69-2.91C1041.17,504.65,1043.43,504.41,1045,503.74Z"/><path class="clsWindow-5" d="M1057.19,521.94l-1.42-1.23c.28.08.68.07.8.26a4.45,4.45,0,0,1,.41,1.18Z"/><path class="clsWindow-4" d="M1202,401.12c-.11,3.3-.4,6.5-4.47,7.67-2-4.92-.5-7.36,4.59-7.54Z"/><path class="clsWindow-4" d="M1211.11,401.1c-.25.41-.55,1.2-.73,1.17-.89-.13-.59-.58.85-1Z"/><path class="clsWindow-4" d="M1202.13,401.25l.66-.69-.78.56Z"/><path class="clsWindow-19" d="M1217.35,452.79c-.9-5.05,2-7.61,6.15-9.26C1223.23,447.8,1221.5,451.1,1217.35,452.79Z"/><path class="clsWindow-8" d="M1108.59,213.74c6.22.89,15.81-4.1,15.2,8.71l-13.42,3.35C1110.55,221.4,1111.83,217,1108.59,213.74Z"/><path class="clsWindow-7" d="M1208.39,220.5l-.91,5.66a61.35,61.35,0,0,0-17.72-7.06l3-2.84C1198.5,215.75,1203,219.65,1208.39,220.5Z"/><path class="clsWindow-8" d="M1192.77,216.26l-3,2.84c-2.29,0-4.74-1.77-3.88-3.3C1187.81,212.39,1190.59,213.74,1192.77,216.26Z"/><path class="clsWindow-16" d="M1050.4,445.41c-1.78-3.62-2.42-7.93-8.49-7.52-.75,3.25-5.32,6.07-1.2,10.09C1043.94,451.13,1046.9,449.1,1050.4,445.41Z"/><path class="clsWindow-5" d="M1027.4,398c4-2.42.38-8.86,6.46-11.13,2.88,3.7,2.08,7.92,1.61,12.06-2.68,1.42-5.25,3.31-8.57,2l.14.18Z"/><path class="clsWindow-10" d="M1078.15,506.69c.12-1.93.25-3.87.37-5.81l3.09.11,2.76,2.51Z"/><path class="clsWindow-10" d="M1081.74,494.74a13,13,0,0,1,1,2.29c.06.2-.62.61-1,.93Z"/><path class="clsWindow-3" d="M1295.39,290.18l.6-4.51c2.21,3,5.29,5.63,5.36,9.88C1297,296.2,1295.49,293.94,1295.39,290.18Z"/><path class="clsWindow-8" d="M1250.59,243.43c3,1.25,4.66,3.77,5.92,6.61l5.5.15c.21-5.57-4.61-6.93-8-9.5a7.08,7.08,0,0,0-5.56-3.72c-4.87-7.26-10.4-13.42-21.35-12.16-1.52,2.29-1.92,7.08-6.67,7.43,0,4.71,5,5.43,7,8.56,4.13-.57,6.38,3.7,10.19,3.95,3.37,3.76,6.49,7.88,12.09,8.45.57,1.73,1.56,2.94,3.58,2.86h0l.12,3c3.33-.42,2.7-3.34,3.42-5.41l-.39-3.61C1252.67,249.52,1244,253.33,1250.59,243.43Z"/><path class="clsWindow-4" d="M1072.08,361.5l-3,.21a2.83,2.83,0,0,0-.94-2.17A3.4,3.4,0,0,1,1072.08,361.5Z"/><path class="clsWindow-4" d="M1309,442.77c-.74.86-1.44,2.46-2.55,2.81-2.1.67-3.8-.53-3.44-2.84.15-.93,1.78-2,2.91-2.3S1308.53,440.78,1309,442.77Z"/><path class="clsWindow-4" d="M1312.84,431.61c.41,1.9-1,2.38-2.3,2.81-1.81.58-2.56-.56-2.7-2.05a2.72,2.72,0,0,1,2.19-3.06C1311.84,428.88,1312.41,430.22,1312.84,431.61Z"/><path class="clsWindow-5" d="M1087.16,413.14l11.45-.4.82,3.44C1095.12,416,1090.46,417.34,1087.16,413.14Z"/><path class="clsWindow-1" d="M1026.81,528.26c0-3.12,0-6.25,0-9.37l8.89.4C1032.54,522.68,1031.41,527.14,1026.81,528.26Z"/><path class="clsWindow-4" d="M1318.16,372.56c1.24.3,1.8,2,1.45,4-.24,1.4-.94,2.73-2.72,2.33-2.17-.48-3-2.07-2.58-4.16C1314.59,373.26,1315.34,372.08,1318.16,372.56Z"/><path class="clsWindow-4" d="M1319.26,389.92c-1.73-2.85-6-3.51-2.6-6C1318.38,382.68,1319.7,385.14,1319.26,389.92Z"/><path class="clsWindow-4" d="M1081.3,376.92c-.35,1.48-1,2.72-2.67,3C1078.58,378.08,1079.72,377.31,1081.3,376.92Z"/><path class="clsWindow-4" d="M1084.3,373.83a3.85,3.85,0,0,1-3.15,3.24C1081.6,375.41,1082.25,373.93,1084.3,373.83Z"/><path class="clsWindow-5" d="M1117.26,437.09c-2.82,1.17-5,4.27-8.62,3.07-.47-3.8,2.62-4.79,5-6.29.4-3.31-3.65-2.58-4.33-4.86,6.8,1,1.15-11.43,10.41-8.4C1120.33,426,1120.16,431.68,1117.26,437.09Z"/><path class="clsWindow-1" d="M1029.76,334.43a4,4,0,0,1-3.31,3.08C1027.05,335.94,1027.87,334.61,1029.76,334.43Z"/><path class="clsWindow-4" d="M1283.19,282.93c-1.33-.46-2.33-1.51-1.71-3.1a2.56,2.56,0,0,1,3.5-1.46,3.2,3.2,0,0,1,1.25,2.47C1286.28,282.62,1285.05,283.23,1283.19,282.93Z"/><path class="clsWindow-8" d="M948.5,455.66c-.48-1.91-.43-3.67,1.43-5,2.06,2.56,1.63,4.17-1.71,4.78Z"/><path class="clsWindow-16" d="M1105.76,404.37c-2.56,5.1-5.94,3.39-9.38,1.13l-4.79-5.5C1099.63,392.11,1102,400.37,1105.76,404.37Z"/><path class="clsWindow-5" d="M1096.51,410l-3.9-2.22,3.34-.58A15.6,15.6,0,0,0,1096.51,410Z"/><path class="clsWindow-8" d="M1144.91,346.92c-5.34-6.14,0-12,1.47-17.28,1.52-5.52,1-9.37-2.22-13.47,2.64-5,6.52.6,9.54-1.11.31,6.52-3.77,11.83-5,17.92-.82,4.09,1.53,5,5,4.67l.08,15.16C1146,358.08,1148.76,347.53,1144.91,346.92Z"/><path class="clsWindow-4" d="M1246.35,238.81c-1.06,4.05-4.1,5-7.78,5C1238.53,238.09,1241.27,236.64,1246.35,238.81Z"/><path class="clsWindow-4" d="M1235.1,233.34c-.21,2-1,3.23-2.52,3.48a2.72,2.72,0,0,1-2.3-1c-.71-1.38-.28-3.1,1.21-3.47C1232.57,232,1233.94,233,1235.1,233.34Z"/><path class="clsWindow-4" d="M975.37,458.41c5.43-.18,8.15,4.78,12.55,6.67,4.12,1.77,5.08-.25,5.8-3.43l6.1,2.77.08.05c-5,4,.91,8.21-.29,12.28l-.32.3c-4.72-.63-6.95-6-11.83-6.3C985.47,464.65,976.32,465.54,975.37,458.41Z"/><path class="clsWindow-1" d="M1054,537.1c.11-1.29.53-2.36,2-2.39.23,0,.75.8.65,1-.54,1.42-1.64,1.59-2.94,1.07Z"/><path class="clsWindow-8" d="M999.9,464.47c2.06,0,3,1,2.85,3.07l2.65,3-.6,6.43-5.19-.22C1000.81,472.68,994.85,468.44,999.9,464.47Z"/><path class="clsWindow-1" d="M1029.76,350.36a16.79,16.79,0,0,0,6.39-6.69l7.24-4.59c2,2.52.62,6.42,4.15,7.7,2,3.25,5.72,5.34,6.69,9.36-7.89-3.22-16-4.35-24.3-1.91C1029.88,352.94,1029.82,351.65,1029.76,350.36Z"/><path class="clsWindow-1" d="M1057.13,359.11c-2.49.26-3.46-1-3.32-3.36C1056.44,355.36,1057.77,356.26,1057.13,359.11Z"/><path class="clsWindow-3" d="M1059.49,549c.39-1.52,1.72-2.76,2.71-1.52,1.26,1.59-.9,1.69-1.93,2.11Z"/><path class="clsWindow-5" d="M1066.09,543c2.32-.17,3,1.25,3.21,3.23C1067.14,546.25,1066,545.21,1066.09,543Z"/><path class="clsWindow-7" d="M1250.59,243.43c3.05,1.25,4.67,3.79,5.93,6.64C1252.69,249.51,1243.94,253.35,1250.59,243.43Z"/><path class="clsWindow-3" d="M1124.16,438.43a2.69,2.69,0,0,0,2.34-1.22c5.78,2.18.27,4.25-.06,6.37l.23-.33-3.06,3.21c-3,0-5.76,5.36-9,.42Z"/><path class="clsWindow-8" d="M1108.48,494.73c0,2.08,1.22,2.85,3,3.06-.38,6.21-5.25,7-10.36,9C1101.55,500.82,1104.13,497.25,1108.48,494.73Z"/><path class="clsWindow-4" d="M1078.15,506.69l6.22-3.19.3.19.6,3.61a5.2,5.2,0,0,0-.25,2.38c-.81,2,.31,2.8,2,3.25.16,1,.32,2.06.47,3.09l-6-.19c-.73-3.39-.71-7.54-6.2-6.09,0-.78.06-1.57.09-2.35A23.09,23.09,0,0,1,1078.15,506.69Z"/><path class="clsWindow-10" d="M1087,512.93c-1.69-.45-2.81-1.25-2-3.25C1086.46,510.29,1087.34,511.24,1087,512.93Z"/><path class="clsWindow-10" d="M1085.27,507.3l-.6-3.61a3.88,3.88,0,0,1,2.56.16l.08.08A3.28,3.28,0,0,1,1085.27,507.3Z"/><path class="clsWindow-8" d="M1108.67,458.39c-1.24,4.6-5,5.74-9,6.58l-.77-.87c2.34-3.62,5.23-6.26,10-5.52Z"/><path class="clsWindow-1" d="M1108.53,452.44l3.08.22c.78-2,.27-4.75,3-5.78l9.54-8.45.26,0-7.16-1.31c-2.82,1.17-5,4.27-8.61,3.07l-3.75.32a5.34,5.34,0,0,1,.89,2.76C1109.41,445.5,1107.07,449.54,1108.53,452.44Z"/><path class="clsWindow-1" d="M1225.92,503.92c-.51.51,2-2.05,3-3.08-2.3-10.08-8.37-15.56-19-15.56-3.2,0-6.46-1.27-6.94-4.19-1.73-10.64-8.29-12.61-16.93-9.92-1.72-3.08.39-4.34.91-6h0l3-1.08h0c2.33.12,4.72.4,5.79-2.45,2.11-11.56-4.1-24.37-14.5-31.29-3.93-2.62-11.71,3.16-12.8,4.23l.13,3,5.46.85c.43.69.87,1.37,1.31,2.06h0c1.58,4.09,2.46,8.5,5.46,11.93h0c.27,2-1.36,12.9-6.19,11.9,1.51,5.52,9,7.41,8.54,14.15l10.44-5.24c1.35,10.63.52,11.5-28.78,30.16-.69-6.69,3.07-11,6-15.56-2.42.18-6.08,1.41-6.94-.76-3.48-8.87-12.17-13.8-16-22.26l3-3.44a2.89,2.89,0,0,0,2.65-2.77,3.31,3.31,0,0,0,2.5-3.3q1.94-4.35,3.89-8.68l0,.22c.37-1.87.74-3.73,1.41-7.07h-25l-.07.06.07-.06c-.09-3.15-2.1-5.44-3.58-8-2.3.4-5.17-.55-6.29,2.65-2.15.53-2.9,1.82-2.14,3.94a2.66,2.66,0,0,0,2.08-1.19c5.78,2.18.27,4.25-.06,6.37l8.74-2.62,0-.06,0,.06c-.34,1.84.35,2.83,2.29,2.79q.36,4,.7,8c-7.56,2.83-10.5,10-14.74,15.88-2.07-.22-5.1,1-4.76-2.95.29-3.53-1.9-3.23-4.05-3.07-.21-3.06,1.15-6.55-2.4-8.71l.12-.84-3.34,6.26c2.59-.37,3.2,2.69,5.19,3.38-1.88,4.87-2.4,10.67-8.6,12.6-.06,2.86-.13,5.71-.2,8.57,1.56,3.71,3.7,7.24,3.44,11.49a3.11,3.11,0,0,1,3.17,3c4.86,2.8,1.68,9.22,5.59,12.46,4,1.76,6.19,4.79,6.25,9.24l1.85,2.74,3.85.25c8.63-6.61,16-14.83,25.45-20.06,3.38,1.44,5.33,3.4,5,7.29-10.54,10.66-23.37,19.67-30.55,33.74,2.81,5.25,5.91.68,8.89.27l6.44.1c.35-1,.71-2,1.06-3l-8.52-.6c1.88-5.73,5.56-8.79,9.36-11.17,4.08,1,4.13,3.64,4.65,6l14.47-3.54c2-3.76,5.93-4.33,9.29-5.87,7.3-.82,12.9-7.32,20.75-6.32,0-2,1.67-2.67,3.13-3.48,1.59-2.41,4-2.37,6.46-2.11l12-6.95c.6-1.47,1.39-1.66,2.4-.34l3.5.42h0c1.38,2.49,2.56,5.14,5.34,6.41C1231.08,508.77,1226.26,507.08,1225.92,503.92Z"/><path class="clsWindow-8" d="M1099.65,465c-1,1.85-2.41,2.46-4.48,1.4.31-2.29,2.42-1.63,3.71-2.27Z"/><polygon class="clsWindow-3" points="1112.22 452.92 1112.34 452.08 1111.95 452.54 1112.22 452.92"/><path class="clsWindow-1" d="M1123.61,446.46l3.06-3.21A3.62,3.62,0,0,1,1123.61,446.46Z"/><path class="clsWindow-12" d="M1129.67,274.38c.13-2.41.27-4.81.46-8.06,2.75,3.68,3,6.13-.64,7.91Z"/><path class="clsWindow-8" d="M1056.34,370.71c.7,3.15,1.11,6.3.07,9.46-3.05-3.26-10.37,1.46-11.17-6.27C1047.45,368.29,1052.52,371.51,1056.34,370.71Z"/><path class="clsWindow-8" d="M1084.27,428.26c-9.11-7.89-19.29-11-32.26-6.38l6.37-11.37c-3.74-1.22-4.74,2.06-6.76,3.9-2.31,2.11-4.95,3-6.66-.93-4.56-3.05-8.41-6.58-8.52-12.63a2.55,2.55,0,0,1-1-2c-2.64,1.39-5.17,3.24-8.42,2.09.12-1,.24-2,.35-3a5.43,5.43,0,0,1-.88-2.32c-5.45.71-9.71-3.5-14.95-3.65l6,6.36c-1.4,8.51-5.89,17,5.17,23.78,3.53,2.18,4.11,10.65-2.2,14.9l-3.89,3.35c-6.34,1.12-10.74,5.73-16,8.81l-4.33.59,3.4,6.11c4.2-.19,5.34-6,11.31-5.49,1.57,10.58.93,21.29.17,32l5.86.59c-.09-2.4,1.27-3.51,3.46-3.87-4.74-6.13-6.72-13-5.26-20.67-1.07-6.89-2.15-13.79,5.55-18a4.76,4.76,0,0,0,2.61-.62c3.09-1.39,6.9-1.17,9.29-4.13h0c4.25-.91,8.71-2,11.59-5.2,3.92-4.4,6.52-.49,9.61.64-.4-10,6.81-8,12.24-6.79,6.26,1.37,12.21,4.21,18.29,6.41A2.9,2.9,0,0,0,1084.27,428.26Z"/><path class="clsWindow-13" d="M1047.33,334.59c-5.92-11.44-12-2.5-18-.12l.41,0a3.94,3.94,0,0,1-3.31,3.08l-2.84,3h0c-3.58,1.52-5.56,6.88-11.2,3.53-4.82-2.85-3-6.4-2.62-10.07-6,3.74-3.47,12.91-10.24,16.18l-1.44,1.2c.41-.48.81-1,1.21-1.45,2-5.67-3-6.75-6-9.14-2.5.07-4.78.51-5.64,3.35,3.08.88,3.29,3.76,4.26,6.1a8.65,8.65,0,0,1,.5,1.82c0,.19-.56.43-.87.64l-13.71,33.16c-3.44-6.9-9.29-5.58-14.59-6.11-2.77,3.61-1.64,9.89-7.59,11.39-1.55-2-1-3.74.1-5.51l-6.88,1-.19,0c-1.54,2.68-2.7,2-3.65-.43a5,5,0,0,0-2-1c-1.12,2.55-2.24,5.11-3.35,7.66l5.43-.59,6.35,3c7.21-1.38,13.33,2.94,20.09,4,.5.08.53,3.07.76,4.88-2-.08-3.16.76-3,2.85l-7.47-4.41c-1.43,2.85-4.17,4.49-4.49,7.6L952,408.82c2.37,5.29,3,10.63,8.33,13.52,3.58,2,3.54,4.25.68,6.84-.48,2.22-.33,4.79-3.17,5.7l.34.27c-.65,1.17-1.35,3.36-1.93,3.33-2.49-.13-1.81-2.36-1.94-4-2.08-2.49-4-1.71-5.9.27.38,1.32.75,2.65,1.16,4.1-3,3-7.72-5.2-10.15,1.43l8.28,4a40.55,40.55,0,0,1,12.38,7c2.52,6.89-2.9,11.13-4.72,16.44h1l1-.17c2.64.18,3.32-2.52,5.17-3.5,2.45-6.47,7.1-7.52,13.08-5.3l.12-6.4c6.18-5.93,13.56-3.2,20.63-2.65l4.33-.59c-4.79-3.88-3.1-9.25-3.27-14.19,4.93-4.1,8.47-8,7.81-15.79-.79-9.29,1-18.88,6.68-27.06-1.8-5.54-1.51-10.71,2.74-15.17.62-2,1.25-3.9,1.87-5.86l-5.11-.5c-3.26-7.78.64-13,6.27-17.61l3.15-4.07,1.92-2.46,2.12-4.71h0c4.2-2,8.28-3.26,11.29,1.9l7.24-4.59c2,2.52.62,6.42,4.15,7.7ZM969.07,451.27c2.73-1.83,5.15-4.34,6.35,1.22C973.32,453.24,971.19,454.15,969.07,451.27Zm33.06-51.71c-.18,12.18-7,22.9-5.66,34.77-4.52,2.64-.74,9-6.14,12.18-6-4.43-14.17,1.29-21-3.47l-4.88,5.24c.29-7.46.29-7.46,5.24-7.6,6.3-7.46,8.84-16.61,11.49-25.71-14.71,8.55-18.6,7.82-23.61-4.63,4.18-.1,8.6.68,11.8-3.11,1.91-.09,3.25-.75,3.06-3,6.7-.39,9.52-6.63,14.45-9.7l13.77-15.46c4.66,10.44-1.82,14.74-7,19.5-.55,1.8-1.11,3.61-1.67,5.41C995.84,404.39,997.86,400.59,1002.13,399.56Z"/><path class="clsWindow-4" d="M1086.55,545.59c.69-3.11,2.13-5.65,6-5C1092.73,544.8,1088.38,543.81,1086.55,545.59Z"/><path class="clsWindow-1" d="M1081.33,558.48c-2.88-1.22-3.91-3.39-3.27-6.41C1082.3,552.6,1081.46,555.72,1081.33,558.48Z"/><path class="clsWindow-1" d="M1078.37,552.41c-2.55.32-3.13-1.34-3.35-3.34A3.27,3.27,0,0,1,1078.37,552.41Z"/><path class="clsWindow-4" d="M1075.27,549.36c-2.37.2-3.14-1.19-3.25-3.25C1074.59,545.71,1075.34,547.13,1075.27,549.36Z"/><path class="clsWindow-8" d="M999.82,455.7v8.72l-6.1-2.77C989.1,452.84,995.72,455.56,999.82,455.7Z"/><path class="clsWindow-16" d="M1056.27,498.68c-.49,3.16-.16,6.62-4.35,7.28-.89.14-3-1.7-3-2.55C1049.15,499.2,1052,498.16,1056.27,498.68Z"/><path class="clsWindow-8" d="M1050.4,445.41c-3.5,3.69-6.46,5.72-9.69,2.57-4.12-4,.45-6.84,1.2-10.09C1048,437.48,1048.62,441.79,1050.4,445.41Z"/><path class="clsWindow-4" d="M1005.4,470.54l-2.65-3C1004.89,467.44,1005.78,468.43,1005.4,470.54Z"/><path class="clsWindow-4" d="M1265.25,305.44c-8.42-9.26-14.07-21-29.75-28.94,5.22,13.14,12.13,23.33,2.16,34.47-4.28,4.78,7.75,6,7.35,11.79,7.06-.55,13.25-5,20.24-1.86Z"/></g></g></g></svg>