<svg id="Layer_1" data-name="Layer 1" xmlns="http://www.w3.org/2000/svg" viewBox="0 0 1525 1525"><defs><style>.clsWindow-13{fill:#371912;}.clsWindow-9{fill:#5d4430;}.clsWindow-4{fill:#595337;}.clsWindow-1{fill:#191835;}.clsWindow-8{fill:#999373;}.clsWindow-12{fill:#b5ad9d;}.clsWindow-5{fill:#cacbad;}.clsWindow-6{fill:#866a58;}.clsWindow-3{fill:#94928d;}.clsWindow-18{fill:#97200b;}.clsWindow-7{fill:#cd3412;}.clsWindow-10{fill:#beaf64;}.clsWindow-17{fill:#d4858f;}.clsWindow-15{fill:#a64e1e;}</style></defs><title>Artboard 1outerCircle6</title><g id="WindowParts"><g id="outerCircle"><g id="co6"><path class="clsWindow-13" d="M298.61,1313.58c-5.22-2.28-9.87-5.93-15.76-6.61,1.24-3.39-1-5.85-2.31-8.54,2.37-1.59,5.8-1.25,7.48-3.91-.67-2.58-4.38-2.32-4.48-5.27a4.37,4.37,0,0,0,5.13-1.37c-2.19-2-3.7-5.69-8-3.13l3.16,4.76-5.93-1.77c-6.49-7.11-16-10.76-21.67-18.79,0-2.42-3.69-5.24.88-7.17,3.87-1.62,4.62-5.91,7.17-8.68,5.3,15.71,22.17,17.06,31.89,28.28,2.23-5-1.05-7.11-.92-9.91,4.55-.91,7.78,3.33,12.16,3.11a3.77,3.77,0,0,1,.42,2.86c-1.9-.11-3.74,0-5,1.76,2,2.62,4.09,5.19,8,4.29,11.12,6.82,18.78,6.83,39,0-2-6.36-9.15-8.78-11.49-14.36.8-3.75,3.19-4.06,5.82-4-.46,10.32,10.1,13.32,12.79,21.72l11.34-6.61c-.05,6.4-5.72,11.44-4.65,18.25,1.37.91,2.54,2.32,3.81,2.43,13.87,1.16,27.83,0,41.68,3.27,6.24,1.5,12.61-2,17-7.47,5.61-5.2,13.74-9.18,9.34-19.24,2.08-.77,3.29-4,6.57-2a35,35,0,0,0,1.38,13.39c-8.53,4-17.08,8-16.6,18.5-3.88,3.83-4.71-4.21-7-1.65-3.72,3.84-3.2,7.39-3.15,10.83-12.91,5-13.45,4.77-18.74-6.35,0-2,.67-4.29-2.23-5-2.51-.55-4.8-.31-6.58,1.8-9.81,2.19-20.41.8-29.41,6.59h-1.44c-2.88-5.76-8.15-6.08-13.62-6-14.08-.09-27.31-7.39-41.8-5.12C302.06,1306.58,301,1310.34,298.61,1313.58Z"/><path class="clsWindow-13" d="M312.7,1293.82c-6.94-9.71-12.94-4.41-19.91-.73C299.73,1297.08,305.79,1300,312.7,1293.82Z"/><path class="clsWindow-13" d="M358.05,1299.9c-3.65-1.59-6.52-2.05-11.53,1.9C351.67,1300.85,354.38,1302.46,358.05,1299.9Z"/><path class="clsWindow-9" d="M443.42,1288.89A35,35,0,0,1,442,1275.5c-3.28-2-4.49,1.26-6.57,2,1.59-6.76-5.16-5.81-7.49-8,1-7.91,1.75-15.27-1.52-22.43,2.13-1.57,2.32-3.76,2-6.13l0-.12,4,1c-.82,11.25.14,21.93,8.55,30.45,6.07-2.13,9.49-5.39,11.67-10,3.23.54,5.45-1.49,7.85-3.07,6.6-1.76,10.23-6.84,13.59-12.21a3.29,3.29,0,0,0,2.73-2.79l.06-.11,7.94-6c4.61,7.74,18,3.71,19.34,15.85l.14,5.58h0c-6.78-5.69-14.8,6.69-18.56.94-6.31,6-12.39,11.73-17.8,16.84l2.95.21-.08-.11c-.13,1.18-.26,2.37-.38,3.56-6.29-.48-13.26-5.1-18.11,3Z"/><path class="clsWindow-4" d="M407.51,927.09c7.85-7.85,10.47.46,16.27,6.7-1.88-7.07-1.88-12.09,4.89-12.93.58,6.91,3,12.78,9.41,16.3,4.37,2.4.73,4.6-.07,6.88-2.91,4.29,6.73,8.94-.38,13.11l-3.7-6.13c-1.58-5.61-4.79-10.25-8.65-16.42-4.75,7.17-10.42,11.49-16.22,15.87,6.46,6.63,11.37-4.74,16.69.57-.05,1-.07,2-.06,3l-.19.21c-13.3,4.88-29,5.62-36.17,21l0,0c-7.05.82-5.1-5.81-4.3-7.42,3.33-6.68-1.46-9.79-4.66-13.76l-.12.07c6.79-10,18-12.88,28.35-16.55-.52-2.88-2.12-3.76-4-4.38Z"/><path class="clsWindow-1" d="M311.09,972.12l2.88,0-.08,0c-.1,3.55,1,6.07,5.14,6,1.32,5.3,7.52,3.4,10.09,6.85l2.79,2.38c.61,1.16,6.29-1.41,2.35,2.92-2.53,2.78,1,4.12.73,6.22-2.12,1.91-5.66,2.29-6.27,5.82l.09-.07c-2.14-.07-3.54.61-3.16,3.1l.18-.13c-7.84,2.49-13.84,6.76-15.19,15.58-2.7-1.5-6.43-6.28-6.06,1.92a5,5,0,0,1-2.12,1.33l-3.81-.58a4.57,4.57,0,0,0-.54-1.11c-.17-.18-.57-.16-.87-.22.44.47.89.94,1.33,1.42-.18,1.07-.35,2.15-.53,3.22-2.43,3.77-5.29,7.32-6,12-6.65-6.53-1-18.17-10.67-24.21-3.07-1.92,1.09-7.05,4.94-9.06,3.54,4.55,5.47,3.23,6.4-1.76.27-1.4.48-2.91,3.1-2.15,1.43,1.93,3.11,4.22,4.84,6.55,5.62-2,11.52-3.13,15.33-8.12C312.5,990.85,316.69,980.63,311.09,972.12Z"/><path class="clsWindow-4" d="M259.46,1020.4c4.48,1.2,7.29,6.36,13.47,4.11,5.5-2,2.57,6.09,6.44,7.13-3,3.45-5.72,7.15-10.88,7.17,3.95-6.38-1-6.87-5.37-7.94L237.5,1053.3c-7.19-7.8-8.38-8-17.25-2.5l-.12-4.8c11.36-17.87,27.47-30.35,46.15-40.44-1.26,5.52-7.12,8.9-6.69,14.92-4.64,2.28-9.51,4.27-12.18,9.17a7.74,7.74,0,0,0-5.06,5c1.45,2,3.23,4.32,5.81,2.42,3.58-2.63.15-5.1-.94-7.55C255.19,1031.71,261,1031,259.46,1020.4Z"/><path class="clsWindow-9" d="M211.41,1132.3a9.27,9.27,0,0,1,2.83.22c-4.43,11.91-5.2,23.85-.29,35.84,1.23,8.09,4.58,15.83,3.87,24.22l-4,.42-4.61.18c-6.21-3-2.12-10-5.45-14.18-11.3.88-11.3.88-16.91-6.43l-2.68-7.18c5.09-2.45,7.72-9,14.52-8.61a11.92,11.92,0,0,0,2.18.8c.25,0,.87-.59.87-.92.11-8.2.25-16.4,3.61-24.12Z"/><path class="clsWindow-1" d="M508.63,1009.76c1-3.54,3.19-7.43-1.05-10.41-2.37,2.86-2.28,7.43-6.33,9.13-3,5.52-14,5.6-8.46,17-10.31-3.69-13.36-11.81-19.2-16.8-6.08,5.68-8.35,14.73-17.53,19.09,0-7.68-.55-15,.18-22.17.56-5.44,3.75-9.12,10.19-6.56-5.26-9.45-13.65-16.76-18.21-26.69l-3.88-5.46C443,964,441.1,961.76,438,960.7c2,9.25-5.58,14.16-9.45,20.75,4.61,4.51,11.82,5.67,15.16,11.82,10.21,1.27,10.56,1.71,7.37,9.26a13.17,13.17,0,0,0-.76,2.1c2.29,1.85,2.7,4.25,2,7,0,3.89-.07,7.77-.1,11.66-.25,3.34,2.26,7.2-1.86,9.8l-.12.14c-.49,8.19-7.09,10.78-12.91,14.09.07,2.17.13,4.35.2,6.53,3.85,4.64,9.95,4.84,14.73,7.24.5,2.52-.81,3.81-2.43,5-5.71,7.41-13.2,12.84-20.57,18.4-2.94,3.34-4.53,8.12-9.71,9-.17,1.79-1.47,2-2.87,2-1,4.1-3.57,6.66-9.41,8.21V1069l-1.19.08L405,1069c-.05,5.25-.2,10.52-.11,15.77.08,4.78-2.47,5.62-6.43,4.7l3.36,3.88c6.14,6.07,2.75,12-.28,17.92-.87,3-3,4.83-5.72,6.12a151.65,151.65,0,0,1-23.71,21c-6.93.26-7.81-7.4-13-9-3.53-1.07-2.92-4-3-6.61-13.62-9.91-20.44-22.44-16-39.74,1.66-6.49,2.5-13.19,3.68-19.8-4.32,3-3.42,9.62-8.23,12.31-.94,5.18-4.55,8.06-8.81,11.41-2.2-6.67,3.75-8.3,5.3-12.09-4.74-.69-6.37,5.38-12.22,5.7,2.46-7.24,7.52-10.67,12.36-14.29l-.43-.85a24.25,24.25,0,0,1,.11-3c-6.63,1.76-8-2.73-9.72-7.6-2.21-6.23-1.37-12.24-.12-18.37-2.65-3.26-5.69-6.29-7.85-9.86s-3.82-.6-5.72-.43c-3.3,5.52-6.39,11.17-10,16.48-2.13,3.17-4.15.6-5.94-1-5.09.2-12.06-7.21-14.54,3.58,3.44.53,3.46,2.68,2.85,5.12,2.57-2,5.42-3.28,10.67-2.28-3.87,4.29-1,13.52-10.66,9q.95,4.31,1.87,8.6c15.07-7.47,19.42,5.76,27,13.61-6,8-13.93,1.71-20.41,3.49s-12.73,8.5-19.17.1c-2.26,2-1.61,4.75-2.34,7h8.7l-21,38.56c-6.87.3-3.67-7.09-7.9-8.19.09-3.18-1.28-6.74,2.36-9,.91-3,1.81-6,2.72-9-2.7-10.8-9.89-14.14-20.26-12.19l-.34-.26-2.72-.54c0,6-2.51,11.1-5.43,16.1-.41,1.82-.81,3.64-1.22,5.47a3.24,3.24,0,0,1-1.94,3.49c-1.75,4.89,1.71,13.6-8.82,12.07-.16,2-.33,3.92-.49,5.88a9.27,9.27,0,0,1,2.83.22c3.88,1.69,2.84,5.29,2,7.68-3.15,9.26-1.19,18.82-2.32,28.16,1.23,8.09,4.58,15.83,3.87,24.22,7.2,2.47,3.59,12.7,10.85,15.13,1-2,1.91-4.06,2.86-6.08l4.11-14.46c-.56-4.26,1.43-7.63,3.7-10.89,12,1.47,11,8.67,7.58,16.9.31,6.1,1.22,12.32-3,17.66.65,3.41-2.36,5.57-2.94,8.56-.5,3.17-2.78,3.69-5.44,3.66l-.25.14c-.08,2-.17,4-.26,6,5.23-2,11.23-2,15.65-6.27,3.84-3.73,7.95-2.71,11.87.16l.05-.06c.54-6.81,3.4-8.32,8.86-3.87l5.86,1.12c8.38-3.63,14.57-11.53,24.3-12.49-1.2-5.6,1.83-10.28,3.66-15.13,1.24-3.29,4.56-3.51,7.4-2.25,5,2.19,2.49,5.2.48,8l3.73,3.31c4.6-3.21,6,2.45,9.06,3.32.67-3.18-2.47-7.6,3-9.22.24-2.14-2.73-4.45.6-6.45,7.23-4.35,12.22-11.83,20.48-14.77,3.74-8.39,8.45-15.75,18.63-17.55,5.3,4.26,5.38,10.16,5.71,16.1.26,4.73-2,10.08,2.89,13.88,2.87-.62,5.74-1.35,8.69-.57l-2.58-3.22c-12.62-6.24-4.18-15.65-3.47-24.55,3.06,10.66,13.8,10.86,20.65,16,8,6,12.16,11.23,7.43,20.8l2.94,6.09a17.53,17.53,0,0,0,2.29.08c1-4.78-1-9.81,1.39-14.94,13.78,3.81,17.12,15.16,19.85,27l.11-.11c.05-2.53-1.16-5.29,1.26-7.39,2.45.94,1.95,2.79,1.71,4.56a29.39,29.39,0,0,1,3-.53c0-1,.09-2,.17-3a6.92,6.92,0,0,0-3.44-5.95c-2.57-1.77-2.35-3.91.4-5.59-.75-3.21-3.93-4.23-5.83-6.4-7.8-2.78-14.2-7.26-18.15-14.77-2.55-1-3.14-3.14-3.41-5.52-3.2-2.83-2.7-6.65-2.78-10.32-2.08,1-3.23,3.72-6.09,3.15-1.79.6-3.06.13-3.65-1.7-1.8-.58-2.41-1.85-2-3.7-1.22-6-.57-12.06-.17-18.09a3.21,3.21,0,0,1,2-.42c2.68-6.39,3.07-13.65,7.45-19.61,7.63-3.37,15.75-.16,23.59-1.3a12.22,12.22,0,0,0,.71-1.78c.07-.29-.17-.66-.27-1l-18.8-.92c6.76-10.17,16.45-16,24.15-23.71,10.54-7.51,16.81-19.45,27.61-26.7l8.86-3.48c-.52-9,3-12.53,11.81-11.74,2.9-3.54.54-9.72,6-12a3.6,3.6,0,0,1,3.05,3.73,1.93,1.93,0,0,0,.8,2.1c2.92-2.06,3.94-6.88,8.83-6.05v-6l-4.3-.73c5-8.19,5-8.19,12.71-10.55l-2.69,5.44c6.66-1,11.36-4.17,12.79-11.14C517.83,1005.48,512.26,1012.35,508.63,1009.76ZM249.87,1153.88c.81,6.47-1,13.27-1.71,20.07-8.89-1-10.58-6.3-9.87-13.64.53-5.42,3.91-10.28,2.94-16a8.74,8.74,0,0,0,.41-2.26c3.25-2.21,2.44-7.89,7.9-8.71C256.43,1139.85,249,1147,249.87,1153.88Zm145.39-15.46a4.43,4.43,0,0,0-2.07,3.24c-3.47,14.07-6.63,14.82-18.95,3.16l22.9-20.72C396.4,1129.71,395.83,1134.07,395.26,1138.42Z"/><path class="clsWindow-8" d="M192.32,1099.17c6-7.28,6.1-17.06,10.9-25,3.59-5.9,6.61-12.14,10.89-17.62,6.62.65,7.76,10.31,15.37,9.33l.17,3.11c-7.59,10.85-12.21,23.32-19,36.29-4.18-8-9.56-4.7-14.74-3.21l-3-.06A9,9,0,0,0,192.32,1099.17Z"/><path class="clsWindow-8" d="M206.85,1089c-1.49,2.07-2.24,4.29.07,6.11a2.13,2.13,0,0,0,3.31-1.15C211.21,1091,209.39,1089.71,206.85,1089Z"/><path class="clsWindow-8" d="M507.06,1023.75c6.66-1,11.36-4.17,12.79-11.14a1.21,1.21,0,0,0,1.25-.71c1,1.66,2.59,2,4.3,2.14.05,1.1.1,2.2.16,3.31-2.21,6.68-10,8.83-12.48,15.25-2.52,1.29-3.37,3-1.14,5.48l4.52-5.32c6.52-3.11,10.9-7.46,9-15.47l36.06,27.46c-.31,4.52-3.74,2.68-6.12,3l.18.16c-2.84-5.8-7.69-3.73-12.17-3.09,2.29-3.77,3.09-7.08-2.53-8.48l-6.29-.68c-.57-2.05,3.29-4.19-2.06-7.55-1.83,9.26-12.13,14.72-7.21,25.86-9.8-3.77-15.1-13.4-24-18.36,0-2,0-4,0-6l-.37.15c4.82.58,7.32-1.15,6.31-6.36Z"/><path class="clsWindow-13" d="M235,1229.25c5.23-2,11.25-2,15.68-6.28,3.84-3.73,7.95-2.71,11.87.16-5.07,6.26-10.3,12.44-11.32,19.94,4.38,5.67,8-1.42,11.43,1.34-2.75,4.22-5.21,8.68-9.3,11.84-.4-.46-.8-.93-.46-.52-.4-.35.06,0,.53.45l-12.14,9.11a4.53,4.53,0,0,0-.49-1.26c-.17-.2-.63-.17-1-.24l1.48,1.47c-4.61,5-7.65,4.32-9.06-2.45-.23-3.91.81-7.11,4.84-8.63,1.23,2.82,2.27,6,6.56,4.16-.54-3.32-2.6-4.61-4.43-6.09.6-5,3.28-10.2-2.76-14C233,1236,233.58,1232.56,235,1229.25Z"/><path class="clsWindow-4" d="M192.89,1102.06l3,.06c-2.63,7-3.73,13.75,3.67,18.82,1.57,12-1.57,23.87-.92,35.84-6.8-.43-9.43,6.16-14.52,8.61,0-12-4.42-24.44,4.39-35.29-4.41-9.53.18-18.38,2.09-27.43Z"/><path class="clsWindow-4" d="M443.42,1288.89l8.94-5c-.87,7.44,5.07,11.25,9.7,16-9.24,8.82-20.62,11.52-30.85,16.34-3.13,1.47-5.5-1.68-8.33-2.32l-6.19,2.68c-.05-3.44-.57-7,3.15-10.83,2.27-2.56,3.1,5.48,7,1.65C426.34,1296.85,434.89,1292.88,443.42,1288.89Z"/><path class="clsWindow-8" d="M464.86,1177.48A6.79,6.79,0,0,0,471,1181l-.26-.25c2.6,6.83-3.7,10.19-5.91,15.15l.23-.18c-4.47,1.5-6.46,7.62-12.3,6.55-1.46-3-4.53-5.08-4.42-8.86,1.61-1-2.89-.8-.93-.32-2,5.32-6.33,2.54-9.79,2.75-.75-3.21-3.93-4.23-5.83-6.4.43-4.19-.87-7.94-2.93-11.49Z"/><path class="clsWindow-8" d="M186.84,1172.57c5.61,7.31,5.61,7.31,16.91,6.43,3.33,4.15-.76,11.15,5.45,14.18a1.87,1.87,0,0,0-.59,2.33c0,1.49-1,3.41,1.41,3.89a26.38,26.38,0,0,0,1.21-3.52l1.15-.3,1.18.06c-.48,5.12,7.28,10,.49,15.3-.24-1.54,1-3.53-1.41-4.59-1.23,2.17-.39,3.51,1.5,4.52-3,4.08-8,4-12.06,6-1.5-2.85-3.24-5.74,1.18-7.73C188,1205.7,180.94,1190,186.84,1172.57Z"/><path class="clsWindow-8" d="M194.74,1184.9c1.45,1.93-.35,6.53,4.89,5.95C202.49,1186.31,201.75,1183.88,194.74,1184.9Z"/><path class="clsWindow-8" d="M200.55,1201.8c1.61-.07,3.11-.71,2.6-2.47a5.54,5.54,0,0,0-2.75-3.08,2.33,2.33,0,0,0-3.29,1.76C196.74,1200.4,198.4,1201.44,200.55,1201.8Z"/><path class="clsWindow-13" d="M229.48,1065.93c-7.61,1-8.75-8.68-15.37-9.33a3.73,3.73,0,0,1,3.07-2.81c2.07.08,2.53-1.5,3.07-3,8.87-5.46,10.06-5.3,17.25,2.5l25.62-22.43c4.33,1.07,9.32,1.56,5.37,7.94l.15-.12c-9-.17-11.25,10-18.78,12.1l-5.49,5.37c-1.49,3.53-3,7.07-4.74,11.27-.86-2.7-1.43-4.49-2.67-8.36C235.46,1064.1,233.16,1066.17,229.48,1065.93Z"/><path class="clsWindow-4" d="M298.61,1313.58c2.36-3.24,3.45-7,4.26-11,14.49-2.27,27.72,5,41.8,5.12-.08,4.72-5.71,8.55-.87,15.62C327.53,1320.49,312.9,1318,298.61,1313.58Z"/><path class="clsWindow-9" d="M437.63,957.15c7.11-4.17-2.53-8.82.38-13.11,2.13,1.63,3.27,5.42,7.13,3.26,1.71-13,1.71-13,9.89-17.79,4.41,2.12,8.1,4.94,9.6,9.88-5.78,5.48.18,6.52,3.27,8.64.1,1.41.21,2.81.32,4.22-1.86,4.18-17.43,13.7-23.88,14.6C443,964,441.1,961.76,438,960.7l-.36-.61c0-1,.05-2.08.07-3.13Z"/><path class="clsWindow-9" d="M449.7,951c4.09.95,6.45-1.29,8.35-4.54-3.32-2.15-3-7.79-7.7-9.12-2.57,5.1.27,9.47-.52,13.79a5,5,0,0,0-1.34.56c-.19.15-.2.92-.17.92C449.38,952.85,449.85,952.29,449.7,951Z"/><path class="clsWindow-12" d="M295.27,1271.47c-.13,2.8,3.15,4.87.92,9.91-9.72-11.22-26.59-12.57-31.89-28.28,5.13-9.19,13-15,22.77-18.53.78,7.26-8.31,14.33-.4,21.71l-.16-.18c.16,5.55-.52,11.62,7.48,12.47-1.3,2,.17,2.51,1.65,3Z"/><path class="clsWindow-5" d="M597.78,1095.88c-8.72,5-14.68-1.41-21.28-5.14l.06-3.56c7.77-4,6.86-8.39.67-13.08-.43-2.83-1.72-5.83,3.31-9,3.43,6.73,11.18,6.55,17.48,9.63l0,0c1.36,3.62,7.31,4.15,6.29,9.36Z"/><path class="clsWindow-4" d="M235,1229.25c-1.42,3.31-2.05,6.74,1.47,9,6,3.83,3.36,9.07,2.76,14-.68.67-1.4,1.31-2.13,1.93-4,1.52-5.07,4.72-4.84,8.63-10.59-6.66-15.25-17.72-22.32-28.61,5.87-.94,10.65-2,10.79-8.09,3.35,1.47,5.21,4.44,7.25,7.39,1.55-2.9,3.59-4.8,7.05-4.25Z"/><path class="clsWindow-4" d="M416.69,1316.57l6.19-2.68c-2.19,8.73-10.86,10.75-16.46,9.95-16.24-2.32-32,2.44-47.83,1.64-2-4.07,1.94-5.51,2.88-8.12a12.53,12.53,0,0,0,1.1-1.42c11.59-3.16,23.47-4.55,35.38-5.72C403.24,1321.34,403.78,1321.52,416.69,1316.57Z"/><path class="clsWindow-4" d="M311.09,972.12c5.6,8.51,1.41,18.73,4.93,27.82-3.81,5-9.71,6.07-15.33,8.12-1.73-2.33-3.41-4.62-4.84-6.55-2.62-.76-2.83.75-3.1,2.15-.93,5-2.86,6.31-6.4,1.76,3-6.63,8.46-10.68,14.67-13.38C298.92,974.2,298.92,974.2,311.09,972.12Z"/><path class="clsWindow-4" d="M306.38,1000.62c.32-.88.64-1.75.95-2.63a7.83,7.83,0,0,0-2.57-.79c-1.37.09-1.77,1.1-.85,2.09A9,9,0,0,0,306.38,1000.62Z"/><path class="clsWindow-13" d="M235,1229.25c-3.46-.55-5.5,1.35-7.05,4.25-2-3-3.9-5.92-7.25-7.39-3.18.61-5.71,3.73-10.56,2a42.88,42.88,0,0,0-8.09-11.22c4-2,9.08-2,12.06-6l-.09.07c6.79-5.32-1-10.18-.49-15.3a4.13,4.13,0,0,0,.25-2.64l4-.42c7.2,2.47,3.59,12.7,10.85,15.13-.19,5.3-6.31,8.86-4.7,14.3,3.75,4.57,7.67.82,11.32,1.19C235.21,1225.22,235.12,1227.23,235,1229.25Z"/><path class="clsWindow-5" d="M455,929.51c-8.18,4.8-8.18,4.8-9.89,17.79-3.86,2.16-5-1.63-7.13-3.26.8-2.28,4.44-4.48.07-6.88-6.41-3.52-8.83-9.39-9.41-16.3C446.23,914.39,451.19,916,455,929.51Z"/><path class="clsWindow-4" d="M294,1268.57c-8-.85-7.32-6.92-7.48-12.47,3.34-.22,2.05,5.32,5.87,4.69,1.37-5.32-1.75-9-4.27-13.07-2.57,2.72-.77,5.82-1.44,8.56-7.91-7.38,1.18-14.45.4-21.71.92-.94,1.83-1.89,2.74-2.83,4.15,2.37,3.95,10.72,11.52,8.4a2.59,2.59,0,0,0,.87,1.24c-.14.93-.27,1.86-.38,2.79-2.31,1.56-5.89-1.47-8.05,2.85,6.48,4.56,9.82,11.72,13.8,18.43-.05,3-.09,6.08-.14,9.13-4.38.22-7.61-4-12.16-3.11l.37.1Z"/><path class="clsWindow-8" d="M475.78,965.38c-2.39-4.28-4.46-4.79-7.16,0Z"/><path class="clsWindow-8" d="M262.66,1244.41c-3.46-2.76-7.05,4.33-11.43-1.34,1-7.5,6.25-13.68,11.32-19.94l.05-.06,8.86-3.87,5.86,1.12q1.8,3,3.59,6A73.92,73.92,0,0,1,262.66,1244.41Z"/><path class="clsWindow-8" d="M269.39,1224.59a16.79,16.79,0,0,0,2.67.9c.33,0,.76-.49,1.14-.76-.67-.42-1.31-1.09-2-1.18C270.65,1223.49,270,1224.19,269.39,1224.59Z"/><path class="clsWindow-4" d="M502,1234.48c.19-12.51,9.93-20.68,14.09-33.78,3.92,7.47,12.34,4,15.14,10.76.15,1.87.3,3.73.44,5.6-2.73.92-7.25-.3-8,2.65C520.65,1231.23,510.55,1231.53,502,1234.48Z"/><path class="clsWindow-4" d="M519.22,1213.57c-.39-1.34-1.22-1.67-2.27-.77-.72.62-1.84,1.57-1.74,2.18.31,1.77,1.92,1.72,3.09,1C518.88,1215.66,518.93,1214.41,519.22,1213.57Z"/><path class="clsWindow-4" d="M515,1224.42a20.11,20.11,0,0,0-1.87-2c-1-.81-1.73-.47-2,.87-.32,1.71.52,2.72,2.18,2.64C513.89,1225.9,514.42,1225,515,1224.42Z"/><path class="clsWindow-1" d="M474.11,1246.91c-3.36,5.37-7,10.45-13.59,12.21,1.65-2.65-1.37-3.57-2-5.39-.57-2.7-2.67-3.5-5-4-.56-8.32-4.48-15.74-6.36-23.7l2,.25c4.38,8.71,13.92,9.94,21.11,14.56,2.69.07,5.32.26,6.61,3.21l-.06.11Z"/><path class="clsWindow-12" d="M280.54,1298.43c1.35,2.69,3.55,5.15,2.31,8.54-13.33-7.93-26.67-15.86-38.3-28l5.67-2c2.4,3.76,4.06,8.61,10.58,7.63,1.71-7.32-4.46-7.88-7.69-10.59.64-2-.25-4.86,3.14-5.15,5.69,8,15.18,11.68,21.67,18.79-.1,1.36-.19,2.72-.29,4.08-1.95.7-3.87,1.65-3.12,4.14.94,3.16,3.85,2.36,6.19,2.58Z"/><path class="clsWindow-12" d="M271.29,1287.3a17.22,17.22,0,0,0-3.59-2c-2.33-.66-3.6,1.22-3.87,2.92-.15.91,1.38,2.73,2.49,3.08C268.55,1292,269.35,1289.8,271.29,1287.3Z"/><path class="clsWindow-4" d="M543.4,1044.81c4.48-.64,9.33-2.71,12.17,3.09-2.4-.93-4.69-1.26-6.49,1.2-.68,5,2.38,8.31,4.76,12,6.57-4.27,1-9,1.55-13.33,2.38-.31,5.81,1.53,6.12-3,3.35.9,3.24,3.53,3.07,6.18,0,2,.06,3.94.08,5.91.14,6.93-7.09,9.46-9,15.14l-5.8.09h-.27c-1.08-5.12-3.91-7.55-9.29-6l.1.07,0-6.4c1.75.69,3.29,2.26,5.55,1.2,4.14-6.07-5.4-10.35-2.34-16.32Z"/><path class="clsWindow-4" d="M564.66,1056.84c0-2,0-3.94-.08-5.91,13.16,2.73,27.81,13.17,33.44,23.82-6.3-3.08-14-2.9-17.48-9.63-5,3.15-3.74,6.15-3.31,9a3.91,3.91,0,0,1-1.63,1.27C568.55,1071.2,570.75,1061.57,564.66,1056.84Z"/><path class="clsWindow-8" d="M470.29,1240.8c-7.19-4.62-16.73-5.85-21.11-14.56-1.89-4.2-4.28-8.43.79-12.17l20.21,13.33C472.16,1232.2,471.16,1236.5,470.29,1240.8Z"/><path class="clsWindow-5" d="M325.92,1232.19c-.47-10.12-10.48-15.41-12.5-24.74l.31-3,3-2.53.16-.09c4.6-3.21,6,2.45,9.06,3.32l-.27-.24c-2.2,7.08,3.18,11.75,5.52,17.39,1.72,4.14,6.2,7.53,3.62,12.88l.31-.18-5.81-.4c-.78-1.44-1.73-2.63-3.59-2.54Z"/><path class="clsWindow-4" d="M480,972.26c2.07-.34,4.23,4.89,6.23-.1l21.4,27.19c-2.37,2.86-2.28,7.43-6.33,9.13,1.66-10.39-7.75-14.17-12.39-20.8l-2.21-3c-.87-4.06-6.78-2.17-7.53-6.37a2.13,2.13,0,0,0,.46-2.68c.16-1.15.32-2.29.47-3.44Z"/><path class="clsWindow-4" d="M282.71,1065.7l-2-9.12c-3.31-.9-6.9-4.79-9.45,1.28-1.54,3.65-3.63,7.07-5.48,10.6-5.08,3.33-5.69,7.84-3.48,13.11l3,1.91.23,6.49a18,18,0,0,1,2.2,0c.73-2.3.08-5,2.34-7,6.44,8.4,12.64,1.7,19.17-.1s14.37,4.46,20.41-3.49C302.13,1071.46,297.78,1058.23,282.71,1065.7Zm-8.23,9.46c2.94-3.24,3.83-8.38,8.92-9.63C282.58,1070.73,281.53,1075.73,274.48,1075.16Z"/><path class="clsWindow-8" d="M353.18,966.68c.83,3.08,3.52,5.61,2.64,9.18-3.29-.56-6,.95-8.81,2.33-5.52-1-10.92-3.29-17.3-2.78l20.81-9.77A6.89,6.89,0,0,1,353.18,966.68Z"/><path class="clsWindow-5" d="M301.33,1240.14c-7.57,2.32-7.37-6-11.52-8.4-1.19-6.91,5.67-8.15,8.57-12.18l8.65,2C295,1226.55,302.39,1233.93,301.33,1240.14Z"/><path class="clsWindow-8" d="M292.08,1038.69c.67-4.64,3.53-8.19,6-12a5.22,5.22,0,0,0,4.42-2.73,5,5,0,0,0,2.12-1.33c.43,2.11,2.11,2.86,3.86,3.54-3.3,5.51-6.39,11.16-10,16.47-2.13,3.17-4.15.6-5.94-1C292.37,1040.69,292.22,1039.69,292.08,1038.69Z"/><path class="clsWindow-4" d="M280.91,1226.29q-1.79-3-3.59-6c8.44-3.66,14.66-11.66,24.53-12.52C297.74,1217.21,287.71,1219.92,280.91,1226.29Z"/><path class="clsWindow-6" d="M229.48,1065.93c3.68.24,6-1.83,7.48-6.86,1.24,3.87,1.81,5.66,2.67,8.36,1.77-4.2,3.25-7.74,4.74-11.27,3.8,10-.9,16.69-8.69,22.15l-.37-.33c.44-4.45-1.38-7.47-5.66-8.94Z"/><path class="clsWindow-8" d="M464.81,1195.86c3.59.81,3.7,3.58,4.16,6.56.64,4.1,0,8.8,4.2,11.69-6.25,3.7-8.22,2.85-14.27-6.15a33,33,0,0,0,6.14-12.28Z"/><path class="clsWindow-12" d="M265.36,1083.48c.07,2.16.15,4.33.23,6.49-7,5.78-6.64,17-15.68,21.36.91-3,1.81-6,2.72-9,3.73-5.94,4.06-13.68,9.88-18.49Z"/><path class="clsWindow-4" d="M301.66,1208c-1.31-5.68,1.77-10.4,3.62-15.3,1.24-3.29,4.56-3.51,7.4-2.25,5,2.19,2.49,5.2.48,8C307.06,1198.92,307.31,1207,301.66,1208Z"/><path class="clsWindow-4" d="M249.86,1050.79c7.53-2.06,9.81-12.27,18.78-12.1-4,6.84-10.85,10.88-15.62,16.6C250.15,1054.62,250.25,1052.56,249.86,1050.79Z"/><path class="clsWindow-4" d="M407.51,927.09l-2.86,6.07v-.06l-4,.18-10.29,3.14L385.75,935C392.81,931.83,399,926.24,407.51,927.09Z"/><path class="clsWindow-4" d="M253.11,1274.1c3.23,2.71,9.4,3.27,7.69,10.59-6.52,1-8.18-3.87-10.58-7.63A3.33,3.33,0,0,1,253.11,1274.1Z"/><path class="clsWindow-4" d="M280.43,1050.72c2.67-2.23,5.54-3.67,11.07-2.61-3.93,4.36-.87,13.82-11.11,8.78Q280.4,1053.8,280.43,1050.72Z"/><path class="clsWindow-1" d="M465,1195.68A33,33,0,0,1,458.9,1208l-6.16-5.73C458.58,1203.3,460.57,1197.18,465,1195.68Z"/><path class="clsWindow-4" d="M385.75,935l4.62,1.43c-.77,3.72-3.32,6.62-6.69,6.8-5,.27-8.78-1.51-3.3-6.94,2.44,3.25,4.34,3.09,5.61-.9Z"/><path class="clsWindow-4" d="M604.26,1084.08c1-5.21-4.93-5.74-6.29-9.36C603.72,1075.39,610.9,1075.09,604.26,1084.08Z"/><path class="clsWindow-4" d="M504.32,1259.42c-.05-1.86-.09-3.72-.14-5.58l4.84-3.1C510.29,1255.66,508.36,1258.14,504.32,1259.42Z"/><path class="clsWindow-8" d="M467.9,948c-3.09-2.12-9-3.16-3.27-8.64C465.65,942.3,468.77,944.41,467.9,948Z"/><path class="clsWindow-4" d="M446.36,1213.64l-1.31-.2h-1.32q-1.64-1.56-3.26-3.13c0-1,.09-2,.17-3C443.68,1208.41,446.67,1209.53,446.36,1213.64Z"/><path class="clsWindow-8" d="M471.08,1292.73c-.2,3.51-3,3.61-5.4,5.59-.6-5.53,2.2-5.82,5.15-5.94Z"/><path class="clsWindow-4" d="M278,1045.27c3.72.58,3.44,3,2.69,5.72C277.45,1050.18,278.6,1047.31,278,1045.27Z"/><path class="clsWindow-3" d="M220.25,1050.8c-.54,1.49-1,3.07-3.07,3-.19-3-.14-6,2.95-7.79Z"/><path class="clsWindow-6" d="M235.68,1078.31c-.26,2.41-.28,5-3.27,5.84l-.12-.12c.12-2.46.23-4.92,3-6Z"/><path class="clsWindow-4" d="M386,935.38c-1.27,4-3.17,4.15-5.61.9Z"/><path class="clsWindow-6" d="M232,1089.83l-2.72-.54c.43-2.08.33-4.45,3-5.26l.12.12C232.28,1086,232.16,1087.93,232,1089.83Z"/><path class="clsWindow-18" d="M265.36,1083.48l-2.85.31a18.13,18.13,0,0,0-.19-2.22Z"/><path class="clsWindow-13" d="M192.89,1102.06l-2.25.61a2.8,2.8,0,0,1,1.68-3.5A9,9,0,0,1,192.89,1102.06Z"/><path class="clsWindow-1" d="M316.73,1201.87l-3,2.53Z"/><path class="clsWindow-4" d="M400.66,933.28l4-.18C403.44,936.08,402.06,934.89,400.66,933.28Z"/><path class="clsWindow-9" d="M473.9,954.14l-3.56-2.66A3.15,3.15,0,0,1,473.9,954.14Z"/><path class="clsWindow-4" d="M347,978.19c-5.52-1-10.92-3.29-17.3-2.78l20.81-9.77c-1.82-3-7.3-3.31-6.37-8.43h0c-.58-3.48-2.62-3.46-4.93-1.83-3.11,2.2-6.12,4.51-10,5.12-1.74-.23-2.78.73-3.57,2.11-.87.25-1.74.48-2.62.66-4.38,1.54-8.87,3-9,8.82,2.72,1.12,8.69-.54,5.06,6,1.32,5.3,7.52,3.4,10.09,6.85a2.59,2.59,0,0,1,2.79,2.38c.61,1.16,6.29-1.41,2.35,2.92-2.53,2.78,1,4.12.73,6.22l5.34,2.31c1.48-4.7,4.15-8.13,9.4-8.8.29-.72.62-1.42,1-2.1C346.21,985.88,347,981.89,347,978.19Z"/><path class="clsWindow-4" d="M361.47,1317.36l-3.18-3.74h1.44l2.84,2.32A12.53,12.53,0,0,1,361.47,1317.36Z"/><path class="clsWindow-1" d="M525.4,1014c-1.71-.16-3.33-.48-4.3-2.14A4.19,4.19,0,0,1,525.4,1014Z"/><path class="clsWindow-9" d="M347,978.19c2.78-1.38,5.52-2.89,8.81-2.33a3.42,3.42,0,0,0-.1,1.71,21.84,21.84,0,0,0-1.11,2.41c-.06.18.47.83.71.82,5.86-.29,11.35-1.46,15.17-6.24-1.16-2.61-3.24-2.58-5.1-3,.59-3.78,1.19-7.55,1.87-11.89L380.41,954c3.2,4,8,7.08,4.66,13.76-.8,1.61-2.75,8.24,4.3,7.42.8,3.52,2.6,3.59,5.09,1.54-1.28-2.23-3.27-1.63-5.13-1.49,7.17-15.43,22.87-16.17,36.17-21,1.16,2.77,2.79,3.5,5.18,1.29-1.27-2-3.23-1.42-5-1.5,0-1,0-2,.06-3l8.18,0,3.7,6.13.11-.19c-1.57.54-3,1.2-3,3.22-11.15,1.37-21.62,4.44-30.34,12-.84.48-3.34,0-1.3,2.16l1.43-2c11-1.8,21.18-5.42,30.11-12.2l3,0,.36.61c2,9.25-5.58,14.16-9.45,20.75-9.07-.24-18.1-4.54-27.21-.22-14.24,2.18-23,9.55-23.53,24.77-5,12.25.82,22.51,6.07,32.87l-3.53-.45c-1.08-3.59-2.87-5.59-6.71-3l-5.2,3.06c-5.65-3.9-11-1.68-14.32,2.63-3.66,4.74-8.27,7.89-13.36,10.91,5.27,4.35,12.7,4.35,15.4,11-4.13.53-8.11-4.53-12.33-.32l.28.22c-.45-4.4-2.27-6.11-6.06-2.74-2.05,1.82-3.38,4.48-6.34,5.19a24.25,24.25,0,0,1,.11-3c-1.17-9.39,6.69-12.47,12.06-17.29,8.44-10.73,12.06-22,3.5-33.69,1.17-9.12,15.44-10.17,11.62-21.41-1.71-4.75-5.43-1.92-8.33-2.21C346.21,985.88,347,981.89,347,978.19Z"/><path class="clsWindow-9" d="M354.89,1007.78c1.23,14.59,3.48,17.52,13.68,18.13.49,0,1.07-1.43,1.57-2.13.52-4.21-5-2-5.48-5.32,7.48-1.73,7.93-6,4-13.12C364.84,1012.4,359.34,1005.9,354.89,1007.78Z"/><path class="clsWindow-5" d="M343.86,1062.74c4.22-4.21,8.2.85,12.33.32l-.32-.21c2.16,3.47,6.46,3.8,9.27,6.3,7.57,10.85,20,15.32,30.06,22.52,1.68,4.84-2.11,9.19,0,13.51l.22-.24c-2.26-.07-2.74,1.61-3.23,3.28l.08-.18c-6.65-.14-13,.75-18.41,5.12-6.77,1.64-13.51,3.34-17.79,9.6-13.62-9.91-20.44-22.44-16-39.74C341.8,1076.37,342.63,1069.5,343.86,1062.74Z"/><path class="clsWindow-7" d="M286.37,1150c1.47-7.92,4.9-15.06,8.68-22.07s6.67-14.43,6.94-22.59c8-.31,7.47-8.82,12-12.42l5.87.38a8.56,8.56,0,0,1-.13,2.72c-10.25,13.39-18.46,27.85-23.43,44.68,6.55-4.65,7.57-12.88,13.25-17.5,1-.69,4.47.08,1.7-2.85-.2-1.65.4-2.76,2.11-3.1,7.22,6,3,11.88-.41,17.63,5.41,7.32,11.5,14.31,7.32,24.33l13.1,1.31,14.28-11.67c4.41.54,7.61,3,11,4.87-8.64,5-13.48,14.93-23.54,18.08a7.1,7.1,0,0,0-4.72-5l-15.16,9.12c-.55-7.23,4.66-9.35,9.24-12.25-6.77-2.76-11,.48-14.9,4.69-3.69,4-7.43,7.91-11.15,11.86l-2.27-2.5c-1.78-.3-3.91.26-4.42-.89-.3-6.06,6.62-3.06,7.61-7.21-4.52-3.62-11.05-3.7-12.9-9.89,2.67-1,2.78-2.14.24-3.48a5.29,5.29,0,0,1,5.08-2.74c.71-.8,3.86-.2,1.57-2.74C291.62,1145.57,288.7,1150.41,286.37,1150Z"/><path class="clsWindow-8" d="M377.25,1187.09c3-.65,6-1.45,9.15-.45-.22,2.17,1.3,2.77,3,3.24-1.8,7-10.12,3.72-13.63,7.1,1.19,5,6.15,1.63,7.47,6.29-7.8,2.69-11.76,15.85-8.9,16.77-.82,3.81-6.82,1.32-7.22,5.54,2.77,5,9.39,7.29,9.69,13.07.54,10.26,6.94,13.21,15.43,14.44.1,1.1.21,2.19.32,3.29l.08-.14c-2.83-.55-4.84.59-6.25,3h0c-6.1,4-12.18.38-18.28,0l.21.18c-2.55-9.48-10.48-13.72-17.94-18.41,3.63-2.42,1.18-4.92.31-7.63-1.52-4.74-6.58-7.56-6.8-12.92l.66-.74a3.08,3.08,0,0,0,2.6-2.92c-.06-2.34.13-4.58,2.38-6,3,3.28,5.65,3.85,6.4-1.51.44-3.22.07-6.56.07-9.84a3.83,3.83,0,0,0,3.41-3.61l-.25.18c5.38,0,10-1.44,13.13-6.19C374.37,1189.78,376.21,1189.17,377.25,1187.09Z"/><path class="clsWindow-13" d="M319.77,1096a8.56,8.56,0,0,0,.13-2.72c8.88,9.24,17.22,18.91,24,29.85-1.19.82-3.43,1.67-3.4,2.45.38,10.17,13.35,21.44,24.53,21.59-.56,3.66-5.23,3.36-6.29,6.53-3.42-1.91-6.62-4.33-11-4.87l-14.28,11.67-13.1-1.31c4.18-10-1.91-17-7.32-24.33,3.44-5.75,7.63-11.61.41-17.63C312.2,1109.13,319.25,1103.54,319.77,1096Z"/><path class="clsWindow-13" d="M331,1147.16c-1.34-10.35,4.47-20.91-7.64-29.66C323.8,1128.7,318.7,1139.12,331,1147.16Z"/><polygon class="clsWindow-4" points="430.12 1043.8 430.63 1043.07 429.81 1042.97 430.12 1043.8"/><path class="clsWindow-10" d="M442.18,1014.71c-3.41-4.31-8.37-5.54-13.34-6.76a6.79,6.79,0,0,0-9-1.65c-1.94,1.13.11,3.26,1,4.79a3.07,3.07,0,0,1-2.35.38c-3.34-1.27-7.71,1.38-10.33-2.69-.39-1.78-1.39-2.82-3.32-2.75l-8.47-.91c2.33-9.1,13-8.42,17.53-14.92C424.83,994.54,443.13,1014.59,442.18,1014.71Z"/><path class="clsWindow-8" d="M397.54,1138c2.68-6.39,3.07-13.65,7.45-19.62,7.63-3.36,15.75-.15,23.59-1.29-2.5,3.64-8,5.86-5.61,11.81-1.74.38-3.45-1.65-6.63,1.14,7.65,2.58,6.08,8.79,6.28,14.45-1.05,2.73-2.3,5.4-3.1,8.21-2.12,7.49-6.61,7.08-12.07,3.85-4.19-.28-6.77-2.19-5.43-6.64,1.27-4.2,3.82-8.12,1.32-12.8Z"/><path class="clsWindow-4" d="M395.21,1105.18c-2.12-4.32,1.67-8.67,0-13.51-10-7.2-22.49-11.67-30.06-22.52l-.05-3c3.44,1.08,4.62,7.07,9.75,4.63-.76-11.12-1.84-22-6.37-32.25l5.2-3.06,4.41,6.08c3.11,17.53,15.54,31.11,20.33,47.93l3.36,3.88C400.4,1097.73,401.78,1103.66,395.21,1105.18Z"/><path class="clsWindow-4" d="M388.73,1081.51c.62-6.11,1.13-9.91-4-11.75C383.36,1074.19,385.67,1077.15,388.73,1081.51Z"/><path class="clsWindow-13" d="M232.29,1084c-2.65.81-2.55,3.18-3,5.26,0,6-2.51,11.1-5.43,16.1a2.27,2.27,0,0,0-3.39-.83c-7.34,3.71-10.35,12.69-18.63,15.22-.74.41-1.5.8-2.26,1.16-7.4-5.07-6.3-11.8-3.67-18.82,5.18-1.49,10.56-4.81,14.74,3.21,6.77-13,11.39-25.44,19-36.29,4.28,1.47,6.1,4.49,5.66,8.94C232.52,1079.11,232.41,1081.57,232.29,1084Z"/><path class="clsWindow-8" d="M395.77,1117.38a151.65,151.65,0,0,1-23.71,21c-6.93.26-7.81-7.4-13-9-.15-10.42,10.09-8.65,15.17-12.93C381.51,1114.25,389,1107.73,395.77,1117.38Z"/><path class="clsWindow-8" d="M488.86,987.68l-2.64-.19c0,2-1.29,2.74-3.07,3-.38,1.77-1.93,2.43-3.27,3.3-.13-2.22.93-3.35,3-3.57,0-2,1.21-2.8,3-3a3.26,3.26,0,0,1,.81-2.54c-.87-4.06-6.78-2.17-7.53-6.37-2.84,2.34-5.57,1-8.31-.17a6.36,6.36,0,0,1-3.92,3.53c1,1.57,2.26,2.74,4.28,2.68,1.17,1,4.66-.19,3.5,2.73-1.25,3.18-3.74,4.15-6.21.65a7.9,7.9,0,0,1-3.47-6c-4.47-.6,6.81-11.66,9-6.47l5.6.38c.15-1.11.31-2.22.46-3.33,2-.19,4.17,4.81,6.14-.1l-12.28-18-3.56-2.66a4,4,0,0,0-2.12.77c-1.86,4.18-17.43,13.7-23.88,14.6l3.88,5.46h0c4.56,9.93,12.95,17.24,18.21,26.69l4.27.36c.23,1,.45,2.08.68,3.13a3.17,3.17,0,0,1,2.11,3.56l-.15.11a7.16,7.16,0,0,1,.25,2.48c5.84,5,8.89,13.11,19.2,16.8-5.53-11.36,5.49-11.44,8.46-17C502.91,998.09,493.5,994.31,488.86,987.68ZM471.17,999l1.12-1.68.76,1.3Z"/><path class="clsWindow-8" d="M398.41,1089.46c-4.79-16.82-17.22-30.4-20.33-47.93.77-1,1.54-2.07,2.3-3.11l3.53.45c1.76.69,2.23,2,1.85,3.73-2.33,3-3.36,5.89.79,8.27l-.23-.34c-1.71,5.88,2.25,6.15,6.28,6.35l-.19-.27c2.48,8.11,9.92,4.49,15,6.36l-.13,0L405,1069c-.05,5.25-.2,10.52-.11,15.77C404.92,1089.54,402.37,1090.38,398.41,1089.46Z"/><path class="clsWindow-18" d="M249.91,1111.33c9-4.32,8.63-15.58,15.68-21.36a18,18,0,0,1,2.2,0h8.7l-21,38.56c-6.87.31-3.67-7.09-7.9-8.19C247.64,1117.14,246.27,1113.58,249.91,1111.33Z"/><path class="clsWindow-4" d="M450,1214.07l-3.61-.43-1.31-.2h-1.32c-1.38,3-3.83,5-6.49,6.77h0c-.88,1-1.75,2.08-2.62,3.13l-2.35,2.23c-2.51-.28-4.43-1.36-5.25-3.89.88-4.14,6.15-4.13,7.42-7.9-2.73-11.81-6.07-23.16-19.85-27-2.43,5.13-.39,10.16-1.39,14.94a17.53,17.53,0,0,1-2.29-.08c-.37,1.34-.75,2.67-1.57,5.62-4-6.17-9.34-10.09-8.81-17.39l-3.35-2.44c-3.6-1.2-7-5.52-11-.62l.2-.21c-.22,2.17,1.3,2.77,3,3.24,12.42,11,21.36,23.91,24,40.76,1.06,6.88-.29,12.42-5.94,16.68,6.38.72,12.67-4.89,19.09-.26,2.13-1.57,2.32-3.76,2-6.13l0-.12h0l4,1c9-3,11.82-9.24,8.45-19.26l6.28,3.47,2,.25C447.29,1222,444.9,1217.81,450,1214.07Z"/><path class="clsWindow-17" d="M298.49,1180.2c3.72-4,7.46-7.89,11.15-11.86,3.92-4.21,8.13-7.45,14.9-4.69-4.58,2.9-9.79,5-9.24,12.25l15.16-9.12a7.1,7.1,0,0,1,4.72,5h-.07c-8.27,2.69-14.72,7.49-18.21,15.71-4.71-.47-9.42-.88-14.12-1.42C299.34,1185.66,297.91,1183.63,298.49,1180.2Z"/><path class="clsWindow-7" d="M374.36,1173.21c-.33-5.94-.41-11.84-5.71-16.1-10.18,1.8-14.89,9.16-18.63,17.55-8.26,2.94-13.25,10.42-20.48,14.77-3.25,2-.5,4.21-.59,6.31l30.24.06c1.93-3.58,6.44-3.41,9-6l4,0c2.15,0,4-.62,5-2.7C372.38,1183.29,374.62,1177.94,374.36,1173.21Z"/><path class="clsWindow-4" d="M343.91,1045.17c-5.37,4.82-13.23,7.9-12.06,17.29-6.63,1.76-8-2.73-9.72-7.6-2.21-6.23-1.37-12.24-.12-18.37l1.21-1.18c7.28,1.23,8.89-6.92,14.36-8.69q.42,1.39.9,2.79c-1.17,3.66-6.44,4.81-5.92,10.19l11.66,4.41Z"/><path class="clsWindow-18" d="M241.23,1144.36a8.74,8.74,0,0,0,.41-2.26c3.25-2.21,2.44-7.89,7.9-8.71,6.89,6.46-.52,13.62.33,20.49.81,6.47-1,13.27-1.71,20.07-8.89-1-10.58-6.3-9.87-13.64C238.82,1154.89,242.2,1150,241.23,1144.36Z"/><path class="clsWindow-3" d="M470.65,999.09l.73,3.4c-.69,2,.42,3,2.11,3.56l-.15.11a7.16,7.16,0,0,1,.25,2.48c-6.08,5.68-8.35,14.73-17.53,19.09,0-7.68-.55-15,.18-22.17.56-5.44,3.75-9.12,10.19-6.56l4.48.37Z"/><path class="clsWindow-4" d="M308.44,1026.21c-1.75-.68-3.43-1.43-3.86-3.54-.37-8.2,3.36-3.42,6.06-1.92,8.54-1.8,10.79-9.74,15.19-15.58l-.18.13c2.13.06,3.43-.72,3.16-3.1l-.09.07,5.44,1.06c-1.43,6-5.18,9.74-9.24,12.84-.29,4.28,3.06,6.52,5,9.47-2.49,1.4-5.57,1.15-6.36,3.9-.52,1.8-.23,3.84-.3,5.77l-1.21,1.18c-2.65-3.26-5.69-6.29-7.85-9.86S310.34,1026,308.44,1026.21Z"/><path class="clsWindow-12" d="M395.52,1138.28c-1.47.65-2,1.87-2.33,3.38-3.47,14.07-6.63,14.82-18.95,3.16l22.9-20.72c-.75,5.69-1.33,10.1-1.9,14.5Z"/><path class="clsWindow-15" d="M235.29,1223.2c-3.65-.37-7.57,3.38-11.32-1.19-1.61-5.44,4.51-9,4.7-14.3,1-2,1.91-4.06,2.86-6.08,7.19-1.05,8.77,5.45,12.39,9.21.65,3.41-2.36,5.57-2.94,8.56-2.25.58-4.36,1.35-5.44,3.66Z"/><path class="clsWindow-7" d="M201.86,1119.78c8.28-2.53,11.29-11.51,18.63-15.22a2.27,2.27,0,0,1,3.39.83c-.41,1.82-.81,3.64-1.22,5.47a3.28,3.28,0,0,0-1.94,3.49c-1.75,4.89,1.71,13.6-8.82,12.07-.16,2-.33,3.92-.49,5.88l-6.07.24C203.9,1128.37,208.06,1122.66,201.86,1119.78Z"/><path class="clsWindow-4" d="M473.39,1042.74c-4.2,5.9-7.83,9.84-13.47,11.08-5.08-.48-7.51-4.76-11.1-7-.75-2.54,1.2-3.7,2.4-5C458.59,1033.76,465.5,1039.41,473.39,1042.74Z"/><path class="clsWindow-12" d="M365,1147.15c-11.18-.15-24.15-11.42-24.53-21.59,0-.78,2.21-1.63,3.4-2.45C351.1,1131,360.74,1136.7,365,1147.15Z"/><path class="clsWindow-7" d="M243.92,1210.84c-3.62-3.76-5.2-10.26-12.39-9.21l4.11-14.46c5.3-.9,7.29,4.43,11.28,6C247.23,1199.28,248.14,1205.5,243.92,1210.84Z"/><path class="clsWindow-12" d="M407.45,1156.58a3.41,3.41,0,0,0,0,2.21c-2.08,1-3.23,3.72-6.09,3.15a3.1,3.1,0,0,0-3.7-1.81l.21.17a3.43,3.43,0,0,0-2.18-3.76c-1.23-6.07-.55-12.17-.15-18.26l-.28.32a3.14,3.14,0,0,1,2.3-.57l5.8-.89c2.5,4.68,0,8.6-1.32,12.8C400.68,1154.39,403.26,1156.3,407.45,1156.58Z"/><path class="clsWindow-18" d="M286.51,1159.71c1.85,6.19,8.38,6.27,12.9,9.89-1,4.15-7.91,1.15-7.61,7.21.51,1.15,2.64.59,4.42.89-.11,1.09-.21,2.17-.32,3.26l-3.4,2.34C283.93,1174.79,282.26,1168.24,286.51,1159.71Z"/><path class="clsWindow-18" d="M246.92,1193.18c-4-1.58-6-6.91-11.28-6-.56-4.26,1.43-7.63,3.7-10.89C251.38,1177.75,250.31,1185,246.92,1193.18Z"/><path class="clsWindow-10" d="M431.44,1050.43l6.14,3.38c3.85,4.64,9.95,4.84,14.73,7.24.5,2.52-.81,3.81-2.43,5-9.09-1.94-16.23-6.58-20.75-14.88A18.58,18.58,0,0,0,431.44,1050.43Z"/><path class="clsWindow-7" d="M316.9,1187.48c3.49-8.22,9.94-13,18.21-15.71-1.14,8.53-8.78,12.13-13.72,17.73C320.25,1190.79,317.8,1189.59,316.9,1187.48Z"/><path class="clsWindow-4" d="M214,1168.36c-4.91-12-4.14-23.93.29-35.84,3.88,1.69,2.84,5.29,2,7.68C213.12,1149.46,215.08,1159,214,1168.36Z"/><path class="clsWindow-4" d="M395.77,1117.38c-6.78-9.65-14.26-3.13-21.56-.94-.11-1.09-.23-2.18-.34-3.28,5.39-4.37,11.76-5.26,18.41-5.12,2.16,3.67,5.73,3.31,9.21,3.22C400.62,1114.26,398.48,1116.09,395.77,1117.38Z"/><path class="clsWindow-10" d="M437.24,1220.22c-.88,1-1.75,2.08-2.62,3.13l-2.35,2.23c-2.51-.28-4.43-1.36-5.25-3.89.88-4.14,6.15-4.13,7.42-7.9l.11-.11a2.79,2.79,0,0,0,3-2.83,29.39,29.39,0,0,1,3-.53q1.62,1.58,3.26,3.13C442.35,1216.46,439.9,1218.44,437.24,1220.22Z"/><path class="clsWindow-8" d="M401.49,1111.26c-3.48.09-7.05.45-9.21-3.22l-.08.18c2-.15,2.91-1.44,3.23-3.28l-.22.24c6.57-1.52,5.19-7.45,6.56-11.84C407.91,1099.41,404.52,1105.33,401.49,1111.26Z"/><path class="clsWindow-4" d="M373.87,1113.16c.11,1.1.23,2.19.34,3.28-5.08,4.28-15.32,2.51-15.17,12.93-3.53-1.07-2.92-4-3-6.61C360.36,1116.5,367.1,1114.8,373.87,1113.16Z"/><path class="clsWindow-8" d="M331.74,1065.41c3-.71,4.29-3.37,6.34-5.19,3.79-3.37,5.61-1.66,6.06,2.74-4.76,2.89-3.65,9.81-8.6,12.57l-.87-.91c-.78-1.4,1.42-4.29-2.15-4.29l-.35-4.07Z"/><path class="clsWindow-8" d="M408,1195.59h0c4.73-9.57.53-14.78-7.43-20.8-6.85-5.18-17.59-5.38-20.65-16-.71,8.9-9.15,18.31,3.47,24.55l2.84,3.55c3.95-4.9,7.38-.58,11,.62l3.35,2.44a3.77,3.77,0,0,1,1.27.27,3.77,3.77,0,0,0-1.27-.27c-.53,7.3,4.79,11.22,8.81,17.39.82-3,1.2-4.28,1.57-5.62Zm-21.57-17.25c-2.15-.69-3.22-2.06-2.3-4.28,1.14-2.73,3.52-2.87,6-2.52Zm15,5.22,1.73-1.3a3,3,0,0,1-.64,3.71A2.56,2.56,0,0,0,401.39,1183.56Z"/><path class="clsWindow-5" d="M332.17,1066.26l.35,4.07-.63,4.72.14-.2c-4.74-.69-6.37,5.38-12.22,5.7C322.27,1073.31,327.33,1069.88,332.17,1066.26Z"/><path class="clsWindow-10" d="M470.84,1059.54c5.66,5.21-.59,6-3.1,7.57-4.61,2.9-6,.29-5.76-4.09Z"/><path class="clsWindow-12" d="M501.34,1029.59l-4.3-.73c5-8.19,5-8.19,12.71-10.55l-2.69,5.44.22-.37c-2.94,1.29-5.94,2.52-6.31,6.36Z"/><path class="clsWindow-8" d="M335.54,1075.53c-.94,5.18-4.55,8.06-8.81,11.41-2.2-6.67,3.75-8.3,5.3-12.09l-.14.2,1.33-.58,1.45.15Z"/><path class="clsWindow-13" d="M271.46,1219.2l-8.86,3.87C263.14,1216.26,266,1214.75,271.46,1219.2Z"/><path class="clsWindow-4" d="M437.52,1210.85a2.79,2.79,0,0,1-3,2.83c.05-2.53-1.16-5.29,1.26-7.39C438.26,1207.23,437.76,1209.08,437.52,1210.85Z"/><path class="clsWindow-8" d="M387.64,1157.4c1.86-1.21,3.69-1.71,4.71.77.27.66-.47,2.5-.9,2.56C389.14,1161,388.14,1159.41,387.64,1157.4Z"/><path class="clsWindow-8" d="M310.66,1086.79c1.5-2.67,3.07-4.91,5.67-1-1.78,2.8-3.85,1.67-5.91.63Z"/><path class="clsWindow-13" d="M235.54,1223.06c1.08-2.31,3.19-3.08,5.44-3.66C240.48,1222.57,238.2,1223.09,235.54,1223.06Z"/><path class="clsWindow-7" d="M292.5,1183.3l3.4-2.34C295.55,1182.88,294.36,1183.57,292.5,1183.3Z"/><path class="clsWindow-13" d="M220.72,1114.35a3.28,3.28,0,0,1,1.94-3.49A3.24,3.24,0,0,1,220.72,1114.35Z"/><path class="clsWindow-8" d="M395.67,1156.54a3.43,3.43,0,0,1,2.18,3.76C395.92,1159.75,395.26,1158.45,395.67,1156.54Z"/><path class="clsWindow-8" d="M397.64,1160.13a3.1,3.1,0,0,1,3.7,1.81C399.51,1162.55,398.22,1162.06,397.64,1160.13Z"/><path class="clsWindow-1" d="M491.7,1039.55l-3.05-3.73A3.6,3.6,0,0,1,491.7,1039.55Z"/><path class="clsWindow-10" d="M486.06,1159.43h-5.49c-2.37-1.93-1.42-3.92-.68-5.6,8.84-20.27,13-41.61,14.68-63.52.27-3.54.31-7,3.59-9.28l-.25-.2c4.06,3.76,3.85,8.57,3.28,13.45q-1.69,14.51-3.44,29c-2.85,1.4-2.6,3.79-2,6.29C493.77,1139.94,489.4,1149.52,486.06,1159.43Z"/><path class="clsWindow-6" d="M549.41,1105l3.18.08a5.59,5.59,0,0,0,.54,1.38c.14.21.6.2.91.29.25-1-.29-1.53-1.62-1.5,0-6.91-2-14.17,3.53-20.13,3,.13,5.12,4.17,8.6,1.79-.14,3.37,1.35,6.27,2.71,9.19a3.35,3.35,0,0,0-3,3.42c-2.44-.12-5-.87-7.2,1.26,2.32,1.56,4.79,1.31,7.28,1l-2.82,9.11-11.3,18.47c-2.8-.16-3.31-3.17-5.64-4.49-2.79,5.43-6.89,10.21-6.92,16.76l-5.6-.5Z"/><path class="clsWindow-1" d="M561,1081.51c-4.89-1.78-9.23-4.21-11.22-9.44h-.27c-3.79-.92-8.34-.67-9.28-6-2.84.38-4.52-1.67-6.47-3.14l-2.55-2.55c-2.59-1.65-5.15-3.34-6.1-6.51-9.69-3.81-15-13.35-23.82-18.29-4.89-.83-5.91,4-8.83,6.05,2.08,9.89,5.11,18.93,14.62,24.79a18.29,18.29,0,0,1,8.49,13.55h0c-5.55,1-9.84-.84-12.81-5.77-.87,2.7-1.21,5.81-4.69,6.55-.05-1.78-1.63-2.3-2.79-3.16l-11.72-6.48c-6.37,4-2.11,10.83-4.37,15.92l.18,3.12c.5,1.49-.22,2.29-1.55,2.73l-3.9,3.17c-1.3,4.59-2.59,9.18-4.13,14.63-6.57-3.87-12.38,1.49-18.71.64,9,3,17.13,6.64,16.35,18.31,3.25,6.84,1.81,11.93-5.53,14.82-3.19,5.41-4.21,10.63,0,16.23,3.07,4,3.7,9,2.76,14,0,.93.08,1.85.1,2.78a6.78,6.78,0,0,0,5.93,3.47c2.36,6.67-3.79,10-6,14.91,3.59.81,3.7,3.58,4.16,6.56.64,4.1,0,8.8,4.2,11.69l3.77-.25A19.59,19.59,0,0,0,489,1226c.05-1,.1-2.1.16-3.15a2.89,2.89,0,0,1,2.53-2.56h0c-.84.85-1.69,1.7-2.53,2.56-.06,1.05-.11,2.1-.16,3.15,4.29,2.88,5.35,10.72,13,8.46.19-12.51,9.93-20.68,14.09-33.78,3.92,7.47,12.34,4,15.14,10.76,0-1.17,0-2.34.08-3.51-.12-6,8.19-12.08,0-18.11l-6.3-.54c-5.27-3.26-.15-6.07.75-8.61,3.29-9.22,10-17,11.45-27.06l-2.86-.08c-.93.09-1.86.14-2.78.15-5.8,6.88-6.66,16.69-13.52,23.16-3.57-4.46,2.24-7.42,1.36-11.26,4.77-5.17,6-12.11,9.06-18.11l3.55-6.38L549.41,1105l3,.08c0-6.86-1.93-14,3.53-20,3,.13,5.12,4.17,8.6,1.79l1.11-.64Zm-90,99.12c.15-7.64.38-15.25,11.51-18.38C481.11,1171.05,480,1178.21,471,1180.63Zm15.07-21.2h-5.49c-2.37-1.93-1.42-3.92-.68-5.6,8.84-20.27,13-41.61,14.68-63.52.27-3.53.31-7,3.56-9.26,3.82,3.73,3.62,8.44,3.06,13.23q-1.69,14.51-3.44,29l6.25-3h0c.55,6-5.49,6.18-8.27,9.24C493.77,1139.94,489.4,1149.52,486.06,1159.43Zm6.69,59.26a4.43,4.43,0,0,1,.64-.59A4.43,4.43,0,0,0,492.75,1218.69Zm21.35-34.1c-3.82,11.66-8,23.16-16.47,32.45a8.87,8.87,0,0,0-1.88.1,8.87,8.87,0,0,1,1.88-.1c-.76-5.46,3.32-9.71,3.69-14.88,5.46-5.36,6.31-13.45,11.28-19.09.56-1.25,1.37-2.89,2.78-1.61S515.37,1183.86,514.1,1184.59Zm32.41-84.77c-5.32-.22-7.78-5.72-12.61-6.84.8-4.61,9.67-3,7.32-10.51C543.41,1088.64,546.86,1100.44,546.51,1099.82Z"/><path class="clsWindow-4" d="M514.1,1184.59c-3.82,11.66-8,23.16-16.47,32.45-.76-5.46,3.32-9.71,3.69-14.88,5.46-5.36,6.31-13.45,11.28-19.09C513.11,1183.57,513.6,1184.08,514.1,1184.59Z"/><path class="clsWindow-4" d="M531.59,1153.7c-5.8,6.88-6.66,16.69-13.52,23.16-3.57-4.46,2.24-7.42,1.36-11.26,4.77-5.17,6-12.11,9.06-18.11C532.14,1148.25,531.28,1151.27,531.59,1153.7Z"/><path class="clsWindow-6" d="M533.9,1093c.8-4.61,9.67-3,7.32-10.51,2.19,6.17,6.81,10.83,5.29,17.35C541.19,1099.6,538.73,1094.1,533.9,1093Z"/><path class="clsWindow-5" d="M516.73,1108.88c5-1.46,7.95-.19,10.15,3C519.86,1119.09,519.86,1119.09,516.73,1108.88Z"/><path class="clsWindow-9" d="M531.59,1153.7c-.31-2.43.55-5.45-3.1-6.21l3.55-6.38,5.6.5.29.23c.11,2.22-1.41,5.17,2.54,5.68l-.1-.17c-.58,2.3.26,5.32-3.13,6.2l.18.09c-.26-1.12-.28-2.63-1.95-2.23-.51.12-.74,1.39-1.1,2.14C533.44,1153.64,532.51,1153.69,531.59,1153.7Z"/><path class="clsWindow-4" d="M497.75,1123.29l6.25-3c.55,6-5.49,6.18-8.27,9.24C495.15,1127.08,494.9,1124.69,497.75,1123.29Z"/><path class="clsWindow-1" d="M491.72,1220.31c-.84.85-1.69,1.7-2.53,2.56A2.89,2.89,0,0,1,491.72,1220.31Z"/><path class="clsWindow-8" d="M368.31,1280.29,357,1286.9c-2.69-8.4-13.25-11.4-12.79-21.72l-.28.21c5.11-1.77,10.26-3.49,12.33-9.29l-.24.22c4.85-2,7.7,3.92,12.26,3.06l-.21-.18c.27,4.29,9.84,6,3.42,12.12-2.28,2.62-4,5.45-3.41,9.15Z"/><path class="clsWindow-8" d="M362.57,1315.94l-2.84-2.32c9-5.79,19.6-4.4,29.41-6.59,2.52.6,4.83.42,6.58-1.8,2.9.7,2.19,3,2.23,5C386,1311.39,374.16,1312.78,362.57,1315.94Z"/><path class="clsWindow-7" d="M312.7,1293.82c-6.91,6.14-13,3.26-19.91-.73C299.76,1289.41,305.76,1284.11,312.7,1293.82Z"/><path class="clsWindow-8" d="M307.43,1274.58c.05-3,.09-6.09.14-9.13a15.31,15.31,0,0,1,6.5,11.41l-6.44.47.22.11A3.77,3.77,0,0,0,307.43,1274.58Z"/><path class="clsWindow-12" d="M277.63,1291.82c.1-1.36.19-2.72.29-4.08l5.93,1.77-.31-.26c.1,3,3.81,2.69,4.48,5.27-1.68,2.66-5.11,2.32-7.48,3.91l.16.11C281.07,1295.67,280.29,1293.32,277.63,1291.82Z"/><path class="clsWindow-18" d="M310.89,1283.49c-3.93.9-6-1.67-8-4.29,1.24-1.79,3.08-1.87,5-1.76l-.22-.11,3.21,6.21Z"/><path class="clsWindow-18" d="M283.85,1289.51l-3.16-4.76c4.28-2.56,5.79,1.1,8,3.13a4.37,4.37,0,0,1-5.13,1.37Z"/><path class="clsWindow-4" d="M358.05,1299.9c-3.67,2.56-6.38.95-11.53,1.9C351.53,1297.85,354.4,1298.31,358.05,1299.9Z"/><path class="clsWindow-4" d="M395.72,1305.23c-1.75,2.22-4.06,2.4-6.58,1.8C390.92,1304.92,393.21,1304.68,395.72,1305.23Z"/><path class="clsWindow-4" d="M467.5,1129.66c.78-11.67-7.37-15.36-16.35-18.31a5.21,5.21,0,0,1-1.87.65c-1.06,2.85-4.64,1.2-6.81,4.61,7.65-1.54,8.52,6.54,13.83,8.22-10.42,6.43-21.9,5.08-33.33,4.1-1.74.38-3.45-1.65-6.63,1.14,7.65,2.58,6.08,8.79,6.28,14.45h0c-1.05,2.73-2.3,5.4-3.1,8.21-2.12,7.49-6.61,7.08-12.07,3.85a3.41,3.41,0,0,0,0,2.21c.08,3.67-.42,7.49,2.78,10.32.27,2.38.86,4.55,3.41,5.52,3.95,7.51,10.35,12,18.15,14.77.43-4.19-.87-7.94-2.93-11.49l36-.43c0-.93-.06-1.85-.1-2.78h0c.94-5,.31-10-2.76-14-4.24-5.6-3.22-10.82,0-16.23C463.17,1139.3,464.51,1134.17,467.5,1129.66Z"/><path class="clsWindow-12" d="M434.79,1110.86c-3.81-11,4.44-12.63,11.72-15,1.15-7.46,9.41-9.43,11.95-17.17,6.45,9.22,10.83-.13,16.18-.38,3.2,2.1.8,7.06,4.62,8.73l.18,3.12c-1.46.38-1.6,1.5-1.55,2.73l-3.9,3.17c-9.5,3.83-18.56,8.92-29.27,9-3.83,0-6,2.74-7,6.32l.17-.22Z"/><path class="clsWindow-4" d="M437.68,1111.37c1-3.58,3.21-6.3,7-6.32,10.71,0,19.77-5.14,29.27-9-1.3,4.59-2.59,9.18-4.13,14.63-6.57-3.87-12.38,1.49-18.71.64a5.21,5.21,0,0,1-1.87.65A21.68,21.68,0,0,0,437.68,1111.37Z"/><path class="clsWindow-4" d="M483.63,1071.14l11.72,6.48c-1.34-7.74,1-16.4-5.16-23.22-4.8,1.85-8,4.55-10.1,8.52h0c-4.35-2.08-4.92-4.94-1-7.72,2.79-2,4.38-4,3.52-7.4-8.83-.79-12.33,2.7-11.81,11.74,5.66,5.21-.59,6-3.1,7.57-4.61,2.9-6,.29-5.76-4.09-10.8,7.25-17.07,19.19-27.61,26.7-7.7,7.71-17.39,13.54-24.15,23.71l18.45.9c1.08-2.77,3.86-2.69,6.12-3.47-3.81-11,4.44-12.63,11.72-15,1.15-7.46,9.41-9.43,11.95-17.17,6.45,9.22,10.83-.13,16.18-.38,3.2,2.1.8,7.06,4.62,8.73C481.52,1082,477.26,1075.1,483.63,1071.14Z"/><path class="clsWindow-10" d="M471,1181c.16-7.75.23-15.54,11.52-18.71-1.4,8.89-2.52,16.11-11.78,18.46Z"/><path class="clsWindow-4" d="M477.89,1092.91c-.05-1.23.09-2.35,1.55-2.73C479.94,1091.67,479.22,1092.47,477.89,1092.91Z"/><path class="clsWindow-9" d="M537.64,1141.61c0-6.55,4.13-11.33,6.92-16.76,2.33,1.32,2.84,4.33,5.64,4.49-.29,1.83-1.25,3.74.66,5.29,5.38-1.84,4.85-7.77,7.82-11.28l6,.1c.43,6-6.1,9.9-5.14,16.06l8.15,2.32-3.18,2.65c-5.46,3.28-8.53,9.79-15.3,11.31-5.67,0-4.16-7.41-8.81-8.44l.1.17c-.52-2.7,4.13-4.48,1.39-7.61l-3.93,1.93Z"/><path class="clsWindow-8" d="M549.18,1155.79c6.77-1.52,9.84-8,15.3-11.31-4.17,12.08-6.27,25.45-19.57,32.73,1.52,12.15-3.56,22.48-13.57,30.74-.12-6,8.19-12.08,0-18.11,3.06-3.57,6.77-6.81,6.18-12.23l-.13.18c3.34-2.15,4.26-5.88,5.92-9.13a4.06,4.06,0,0,0,2.75-3.8q.78-2.71,1.55-5.43C548.13,1158.22,548.66,1157,549.18,1155.79Z"/><path class="clsWindow-4" d="M597.78,1095.88c-8.72,5-14.68-1.41-21.28-5.14l-10.84-4.49-1.11.64c-.14,3.37,1.35,6.27,2.71,9.19q.5,1.37.87,2.76l5.9.94a4.3,4.3,0,0,1,.88.07,4.3,4.3,0,0,0-.88-.07c0,.54-5.8,10.81-6.71,11.22-2.87-4.29,2.62-8.15.81-12.16q-.37-1.39-.87-2.76a3.35,3.35,0,0,0-3,3.42,2.19,2.19,0,0,1,.08,2.26l-2.82,9.11c0,1.08,0,2.16,0,3.24,2.37-.35,4.78-1,7,.93a8.8,8.8,0,0,1-3.88,8.41c.43,6-6.1,9.9-5.14,16.06l8.15,2.32-3.18,2.65c-4.17,12.08-6.27,25.45-19.57,32.73,1.52,12.15-3.56,22.48-13.57,30.74,0,1.17-.05,2.34-.08,3.51l.44,5.6c2.79,0,2.09,6.55,6.9,3.26,3.63-3.75-4-5-1.91-9.36,5.64,2.19,6-4.82,10.11-6.43,5.61-1.87,7.52-6.7,9.32-11.62a6.57,6.57,0,0,0,2.63-6.7c-1.35-3.65-9.36,1.21-8.42-6,2.84-2.13,5.32,1.51,8.08.57,9-6.11,16-20.13,15.27-30.4l2.8-2.79h0c8.32-8.09,12.53-18.65,15-29.38.82-3.55,6.48-8.73.38-13C593.45,1101.81,599.27,1101.18,597.78,1095.88Z"/><path class="clsWindow-6" d="M574,1099.78c0,.54-5.8,10.81-6.71,11.22-2.87-4.29,2.62-8.15.81-12.16Z"/><path class="clsWindow-5" d="M565.66,1086.25l-4.62-4.74c.43-.42.87-.83,1.31-1.24,4.27-.08,6.89,4.76,11.45,3.81l-.23-.12c-.35,2.33,1.5,2.61,3,3.22l-.06,3.56Z"/><path class="clsWindow-8" d="M432.45,1241.78c9-3,11.82-9.24,8.45-19.26l6.28,3.47c1.88,8,5.8,15.38,6.36,23.7-.27,2.42-1.27,5.1,2.19,6.21l-2,3.17c-1.13.41-3,.6-3.23,1.27-.36,1.28.91,2,2.34,2l-.22-.16c-2.18,4.65-5.6,7.91-11.67,10C432.59,1263.71,431.63,1253,432.45,1241.78Z"/><path class="clsWindow-8" d="M453.78,1259.07l2-3.17c.22-1.64,1.28-2.2,2.8-2.17.62,1.82,3.64,2.74,2,5.39-2.4,1.58-4.62,3.61-7.85,3.07l.22.16C453.19,1261.26,453.48,1260.17,453.78,1259.07Z"/><path class="clsWindow-1" d="M474.11,1246.91l2.73-2.79A3.29,3.29,0,0,1,474.11,1246.91Z"/><path class="clsWindow-6" d="M546.05,1164.86a4.06,4.06,0,0,1-2.75,3.8c-7.83-1.49-8.89.15-5.92,9.13l.13-.18c-4.14-1.42-7.22,1.13-7.17,4.31.07,4.45-3.8,4.81-5.31,7.38-5.27-3.26-.15-6.07.75-8.61,3.3-9.24,10.08-17,11.46-27.14,3.39-.88,2.55-3.9,3.13-6.2,4.65,1,3.14,8.48,8.81,8.44-.52,1.21-1,2.43-1.58,3.64-2.18-.27-5.1-1.71-5.91,1.38C540.93,1163.71,543.52,1164.63,546.05,1164.86Z"/><path class="clsWindow-9" d="M525,1189.3c1.51-2.57,5.38-2.93,5.31-7.38-.05-3.18,3-5.73,7.17-4.31.59,5.42-3.12,8.66-6.18,12.23Z"/><path class="clsWindow-4" d="M512.6,1183.07c.56-1.24,1.37-2.89,2.78-1.61s0,2.4-1.28,3.13C513.6,1184.08,513.11,1183.57,512.6,1183.07Z"/><path class="clsWindow-6" d="M534.37,1153.55c.36-.75.59-2,1.1-2.14,1.67-.4,1.69,1.11,1.95,2.23Z"/><path class="clsWindow-8" d="M433.93,951l-8.18,0c-5.32-5.31-10.23,6.06-16.69-.57,5.8-4.38,11.47-8.7,16.22-15.87C429.14,940.77,432.35,945.41,433.93,951Z"/><path class="clsWindow-8" d="M325.83,1005.17c-4.4,5.84-6.65,13.78-15.19,15.58C312,1011.93,318,1007.66,325.83,1005.17Z"/><path class="clsWindow-1" d="M313.89,972.06c2.67,1.19,8.8-.58,5.14,6C314.91,978.13,313.79,975.61,313.89,972.06Z"/><path class="clsWindow-1" d="M329.12,984.93a2.59,2.59,0,0,1,2.79,2.38Z"/><path class="clsWindow-10" d="M328.81,1002.2c.27,2.38-1,3.16-3.16,3.1C325.27,1002.81,326.67,1002.13,328.81,1002.2Z"/><path class="clsWindow-1" d="M298.57,1023.51c-.44-.48-.89-1-1.33-1.42.3.06.7,0,.87.22a4.57,4.57,0,0,1,.54,1.11Z"/><path class="clsWindow-4" d="M302.46,1024a5.22,5.22,0,0,1-4.42,2.73c.18-1.07.35-2.15.53-3.22l.08-.09Z"/><path class="clsWindow-9" d="M259.46,1020.4c1.56,10.61-4.27,11.31-12.24,9.13l.19.12c2.67-4.9,7.54-6.89,12.18-9.17Z"/><path class="clsWindow-9" d="M247.22,1029.53c1.09,2.45,4.52,4.92.94,7.55-2.58,1.9-4.36-.41-5.81-2.42a7.74,7.74,0,0,1,5.06-5Z"/><path class="clsWindow-5" d="M201.86,1119.78c6.2,2.88,2,8.59,3.48,12.76-3.36,7.72-3.5,15.92-3.61,24.12,0,.33-.62,1-.87.92a11.92,11.92,0,0,1-2.18-.8c-.65-12,2.49-23.85.92-35.84C200.36,1120.58,201.12,1120.19,201.86,1119.78Z"/><path class="clsWindow-1" d="M213.81,1193a4.13,4.13,0,0,1-.25,2.64l-1.18-.06-1.15.3c-.87-.16-1.74-.29-2.62-.37a1.87,1.87,0,0,1,.59-2.33Z"/><path class="clsWindow-4" d="M206.85,1089c2.54.74,4.36,2,3.38,5a2.13,2.13,0,0,1-3.31,1.15C204.61,1093.26,205.36,1091,206.85,1089Z"/><path class="clsWindow-4" d="M525.31,1054c-4.92-11.14,5.38-16.6,7.21-25.86,5.35,3.36,1.49,5.5,2.06,7.55-2.63,4.54-5.07,9.15-6.13,14.82l5-.4a8.72,8.72,0,0,1,1.88,1.76l-.84,5.05c-3.51.1-5.31-5-9.4-3.13Z"/><path class="clsWindow-4" d="M525.45,1017.29c1.91,8-2.47,12.36-9,15.47l-3.38-.16c2.52-6.42,10.27-8.57,12.48-15.25Z"/><path class="clsWindow-4" d="M532.89,1049.45c2-5,7.93-7.19,8.75-12.92,5.45,2,4.33,5.17,1.67,8.68l.16-.23c-4.05.63-5.44,5-8.89,6.42A8.75,8.75,0,0,0,532.89,1049.45Z"/><path class="clsWindow-4" d="M513.08,1032.6l3.38.16-4.52,5.32C509.71,1035.56,510.56,1033.89,513.08,1032.6Z"/><path class="clsWindow-1" d="M501,1029.74c.37-3.84,3.37-5.07,6.31-6.36C508.29,1028.59,505.79,1030.32,501,1029.74Z"/><path class="clsWindow-4" d="M239.23,1252.25c1.83,1.48,3.89,2.77,4.43,6.09-4.29,1.84-5.33-1.34-6.56-4.16C237.83,1253.56,238.55,1252.92,239.23,1252.25Z"/><path class="clsWindow-1" d="M253.43,1256.18c-.47-.4-.93-.8-.53-.45-.34-.41.06.06.46.52Z"/><path class="clsWindow-1" d="M241.32,1265.26l-1.48-1.47c.33.07.79,0,1,.24a4.53,4.53,0,0,1,.49,1.26Z"/><path class="clsWindow-1" d="M274.48,1075.16c2.94-3.24,3.83-8.38,8.92-9.63C282.58,1070.73,281.53,1075.73,274.48,1075.16Z"/><path class="clsWindow-10" d="M340.33,998.76c1.48-4.7,4.15-8.13,9.4-8.8l.86,1-9.08,8.91Z"/><path class="clsWindow-10" d="M350.7,987.86c2.9.29,6.62-2.54,8.33,2.21l-8.44.92-.86-1C350,989.24,350.35,988.54,350.7,987.86Z"/><path class="clsWindow-4" d="M194.74,1184.9c7-1,7.75,1.41,4.89,5.95C194.39,1191.43,196.19,1186.83,194.74,1184.9Z"/><path class="clsWindow-4" d="M200.55,1201.8c-2.15-.36-3.81-1.4-3.44-3.79a2.33,2.33,0,0,1,3.29-1.76,5.54,5.54,0,0,1,2.75,3.08C203.66,1201.09,202.16,1201.73,200.55,1201.8Z"/><path class="clsWindow-13" d="M208.61,1195.51c.88.08,1.75.21,2.62.37a26.38,26.38,0,0,1-1.21,3.52C207.65,1198.92,208.64,1197,208.61,1195.51Z"/><path class="clsWindow-13" d="M214.14,1210.87c-1.89-1-2.73-2.35-1.5-4.52,2.41,1.06,1.17,3.05,1.41,4.59Z"/><path class="clsWindow-8" d="M344,1265.18c2.46-5.06,5.81-9,12-9.07.59-4.25-1.22-7.47-5.09-8.86-3.3-1.19-4.43-3-3.9-6.16-4.61-.77-6.39-7.37-12-6-1.87,1.78-2.73,4.62-5.63,5.32-1.23,6.71,2.27,12.4,4.13,18.4.79,2.53,1.65,4.6-1.27,6.15-3.42-3.62-6.31-8.08-10.39-10.65-5.46-3.44-5.1-7.93-4.62-13h0a18.07,18.07,0,0,0,8.73-3.65,10.38,10.38,0,0,0-.17-2.78c-2.89-.3-7.18,1.11-5.74-4.6,2.75-1.62,3.75,1.91,5.9,1.85-.47-10.12-10.48-15.41-12.5-24.74-6.87,1.74-10.8,7.11-15,12.11l8.65,2c-12.06,5-4.64,12.33-5.7,18.54a2.59,2.59,0,0,0,.87,1.24l2.82,2.41-.42.52c6.18,10.59,10.94,21.84,15.43,33.22,2.07.36,4.61-.29,5.5,2.58-4.26,3.56-9,5.06-14.44,3.49,11,6.7,18.7,6.68,38.76-.06-2-6.36-9.15-8.78-11.49-14.36C339.14,1265.51,341.45,1265.13,344,1265.18Z"/><path class="clsWindow-5" d="M332.21,1265c-3.42-3.62-6.31-8.08-10.39-10.65-5.46-3.44-5.1-7.93-4.62-13a18.07,18.07,0,0,0,8.73-3.65,4.2,4.2,0,0,1,3.42,2.7c-1.23,6.71,2.27,12.4,4.13,18.4C334.27,1261.35,335.13,1263.42,332.21,1265Z"/><path class="clsWindow-4" d="M329.35,1240.42a4.2,4.2,0,0,0-3.42-2.7,10.38,10.38,0,0,0-.17-2.78h0l3.55-.39,5.81.41C333.15,1236.72,332.32,1239.7,329.35,1240.42Z"/><path class="clsWindow-5" d="M325.76,1234.94c-2.89-.3-7.18,1.11-5.74-4.6,2.75-1.62,3.75,1.91,5.9,1.85l-.19-.18a25.87,25.87,0,0,1,0,2.92Z"/><path class="clsWindow-8" d="M301.82,1244.17c.11-.93.24-1.86.38-2.79l2.82,2.41-.42.52A8.39,8.39,0,0,0,301.82,1244.17Z"/><path class="clsWindow-5" d="M449.83,951.1c.79-4.32-2.05-8.69.52-13.79,4.74,1.33,4.38,7,7.7,9.12-1.9,3.25-4.26,5.49-8.35,4.54Z"/><path class="clsWindow-5" d="M449.7,951c.15,1.32-.32,1.88-1.38,1.61,0,0,0-.77.17-.92a5,5,0,0,1,1.34-.56Z"/><path class="clsWindow-4" d="M437.67,960.09l-3,0,.1.11c0-2,1.44-2.68,3-3.22C437.72,958,437.7,959.05,437.67,960.09Z"/><path class="clsWindow-13" d="M294,1268.57l1.65,3C294.16,1271.08,292.69,1270.59,294,1268.57Z"/><path class="clsWindow-4" d="M485.78,1260.37c-6.31,6-12.39,11.73-17.8,16.84l2.86.2c-.12,1.15-.25,2.31-.37,3.46.1,3.83,2.39,7.6.36,11.51l.25.35c7.68-3.22,14.87-6.89,16.55-16.25.37-2,1.64-3.08,3.95-3.35,8-1,10.63-7.14,12.76-13.7C497.56,1253.74,489.54,1266.12,485.78,1260.37Z"/><path class="clsWindow-4" d="M576.56,1087.18c-1.49-.61-3.34-.89-3-3.22,3.16-2.27,3.6-5.2,2-8.59a3.91,3.91,0,0,0,1.63-1.27C583.42,1078.79,584.33,1083.2,576.56,1087.18Z"/><path class="clsWindow-1" d="M306.38,1000.62a9,9,0,0,1-2.47-1.33c-.92-1-.52-2,.85-2.09a7.83,7.83,0,0,1,2.57.79C307,998.87,306.7,999.74,306.38,1000.62Z"/><path class="clsWindow-5" d="M301.82,1244.17a8.39,8.39,0,0,1,2.78.14c6.18,10.59,10.94,21.84,15.43,33.22h0l-3.74.5a14.2,14.2,0,0,1-2.21-1.18,15.31,15.31,0,0,0-6.5-11.41c-4-6.71-7.32-13.87-13.8-18.43C295.93,1242.7,299.51,1245.73,301.82,1244.17Z"/><path class="clsWindow-5" d="M286.67,1256.28c.67-2.74-1.13-5.84,1.44-8.56,2.52,4.06,5.64,7.75,4.27,13.07-3.82.63-2.53-4.91-5.87-4.69Z"/><path class="clsWindow-4" d="M380.28,954.08,371.51,942c-6.94,4.14-14.57,5.54-20.44,10.3,1.74,3.39,5.35,1,6.65,4.37-2.23,2.75-5.42,5.55-4.54,10,.83,3.08,3.52,5.61,2.64,9.18a3.42,3.42,0,0,0-.1,1.71,21.84,21.84,0,0,0-1.11,2.41c-.06.18.47.83.71.82,5.86-.29,11.35-1.46,15.17-6.24-1.16-2.61-3.24-2.58-5.1-3,.59-3.78,1.19-7.55,1.87-11.89Z"/><path class="clsWindow-4" d="M465,981.68c-4.47-.6-1.8-4.16-2.6-6.28,0,0,2.23-1.08,1.53-2.94,3.67-.23,7.88-2.44,10.06,2.75-1.45.54-3.09.85-3.37,2.8l.27-.07c-2.45.24-4.61.92-5.52,3.55Z"/><path class="clsWindow-8" d="M475.78,965.38h-7.16C471.32,960.59,473.39,961.1,475.78,965.38Z"/><path class="clsWindow-13" d="M269.39,1224.59c.64-.4,1.26-1.1,1.79-1,.71.09,1.35.76,2,1.18-.38.27-.81.81-1.14.76A16.79,16.79,0,0,1,269.39,1224.59Z"/><path class="clsWindow-1" d="M519.22,1213.57c-.29.84-.34,2.09-.92,2.43-1.17.7-2.78.75-3.09-1-.1-.61,1-1.56,1.74-2.18C518,1211.9,518.83,1212.23,519.22,1213.57Z"/><path class="clsWindow-1" d="M515,1224.42c-.56.53-1.09,1.48-1.67,1.51-1.66.08-2.5-.93-2.18-2.64.25-1.34,1-1.68,2-.87A20.11,20.11,0,0,1,515,1224.42Z"/><path class="clsWindow-9" d="M458.53,1253.73c-1.52,0-2.58.53-2.8,2.17-3.46-1.11-2.46-3.79-2.19-6.21C455.86,1250.23,458,1251,458.53,1253.73Z"/><path class="clsWindow-4" d="M271.29,1287.3c-1.94,2.5-2.74,4.74-5,4-1.11-.35-2.64-2.17-2.49-3.08.27-1.7,1.54-3.58,3.87-2.92A17.22,17.22,0,0,1,271.29,1287.3Z"/><path class="clsWindow-13" d="M277.63,1291.82c2.66,1.5,3.44,3.85,3.07,6.72-2.34-.22-5.25.58-6.19-2.58C273.76,1293.47,275.68,1292.52,277.63,1291.82Z"/><path class="clsWindow-5" d="M575.6,1075.37c1.57,3.39,1.13,6.32-2,8.59l.23.12c-2.84-4.63-6.7-7.23-12.38-6.21l.18.17,2.9-5.33-9.11-.93.23.2c2-5.68,9.18-8.21,9-15.14C570.75,1061.57,568.55,1071.2,575.6,1075.37Z"/><path class="clsWindow-5" d="M561,1081.51c-4.89-1.78-9.23-4.21-11.22-9.44l5.8-.09-.23-.2c.79,3.36,3.46,4.85,6.21,6.26l-.18-.17a2.3,2.3,0,0,1,.93,2.4C561.91,1080.68,561.47,1081.09,561,1081.51Z"/><path class="clsWindow-4" d="M347.22,1241.14c-4.81-.61-6.53-7.59-12.4-6,2.58-5.35-1.9-8.74-3.62-12.88-2.34-5.64-7.72-10.31-5.52-17.39,5.79,2,4.13,10,9.64,12.21C336.14,1226.65,346.24,1231.64,347.22,1241.14Z"/><path class="clsWindow-8" d="M325.77,1234.93a25.87,25.87,0,0,0,0-2.92c1.86-.09,2.81,1.1,3.59,2.54Z"/><path class="clsWindow-1" d="M485.85,987.46a3.32,3.32,0,0,1,.8-2.82l2.21,3Z"/><path class="clsWindow-10" d="M359,990.07l-8.44.92-9.08,8.91-1.18-1.14L335,996.45c-2.12,1.91-5.66,2.29-6.27,5.82l5.44,1.06c-1.43,6-5.18,9.74-9.24,12.84-.29,4.28,3.06,6.52,5,9.47-2.49,1.4-5.57,1.15-6.36,3.9-.52,1.8-.23,3.84-.3,5.77,7.28,1.23,8.89-6.92,14.36-8.69q.42,1.39.9,2.79c9.81,1.76,3.83,9.73,5.74,14.6l-.31,1.16c8.44-10.73,12.06-22,3.5-33.69C348.58,1002.36,362.85,1001.31,359,990.07Z"/><path class="clsWindow-5" d="M368.47,1038.51c4.53,10.23,5.61,21.13,6.37,32.25-5.13,2.44-6.31-3.55-9.75-4.63-1.39-5.81-5.52-4-9.22-3.28l.32.21c-2.7-6.66-10.13-6.66-15.4-11,5.09-3,9.7-6.17,13.36-10.91C357.47,1036.83,362.82,1034.61,368.47,1038.51Z"/><path class="clsWindow-5" d="M360.53,1059c.27-.34.79-.7.76-1a13.72,13.72,0,0,0-.58-2.5c-.24.36-.69.73-.67,1.07A14.85,14.85,0,0,0,360.53,1059Z"/><path class="clsWindow-4" d="M354.89,1007.78c4.45-1.88,9.95,4.62,13.82-2.44,3.88,7.15,3.43,11.39-4,13.12.45,3.27,6,1.11,5.48,5.32-.5.7-1.08,2.16-1.57,2.13C358.37,1025.3,356.12,1022.37,354.89,1007.78Z"/><path class="clsWindow-4" d="M434.63,960.07c-8.93,6.78-19.16,10.4-30.11,12.2l-.13-.12c8.72-7.53,19.19-10.6,30.34-12Z"/><path class="clsWindow-8" d="M380.38,1038.42c-.76,1-1.53,2.08-2.3,3.11l-4.41-6.08C377.51,1032.83,379.3,1034.83,380.38,1038.42Z"/><path class="clsWindow-4" d="M425.69,954c1.76.08,3.72-.5,5,1.5-2.39,2.21-4,1.48-5.18-1.29Z"/><path class="clsWindow-4" d="M389.33,975.25c1.86-.14,3.85-.74,5.13,1.49-2.49,2-4.29,2-5.09-1.54Z"/><path class="clsWindow-4" d="M404.52,972.27l-1.43,2c-2-2.2.46-1.68,1.3-2.16Z"/><path class="clsWindow-9" d="M355.87,1062.85c3.7-.67,7.83-2.53,9.22,3.28l.05,3C362.33,1066.65,358,1066.32,355.87,1062.85Z"/><path class="clsWindow-4" d="M395.43,1104.94c-.32,1.84-1.2,3.13-3.23,3.28C392.69,1106.55,393.17,1104.87,395.43,1104.94Z"/><path class="clsWindow-13" d="M309.59,1123.16c.57-1,1.14-1.9,1.7-2.85C314.06,1123.24,310.6,1122.47,309.59,1123.16Z"/><path class="clsWindow-1" d="M291.83,1153.49c.52-.91,1.05-1.82,1.57-2.74C295.69,1153.29,292.54,1152.69,291.83,1153.49Z"/><path class="clsWindow-4" d="M347,1240.92l3.27,0c7.46,4.69,15.39,8.93,17.94,18.41-4.56.86-7.41-5.11-12.26-3.06.67-4.35-1.13-7.65-5.07-9.07C347.55,1246,346.44,1244.19,347,1240.92Z"/><path class="clsWindow-4" d="M371.46,1271.32c6.42-6.17-3.15-7.83-3.42-12.12,6.1.42,12.18,4,18.28,0q-5.77,6.13-11.57,12.26Z"/><path class="clsWindow-1" d="M350.23,1199.2c-7-2.17-15.12,2.53-21.51-3.46l30.62.06a3.83,3.83,0,0,1-3.41,3.61A6.66,6.66,0,0,0,350.23,1199.2Z"/><path class="clsWindow-1" d="M368.2,1189.75l4,0c-3.11,4.75-7.75,6.24-13.13,6.19C361,1192.2,365.58,1192.44,368.2,1189.75Z"/><path class="clsWindow-4" d="M392.19,1253.09c3.2-.71,5.41-4.4,9.29-3.12-1.15,4.72-4,7.08-9,6.41C392.4,1255.28,392.29,1254.19,392.19,1253.09Z"/><path class="clsWindow-4" d="M392.59,1256.24c0,2.14-1.68,2.57-3.2,3.17l-3.05-.18C387.75,1256.83,389.76,1255.69,392.59,1256.24Z"/><path class="clsWindow-5" d="M355.93,1199.41a6.66,6.66,0,0,0-5.7-.21c-6.94-2.15-15,2.44-21.33-3.3-5.34,1.61-2.36,5.92-2.93,9.09,5.42,2.2,3.95,9.86,9.35,12.08.81,9.5,10.75,14.49,11.86,23.85l3.13,0c3.63-2.42,1.18-4.92.31-7.63-1.52-4.74-6.58-7.56-6.8-12.92l.66-.74a3.08,3.08,0,0,0,2.6-2.92c-.06-2.34.13-4.58,2.38-6,3,3.28,5.65,3.85,6.4-1.51C356.3,1206,355.93,1202.69,355.93,1199.41Z"/><path class="clsWindow-4" d="M531.25,1060.4l3.26-.69c-.23,1.08-.47,2.16-.71,3.24Z"/><path class="clsWindow-7" d="M331,1147.16c-12.33-8-7.23-18.46-7.64-29.66C335.5,1126.25,329.69,1136.81,331,1147.16Z"/><path class="clsWindow-8" d="M401.4,1056.5c-1.44-1.55-2.89-3.09-4.5-4.83l7.52-4c.62,2.87-1.35,6.7,3.77,8.66,2.7-3.64,2.18-7.82,2.23-11.85l-.29.08c3.54.79,7,1.3,4.63,6.62-1.12,2.56-.8,5.75-1.13,8.65l-.09,0c-2.18-.2-3.17.78-3,3l0,.1-3.22,0,.13,0C407.2,1059.15,402.49,1059.51,401.4,1056.5Z"/><path class="clsWindow-4" d="M432.27,1225.58l2.35-2.23Z"/><path class="clsWindow-7" d="M397.53,1013.31l9.44.75,6.67,3.42a8.33,8.33,0,0,0,5.86,2.73c3.19.29,4.14,4.79,1.36,6.49-6.19,3.79-12.23,7.59-15.44,13.11a3.25,3.25,0,0,1-2.95,1.69c-4.47-.26-5.65-2.91-7.36-5a3.74,3.74,0,0,1-.84-2.7c.1-1.13.21-2.27.32-3.41a3.42,3.42,0,0,1,2.46-3c9.61-2.54,10.4-3.11,5.68-7.2a3.06,3.06,0,0,0-3.7-.31l-.14.09c-2.69,1.69-5.9-1.3-4.65-4.36a1.17,1.17,0,0,0,.05-.11A3.23,3.23,0,0,1,397.53,1013.31Z"/><path class="clsWindow-5" d="M388.73,1081.51c-3.06-4.36-5.37-7.32-4-11.75C389.86,1071.6,389.35,1075.4,388.73,1081.51Z"/><path class="clsWindow-1" d="M482.85,990.53c-.19-2.43,1.29-3.22,3.36-3.4C486.44,989.59,484.89,990.3,482.85,990.53Z"/><path class="clsWindow-1" d="M479.88,993.78c-.13-2.35,1.05-3.49,3.33-3.61C483,992.18,481.3,992.86,479.88,993.78Z"/><path class="clsWindow-1" d="M471.17,984.31c1.17,1,4.66-.19,3.5,2.73-1.25,3.18-3.74,4.15-6.21.65C470.54,987.5,471.58,986.48,471.17,984.31Z"/><path class="clsWindow-8" d="M473.49,1006.05c-1.69-.6-2.8-1.55-2.11-3.56A3.17,3.17,0,0,1,473.49,1006.05Z"/><path class="clsWindow-4" d="M401.4,1056.5c1.09,3,5.8,2.65,6.05,6.47-5.12-1.87-12.56,1.75-15-6.36Z"/><path class="clsWindow-9" d="M385.76,1042.6c.26,2.76.53,5.52.79,8.27C382.4,1048.49,383.43,1045.61,385.76,1042.6Z"/><path class="clsWindow-9" d="M386.32,1050.53c3.55.68,5.29,3.14,6.28,6.35C388.57,1056.68,384.61,1056.41,386.32,1050.53Z"/><path class="clsWindow-1" d="M434.79,1110.86l3.06.29c-2.07,3.93-5.76,3.38-9.26,3.38C429.61,1111.55,432.47,1111.66,434.79,1110.86Z"/><path class="clsWindow-1" d="M390.13,1171.54l-3.73,6.8c-2.15-.69-3.22-2.06-2.3-4.28C385.24,1171.33,387.62,1171.19,390.13,1171.54Z"/><path class="clsWindow-1" d="M402.48,1186a2.56,2.56,0,0,0-1.09-2.41l1.73-1.3A3,3,0,0,1,402.48,1186Z"/><path class="clsWindow-10" d="M338.48,1029.41c9.81,1.76,3.83,9.73,5.74,14.6l-11.66-4.41C332,1034.22,337.31,1033.07,338.48,1029.41Z"/><path class="clsWindow-4" d="M448.08,1065.57c-8-2.1-14.44-6.5-18.66-13.92a1.19,1.19,0,0,0-.89-.6l-2.08-.25a1.18,1.18,0,0,0-1.23.69c-.11.25-.22.45-.31.44-.86-.06-.69-.48.47-1a1.21,1.21,0,0,0,.47-.37c1.62-2.11,3.28-3.59,5.22-.73l6.33-2v-.16a1.21,1.21,0,0,0-.32-.76,7.19,7.19,0,0,1-1.36-2.35c-3.35-8.81-14.85-11.31-21.82-5a16,16,0,0,0-3,3.5,1.2,1.2,0,0,0,.75,1.78c2.92.7,5.17,1.72,3.16,6.29-.9,2.06-.87,4.52-1,6.91,0,.84-.27.38-.14,1.74,0,0,.87-.36-.09,0-2.18-.2-3.17.78-3,3l0,.1-3.22,0L405,1069l1.18.07,1.19-.08v34.71c5.84-1.55,8.38-4.11,9.41-8.21,1.4,0,2.7-.25,2.87-2-.1-2.26-.21-4.52-.31-6.77.24-.83.22-2.75.45-2.53,2.92-1.22,5.86-6.43,6.11-6.45,4.29-.43,3.51,2.1,3.21,4.34a1.2,1.2,0,0,0,1.91,1.11c6.32-4.74,12.62-9.52,17.71-15.64A1.2,1.2,0,0,0,448.08,1065.57Z"/><path class="clsWindow-1" d="M334.67,1074.62l-1.45-.15-1.33.58.63-4.72C336.09,1070.33,333.89,1073.22,334.67,1074.62Z"/><path class="clsWindow-8" d="M561.5,1110.87c0,1.08,0,2.16,0,3.24q-1.41,4.62-2.83,9.24c-3,3.51-2.44,9.44-7.82,11.28-1.91-1.55-1-3.46-.66-5.29Z"/><path class="clsWindow-1" d="M564.24,1099.5a2.19,2.19,0,0,1,.08,2.26c-2.49.31-5,.56-7.28-1C559.26,1098.63,561.8,1099.38,564.24,1099.5Z"/><path class="clsWindow-6" d="M537.93,1141.84l3.93-1.93c2.74,3.13-1.91,4.91-1.39,7.61C536.52,1147,538,1144.06,537.93,1141.84Z"/><path class="clsWindow-4" d="M431.19,1281c1,6.39-6.23,8.66-7.13,14.11-7.31,4.68-15.43,3.8-23.4,3.13-10.2-.86-20.21-6.28-30.3,1.26-2.83-7.22-1-10.08,4.05-10.11,10.54-.08,21.21-.54,31.59.93,8.53,1.2,13.48-1.3,16.56-8.83C423.58,1281.42,429.31,1280.69,431.19,1281Z"/><path class="clsWindow-5" d="M401,1273.82l-3.43,3.43c-4.52-1.34-8.09,3.29-13.64,2,3.48-5.9,9.47-6.85,14.4-9C400.91,1269.1,401,1271.9,401,1273.82Z"/><path class="clsWindow-4" d="M371.46,1271.32l3.29.18c-.69,4.14-2.72,7.28-6.7,9C367.46,1276.77,369.18,1273.94,371.46,1271.32Z"/><path class="clsWindow-9" d="M314.07,1276.86a14.2,14.2,0,0,0,2.21,1.18c1.62,2.57,2.88,2.51,3.74-.5h0c2.07.36,4.61-.29,5.5,2.58-4.32,3.61-9.14,5.11-14.69,3.43l-3.21-6.21Z"/><path class="clsWindow-4" d="M356.23,1256.1c-2.07,5.8-7.22,7.52-12.33,9.29C346.41,1260.16,349.81,1256.13,356.23,1256.1Z"/><path class="clsWindow-8" d="M435.47,1277.53c1.59-6.76-5.16-5.81-7.49-8,1-7.91,1.75-15.27-1.52-22.43-6.38-4.6-12.64.91-19,.27-.88,3.22-3.38,3.25-6.08,2.87-1.17,4.54-4,6.82-8.84,6.19-.08,2-1.7,2.44-3.18,3l-3.05-.18h0q-5.77,6.13-11.57,12.26c-.68,4-2.64,7.13-6.44,8.84-.08,6.37-5.72,11.4-4.65,18.2,1.37.91,2.54,2.32,3.81,2.43,13.87,1.16,27.83,0,41.68,3.27,6.24,1.5,12.61-2,17-7.47C431.74,1291.57,439.87,1287.59,435.47,1277.53Zm-37.18-7.3c2.62-1.13,2.67,1.67,2.67,3.59-3.46,3.68-.46-.32-3.43,3.43-4.52-1.34-8.09,3.29-13.64,2C387.37,1273.31,393.36,1272.36,398.29,1270.23Zm25.77,24.88c-7.31,4.68-15.43,3.8-23.4,3.13-10.2-.86-20.21-6.28-30.3,1.26-2.83-7.22-1-10.08,4.05-10.11,10.54-.08,21.21-.54,31.59.93,8.53,1.2,13.48-1.3,16.56-8.83,1-.07,6.75-.8,8.63-.49C432.16,1287.39,425,1289.66,424.06,1295.11Z"/><path class="clsWindow-4" d="M401.23,1250.18c.85-3.59,3.6-3.4,6.36-3.21C406.78,1250.64,404.1,1250.59,401.23,1250.18Z"/><path class="clsWindow-6" d="M558.68,1123.35q1.41-4.62,2.83-9.24c2.37-.35,4.78-1,7,.93a8.8,8.8,0,0,1-3.88,8.41Z"/><path class="clsWindow-9" d="M537.38,1177.79c-3-9-1.91-10.62,5.92-9.13C541.64,1171.91,540.72,1175.64,537.38,1177.79Z"/><path class="clsWindow-9" d="M546.05,1164.86c-2.53-.23-5.12-1.15-4.36-4,.81-3.09,3.73-1.65,5.91-1.38Z"/><path class="clsWindow-4" d="M562.35,1080.27a2.3,2.3,0,0,0-.93-2.4c5.68-1,9.54,1.58,12.38,6.21C569.24,1085,566.62,1080.19,562.35,1080.27Z"/><path class="clsWindow-9" d="M453.78,1259.07c-.3,1.1-.59,2.19-.89,3.28-1.43,0-2.7-.73-2.34-2C450.74,1259.67,452.65,1259.48,453.78,1259.07Z"/><path class="clsWindow-8" d="M320,1277.54c-.86,3-2.12,3.07-3.74.5Z"/><path class="clsWindow-4" d="M561.6,1078c-2.75-1.41-5.42-2.9-6.21-6.26l9.11.93Z"/><path class="clsWindow-4" d="M534.28,1059.91c0-1.09,0-2.19.05-3.29,2.56.16,5.9-1.19,6.25,3.23Z"/><path class="clsWindow-4" d="M410.42,1044.51c-.05,4,.47,8.21-2.23,11.85-5.12-2-3.15-5.79-3.77-8.66C406.43,1046.67,407.44,1043.74,410.42,1044.51Z"/></g></g></g></svg>