<svg id="Layer_1" data-name="Layer 1" xmlns="http://www.w3.org/2000/svg" viewBox="0 0 1525 1525"><defs><style>.clsWindow-5{fill:#cacbad;}.clsWindow-18{fill:#97200b;}.clsWindow-8{fill:#999373;}.clsWindow-16{fill:#7b8874;}.clsWindow-3{fill:#94928d;}.clsWindow-14{fill:#005bab;}.clsWindow-4{fill:#595337;}.clsWindow-7{fill:#cd3412;}.clsWindow-17{fill:#d4858f;}.clsWindow-9{fill:#5d4430;}.clsWindow-19{fill:#421a20;}.clsWindow-1{fill:#191835;}.clsWindow-13{fill:#371912;}.clsWindow-2{fill:#29586a;}.clsWindow-10{fill:#beaf64;}.clsWindow-20{fill:#009597;}.clsWindow-12{fill:#b5ad9d;}</style></defs><title>Artboard 1outerCircle1</title><g id="WindowParts"><g id="outerCircle"><g id="co1"><path class="clsWindow-5" d="M760.37,374.29l.25,5.37c-8.54.73-13.1-7.89-20.89-8.9.7-3.47.69-6.75-2.44-9.2-10.21,2.47-10.5,2.26-12.23-9l4.81,5.15c2.53-2,5.71-3,5.68-7-3.2-2.81-6.53-5.72-10.56-9.24-.36,3.75-.6,6.22-.84,8.69-6.4-2.1-6.67-8.29-8.82-13.22l.09-5H719c1.22,3.35,2,1.71,2.75-.24.07-1.1.13-2.2.2-3.3,3.58-.4,5.91,2.6,9.08,3.32l-.14-.14c.18,3.35.35,6.7.58,11.08,4.75-3.4,5.74,2.45,8.9,2.75,2.78.26,1.89-2.46,2.15-4.1,7.47,5,3.27,13.79,7.22,19.42-2.25,2-4.45-1.49-5.82,1.47,2.28,5.11,9,.85,11.43,5.41-1.8.23-3.7.24-4.87,2.1A16.13,16.13,0,0,0,760.37,374.29Z"/><path class="clsWindow-18" d="M663.9,323.21c.19-3.41.39-6.83.55-9.73,1-.75,1.28-1.15,1.66-1.25,20.31-5.57,28.54,8.65,37,22.56.31,1.15.63,2.3.94,3.44l-.27-.56a3.17,3.17,0,0,0-2.76,2.76c-3.3,1.62-6.37,4.07-10.45,2.84-6.59-8.1-13.43-16-21.76-22.8-2.47,4.68-.64,8.78-1.29,12.7a11.45,11.45,0,0,0-.32,2.4C663.9,332,664.9,327.36,663.9,323.21Z"/><path class="clsWindow-8" d="M615.82,301.35c3.73,4.88,8.43,1.29,12.53.89,3.85,5.79,6,11.74,7.95,17.74l-2.75,3.21c-1.78-1.52-2-4.62-6.1-5.18-.51,9.2,4.72,16.73,6.42,25l-6.69,3.44c-7.68-10.64-10.55-23.41-16.39-35.72Z"/><path class="clsWindow-16" d="M754.92,277.45c3.12-2.06,5.42-2.47,5.41,2.47,0,15.82,0,31.65,0,47.37-2.53,2.91-5.48,1.73-8.33,1.3a6.32,6.32,0,0,0-.6-2.56l.81-9c3.85-4.71,2.12-9.33-.29-14-.7,2.09,1.1,4.45-1.08,6.46-3.52-1.2-3.93-4.75-5.37-7.53C742.19,291.25,749.32,284.65,754.92,277.45Z"/><path class="clsWindow-16" d="M755.3,367.53c-2.47-4.56-9.15-.3-11.43-5.41,1.37-3,3.57.56,5.82-1.47-4-5.63.25-14.4-7.22-19.42-3.66-3.5-6.61-7.85-11.63-9.73l.14.14c5.91-7.19,12.21.69,18.27-.46l8.51.66C758.08,343.82,760.84,356,755.3,367.53Z"/><path class="clsWindow-3" d="M884.61,394.78c-5.32,2.78-2.54,13.44-11.94,12.25l.14.35c2.2-4.68-2.65-7.74-2.73-11.89,4.57-5.34,6.71-11.83,9.25-18.25,2-4.95,4.36-11.56,8.42-13.45,6.54-3,7.55-8.57,10.39-13.47,4.53,3.36,2.38,7.41,1.18,11.36a14.55,14.55,0,0,0-5,9.57,13.09,13.09,0,0,0-.85,2.31,3.44,3.44,0,0,0-1.94,3.79,4.24,4.24,0,0,1-3.68,2.52c-1.29-2.56-3.23-1.95-4-.11-1.65,3.73,1.94,2.9,3.71,3.59A5.21,5.21,0,0,1,888,386C884.52,388,885.37,391.71,884.61,394.78Z"/><path class="clsWindow-18" d="M903,259.08c-15.9,5.74-28.81-2-30.31-18.07,7.09-1.13,13.52,1.54,20.21,3.13C901.24,246.13,904.36,250.91,903,259.08Z"/><path class="clsWindow-14" d="M663.9,323.21c1,4.15,0,8.81,3.26,12.36-1.68,7.43,4,16.94-6.73,23.51-3-11.74-6.17-21.94-5.37-33.05.31-4.24,1.55-9.13-2.45-12.74.38-7.09,3.58-6.36,7.09-2.2C662.53,314.45,659.16,320.29,663.9,323.21Z"/><path class="clsWindow-16" d="M721.55,297.81c3.07,5.67,7.31,6.61,12.81,3.38,3-1.76,5.51-2.09,5,2.77C732,305.74,734,314.06,729,318.21c6.57,0,11.5,3.71,17.28,4.63-5.13,6.52-10.66-.61-16,.46l-5.5-1,.33.14c-7.42-5.51-3.32-17.12-13.6-22.16Z"/><path class="clsWindow-4" d="M918.24,295.48c-3.65-2.35-6.65-5.69-11.62-7,4-11.88,8-23.47,11.94-35,5.39,7.1,4.29,14.06-.49,20.92-.06,1.8,1,2.83,2.44,3.65a3.38,3.38,0,0,0,.06,1.7c-1.74,3.15-6.82,0-8.16,4.34,2.05,3.77,6.39,6.45,5.69,11.52Z"/><path class="clsWindow-4" d="M836.71,268.3l.16-15.15c5.41,1.61,8.11,4.07,9,8.46l5.47-2.42c.4,3.37-.55,7.3,3.76,9-1.55,5.85-6.16,1.95-9.25,2.91C843,269.73,840.2,267.82,836.71,268.3Z"/><path class="clsWindow-7" d="M646.3,313.58c-8.36-3.48-8.68-8.88-3.64-15.65-2.84-1.82-8-.27-8.37-5.64,3.68-2.39,7.39-4.62,11.94-2.12-.5,4.4,1.62,8,3.69,11.55Z"/><path class="clsWindow-8" d="M755.3,367.53c5.54-11.57,2.78-23.71,2.46-35.69,3.75,1.08,3.65,4.23,3.59,7.12-.25,11.77-.64,23.55-1,35.33a16.13,16.13,0,0,1-9.94-4.66C751.6,367.77,753.5,367.76,755.3,367.53Z"/><path class="clsWindow-17" d="M912.47,253c-4,9.05-8,18.08-11.91,27.15-1.51,3.47-3,3.37-4.69.18,1.63-7.3,8.69-12.65,7.49-21,2.38-1.38,1.75-4.16,2.84-6.13C908.08,249.81,910.26,249.92,912.47,253Z"/><path class="clsWindow-8" d="M730.27,323.3c5.3-1.07,10.83,6.06,16-.46q2.58,1.59,5.15,3.19a6.32,6.32,0,0,1,.6,2.56l-2.73,2.59c-6.06,1.15-12.36-6.73-18.27.46-3.17-.72-5.5-3.72-9.08-3.32l-.42-5.38,3.62-.46-.33-.14C725.9,326.71,728,325.72,730.27,323.3Z"/><path class="clsWindow-14" d="M649.92,301.72c-2.07-3.58-4.19-7.15-3.69-11.55.46-2.53,1.26-4.8,5.11-5.68,6.28,5,3.85,11.69,2.69,18.14Z"/><path class="clsWindow-3" d="M851.35,259.19l-5.47,2.42c-.9-4.39-3.6-6.85-9-8.46.62-6.87,5.72-2.36,8.64-3.4A22.81,22.81,0,0,1,851.35,259.19Z"/><path class="clsWindow-9" d="M899.32,361.68l3.56.1.22.21c.51,4.84-1.55,8.93-3.74,13-1.4-1.62-2.59-3.54-5.05-3.73A14.55,14.55,0,0,1,899.32,361.68Z"/><path class="clsWindow-19" d="M863.11,253.09c.25,3.06.49,6.12.74,9.18l-6.6-3.59C858.56,256.15,855.2,248.72,863.11,253.09Z"/><path class="clsWindow-8" d="M713,332a15,15,0,0,1,2.42-.1l-.09,5L704,338.23c-.31-1.14-.63-2.29-.94-3.44.14-1.67.71-3,2.52-3.5C707.51,337.66,710.31,334.15,713,332Z"/><path class="clsWindow-16" d="M721.48,322.94l-10-3.34-4.61,9.16c-.4.85-.82,1.69-1.25,2.53,1.92,6.37,4.72,2.86,7.41.67a15,15,0,0,1,2.42-.1H719c.92,0,1.84-.12,2.75-.24l.2-3.3Z"/><path class="clsWindow-9" d="M887.51,383.35c-1.77-.69-5.36.14-3.71-3.59.81-1.84,2.75-2.45,4,.11Z"/><path class="clsWindow-8" d="M613.41,296.07c2.39,1.15,1.4,3.89,2.65,5.58C613.28,300.69,613.47,298.32,613.41,296.07Z"/><path class="clsWindow-9" d="M891.52,377.35a3.44,3.44,0,0,1,1.94-3.79A3.6,3.6,0,0,1,891.52,377.35Z"/><path class="clsWindow-1" d="M920.51,278c-1.4-.82-2.5-1.85-2.44-3.65A3.17,3.17,0,0,1,920.51,278Z"/><path class="clsWindow-1" d="M870.08,395.49c.08,4.15,4.93,7.21,2.73,11.89-12.71-.9-24.06-7-36.35-9.5-.09-.67-.17-1.35-.23-2l3.18-.7c8.08,0,8.28-6.23,10.48-13.31l-9.75-8.17c1.88.33,4,.17,5.6,1.06,7.77,4.45,9.57,1.38,8.18-6.14a5.28,5.28,0,0,1,1.81-1.28c3.07-1.27,5.84,4.59,9.27.16-.9-3.9-4.55-7.21-3.6-11.81l3.21.58c5.94,6,4.18-4.63,7.82-3.63l6.86,3.55c-6.94,10.2-11.15,21.73-16,32.95-1.76.37-4.5,0-3.76,2.91.53,2.08.92,5.18,4.7,4.2A43.56,43.56,0,0,1,870.08,395.49Z"/><path class="clsWindow-14" d="M849.36,347l8.79-.63c3.9,2.14,1.91,6.32,3.25,9.35-.95,4.6,2.7,7.91,3.6,11.81-3.43,4.43-6.2-1.43-9.27-.16C852.87,360.76,848.15,354.78,849.36,347Z"/><path class="clsWindow-7" d="M853.92,368.6c1.39,7.52-.41,10.59-8.18,6.14-1.56-.89-3.72-.73-5.6-1.06l-.27-.43c-3-6.41-1.55-11.09,5.58-13.8C849.86,360.89,849.45,367.11,853.92,368.6Z"/><path class="clsWindow-7" d="M848.58,304.53a3.52,3.52,0,0,0-3.05-3,7,7,0,0,1-2.91-.49c-7.18,2.15-12.37-5.4-19.23-4.21-2.11,2.28-1.13,4.85-1.43,7.19,2.28,1.27,2.87,3.35,2.74,5.78,5.39,11.72,14.48,5.65,22,5.45C849.34,311.4,848.47,307.9,848.58,304.53Z"/><path class="clsWindow-7" d="M690.53,343.27c-3.82.6-8.28.3-8.57,6l.15-.14c-4.73-.81-5.36,5.79-10.06,5.49-3.53-6.69-.47-14.86-4.57-21.43.65-3.92-1.18-8,1.29-12.7C677.1,327.31,683.94,335.17,690.53,343.27Z"/><path class="clsWindow-5" d="M633.55,323.19,636.3,320c1.74,6.43,5.87,12.17,6.3,20.08C635.46,335.7,636.37,328.48,633.55,323.19Z"/><path class="clsWindow-5" d="M812.13,344c-3,.79-1.3,6.42-5.8,5.74l-2.86-9.19c3.38-11.43,1.36-15.36-10.75-20.94-1.88-8.26-8.11-15.2-7.41-24.24,6.84-1.86,4.11,8.58,8.74,8.16,4.41-1.13,1.52-6.71,6.51-6.33l8.82,7.07c-6,4-3.16,8,.06,12,0,1.1,0,2.2,0,3.3C803,328.55,812.7,335.71,812.13,344Z"/><path class="clsWindow-17" d="M893.35,292.48a6.92,6.92,0,0,0,.83-2.69c3.65-.41,5.27.49,3.38,4.49-1.58,3.36-2.8,6.51-6.19,1.46l-.42-.06A2.73,2.73,0,0,0,893.35,292.48Z"/><path class="clsWindow-1" d="M857.34,274.17c-.24,5.26,1.87,10.89-2.56,15.45C855.47,284.45,852.69,278.69,857.34,274.17Z"/><path class="clsWindow-16" d="M725.69,366.91c-6.56-5.19-12.68-11.14-19.83-15.33-5.66-3.32-2.24-7.27-2.75-11a9.91,9.91,0,0,0,.63-2.94l.27.56,11.32-1.33c2.15,4.93,2.42,11.12,8.82,13.22a9.81,9.81,0,0,1,.91,2.42c1.73,11.28,2,11.49,12.23,9,3.13,2.45,3.14,5.73,2.44,9.2C734.19,372.6,730.32,368.36,725.69,366.91Z"/><path class="clsWindow-8" d="M730.84,331.5c5,1.88,8,6.23,11.63,9.73-.26,1.64.63,4.36-2.15,4.1-3.16-.3-4.15-6.15-8.9-2.75C731.19,338.2,731,334.85,730.84,331.5Z"/><path class="clsWindow-8" d="M719,331.86c.92,0,1.84-.12,2.75-.24C721,333.57,720.17,335.21,719,331.86Z"/><path class="clsWindow-1" d="M703.74,337.67a9.91,9.91,0,0,1-.63,2.94,19.12,19.12,0,0,0-2.13-.18A3.17,3.17,0,0,1,703.74,337.67Z"/><path class="clsWindow-19" d="M890.44,343.45l3,.49a9.42,9.42,0,0,1,.61,2.72c-.09,1-.18,2-.26,3.06-2.63-1-5-2.36-5.43-5.54A7.83,7.83,0,0,1,890.44,343.45Z"/><path class="clsWindow-4" d="M752.19,317l-9.49-.63c-4.14-3.82,0-8.2-2.36-11.55l5.11-2.92c1.44,2.78,1.85,6.33,5.37,7.53,2.18-2,.38-4.37,1.08-6.46C754.31,307.65,756,312.27,752.19,317Z"/><path class="clsWindow-9" d="M888.39,344.18c.45,3.18,2.8,4.5,5.43,5.54l4.32.6c-2.84,4.9-3.85,10.44-10.39,13.47-4.06,1.89-6.46,8.5-8.42,13.45-2.54,6.42-4.68,12.91-9.25,18.25a43.56,43.56,0,0,0-5.84.74c-3.78,1-4.17-2.12-4.7-4.2-.74-2.92,2-2.54,3.76-2.91a4.53,4.53,0,0,0,.78,1.23c.31.27,1.1.53,1.22.39,8.37-9.66,11.64-21.85,16.42-33.28,0-2.6,0-5.19.07-7.79l-.09.15c2.85-.9,3.29-3,2.89-5.62Z"/><path class="clsWindow-1" d="M909.07,352.76c-1.66.33-3.24,2.64-4.94.37a2.55,2.55,0,0,1,.64-2.4c2.23-1.21,3.48.09,4.22,2.14Z"/><path class="clsWindow-1" d="M730.27,323.3c-2.31,2.42-4.37,3.41-5.5-1Z"/><path class="clsWindow-5" d="M881.72,357.46c-4.78,11.43-8.05,23.62-16.42,33.28-.12.14-.91-.12-1.22-.39a4.53,4.53,0,0,1-.78-1.23c4.84-11.22,9.05-22.75,16-32.95A4,4,0,0,1,881.72,357.46Z"/><path class="clsWindow-16" d="M822.42,312.75h0l-1.95-7.52c-2.81-7-10.16-10.11-13.79-16.39-7.41-4.36-16.51-.43-23.91-4.85-1.42,4.29.6,7.82,2.54,11.38,6.84-1.86,4.11,8.58,8.74,8.16,4.41-1.13,1.52-6.71,6.51-6.33l8.82,7.07c2.88,2.85,7.75,3.9,8.1,9l4,.23h0c-2,3.42-6,3.71-8.86,5.7a18.28,18.28,0,0,1-.43-2.94l-1.37-.16-1.36.2c0,1.1,0,2.2,0,3.3a16.41,16.41,0,0,1,2.48.47c4.36,9.59,8-2.58,12.18-.39l.43-6.51C823.81,313,823.12,312.87,822.42,312.75Z"/><path class="clsWindow-19" d="M884.59,344.2c-3.08.74-3,3.12-2.9,5.48-3,.36-5.7-.79-8.31-2.14q-.48,2.55-1,5.08l6.86,3.55a4,4,0,0,1,2.43,1.29l.06-7.68C884.55,348.87,885,346.75,884.59,344.2Z"/><path class="clsWindow-5" d="M812.6,319.21a18.28,18.28,0,0,1-.43-2.94,7,7,0,0,1,5.31-3l4,.23C819.48,316.93,815.5,317.22,812.6,319.21Z"/><path class="clsWindow-4" d="M817.48,313.28a7,7,0,0,0-5.31,3l-1.37-.16-1.36.2c-3.22-4-6-8-.06-12C812.26,307.12,817.13,308.17,817.48,313.28Z"/><path class="clsWindow-1" d="M905.05,225c-10.18-9.1-23-2.67-33.95-6.61-2,4.83-2.13,8.59.73,13.33,10.79-.39,20.31,8.06,31.68,7.14C907.18,233.94,906.09,229.56,905.05,225Z"/><path class="clsWindow-1" d="M667.52,238.4c-15,.95-15.4,1.39-11.87,12.62C659,246.09,664.69,245,667.52,238.4Z"/><path class="clsWindow-1" d="M653.05,279.85c-.51-5.23-1-10.45-1.75-18.08C647.89,269.54,642.76,274.8,653.05,279.85Z"/><path class="clsWindow-1" d="M644.41,263c.9-6.19,4-12.36.15-19.25C640.3,250.71,643.72,256.93,644.41,263Z"/><path class="clsWindow-1" d="M855.83,236.24c-2.1,5.4-.64,8,3.57,9.89C861.47,241.33,860.23,238.59,855.83,236.24Z"/><path class="clsWindow-13" d="M640.46,222.45c-5-5.63-11.58-6.68-17.5-5.45-6.69-4.16-1.37-11.62-6.54-15.19l-.9-3.7,7.54-31.9c-4.24-.56-4.18,2.21-5.64,3.33-2.11-2.06-1.07-6-4.24-7.43l3.42-8.55a15.66,15.66,0,0,0,4.92-11.38c-4.29-.52-9.19-1.15-8.58-7.36-1.75-5.91,3.41-8.22,6.13-11.8l1.39.23,1.38-.28,5.81,3.62c2.59,5.43,4.77-1.35,7.21-.24a5.64,5.64,0,0,1,5.59,2.36,2.8,2.8,0,0,0-.3,1.88A30.8,30.8,0,0,0,631,144.28c-3.84,5.05-7.34,10.23-8.81,17.73l5.79-2.36,2.29,3.14c2.86,2.65,5,6.59,9.85,5.75l6,2.79,3.28.72L649,177c-5,2.8-6.44,7.69-6.82,12.76C641.4,200.62,641,211.54,640.46,222.45Z"/><path class="clsWindow-8" d="M637.21,352.42c1.79-2.42,4.4-4.56,1.8-9.89,9.27,6.29,12.32,14.66,16.15,22.46l.14-.16c-5.87,4-6.18,10.73-8,16.82,4.94,5.82,11,3.12,17,1.44l-.15-.17c1.35,1.45-.45,4.81,3.73,5,1.31.06,7.3,3.62,2.19,7.91l-10-2.9L651.19,401c-6.27,1.62-4.3-9.57-11.13-6l.13.23c-1-3.53,1.47-9.22-5.59-9l-4.64.1a2.87,2.87,0,0,1-1.69-3.4c2.9-1.85,1.19-2.37-.81-2.81a2.69,2.69,0,0,1-2-3.21l3.23-.17,5.64-3.08c0,2.5-1.18-14.14-5.94-20.31-1.45-1.88.59-3.39,2.82-3.66l3.06,3.06c.78,1.39-1.09,5.34,3.06,3.43C639.46,355.24,639.35,353.63,637.21,352.42Z"/><path class="clsWindow-18" d="M630.29,162.79,628,159.65q1.63-5.86,3.29-11.75c4.83-4.81,9.46-9.72,8.86-17.31a2.8,2.8,0,0,1,.3-1.88l1,.62c8-6.52,13.38-15.7,22.28-21.23,2.57.09,5.32-.21,6.5,3a4.32,4.32,0,0,0-2.81,3.85C655,126,653.13,141.68,649.61,156.63a19.11,19.11,0,0,0-3.48,14.7l-6-2.79c-.26-2.4-.14-4.92-.89-7.15s-2.6-4.39-5.37-4.12C630.74,157.58,631,160.59,630.29,162.79Z"/><path class="clsWindow-1" d="M922.86,289.25c-2-3-1.46-6.37-2.29-9.52-1.74,3.15-6.82,0-8.16,4.34,2,3.72,6.27,6.38,5.7,11.32-3.59-2.34-6.58-5.62-11.49-6.88,4-11.88,8-23.47,11.94-35l-6.09-.47c-4,9.05-8,18.08-11.91,27.15-1.51,3.47-3,3.37-4.69.18-1.79,1.33-2.17,3.29-2.38,5.32l.69,4.15c3.65-.41,5.27.49,3.38,4.49-1.58,3.36-2.8,6.51-6.19,1.46-3.13,1-3.31,3.5-3.25,6.15,7.29,4.11,2.2,7.8-.4,11.57l2.95,2.17,5.55.3a26.81,26.81,0,0,1,5.33-10.85c4,1.49,6.51,7.23,12,4.6,6.57-3.12,3.32-9.3,4.63-14.05l1,.4,1.17-.31C923.65,294.48,925,292.29,922.86,289.25Z"/><path class="clsWindow-2" d="M688.81,210.85c-3.15,5.54-7.19,10.08-14.22,9.1-7.33-1-10.44,8.23-19.32,6.25V195.73c9.47.18,1.9-7.55,4.5-10.29l7.41,1.36c-1.35,6.65-1.14,11.63,7.57,13.51C680.33,201.52,687.53,202.87,688.81,210.85Z"/><path class="clsWindow-13" d="M857.67,268.52c-.85-.11-1.7-.21-2.56-.29-1.55,5.85-6.16,1.95-9.25,2.91-.49,7.61-1.82,14.95-5.12,21.67l-4-.36V268.3l.16-15.15c.62-6.87,5.72-2.36,8.64-3.4-3.53-4.68-8.22-2.49-12.6-2.13v35.93c-9.57,2.86-18,2.82-26.48,2.82.12.82.2,1.65.25,2.47,3.63,6.28,11,9.42,13.79,16.39l1.95,7.52c.7.12,1.39.26,2.09.43.06-1.13.13-2.26.19-3.38.13-2.43-.46-4.51-2.74-5.78.3-2.34-.68-4.91,1.43-7.19,6.86-1.19,12.05,6.36,19.23,4.21,5.94-1.82,8.43-7.43,12.45-11.37l-.29-.05c.69-5.17-2.09-10.93,2.56-15.45Z"/><path class="clsWindow-13" d="M824.55,290.69c3.17,1.62,4.94,4.59,9.42,3.36C832.54,287.73,829,289.06,824.55,290.69Z"/><path class="clsWindow-14" d="M821.42,213.94c-.74-3.29-1.48-6.59-2.35-10.43,10.8-4.5,21.08.58,31.44.67,5.75,4.94,2.41,13.55,7.5,18.77-7.13,5.08-23.8,4.13-30.12-1.39C825.3,219.3,825.06,215.2,821.42,213.94Z"/><path class="clsWindow-1" d="M615.52,198.11l.9,3.7-.56,0c-7.36,3.81-8,8.13-2.91,18.6,0,.7,0,1.41,0,2.12-6.48,6.18-.86,12.33,0,18.5-3.47-.11-7.41,1.11-9.26-3.4,0-12.29.19-24.58.08-36.87,0-2.12,2-6.41-3.47-5.13-3.24.4-5.6-1.9-8.43-2.76l-3,.13q1.59-7.93,3.16-15.87c6.47.61,6.3-4,6.51-8.29h7.85a6.36,6.36,0,0,1,.07,2.57c-6.25,8.29.82,14.44,3.42,21.31h0C611.29,195,612.5,197.5,615.52,198.11Z"/><path class="clsWindow-5" d="M872.67,407c2.09,4.42,7.85,3.73,10.44,7.46-1.73,7.83-6.57,11.48-14.61,10.83-5.23-3.91,2.17-7.7.38-11.78-7.26,2.33-3,14-12.56,14.71-5.17-6.88,4.51-13.23.82-21.11-3.86,6.16-3.11,13.25-8,17.71-7.08,1-6.52-4.15-6.8-8.57,4.19-2.07,1.17-10.67,9.57-9.53-4-1.5-7.48-5.8-10.13.54a13.8,13.8,0,0,1-2.86-.41c3.08-4.06-6-4.8-2.46-9,12.29,2.52,23.64,8.6,36.35,9.5Z"/><path class="clsWindow-1" d="M812.76,60.05c4.6-3.95,7.67-.6,11,1.7-.7,6.69-5.1,10.76-8.18,15.53-5.71-1.7-11.33-3.81-17.14-4.94-3.43-.67-8-3.18-10.26,2.41-3.61.84-6-1.88-9-3-3-5-7.72-2-11.7-2.49.1-4.08,4.24-5.81,5.38-9.28l38.42,7Z"/><path class="clsWindow-18" d="M905.05,225c1,4.6,2.13,9-1.54,13.86-11.37.92-20.89-7.53-31.68-7.14-2.86-4.74-2.75-8.5-.73-13.33C882.06,222.29,894.87,215.86,905.05,225Z"/><path class="clsWindow-16" d="M616.19,280.31l-5.54-2.16c-.79,5.14,3.89,9.11,2.25,14-5.4,1.93-.61,7.47-4,10.54-9.16-4.87-7.13-14.93-10.62-22.36,2.17-4.53,14.52-4.39,5.4-13.71-3.94-4-.13-12,5.46-11.67,4.63.3,7.85-7,12.65-1.73a4.17,4.17,0,0,1,0,1.86c0,1.45.44,4,0,4.18-12.68,4.19-7.48,13.22-5.92,21.25Z"/><path class="clsWindow-10" d="M724.33,149.18,713,150a1.94,1.94,0,0,0-.94-1.21c.88-2.95,2.24-5.1,5.78-5.7,10.13-1.73,15.1-9.2,18.93-17.77,12.8-.22,15,1.7,15,13.08,0,2.45-.22,4.9-.34,7.35C746.8,147.85,728.52,149.18,724.33,149.18Z"/><path class="clsWindow-7" d="M621.84,255.09a4.17,4.17,0,0,0,0-1.86c3.14-8.5,9.94-6,17.24-5.84,1.38,11,2.74,21.61,4.07,32.27.81,6.5-3.46,7.24-8.33,7.28-.85-5-1.54-10.14-6.82-12.81l.18.28C627.43,267.52,625.91,260.89,621.84,255.09Z"/><path class="clsWindow-8" d="M812.76,60.05,811.26,67l-38.42-7,0,0-.32-3.15c.76-4.23.54-9.19,6.7-9.6,11.48-.75,21.8,3.44,31.94,8C812.09,55.64,810.45,58.94,812.76,60.05Z"/><path class="clsWindow-4" d="M860.63,90.46c-9.87-.65-29.14-12.77-34-21.39,1.48-6.74,4.94-7.51,10.79-4.34,10.14,5.5,19.17,12.39,28,19.75Z"/><path class="clsWindow-20" d="M914.87,208.16a5.05,5.05,0,0,0-3.16-3.69c2.91-11.37-3.28-21.95-2.91-33.1l.06.17,6.58-.34c4,2.2,1.34,10.4,8.64,9.68,5,4.65,9.55,2.29,15.19-1.66-1.16,8.37-2.73,14.55-12.36,13.77-2.76-.23-4.85.7-5.49,3.7l-1,8.73-5.65,2.52Z"/><path class="clsWindow-8" d="M732.09,162.13c7.07,5.09,14.73,6.79,23.16,4.06,3.65,4.72,1.72,9-1.19,13.05-2.48,3.45-5.25,6.71-7.89,10-3.59.78-6.5-1.33-9.69-2.29l0-.08c-5.73-7.24,4.95-8.38,5.83-13.61l-7-3.91c-2.61,4.88-6.76,8.53-7.72,14H723c1.26-6.33,4.52-11.44,7.36-17.05-3.89-2.2-8.82-.33-12.45-3.17Z"/><path class="clsWindow-8" d="M818.27,243.92c.4,4.78-1.35,9-3.68,13-7.47-5.38-7,8.1-13.25,5.59.75,1.81,1.51,3.61,2.26,5.42C795.84,276,791.31,265,785,264.74a11.72,11.72,0,0,1,.6-2.88,9,9,0,0,0,2.87.29c4.5-1.84,3.21-5.19,2.22-8.47,3.93-1.67,7,2.74,10.78,1.65,1.09-2.12-.48-3.43-1.36-4.94,2.77-.53,5.81.81,8.4-1.27-2.92-7.31-12.1-9.59-14.24-17.54l8.76,1C807.48,237.15,810.92,243.17,818.27,243.92Z"/><path class="clsWindow-8" d="M772.94,180.47c5.76,1.78,3.21,6.57,3.39,10.11.33,6.21-1.65,12.55.88,19.3,4.41-6.69-.3-14.63,4.48-20.54l2.76,2.35,1,30.23c-4.7.05-2.7-4.5-4.72-6.57-3,.44-5.18,4.22-8.29,2.84C764.78,205.45,762.21,192.76,772.94,180.47Z"/><path class="clsWindow-10" d="M640.46,222.45c.56-10.91.94-21.83,1.75-32.73.38-5.07,1.84-10,6.82-12.76l5.51.71c.72,6.12-3,11.86-1.55,18.05-2.15,9.29-.21,19.58-6.8,27.78l-5.74-1Z"/><path class="clsWindow-5" d="M924.08,180.88c-7.3.72-4.6-7.48-8.64-9.68-.26-1.07-.52-2.14-.79-3.2a5.6,5.6,0,0,0,0-2c-.22-4.36-3.6-8.11-2.45-12.74,2.54-.48,5.68,2.25,7.83-1.85-4.22-6.65-6.54-5.17-7.75,1.93-3.84-.49-2.91-5.66-6.39-6.52,1.16-4.94,10.6.31,9.35-7.59,8,1.41,7.47,9.05,10.06,14.25,2.34,4.73,3.76,9.92,5.58,14.9a5.33,5.33,0,0,0,2.42,6.05c-.13,2.39.37,5.08-2.88,6-2-2.35-4-3.06-5.86.22Z"/><path class="clsWindow-16" d="M712.85,56.38c13-8.27,28-5.52,41.57-9.31,2.3,5.2-1.63,9.11,1.17,12.62-4.62,7.17-13.86,0-18.83,6.07l-11.59.68c-1.81-1.21-5.15.26-5.74-3.14,1.32-3.43,8.77,2.1,7.29-5.37C722.46,55,717.36,58,712.85,56.38Z"/><path class="clsWindow-16" d="M735.39,54.07c-1.54.08-2.94.62-3.41,2.14-.58,1.88.86,2.79,2.33,3,2,.34,4.15,0,4.16-2.69C738.47,54.91,736.79,54.44,735.39,54.07Z"/><path class="clsWindow-16" d="M748.48,56.27c-.26-1.78-1.52-2.13-3-1.83-.79.17-2,.7-2.12,1.29-.42,1.62.72,2.55,2.22,2.79S748.2,57.86,748.48,56.27Z"/><path class="clsWindow-1" d="M694.32,268c7.57-1,5-7.19,6-11.56,1.59-7-2.59-14.92,3.5-21.16v31.94l5.53-2.2c1.7,8.4-9,10.82-8.9,18.42l.16-.2c-4.6.9-5.23,6.44-9.07,8.07-4.14-1.19-1.85-6.41-5.34-7.76A39.37,39.37,0,0,1,694.32,268Z"/><path class="clsWindow-3" d="M751.77,189.1c9.51-5,4.89,3.63,6.24,6.5l-14.84,5.28c.59,6.49,3.48,11.08,5.72,15.9.14,7.58-5.11,6-9.64,5.69a4.36,4.36,0,0,1,1.12-2c1.87-.37,4.06,0,5.18-2.3-3.66-3.7-3.95-11.23-11.74-10.32a19.73,19.73,0,0,1,.87-2.41c1.69-.25,4.19,0,3.06-2.83-.53-1.33-1.85-3.72-4-1.08l-8.84.53c-3.31.1-5.85,3.43-9.46,2.25,0-1,0-2,0-3.06,2.85-4.62,8-6.15,12.13-9.06C738.6,197.58,746.44,196.58,751.77,189.1Z"/><path class="clsWindow-7" d="M749.5,104.57c-5.41,10.56-12.42,19.77-26.72,21.9-5,.74-6.91,3.39-8.17,7-4.4-2-7-6.5-12.47-7-1.08,0-2.15.09-3.23.17,4.63-6.2,21.4-4.23,14.4-17.64l29.2-5.66Z"/><path class="clsWindow-14" d="M857.34,274.17l.33-5.65c2.69-3.41,1-6.62-.42-9.84l6.6,3.59-.19-.22c5.42,15.81.13,31.23-.93,46.68-5.79,1.36-8.56-.84-8.65-5.72-.08-4.44.63-8.9,1-13.34l-.29-.05C859.21,285.06,857.1,279.43,857.34,274.17Z"/><path class="clsWindow-4" d="M899.32,361.68c1.2-3.95,3.35-8-1.18-11.36l-4.32-.6c.08-1,.17-2,.26-3.06,9.94,2,14.75-3.32,17.29-12C920,345,919.76,346.46,909,352.87c-.74-2.05-2-3.35-4.22-2.14a2.55,2.55,0,0,0-.64,2.4c1.7,2.27,3.28,0,4.94-.37,4.53,12.57-4.21,20.64-8.79,30.79-5-3.77-1.91-6.12-.92-8.57,2.19-4.06,4-13.65,3.52-13.2Z"/><path class="clsWindow-4" d="M627.65,126.59,621.84,123c.89-5,11.46-7.8,3.41-14.87,4.33-8,11.71-12.64,19.18-17.89,1.74,3,3.37,5.75,5,8.53C642.54,108.32,631.7,114.8,627.65,126.59Z"/><path class="clsWindow-5" d="M685,286.21c.12,2.19-.75,3.77-3.61,5-5.71-19.58-4.44-38.39,3.85-56.82,5.73,5.32,2,11.08.92,16.81-.87,4.37-3.33,9.81,4.66,10.32a3.77,3.77,0,0,1-2.46,3.69c-7.16.58-7,3.92-3.24,8.62C684.72,278,679.28,282,685,286.21Z"/><path class="clsWindow-5" d="M667.19,400.43l6.16,0c-.06,1.15-.11,2.3-.17,3.45a11.64,11.64,0,0,0-2.39,1.07c-6.72-.35-12.65,1.85-19.39,5.85,13.74-.83,8.5,8.79,9.89,14.55-13.51-.93-15.91-3-19.78-17.21C649.45,403.52,658.57,402.79,667.19,400.43Z"/><path class="clsWindow-5" d="M706.57,394.6,722.52,393c2.54,2.25,2,5.35,2.4,8.17-9.31-2.29-18.54,4.56-27.87.23-1.8.65-5.74-1-4,3.47s3,9.1.28,14c-6.2-3.43-4.65-9.47-5.7-14.5.62-2.72,0-6.06,3.75-7.16Z"/><path class="clsWindow-8" d="M748.89,216.78c-2.24-4.82-5.13-9.41-5.72-15.9L758,195.6c3.91,4.51,2.92,10.12,2.87,15.25C760.79,219.22,758.7,220.05,748.89,216.78Z"/><path class="clsWindow-5" d="M920.45,205.42l1-8.73,11.78,2c-.05,5.49,2.31,12.2-7,12.94-.77.06.25,2.27,1.54,2.93-1.17,4.66,1.08,5.84,5.21,5.1-.2,2.31-.39,4.62-.59,6.92-11.71-2.62-6.06,7.22-8.21,11.45l-3.56.3-.2-28.18Z"/><path class="clsWindow-16" d="M797,412.77a3.91,3.91,0,0,1-3.69-3c2.05-3.68,1.77-7.39.16-11.11-.12-1.46-.23-2.93-.18-2.34-.47-3.16.16-3.49,1.46-3.7,9.41-1.54,10.94,9,17.74,11.46-1.78,3.86,2.51,9.27-3.11,12.16-2-3.29-7.21-3.65-6.8-8.46C798.7,408.09,798,410.55,797,412.77Z"/><path class="clsWindow-7" d="M915.21,139.23c1.25,7.9-8.19,2.65-9.35,7.59-3.42-2.72-5.67-6.09-6-10.58,0-1.51,0-3,0-4.53.6-4.85-2-6.07-6.19-5.4l.16.29c1.15-2.93,2.5-5.68,6-6.46,4.15-.31,9,.8,7.16,5.44-1.33,3.47-1.13,3.16,1.7,3.75C914,130.43,915,134.59,915.21,139.23Z"/><path class="clsWindow-4" d="M606.42,168.82h-7.85l-.89-3.47-.07.13c6.64-7.8,11-16.4,9.45-27.06.67-3.31,3.4-3.24,5.88-3.59-.61,6.21,4.29,6.84,8.58,7.36a15.66,15.66,0,0,1-4.92,11.38c-.78-1.4-2.2-2.47-3.19-.88a22.3,22.3,0,0,0-3.66,12.86l.14-.2C608.87,165.42,606.59,167.7,606.42,168.82Z"/><path class="clsWindow-4" d="M591.92,192.84c2.83.86,5.19,3.16,8.43,2.76l-2,39.23-3.72.24C590.39,221.21,592.45,206.94,591.92,192.84Z"/><path class="clsWindow-12" d="M767.1,389.16c4.39-.49,9.07-2.17,12,3-.93,7,2.73,14.89-3.19,20.93-5.06-.68-2.11-5-4.11-6.79-2.47.75.15,5.64-4.75,4.87Z"/><path class="clsWindow-16" d="M697.05,401.36c9.33,4.33,18.56-2.52,27.87-.23.64,3.06,1.13,6.11-.61,9-3.11.18-6.55-.71-8.65,2.69-2.31.33-3.15,3.65-6,2.93-.44-2.18.76-4.77-1.61-6.54-2.18,3.23-4.83,2.52-7.57,1h0a3.8,3.8,0,0,0-2.94-3Q697.3,404.28,697.05,401.36Z"/><path class="clsWindow-4" d="M800.07,250.39c-11.06-1.47-14.19-8.18-12.1-18.33,2.1.05,3.87-4.27,6.26-.48,2.14,7.95,11.32,10.23,14.24,17.54C805.88,251.2,802.84,249.86,800.07,250.39Z"/><path class="clsWindow-8" d="M809.34,416.19c5.62-2.89,1.33-8.3,3.11-12.16l-.19.28c4.12-4.57,8.66-8,15.32-5.63.07,1.12.15,2.23.22,3.35-5.42,4.9-3.26,11.27-3.34,17.2C819.25,419.05,813.51,421.55,809.34,416.19Z"/><path class="clsWindow-8" d="M817.07,416.12c3.08,1,3.52-.63,3.86-2s-.16-2.87-1.85-3.07-2.45,1.21-3,2.57C815.21,415.65,816.79,416,817.07,416.12Z"/><path class="clsWindow-4" d="M696.9,241.73c-2.68,6.4-6.68,12.4-6.07,19.81-8-.51-5.53-6-4.66-10.32,1.13-5.73,4.81-11.49-.92-16.81C694,231,696.09,232.28,696.9,241.73Z"/><path class="clsWindow-3" d="M736.76,65.76c5-6.08,14.21,1.1,18.83-6.07,3.23,3.65,5.37,7.71,4.8,12.79l-14.71-1.1C743.74,67.86,738,70.38,736.76,65.76Z"/><path class="clsWindow-8" d="M673.18,403.86c.06-1.15.11-2.3.17-3.45,3.66-2.15,7.47-5.34,8,2.67.1,1.47,2.6,2.77,4,4.15-.76,4.66,2.12,9.85-1.66,14-4.92,1.54-6.56-1.12-7.39-4.91C675.39,412.12,677,407.32,673.18,403.86Z"/><path class="clsWindow-14" d="M721.54,262.15l6.27.12,5.2,4.66c-6.13,6.05-15.19,7.14-21.07,13.24l-8.17.51C709.3,274.12,716.9,269.56,721.54,262.15Z"/><path class="clsWindow-5" d="M598.34,234.83l2-39.23c5.51-1.28,3.45,3,3.47,5.13.11,12.29,0,24.58-.08,36.87Z"/><path class="clsWindow-16" d="M721.55,280.91c-2.55,3.36-7.17,6.16-3,11.3-6.11,3.38-12.72,3.78-19.43,3.69-.92-4.08,2.49-5.09,4.12-7.19l12.88-8.06Z"/><path class="clsWindow-3" d="M627.65,126.59c4.05-11.79,14.89-18.27,21.77-27.85,5.24.45,4.19,2.87,1.57,5.44-6.63,6.49-14.55,12-16.13,22.17C632.42,125.24,630.24,132,627.65,126.59Z"/><path class="clsWindow-13" d="M709.56,174.49a8.06,8.06,0,0,1-.09-2.77l-.61-1.22a6.36,6.36,0,0,0-2.4,1.12c-2.84,3.21-4.86,6.78-3.71,10.72-4.83,1.91-7.26-2.12-10.68-1.53,1.15,4.19,5.38,5.27,8.3,7.59-9,11.39-14,11.79-24.1,2.3-1.76-1.66-3.72-3.11-5.59-4.65l-1.44.16-1.46-.07c-2.11-6.43-6.18-9.79-13.24-8.47.72,6.12-3,11.86-1.55,18.05l1.14,0,1.14,0c9.47.18,1.9-7.55,4.5-10.29l7.41,1.36c-1.35,6.65-1.14,11.63,7.57,13.51,5.58,1.21,12.78,2.56,14.06,10.54l3.21.09,7.22-12.66,2.29,3.51c2.75,2,.22,11.09,8.13,6.12l0-5.62C704.18,193,708.63,183.76,709.56,174.49Z"/><path class="clsWindow-18" d="M897.62,159.46c-10.73.65-22.17-2-30.56,8.29-2.18,2.68-1,4.32-.71,6.53l-5.62-.29c-4.85,8.72,3.48,16.15,2.41,24.5a3.54,3.54,0,0,0,.69,1.45c2.74-4.82,8.87-3.16,12.38-6.5,2.45-.26,5.13-.13,5.66-3.49l.56-.84c-.83-3.72-2.55-7.63,2.3-10.07a6.14,6.14,0,0,1,6.8.36c4.61,3.31,1.58,6.8.21,10.25a1.62,1.62,0,0,0,1.43.47c5.19-1.56,2.37-8.48,7.94-10.82L906.2,193a8.1,8.1,0,0,0,2-.25c-.12-7.46-2.83-14.39-4.72-21.23,2.1-2.28,3.65.67,5.36-.11l.06.17C909.08,163.82,899.18,165.52,897.62,159.46Z"/><path class="clsWindow-18" d="M634,232.23c-3.75,8.16-11,5.78-17.41,5.76l-.3-9.23,5.65-5.62,0-.09a3.8,3.8,0,0,0,3.18,2.79l.07,0C626.62,230,629.7,231.93,634,232.23Z"/><path class="clsWindow-8" d="M777.32,165.44c5.29,6.95-5,9.6-4.22,15.29-2.26-.42-5.63.12-5.64-3.14,0-5.17-2-10.29-.39-15.48C770.87,162,774,163.92,777.32,165.44Z"/><path class="clsWindow-5" d="M591.92,192.84c.53,14.1-1.53,28.37,2.7,42.23-4.84,2.89-5.63.07-6.11-4-1.5-12.72-.45-25.39.39-38.08Z"/><path class="clsWindow-3" d="M915.68,210.33,912,240.86c-6.91-10.47-2.3-21.44-1.21-32.23,0-.29,2.67-.32,4.09-.47l-.07-.22A13.42,13.42,0,0,0,915.68,210.33Z"/><path class="clsWindow-7" d="M721.54,81c5.06-.4,9.85-.26,11.59,5.89-7.47,0-14.72.79-20.47,6.36l.09,0c-3.72-2.18-3.16-5.83-3.18-9.28l-.1.12c4-1.43,9.12,1.11,12.35-3.3Z"/><path class="clsWindow-7" d="M893.17,190.12c5.19-1.56,2.37-8.48,7.94-10.82L906.2,193C900.86,196.59,896.21,197,893.17,190.12Z"/><path class="clsWindow-8" d="M661.29,425.33c-1.39-5.76,3.85-15.38-9.89-14.55,6.74-4,12.67-6.2,19.39-5.85a2,2,0,0,1-.17,1.82c-9,3.44-5.83,9.72-3.72,15.77Z"/><path class="clsWindow-14" d="M788.18,74.75c2.25-5.59,6.83-3.08,10.26-2.41,5.81,1.13,11.43,3.24,17.14,4.94a16.67,16.67,0,0,0,2.87.61c1,1.87,1.91,3.74,2.87,5.6C810.09,81.27,799.78,75.54,788.18,74.75Z"/><path class="clsWindow-3" d="M908.8,171.37c-.37,11.15,5.82,21.73,2.91,33.1-5-2.75-1.63-8.06-3.55-11.76-.12-7.46-2.83-14.39-4.72-21.23C905.54,169.2,907.09,172.15,908.8,171.37Z"/><path class="clsWindow-16" d="M666.9,422.52c-2.11-6-5.25-12.33,3.72-15.77,3.82,3.34,3,8,3,12.18C673.64,423.5,671,424.7,666.9,422.52Z"/><path class="clsWindow-2" d="M882.43,189.11c-.83-3.72-2.55-7.63,2.3-10.07a6.14,6.14,0,0,1,6.8.36c4.61,3.31,1.58,6.8.21,10.25C888.55,191.11,885.49,190,882.43,189.11Z"/><path class="clsWindow-2" d="M667.52,238.4C664.69,245,659,246.09,655.65,251,652.12,239.79,652.56,239.35,667.52,238.4Z"/><path class="clsWindow-14" d="M709.35,265l-5.53,2.2V235.29C710.46,244.31,705,255.59,709.35,265Z"/><path class="clsWindow-9" d="M884.61,394.78c.76-3.07-.09-6.74,3.35-8.79l6.25.51c-1.5,6.72-4.94,12.46-9,17.9C885,401.19,884.81,398,884.61,394.78Z"/><path class="clsWindow-8" d="M607.06,138.41c1.55,10.66-2.81,19.26-9.45,27.06C596.67,155,603.91,147.43,607.06,138.41Z"/><path class="clsWindow-16" d="M838.92,406.88a13.8,13.8,0,0,0,2.86.41c-.59,3.07-1.17,6.13-1.75,9.2-3.49,8.2-6.37.12-9.54-.36l.19.28c-.4-3.41,1-6.34,2.23-9.39C834.92,402,836.9,405.72,838.92,406.88Z"/><path class="clsWindow-5" d="M751.86,231.84c-6.07,0-11.55-2.77-18.46.88-3.81,2-11.66-3.61-16.87,1.89,0,4.71,3.24,7.49,4.94,10.91-8.64,6.23-8.4,12.43.22,16.79,2.69-4.42,4.31-10,1.5-14.66,4.7,2.53,9.8,4.15,14.55,6.73,8.32,4.53,11.21,2.36,14.35-8.61C749.81,241.17,748.05,236.55,751.86,231.84Z"/><path class="clsWindow-3" d="M613,220.38c-5.12-10.47-4.45-14.79,2.91-18.6q-.3,8.94-.61,17.87A3.16,3.16,0,0,0,613,220.38Z"/><path class="clsWindow-16" d="M692,210.94l7.22-12.66,2.29,3.51c-1.69,6.85-6.44,12.54-6.57,20.48C689.15,218.75,692.65,214.45,692,210.94Z"/><path class="clsWindow-3" d="M782.26,398.31c1.39-1.11,2.21-3.15,5.53-2.61,2.87,5.46,1,11.37-.09,17.25-3.33.33-5.68-.58-5.61-4.5C782.15,405.07,782.2,401.69,782.26,398.31Z"/><path class="clsWindow-5" d="M767,374c5.61-.3,8.48,4.87,13.1,6.27.62,3.45-3.72,2.86-3.87,5.43-5.78,2-4.94-5.37-8.72-6.19Z"/><path class="clsWindow-14" d="M653.05,279.85c-10.29-5.05-5.16-10.31-1.75-18.08C652,269.4,652.54,274.62,653.05,279.85Z"/><path class="clsWindow-4" d="M885.22,404.4c4-5.44,7.49-11.18,9-17.9,5.46,9.81-3.28,15.21-6.31,22.31C884.58,408.24,885.21,406.17,885.22,404.4Z"/><path class="clsWindow-5" d="M630,386.38l4.64-.1,5.59,9-.13-.23c.48,2.76,1,5.51,1.77,10.3C632.58,400.41,632.07,392.91,630,386.38Z"/><path class="clsWindow-8" d="M888,104.72c-1.15,2.15-1.74,4.77-4.44,5.54-4.43-1.17-3.64-7.21-8-8.29l.42-6,3.15-.58c3.1,1.11,4.62,3.61,5.7,6.5a3.68,3.68,0,0,0,3.27,3.21Z"/><path class="clsWindow-3" d="M616.24,228.76l.3,9.23c-.57,1.72-1.54,3-3.54,3-.91-6.17-6.53-12.32,0-18.5C615.63,223.76,615.87,226.29,616.24,228.76Z"/><path class="clsWindow-5" d="M748.23,394.85l3.58.35c2.13,4.69,1.7,9.1-1.15,13.65-7.11-3.1-3.92-9.18-4.8-13.87l1-.26Z"/><path class="clsWindow-4" d="M932.39,226.59a5.18,5.18,0,0,1,.25,2c-1.85,1.74-3,3.74-2.39,6.41l-.54,3.31-5.53-.3C926.33,233.81,920.68,224,932.39,226.59Z"/><path class="clsWindow-9" d="M712.66,93.2c5.75-5.57,13-6.33,20.47-6.36.23,1,.45,2.07.68,3.1C726.81,91.36,720,93.64,712.66,93.2Z"/><path class="clsWindow-4" d="M840,416.49c.58-3.07,1.16-6.13,1.75-9.2,2.65-6.34,6.09-2,10.13-.54-8.4-1.14-5.38,7.46-9.57,9.53C841.57,416.36,840.8,416.44,840,416.49Z"/><path class="clsWindow-5" d="M824.46,419.23c.08-5.93-2.08-12.3,3.34-17.2a2.48,2.48,0,0,1,2.31-.47c3,4.84-6.88,10.18.57,14.85l-.19-.28C829.31,418.77,827.24,419.69,824.46,419.23Z"/><path class="clsWindow-1" d="M716.09,280.65l-12.88,8.06-2.6-5.46-.16.2,3.32-2.77,8.17-.51Z"/><path class="clsWindow-5" d="M700.51,410.27c2.74,1.47,5.39,2.18,7.57-1,2.37,1.77,1.17,4.36,1.61,6.54a17.07,17.07,0,0,0-4.23.64c-2.22.94-4.46,2.45-6.46.17C696.79,414.05,700.78,412.58,700.51,410.27Z"/><path class="clsWindow-3" d="M760.29,147.18c-5.39.78-7.25-1.58-5.5-6.58.9-2.58,4.37-4,3.52-7.47C763.16,137.23,759.19,142.56,760.29,147.18Z"/><path class="clsWindow-19" d="M777.32,165.44c-3.28-1.52-6.45-3.4-10.25-3.33,2.11-1.66.75-7.93,6.44-4.84l5.21,8.26Z"/><path class="clsWindow-10" d="M778.72,165.53l-5.21-8.26,5.26.59c.71,1.81,2,2.55,3.9,2l-.49-.29-.76.94.51,1.06c1.11,1.38,2.7,2.56,1.87,4.73C782,167.18,780.34,166.4,778.72,165.53Z"/><path class="clsWindow-5" d="M628.69,376.79l-3.23.17c-1.57-4.29-5.55-8.06-2.62-14.3A23.9,23.9,0,0,1,628.69,376.79Z"/><path class="clsWindow-3" d="M625.25,108.1c8,7.07-2.52,9.86-3.41,14.87l-1.38.28-1.39-.23C618.77,117.07,626.11,114.28,625.25,108.1Z"/><path class="clsWindow-12" d="M644.41,263c-.69-6-4.11-12.24.15-19.25C648.38,250.59,645.31,256.76,644.41,263Z"/><path class="clsWindow-3" d="M745.68,71.38l14.71,1.1c-5,4-10.32,3.07-15.71,1.08-.15-.06-.18-.85,0-1.17A4.66,4.66,0,0,1,745.68,71.38Z"/><path class="clsWindow-8" d="M646.28,225.4c1.36,5,1.4,9.21-5.49,9.35-1.44-2.81-1.07-5.76-.6-8.7l0,0Z"/><path class="clsWindow-1" d="M855.83,236.24c4.4,2.35,5.64,5.09,3.57,9.89C855.19,244.23,853.73,241.64,855.83,236.24Z"/><path class="clsWindow-8" d="M597.68,165.34l.89,3.47c-.21,4.31,0,8.9-6.51,8.29,0-.72,0-1.44-.08-2.17a3.09,3.09,0,0,0,1.93-3.42C595.07,169.39,594,165.93,597.68,165.34Z"/><path class="clsWindow-3" d="M767.46,69.28c4,.45,8.69-2.51,11.7,2.49C775.19,71.26,770.54,74,767.46,69.28Z"/><path class="clsWindow-5" d="M930.25,235c-.63-2.67.54-4.67,2.39-6.41l3.12,3.16c.78,2.69.46,5.09-1.9,6.93Z"/><path class="clsWindow-13" d="M640.19,226.05c-.47,2.94-.84,5.89.6,8.7C635,232.24,635.74,229.27,640.19,226.05Z"/><path class="clsWindow-5" d="M715.66,412.83c2.1-3.4,5.54-2.51,8.65-2.69a17,17,0,0,1-.31,2.47Z"/><path class="clsWindow-3" d="M830.51,88.64l-3.11-1.06a11.85,11.85,0,0,0-2.63-1c.14-1.69-.36-4.32,2.48-3.46A4.52,4.52,0,0,1,830.51,88.64Z"/><path class="clsWindow-9" d="M667.28,105.06c.16-2.22-1.31-3-3.09-3.44,1.34-2.46,3.6-2.82,6.09-2.66C670.28,101.49,670.1,103.92,667.28,105.06Z"/><path class="clsWindow-16" d="M930.25,235l3.61,3.68c-1.69,3.35-3,2.26-4.15-.37Z"/><path class="clsWindow-13" d="M646.28,225.4l-6.06.61c.08-1.16.15-2.32.23-3.49l5.74,1A15,15,0,0,1,646.28,225.4Z"/><path class="clsWindow-20" d="M924.53,180.61c1.83-3.28,3.81-2.57,5.86-.22Z"/><path class="clsWindow-20" d="M933.27,174.43a5.33,5.33,0,0,1-2.42-6.05C933.19,169.78,933.84,171.86,933.27,174.43Z"/><path class="clsWindow-1" d="M593.91,171.51a3.09,3.09,0,0,1-1.93,3.42A3.26,3.26,0,0,1,593.91,171.51Z"/><path class="clsWindow-5" d="M697.57,407.22a3.8,3.8,0,0,1,2.94,3C698.94,409.81,697.72,409,697.57,407.22Z"/><path class="clsWindow-5" d="M627.46,380.17c2,.44,3.71,1,.81,2.81A4.83,4.83,0,0,1,627.46,380.17Z"/><path class="clsWindow-1" d="M772.48,56.8,772.8,60C770.61,59.11,770.14,58.1,772.48,56.8Z"/><path class="clsWindow-3" d="M760.25,231c-3.11-1.4-5.89-1.52-8.39.83-3.81,4.71-2.05,9.33.23,13.93-3.14,11-6,13.14-14.35,8.61-5.11-2.78-10.65-4.43-15.64-7.32l.4.44c2.9,5.09,2.3,9.58-.72,14.65l6,.12h0l5.2,4.67c-6.13,6.05-15.19,7.14-21.07,13.24l4.15.48,5.46.26c.43-2.79,2.39-3.59,4.86-3.73,6.57-5.21,14.33-8.77,20.06-15.33,4.2,2.45,8,4.33,7.56,9.67l-2.62,2.27-2.59,3.3,1.42.2,1.89-2.81,3.52-3.33c2.55-1.39,5.32-2.61,5.13-6.25C759.36,253.6,763.22,242.19,760.25,231Z"/><path class="clsWindow-4" d="M830.82,246.79l-.79-3.42a5.09,5.09,0,0,1-.22-2.29c.71-2.63.25-5.59-2.52-5.74-8.17-.46-15.88-4.86-24.3-2.78,4.49,4.59,7.93,10.61,15.28,11.36,2.1-2.48,4.21-4.36,6.57-.26h0c-4,5.13-4.83,9.75,1.32,13.51C831.58,254.69,825.83,248.68,830.82,246.79Z"/><path class="clsWindow-8" d="M869.43,241.49a3.29,3.29,0,0,0-2.9-3.39c-5.8,3.93-1.22,10.23-3.42,15q.35,4.39.71,8.78c5.66-5.73,3.5-13.6,5.42-20.35Z"/><path class="clsWindow-13" d="M634,232.23c-1.24-4.4-4.27-6.3-8.64-6.33a4.66,4.66,0,0,0-3.66-3.36c-1.22-2.7-3.89-2.63-6.4-2.89a3.16,3.16,0,0,0-2.3.73c0,.7,0,1.41,0,2.12,2.68,1.26,2.92,3.79,3.29,6.26l5.51-5.49a4.89,4.89,0,0,0,3.6,3.19C626.94,230.17,629.91,232,634,232.23Z"/><path class="clsWindow-2" d="M896.22,315.93l-2.36,9c-2.26,5.18-9.49,9.31-3.41,16.23,0,.75,0,1.51,0,2.26a7.83,7.83,0,0,0-2.05.73l-3.8,0c-3.14.75-2.8,5.47-2.8,5.47-3.09.4-5.77-.77-8.41-2.13-.2-1.24-.39-2.49-.58-3.74l3.4-.15c2.44-2.25,3.85-4.39-.63-5.89l.19.15-.52-5.38q1.53-4.8,3-9.61c3.25-3.93,6.54-7.79,12.39-7.29Z"/><path class="clsWindow-14" d="M849.36,347c1.21-3.05,5.36-4.64,2.08-9.65-4.78-7.29.42-14.92,2-22.27.46-2,3.23-1.69,6.44-1,2,10.67,2.21,21.52-1.78,32.31Z"/><path class="clsWindow-8" d="M830,376.7c.71-2.21-.08-5.34,3.56-5.74l3.19.55c.61,7.91,9,15,2.62,23.65l-3.18.7H830.5a5.23,5.23,0,0,0-3.33-4.42c6.23-6.11-2.54-4.89-3.52-6.84C825.28,381.2,829.65,380.72,830,376.7Z"/><path class="clsWindow-7" d="M878.28,322.92q-1.51,4.8-3,9.61c-2.74.88-2.58,3.13-2.51,5.34l.16-.25c-3,1.11-3.33,3.58-3.25,6.27l.1-.27-5.41,2.18a83,83,0,0,1,.12-22.4C869.37,318.69,873.82,319.88,878.28,322.92Z"/><path class="clsWindow-14" d="M888.12,301.89c7.29,4.11,2.2,7.8-.4,11.57-2.94-1-2.23-3.45-2.27-5.61l-.44-.12c3-1.13,2.46-4,3.07-6.27Z"/><path class="clsWindow-5" d="M691.24,393.88c-2.41.39-5.76,1.95-7-.2-5.42-9.05-12-17.88-10.76-29.82,6,1.52,7.91,5.9,10.42,10.78,1.82-7.22,2.84-13.24-3.2-18.62-1.47-1.32,0-4.76,1.46-6.91l-.15.14c3.94-2.49,8-3.34,12.75-1C693,362.81,696,376.78,700.14,390,696.78,392.47,693,390.64,691.24,393.88Z"/><path class="clsWindow-3" d="M760.62,379.66c-17.79-5.06-63.24-23.47-57.51-39.05-5.23,3-18.9,0-21.14,8.49-4.6-.66-5.26,5.8-9.92,5.5-3.53-6.69-.47-14.86-4.57-21.43-2.42,7.58,4.06,18.55-7.05,25.91-9.08-25.86-1.59-35.92-7.82-45.79L652,323.64c-3-1.77-2.06-6.36-5.63-7.68h0a14.53,14.53,0,0,0-.05-2.38c-8.36-3.48-8.68-8.88-3.64-15.65-2.84-1.82-8-.27-8.37-5.64-1.92-4.56,2.69-13.39-6.16-18.06-.73-6.83-2.26-13.39-6.29-19.14-6.1,13.23-11.79,8.47-5.94,25.1l-5.25-2c.42,6,2.86,10.93,2.76,17.92,3.26,8,7.13,9,14.94,6.17a138.9,138.9,0,0,1,14.25,37.82c-9.5-5.78-4.56-17.93-15.15-22.05-1.63,11.35,11.56,23.66,3.76,31.73l3.06,3.06a8.32,8.32,0,0,0,2.94-.38c1.79-2.42,4.4-4.56,1.8-9.89,9.25,6.28,12.31,14.63,16.13,22.42-5.71,4-6,10.67-7.8,16.7,4.93,5.81,11,3.13,16.94,1.44,2.13,9.23,13.86,2.93,2.91,17.34l6.16,0c10-6.5,4.25,1.77,12,6.82,3.86-15.53,22.49-11.61,37.15-14.27,3.58,5.23,3.22,12.13,1.48,19.65,2.76-.63,4.36-2.93,4-6.06-4.47-24.22,19.8-16.3,33.08-17.73C758.91,385.87,759.58,382.77,760.62,379.66ZM616.13,280.53c2.94,0,4.21,1.82,4.91,5.16C616.25,286.54,615.06,284.65,616.13,280.53Zm7.16-11.6c2.59,1.24,1.67,3.35,1.6,5.18C622.51,273.16,621.62,271.64,623.29,268.93ZM630,285.35c-4.55-2.57-5.56-6.37-4.91-10.93h2.8C626.83,278.27,632.53,280.86,630,285.35Zm23.27,93.44c-1.63-4.94,3.41-9,2.05-13.83l9.7-2.06C667,375.57,665.11,378.07,653.28,378.79Zm38,15.09c-11.27,4.72-18.76-22.39-17.81-30,6,1.52,7.91,5.9,10.42,10.78,6-14-16-30.82,10.86-26.42C693,362.81,696,376.78,700.14,390,696.78,392.47,693,390.64,691.24,393.88Zm38.67-9.06c-3.75-.13-5.65-3.5-5.39-7.51a5.31,5.31,0,0,0-2.63.42c-1.27,6.25-8.64,3.77-11.36,7.94,1.78.85,6.72-.48,10.36,1.61-1.34,1.89-3.3,1.85-5.3,1.7a3.22,3.22,0,0,1-2.21.72,3.17,3.17,0,0,1-3.83,1.63,5.56,5.56,0,0,1-2.89.54c-2.09-2.34-3.7-4.89-3.7-8.17-3.07-7.08-6.07-21-3.6-31,9.32,7.94,19.83,12.08,28.86,21.12,10.56-1.62,19,1.81,26.23,11.15C745.79,387.71,737.78,385.09,729.91,384.82Z"/><path class="clsWindow-14" d="M655.16,365,665,362.9c1.93,12.67.08,15.17-11.75,15.89-1.65-5,3.5-9,2-14Z"/><path class="clsWindow-14" d="M630,285.35c-4.62-2.61-5.6-6.49-4.88-11.14,0,0,1.93.21,3,.2C628.15,274.41,632.59,280.75,630,285.35Z"/><path class="clsWindow-5" d="M616,280.52c3.07-.09,4.36,1.76,5.08,5.17-4.88.87-6-1.1-4.85-5.38Z"/><path class="clsWindow-1" d="M637.21,352.42c2.14,1.21,2.25,2.82.12,3.81-4.15,1.91-2.28-2-3.06-3.43A8.32,8.32,0,0,0,637.21,352.42Z"/><path class="clsWindow-14" d="M625.13,274.21c-2.57-.95-3.57-2.48-1.84-5.28C626,270.24,625.13,274.21,625.13,274.21Z"/><path class="clsWindow-10" d="M770.56,111.11a82.21,82.21,0,0,1-2.29,30.77c-1.75-11.21-5.69-22.48,1.43-33.43A5.62,5.62,0,0,0,770.56,111.11Z"/><path class="clsWindow-19" d="M812,105.33c-4.57,1-9.06.33-13.54-.72h-7.64c-.2-14.69-12.18-17.46-23.52-24.22.08,9.69-1.93,17.4,2.69,24.67-5.31.28-6.14,3.74-6.09,8.22.13,11.44.05,22.89.05,34.24,6.06,2.32,13.56,1.94,14.82,10.34.71,1.81,2,2.55,3.9,2,3.4-10.8,10.22-20,17.3-28.06,6-6.82,10.6-12.55,9.67-21.85C809.5,108.49,811,106.88,812,105.33Zm-43.73,36.55c-1.75-11.21-5.69-22.48,1.43-33.43a5.62,5.62,0,0,0,.86,2.66A82.21,82.21,0,0,1,768.27,141.88Z"/><path class="clsWindow-2" d="M609.5,192.5c-2.6-6.87-9.26-12.82-3-21.11,6.72,1.13,1.64-4.38,3.4-6,0,0,2.15-2.09,3.29-3.23,3.17,1.47,2.13,5.37,4.24,7.43,1.46-1.12,1.4-3.89,5.64-3.33l-7.54,31.9C612.5,198.5,608.09,190.3,609.5,192.5Z"/><path class="clsWindow-10" d="M656,160c-1.87,4.19,1.63,11.33-6.6,12l-3.28-.72a19.11,19.11,0,0,1,3.48-14.7C652.42,156.49,654.93,156.91,656,160Z"/><path class="clsWindow-7" d="M630.29,162.79c.68-2.2.45-5.21,3.59-5.52,2.77-.27,4.6,1.81,5.37,4.12s.63,4.75.89,7.15C635.25,169.38,633.15,165.44,630.29,162.79Z"/><path class="clsWindow-3" d="M631.29,147.9q-1.65,5.88-3.29,11.75L622.21,162c1.47-7.5,5-12.68,8.81-17.73Z"/><path class="clsWindow-14" d="M631.29,147.9l-.27-3.62a30.8,30.8,0,0,1,9.13-13.69C640.75,138.18,636.12,143.09,631.29,147.9Z"/><path class="clsWindow-10" d="M839.68,144c1.54.08,2.63-.42,2.79-2.14l3-.73,1.2.72,1.38-.17.25.27c-.49,2.74,1,4.27,3.28,5.27l.11.26c-.64,2.89.75,5,2.71,6.84a1,1,0,0,0,.25,1.53c-1.47,3.39.53,5.4,2.9,7.26a1.71,1.71,0,0,0,.4,1.83c-.65,3-.25,5.69,2.54,7.56a1.1,1.1,0,0,0,.27,1.46c-4.85,8.72,3.48,16.15,2.41,24.5-3.78,1.71-6.29-.43-8.7-2.84a3.75,3.75,0,0,0-2.17-3.69c-1.51-13.28-8-25.11-11.13-37.94C840.32,150.67,838.88,147.56,839.68,144Z"/><path class="clsWindow-8" d="M863.59,201.14a2.55,2.55,0,0,0,.26,1.56l-3.18-.9c-4.47.87-2.93,4.3-2.64,6.85.52,4.79,3,9.29,2.08,14.31,1,2.28-.38,6.45,5.43,5.74A63.8,63.8,0,0,0,863.59,201.14Z"/><path class="clsWindow-1" d="M860.67,201.8l3.18.9a2.55,2.55,0,0,1-.26-1.56l.24-1.2a3.54,3.54,0,0,1-.69-1.45c-3.77,1.71-6.29-.43-8.7-2.85a3.75,3.75,0,0,0-2.17-3.68h0c-1.51-13.28-8-25.11-11.13-37.94-.82-3.35-2.26-6.46-1.46-10-8.91-.05-10.62,7.44-13.83,13.29-4.49,8.21-8.67,16.15-18,20.78-6.81,3.39-11.68.88-12.65-4.06-1.61-8.28-7.11-10.23-13.3-12.48,1.11,1.38,2.7,2.56,1.87,4.73-1.82.89-3.46.11-5.08-.76l-1.4-.09c5.23,6.86-4.72,9.54-4.23,15.09,5.56,1.81,3.06,6.55,3.24,10.05.33,6.21-1.65,12.55.88,19.3,4.41-6.69-.3-14.63,4.48-20.54.85-5.6-.6-11.58,3-18.73,5.91,6.95,13.2,10.81,15.83,19.06a3,3,0,0,1,3,2.73l9.68,9.5c3.14,3.75,2.06,10.09,7.57,12.39l.64-.35c-.74-3.29-1.48-6.59-2.35-10.43,10.8-4.5,21.08.58,31.44.67,5.75,4.94,2.41,13.55,7.5,18.77h1l1.05,0c.94-5-1.56-9.52-2.08-14.31C857.74,206.1,856.2,202.67,860.67,201.8Zm-18.34-3.49c-9.13-2.54-18.54-2.23-28.78-2.89-.74-5.58-4.24-9.27,3.37-14.44,5.33-3.62,13.17-9.54,11.55-19.5-.43-2.62,2.93-4.93,5.65-6.52,3.82,2.83-.58,5-.59,7.51,7.63,2.64,8.36,10,11,16.08,2.51,5.66,2.56,12.32,7,17.17h0C849.36,199.56,845.43,199.18,842.33,198.31Z"/><path class="clsWindow-2" d="M851.61,195.72h0c-4.48-4.85-4.53-11.51-7-17.17-2.68-6.07-3.41-13.44-11-16.08,0-2.49,4.41-4.68.59-7.51-2.72,1.59-6.08,3.9-5.65,6.52,1.62,10-6.22,15.88-11.55,19.5-7.61,5.17-4.11,8.86-3.37,14.44,10.24.66,19.65.35,28.78,2.89,3.1.87,7,1.25,9.28-2.59ZM832.8,163.11Zm.06,0,0,0Z"/><path class="clsWindow-5" d="M721.72,156.53c-2.75,1.85-5.6,3.32-9.09,2.28-1.83-3.79-7.47-1.19-9-5.4l0,0C709.6,154.52,716.5,150.62,721.72,156.53Z"/><path class="clsWindow-9" d="M730.7,156.48l-9,.05c-2.75,1.85-5.6,3.32-9.09,2.28-5,2.28-8.9,1.12-13-2.61-10.93-9.83-11.44-22.43-10.6-35.59,2.49-2.23,3-5.33,3.6-8.36h0l2.34-3.72c5.76-5.32,10.33-12,17.83-15.3-3.72-2.18-3.16-5.83-3.18-9.28-2.12-.68-5.27.78-5.94-2.89A5.84,5.84,0,0,0,700,84.84l-12.58,7.77c3.14.75,6.94-.65,9.29,2.82,2,4.71-2.63,8.1-2.51,12.43l-2.74,3.26h0c-3.94,1.92-2.82,5.69-3.26,8.9-4.22,6.82-5.24,14.2-3.83,22.22l-8.45-.4c5.34,6.22,13.05,10.12,16.76,18.07,1.94,4.17,5.92,6.49,11,5.87,3.37-.41,5.93.42,5.14,4.72l.61,1.22,4.08-.53c-.45-3.7,2.07-5.78,4.33-8l14.21-1.05C731.63,160.25,731.16,158.37,730.7,156.48Z"/><path class="clsWindow-9" d="M803.6,267.89c-.75-1.81-1.51-3.61-2.26-5.42,6.26,2.51,5.78-11,13.25-5.59a10.49,10.49,0,0,1,.15,1.77c-1.83,3.16-2.31,7.13-5.58,9.45Z"/><path class="clsWindow-4" d="M779.78,252.64c3.13,2.32,4.36,5.83,5.78,9.22a11.72,11.72,0,0,0-.6,2.88,15.3,15.3,0,0,1-8.6,3.8C775.89,262.89,775.39,257.24,779.78,252.64Z"/><path class="clsWindow-3" d="M792.72,319.61c-1.88-8.26-8.11-15.2-7.41-24.24-1.94-3.56-4-7.09-2.54-11.38,7.4,4.42,16.5.49,23.91,4.85,0-.82-.13-1.65-.25-2.47-7.43-4.91-16.55-2.8-24.43-5.86a2,2,0,0,1-.47,2.42c-4.65,3.78-6.94,1.52-8.26-3.19-2.42,0-4.78-3.7-7.23-.16-1.74,2.51-.29,4.59.92,6.71,6.64,2.55,10.72,6.27,13.66,13.81,5,12.82,8.06,26.66,16.38,38.1l.68-4.66,5.79,7C806.85,329.12,804.83,325.19,792.72,319.61Z"/><path class="clsWindow-1" d="M782,280.51a2,2,0,0,1-.47,2.42c-4.68,3.8-7,1.5-8.29-3.26C776.45,277,779,280.83,782,280.51Z"/><path class="clsWindow-8" d="M809.16,268.1c3.27-2.32,3.75-6.29,5.58-9.45C815.82,263.53,816.1,267.94,809.16,268.1Z"/><path class="clsWindow-1" d="M640.19,395.27l-5.59-9C641.66,386.05,639.18,391.74,640.19,395.27Z"/><path class="clsWindow-1" d="M634.32,374.1c-.1,2.4-1.27,5.29,2.7,5.79A6.24,6.24,0,0,0,634.32,374.1Z"/><path class="clsWindow-1" d="M637.21,380.07c0,1.2-.53,3.29,1.74,1.3C639.45,380.94,638.35,379.92,637.21,380.07Z"/><path class="clsWindow-5" d="M830,376.7c-.39,4-4.76,4.5-6.39,7.9,1,1.95,9.75.73,3.52,6.84-5.67,1-10.92-.38-16.85-3.12-1.44-9.07-3.67-18.51,4.76-26.39l-.39-3.24.93-.25.61.75c5.07,5.31.3,12.19,3.15,18.56Z"/><path class="clsWindow-5" d="M788.18,386c-.31-1-1.12-2.55-.85-2.76,10.25-7.87,10.26-20.23,13.72-31.06,4.87,11.28-.65,23.32,3.73,34.49C798.26,390,793.38,385.38,788.18,386Z"/><path class="clsWindow-1" d="M830.5,395.86h5.73c.06.67.14,1.35.23,2-3.56,4.2,5.54,4.94,2.46,9-2-1.16-4-4.91-6,.14-1.21,3.05-2.63,6-2.23,9.39-7.45-4.67,2.45-10-.57-14.85Z"/><path class="clsWindow-5" d="M827.58,398.68c-6.66-2.35-11.2,1.06-15.32,5.63.34-2.4.68-4.8,1.14-8C818.42,395.76,823.43,393.24,827.58,398.68Z"/><path class="clsWindow-1" d="M793.43,398.61c1.61,3.72,1.89,7.43-.16,11.11C790.77,406,790.9,402.28,793.43,398.61Z"/><path class="clsWindow-4" d="M832.8,350.5c2.05-5.3-3.8-6.29-5.27-9.67l-10.66,8.7L812.13,344c-3,.79-1.3,6.42-5.8,5.74l-2.86-9.19-5.79-7L797,338.2c1.22,3.9-1.71,5.92-3.8,8.31-3.54-.62-6.07,3.83-9.13,2.32-4.81-3.94-4.88-9.78-7.77-15.15-7.25,5.05-7,11.5-7.29,17.9-3.12-18.68-2.36-37.46-2.5-56.19-5.2,7.74-2.9,16.53-2.56,24.68.53,12.82-3,26.06,2.91,38.48a63,63,0,0,0,30.79-11.32c2.77.52,2.75,2.95,3.4,4.93,4.87,11.28-.65,23.32,3.73,34.49-6.52,3.36-11.4-1.27-16.6-.67l-11.92-.3c-5.78,2-4.94-5.37-8.72-6.19-.15,3.22-.29,6.44-.44,9.67,4.39-.49,9.07-2.17,12,3,2.93,1.09,2.21,4,3.11,6.15,1.39-1.11,2.21-3.15,5.53-2.61,2.87,5.46,1,11.37-.09,17.25,3.1.35,6.29,6,9.26-.18a3.91,3.91,0,0,1-3.69-3c-2.5-3.74-2.37-7.44.16-11.11-.08-1-.16-2-.18-2.34-.47-3.16.16-3.49,1.46-3.7,9.35-1.53,10.92,8.88,17.6,11.4.32-2.29.65-4.61,1.09-7.69,5-.52,10-3,14.18,2.4l.22,3.35a2.48,2.48,0,0,1,2.31-.47l.39-5.7a5.23,5.23,0,0,0-3.32-4.42c-5.68,1-10.93-.38-16.86-3.12-1.44-9.07-3.67-18.51,4.76-26.39l-.39-3.24.93-.25.61.75a3,3,0,0,1-.53-2.82h0c3-2.41,6.18-4.58,8.85-7.29C828.25,345.32,830.35,348.36,832.8,350.5Z"/><path class="clsWindow-9" d="M670.55,114.7l-3.1.2a4.32,4.32,0,0,1,2.81-3.85l3.66.32Z"/><path class="clsWindow-2" d="M897.62,159.46c-2.31-8.26-6.52-15.51-12.84-23.22H899.9c.29,4.49,2.54,7.86,6,10.58,3.48.86,2.55,6,6.39,6.52l-.08-.08c-1.15,4.63,2.23,8.38,2.45,12.74-.41.12-1.08.13-1.19.38-.5,1.08,0,1.65,1.22,1.62.27,1.06.53,2.13.79,3.2l-6.58.34C909.08,163.82,899.18,165.52,897.62,159.46Z"/><path class="clsWindow-3" d="M836.71,268.3c3.49-.48,6.24,1.43,9.15,2.84-.49,7.61-1.82,14.95-5.12,21.67l-4-.36Z"/><path class="clsWindow-3" d="M824.55,290.69c4.48-1.63,8-3,9.42,3.36C829.49,295.28,827.72,292.31,824.55,290.69Z"/><path class="clsWindow-4" d="M725.06,352.54a9.81,9.81,0,0,0-.91-2.42c.24-2.47.48-4.94.84-8.69,4,3.52,7.36,6.43,10.56,9.24,0,4-3.15,5-5.68,7Z"/><path class="clsWindow-8" d="M609.75,165.54l3.43-3.43,3.42-8.55c-.78-1.4-2.2-2.47-3.19-.88a22.3,22.3,0,0,0-3.66,12.67l-2.83.21c-.17,1.09-.33,2.17-.5,3.26a6.36,6.36,0,0,1,.07,2.57c6.53,1.09,1.93-4.07,3.26-5.89Z"/><path class="clsWindow-18" d="M694.21,107.86l-2.74,3.26c-3.94,1.92-2.82,5.69-3.26,8.9-4.22,6.82-5.24,14.2-3.83,22.22l-8.45-.4.07,0-.11-19.09-.13.09a3.6,3.6,0,0,0,3.63-2.48,9.47,9.47,0,0,0,4.46-8.27c-2-4.26-7.22-3-9.4-5.4-1.17-3.56,1.29-5.17,2.11-7.37,2.6-.36,5.16-.79,5.71-4.05,1.19-1.91,3.23-2.16,5.16-2.63,3.14.75,6.94-.65,9.29,2.82C698.74,100.14,694.09,103.53,694.21,107.86Z"/><path class="clsWindow-9" d="M676.5,93.18c.59,4.43,3.53,2.26,5.77,2.06-.55,3.26-3.11,3.69-5.71,4.05C673,97.29,672.68,95.25,676.5,93.18Z"/><path class="clsWindow-5" d="M691.5,74.89c1.15-2.06,2.35-4,5.13-2.09l-2.31,2.72-2.92-.73Z"/><path class="clsWindow-5" d="M684.77,77.19c-2.89,0-6.73,2.94-8.11-2.8,1.28-4.3,7.35-1.53,8.87-5.53l-7.8-.25c-7.54,1.88-13.67,6.14-19.76,10.79,2.66,3.7,5.88,4.3,9.17,4.65q-1.32,2.82-2.65,5.64c6,.57,9.7-4.87,15.09-5.9l2.6-2,3.31-1.1a7.87,7.87,0,0,0,.81-2,4.33,4.33,0,0,1,2-.09l3.07-1c0-1,0-1.9.07-2.85C688.83,74.61,686.26,74.32,684.77,77.19Zm-17.3,6.65c.09-2.21-1.11-5,2.42-5.72,1.66-.34,3,.41,2.86,2.23C672.5,83.7,669.8,83.55,667.47,83.84Z"/><path class="clsWindow-3" d="M730.75,72.23c-.56-3.18-4.5-3.11-5.58-5.79-1.81-1.21-5.15.26-5.74-3.14,1.32-3.43,8.77,2.1,7.29-5.37-4.26-3-9.36,0-13.87-1.55,3.31,6.63,2.92,13.71,2.56,20.79,1.09.26-3.86.24-5.79.36.68-1.65,2.4-3,1.94-3.89-3.8-4.31-7,.89-9.89-1.06-2.49-3.46-3.32-7.23-4.74-10.77-1.23-3.05-15.5,2.92-19.2,6.8l7.8.25c-1.52,4-7.59,1.23-8.87,5.53,1.38,5.74,5.22,2.75,8.11,2.8,1.51-2.91,4.13-2.57,6.73-2.3,1.15-2.06,2.35-4,5.13-2.09l-2.31,2.72-3,2.21-3.07,1-2.77,2.06-3.31,1.1-2.6,2c-5.39,1-9.07,6.47-15.09,5.9L670.28,99c0,2.53-.18,5-3,6.1.16-2.22-1.31-3-3.09-3.44-8.88,8.17-19.81,14.65-22.71,27.71,8-6.52,13.38-15.7,22.28-21.23,2.57.09,5.32-.21,6.5,3l3.66.32-3.37,3.33-3.1.2C655,126,653.13,141.68,649.61,156.63c2.81-.14,5.32.28,6.4,3.4,4.06-6.69,8.08-21.46,8.08-21.46,2.33.56,2.57,1.58.69,3.08a7,7,0,0,0,0,2.41c4.75,3.71,7,8.38,5.59,14.47l3,1c6.25.82,11.66,4.05,16.56,7.42,5.24,3.6,10.62,4.62,16.55,4.7a6.36,6.36,0,0,1,2.4-1.12c.79-4.3-1.77-5.13-5.14-4.72-5.11.62-9.09-1.7-11-5.87-3.71-7.95-11.42-11.85-16.76-18.07l.07,0c-6.4-6.33-5.35-12.7-.11-19.09l-.13.09c.1-2.58,1.78-4.16,3.59-5.65,0,1.06,0,2.11,0,3.17a9.47,9.47,0,0,0,4.46-8.27c-2-4.26-7.22-3-9.4-5.4-1.17-3.56,1.29-5.17,2.11-7.37-3.53-2-3.88-4-.06-6.11.59,4.43,3.53,2.26,5.77,2.06,1.19-1.91,3.23-2.16,5.16-2.63L700,84.84a5.84,5.84,0,0,1,3.62-3.79c.66,3.66,3.81,2.22,5.93,2.89a3.47,3.47,0,0,0,.78-2.3l8.23-1.45h0l3.14.55c4.46-5.43,13.72.67,17.48-6.76C736.63,70.86,733.56,72.26,730.75,72.23Z"/><path class="clsWindow-9" d="M691.33,77.73c0-1,0-2,.07-2.94l2.92.73Z"/><path class="clsWindow-9" d="M686.3,78.77a4.33,4.33,0,0,1,2-.09l-2.77,2.06A7.87,7.87,0,0,0,686.3,78.77Z"/><path class="clsWindow-3" d="M857.67,105.37l-6.58-2-1.11-.76L845.61,99C851.67,97.25,855,100.76,857.67,105.37Z"/><path class="clsWindow-3" d="M842.43,96.52l-5.61-3.68c1.45-5.12,3.9-1.86,5.91-.6C845,93.7,846.48,95.38,842.43,96.52Z"/><path class="clsWindow-13" d="M845.61,99a9,9,0,0,1-2.84-.21q-.21-1.14-.33-2.28l-5.62-3.68-3.45,0-2.52-2.08a6.07,6.07,0,0,1-.34-2.07l-3.11-1.06c-1.6,5-10.89,6.75-6,14.42a4.39,4.39,0,0,1-.09,2.1c1.72.75,3.2,1.7,3.35,3.79,4.37,1.09,5.55,5.59,8.55,8.14.06-7.19,1.29-13.74,9.13-16.66,1.76,2.94,4.7,3,7.63,3.2Z"/><path class="clsWindow-1" d="M833.37,92.79l-2.52-2.08Z"/><path class="clsWindow-8" d="M713.55,171.19c4-1.13,5.12,1.7,6.28,4.57-4,4.13-6.77-1.49-10.27-1.27a8.06,8.06,0,0,1-.09-2.77Z"/><path class="clsWindow-1" d="M709.64,202.29l5.89-1.06c0,1,0,2,0,3.06l-5.82,3.64C709.65,206.05,709.65,204.17,709.64,202.29Z"/><path class="clsWindow-8" d="M920.4,295.72l-1.17.31-1-.4c-1.31,4.75,1.94,10.93-4.63,14.05-5.51,2.63-8.07-3.11-12-4.6a26.81,26.81,0,0,0-5.33,10.85q-1.19,4.51-2.36,9c-2.26,5.18-9.49,9.31-3.41,16.23.85-3.3,1.4-6.72,3.77-9.42,3.38-3.61,2.44-9.45,6.54-12.69.21-2.5,1.35-4.21,3.87-4.77,1.66,1.51,1.17,3.22.64,4.93-3,8.66-4.9,17.88-11.8,24.7a9.42,9.42,0,0,1,.61,2.72c9.94,2,14.75-3.32,17.29-12,1.37-5.88-.17-11.9,6-17.19C923.32,312.39,924.26,303.69,920.4,295.72Z"/><path class="clsWindow-4" d="M904.63,314.31c-2.52.56-3.66,2.27-3.87,4.77-4.1,3.24-3.16,9.08-6.54,12.69-2.37,2.7-2.92,6.12-3.77,9.42,0,.75,0,1.51,0,2.26l3,.49c6.9-6.82,8.76-16,11.8-24.7C905.8,317.53,906.29,315.82,904.63,314.31Z"/><path class="clsWindow-5" d="M740.34,304.8l5.11-2.92c-3.26-10.63,3.87-17.23,9.47-24.43l-4.68-.16-1.42-.2,2.59-3.3,2.62-2.27c.47-5.34-3.36-7.22-7.56-9.67-5.73,6.56-13.49,10.12-20.06,15.33-2.47.14-4.43.94-4.86,3.73-2.55,3.36-7.17,6.16-3,11.3,5.44,3,5.63-6.62,10.77-4.53,5.26,9.47-6.72,5.6-7.74,10.13,3.07,5.67,7.31,6.61,12.81,3.38,3-1.76,5.51-2.09,5,2.77C732,305.74,734,314.06,729,318.21c6.57,0,11.5,3.71,17.28,4.63q2.58,1.59,5.15,3.19l.81-9-9.49-.63C738.56,312.53,742.7,308.15,740.34,304.8Zm-3.55-18.51c.94-.19,1.88-.34,2.84-.45.8.92,2.65,2,.46,3S736.45,289,736.79,286.29Z"/><path class="clsWindow-1" d="M736.79,286.29c.94-.19,1.88-.34,2.84-.45.8.92,2.65,2,.46,3S736.45,289,736.79,286.29Z"/><path class="clsWindow-5" d="M724.52,377.31a5.14,5.14,0,0,1,3.7-3.48c10.56-1.62,19,1.81,26.23,11.15-8.66,2.73-16.67.11-24.54-.16C726.16,384.69,724.26,381.32,724.52,377.31Z"/><path class="clsWindow-5" d="M715.59,389a11.36,11.36,0,0,0-.19-2.67c2-.32,3.93-.85,5.49,1C719.55,389.17,717.59,389.13,715.59,389Z"/><path class="clsWindow-1" d="M920.42,210.16l0-4.74-5.65,2.52a13.42,13.42,0,0,0,.88,2.39L912,240.86c4.24,3.83,6.3.19,8.63-2.52Z"/><path class="clsWindow-16" d="M746.17,189.29c-3.59.78-9.73-2.37-9.73-2.37h0c-5.73-7.24,4.95-8.38,5.83-13.61l-7-3.91c-2.61,4.88-6.76,8.53-7.72,14H723c1.26-6.33,4.52-11.44,7.36-17.05-3.89-2.2-8.82-.33-12.45-3.17-2.26,2.23-4.78,4.31-4.33,8,4-1.13,5.12,1.7,6.28,4.57-4,4.13-6.77-1.49-10.27-1.27-.93,9.27-5.38,18.55.08,27.8l5.89-1.06c2.85-4.62,8-6.15,12.13-9.06,10.94,5.41,18.78,4.41,24.11-3.07Z"/><path class="clsWindow-3" d="M800.07,250.39c-11.06-1.47-14.19-8.18-12.1-18.33a1.6,1.6,0,0,0-2.65,0c-4.56-3.13-8.93-2.51-13.16.71-3.77-1.09-5.51.2-5.46,4.25.15,10.49.13,21,.17,31.49.56,3.87,5.77,2.79,6.69,6.28q1.4-3.13,2.8-6.27c-.47-5.65-1-11.3,3.42-15.9,3.13,2.32,4.36,5.83,5.78,9.22a9,9,0,0,0,2.87.29c4.5-1.84,3.21-5.19,2.22-8.47h0c3.93-1.67,7,2.74,10.78,1.65C802.52,253.21,801,251.9,800.07,250.39Z"/><path class="clsWindow-10" d="M813.21,201.9c-.41,1.38-.83,2.76-1.55,5.17-5.62-2.41-6.58-8.77-11-11.47l-6.5-2.92-2.76,2.67c-1.31-2.26-2.47-3.07-3.2.33,1,7.82,9.71,10,12.27,16.93,1,2.59,3,4.8,2.85,7.87a20.87,20.87,0,0,0,16.21,2.46c.43-3.06.82-5.85,1.21-8.65C815.27,212,816.35,205.65,813.21,201.9Z"/><path class="clsWindow-4" d="M920.14,158c.94.68,2.51,1.24,3,2.31,1,2.09,0,3.8-2.38,4.07-1.72.2-2.51-1.2-2.77-2.67S918.4,159,920.14,158Z"/><path class="clsWindow-4" d="M912.25,153.34c1.21-7.1,3.53-8.58,7.75-1.93-2.15,4.1-5.29,1.37-7.83,1.85Z"/><path class="clsWindow-4" d="M926.38,172.94a1.89,1.89,0,0,1-2.49,1.23c-1.43-.36-2.45-1.25-2.06-2.91.35-1.45,1.22-2.55,2.86-2.22C926.17,169.33,927,170.35,926.38,172.94Z"/><path class="clsWindow-1" d="M735.38,54.07c1.41.37,3.09.84,3.09,2.49,0,2.66-2.13,3-4.16,2.69-1.47-.25-2.91-1.16-2.33-3C732.45,54.69,733.85,54.15,735.38,54.07Z"/><path class="clsWindow-1" d="M748.48,56.26c-.28,1.6-1.2,2.52-2.85,2.26s-2.64-1.17-2.22-2.79c.15-.59,1.33-1.12,2.12-1.29C747,54.14,748.22,54.49,748.48,56.26Z"/><path class="clsWindow-5" d="M737.74,202.59c-.53-1.33-1.85-3.72-4-1.08l-8.84.53a45.14,45.14,0,0,1,.94,17c4,1.08,5.65-1.51,8-2.08-.48-3-5.77-6-.06-9.11a19.73,19.73,0,0,1,.87-2.41C736.37,205.17,738.87,205.41,737.74,202.59Z"/><path class="clsWindow-3" d="M803.53,192.4h0a3,3,0,0,0-3-2.73c-2.63-8.25-9.92-12.11-15.83-19.06-3.57,7.15-2.12,13.13-3,18.73l2.76,2.35c.14-.67,9.85-.2,9.75,1l6.5,2.92h0c4.38,2.7,5.34,9.06,11,11.47.72-2.41,1.14-3.79,1.55-5.17Z"/><path class="clsWindow-8" d="M761.08,388.82c-10,1.48-20.63-3.15-30.14,3.13.18,1.71,5.41-1.42,2.75,2.53-3.41,5-4.14,13.56-.65,15.54,2.89,1.12,5.21-2.69,8.18-.94-.55-5.41-.28-10.53,4.64-14.1l1-.26,1.32.13,3.58.35c.26-.42.42-1,.8-1.22a1.32,1.32,0,0,1,1.25.21c5.19,5.17,3.53,11.49,2.6,17.9C764.57,405.36,758.37,396.25,761.08,388.82Z"/><path class="clsWindow-3" d="M696.9,241.73c-2.68,6.4-6.68,12.4-6.07,19.81a3.77,3.77,0,0,1-2.46,3.69c-7.16.58-7,3.92-3.24,8.62-.41,4.12-5.85,8.19-.12,12.36.41-.88.81-1.76,1.19-2.65A39.37,39.37,0,0,1,694.32,268C698.28,259.55,698,250.68,696.9,241.73Z"/><path class="clsWindow-16" d="M933.2,198.7c-.05,5.49,2.31,12.2-7,12.94-.77.06.25,2.27,1.54,2.93-1.17,4.66,1.08,5.84,5.21,5.1-.2,2.31-.39,4.62-.59,6.92a5.18,5.18,0,0,1,.25,2l3.12,3.16c.31-5.82,1-11.65.82-17.44C936.38,209,939.24,202.82,933.2,198.7Z"/><path class="clsWindow-16" d="M733.81,207.83c-5.61,3-4,12.24-7.93,11.19a45.14,45.14,0,0,0-.94-17c-3.31.1-5.85,3.43-9.46,2.25l-5.75,3.59c.4,9.81,3.53,13.64,13,14.58,5.44.54,11,0,16.49,0a4.36,4.36,0,0,1,1.12-2c1.87-.37,4.06,0,5.18-2.3C741.89,214.45,741.6,206.92,733.81,207.83Z"/><path class="clsWindow-16" d="M894,126.27c1.13-2.81,2.51-5.38,5.85-6.13-.6-7.44-8.9,1.33-10.14-4.76,1.59-1.64,5.08,0,5.65-3.3-1.91-3-4-5.73-7.28-7.36,0,0,0,0,0,0a3.71,3.71,0,0,0-3.19-2.89,3.68,3.68,0,0,0,3,3.16c-1,2.09-1.71,4.49-4.28,5.23-4.43-1.17-3.64-7.21-8-8.29-1.88,1.7-3.72,3.74-1.18,5.94,6.76,5.85,11.16,14.16,19.26,18.58-.75,5,1.93,6,6.22,5.22C900.44,127,898,125.7,894,126.27Z"/><path class="clsWindow-1" d="M667.45,84.09c.21-2.25-1.23-5.21,2.44-6,1.66-.34,3,.41,2.86,2.23-.26,3.46-3.13,3.19-5.52,3.52Z"/><path class="clsWindow-16" d="M817.07,416.12c-.28-.11-1.86-.47-1-2.48.57-1.36,1.29-2.78,3-2.57s2.22,1.59,1.85,3.07S820.15,417.08,817.07,416.12Z"/><path class="clsWindow-1" d="M709.47,84.06a3.47,3.47,0,0,0,.87-2.42l8.23-1.45,3.25.57C718.59,85.17,713.5,82.63,709.47,84.06Z"/><path class="clsWindow-18" d="M893.49,285.64c-7.89-.57-13.41-8.16-21.76-7.38-1.5,9.91,4.84,23.81,13.27,29.28a1.15,1.15,0,0,0,0,.19l.44.12-.28-.19c2.79-1.18,2.31-4,2.91-6.2l0,.43c-.06-2.65.12-5.18,3.25-6.15l-.42-.06a2.73,2.73,0,0,0,2.4-3.2,6.92,6.92,0,0,0,.83-2.69Z"/><path class="clsWindow-3" d="M872.8,343.8l3.4-.15c-.21-1.91-.41-3.83-.61-5.74l-2.74,0q-.42,2.6-.86,5.17a12.68,12.68,0,0,0-2.28.82c-.37,4.67-2.53,8.61-5.1,12.39,5.94,6,4.18-4.63,7.82-3.63q.47-2.53,1-5.08c-.2-1.24-.39-2.49-.58-3.74Z"/><path class="clsWindow-19" d="M903.36,259.36l-.34-.28c-15.9,5.74-28.81-2-30.31-18.07l-3.47.51c-1.94,6.82.3,14.78-5.58,20.53,5.42,15.81.13,31.23-.93,46.68-5.79,1.36-8.56-.84-8.65-5.72-.08-4.44.63-8.9,1-13.34-4,3.94-6.51,9.55-12.45,11.37a7,7,0,0,0,2.91.49,3.52,3.52,0,0,1,3.05,3c-.11,3.37.76,6.87-1.87,10.72-7.53.2-16.62,6.27-22-5.45-.06,1.12-.13,2.25-.19,3.38l-.43,6.51c1.26,7,5.14,13.63,3.45,21.14,1.47,3.38,7.32,4.37,5.27,9.67l.8,20.46,3.19.55,3.08,1.74c-3-6.41-1.55-11.09,5.58-13.8,4.41,1.44,4,7.66,8.47,9.15a5.28,5.28,0,0,1,1.81-1.28c-2.86-6.56-7.58-12.54-6.37-20.37,1.21-3.05,5.36-4.64,2.08-9.65-4.78-7.29.42-14.92,2-22.27.46-2,3.23-1.69,6.44-1,2,10.67,2.21,21.52-1.78,32.31,3.9,2.14,1.91,6.32,3.25,9.35l3.21.58c2.57-3.78,4.73-7.72,5.1-12.39A12.68,12.68,0,0,1,872,343q.43-2.58.86-5.17l2.74,0c.2,1.91.4,3.83.61,5.74,2.41-2.22,3.8-4.32-.45-5.83l-.51-5.29c-2.67.86-2.59,3-2.52,5.16-2.71,1.12-3.13,3.43-3.09,6l-5.3,2.13a83,83,0,0,1,.12-22.4c4.92-4.71,9.37-3.52,13.83-.48,3.25-3.93,6.54-7.79,12.39-7.29l-2.95-2.17c-2.94-1-2.23-3.45-2.27-5.61-8.65-5.26-15.25-19.5-13.72-29.59,8.35-.78,13.87,6.81,21.76,7.38.21-2,.59-4,2.38-5.32C897.5,273,904.56,267.67,903.36,259.36Z"/><path class="clsWindow-16" d="M723.89,369c-9.3-3.3-15.93-11-24.53-16.27-3.46,10.16,1.32,18.52,1.94,27.22-.51,1.72.33,2.85,1.66,3.77h0c0,3.28,1.61,5.83,3.7,8.17a5.56,5.56,0,0,0,2.89-.54,3.17,3.17,0,0,0,3.83-1.63,3.22,3.22,0,0,0,2.21-.72,11.36,11.36,0,0,0-.19-2.67l-4.87-.64c-4.9-1.21-3.65-5.29-4-8.61-2.12-.72-3.12-2-2.07-4.34,2.79.45,1.71,2.74,2.19,4.22l4.19,1.45c3.07-3-3.06-5.88.23-9.12,4.47,1.52,10.51,1.07,10.83,8.46l1.28-.43h1.35a5.14,5.14,0,0,1,3.7-3.48Z"/><path class="clsWindow-1" d="M899.9,136.24c0-1.51,0-3,0-4.53-4.29.8-7-.25-6.22-5.22-8.1-4.42-12.5-12.73-19.26-18.58-2.54-2.2-.7-4.24,1.18-5.94l.42-6,3.15-.58c-5.22-5.19-12-4.58-18.5-4.91-9.87-.65-29.14-12.77-34-21.39-3.37,2.34-3.59,7.59-8.16,8.82,1,1.87,1.91,3.74,2.87,5.6a3.8,3.8,0,0,0,3.45,3.07c.14-1.69-.36-4.32,2.48-3.46a4.52,4.52,0,0,1,3.26,5.54,6.07,6.07,0,0,0,.34,2.07l2.52,2.08,3.45,0c1.45-5.12,3.9-1.86,5.91-.6,2.31,1.46,3.75,3.14-.29,4.28q.12,1.14.33,2.28a9,9,0,0,0,2.84.21c6.06-1.76,9.35,1.75,12.06,6.36-.26,3.22.75,5.47,4.35,5.76l4.89-.74,12,12.71c3,1.77,6.06,3.87,5.25,7.69-.45,2.1-3.31,1-5.14,1.05-5.75,13.38-17.64,8.79-27.72,9.49.09,2,.19,3.95.28,5.92l.11.26c-.64,2.89.75,5,2.71,6.84a1,1,0,0,0,.25,1.53h0c-1.47,3.39.53,5.4,2.9,7.26h0a1.71,1.71,0,0,0,.4,1.83h0c-.65,3-.25,5.69,2.54,7.56a1.1,1.1,0,0,0,.27,1.46l5.62.29c-.31-2.21-1.47-3.85.71-6.53,8.39-10.32,19.83-7.64,30.56-8.29-2.31-8.26-6.52-15.51-12.84-23.22Z"/><path class="clsWindow-3" d="M878.88,123.1l-12-12.71-4.89.74L876.1,126c-.08.65-.16,1.3-.23,2-.37,1.58-.37,2.58,2.63,4.58l.49-.66c1.83,0,4.69,1,5.14-1.05C884.94,127,881.84,124.87,878.88,123.1Z"/><path class="clsWindow-9" d="M679.39,120.33c0-1.06,0-2.11,0-3.17-1.81,1.49-3.49,3.07-3.59,5.65h.06c-5.18,6.36-6.19,12.7.18,19l-.11-19A3.6,3.6,0,0,0,679.39,120.33Z"/><path class="clsWindow-4" d="M702.75,182.34c-1.15-3.94.87-7.51,3.71-10.72-5.93-.08-11.31-1.1-16.55-4.7-4.9-3.37-10.31-6.6-16.56-7.42h0l-3-1c1.42-6.09-.84-10.76-5.59-14.47a7,7,0,0,1,0-2.41h0c1.88-1.5,1.64-2.52-.69-3.08,0,0-4,14.77-8.08,21.46-1.87,4.19,1.63,11.33-6.6,12-.13,1.64-.25,3.27-.38,4.91l5.51.71c7.06-1.32,11.13,2,13.24,8.47l1.46.07,1.44-.16c1.87,1.54,3.83,3,5.59,4.65,10.07,9.49,15.14,9.09,24.1-2.3-2.92-2.32-7.15-3.4-8.3-7.59C695.49,180.22,697.92,184.25,702.75,182.34Zm-32.41-23.81h0a2.18,2.18,0,0,0,.08.24A2.18,2.18,0,0,1,670.34,158.53Z"/><path class="clsWindow-4" d="M839.39,128.49c-2.43,1.58-2.66,4.12-3,6.64-4.17-2.84-3.34-8.52-6.66-11.84-1,1.18-2,2.36-3.07,3.55-7,5.78-9.8,15.2-17.43,20.48-3.73.72-3.07,3.53-2.91,6.1-9.4-3.21-15.27,7.46-24.18,6.14l-.76.94.51,1.06c6.19,2.25,11.69,4.2,13.3,12.48,1,4.94,5.84,7.45,12.65,4.06,9.3-4.63,13.48-12.57,18-20.78,3.21-5.85,4.92-13.34,13.83-13.29,1.54.08,2.63-.42,2.79-2.14-.12-1.26-.22-3.95-.22-3.95s0,0,0,0,0,0,0,0a5.2,5.2,0,0,0,2.59-.33l.6-5.29Z"/><path class="clsWindow-5" d="M711.06,369.27c-3.29,3.24,2.84,6.13-.23,9.12l-4.19-1.45c-.48-1.48.6-3.77-2.19-4.22-1.05,2.37-.05,3.62,2.07,4.34.36,3.32-.89,7.4,4,8.61,2.72-4.17,10.09-1.69,11.36-7.94C721.57,370.34,715.53,370.79,711.06,369.27Z"/><path class="clsWindow-18" d="M875.87,127.92c.07-.65.15-1.3.23-2L862,111.13c-3.6-.29-4.61-2.54-4.35-5.76l-6.58-2-1.11-.76c-2.93-.15-5.87-.26-7.63-3.2-7.84,2.92-9.07,9.47-9.13,16.66a4.86,4.86,0,0,0,3,4.1,4.09,4.09,0,0,0,.58,2.21,4.94,4.94,0,0,1,2.54,5.15l.06,1,6.05,3.83-.6,5.29a5.2,5.2,0,0,1-2.59.33l-.14.17.36,3.78,3-.73,1.2.72,1.38-.17.25.27h0c-.49,2.74,1,4.27,3.28,5.27-.09-2-.19-3.95-.28-5.92h0c10-.7,21.77,3.8,27.57-9.17C876.87,131.46,876.1,129.89,875.87,127.92Z"/><path class="clsWindow-10" d="M839.33,127.49a4.94,4.94,0,0,0-2.54-5.15h0a4.09,4.09,0,0,1-.58-2.21,4.86,4.86,0,0,1-3-4.1c-3-2.55-4.18-7-8.55-8.14-.15-2.09-1.63-3-3.35-3.79a4.39,4.39,0,0,0,.09-2.1c-1.63-.15-6.9,2.56-9,2.9-.7-2.39,3-3.81,1.32-6.82-3.35-3-7.92-2.85-12.29-2.23-6.21.88-5.19,4.75-2.95,8.76,4.48,1,9,1.7,13.54.72-1,1.55-2.5,3.16-2.36,4.61.93,9.3-3.68,15-9.67,21.85-7,8-13.8,17.14-17.23,27.83,8.6.8,14.42-9.34,23.62-6.2-.16-2.57-.82-5.38,2.91-6.1,7.63-5.28,10.39-14.7,17.43-20.48h0c1-1.19,2-2.37,3.07-3.55h0c3.32,3.32,2.49,9,6.66,11.84.3-2.52.53-5.06,3-6.64Z"/><path class="clsWindow-4" d="M794.2,192.68l-2.76,2.67c-1.31-2.26-2.47-3.07-3.2.33,1,7.82,9.71,10,12.27,16.93,1,2.59,3,4.8,2.85,7.87-5.6,5-11.94.84-17.89,1.44l-1-30.23c.14-.67,3-3.87,4.07-4.92,2.55-.65,4.62-.07,6,2.34C794.39,190.3,794.3,191.49,794.2,192.68Z"/></g></g></g></svg>