<svg id="Layer_1" data-name="Layer 1" xmlns="http://www.w3.org/2000/svg" viewBox="0 0 1525 1525"><defs><style>.clsWindow-9{fill:#5d4430;}.clsWindow-3{fill:#94928d;}.clsWindow-5{fill:#cacbad;}.clsWindow-15{fill:#a64e1e;}.clsWindow-16{fill:#7b8874;}.clsWindow-12{fill:#b5ad9d;}.clsWindow-7{fill:#cd3412;}.clsWindow-6{fill:#866a58;}.clsWindow-8{fill:#999373;}.clsWindow-4{fill:#595337;}.clsWindow-17{fill:#d4858f;}.clsWindow-18{fill:#97200b;}.clsWindow-1{fill:#191835;}.clsWindow-13{fill:#371912;}</style></defs><title>Artboard 1innerCircle2</title><g id="WindowParts"><g id="innerCircle"><g id="ci2"><path class="clsWindow-9" d="M994.22,627.62a7.25,7.25,0,0,1,2.5.2,5.82,5.82,0,0,0-.06,2.93c.63,1.86,2.18,2.52,3.88,3,3.62.07,5.75,2,7.55,5.08-4.15,1.93-7.1-4.85-11.53.22,9.89,5.07,16.55,13,22.92,22.28,1-5.51,5.9-6.06,7.69-9.45,2.65,7.71-.35,14.76-2.51,21.92-1.19,9.17-2.39,18.34-3.77,28.91,7.94-8.75,5.3-18.15,6.43-26.77,2.23-.69,4.07-3.13,6.81-1.56,6,26.67-7.62,51.46-35.16,63.6-3.3-1.9-2.6-7.13-7.52-8.9l11.3-4.57c7.6,4.91,8.31-3,11.64-6.24-3.93-.58-6.2,3.72-10,3.14a2.22,2.22,0,0,1-1.88-1.94c6.9-1.56.69-8.55,4.1-11.3,2.28.15,1.73,3.88,5,2.19v-7.09c4.27-6,5.68-12,.17-18.1l-.46-.53c2.74-6.24,1.37-13,3.24-20.28-7,5-8.46-6.41-14.83-2.61-.08,1.52-.17,3.4-.27,5.28l.22-.16-5.59.54-.82-.93c-.13-8.34,9.73-7,12.6-12.2-2.27-4.42-6.05-5.64-9.9-6.95-3.37,1.87-4,6.8-8.3,7.69l-.12-.1c1.18-6,2-12-3.43-16.14-3.75-.73-2,3.56-5,4.37.13-8.08-6-4.55-9.88-5.45l.08-3.44c6.12,1.55,9-2.74,12.09-6.68l.55.61c1.87,3.48,3.21,7.71,8.54,6.64C994.56,634,993.91,630.52,994.22,627.62Z"/><path class="clsWindow-9" d="M963.27,699.59c1.53-8.1-4.67-7.92-9.66-9.09-.19,0-.39-.91-.26-1.27s.66-.69,1-1c4.66.65,9.23,1.16,9-5.79a16.5,16.5,0,0,1,0-2.63c7.64-8.08,2.19-16.13-.06-24.18,7.59,2.81,3.88,12.15,9.86,18.54,2-10.12,6.54-16.17,14.42-19.23l.12.1c-1.27,5.35.07,9.43,5.6,11.46l.82.93c1.85,4.88-.84,7.56-5,8.48-3.85.87-5.57,3.46-7.35,6.33-3.56-1.65-4.68-8.32-10.8-5-2.42,4.63-3.58,9.3,3,11.6,6.21,2.19,7.55-1.89,7.66-6.92,10.54-6,20.11-1.5,29.71,2.73l.46.53c-2.79,4.81-7.76,1-11,2.29-2.77,5.63,3.73,6.25,4.29,9.83-4.07.31-8.69-1.51-11.61,3.09l.27-.26c-4.16-1.69-6-7.15-11.09-7.91-.43,2.29-.69,3.7-.95,5.12-4.78-1.76-8.31-6.92-14.31-5.32-2.53,3.69-1.14,7.62-1,11.45l.13-.05C964.31,703.09,963.85,701.29,963.27,699.59Z"/><path class="clsWindow-3" d="M987.51,654.91c-7.88,3.06-12.37,9.11-14.42,19.23-6-6.39-2.27-15.73-9.86-18.54.07-1.82-.6-3.09-2.54-3.43-.42-6.74.92-12.44,8.51-14.48,3.91.9,10-2.63,9.88,5.45,3-.81,1.25-5.1,5-4.37C989.52,642.94,988.69,648.89,987.51,654.91Z"/><path class="clsWindow-5" d="M900.51,699.73q-.07-1.26-.21-2.52l-.26.23c2.42.17,3.26-1.73,4.35-3.3,3.59-6.17-3.5-7.95-4.95-12A16.52,16.52,0,0,1,903,666.85l-.36.22c5.13-1,10.45-8,15.27.49-2.72,3.37-2.25,7.14,2,6.83,4.66-.34,5.44,2.56,7.38,4.9a21,21,0,0,0-.22,2.38c-7.1,5.79-16,9.39-21.14,17.6C904.57,701.48,902.37,700,900.51,699.73Z"/><path class="clsWindow-15" d="M960.69,652.17c1.94.34,2.61,1.61,2.54,3.43,2.25,8,7.7,16.1.06,24.18L954.91,673c-.56-2.47-.64-5.2-3.53-6.39q0-4.65.1-9.32c0-2.36,0-4.73.08-7.09.85-2.59-.33-6.22,3.75-7.24C960.4,644.07,956.43,650.57,960.69,652.17Z"/><path class="clsWindow-16" d="M993.47,700.37c2.92-4.6,7.54-2.78,11.61-3.09l6.49,6v7.09c-3.23,1.69-2.68-2-5-2.19-3.41,2.75,2.8,9.74-4.1,11.3l-2.83-.42c-3.73-2.86-6.85-6.65-12.13-8.41v6.44l-3.06-1.89.23.34c0-2.82.1-5.63.16-8.45,4.14-2.54,3.25-5.09,0-7.66-.59-1.56-1.25-3-3.39-2.35l.18.26c.26-1.42.52-2.83.95-5.12,5.12.76,6.93,6.22,11.09,7.91l0,3.19c-1.74,1-2,2,0,3,.9,2.26,2,4.31,5.15,3.82-.79-3.27-3-3.6-5.4-3.6,0-1.16,0-2.33,0-3.49l7.55-1.33Z"/><path class="clsWindow-12" d="M996.66,630.75a5.82,5.82,0,0,1,.06-2.93c15.14,1.71,22.68,13,30.45,24-1.79,3.39-6.67,3.94-7.69,9.45-6.37-9.31-13-17.21-22.92-22.28,4.43-5.07,7.38,1.71,11.53-.22-1.8-3.05-3.93-5-7.55-5.08A4.56,4.56,0,0,0,996.66,630.75Z"/><path class="clsWindow-15" d="M966.39,703.45c-.14-3.83-1.53-7.76,1-11.45,6-1.6,9.53,3.56,14.31,5.32l-.18-.26c1,6.17-2.81,13.17,3.2,18.46l-.23-.34c0,1.85.62,3.14,2.85,2.58l-.29,6.44c-4.16,1.12-6.13-2.23-8.73-4.28.47-4-2.36-5.48-5.27-6.9Z"/><path class="clsWindow-9" d="M900.51,699.73c1.86.22,4.06,1.75,5.45-.46,5.14-8.21,14-11.81,21.14-17.6-.44,8,4.43,6,8.89,4.69l.17,1c.06,1.13.11,2.25.16,3.38-6.88.07-12.29,4.72-19.14,5.91-6,1-13.87,5.75-10.92,15.52-2.83,1.23-5.32,3.45-8.73,3,3.36-3.6,2.31-8,2.3-12.27Z"/><path class="clsWindow-15" d="M936.32,690.76c-.05-1.13-.1-2.25-.16-3.38,2.83.61,8.51.39,8.05,1.88-2.91,9.42,15.21,15.92,3.38,26q-4.26-3-8.53-5.9l.18.17c-3-3.75-8-7.1-2.46-12.53C939.55,694.73,935.66,692.91,936.32,690.76Z"/><path class="clsWindow-7" d="M899.44,682.09c1.45,4.1,8.54,5.88,4.95,12a4.37,4.37,0,0,0-4.35,3.3l.26-.23c-5.48,1.07-10.78,1.38-15.38-4.5C888.5,687.52,889,678.78,899.44,682.09Z"/><path class="clsWindow-6" d="M939.06,709.39q4.28,2.94,8.53,5.9c7.7-1.42,7.21,4.2,6,8.3-1.11,3.86-4.78,6.23-9.33,4.25a31,31,0,0,1-4.88-3.3C934.12,719.62,940.57,714.41,939.06,709.39Z"/><path class="clsWindow-7" d="M897.53,715.18c3.41.46,5.9-1.76,8.73-3H906c4.23,4.38,10.62,7.46,9.22,15.25-6.26,0-12.69,1.11-18.29-3l0,0c-.56-2.25.28-4.94-2.08-6.62Z"/><path class="clsWindow-8" d="M973.05,713c2.91,1.42,5.74,2.9,5.27,6.9.15,8.77-6.26,9.16-13.08,9.83-1.12-4.39-2.26-8.9-3.37-13.27C965.18,713.5,970.19,716.9,973.05,713Z"/><path class="clsWindow-4" d="M897.53,715.18l-2.7,2.63c-11.11-1-5.07-11.12-8.83-16,5.15-3.33,9.49-1.16,13.83,1.09C899.84,707.15,900.89,711.58,897.53,715.18Z"/><path class="clsWindow-16" d="M951.56,650.21l-.08,7.09c-3,1.65-2.58,6.46-7.79,7.52-4.09-5.62-6.24-11.76-4.13-19.09C944.91,644.42,948,647.86,951.56,650.21Z"/><path class="clsWindow-15" d="M936,686.36c-4.46,1.26-9.33,3.31-8.89-4.69a21,21,0,0,1,.22-2.38c2.74-2.37,2.4-5.75,2.89-8.86C943,673.72,944.27,677.21,936,686.36Z"/><path class="clsWindow-3" d="M981.37,627.57c-3.08,3.94-6,8.23-12.09,6.68H959.1c6.42-2.46-5.85-11.59,4.45-12.1l3.3,3.06,1.2,2.29,1.2-2.32,3.34-.07c-.28,1.16.15,2.19,1.3,2.2s1.58-1,1.3-2.18l5.71-.4A7.44,7.44,0,0,0,981.37,627.57Z"/><path class="clsWindow-3" d="M920.82,730.94a21.16,21.16,0,0,0,2.51.17,7.34,7.34,0,0,0,.78,2.63c-6,7.68-9.1,7.91-19.3,1.41C909.34,730.6,916.61,736.54,920.82,730.94Z"/><path class="clsWindow-7" d="M930.21,670.43c-.49,3.11-.15,6.49-2.89,8.86-1.94-2.34-2.72-5.24-7.38-4.9-4.28.31-4.75-3.46-2-6.83l.36-3.56c3.66-.67,4.34,8.74,9.54,2.82Z"/><path class="clsWindow-5" d="M1027.32,675.93c-1.13,8.62,1.51,18-6.43,26.77,1.38-10.57,2.58-19.74,3.77-28.91Z"/><path class="clsWindow-9" d="M987.05,724.2l.29-6.44.21-.69v-6.44c5.28,1.76,8.4,5.55,12.13,8.41C996.4,723,990.92,721.65,987.05,724.2Z"/><path class="clsWindow-5" d="M951.38,666.62c2.89,1.19,3,3.92,3.53,6.39-.54,3.2.48,7.17-5,8.64C947.48,676.31,947.18,671.38,951.38,666.62Z"/><path class="clsWindow-17" d="M994.22,627.62c-.31,2.9.34,6.37-3.76,7.2-5.33,1.07-6.67-3.16-8.54-6.64C986.05,628.68,989.84,621.64,994.22,627.62Z"/><path class="clsWindow-18" d="M903,666.85c-4,.85-6.41-1.49-9.31-4.14,3.37-2.76,6.63-3.9,10.29-3.27,3.64,3.52.15,5.36-1.34,7.63Z"/><path class="clsWindow-15" d="M927.81,666.82c-5.2,5.92-5.88-3.49-9.54-2.82-.81-3.64,1.88-5.21,4.37-8.07Z"/><path class="clsWindow-9" d="M915.24,727.43c1.4-7.79-5-10.87-9.22-15.25,12.06-1.26,13,6.32,12.1,15.28l-1.44-.09Z"/><path class="clsWindow-3" d="M910.05,658.37c1.35-6.8,5.83-8.34,9.26-11.78C918.27,653,918.27,653,910.05,658.37Z"/><path class="clsWindow-7" d="M897,724.47c-.19,3.35-.38,6.69-.61,10.82-6-7.38-6-7.38.57-10.86Z"/><path class="clsWindow-8" d="M963.27,699.59c.58,1.7,1,3.5,3.25,3.81l-.93,5.74c-4-3.56-8.46-5.17-9.5-10.19C959.29,696.26,960.93,700,963.27,699.59Z"/><path class="clsWindow-8" d="M1004.39,721.4c3.8.58,6.07-3.72,10-3.14-3.33,3.26-4,11.15-11.64,6.24C1004.11,723.89,1005.75,723.44,1004.39,721.4Z"/><path class="clsWindow-9" d="M972.59,625.11l-3.35.07a10.06,10.06,0,0,1-2.39,0l-3.3-3.06c5.84.49,12.43-4.09,17.35,2.58l-5.72.4C974.32,625.16,973.45,625.16,972.59,625.11Z"/><path class="clsWindow-4" d="M963.32,682.41c.27,7-4.3,6.44-9,5.79C956.08,684.3,960,683.76,963.32,682.41Z"/><path class="clsWindow-4" d="M912,645.89c-.79,2.39-2.1,4.21-5.37,4.59-1.21-5.25,2-5,5.39-4.56Z"/><path class="clsWindow-5" d="M924.11,733.74a7.34,7.34,0,0,1-.78-2.63l1.17-.91,5.81.39-.24-.27C929.48,733.9,926.58,733.44,924.11,733.74Z"/><path class="clsWindow-4" d="M912.05,645.92c.29-.81.59-1.61.88-2.41l1.45,1.2L912,645.89Z"/><path class="clsWindow-3" d="M1011.28,684.63c-9.6-4.23-19.17-8.71-29.71-2.73l.15.31c1.78-2.87,3.5-5.46,7.35-6.33,4.14-.92,6.83-3.6,5-8.48l5.59-.54c-.61,2.88.81,4.73,3.13,6.11.85,1.71-1.12,4.4,1.88,5.59,1.79-2.95.16-4.3-2.06-5.43-.1-2.53,1.18-5.78-3.17-6.11.1-1.88.19-3.76.27-5.28,6.37-3.8,7.87,7.64,14.83,2.61C1012.65,671.67,1014,678.39,1011.28,684.63Z"/><path class="clsWindow-7" d="M993.23,666.47c-5.53-2-6.87-6.11-5.6-11.46,4.31-.89,4.93-5.82,8.3-7.69,3.85,1.31,7.63,2.53,9.9,6.95C1003,659.47,993.1,658.13,993.23,666.47Z"/><path class="clsWindow-7" d="M1011.57,703.26l-6.49-6c-.56-3.58-7.06-4.2-4.29-9.83,3.19-1.31,8.16,2.52,11-2.29C1017.25,691.25,1015.84,697.26,1011.57,703.26Z"/><path class="clsWindow-1" d="M996.66,630.75a4.56,4.56,0,0,1,3.88,3C998.84,633.27,997.29,632.61,996.66,630.75Z"/><path class="clsWindow-16" d="M981.57,681.9c-.11,5-1.45,9.11-7.66,6.92-6.57-2.3-5.41-7-3-11.6,6.12-3.33,7.24,3.34,10.8,5Z"/><path class="clsWindow-4" d="M936.78,697c-5.56,5.43-.55,8.78,2.46,12.53-8.74-2.9-18.57,4.12-27.62-3.29,2.7-3.39,6.41-2.4,9.52-3,1.13,3.63,2.82,3.77,5.26,1.07-1.77-2-3.55-1.54-5.35-1C926.26,701.18,930.74,697.16,936.78,697Z"/><path class="clsWindow-4" d="M930.31,730.59l-5.81-.39C926.71,726.33,928.73,725.15,930.31,730.59Z"/><path class="clsWindow-9" d="M900,697.44a4.37,4.37,0,0,1,4.35-3.3C903.3,695.71,902.46,697.61,900,697.44Z"/><path class="clsWindow-13" d="M984.72,715.52c-6-5.29-2.23-12.29-3.2-18.46,2.14-.68,2.8.79,3.39,2.35l0,7.66C984.82,709.89,984.77,712.7,984.72,715.52Z"/><path class="clsWindow-9" d="M993.7,703.3l0-3.19-.27.26,7.51,1.36-7.55,1.33Z"/><path class="clsWindow-9" d="M993.45,706.55c2.41,0,4.61.33,5.4,3.6-3.19.49-4.25-1.56-5.15-3.82Z"/><path class="clsWindow-9" d="M984.88,707.07l0-7.66C988.13,702,989,704.53,984.88,707.07Z"/><path class="clsWindow-9" d="M993.7,706.33c-2-1-1.74-2,0-3l-.27-.24c0,1.16,0,2.33,0,3.49Z"/><path class="clsWindow-1" d="M987.55,717.07l-.21.69c-2.23.56-2.8-.73-2.85-2.58Z"/><path class="clsWindow-1" d="M972.59,625.11c.86,0,1.73,0,2.59,0,.29,1.17-.15,2.19-1.29,2.18S972.31,626.27,972.59,625.11Z"/><path class="clsWindow-1" d="M966.85,625.21a10.06,10.06,0,0,0,2.39,0c-.39.78-.79,1.55-1.19,2.32Z"/><path class="clsWindow-4" d="M999.62,667c-.5,2.7.81,4.47,3,5.81C1002.58,670.4,1003.57,667.44,999.62,667Z"/><path class="clsWindow-4" d="M1002.9,673.3c.5,1.7-1.06,4.15,1.75,5.26C1006.35,675.75,1005,674.39,1002.9,673.3Z"/><path class="clsWindow-5" d="M930.25,730.41c-1.57-5.22-3.57-4-5.75-.21l-1.17.91a21.16,21.16,0,0,1-2.51-.17l-2.7-3.48c.85-8.91,0-16.44-11.87-15.3-2.92-9.75,5-14.46,10.93-15.49,6.85-1.19,12.26-5.84,19.14-5.91-.66,2.15,3.23,4,.46,6.27-5.64.13-9.92,3.64-14.7,5.88a3.7,3.7,0,0,1,4.32,1.42c-2.43,2.68-4.11,2.56-5.24-1l-.11,0,.09-.11c-3.11.61-6.82-.38-9.52,3,9,7.37,18.77.47,27.48,3.25,1.35,5-4.94,10.14.32,15C940.67,733.46,936.38,733.43,930.25,730.41Z"/></g></g></g></svg>