<svg id="Layer_1" data-name="Layer 1" xmlns="http://www.w3.org/2000/svg" viewBox="0 0 1525 1525"><defs><style>.clsWindow-3{fill:#94928d;}.clsWindow-10{fill:#beaf64;}.clsWindow-9{fill:#5d4430;}.clsWindow-13{fill:#371912;}.clsWindow-15{fill:#a64e1e;}.clsWindow-17{fill:#d4858f;}.clsWindow-19{fill:#421a20;}.clsWindow-7{fill:#cd3412;}.clsWindow-5{fill:#cacbad;}.clsWindow-8{fill:#999373;}.clsWindow-16{fill:#7b8874;}.clsWindow-1{fill:#191835;}.clsWindow-4{fill:#595337;}.clsWindow-12{fill:#b5ad9d;}.clsWindow-14{fill:#005bab;}.clsWindow-6{fill:#866a58;}.clsWindow-18{fill:#97200b;}.clsWindow-2{fill:#29586a;}</style></defs><title>Artboard 1outerCircle8</title><g id="WindowParts"><g id="outerCircle"><g id="co8"><path class="clsWindow-3" d="M395.19,268.43c2.9-.15,5.43-.94,6.66-3.92,3.22,2.84,6.44,5.65,11.1,4.35,4-3.51,3.88-7.77,2.85-12.25,3.36-.15,7-1.88,9.71,1.66l.22,1.33c-9.94,3.39-11.43,12.2-3.59,21.31.18.91.33,1.82.44,2.73-16.22-.37-18.91,2.65-16.8,18.6,8.44,2.31,10.85-10.66,19.65-7.61.65,4.09-.28,7.72-1.92,11.6-2,4.73,2.15,4.28,5.09,4.34-2.48,5-9.27,4.23-12,8.9-4.38-.34-5.85-6.34-10.94-5.64,1.11,4.15-.75,6.86-4.07,8.87-3.18.51-2.95,1.62-.55,3.12a25,25,0,0,0,.68,2.54l-9.07,9.12V323.64c-8.18-2.32-10,2-9.51,8.45.41,5.69,2.05,10,9,6l-.21,5.93-6-.22-8.79-6.06c-.34-1.55-.88-2.93-2.73-3.18h0c-.91-3.06-2.22-2.8-3.78-.46-6.6,3.2-15.45-.53-20.72,6.75-2.86-1.49-3.24-3.9-.75-5.51,3.53-2.29,4.88-5.82,6.77-9.12l6-1.17c6.21,1,12.1,1.13,15.56-5.55a4.18,4.18,0,0,0,.18-2.52c2.5-3.53,4.62-7.05-.4-10.29l0-4.52c3.9-8.89-3.29-19.1,3.29-27.67l1.41-.32,1.43.11q0,19.25-.08,38.5c0,5.18,2.13,7.35,7.35,5.48.12-4.31-2.6-8.79.85-12.86.8,5,.75,10.57,7.84,12.88,5.39-9-4.56-17.51-.71-26Z"/><path class="clsWindow-10" d="M332,308.94h0c.89-8.25-15.3-28.48-18.66-24.29l-.09.1h0s-5.32-6.72-4.92-7.41l-.08.25c5.14-9.86,11.63-16.58,20.93-16.73a4.14,4.14,0,0,1,3.45,2.18l.52.83a6.76,6.76,0,0,1,.92,4c-.47,5.78.45,11,5.08,15.88a16.47,16.47,0,0,1,3.66,17.53C341.54,304.52,332.86,314.92,332,308.94Z"/><path class="clsWindow-9" d="M379.92,531a4.57,4.57,0,0,1,3.67,3.55c10.07,6.83,20.48,12.92,32.78,14.81l1.06,2.07,1.34-1.14-2.15-1.17c0-1,0-2.07-.05-3.1l.26-.42c7-.29,12,4.63,17.9,7.2,4.27,1.87,6.49.74,8.76-2.43,1.46,6.3-5.15,9.36-5.91,14.77-2.48,4-5,8-7.42,12-1.37,2.28-1.54,4.37,1.57,5.43l-.22-.22.19,6.34c-3.06,4.5-6,3.27-9.12,0-1.93-2-4.16-3.77-6.25-5.64,1.23-1,4.84.25,3.57-2.9-2.64-6.53,1.32-10.91,5.9-15.63-12.89-5.91-24-12.14-37.48-16.16-.68,6-4.13,9.75-8.14,13.08l.28-.14C364,554,363,551.45,372.11,540.77c-5.58-5-16.26-5.08-16-15.89l-.15.16c6.77-.81,11.36,4.43,17.21,6.2C375.46,531.93,377.79,535.51,379.92,531Z"/><path class="clsWindow-13" d="M492.19,286.69l-.09-3.17c4.6-1.76,2.53-4.44.55-6.48-1.74-1.78-2.66-7-6.89-2.64-9.87-10.4-22.36-17.55-33.17-26.77.64-5.66-1.64-7.33-9-6.57a17.35,17.35,0,0,1-12.15-5.7c1.09-6.6-4.27-1.73-6-3.36l0,.1c1.46-4.51,8.62-1.68,9.29-7.21,8.05,2.58,14.78,7.66,22.05,11.7,2.49,1.38,4.44,2.12,5.36-1.5,2.24-2.67,4.73-5.18,5.37-8.83,6.94,4.17,7.86,11.64,10.08,18.39-1,2-4.2,2.61-3.62,5.64-4-.49-5.54-6.78-11.8-4.66,4.2,2.43,4.76,10.91,11.65,4.44,11.93,1.86,15.8,13.3,23.71,19.94.73,2.95,2.3,5,6.14,5.28-.23-3.91,4.49-5.91,3.66-10.21,9.42,3.53,7.34,9.37,1.73,13.92C504.4,282.83,498.69,286,492.19,286.69Z"/><path class="clsWindow-15" d="M232.56,433.33c5.46.41,8.76,3.4,11.27,8.22,3.93,7.49,8.1,14.95,15.07,20.23,3.87,10.4,14.08,14.29,21.51,21l2,4.91c-6,.79-8.08-5.1-12.44-6.45-1.79,1.36-2.46,4.31-5.42,4.45-7.56-4.2-11.59-12.62-20-17.94,1.64,9.08,10.06,11.38,12.29,18.13-.23,4.1.88,6.82,5.79,5.61l3.27,2.79c-7.51,1.85-13.21-.79-18.56-6.22-5.16-5.25-11.28-9.56-17.7-14.88,8.27-6.82,11.92-12.91,11.55-20.82l3.28,0,.54,1-.7-.84c-1-2.22-2-3.53-2.94.05l-17.08.57-3.67-6.78,5.08,0c2,.41,3.45,3.76,5.65,1.69,1-.9.38-3.4.51-5.18l-.07.11c2.05-.57,2.86-2.27,3.6-4,1.09.57,1.5.4,1.08-.46-.06-.12-.73.05-1.12.09A5.6,5.6,0,0,1,232.56,433.33Z"/><path class="clsWindow-17" d="M332.06,347.41c-8.05,5.06-17.29,6.77-26,9.89-13.1,4.67-26.72,10.14-36.19,22-.3-9.17,6.4-12.58,11.52-17.7,3.29-3.29,13.07-2.92,8.9-11.93,2.9-3.91,7-6.48,11.18-8.46,5-2.35,3.16-6.2,3.31-9.75l-.19.24c3.77,2.08,7.1,5.55,12.08,3.92,6,5.22,14.18,0,20.41,3.78C338.46,344.36,334.17,345.17,332.06,347.41Z"/><path class="clsWindow-13" d="M368.63,222.56c-3.26,2.09-2.81-7.6-7.1-2.24-10.29-2.1-20.22,1.48-31.13,2.68,4.34-4.6,2-6.78-1.46-8.65,8.57.07,16.34-3.49,26.54-4.8-10.61-3.88-18.35,1.13-26.52,1.64,0-1.06,0-2.12,0-3.17,3.53-.69,6.34-2.06,6-6.38l2.85-2.88c6,4.15,11.61,6.48,15.23-2.68,6.73-8.15,10.25,1.88,15.4,2.71,4.9,2.78,2.63,7.38,2.37,11.51l15.36,1.58c-1.61,2.5-6.27.12-6.87,3.94,3,3.31,8.09-1.26,10.78,3.17C383.26,222.27,375,216.82,368.63,222.56Z"/><path class="clsWindow-19" d="M281.06,398.08c10.45-4.85,10.8,6.73,16.37,10.05,1.83-2.95,1.93-7.88,7.42-6.88,2,8,4.26,15.9,11.6,21,2.24-1.54,10.21,4.17,6.37-5.05l6.22-3.45c-.22,3.9,3.78,8.36-2.36,11.43s-3.45,12.08-9.7,15.33c.2-2.61.65-5.29-2.12-7-2.88-5.23-6.54-10.12-12.39-11.62-4-1-3.65,1.52-1.16,3.73.74,1.47,1.6,2.79,3.47,2.92l3,2.77c.23,1.58.74,2.95,2.48,3.45l.22.33c.1,1.71,1.23,2.57,2.63,3.22a10.48,10.48,0,0,0,.79,2.37l.18-.16c-.71.29-1.87.41-2,.88-.52,1.47.75,1.86,1.84,2.23-.94,3-3.51,5.43-3.05,8.9h0l-3,.93.07-1c-.38-15.43-10.2-26.47-24.17-27.17h0c5.48-5.45,1.26-12.35,2.75-18.4l-1.23-4.07-2,2C280.61,403.12,280.52,400.7,281.06,398.08Z"/><path class="clsWindow-19" d="M318.53,426.3c-1.73.87-1.35,2.15-.57,3.43a.9.9,0,0,0,.87.07C320,428.51,319.52,427.32,318.53,426.3Z"/><path class="clsWindow-7" d="M313.43,471.54c7.08,14.1,21.53,22.15,29.3,35.69,4.14,8.26,5.12,17.08,4.79,26.18-.17,4.45-1.7,7.75-6,9.47-5.87-23.09-14.91-44.42-33.72-60.28-1.13-4.3-5.92-6.71-6-11.57l2.68-3.45.14-.15,3.17-.11.21.18C309,470.05,311.23,470.73,313.43,471.54Z"/><path class="clsWindow-5" d="M540.25,455.3c-7.3,1.23-12.37,5.89-17.22,11a36.21,36.21,0,0,1,16,18.36c-4.38,3.63-5-2.88-8.11-1.87l.47.27c-.2-2-.54-3.89-3.33-3.29l.19.24c.32-2.94.9-6.06-4.17-5.58l1.53,5-6.11.44c-6-.72-3.23,2.91-2.7,5.43-7.16,1.2-12.13,4.6-12.64,12.51-3.18-.8-4-4.06-6.22-5.92,1.3-7.38,12-7.05,12.42-15.18l-.05.07a4.4,4.4,0,0,0,4.66-1.76c-1.17-1.81-3-1.59-4.73-1.47l.12.19c.45-7.13-4.25-14-.88-21.28,2-.2,3.43-1.09,3.72-3.25l-.2-.08c2.52,1.27,2.9,3.56,2.88,6l-1.21,2,2-1.21c1.28-.57,3.41-.85,3.72-1.76,3.89-11.38,5-12.08,15.15-8.1,2.74,1.08,5.39,2.37,8.09,3.56C542.68,451.67,539.86,452.54,540.25,455.3Z"/><path class="clsWindow-7" d="M222.86,367.53c1.46,6,5.19,11.67,3,18.58-3.77,1.52-6.21,6.21-11.26,6.28q-1.83-16-3.65-32l.15-16.6,6.93-23.4c1.29,1.34,2.59,2.67,3.88,4,4.1-8,4.5,2.26,7.15,1.44q-1.56,8.91-3.1,17.8l.12,0c-3.79.91-9.73-.56-7.66,6.9,1.55-.65,2.08-3.19,5.16-1.8v9.74C223.35,361.44,223.1,364.48,222.86,367.53Z"/><path class="clsWindow-8" d="M380.18,561.45c4-3.33,7.46-7.08,8.14-13.08,13.46,4,24.59,10.25,37.48,16.16-4.58,4.72-8.54,9.1-5.9,15.63,1.27,3.15-2.34,1.93-3.57,2.9a26.09,26.09,0,0,0-13.39-5.95C392.5,575.75,387.27,567.36,380.18,561.45Z"/><path class="clsWindow-8" d="M413.15,565.18c-.58.61-1.61,1.19-1.64,1.82a2.07,2.07,0,0,0,2.71,2.3,2.64,2.64,0,0,0,1.63-1.82C416,565.7,414.81,565.07,413.15,565.18Z"/><path class="clsWindow-16" d="M426.09,416.57c-8.59-9.55-19.58-16.62-27.47-27-2.91-3.83-5.57-7-2.52-11.84,3.23-1.16,5.43,1.93,8.35,2.08,5,6.35,11.53,10.79,18.08,15.36,8.43,5.89,16.59,12.26,22,21.34,2.3,3.85-2.87,2.9-3.19,5-4.45-.1-8.44-3.11-13.07-2.1l.26.15Z"/><path class="clsWindow-1" d="M307.84,482.6c18.81,15.86,27.85,37.19,33.72,60.28l-7.16,3c1.23-5.32.4-10.61-.28-16.36-2.77.67-5.23,2.93-8.23,1.77.34-3.43,4.46-6.4.81-10.38s-6.78-.9-10.06.48a6.56,6.56,0,0,1,.3-1.76c.13-2,.25-4,.38-6,2.72,0,5.06,3.45,8.91.27-5.1-2.36-3.87-9.68-7.34-11.14-5-2.11-10.95-6-17.08-1.86-6.93-.83-3.79-9.66-9.26-11.65C294.58,480,302.83,485,307.84,482.6Z"/><path class="clsWindow-5" d="M332.3,353.25,335,349.8l7.58-4c7.16,3.9,10.28,11.66,16.6,16.08-1,2.21-3.39,5.27-2.68,6.49,4.92,8.36-2.76,7-6.35,8.86-3.58-.05-4.71,2.79-6.17,5.24h-5.17c2.24-4.59,0-5.5-4.05-4.95-2.39-.54-2.67-4.76-6.09-3.51l.35.29c0-1.13-.07-2.27-.1-3.41C331.5,365.32,332,359.3,332.3,353.25Z"/><path class="clsWindow-5" d="M492.45,495.28c5.69,4.87,12.42,8.94,14.26,16.58-5.26,4.8-6.3-2.44-10.76-1.23,2.06,4.86,4.55,10.21-.59,14.72-4.18,2-6.56-4.52-12.28-1.51-2.13,9.45-9.74,9.6-18.41,7.09l.09,0q1.37-2.85,2.71-5.72l.25-3.24c4.44-4.21,4.45-4.37.35-5.79,1.05-2.73,2.31-5.3,5.21-6.57-.09,1.57.49,3.34,1.92,3.35s2-1.7,1.64-3.28l-.08.07c2.78.73,3.8-.3,3.07-3.07l-.36.09c4.34,3.53,8.16-.6,12.11-.47C493.2,502.49,487.87,498.54,492.45,495.28Z"/><path class="clsWindow-4" d="M467.72,522c-.08,1.08-.17,2.16-.25,3.24l-5.9-.12a2.83,2.83,0,0,0-2.81,3.14L459,528c-2-.53-3.68-1.39-4.58-3.57.24-3,6.92-3.17,2.63-9.14-4.92-2.13-11.09-5-17.46-7.45-4.33-1.64-3.05-4.19-1.9-7,6.2-4.34-2.47-7.2-1-11.17,2.87-3,9,2.26,10.78-4h1l1,.19c8.81.75,15.27-4,21.57-9.18l9.52,8.33c-8.65,1-16.31,6.1-25.21,6.06-2.1-2.15-4.36-2.73-5,.84-.88,4.85-.36,9.56,5.34,12.49V498.1l3.59,3a2,2,0,0,0,.46,2.63c-1,4.82,2,4.27,5,3.73Q463.31,512.74,462,518C462.43,521.46,464.72,522.24,467.72,522Z"/><path class="clsWindow-12" d="M422.58,283.64c-.11-.91-.26-1.82-.44-2.73,4.86-2.41,11-2.87,13.71-8.68L425.73,259.6l-.22-1.33c12.15,4.86,23.42,10.86,30.69,22.46,2.61,4.17,8.72,4.22,11.19,8.77a14.2,14.2,0,0,0,.18,2.61c-1,.52-2.25,1.05-1.72,2.47.14.37,1.3.36,2,.52,5.34,8.26-3.16,6.24-4.91,8.86-5.85-2.64-2.29-9.77-7.86-11.26-2.81-5-5.1-10.38-11.13-15.45-1.4,5.76-2.48,10.2-3.55,14.65l-3.92-2.62c-.51-2.7-2.4-3.15-4.72-2.88a2.05,2.05,0,0,0-2.31-.64,8.82,8.82,0,0,0-7.13-2.41Z"/><path class="clsWindow-16" d="M404.74,376.71c5.73-4.15,11.3-9.3,19.16-6.14,5.46,2.18,8.94-4,14-2.62l3.4,5.46c-5.06,7,3.38,12.29,2.35,18.77l.13-.14c-3.36-.29-4.32-5.23-8.22-4.39-3.75,6.52,4,9.05,4.69,14Z"/><path class="clsWindow-8" d="M440.77,458.52c-3.89,2.11,1.74,5.51-1.52,8.12-8.45.4-15-4.11-22.22-9.08,6.15-4.2,10.16,2.86,15.63.37-3.85-6.3-11.94-6.82-16.21-12.15,0-4.37-5.84-10.85,4.2-11.56,6,.3,10.44,4.52,15.91,6.12l10.58,11.88C446.31,457,441.44,455.15,440.77,458.52Z"/><path class="clsWindow-4" d="M283.1,340c-.76,8-6.41,7.08-11.86,6.55.11-1.75.51-3.57-1.08-4.88-1.83,1.23-1.31,3.07-1.24,4.81l-5.17-3.9c-1.22,7.45-5.94,13.12-9.72,19.31-.4-7.85-3.34-15-6.15-22.18L247,323l8.84-3.51c.85,7.05,8.92,10,8.32,17.67,5-2,0-5.17,2.94-6.86,4.7.11,6.44,10.73,13.37,4.26l.66.7C281.89,336.75,280.94,339,283.1,340Z"/><path class="clsWindow-9" d="M540.25,455.3c-.39-2.76,2.43-3.63,3.32-5.64h0l3-.39c6.17-1.69,11.7-4,11.69-11.81,1.94-.53,3.72,3.09,6.07-.07-.92-1.9-1.89-3.91-2.87-5.92-.11-1.34-.23-2.68-.34-4-1.36-3.08-2.7-6.17-4.1-9.23-2-4.4.85-4.86,4-5.06a4.36,4.36,0,0,0,3.54,3.3c1.75,4.1,2.15,8.91,5.19,11.92,4.38-.59,3.77-3.35,4.21-5.49a4.59,4.59,0,0,1,2.61,1.09c4.52,2.62,9.29,7.05,12.23-1.7l-.08.06,9,0c.77,2.38,3.21,4.18,2.48,7.08-5.18-2.35-9.71-1-13.88,2.44-6,.64-6.8,5.62-7.8,10.27-8.37-7.54-12,1.08-17.11,4.26-3.73,1.55-7.57,2.93-10.38,6.05-4.11-.86-6.2,4.52-10.4,3.36Z"/><path class="clsWindow-9" d="M586.59,403.54c-1-2.51-1.29-4.76,2.18-5.5-.26-3.16.94-6.68-2.31-9.06-.46,2.34-.5,5-4.79,5.4-.29-11.33-12-19.49-8.3-32.12.27-3.7-4.45-3.13-5.14-6,2.28-1.71,3.13-4.08,2-6.59-4.33-9.89-8.86-19.7-13.25-29.39-7.26,2.3-13.38,6.05-19.4.16-10.25-3.43-7.33-9.36-3-15.57l-11.92-.59c.88,6.09,5.18,11.45,4.24,19.91-6.66-9.71-10.24-18.52-10.72-28.54-4.92-4.64-10-.88-15.19-1.13v6.63c.33,2.65.83,5.18,3.83,6.16,1.94-3.87,4-1.84,4.93.37,2.86,6.72,6.33,13.29,6.64,20.84,4.14,1.85,3.28,7,6.24,9.59,2.54,1.51,4.94,3.48,8.24,2.68l18.7-9.31c1.05-1.62,2.28-3,4.28-1.46.5.4.82,2,.51,2.3-1.76,1.65-3.06-.95-4.74-.74-.77,3.18-1.53,6.36-2.28,9.49,1.93,1.71,3.34-.89,5-.27.45-.53.9-1.05-.21.24l.23-.21c-.92,6.33,5,9.7,6.46,15l-3.16,2.94.09,5.44c14,1.79,10.75,17,18.29,24,1.45,1.35,4.77,8.75-3,10.12a8.88,8.88,0,0,0,0,2.36c6.54.9,10.29,4.95,11.71,11.07,1,4.17,1.46,8.39,5.9,10.5C588.92,415.91,589,409.59,586.59,403.54Z"/><path class="clsWindow-3" d="M486,476.41c-10.11-2.11-15.06-10.58-21.39-17.37a3.3,3.3,0,0,0-3-3.29h0c8.78-3.53,18.63,2.19,27.19-3.17,4.17,2.17,5.35,6.78,8.06,10.41.88-2.13.43-4.44,2.67-5.42,5,6.76,5,6.76-4.39,13.16-2.53-.11-5-.19-6.25,2.72l-3.14,3.23Z"/><path class="clsWindow-8" d="M356.09,524.88c-.24,10.81,10.44,10.85,16,15.89C363,551.45,364,554,380.46,561.31c-.67,3.52-2.86,3.32-5.49,2.35-11.56-4.26-23.11-8.52-34.35-15.74,6.74-3.3,12.44-6.71,10.71-15.44C351.13,531.49,351.06,525.22,356.09,524.88Z"/><path class="clsWindow-17" d="M441.3,373.41,437.9,368c-.38-3.87-4.92-8.4,1.47-11.23,5.89-2.61,8-8,10.66-13.19,1.9.07,2.83-1.1,3.43-2.69,2.38,1.19,2.78,3.44,3.08,5.74-4.46,3.88,0,4.65,2.16,6.24,1,1.15,2,2.3,3.05,3.44-.18,5.87,2.15,12.17-3,17.18Z"/><path class="clsWindow-5" d="M488.81,452.59c-8.56,5.36-18.41-.36-27.19,3.17-5.91-3.75-11.05-8.09-11.81-15.71.91-4.28,7-5.83,5.89-11.17,3.94,7.26,12.55,7,18.3,11.34C478.49,444.87,485.39,446.65,488.81,452.59Z"/><path class="clsWindow-14" d="M501.07,301.15c.33,2.65.83,5.18,3.83,6.16,2.05,1.42,2.12,3.63,2.34,5.78.39,3.4-1,7.39,3.2,9.49l-.08-.17c0,1,0,2.1,0,3.15-8.39,6.92-14.83,1.93-21.21-3.46-.55-4-1.94-7.37-6.36-8.45l.1.08C485,301.27,486.62,300.18,501.07,301.15Z"/><path class="clsWindow-5" d="M449.69,340.93c-1.53-.49-3.09-.36-3.93,1-9,14.8-12.29,16.07-29.91,10.56,3.79-5,6.45-11.71,11.21-13.9,5.93-2.73,6.88-10.08,14.22-11.53l8.37,7.65-1.51,1.85,2.43.6-.13-.16Z"/><path class="clsWindow-7" d="M368.63,222.56c6.39-5.74,14.63-.29,21.48-3.57-2.69-4.43-7.74.14-10.78-3.17.6-3.82,5.26-1.44,6.87-3.94,8.27,1.34,16.69,2,24.58,5.13.14,2.38.28,4.75.62,10.49,3.92-9.32,8.65-9.05,13.87-5.31l9.49.8-.19-.17a3.66,3.66,0,0,1,.24,2.07c-.67,5.53-7.83,2.7-9.29,7.21-8.89-1.45-18.82-.62-23.49-11.2-4.31,9.52-10.36,1.58-15.47,1.86C380.6,223.08,374.61,222.66,368.63,222.56Z"/><path class="clsWindow-12" d="M220.62,446.41l3.67,6.78c-3.51,4.51-4.86.28-5.95-1.82a173.64,173.64,0,0,1-13.22-33.49c1.53-3,3.51-1.44,5.24-1.29,1.5,3.53-1.42,8.94,4.34,10.83,5-4.69-.28-7.86-1.27-11.56a9.68,9.68,0,0,1,1.13-2.79l5,.17c2.94,6.18,0,17.28,12.79,15.22l-.11-.1c.11,1.66.21,3.31.32,5a5.6,5.6,0,0,0,2.79,5.37l0,.37c-.74,1.74-1.55,3.44-3.6,4a5,5,0,0,0-.35-1.12c-.1-.18-.43-.23-.66-.34l1.08,1.35c-.13,1.78.44,4.28-.51,5.18-2.2,2.07-3.66-1.28-5.65-1.69.23-2.62.1-5.39-3.44-4.82C219.88,442,220,444.4,220.62,446.41Z"/><path class="clsWindow-12" d="M220.05,434.53c.1-1.67-.46-3-2.33-2.78a3.2,3.2,0,0,0-2.35,1.45,2.62,2.62,0,0,0,1.73,3.46C219,437.38,219.62,436,220.05,434.53Z"/><path class="clsWindow-5" d="M211,360.35q1.83,16,3.65,32c-3.74,5.9-3.74,5.9-13.81,6.67-4.38-12.6-1.71-25.43-1.35-39.14C203.53,359.06,207.21,358.94,211,360.35Z"/><path class="clsWindow-5" d="M208,369.08c-.88-3-2.23-3.62-3.7-3.06a2.38,2.38,0,0,0-1.28,3.53,3.14,3.14,0,0,0,2.52,1.14C207.19,370.59,208.12,369.54,208,369.08Z"/><path class="clsWindow-5" d="M207,381.26c.81-2.82-.28-3.71-1.87-3.78a2.88,2.88,0,0,0-2.32,1.25,2.68,2.68,0,0,0,1.36,3.57A2.19,2.19,0,0,0,207,381.26Z"/><path class="clsWindow-5" d="M203.62,392.3c.85.41,2.23,1.67,3.17,1.4,1.33-.39,1.73-2.22,1-3.56a2.82,2.82,0,0,0-2.28-1.13C204.07,389.16,202.83,389.89,203.62,392.3Z"/><path class="clsWindow-5" d="M218,320.35l-6.93,23.4c-2,.26-3-1-3.89-2.53-.88-4,5.38-7.29,1.21-11.75-6.17,2-2.78,7.33-4.05,10.95l-6.32,2.16c2.67-16.64,5-31.73,16-44l-.16-.19c-.47,7.37,5,6.2,9.4,6.49Z"/><path class="clsWindow-5" d="M212.46,315.55c3.47-.94,4.65-3,4-5.72a2.37,2.37,0,0,0-3.48-1.47C210.88,310,210.06,312.28,212.46,315.55Z"/><path class="clsWindow-5" d="M210,324.68a3,3,0,0,0,2.61-3,1.91,1.91,0,0,0-3-1.57c-.92.61-1.24,2.26-1.56,3.52C208.06,323.79,209.43,324.36,210,324.68Z"/><path class="clsWindow-16" d="M431.7,588.72l-.19-6.34.9-.76-.68,1c-3.11-1.06-2.94-3.15-1.57-5.43,2.42-4,4.94-8,7.42-12l0,8.47-.81.93.66-1.08,7-3.83c3.23.64,5.71-1.11,8.24-2.64s4.28-4.37,8.74-2.54c2.32,8.13-12.44,9.1-8.66,17.88l-6.41,5.84Z"/><path class="clsWindow-19" d="M350.4,466.85c-.24,1.49-.47,3-.71,4.46-4-2.67-6.55-8.87-13.14-5.51-1.91,2.92.74,5.44.64,8.15l-6.09-1.07c2.24-5.15-2.52-9.47-1.73-14.46,5.3-6.18.91-9.07-4-11.79l-.11.64c.33-6.08,1-12,6.67-15.87,3.46,4.82,3.57,11.66,9.14,15.21l-.16-.22C339.72,455.23,347.36,460,350.4,466.85Z"/><path class="clsWindow-12" d="M410.78,217c-7.89-3.13-16.31-3.79-24.58-5.13l-15.36-1.58c.26-4.13,2.53-8.73-2.37-11.51,11.54-7.17,22.78,1,34.2.82,3.27,0,6.56,1.95,9.84,3C411.91,207.62,411.35,212.32,410.78,217Z"/><path class="clsWindow-12" d="M377.49,202.71c0,1.23-.07,2.46-.1,3.69l28.38,3.25A35.19,35.19,0,0,0,377.49,202.71Z"/><path class="clsWindow-8" d="M242.46,263.87c4.09,4.1,5.79-3.59,10.57-.56l-21.81,28.3c-3.21-3.32-6.39-6.14-12-6.08,6.16-14.09,15.59-24.67,26.21-34.51C250.48,257,240.9,259.26,242.46,263.87Z"/><path class="clsWindow-8" d="M230.54,277.42c-2.14.67-3.62,2.16-3.32,4.28a2.46,2.46,0,0,0,3.44,1.65,5.71,5.71,0,0,0,2.5-3.39C233.55,278.27,232,277.61,230.54,277.42Z"/><path class="clsWindow-8" d="M240.24,272.6c.29-2-.56-3.1-2-3.57a2.57,2.57,0,0,0-3.36,1.6c-1.11,2.3-.07,3.63,2.14,3.65C238.18,274.29,239.32,273.12,240.24,272.6Z"/><path class="clsWindow-5" d="M586.37,431.83c4.17-3.42,8.7-4.79,13.88-2.44a56.69,56.69,0,0,0,7.7,16.9c-8,.51-13.12,12.4-22.39,3.33-2.55-4.31-4.58-8.45.77-12.44C588.09,435.87,586.71,433.64,586.37,431.83Z"/><path class="clsWindow-5" d="M401.58,322.7c3.32-2,5.18-4.72,4.07-8.87,5.09-.7,6.56,5.3,10.94,5.64,2.85,6,8.59,2.78,13.67,4.1-4.73,7-8.56,14.13-16.62,17.47-4.76-3.49-6.1-10.2-11.93-12.68a25,25,0,0,1-.68-2.54C401.22,324.78,401.4,323.74,401.58,322.7Z"/><path class="clsWindow-16" d="M471,476.64c-6.3,5.16-12.76,9.93-21.57,9.18l-.51-5.83a53.61,53.61,0,0,0,.3-18.82q.53-2.61,1-5.21l1.14.07,1.13-.18C460.28,461.34,464.27,470.19,471,476.64Z"/><path class="clsWindow-3" d="M259.63,317c12.68-9.56,14.82-9.45,27.24.66a107.78,107.78,0,0,0,9.15,6.06,5.61,5.61,0,0,1-3.17,5.22C280.31,329,270.34,322,259.63,317Z"/><path class="clsWindow-6" d="M329,208c0,1,0,2.11,0,3.17s0,2.11,0,3.16c3.44,1.87,5.8,4.05,1.46,8.65,10.91-1.2,20.84-4.78,31.13-2.68-7.12,5.25-16,2.21-23.84,5.33-7.57,3-17,.95-23.07,8.66-.67.85-4.5-.79-6.87-1.27-3-4.91-2.65-5.35,5.44-7.87,8.27-.63,7.09-9.4,11.49-13.36l-2.07-1.93C324.32,207.91,326.61,207.87,329,208Z"/><path class="clsWindow-8" d="M259.63,317c10.71,5,20.68,12,33.22,11.94q-1.85,2.7-3.7,5.38a4,4,0,0,0-3.21,2.84L283.1,340c-2.16-1-1.21-3.25-2-4.78,1.33-.3,2.71-1.25,1.52-2.35s-1.8.57-2.18,1.65c-6.93,6.47-8.67-4.15-13.37-4.26-2.93,1.69,2.09,4.84-2.94,6.86.6-7.7-7.47-10.62-8.32-17.67C256.64,318,257.59,316.62,259.63,317Z"/><path class="clsWindow-18" d="M218,320.35l5.28-15.49c2-.33,2.61-1.81,3-3.51l-.22.23c2.55-2,3.45-8.19,7-6.19,7.07,4,6-4.17,9.51-5-1.27,7.07-1.34,7-8.62,12.48-1.45,1.1-3.41,4.21-3,4.66,5.66,6.86-1.17,12.26-1.85,18.29-2.65.82-3-9.47-7.15-1.44C220.63,323,219.33,321.69,218,320.35Z"/><path class="clsWindow-4" d="M464.67,530.93c8.67,2.51,16.28,2.36,18.41-7.09,5.72-3,8.1,3.49,12.28,1.51-3.77,5.43-9.12,9.64-10.69,16.8-.64,2.89-2.2,8.05-7.79,6.91,1.12-2,2.57-3.81-.49-5.86C471.63,540,468,535.6,464.67,530.93Z"/><path class="clsWindow-16" d="M316.64,335.63c-5,1.63-8.31-1.84-12.08-3.92-1-7.33-.64-14,8.92-16C327.52,325.38,328.3,329.38,316.64,335.63Z"/><path class="clsWindow-16" d="M318.87,327.9c.29-.33.84-.68.82-1a1.26,1.26,0,0,0-.93-.84c-.33,0-.65.56-1,.87Z"/><path class="clsWindow-5" d="M261.14,291.39c8.63,8.45,1.52,14.48-.31,20.74-5.06,2.66-10.77,2-17,7.44C248.11,307.6,249.94,297.4,261.14,291.39Z"/><path class="clsWindow-10" d="M349.92,340.8c5.27-7.28,14.12-3.55,20.72-6.75l3.78.46h0c.07,1.17.15,2.33.22,3.5q-.56,2.67-1.13,5.34c-4,3.38-3.39,9.8-8.36,12.51C359.19,351.75,357.06,343.74,349.92,340.8Z"/><path class="clsWindow-5" d="M459.21,501.1l-3.59-3c-1.87-2.27-4.56-4.51-.34-7.07,8.9,0,16.56-5.07,25.21-6.06,2.66,2.4.2,6.69,3.29,8.94-.44.55-.89,1.09-1.34,1.64-9.19-.25-9.19-.25-9.12,5.52.23,1.72.89,3.58-.92,3.9-5.82,3.2-1.69-7.83-7.67-4.39l-3,.79A8.17,8.17,0,0,0,459.21,501.1Z"/><path class="clsWindow-4" d="M373.53,343.36q.57-2.67,1.13-5.35a23.89,23.89,0,0,0,2.51-.31l8.79,6.06c2.26,3.9,5.08,7.76,3.67,12.59-1.71,5.83-3.39,12.41-11.09,4.64-.48-.49-2.68.72-4.08,1.13C375.54,355.8,377.59,349.43,373.53,343.36Z"/><path class="clsWindow-5" d="M325.89,531.27c3,1.16,5.46-1.1,8.23-1.77.68,5.75,1.51,11,.28,16.36l-38.17-19c11.33-3.81,16.33,5.16,23.71,4.36l-.28-.17c2.14,3.43,4.28,5.69,6.44,0Z"/><path class="clsWindow-4" d="M401.71,328.36c5.83,2.48,7.17,9.19,11.93,12.68-3.34,6.26-10.77,5.3-15.15,9-3.64-1-4.42-4.22-6.56-6.07l.21-5.93.5-.57Z"/><path class="clsWindow-9" d="M480.14,343.82c1.49-3.38,4.52-3.2,7.46-3.23,2.82,1.67,3.09,6.51,7.58,6.12a3.84,3.84,0,0,0,.92,4.94c1.12.8,2.23-.56,2.6-1.94,4.4,6.22,2.24,13.47,4.43,20.08-9.13,1-6.21-8.72-11.56-10.34l.14-.35a3.66,3.66,0,0,0-3-3.05l-5.93-8.29A4.15,4.15,0,0,0,480.14,343.82Z"/><path class="clsWindow-3" d="M455.7,428.88c1.1,5.34-5,6.89-5.89,11.17C439,437,434.35,427.51,428.3,419.48c4.63-1,8.62,2,13.07,2.1A50.52,50.52,0,0,1,455.7,428.88Z"/><path class="clsWindow-16" d="M504.11,497.83c.51-7.91,5.48-11.31,12.64-12.51A27.53,27.53,0,0,1,525,496.93C518,499.29,511.94,508.6,504.11,497.83Z"/><path class="clsWindow-16" d="M304.75,331.47c-.15,3.55,1.67,7.4-3.31,9.75-4.18,2-8.28,4.55-11.18,8.46l-14.58,11.4c.34-6.88,4.92-10.23,9-13.63,3.07-2.54,6.54-4.54,5.27-9.39,3.14-1.45,5-4.26,6.75-7C299.78,326.4,302.14,330.19,304.75,331.47Z"/><path class="clsWindow-8" d="M586.37,431.83c.34,1.81,1.72,4,0,5.35-5.35,4-3.32,8.13-.77,12.44-4.38,1.23-1.37,6.06-4,8.24-3.28-.93-1.67-3.52-1.9-5.46-.87-2.1.24-5.44-3.28-5.86-1.6-.19-2.46,1.18-2.58,2.8l-3.16.2-4.93.85c-.72-.55-1.42-1.12-2.12-1.69l-2.15-2.34c5.1-3.18,8.74-11.8,17.11-4.26C579.57,437.45,580.33,432.47,586.37,431.83Z"/><path class="clsWindow-5" d="M540.68,455.77c4.2,1.16,6.29-4.22,10.4-3.36l4.48.14c-.5,2.3.74,2.8,2.68,2.58.1,1.86-1,2.85-2.57,3.42l-3.25.1c.54-1.07.34-1.92-.65-2-.46-.05-1,.65-1.49,1l2.27.89c.05,4.43,2.31,7.37,6.23,9.17l-.28-.25c-1.27,11.95-7.09,5.87-12.09,3.06l.2.17c-.79-5.3-2.79-9.36-9.14-9l-.67-.4Z"/><path class="clsWindow-1" d="M332.3,353.25,335,349.8l-2.89-2.39c-8.05,5.06-17.29,6.77-26,9.89-13.1,4.67-26.72,10.14-36.19,22-.3-9.17,6.4-12.58,11.52-17.7,3.29-3.29,13.07-2.92,8.9-11.93l-14.58,11.4c.34-6.88,4.92-10.23,9-13.63,3.07-2.54,6.54-4.54,5.27-9.39l-.24-.31-3.8-.64L283.1,340c-.76,8-6.41,7.08-11.86,6.55l-1.17.26-1.15-.33-5.17-3.9c-1.22,7.45-5.94,13.12-9.72,19.31-.15,1-.3,2-.44,3,2.42,1.07,3.14,3.13,3,5.66a7.57,7.57,0,0,1,2.09,6.56l1.92,14.59c2.87,1.54.78,4.57,2,6.62,9,9.13,8.71,21.7,12,32.93,3,1.12,2.18,3.85,2.47,6.12a6,6,0,0,1-2.66-6.05c-7.68-6.05-8.18-16.46-14.18-23.53-5.61,1.6-10.21-1.6-15.25-3-6-1.65-12-2-14.58,5.66q2,6.3,4.07,12.59c.59,2.35,1.77,5-2.26,5.34.11,1.66.21,3.31.32,5,5.46.41,8.76,3.4,11.27,8.21,3.93,7.5,8.1,15,15.07,20.24,3.87,10.4,14.08,14.29,21.51,21,7.33-2.76,6.15-9.07,6.23-14.86,3.82-2.2,3.17-5.78,2.89-9.26l3.32-.08c4.67-.62,6.71,1.46,6.27,6.1,3.44-2.49,3-5.59,1.28-8.8-1.23-2.26-2-4.34.89-5.92l.39-.44c-4.38-4.42-8.5-9.14-13.22-13.16-3.62-3.08-5.85-6.23-4.81-11.08h0c-6.25-8.13-9.06-17.13-6.64-27.26-2.41-1.06-3.16,4.63-5.58,1.07-5-7.33,2.79-12.09,3.22-18.58,4.56,5.45,5.7,11.43,6.43,17.54,10.45-4.86,10.8,6.73,16.37,10.05,1.83-2.95,1.93-7.88,7.42-6.88,7.46,5,9.73,12.87,11.6,21,2.24-1.54,10.21,4.17,6.37-5.05-6.85-4.47-.74-5.3,2-7.08.2-.76.41-1.51.62-2.27l-10.8-9.15c-.46-4.35,6.25-2.37,5.49-6.64-.72-3.18.06-6.9-3.27-9.14-11.35-2.68-8.82,5.07-9.52,11.83-4.79,1.82-11-5.82-16.71.25-4.64-5.41-10.53-9.73-10.67-18.5,9.12-9.84,22.86-9.83,33.89-15.17,3.73,3.23-.63,7.64,3,10,4.71-1.65,7.6,3.86,12.1,3,0-1.13-.07-2.27-.1-3.41C318.58,363.52,319.34,359.59,332.3,353.25Z"/><path class="clsWindow-10" d="M361,410.06l-5.47.07c.25-.94.51-1.88.79-2.82l-.22.1,3.8-3.31c1.17.24,1.84-.19,2-1.3a22.4,22.4,0,0,1,11.86-5.16c3.27,1.1,7.56-.77,9.8,3.36a17.65,17.65,0,0,0,2.36,11.68c-3.68,5.36-8.05-4.34-11.75.53,0-2.94.77-6.06-1.78-8.48C366.84,402.85,364.15,407,361,410.06Z"/><path class="clsWindow-16" d="M329.37,458.42c-.79,5,4,9.31,1.73,14.46-5.05-2.39-6.42-10.46-13.94-9.05l.32.28q-3.12-3.28-6.22-6.59l0-1,5.51-.86c.82,2.8,2,4.45,4.71,1.51-1.44-1.6-2.91-2.67-5-1.19l.49-3.24.09,0c2.39.11,3.08-1,2.31-3.2.36-4.93,2.88-4.22,5.87-2.24l.11-.64A24.51,24.51,0,0,0,329.37,458.42Z"/><path class="clsWindow-4" d="M474,549.18c-2.13,1.79-1,8.83-7.14,4.3-1.61-1.19-3.76-.67-4.89,1.49-2.95-.71-5.34-3.45-8.77-2.39-3.1-1.22-6-2.67-6.6-6.44,3-3.18,4.33-7.9,9.1-9.29,2.06,3.62-3.85,5.73-1.87,9.33a9.49,9.49,0,0,0,10.07,2.51c1.38-3.63-6.09-4.32-1.88-8.91C468.2,540,469.22,547.08,474,549.18Z"/><path class="clsWindow-4" d="M428.6,310.57c-2.94-.06-7.09.39-5.09-4.34,1.64-3.88,2.57-7.51,1.92-11.6l-.12.76c5.2-3.95,10.32,0,15.48.15l-.13-.22c1.63,5.43,5.81,11.78-5.33,12.06C434.45,307.41,429.73,307.32,428.6,310.57Z"/><path class="clsWindow-5" d="M274.56,241v-4.08c-6-3-7.63,7.37-13.35,3.6C270.29,227,279.07,220.91,294,218c-1.06,4.69-5.92,4.63-8.78,7a95.27,95.27,0,0,1-8.49,5.81c.29,2.36.07,5,3.2,6l.84,4.4.29.34-3.65-.49A11,11,0,0,1,274.56,241Z"/><path class="clsWindow-7" d="M292.55,489.26c5.47,2,2.33,10.82,9.26,11.65l-.17-.19,3.27,3.27-.19-.24,0,3.31.15-.17a2.61,2.61,0,0,0-3,2.6c-5.84-1.3-10.26-7-17-5.54-4.8-4-4.8-4,1.55-9.91,2.94-.57,2.54-3.24,3.27-5.2A10.22,10.22,0,0,1,292.55,489.26Z"/><path class="clsWindow-15" d="M219.56,413.24l-5-.17c7.37-4.3.42-10.49,2.49-16l8.81-4c1.53,5.83,3,11.61,4.57,17.38q2,6.3,4.07,12.59l-2.28,2.21c-4.93-5.2-5-12.42-7.38-19.13C222.63,408.74,223.07,412.47,219.56,413.24Z"/><path class="clsWindow-8" d="M497.61,270c-7.91-6.64-11.78-18.08-23.71-19.94l.15.22c-.58-3,2.58-3.65,3.62-5.64a2.25,2.25,0,0,0,2.09-1.11c3.27,7.26,9.65,3.86,14.89,4.33l-4.59,7.07c2.5,3.83,6.62-.45,9,1.56,3.24,3.6-.84,5.73-.86,8.48C498,266.66,497.81,268.33,497.61,270Z"/><path class="clsWindow-16" d="M420.65,434.22c-7.16-4.16-8.52-10.61-7.16-18.14,8,7.8,17.45,14.21,23.07,24.26C431.09,438.74,426.62,434.52,420.65,434.22Z"/><path class="clsWindow-8" d="M474.07,323c-2.13-3.33-4.26-6.67-6.7-10.47,5.74-4.61,10.81-5.17,15.51,1.17l-.1-.08c-1.81,4.92,3.74,7.72,3.5,12.19l-.41,3,.31-.2C480.31,330.75,477.91,325.33,474.07,323Z"/><path class="clsWindow-5" d="M474,549.18c-4.77-2.1-5.79-9.2-12-9.4-4.21,4.59,3.26,5.28,1.88,8.91a9.49,9.49,0,0,1-10.07-2.51c-2-3.6,3.93-5.71,1.87-9.33l-.15.34c2.36.11,3.48-1,3.35-3.36l-.3.15c3.17,1.26,3.47-3.33,6.17-3l-.09,0c3.31,4.67,7,9.09,11.72,12.27,3.06,2,1.61,3.81.49,5.86l-1.44.2Z"/><path class="clsWindow-8" d="M284.92,504c6.74-1.44,11.16,4.24,17,5.54a17.73,17.73,0,0,0,2.88.87c3.28,4.49,8.51,1.54,12.51,3.28-.13,2-.25,4-.38,6-3.23,1.1-6.78.28-12.21-1.59C296.67,515.25,289.27,511.82,284.92,504Z"/><path class="clsWindow-8" d="M446.59,546.14c.61,3.77,3.5,5.22,6.6,6.44l2.76,6,.15-.21-6.32-.05c-.45-.52-.89-1,0,0-1-.83-.48-.4.06,0l-3,6-2.32,5.38-7,3.83.15.15,0-8.47c.76-5.41,7.37-8.47,5.91-14.77C443.53,548.26,445,547.16,446.59,546.14Z"/><path class="clsWindow-18" d="M474.07,323c3.84,2.3,6.24,7.72,12.11,5.56,0,1.91-1,2.86-2.84,3-7.35,6.59-7.35,6.59-19.46,5.28C464.8,330.36,471.8,328.4,474.07,323Z"/><path class="clsWindow-12" d="M274.71,431.53c-7.95-6-8.38-16.6-14.45-23.76-.31-2.28-.61-4.56-.92-6.84,1.36-.58,3.27-.59,3-2.86C271.69,407.3,271.27,420.13,274.71,431.53Z"/><path class="clsWindow-4" d="M440.4,291.9c1.07-4.45,2.15-8.89,3.55-14.65,6,5.07,8.32,10.45,11.13,15.45-4.67,1.66-8.45,8.18-14.42,2.62l.13.22Z"/><path class="clsWindow-8" d="M368.75,371.93c-4.45-1.68-6-6.74-9.62-10-1,2.21-3.39,5.27-2.68,6.49,4.92,8.36-2.76,7-6.35,8.86-3.58-.05-4.71,2.79-6.17,5.24,4.32,6.75-1.31,9.21-5.33,12.37-.11,1-.23,2-.34,3a9.69,9.69,0,0,0,2.52.27c3,.31,2.76,4,5.53,5.1,5.78-5.79,9.45-13.93,17.67-17.66,1.67-.76-1.1-3.3-1.39-5.14C365.3,378.45,368.83,377.11,368.75,371.93Z"/><path class="clsWindow-10" d="M247.88,339.71c2.81,7.18,5.75,14.33,6.15,22.18-.16,1.06-.32,2.13-.47,3.19-3-.41-5.94,2.32-9,.27,1.59-4.12,1.21-7.69-2.86-10.22l-.09-1.5c4.74-1.75,6.75-5.05,5.75-10.07C247.53,342.28,247.7,341,247.88,339.71Z"/><path class="clsWindow-5" d="M586.46,389c-.46,2.34-.5,5-4.79,5.4-.29-11.33-12-19.49-8.3-32.12l0-.17c0,2.13,1.59,2.59,3.15,3.12Z"/><path class="clsWindow-10" d="M407.17,422.37a4.11,4.11,0,0,1-.23,2.7h-5.7c-1.19-10.5-2.4-21-15-24.52,0-2.41.56-4.49,2.95-5.63,5.33,2.87,8.66,7.75,12.33,12.28C402.37,412.65,403.79,417.87,407.17,422.37Z"/><path class="clsWindow-5" d="M256.84,485.92c-2.23-6.75-10.65-9.05-12.29-18.13,8.39,5.32,12.42,13.74,20,17.94,1.34,1.43,2.76,2.81,4,4.32,3.33,4,1.07,4.6-2.65,4.27l-3.27-2.79A9.8,9.8,0,0,0,256.84,485.92Z"/><path class="clsWindow-4" d="M537.62,320.44c-10.25-3.43-7.33-9.36-3-15.57C544.88,312.37,545.35,314.84,537.62,320.44Z"/><path class="clsWindow-8" d="M467.59,226.26c-.64,3.65-3.13,6.16-5.37,8.83l-3.45-3.24c1.76-2.86,2.51-5.31-1.73-6.83-3.87-1.39-4.17.59-3.85,3.51l-3.56-2.45c1.43-3.67-1-6.2-2.64-9C455.61,216.21,460.61,223.47,467.59,226.26Z"/><path class="clsWindow-4" d="M447,217.1c1.63,2.78,4.07,5.31,2.64,9-5.28.13-9.55-4.44-15.06-3.26l.19.17c-2.88-4.1,0-8.19.05-12.28C440.59,209.56,441.59,217.52,447,217.1Z"/><path class="clsWindow-5" d="M588.72,422.35c.2-6.37.33-12.73-2.13-18.81-1-2.51-1.29-4.76,2.18-5.5,3.91,7.75,7.46,15.63,9,24.27Z"/><path class="clsWindow-5" d="M295.2,287.56c1.92.09,3.91,9,6.11,9l-.16-.41c-7,2.51-7,2.51-16.46-6.93.37-4.8,3.68-5,7.34-4.73l-.26-.17Z"/><path class="clsWindow-4" d="M277.42,241l3.65.49L285,244.1c-.45,1-.91,2-1.36,3-.15.77-3.11-.11-1.11,1.91l1-2c2.18,1.73,3.67,3.95,1,6.08-3.47,2.8-7.39,5-11.74,7.94-2.79-5.55,7.58-9.12,1.69-14.2l-.14.3,2.85-2.8Z"/><path class="clsWindow-5" d="M555.67,458.55c1.62-.57,2.67-1.56,2.57-3.42-.11-1.68-.85-2.7-2.68-2.58l-4.48-.14c2.81-3.12,6.65-4.5,10.38-6.05l2.15,2.34c-5.52,7.69-.27,13.14,3.92,18.81-3,3-6-.33-9-.06l.28.25C559.92,463.91,555.3,462.08,555.67,458.55Z"/><path class="clsWindow-8" d="M379.92,531c-2.13,4.48-4.46.9-6.77.21-5.85-1.77-10.44-7-17.21-6.2-.73-3.19-6.31-2-5.71-6.41,5.88-.12,10.46,3.47,15.61,5.46.9,1.3,2.19,1.33,3.57,1.06Z"/><path class="clsWindow-8" d="M567.53,467.51c-4.19-5.67-9.44-11.12-3.92-18.81.7.57,1.4,1.14,2.12,1.69,1.43,3,2.57,6.11,4.37,8.82,2,3,3.67,2,4.55-1.09C576.42,462.93,576.42,462.93,567.53,467.51Z"/><path class="clsWindow-10" d="M247.88,339.71c-.18,1.29-.35,2.57-.52,3.85l-6.12,0c1.56-6.95-4.84-16.11,5.71-20.57Z"/><path class="clsWindow-10" d="M256.63,370.53a7.57,7.57,0,0,1,2.09,6.56c-3.5,1.9-5.62,4.6-5.09,8.82l-.63.53c-7.45-3.94-8.09-9.33-3.4-15.87a5.09,5.09,0,0,1,3.55,3.81,4.71,4.71,0,0,0-1.2.82c-.16.2,0,1,0,1,1.07,0,1.37-.63.91-1.9A6,6,0,0,0,256.63,370.53Z"/><path class="clsWindow-16" d="M329,208c-2.34-.15-4.63-.11-6.34,1.86-2.94,1.39-7,.31-8.92,4a7.69,7.69,0,0,0-2.37-.43l-.33-5.37,24-6.41C335.29,206,332.48,207.33,329,208Z"/><path class="clsWindow-8" d="M361.87,402.8c-.18,1.11-.85,1.54-2,1.3-1.7.6-3.53,1.06-3.8,3.31l.22-.1c-1.95-1.64-4.08-3.31-1.75-6.1a57.94,57.94,0,0,1,15.18-12.92C372.72,397.11,360.66,396.24,361.87,402.8Z"/><path class="clsWindow-13" d="M494.65,247.87c-5.24-.47-11.62,2.93-14.89-4.33.07-5.82,3.34-7,7.8-4.6C491,240.77,494.24,243.36,494.65,247.87Z"/><path class="clsWindow-5" d="M522.74,304.28c.88,6.09,5.18,11.45,4.24,19.91-6.66-9.71-10.24-18.52-10.72-28.54C520,297.33,519.9,301.92,522.74,304.28Z"/><path class="clsWindow-13" d="M313.69,213.85c1.93-3.66,6-2.58,8.92-4l2.07,1.93c-4.4,4-3.22,12.73-11.49,13.36C313.36,221.4,313.52,217.62,313.69,213.85Z"/><path class="clsWindow-18" d="M214.08,298.56l5.35-8.75c8.24,1,8.29,5.91,6.67,11.77l.22-.23c-4.86,2-8.11-2.62-12.4-3Z"/><path class="clsWindow-2" d="M316.64,521.37c3.28-1.38,6.29-4.58,10.06-.48s-.47,7-.81,10.38l.21-.18-6.44,0,.28.17C319.26,527.81,315.36,525.46,316.64,521.37Z"/><path class="clsWindow-5" d="M373.53,343.36c4.06,6.07,2,12.44.93,18.76h0a6,6,0,0,0-2.77-.47c-.65-3.63-5.75-2.26-6.5-5.78C370.14,353.16,369.56,346.74,373.53,343.36Z"/><path class="clsWindow-16" d="M280.78,241.19l-.84-4.4c3.49-6.9,10.89-7.66,16.91-10.47,1.08-.51,2.13,1.52,2,3.13A87.32,87.32,0,0,0,280.78,241.19Z"/><path class="clsWindow-4" d="M492.45,495.28c-4.58,3.26.75,7.21-.87,11.05-3.95-.13-7.77,4-12.11.47.12-1,.25-2,.37-2.95a9.77,9.77,0,0,0,5.77-5.84c.3-1.17.61-2.34.91-3.52Z"/><path class="clsWindow-5" d="M334.84,424.87c6.6,6,5.49,14.11,6.22,21.74-5.57-3.55-5.68-10.39-9.14-15.21C332.22,428.93,332.79,426.57,334.84,424.87Z"/><path class="clsWindow-5" d="M338.26,397.89a9.69,9.69,0,0,0,2.52.27c.2,12.17-.77,13.33-10.95,13-.53-.57-1-1.16-1.54-1.76C332.93,406.71,335.73,402.42,338.26,397.89Z"/><path class="clsWindow-12" d="M483.34,331.56c1.87-.11,2.86-1.06,2.84-3l-.31.2L487,329l1.17-.12,4,5.59.09.15a4.93,4.93,0,0,0,2.58,3.95l1,5-.75,3.2.12-.1c-4.49.39-4.76-4.45-7.58-6.12C486.25,337.54,483.38,335.22,483.34,331.56Z"/><path class="clsWindow-8" d="M449.19,461.17a53.61,53.61,0,0,1-.3,18.82l-4.32-2.76c.07-5.14-3.07-10.64,1.76-15.23A8.71,8.71,0,0,1,449.19,461.17Z"/><path class="clsWindow-8" d="M353.07,196.08c-3.62,9.16-9.26,6.83-15.23,2.68A30.14,30.14,0,0,1,353.07,196.08Z"/><path class="clsWindow-3" d="M519.45,479.89l6.11-.44,1.23.68,1.41-.09-.19-.24c.17,2,.69,3.74,3.33,3.29l-.47-.27c-1.07,2.78,2.44,5.47-.23,8.84C524.87,489.74,521.84,485.14,519.45,479.89Z"/><path class="clsWindow-8" d="M497.61,270c.2-1.68.41-3.35.62-5l9.18.1c.83,4.3-3.89,6.3-3.66,10.21C499.91,275,498.34,273,497.61,270Z"/><path class="clsWindow-5" d="M434.81,210.71c-.09,4.09-2.93,8.18-.05,12.28l-9.49-.8,3.72-7.66,5.76-3.85Z"/><path class="clsWindow-16" d="M574.65,458.12c-.88,3.07-2.58,4.05-4.55,1.09-1.8-2.71-2.94-5.86-4.37-8.82l4.93-.85Z"/><path class="clsWindow-4" d="M213.43,415.86c1,3.7,6.3,6.87,1.27,11.56-5.76-1.89-2.84-7.3-4.34-10.83Z"/><path class="clsWindow-5" d="M277.42,241l-.21,3.3a3.11,3.11,0,0,0-2.85,2.8l.14-.3-7,2.61c-1.67-6.54,3.27-7,7.05-8.43A11,11,0,0,0,277.42,241Z"/><path class="clsWindow-4" d="M204.38,340.42c1.27-3.62-2.12-9,4.05-10.95,4.17,4.46-2.09,7.75-1.21,11.75A5.37,5.37,0,0,1,204.38,340.42Z"/><path class="clsWindow-4" d="M241.24,343.53l6.12,0c1,5-1,8.32-5.75,10.07Z"/><path class="clsWindow-5" d="M456,558.55l-2.76-6c3.43-1.06,5.82,1.68,8.77,2.39C462.83,561,458,557.49,456,558.55Z"/><path class="clsWindow-5" d="M256.63,370.53a6,6,0,0,1-3.73,3.74l.25.11a5.09,5.09,0,0,0-3.55-3.81l3.66-5.86C256,365.74,256.73,367.88,256.63,370.53Z"/><path class="clsWindow-9" d="M446.35,588.2l6.41-5.84C453,586.88,454.38,592.72,446.35,588.2Z"/><path class="clsWindow-4" d="M241.7,355.13c4.07,2.53,4.45,6.1,2.86,10.22C240.69,362.76,241.2,358.94,241.7,355.13Z"/><path class="clsWindow-3" d="M446.76,564.28l3-6h0l6.32.05C454.65,562.93,451.68,565.14,446.76,564.28Z"/><path class="clsWindow-5" d="M329,413.72l-6.22,3.45c-6.85-4.47-.74-5.3,2-7.08l3.48-.67c.5.6,1,1.19,1.54,1.76A6.9,6.9,0,0,1,329,413.72Z"/><path class="clsWindow-7" d="M292.85,458.62c4.67-.62,6.71,1.46,6.27,6.1l-.29.34-3.07.54C292.91,464.06,292.69,461.42,292.85,458.62Z"/><path class="clsWindow-18" d="M213.83,404.68c-.49,1.43-1.19,2.7-3,2.2-1.44-.4-2.76-1.11-2.21-3,.42-1.39,1-2.87,2.92-2.27C213,402.08,214.18,402.81,213.83,404.68Z"/><path class="clsWindow-16" d="M349.59,323l12.74,0c-.11.67-.26,1.34-.43,2l-6,1.17C353.59,325.58,350.85,325.76,349.59,323Z"/><path class="clsWindow-5" d="M573.82,449.34c.12-1.62,1-3,2.58-2.8,3.52.42,2.41,3.76,3.28,5.86Z"/><path class="clsWindow-1" d="M258.81,398.7c-3.9-.74-6-2.81-5.14-7,.68.3,1.36.61,2,.94l.13.15c-.27,2.82,2.72,3.32,3.71,5.24Z"/><path class="clsWindow-4" d="M434.75,210.68,429,214.53c-.35-2.2-1.14-4.68,1.42-6C432.42,207.55,433.74,209.06,434.75,210.68Z"/><path class="clsWindow-5" d="M449.69,340.93l.75-3.91,3,3.82c-.6,1.59-1.53,2.76-3.43,2.69A7.88,7.88,0,0,1,449.69,340.93Z"/><path class="clsWindow-1" d="M317,452.75l-.49,3.24.25-.32-5.51.86c-.15-1.33-.3-2.67-.46-4h0Z"/><path class="clsWindow-5" d="M314.86,433.49c2.77,1.7,2.32,4.38,2.12,7l-3.13.18a10.48,10.48,0,0,1-.79-2.37c.09-1.13.17-2.26.26-3.39C313.82,434.42,314.34,434,314.86,433.49Z"/><path class="clsWindow-1" d="M289.74,488.84c-.73,2-.33,4.63-3.27,5.2C286.63,491.72,287.06,489.57,289.74,488.84Z"/><path class="clsWindow-13" d="M311,208.05l.33,5.37C306.76,211.9,307.32,210.07,311,208.05Z"/><path class="clsWindow-10" d="M255.7,392.61c-.67-.33-1.35-.64-2-.94-.23-1.74-.45-3.48-.67-5.23l.63-.53C256.34,387.52,256.44,389.94,255.7,392.61Z"/><path class="clsWindow-5" d="M461.62,455.75a3.3,3.3,0,0,1,3,3.29A3.5,3.5,0,0,1,461.62,455.75Z"/><path class="clsWindow-8" d="M452.49,455.85l-1.13.18-1.14-.07,1-2.2Z"/><path class="clsWindow-1" d="M307.75,453.45c-1.45,1.86-2.51,1-3.47-.5l.42-.34,3.12-.12Z"/><path class="clsWindow-1" d="M319.38,449.51c.77,2.18.08,3.31-2.31,3.2A3.2,3.2,0,0,1,319.38,449.51Z"/><path class="clsWindow-1" d="M304.28,453l-3-2.95.38-.44,3,3.05Z"/><path class="clsWindow-5" d="M313.83,443.61c-1.09-.37-2.36-.76-1.84-2.23.17-.47,1.33-.59,2-.88Z"/><path class="clsWindow-3" d="M426.09,416.57l2.47,3.06C426.57,419.55,425.45,418.77,426.09,416.57Z"/><path class="clsWindow-16" d="M413.71,416.32l-3-.32C412,412.8,412.85,414.8,413.71,416.32Z"/><path class="clsWindow-1" d="M262.37,398.07c.24,2.27-1.67,2.28-3,2.86a7.19,7.19,0,0,0-.53-2.23l.73-.7,3.07.33Z"/><path class="clsWindow-9" d="M576.49,365.21c-1.56-.53-3.18-1-3.15-3.12A3.56,3.56,0,0,1,576.49,365.21Z"/><path class="clsWindow-4" d="M371.67,361.65a6,6,0,0,1,2.77.47c.05,1.22-.59,2.17-1.71,1.91C372.22,363.91,372,362.49,371.67,361.65Z"/><path class="clsWindow-5" d="M450.57,337.18l-2.43-.6,1.51-1.85A2.69,2.69,0,0,1,450.57,337.18Z"/><path class="clsWindow-4" d="M285.94,337.11a4,4,0,0,1,3.21-2.84c.2,1.16.39,2.32.59,3.48Z"/><path class="clsWindow-5" d="M486.52,494.49c-.3,1.18-.61,2.35-.91,3.52l-3.17-2.46c.45-.55.9-1.09,1.34-1.64A4.06,4.06,0,0,1,486.52,494.49Z"/><path class="clsWindow-1" d="M467.85,295.1c-.7-.16-1.86-.15-2-.52-.53-1.42.68-1.95,1.72-2.47A11.62,11.62,0,0,1,467.85,295.1Z"/><path class="clsWindow-1" d="M304.55,467.58,301.87,471A3.78,3.78,0,0,1,304.55,467.58Z"/><path class="clsWindow-1" d="M307.86,467.32l-3.17.11C305.66,465.11,306.72,465,307.86,467.32Z"/><path class="clsWindow-1" d="M295.76,465.6l3.07-.54C298.05,466.61,297.09,467.17,295.76,465.6Z"/><path class="clsWindow-8" d="M446.3,462c-1.81-.05-2.65-1.14-3-2.77C445.33,459,446.29,460,446.3,462Z"/><path class="clsWindow-5" d="M395.19,268.43l3.45,23.78c-6.39,2.21-5.78,8.21-7.13,13.15-3.45,4.07-.73,8.55-.85,12.86-5.22,1.87-7.37-.3-7.35-5.48q.06-19.25.08-38.5c3.27-5.15,2.48-12.21,8-16.41,1.57-1.18,1.75-5,4.35-1-.33,1.67-.65,3.34-1,5a3.78,3.78,0,0,0-1.61,4.17c0,1.35.53,2.32,2,2.45Z"/><path class="clsWindow-8" d="M367.67,253.51c-2.23-2.94-8.14-2-8-7.34,2.87-4.52,6.4,1.25,10.13-1.38-8-11.21-19.89-5.22-29.67-7.19,11.83-7,24.16-1.28,35.41-2,5,3.18,3.75,8.84,7.26,11.81l-4.48,2.71C374.38,250.12,370.11,248.9,367.67,253.51Z"/><path class="clsWindow-4" d="M395.77,256.79c-2.6-4-2.78-.14-4.35,1-5.55,4.2-4.76,11.26-8,16.41l-1.43-.11-1.41.32-.93-.63q2.14-12.06,4.27-24.1c3.58-5.16,6.59-11.41,15.86-7C398.05,247.13,400.43,252.66,395.77,256.79Z"/><path class="clsWindow-3" d="M383.89,249.72q-2.13,12-4.27,24.1c-2.86-5.39-5.73-10.78-8-15.12.37-5.54,5.84-4.91,6.71-8.54l4.48-2.71A2.43,2.43,0,0,1,383.89,249.72Z"/><path class="clsWindow-10" d="M415.8,256.61c1,4.48,1.11,8.74-2.85,12.25-4.66,1.3-7.88-1.51-11.1-4.35C402.9,255.52,409.93,257.09,415.8,256.61Z"/><path class="clsWindow-4" d="M443.6,241.06c7.35-.76,9.63.91,9,6.57Z"/><path class="clsWindow-4" d="M485.76,274.4c4.23-4.32,5.15.86,6.89,2.64,2,2,4.05,4.72-.55,6.48Z"/><path class="clsWindow-7" d="M425.48,232c1.7,1.63,7.06-3.24,6,3.36C429.07,234.93,426.66,234.56,425.48,232Z"/><path class="clsWindow-3" d="M395.21,268.42c-1.5-.13-2-1.1-2-2.45a12.48,12.48,0,0,1,2.16-.82C395.3,266.24,395.25,267.33,395.21,268.42Z"/><path class="clsWindow-4" d="M395.34,265.15a12.48,12.48,0,0,0-2.16.82,3.78,3.78,0,0,1,1.61-4.17C395,262.92,395.16,264,395.34,265.15Z"/><path class="clsWindow-1" d="M492.1,283.52l-6.34-9.12c-9.87-10.4-22.36-17.55-33.17-26.77l-9-6.57a17.35,17.35,0,0,1-12.15-5.7c-2.38-.43-4.79-.8-6-3.36l0,.1c-8.89-1.45-18.82-.62-23.49-11.2-4.31,9.52-10.36,1.58-15.47,1.86-6,.32-11.95-.1-17.93-.2-3.26,2.09-2.81-7.6-7.1-2.24-7.12,5.25-16,2.21-23.84,5.33-7.57,3-17,.95-23.07,8.66-.67.85-4.5-.79-6.87-1.27-1.57,1.79-6.63,2.35-6.21,1.82l-2.7-5.41a87.32,87.32,0,0,0-18.06,11.74l.29.34L285,244.1l4.48-.26.34.34c.25,1.37.5,2.74.76,4.14,5.29,0,6.33-6.69,11.35-6.47,1.84,11.52,4.54,14.2,14.32,14.25,5-10,13.33-15.62,23.83-18.5,11.83-7,24.16-1.28,35.41-2,5,3.18,3.75,8.84,7.26,11.81a2.43,2.43,0,0,1,1.12,2.27c3.58-5.16,6.59-11.41,15.86-7-1.7,4.38.68,9.91-4,14-.33,1.67-.65,3.34-1,5,.18,1.12.37,2.24.55,3.35,0,1.09-.09,2.18-.13,3.27h0c2.9-.15,5.43-.94,6.66-3.92,1-9,8.08-7.42,13.95-7.9,3.36-.15,7-1.88,9.71,1.66,12.15,4.86,23.42,10.86,30.69,22.46,2.61,4.17,8.72,4.22,11.19,8.77q12.76,6.84,24.8-2.81Z"/><path class="clsWindow-16" d="M446.59,546.14c-1.59,1-3.06,2.12-3.1,4.26-2.27,3.17-4.49,4.3-8.76,2.43-5.86-2.57-10.88-7.49-17.9-7.2-3.86-6.37-8.11-12.54-10.63-20.84,6.11-6.65,6.11-14.65,1.71-22.88,3.84-6.39,2.09-17.88,14.79-16.13l-.23-.16A23.45,23.45,0,0,0,437.82,501l-.16-.18c-1.15,2.81-2.43,5.36,1.9,7,6.37,2.4,12.54,5.32,17.46,7.45,4.29,6-2.39,6.18-2.63,9.14.9,2.18,2.61,3,4.58,3.57q-.18,3-.38,6l.3-.15c-2.4-.16-3.23,1.25-3.35,3.36l.15-.34C450.92,538.24,449.54,543,446.59,546.14Z"/><path class="clsWindow-16" d="M416.15,536.4c9.05-8.75,10,5.14,16.68,2-4.43-8.39-14.5-11.51-18.22-21.5C411.22,524.49,418.31,528.41,416.15,536.4Z"/><path class="clsWindow-3" d="M422.7,485.78c-12.7-1.75-10.95,9.74-14.79,16.13q-.07-8.49-.16-17c11.31-7.14,24.65-4.63,36.82-7.72l4.32,2.76.51,5.83-1-.19h-1C439.17,481,430.92,480.88,422.7,485.78Z"/><path class="clsWindow-8" d="M379.37,477.1c-1.71,6.38-7.14,5.37-11.78,5.92-3-5-11.71-4.68-11.61-12.52Z"/><path class="clsWindow-14" d="M369.41,525.15c-1.38.27-2.67.24-3.57-1.06-1.63-7.15,2.2-10.89,9.52-14.5C376.05,516.77,381.75,523.93,369.41,525.15Z"/><path class="clsWindow-18" d="M337.19,474c.1-2.71-2.55-5.23-.64-8.15,6.59-3.36,9.13,2.84,13.14,5.51.5,6-3.69,7.28-8.18,8.31Z"/><path class="clsWindow-8" d="M416.57,546.05c0,1,0,2.07.05,3.1l-.25.24c-12.3-1.89-22.71-8-32.78-14.81C396,534.31,404.71,544.73,416.57,546.05Z"/><path class="clsWindow-14" d="M371,504.38c-1.44,3.27-3.36,6-7.31,6.89-3.34-3.12-4.45-7.33-5.75-11.54,6.46-5,9.39.38,12.83,4.17Z"/><path class="clsWindow-1" d="M406.2,524.79c6.11-6.65,6.11-14.65,1.71-22.88l-.16-17-3.67-4.37a14.94,14.94,0,0,1-2.61-.75c-4.67,2.74-9.81,3.3-15.09,3.23-4.27,5.59-6.74,12-8.35,18.76-1.09,4.55-4.23,3-7,2.56-1.44,3.27-3.36,6-7.31,6.89-3.34-3.12-4.45-7.33-5.75-11.54,6.46-5,9.39.38,12.83,4.17,1.57-7.36-3.05-13.78-3.17-20.88-3-5-11.7-4.68-11.61-12.52l.24-6.26c-.48-1.59-.86-3.29-3.17-2.77-.91,1.78.39,4.65-2.65,5.38-.24,1.49-.47,3-.71,4.46.5,6-3.69,7.28-8.18,8.31h0L337.19,474l-6.09-1.07c-5-2.39-6.41-10.43-13.9-9.06l-5.94-6.3-.48,7q-.11,1.47-.09,2.94c-.87,0-1.74,0-2.62,0,.88,2.55,3.16,3.23,5.36,4,7.08,14.1,21.53,22.15,29.3,35.69,5.65,1.73,6.45,6.65,7.5,11.4,5.88-.12,10.46,3.47,15.61,5.46-1.63-7.15,2.2-10.89,9.52-14.5.69,7.18,6.39,14.34-5.95,15.56L379.92,531a4.57,4.57,0,0,1,3.67,3.55c12.42-.27,21.12,10.15,33,11.47l.26-.42C413,539.26,408.72,533.09,406.2,524.79Z"/><path class="clsWindow-16" d="M340.9,446.39l6.3,3.18-.19-.27c-.05,5.22,1.84,9.46,6.29,12.4l-.25-.23c-.91,1.78.39,4.65-2.65,5.38C347.36,460,339.72,455.23,340.9,446.39Z"/><path class="clsWindow-5" d="M281.06,398.08c-.54,2.62-.45,5,2.08,6.71.6,1.44,1.29,2.75,3.24,2.12-1.49,6,2.73,12.95-2.75,18.4-6.25-8.13-9.06-17.13-6.64-27.26-2.41-1.06-3.16,4.63-5.58,1.07-5-7.33,2.79-12.09,3.22-18.58C279.19,386,280.33,392,281.06,398.08Z"/><path class="clsWindow-5" d="M304.7,452.61l-3-3.05c-4.38-4.42-8.5-9.14-13.22-13.16-3.62-3.08-5.85-6.23-4.81-11.08,14,.7,23.79,11.74,24.17,27.17Z"/><path class="clsWindow-4" d="M332.3,353.25c-.34,6.05-.8,12.07-3.43,17.66C318.58,363.52,319.34,359.59,332.3,353.25Z"/><path class="clsWindow-17" d="M316.45,422.22c-7.34-5.07-9.64-12.93-11.6-21C312.31,406.25,314.58,414.12,316.45,422.22Z"/><path class="clsWindow-5" d="M320.12,392a24.76,24.76,0,0,1,5.31,15.79l-10.8-9.15C314.17,394.32,320.88,396.3,320.12,392Z"/><path class="clsWindow-5" d="M255.7,392.61c.74-2.67.64-5.09-2.07-6.7-.53-4.22,1.59-6.92,5.09-8.82l1.92,14.59-4.81,1.08Z"/><path class="clsWindow-10" d="M255.83,392.76l4.81-1.08c2.89,1.55.75,4.6,2,6.65l-3.07-.33C258.55,396.08,255.56,395.58,255.83,392.76Z"/><path class="clsWindow-10" d="M268.92,346.48c-.07-1.74-.59-3.58,1.24-4.81,1.59,1.31,1.19,3.13,1.08,4.88l-1.17.26Z"/><path class="clsWindow-12" d="M277.1,437.35a6,6,0,0,1-2.64-6.19C277.65,432.24,276.8,435,277.1,437.35Z"/><path class="clsWindow-12" d="M232.22,425.23,234.5,423c.59,2.35,1.77,5-2.26,5.34l.11.1C232.31,427.38,232.26,426.31,232.22,425.23Z"/><path class="clsWindow-10" d="M425.73,259.6l10.12,12.63c-2.75,5.81-8.85,6.27-13.71,8.68C414.3,271.8,415.79,263,425.73,259.6Z"/><path class="clsWindow-10" d="M425.43,294.63c-8.8-3.05-11.21,9.92-19.65,7.61-2.11-15.95.58-19,16.8-18.6l-.26-.29c-1.05,3,1,4.68,2.89,6.42l.1,5.62Z"/><path class="clsWindow-4" d="M392.14,338.05c-7,4-8.6-.27-9-6-.45-6.41,1.33-10.77,9.51-8.45v13.84Z"/><path class="clsWindow-5" d="M377.17,337.7a23.89,23.89,0,0,1-2.51.31c-.07-1.16-.15-2.32-.22-3.49C376.29,334.77,376.83,336.15,377.17,337.7Z"/><path class="clsWindow-5" d="M374.42,334.51l-3.78-.46C372.2,331.71,373.51,331.45,374.42,334.51Z"/><path class="clsWindow-4" d="M401.58,322.7c-.18,1-.36,2.08-.55,3.12C398.63,324.32,398.4,323.21,401.58,322.7Z"/><path class="clsWindow-8" d="M416.62,549.15l2.15,1.17-1.34,1.14-1.06-2.07Z"/><path class="clsWindow-1" d="M503.66,375.56c5.45,16.63,8.91,30.47,17.49,42.68C527.19,408.64,520.32,391.27,503.66,375.56Z"/><path class="clsWindow-5" d="M531.24,343.58a3.07,3.07,0,0,0-.29-2.79l18.7-9.31.05.1c-.77,3.18-1.53,6.36-2.28,9.49,1.93,1.71,3.34-.89,5-.27l0,0c-.92,6.33,5,9.7,6.46,15L555.52,359l-.41-.58.63.37.09,5.44-.51,8c-4.32-1.62-5.16,3.72-8.9,4.35C539.72,366.41,538.3,353.65,531.24,343.58Z"/><path class="clsWindow-5" d="M547.52,356.75c-.27-1.51-.8-3-2.55-3-.58,0-1.62,1-1.72,1.63-.23,1.56.46,3,2.27,2.92C546.2,358.25,546.86,357.28,547.52,356.75Z"/><path class="clsWindow-5" d="M548.71,368.18c.87-.4,2.34-.64,2.48-1.22.41-1.6-.65-2.73-2.16-3.35a1.46,1.46,0,0,0-2.15,1.22C546.54,366.38,547,367.68,548.71,368.18Z"/><path class="clsWindow-5" d="M539,345.73a15.34,15.34,0,0,0,2.46.85c.25,0,.61-.6.92-.92-.58-.44-1.15-1.19-1.76-1.21S539.59,345.25,539,345.73Z"/><path class="clsWindow-4" d="M513.38,328.35a7.33,7.33,0,0,0-.73-2.58c0-1.64-.45-3-2.29-3.36l.08.17c.2-3.59-.29-6.94-3.2-9.49-.22-2.15-.29-4.36-2.34-5.78,1.94-3.87,4-1.84,4.93.37,2.86,6.72,6.33,13.29,6.64,20.84l-.4.32A3.79,3.79,0,0,1,513.38,328.35Z"/><path class="clsWindow-8" d="M522.71,338.11c-.55,1.52-1.46,2.58-3.24,2.52l-2.82-3.21q-.54-2.82-1.1-5.64c.14-1,.31-2,.52-2.94l.4-.32C520.61,330.37,519.75,335.48,522.71,338.11Z"/><path class="clsWindow-1" d="M549.65,331.48c1.05-1.62,2.28-3,4.28-1.46.5.4.82,2,.51,2.3-1.76,1.65-3.06-.95-4.74-.74Z"/><path class="clsWindow-5" d="M434.57,222.82c5.51-1.18,9.78,3.39,15.06,3.26l3.56,2.45c1.56,1.6,3.07,3.3,5.58,3.32l3.45,3.24c-.92,3.62-2.87,2.88-5.36,1.5-7.27-4-14-9.12-22.05-11.7A3.66,3.66,0,0,0,434.57,222.82Z"/><path class="clsWindow-18" d="M473.9,250.07c-6.89,6.47-7.45-2-11.65-4.44,6.26-2.12,7.76,4.17,11.8,4.66Z"/><path class="clsWindow-7" d="M368.5,300.58c-20.48-.17-29.25-16.64-31.58-42.08C356.91,259.35,368.31,272.15,368.5,300.58Z"/><path class="clsWindow-4" d="M220.62,446.41c-.6-2-.74-4.38,1.64-4.77,3.54-.57,3.67,2.2,3.44,4.82Z"/><path class="clsWindow-1" d="M256.84,485.92a9.8,9.8,0,0,1,5.79,5.61C257.72,492.74,256.61,490,256.84,485.92Z"/><path class="clsWindow-1" d="M244.31,452.57l.7.84-.54-1Z"/><path class="clsWindow-1" d="M241.37,452.62c.92-3.58,1.93-2.27,2.94-.05l.16-.2-3.28,0Z"/><path class="clsWindow-1" d="M235.39,439.07l0-.37c.39,0,1.06-.21,1.12-.09C236.89,439.47,236.48,439.64,235.39,439.07Z"/><path class="clsWindow-8" d="M328.94,214.35c0-1,0-2.11,0-3.16,8.17-.51,15.91-5.52,26.52-1.64C345.28,210.86,337.51,214.42,328.94,214.35Z"/><path class="clsWindow-5" d="M307.73,431.29l-3-2.77a4.13,4.13,0,0,0-3.47-2.92c-2.49-2.21-2.88-4.77,1.16-3.73,5.85,1.5,9.51,6.39,12.39,11.62-.52.46-1,.93-1.54,1.41a8.76,8.76,0,0,0-2.89.17l-.22-.33A3.51,3.51,0,0,0,307.73,431.29Z"/><path class="clsWindow-17" d="M318.53,426.3c1,1,1.43,2.21.3,3.5a.9.9,0,0,1-.87-.07C317.18,428.45,316.8,427.17,318.53,426.3Z"/><path class="clsWindow-1" d="M286.38,406.91c-1.95.63-2.64-.68-3.24-2.12l2-2Z"/><path class="clsWindow-5" d="M310.43,435.07a8.76,8.76,0,0,1,2.89-.17c-.09,1.13-.17,2.26-.26,3.39C311.66,437.64,310.53,436.78,310.43,435.07Z"/><path class="clsWindow-5" d="M307.73,431.29a3.51,3.51,0,0,1,2.48,3.45C308.47,434.24,308,432.87,307.73,431.29Z"/><path class="clsWindow-5" d="M301.31,425.6a4.13,4.13,0,0,1,3.47,2.92C302.91,428.39,302.05,427.07,301.31,425.6Z"/><path class="clsWindow-1" d="M528.2,480l-1.41.09-1.23-.68-1.53-5C529.1,474,528.52,477.1,528.2,480Z"/><path class="clsWindow-8" d="M510.31,473.56c.36-7.06-4.22-13.91-.88-21.08.29-1,.57-2,.85-3l-4.08-.35c-4.61,4-9,4.6-13.88,0-4.59-4.31-9.67-8.09-14.53-12.09-9.36-6.15-12.69-17.81-22-24.05-8.44.67-10.8-7-15.59-11.34l-35.51-25c-.09,1-.19,2.09-.29,3.13,5,6.35,11.53,10.79,18.08,15.36,8.43,5.89,16.59,12.26,22,21.34,2.3,3.85-2.87,2.9-3.19,5a50.52,50.52,0,0,1,14.33,7.3c3.94,7.26,12.55,7,18.3,11.34,4.49,4.65,11.39,6.43,14.81,12.37,4.17,2.17,5.35,6.78,8.06,10.41.88-2.13.43-4.44,2.67-5.42,5,6.76,5,6.76-4.39,13.16-2.53-.11-5-.19-6.25,2.72,1.75,2.58,1.77,2.63-2.89,3.2.47,3.37-.65,8.17,5.91,5.75,2.85-1,2.16,1.91,2.88,3.24-4.51,1.55-3.76,3.49-.22,5.63l3.31.63c1.3-7.36,12-7.05,12.41-15.1a4.4,4.4,0,0,0,4.62-1.77C513.78,473.27,512,473.44,510.31,473.56Zm-.12,3.19-.17,0A.45.45,0,0,1,510.19,476.75ZM495,485.69h0Z"/><path class="clsWindow-16" d="M516.61,456l-2,1.21,1.21-2Z"/><path class="clsWindow-16" d="M509.43,452.48c.29-1,.57-2,.85-3a2.65,2.65,0,0,1,2.87-.23C512.86,451.39,511.45,452.28,509.43,452.48Z"/><path class="clsWindow-1" d="M531.34,483.09c-2.64.45-3.16-1.25-3.33-3.29C530.8,479.2,531.14,481.07,531.34,483.09Z"/><path class="clsWindow-1" d="M226.09,343.59v0c-3.79.91-9.73-.56-7.66,6.9,1.55-.65,2.08-3.19,5.16-1.8v9.74h0c-.24,3-.49,6.08-.73,9.13,9.24,1.56,14.17-2.95,15.34-11.65C239.41,346.91,234.69,343.15,226.09,343.59Z"/><path class="clsWindow-9" d="M413.15,565.19c1.66-.12,2.87.51,2.7,2.29a2.64,2.64,0,0,1-1.63,1.82,2.07,2.07,0,0,1-2.71-2.3C411.54,566.37,412.57,565.79,413.15,565.19Z"/><path class="clsWindow-18" d="M317.32,513.64c-4-1.74-9.23,1.21-12.51-3.29,0-1.15.05-2.31.08-3.46l-.15.17c1.3-.42,3.72-.87,3.71-1.26-.06-2.37-2.4-1.43-3.73-2.05l.19.24-3.27-3.27.17.19c6.13-4.13,12.08-.25,17.08,1.86,3.47,1.46,2.24,8.78,7.34,11.14C322.38,517.09,320,513.63,317.32,513.64Z"/><path class="clsWindow-1" d="M338.6,394.85c-1.47-7.83-10.28-12.14-10-20.82,3.42-1.25,3.7,3,6.09,3.51.28,2.53.21,5.33,4.05,4.95h5.17C348.25,389.23,342.62,391.69,338.6,394.85Z"/><path class="clsWindow-8" d="M338.76,382.49c-3.84.38-3.77-2.42-4.05-4.95C338.75,377,341,377.9,338.76,382.49Z"/><path class="clsWindow-3" d="M458.59,534q.2-3,.38-6l-.21.27c1.91-.18,2.69-1.36,2.81-3.14l5.9.12q-1.35,2.87-2.71,5.72C462.06,530.65,461.76,535.24,458.59,534Z"/><path class="clsWindow-3" d="M462,518c2.39.56,4.84,1.35,6.11-1.83,4.1,1.42,4.09,1.58-.35,5.79C464.72,522.24,462.43,521.46,462,518Z"/><path class="clsWindow-4" d="M473.28,509.64l3.56.07c.35,1.58-.17,3.3-1.64,3.28S473.19,511.21,473.28,509.64Z"/><path class="clsWindow-4" d="M476.76,509.78c-.18-2.22.72-3.37,3.07-3.07C480.56,509.48,479.54,510.51,476.76,509.78Z"/><path class="clsWindow-5" d="M422.7,485.78c8.22-4.9,16.47-4.77,24.74-.14-1.77,6.28-7.91,1-10.78,4-1.47,4,7.2,6.83,1,11.17l.16.18c-3.32-6.92-9.92-10.58-15.35-15.39Z"/><path class="clsWindow-9" d="M455.28,491c-4.22,2.56-1.53,4.8.34,7.07v6.26c-5.7-2.93-6.22-7.64-5.34-12.49C450.92,488.3,453.18,488.88,455.28,491Z"/><path class="clsWindow-16" d="M461.57,525.12c-.12,1.78-.9,3-2.81,3.14A2.83,2.83,0,0,1,461.57,525.12Z"/><path class="clsWindow-16" d="M461.72,501.37l-2.05,2.36a2,2,0,0,1-.46-2.63A8.17,8.17,0,0,1,461.72,501.37Z"/><path class="clsWindow-9" d="M425.31,295.39l-.1-5.62,4.24-4a2.05,2.05,0,0,1,2.31.64c.66,2.45,2.46,3,4.72,2.88l3.92,2.62.39,3.64C435.63,295.43,430.51,291.44,425.31,295.39Z"/><path class="clsWindow-3" d="M429.45,285.76l-4.24,4c-1.86-1.74-3.94-3.37-2.89-6.42A8.82,8.82,0,0,1,429.45,285.76Z"/><path class="clsWindow-3" d="M436.48,289.28c-2.26.16-4.06-.43-4.72-2.88C434.08,286.13,436,286.58,436.48,289.28Z"/><path class="clsWindow-16" d="M506.2,449.11c-4.61,4-9,4.6-13.88,0-4.59-4.31-9.67-8.09-14.53-12.09-9.36-6.15-12.69-17.81-22-24.05l-.2.21c5.68,1.85,6.61-4.91,11.37-6.1,5.95,6.56,12.54,6.71,19.1.13,5.28-4.59,2.46-9.45,1.22-14.3l-12.52-1.33q-.71-7.33-1.42-14.67c19.39.47,27.22,6.52,31.3,24.45C508.28,417.19,506.6,433.18,506.2,449.11Z"/><path class="clsWindow-16" d="M495.91,393c-2,6.32,2.3,10.16,3.38,16C502.44,402,499.56,397.78,495.91,393Z"/><path class="clsWindow-18" d="M561.07,427.46c-2.61.88-5,1.09-6.13-2.17a3.5,3.5,0,0,0-2-3.68c.59-5.06-4.4-8.84-2.86-14.39,1-3.76-1.75-3.31-5.09-3.89-8.1-1.44,6.35-8.13-1.69-10.74l-.29-3.68c.11-2-.11-4,2-5.2,4.79,2.16,3.58,8.11,7.06,11.1l5.79,7c.81,3,0,6.78,3.73,8.57l-.19-.19a11.54,11.54,0,0,1-.39,3c-3.2.2-6,.66-4,5.06C558.37,421.29,559.71,424.38,561.07,427.46Z"/><path class="clsWindow-8" d="M571.12,400.68c6.54.9,10.29,4.95,11.71,11.07,1,4.2,1.46,8.45,6,10.54-2.94,8.75-7.71,4.32-12.23,1.7-.51-3.73,1.53-8.17-3-10.81l.1.12C574.76,408.7,571.72,404.94,571.12,400.68Z"/><path class="clsWindow-5" d="M571.12,400.68c.6,4.26,3.64,8,2.58,12.62-3.36.15-7.56-2.13-9.14,3.17a4.36,4.36,0,0,1-3.54-3.3,11.54,11.54,0,0,0,.39-3c2.27-.85,6.39,1.56,6.24-3.46,0-.78-.86-2.15-1.43-2.21-4.52-.51-3.74,3.36-4.62,5.86-3.7-1.79-2.92-5.53-3.73-8.57l1-.94c12.65-1.73,2.34-7.88,2.31-12.05.41-.83.81-1.67,1.18-2.51,5.94,1.8,3.6,9.67,8.82,12A8.88,8.88,0,0,0,571.12,400.68Z"/><path class="clsWindow-8" d="M564.56,416.47c1.58-5.3,5.78-3,9.14-3.17l-.1-.12.36,9.72c-.44,2.14.17,4.9-4.21,5.49C566.71,425.38,566.31,420.57,564.56,416.47Z"/><path class="clsWindow-4" d="M558,434.26c.52-1.66,1.45-2.83,3.38-2.79,1,2,2,4,2.87,5.92-2.35,3.16-4.13-.46-6.07.07l.26.21C558.32,436.54,558.17,435.4,558,434.26Z"/><path class="clsWindow-5" d="M574,422.9l-.36-9.72c4.5,2.64,2.46,7.08,3,10.81A4.59,4.59,0,0,0,574,422.9Z"/><path class="clsWindow-5" d="M571.13,398.32c-5.22-2.33-2.88-10.2-8.82-12,3.08-7.38-.29-11.57-7-14.11l.51-8c14,1.79,10.75,17,18.29,24C575.57,389.55,578.89,397,571.13,398.32Z"/><path class="clsWindow-1" d="M488.9,473.46c1.78,2.63,1.78,2.63-3.14,3.23Z"/><path class="clsWindow-1" d="M561.07,427.46c-2.61.88-5,1.09-6.13-2.17a3.3,3.3,0,0,1-2-3.68c.59-5.06-4.4-8.84-2.86-14.39,1-3.76-1.75-3.31-5.09-3.89-8.1-1.44,6.35-8.13-1.69-10.74-3,3.09-4.72,0-5.28-1.83-3.06-9.77-8.76-18.65-9.8-29.08-4-5-7.24-10.21-7.34-17.17,4,1.31,7.6,4.06,10.33-.93a3.07,3.07,0,0,0-.29-2.79c-3.3.8-5.7-1.17-8.24-2.68-.55,1.52-1.46,2.58-3.24,2.52a3.27,3.27,0,0,1-2.82-3.21q-.54-2.82-1.1-5.64a3.6,3.6,0,0,1-2.17-3.43,7.33,7.33,0,0,0-.73-2.58c-.76-.08-1.53-.15-2.3-.21-8.39,6.92-14.83,1.93-21.21-3.46l-2.86,3.74c-.13,1-.27,2-.41,3L487,329l1.17-.12c3.58.26,4.11,2.69,4,5.59l.09.15a3.67,3.67,0,0,1,2.58,3.95l1,5a3.69,3.69,0,0,1,2.1,3.63,4.39,4.39,0,0,0,.79,2.47c4.4,6.22,2.24,13.47,4.43,20.08-9.13,1-6.21-8.72-11.56-10.34-7.09,8.08-21.43,7.81-26-.7-1.11-2.09-1.2-4.72-3.46-6.19h0q0-1.37-.12-2.73l20.76-2.07a4.15,4.15,0,0,0-2.61-3.94c-8,0-16.7-6.44-23.6,2.76-4.46,3.88,0,4.65,2.16,6.24,1,1.15,2,2.3,3.05,3.44h0c-.18,5.87,2.15,12.17-3,17.18,4.05.83,8.5.53,11.55,4.16l3.07-.65c19.39.47,27.22,6.52,31.3,24.45,3.59,15.79,1.91,31.78,1.51,47.71l4.08.35a2.65,2.65,0,0,1,2.87-.23l-.2-.08c4.15-7.43,14-8,18.33-15.15,0-.87,0-1.74,0-2.61-2.65-3.21-6.88-5.63-5.16-12.6l20,9.7c2.86.69,3.32,2.94,3.51,5.37l5,.87,3.37-.47c.52-1.66,1.45-2.83,3.38-2.79C561.3,430.13,561.18,428.79,561.07,427.46Z"/><path class="clsWindow-9" d="M364.63,434.29a3,3,0,0,0-.22-2.89c6-7.44-5-5.24-5.17-9.15l-.13.14c6.78-.3,13.43-.18,18.08,6l.09-.14c-3.22.19-5.61,1.21-5.65,5.07-.05,4.39-.29,8.78-.44,13.18-4-.05-4.24-4.13-6.48-6.06C364.68,438.37,364.66,436.33,364.63,434.29Z"/><path class="clsWindow-8" d="M383.26,449.46l-9,.63a4.94,4.94,0,0,1-3.05-3.62c.15-4.4.39-8.79.44-13.18,0-3.86,2.43-4.88,5.65-5.07.69,2.88,3.19,3.09,5.42,3.7,1,5-5.89,10.39.65,15.18C383.34,447.89,383.31,448.68,383.26,449.46Z"/><path class="clsWindow-4" d="M420.65,434.22c-7.09-4.13-8.49-10.49-7.19-17.93l-2.78-.29-2.51,3c-1.37-4.4-1.35-9.6-6.65-11.79.85,5.44,2.27,10.66,5.65,15.16a4.11,4.11,0,0,1-.23,2.7h-5.7c-1.19-10.5-2.4-21-15-24.52,0-2.41.56-4.49,2.95-5.63-2.1-4.73-5.9-7-11.36-8l-4.1,10.71c3.27,1.1,7.56-.77,9.8,3.36a17.65,17.65,0,0,0,2.36,11.68c-3.68,5.36-8.05-4.34-11.75.53,0-2.94.77-6.06-1.78-8.48-5.52-1.88-8.21,2.27-11.41,5.33l-5.47.07c-3.88.34-9.23-1.17-7.61,6.07-6.41-.21-9.85,4-13,8.67,6.56,5.92,5.51,14,6.21,21.59l6.15,3.11c.41-9.29-4.3-19.7,5.9-26.83l5.93-.48.08.13c6.78-.3,13.43-.18,18.08,6h.13c.74,2.74,3.19,3,5.38,3.56,1,5-5.89,10.39.65,15.18,4.21-4.18,4.91-16.15,15.2-6.85,9.77,6.8,10.87,10.19,5.66,18.82a100.49,100.49,0,0,1-6.28,8.38h0c-5.06,1.69-9.18,6.21-15,5.22-5.29-2.56-3-12.82-11.91-11.11-.26,3,4.48,5.54,1,9.08-6.22,0-11-3.25-15.86-6.4L356,470.5l23.39,6.6c-1.71,6.38-7.14,5.37-11.78,5.92.12,7.1,4.74,13.52,3.17,20.88l.23.48c2.81.45,5.95,2,7-2.56,1.61-6.76,4.08-13.17,8.35-18.76,5.28.07,10.42-.49,15.09-3.23-.49-3.05-4.29-6.17.18-9.12a15.22,15.22,0,0,1,1-2.62c10.26-3.94,7.31-16.07,13.84-22.31C416.44,441.41,410.61,434.93,420.65,434.22Z"/><path class="clsWindow-9" d="M489.14,322.1l-2.86,3.74c.24-4.47-5.31-7.27-3.5-12.19C487.2,314.73,488.59,318.1,489.14,322.1Z"/><path class="clsWindow-9" d="M507.24,313.09c2.91,2.55,3.4,5.9,3.2,9.49C506.22,320.48,507.63,316.49,507.24,313.09Z"/><path class="clsWindow-9" d="M510.36,322.41c1.84.39,2.3,1.72,2.29,3.36-.76-.08-1.53-.15-2.3-.21C510.36,324.51,510.36,323.46,510.36,322.41Z"/><path class="clsWindow-13" d="M232.22,425.23c0,1.08.09,2.15.13,3.23-12.75,2.06-9.85-9-12.79-15.22,3.51-.77,3.07-4.5,5.28-7.14C227.18,412.81,227.29,420,232.22,425.23Z"/><path class="clsWindow-4" d="M220.06,434.52c-.44,1.49-1,2.86-3,2.14a2.62,2.62,0,0,1-1.73-3.46,3.2,3.2,0,0,1,2.35-1.45C219.59,431.56,220.15,432.86,220.06,434.52Z"/><path class="clsWindow-1" d="M231.86,443l-1.08-1.35c.23.11.56.16.66.34a5,5,0,0,1,.35,1.12Z"/><path class="clsWindow-4" d="M208,369.08c.1.46-.83,1.51-2.46,1.61a3.14,3.14,0,0,1-2.52-1.14,2.38,2.38,0,0,1,1.28-3.53C205.79,365.46,207.14,366.08,208,369.08Z"/><path class="clsWindow-4" d="M207,381.26a2.19,2.19,0,0,1-2.83,1,2.68,2.68,0,0,1-1.36-3.57,2.88,2.88,0,0,1,2.32-1.25C206.75,377.55,207.84,378.44,207,381.26Z"/><path class="clsWindow-4" d="M203.62,392.3c-.79-2.41.45-3.14,1.91-3.29a2.82,2.82,0,0,1,2.28,1.13c.71,1.34.31,3.17-1,3.56C205.85,394,204.47,392.71,203.62,392.3Z"/><path class="clsWindow-1" d="M213.92,298.37c4.29.36,7.54,5,12.4,3-.39,1.7-1,3.18-3,3.51C218.89,304.57,213.45,305.74,213.92,298.37Z"/><path class="clsWindow-4" d="M212.46,315.55c-2.4-3.27-1.58-5.59.53-7.19a2.37,2.37,0,0,1,3.48,1.47C217.11,312.58,215.93,314.61,212.46,315.55Z"/><path class="clsWindow-4" d="M210,324.68c-.59-.32-2-.89-1.91-1.09.32-1.26.64-2.91,1.56-3.52a1.91,1.91,0,0,1,3,1.57A3,3,0,0,1,210,324.68Z"/><path class="clsWindow-9" d="M431.73,582.6l.68-1-.9.76Z"/><path class="clsWindow-9" d="M437.46,573.49l-.66,1.08.81-.93Z"/><path class="clsWindow-1" d="M329.37,458.42a24.51,24.51,0,0,1-4-11.79C330.28,449.35,334.67,452.24,329.37,458.42Z"/><path class="clsWindow-9" d="M377.49,202.71a35.19,35.19,0,0,1,28.28,6.94l-28.38-3.25C377.42,205.17,377.45,203.94,377.49,202.71Z"/><path class="clsWindow-4" d="M230.54,277.42c1.49.19,3,.85,2.62,2.54a5.71,5.71,0,0,1-2.5,3.39,2.46,2.46,0,0,1-3.44-1.65C226.92,279.58,228.4,278.09,230.54,277.42Z"/><path class="clsWindow-4" d="M240.24,272.6c-.92.52-2.06,1.69-3.19,1.68-2.21,0-3.25-1.35-2.14-3.65a2.57,2.57,0,0,1,3.36-1.6C239.68,269.5,240.53,270.57,240.24,272.6Z"/><path class="clsWindow-4" d="M280.42,334.52c.38-1.08.89-2.85,2.18-1.65s-.19,2.05-1.52,2.35Z"/><path class="clsWindow-1" d="M319.66,531.07l6.44,0C323.94,536.76,321.8,534.5,319.66,531.07Z"/><path class="clsWindow-14" d="M462.11,352.56q0-1.37-.12-2.73l20.76-2.07,5.93,8.29,3,3.05-.14.35c-7.09,8.08-21.43,7.81-26-.7C464.46,356.66,464.37,354,462.11,352.56Z"/><path class="clsWindow-12" d="M497.91,347.24a4.39,4.39,0,0,0,.79,2.47c-.37,1.38-1.48,2.74-2.6,1.94a3.84,3.84,0,0,1-.92-4.94l-.12.1,1.46,0Z"/><path class="clsWindow-1" d="M491.71,359.1l-3-3.05A3.66,3.66,0,0,1,491.71,359.1Z"/><path class="clsWindow-8" d="M546.38,470.57l.23.11c-.79-5.3-2.79-9.36-9.14-9l-.67-.4c-2.15.06-3.74,1-5.17,4.32,7.52,1.42,5,11.67,15.67,15.52C543.33,476.12,545.19,473.42,546.38,470.57Z"/><path class="clsWindow-1" d="M555.67,458.55c-.37,3.53,4.25,5.36,3.11,9.15-3.92-1.8-6.18-4.74-6.23-9.17l-.13.12Z"/><path class="clsWindow-1" d="M555.56,452.55c1.83-.12,2.57.9,2.68,2.58C556.3,455.35,555.06,454.85,555.56,452.55Z"/><path class="clsWindow-1" d="M552.55,458.53l-2.27-.89c.5-.36,1-1.06,1.49-1,1,.1,1.19.95.65,2Z"/><path class="clsWindow-1" d="M356.05,407.41c.27-2.25,2.1-2.71,3.8-3.31Z"/><path class="clsWindow-1" d="M316.49,456c2.05-1.48,3.52-.41,5,1.19-2.7,2.94-3.89,1.29-4.71-1.51Z"/><path class="clsWindow-1" d="M304.72,503.75c1.33.62,3.67-.32,3.73,2.05,0,.39-2.41.84-3.71,1.26Z"/><path class="clsWindow-1" d="M304.89,506.89c0,1.15-.06,2.31-.08,3.46a16.76,16.76,0,0,1-2.88-.86A2.59,2.59,0,0,1,304.89,506.89Z"/><path class="clsWindow-1" d="M301.64,500.72l3.27,3.27Z"/><path class="clsWindow-1" d="M455.54,537.19c.12-2.11.95-3.52,3.35-3.36C459,536.19,457.9,537.3,455.54,537.19Z"/><path class="clsWindow-1" d="M449.79,558.28c-.54-.44-1.08-.87-.06,0-.84-1-.4-.47,0,0Z"/><path class="clsWindow-4" d="M458.77,231.85c-2.51,0-4-1.72-5.58-3.32-.32-2.92,0-4.9,3.85-3.51C461.28,226.54,460.53,229,458.77,231.85Z"/><path class="clsWindow-1" d="M283.54,247l-1,2c-2-2,1-1.14,1.11-1.91Z"/><path class="clsWindow-1" d="M274.36,247.14a3.11,3.11,0,0,1,2.85-2.8Z"/><path class="clsWindow-1" d="M252.9,374.27c.46,1.27.16,1.92-.91,1.9,0,0-.2-.77,0-1a4.71,4.71,0,0,1,1.2-.82Z"/><path class="clsWindow-9" d="M488.2,328.92c3.58.26,4.11,2.69,4,5.59Z"/><path class="clsWindow-9" d="M497.91,347.24l-1.39-.46-1.46,0,.75-3.2A3.69,3.69,0,0,1,497.91,347.24Z"/><path class="clsWindow-9" d="M492.27,334.66a3.67,3.67,0,0,1,2.58,3.95A4.93,4.93,0,0,1,492.27,334.66Z"/><path class="clsWindow-5" d="M416.15,536.4c2.16-8-4.93-11.91-1.54-19.5,3.72,10,13.79,13.11,18.22,21.5C426.16,541.54,425.2,527.65,416.15,536.4Z"/><path class="clsWindow-4" d="M422.47,485.62c5.43,4.81,12,8.47,15.35,15.39A23.45,23.45,0,0,1,422.47,485.62Z"/><path class="clsWindow-8" d="M353.3,461.7c-4.45-2.94-6.34-7.18-6.29-12.4C352.57,451.67,353.32,456.49,353.3,461.7Z"/><path class="clsWindow-9" d="M370.53,456.18c-1,2.55-3.48,2.29-5.5,2.91-1.57-.79-4,.38-5-2.43C363.46,454.35,367.05,456,370.53,456.18Z"/><path class="clsWindow-9" d="M555.32,372.21c6.7,2.54,10.07,6.73,7,14.11-.37.84-.77,1.68-1.18,2.51a3.56,3.56,0,0,0-2.76,3.11c-2.23.67-5.4-.75-6.29,2.87-3.48-3-2.27-8.94-7.06-11.1-2.09,1.16-1.87,3.24-2,5.2-4.93-4-4.77-10.43-7.45-15.52-2.16-4.1-1.33-10-7.34-11.71-4-5-7.24-10.21-7.34-17.17,4,1.31,7.6,4.06,10.33-.93,7.06,10.07,8.48,22.83,15.18,33C550.16,375.93,551,370.59,555.32,372.21Z"/><path class="clsWindow-4" d="M473.39,377q.71,7.33,1.42,14.67l11.3,15.63c-6.56,6.58-13.15,6.43-19.1-.13-4.76,1.19-5.69,7.95-11.37,6.1-.31-3.53,2.36-5,4.49-7.11,4.68-4.67,6.67-9.91-1.1-15.77,13.54,1.88,11.27-6.24,11.29-12.74Z"/><path class="clsWindow-7" d="M503.66,375.56c16.66,15.71,23.53,33.08,17.49,42.68C512.57,406,509.11,392.19,503.66,375.56Z"/><path class="clsWindow-7" d="M531.27,431.39c-2.65-3.21-6.88-5.63-5.16-12.6l20,9.7c-1.27,3.74-4.17,4-6.79,2.28C536.2,428.69,533.91,430.71,531.27,431.39Z"/><path class="clsWindow-4" d="M528.25,361.68c6,1.68,5.18,7.61,7.34,11.71,2.68,5.09,2.52,11.53,7.45,15.52l.29,3.68c-3,3.09-4.72,0-5.28-1.83C535,381,529.29,372.11,528.25,361.68Z"/><path class="clsWindow-9" d="M531.27,431.39c2.64-.68,4.93-2.7,8.08-.62,2.62,1.73,5.52,1.46,6.79-2.28,2.86.69,3.32,2.94,3.5,5.37l-18.36.14C531.29,433.13,531.28,432.26,531.27,431.39Z"/><path class="clsWindow-9" d="M558,434.26c.14,1.14.29,2.28.44,3.41-2.28.34-3-1.39-3.81-2.94Z"/><path class="clsWindow-9" d="M553,421.61a3.5,3.5,0,0,1,2,3.68A3.3,3.3,0,0,1,553,421.61Z"/><path class="clsWindow-9" d="M516.65,337.42l2.82,3.21A3.27,3.27,0,0,1,516.65,337.42Z"/><path class="clsWindow-9" d="M516.07,328.84c-.21,1-.38,2-.52,2.94a3.6,3.6,0,0,1-2.17-3.43A3.79,3.79,0,0,0,516.07,328.84Z"/><path class="clsWindow-4" d="M547.53,356.75c-.67.53-1.33,1.5-2,1.51-1.81,0-2.5-1.36-2.27-2.92.1-.65,1.14-1.65,1.72-1.63C546.72,353.77,547.25,355.24,547.53,356.75Z"/><path class="clsWindow-9" d="M548.71,368.17c-1.74-.49-2.17-1.79-1.83-3.34a1.46,1.46,0,0,1,2.15-1.22c1.51.62,2.57,1.75,2.16,3.35C551.05,367.54,549.58,367.78,548.71,368.17Z"/><path class="clsWindow-1" d="M539,345.73c.57-.48,1.11-1.3,1.62-1.28s1.18.77,1.76,1.21c-.31.32-.67,1-.92.92A15.34,15.34,0,0,1,539,345.73Z"/><path class="clsWindow-16" d="M443.65,392.18l2.23,1c-2.13,2.2-1.5-.6-2.1-1.17Z"/><path class="clsWindow-5" d="M486.11,407.25l-11.3-15.63L487.33,393C488.57,397.8,491.39,402.66,486.11,407.25Z"/><path class="clsWindow-16" d="M495.91,393c3.65,4.79,6.53,9,3.38,16C498.21,403.15,494,399.31,495.91,393Z"/><path class="clsWindow-5" d="M552.08,394.81c.89-3.62,4.06-2.2,6.29-2.87l.45,8.94-1,.94Z"/><path class="clsWindow-8" d="M558.82,400.88l-.45-8.94a3.56,3.56,0,0,1,2.76-3.11C561.16,393,571.47,399.15,558.82,400.88Z"/><path class="clsWindow-4" d="M561.6,410.39c.88-2.5.1-6.37,4.62-5.86.57.06,1.41,1.43,1.43,2.21.15,5-4,2.61-6.24,3.46Z"/><path class="clsWindow-10" d="M398.55,440.25c-10.29-9.3-11,2.67-15.2,6.85,0,.79,0,1.58-.09,2.36l-9,.63a4.94,4.94,0,0,1-3.05-3.62c-4-.05-4.24-4.13-6.48-6.06,0-2,0-4.08-.08-6.12a3,3,0,0,0-.22-2.89c6-7.44-5-5.24-5.17-9.15l-6.14.49c-10.13,7.09-5.55,17.41-5.9,26.65,5.29,2.37,6.09,7,6.1,12.05,2.07-.33,2.46,1.27,2.92,2.8,4.84,3.15,9.64,6.42,15.86,6.4,3.46-3.54-1.28-6.05-1-9.08,8.93-1.71,6.62,8.55,11.91,11.11,5.78,1,9.9-3.53,15-5.22a100.49,100.49,0,0,0,6.28-8.38C409.42,450.44,408.32,447.05,398.55,440.25ZM365,459.09c-1.57-.79-4,.38-5-2.43,3.39-2.31,7-.66,10.46-.48C369.53,458.73,367.05,458.47,365,459.09Zm18.34-9.51,3.44.13a3.34,3.34,0,0,1-3.55,3C383.3,451.65,383.33,450.61,383.37,449.58ZM381,459.89c3.89-2.88,7.73-1.12,11.35-1.4l.11.08C389.34,464.17,385.31,460.57,381,459.89Z"/><path class="clsWindow-9" d="M392.48,458.57c-3.14,5.6-7.17,2-11.46,1.32,3.89-2.88,7.73-1.12,11.35-1.4Z"/><path class="clsWindow-8" d="M386.81,449.71a3.34,3.34,0,0,1-3.55,3c0-1,.07-2.08.11-3.11Z"/></g></g></g></svg>