<svg id="Layer_1" data-name="Layer 1" xmlns="http://www.w3.org/2000/svg" viewBox="0 0 1525 1525"><defs><style>.clsWindow-1{fill:#191835;}.clsWindow-15{fill:#a64e1e;}.clsWindow-11{fill:#f6ba9c;}.clsWindow-4{fill:#595337;}.clsWindow-8{fill:#999373;}.clsWindow-7{fill:#cd3412;}.clsWindow-12{fill:#b5ad9d;}.clsWindow-6{fill:#866a58;}.clsWindow-14{fill:#005bab;}.clsWindow-5{fill:#cacbad;}.clsWindow-3{fill:#94928d;}</style></defs><title>Artboard 1innerCircle5</title><g id="WindowParts"><g id="innerCircle"><g id="ci5"><path class="clsWindow-1" d="M664.7,1023.62c-5.23.16-10.46.25-15.05-2.9-1.6-5.24,6.29-6,4.4-10.59.92-7.56-5.74-11-8-16.86,2.07-.36,5.07,1.41,5.71-2.27a2.34,2.34,0,0,0-2.52-2.76c-3.81,0-2.57,3.14-3,5.23l-6.29.18c-1.48-.56-2.39-1.46-1.87-3.19,4.91-4.47,3.77-8.42-1-12.07,9.8,3.52,14-6.08,21.11-9,3.75,3-2,7.69,1.84,10.73,1.87-3.35,5.92,3,7.36-1.64.68-2.18,3.19-4,1.3-6.79-3-4.36-6.95-2.52-10.75-2,1.68-4.46,7.91-.57,10.26-7.12-7.81-1.12-13.84-5.44-19.83-10.42-3.9-3.23-12-3.45-13.36,5-.59,3.55-5.22,4.92-3.78,8.95-.19,2.3-.38,4.59-.58,7.06l-8.73-1,0-.24c7.53-9.59,10.25-20.9,11.65-32.68l7.29-3.5c5.86,7.43,12.72,8.31,20.49,3.1,8.61,7.78,10.48,7.8,17.85.19,4.81,5.66,12.58,5.26,18.35,8.95-1.94,7.73-1,8.77,9.34,10.62-.23-1.48-.46-2.94-.68-4.39l6.14-.28c-1.55,9.91,5,13.07,12.71,15.28,8.93-1,9.37,2.94,5.48,9.41-3.71.13-4.7-3.95-7.36-5-1.57,3.69-3.07,7.2-4.57,10.71l.25-.22c-8.57-11.51-20.38-14.67-33.63-9-10.64.62-8.15,8.92-8.93,15.3l-.78.37c-5.82-2.78.46-8.53-3.13-12-3.61,2.63-4.33,8.48-10.74,8.57-4.27.06-5.92,4.57-6,8.88-1.1,11.46,5.67,15.4,16,16C668.91,1016.18,668.54,1020.92,664.7,1023.62Z"/><path class="clsWindow-15" d="M649.2,912.49c-3.34-2.62-4.9-7-9.62-9.06,5.74-10.95,17.7-15.39,24.22-24.94,6.92.86,10.34-2.44,9.57-9.25,4.51-9.3,11.52-.92,17.23-2.22,1.87-.42,4.37,2,6.58,3l-20.52,18.21-13.19,11.37c-6.16,2.68-5.28,9.66-8.57,14.09a3.56,3.56,0,0,0-1.88.69A4,4,0,0,0,649.2,912.49Z"/><path class="clsWindow-11" d="M733.68,914c2.18,4.21-.45,8.51.21,12.76-.5,2-2,3-3.76,3.88-1,.09-2.2-.15-3,.31-4.81,2.89-9.62,5.84-14.88,1.12-4.92-4.39-4.63-10.16-2-15.14,3.31-6.23-1.28-10.45-1.65-18-3.38,7.84-5.74,13.34-8.1,18.83-2.12-.37-3-2-3.73-3.75,1.08-6.3,6.48-10.94,6.71-17.56l10.23,1,3.12,11.11C723.2,909,728.27,912,733.68,914Z"/><path class="clsWindow-1" d="M700.54,917.75c2.36-5.49,4.72-11,8.1-18.83.37,7.56,5,11.78,1.65,18-2.64,5-2.93,10.75,2,15.14,5.26,4.72,10.07,1.77,14.88-1.12.77-.46,2-.22,3-.31,2.5,5.66,6.84,10.58,7,17.19-3.34.94-7,5.79-9.74-.75-1.62-10.2-7.53-7.89-13.73-4.72-3.22-.6-5.89-4.35-9.57-2.05-5.51,3.44-6.23-2.66-9.15-4.35C697,930,700.81,924.48,700.54,917.75Z"/><path class="clsWindow-4" d="M664.7,1023.62c3.84-2.7,4.21-7.44,6.91-11.34-10.35-.64-17.12-4.58-16-16,6.36,5.28,12.6,11.49,21,3.09,3.73,1.61,2,6.4,4.71,8.44,6.76,2,12.8-.33,19.63-1.64-8.34,4.88-13,12.62-18.45,20.19C676.51,1025.89,670,1029.31,664.7,1023.62Z"/><path class="clsWindow-4" d="M633.53,939.29c-1.4,11.78-4.12,23.09-11.65,32.68-8.78-4.88-7.36-13.05-5.78-20.51,1.07-5,3.13-10.2,7-14.18,2.85.38,4,2.48,5,4.77-3.16,1.05-2.24,4-3,6.24-3.33,1.62-2.82,4-1.39,6.63l1.18-6.83c2.11-1.55,2.25-4,3-6.24Z"/><path class="clsWindow-4" d="M638.08,990.46c-.52,1.73.39,2.63,1.87,3.19.18,2.47.72,4.9,2.65,6.55,5.18,4.4,1.53,6.19-2.22,8-.1-1.76.15-3.65-1.8-4.85-2.43,2.53-.61,3.88,1.42,5.18l3.21,7.86c-10.38-6.46-16.47-16.28-21.58-26.49,2-4.92,8.38-.55,9.46-5.73C635.2,984.29,635.79,988.32,638.08,990.46Z"/><path class="clsWindow-8" d="M676.57,999.33c-8.38,8.4-14.62,2.19-21-3.09.1-4.31,1.75-8.82,6-8.88,6.41-.09,7.13-5.94,10.74-8.57,3.59,3.51-2.69,9.26,3.13,12C675.84,993.66,676.21,996.5,676.57,999.33Z"/><path class="clsWindow-7" d="M638.08,990.46c-2.29-2.14-2.88-6.17-7-6.27-12.2-.8-13.11-2-9.19-12l8.73,1c.2-2.47.39-4.76.58-7.06,7,1.67,3.44,8.38,5.85,12.24C641.85,982,643,986,638.08,990.46Z"/><path class="clsWindow-4" d="M737.14,947.83c-.17-6.61-4.51-11.53-7-17.19,1.71-.85,3.26-1.86,3.76-3.88,5.14,0,8,7.52,15.24,3.21-.47,6.73-.85,12.21-1.25,18-7.46-1.08-3.36-7.54-6.41-10.2C737.85,940.19,741.72,945.87,737.14,947.83Z"/><path class="clsWindow-12" d="M661.31,938.89c-7.77,5.21-14.63,4.33-20.49-3.1,6.18-5.58,13-8.63,21.5-5.8.52,1.28,1,2.56,1.58,3.84a1.75,1.75,0,0,0-.73,1.79c-1.74.52-1.86,2-2.07,3.44Z"/><path class="clsWindow-4" d="M717.68,893.3c-4.87.11-9.82.63-14-2.69-2-9.62,3.81-12,11.65-12.56.49,6.55,6.58,5.6,10.53,7.79C722.35,887.59,718.5,888.83,717.68,893.3Z"/><path class="clsWindow-4" d="M733.62,912.17q.39-8.88.77-17.75l8.39,1.24c9.43,7.37,9.11,9.08-1.25,14.18A19.9,19.9,0,0,1,733.62,912.17Z"/><path class="clsWindow-8" d="M685.19,975.16a8.87,8.87,0,0,1,5.87,6.88c-2.14,4.93-5.65,8.81-10.28,12.29-1.59-.36-1.41-4.29-4.52-3.87C677,984.08,674.55,975.78,685.19,975.16Z"/><path class="clsWindow-4" d="M700.54,917.75C700.81,924.48,697,930,695,936l-.48.45-3.92,2.13-2.45-2.6c-.32-8.59,4.53-15.13,8.71-21.94C697.52,915.78,698.42,917.38,700.54,917.75Z"/><path class="clsWindow-6" d="M725,969.26c-7.69-2.21-14.26-5.37-12.71-15.28l.24-.22,5.75,1.16c1.69,1.84,3.07,4.71,5.12,5.34C730.58,962.42,725.05,966.22,725,969.26Z"/><path class="clsWindow-12" d="M733.72,987.38c-.74-3-6.69-4.13-3.22-8.71-3.71.13-4.7-3.95-7.36-5L718.72,984c-8.56-11.4-20.34-14.52-33.53-8.86a8.87,8.87,0,0,1,5.87,6.88c-.14,16.91,2,19.28,18.65,20.52,7.09,7.79,7.15,7.79,11.9,5.9C727.66,1002.59,734.28,997,733.72,987.38Zm-24,14.9c-.79-2.85,1.1-4,3.73-5.19C714.14,1000.49,712.06,1001.5,709.7,1002.28Zm9.11-17.88c3.6.43,2.17,2.78,2.74,5.49C717.24,988.44,718.66,986.2,718.81,984.4Z"/><path class="clsWindow-14" d="M679.16,939.08c-7.37,7.61-9.24,7.59-17.85-.19l-.21.17,6.15-1.18Z"/><path class="clsWindow-6" d="M706.17,954.26c.22,1.45.45,2.91.68,4.39-10.38-1.85-11.28-2.89-9.34-10.62l0,0a2.84,2.84,0,0,0,3,2.21Z"/><path class="clsWindow-12" d="M713.67,942.36c6.2-3.17,12.11-5.48,13.73,4.72-4.77-2.86-9.67-2.07-15.28,1.69C713,945.13,713.33,943.75,713.67,942.36Z"/><path class="clsWindow-12" d="M673.37,869.24c.77,6.81-2.65,10.11-9.57,9.25Z"/><path class="clsWindow-14" d="M675.87,930c5.08-5.38,6.25-2,6.67,3A5.91,5.91,0,0,1,675.87,930Z"/><path class="clsWindow-1" d="M718.3,954.92l-5.75-1.16C715.23,950.36,717.16,950.68,718.3,954.92Z"/><path class="clsWindow-1" d="M667.25,937.88l-6.15,1.18c.21-1.43.33-2.92,2.07-3.44Z"/><path class="clsWindow-1" d="M649.2,912.49a4,4,0,0,1,3.82,1.93A3.61,3.61,0,0,1,649.2,912.49Z"/><path class="clsWindow-1" d="M703.48,897c-5.14,3.31-10.16,6.11-13.5,12.19-5.75,10.45-15.47,10.77-22,.69-1.67-2.57-9.09-4.4-4.5-10.19-6.16,2.68-5.28,9.66-8.57,14.09.3,2.87.22,6,4,6.86.24-2.26,1.7-3.24,3.73-2.86,1.42.26,1.95,1.63,1.87,3.1l3.23,1.71a2.81,2.81,0,0,1-3.47,1.44,2.47,2.47,0,0,1-.24-2.93l-2.65,1,2.41,2.35a21.57,21.57,0,0,0,12.14,5.6c5.08-5.38,6.25-2,6.67,3l5.56,3c-.32-8.59,4.53-15.13,8.71-21.94C697.86,907.87,703,903.3,703.48,897Z"/><path class="clsWindow-1" d="M663.9,933.83c-.53-1.28-1.06-2.56-1.58-3.84A3.36,3.36,0,0,1,663.9,933.83Z"/><path class="clsWindow-1" d="M690.55,938.54l3.92-2.13A3.54,3.54,0,0,1,690.55,938.54Z"/><path class="clsWindow-1" d="M700.51,950.26a2.84,2.84,0,0,1-3-2.21Z"/><path class="clsWindow-8" d="M637.06,978.39c-2.41-3.86,1.15-10.57-5.85-12.24-1.44-4,3.19-5.4,3.78-8.95,1.4-8.44,9.46-8.22,13.36-5,6,5,12,9.3,19.83,10.42-2.35,6.55-8.58,2.66-10.26,7.12l.25-.33C651.09,972.31,646.86,981.91,637.06,978.39Z"/><path class="clsWindow-5" d="M657.92,969.75c3.8-.55,7.79-2.39,10.75,2,1.89,2.78-.62,4.61-1.3,6.79-1.44,4.65-5.49-1.71-7.36,1.64-3.83-3,1.91-7.7-1.84-10.73Z"/><path class="clsWindow-3" d="M646.24,993.47c.42-2.09-.82-5.23,3-5.23a2.34,2.34,0,0,1,2.52,2.76c-.64,3.68-3.64,1.91-5.71,2.27Z"/><path class="clsWindow-1" d="M709.77,1002.56c-1-3.06.94-4.28,3.66-5.47.73,3.49-1.47,4.46-3.91,5.25Z"/><path class="clsWindow-1" d="M718.57,984.37c3.92.34,2.4,2.75,3,5.52-4.51-1.52-2.74-3.9-2.73-5.74Z"/><path class="clsWindow-11" d="M702.91,891.62c.26,1.73.51,3.47.77,5.2-5.21,3.36-10.32,6.16-13.7,12.32-5.75,10.45-15.47,10.77-22,.69-1.67-2.57-9.09-4.4-4.5-10.19l13.19-11.37c6.44,0,10.19,4.72,14.49,8.34C696.15,897.23,698.87,892.87,702.91,891.62Z"/><path class="clsWindow-3" d="M664.45,920.83c.08-1.47-.45-2.84-1.87-3.1-2-.38-3.49.6-3.73,2.86a3.06,3.06,0,0,1,2.47,1.44l2.65-1a2.47,2.47,0,0,0,.24,2.93,2.81,2.81,0,0,0,3.47-1.44Z"/><path class="clsWindow-1" d="M742.78,895.66c2.19-2.56,2.92-5.3-.73-6.88-3.93-1.69-8.24-3.12-11.35,1.74-4.69-.68-8.74,1.59-13,2.78-4.87.11-9.82.63-14-2.69h0c-2-9.62,3.81-12,11.65-12.56l-18.12-8-20.52,18.21c6.44,0,10.19,4.72,14.49,8.34,5,.62,7.72-3.74,11.76-5h0c.24,1.61.48,3.22.71,4.83l10.13.95,3.12,11.11c6.33.44,11.4,3.45,16.81,5.49a2.17,2.17,0,0,0-.06-1.83l.77-17.75Z"/><path class="clsWindow-1" d="M625,948.09l-1.18,6.83c-1.43-2.62-1.94-5,1.39-6.63Z"/><path class="clsWindow-1" d="M628,941.85c-.7,2.21-.84,4.69-3,6.24l.21.2c.72-2.21-.2-5.19,3-6.24Z"/><path class="clsWindow-6" d="M654.05,1010.13c.91-7.47-5.57-11-7.92-16.66l-6.18.18c.18,2.47.72,4.9,2.65,6.55,5.18,4.4,1.53,6.19-2.22,8-.1-1.76.15-3.65-1.8-4.85-2.43,2.53-.61,3.88,1.42,5.18l3.21,7.86c1.58,2.28,3.27,4.39,6.44,4.31C648.05,1015.48,655.94,1014.7,654.05,1010.13Z"/></g></g></g></svg>