<svg id="Layer_1" data-name="Layer 1" xmlns="http://www.w3.org/2000/svg" viewBox="0 0 1525 1525"><defs><style>.clsWindow-1{fill:#191835;}.clsWindow-11{fill:#f6ba9c;}.clsWindow-12{fill:#b5ad9d;}.clsWindow-6{fill:#866a58;}.clsWindow-13{fill:#371912;}.clsWindow-14{fill:#005bab;}.clsWindow-3{fill:#94928d;}.clsWindow-4{fill:#595337;}.clsWindow-7{fill:#cd3412;}.clsWindow-8{fill:#999373;}</style></defs><title>Artboard 1innerCircle3</title><g id="WindowParts"><g id="innerCircle"><g id="ci3"><path class="clsWindow-1" d="M939.74,879.13l-.31-.31c6.32,5.36,7.78-2.55,11.54-4.22.21,4.58,6.26.42,6.78,4.54l4,7.69c3.22-1.89,1.18-5.74,3.56-7.76-.11,5.38,2.38,9.39,7.2,14,2.66-6.21,7.56-2.1,11.94-2.62l-.07.1,18.08,13c7.54-8.67,22.66-9.59,21.59-25.65,3.57-4.51,6.87-9.18,8.77-14.69,1.84-8,3.31-16.12.16-24.21.06-3.94,1.34-9.11-1.72-11.35-7-5.13-8.85-12.36-11.15-19.86-1.14-3.73-4.48-6.4-8.46-7.72-7.25-2.79-14.43-9.61-21.87-.44-.43.52-.2,1.57-.3,2.58,2.73,1.19,6.43-.48,9,2-2.46,3.22-6.52,1.13-8.14,4.24-7.41,1.58-9.31,7.1-8.89,13.52.24,3.78-.13,6.88-2.9,9.51.13-4.4.31-8.79.38-13.19.06-4.07-1.8-6.44-6.1-6.42,4.39-11.94,4.09-12.42-10-15.25-2,5.73-3.85,11.48-4.22,18.13h8.51c1.37,1.68,3.77,3.89-.64,4.22-2.14.16-4.45-1.57-5.76,1.5a18.76,18.76,0,0,1-6.89,6.47c-3.86,11.59-5.45,24.16-14.53,33.48-.93,2.87-1.07,6.5-3,8.46C930.4,875.11,935.59,876.79,939.74,879.13Z"/><path class="clsWindow-1" d="M953.37,894c7,7.26,13.75,6.81,21,4.13C967.82,897.15,962,892.68,953.37,894Z"/><path class="clsWindow-1" d="M892.28,793.43c5.92-4.18,6.16-8,3.18-13.38C890.81,783.62,890.44,787.44,892.28,793.43Z"/><path class="clsWindow-1" d="M949.63,859c2.68-3.56,3.91-7,.34-10.81C946.76,851.76,946.77,855.26,949.63,859Z"/><path class="clsWindow-11" d="M900.14,823.77c1-3,3.59-2.19,5.78-2.27.3,1.66.87,3,3,2.87l-.16-.27c.49,5.46,3.82,8.55,8.43,11.06,8.78,4.78,9.7,11.56,4.16,19.55-3.1,2.69-9.33,1.7-9.39,8a5.79,5.79,0,0,1-2.83.89,2.59,2.59,0,0,0-2.42-1.06,3.09,3.09,0,0,0-1.24-1.94c.28-3.82-3.29-4.52-5.29-6.48a3.37,3.37,0,0,0-3.18-2.74c-1.3-6.22.4-11.34,5.66-15.05,2.87-2,3.68-4.18.82-6.83a2.55,2.55,0,0,0-1.2-2.3A3.07,3.07,0,0,0,900.14,823.77Z"/><path class="clsWindow-12" d="M957.75,879.14c2.94-8.73,15-12.12,12.7-24.48,6.31,7.56,8.88,15.9,15.38,21.86,4.72,4.32-1.53,9.18-1.39,14-4.38.52-9.28-3.59-11.94,2.62-4.82-4.64-7.31-8.65-7.2-14-2.38,2-.34,5.87-3.56,7.76Z"/><path class="clsWindow-12" d="M978.52,831.56c2.77-2.63,3.14-5.73,2.9-9.51-.42-6.42,1.48-11.94,8.89-13.52,4.18,4.36,10.39.56,14.87,3.7,2.14,3.7,4,7.52,4.14,11.9-2.72,7.24-7.73,10.34-15.45,8.55-5-5-7,.18-9.7,2.92C979.82,837.7,977.27,837.29,978.52,831.56Z"/><path class="clsWindow-6" d="M984.37,890.58c14.1.62,20.33-12.41,30.59-18.05l9.08,5.41c1.07,16.06-14,17-21.59,25.65Z"/><path class="clsWindow-1" d="M903.45,829.48c2.86,2.65,2,4.79-.82,6.83-5.26,3.71-7,8.83-5.66,15.05-3.86-1.21-3.61-4.31-4.68-7.58-2-6.24-6.87-9.31-12.84-3.08C882,847.19,890.91,849,891,857.06c-.63,2.57-2,4.43-5.56,5.15-4.89-7.65-13.76-12.85-15.63-23.07,4.71.91,6-3.91,9.15-5.54,7.19.94,7.55-9.92,16.8-8.17,2.71.7-1.31,4.68.46,6.81C899.72,834.1,901.81,832.38,903.45,829.48Z"/><path class="clsWindow-13" d="M1009.32,824.13c-.18-4.38-2-8.2-4.14-11.9,2.19-4,7.56-6.34,6.46-12.12,4,1.32,7.32,4,8.46,7.72,2.3,7.5,4.14,14.73,11.15,19.86,3.06,2.24,1.78,7.41,1.72,11.35l-3.13.16.16.17q-3.88-5.7-7.76-11.37c-2.4,1.51-2.23,3.55-2.56,5.38-2.54-.28-4.58-1.24-4.85-4.11C1014.5,825.87,1012.61,824.29,1009.32,824.13Z"/><path class="clsWindow-12" d="M1019.68,833.38c.33-1.83.16-3.87,2.56-5.38q3.87,5.65,7.76,11.37l-.83.61.67-.78L1033,839c3.15,8.09,1.68,16.16-.16,24.21-3.84-2.77-9.28-2-12.72-5.64C1016.71,849.59,1020.38,841.45,1019.68,833.38Z"/><path class="clsWindow-14" d="M978.52,831.56c-1.25,5.73,1.3,6.14,5.65,4a5,5,0,0,1-3.84,3.5c-4.31-6.26-14.64-4.26-17.38-12.67.33-2.38,1.75-5.18-2.27-5.88,1.31-3.07,3.62-1.34,5.76-1.5,4.41-.33,2-2.54.64-4.22L972.8,812c4.3,0,6.16,2.35,6.1,6.42C978.83,822.77,978.65,827.16,978.52,831.56Z"/><path class="clsWindow-6" d="M919.76,794.14c-5.86-.49-11.9,1-17.63-1.49-2.36-3-2.72-6.24-1.25-10,12.92-5,21.19,3.06,29.64,10.62C927.18,796.88,923.4,794.58,919.76,794.14Z"/><path class="clsWindow-3" d="M906.68,862.52a2.59,2.59,0,0,1,2.42,1.06c2.11,3.42,2.2.4,2.83-.89.06-6.28,6.29-5.29,9.39-8l2.79,5.72,0,0-5.73,12.41c-5.27-2.78-9,14.8-18.22,2.66C902.14,871.54,907.35,868.28,906.68,862.52Z"/><path class="clsWindow-12" d="M919.76,794.14c3.64.44,7.42,2.74,10.76-.83l5.33-.11,3.08,1v14.1l-8.35,4.13c-4.39-2.14-2.18-11.65-10.61-9.55-.51.12-1.63-2.27-2.47-3.49C918.25,797.65,919,795.9,919.76,794.14Z"/><path class="clsWindow-1" d="M905.71,815.21c-4.92,1.9-8.91,6.24-14.78,5.73l-5.68-9.81,8.22-11c4.75,3.73,6.9,9.89,12.54,12Z"/><path class="clsWindow-12" d="M972.8,812l-5.72,2.88h-8.51c.37-6.65,2.25-12.4,4.22-18.13C976.89,799.53,977.19,800,972.8,812Z"/><path class="clsWindow-4" d="M1011.64,800.11c1.1,5.78-4.27,8.1-6.46,12.12-4.48-3.14-10.69.66-14.87-3.7,1.62-3.11,5.68-1,8.14-4.24-2.55-2.52-6.25-.85-9-2,.1-1-.13-2.06.3-2.58C997.21,790.5,1004.39,797.32,1011.64,800.11Z"/><path class="clsWindow-12" d="M939.26,860.5c9.54,0,10.51,7.16,11.71,14.1-3.76,1.67-5.22,9.58-11.54,4.22.31-.54.62-1.08.71-1.22l-.4,1.53c-4.15-2.34-9.34-4-3.43-10.17C938.19,867,938.33,863.37,939.26,860.5Z"/><path class="clsWindow-4" d="M918.09,820.54c3.72,1.44,7.34,3.22,11.17,4.24,6.23,1.66,5,6.39,5.76,12L908.73,824.1l.16.27C910.29,819.08,914.81,821.3,918.09,820.54Z"/><path class="clsWindow-4" d="M905.71,815.21l.3-3.11c9,.4,7.53-8.58,11.49-12.7.84,1.22,2,3.61,2.47,3.49,8.43-2.1,6.22,7.41,10.61,9.55-5,6.56-12.75-.77-18.21,3.56l-6.54-.61Z"/><path class="clsWindow-7" d="M891,857.06c-.11-8.08-9-9.87-11.57-16.36,6-6.23,10.79-3.16,12.84,3.08,1.07,3.27.82,6.37,4.68,7.58a3.37,3.37,0,0,1,3.18,2.74c-1.6,0-2.87.55-3.27,2.3Z"/><path class="clsWindow-1" d="M896.88,856.4c.4-1.75,1.67-2.27,3.27-2.3,2,2,5.57,2.66,5.29,6.48-3.47,1.14-5,6.07-9.67,4.93C892.65,862,896.88,859.47,896.88,856.4Z"/><path class="clsWindow-4" d="M953.37,894c8.6-1.33,14.45,3.14,21,4.13C967.12,900.82,960.34,901.27,953.37,894Z"/><path class="clsWindow-4" d="M892.28,793.43c-1.84-6-1.47-9.81,3.18-13.38C898.44,785.39,898.2,789.25,892.28,793.43Z"/><path class="clsWindow-4" d="M879,833.6c-3.18,1.63-4.44,6.45-9.15,5.54,1.79-5,3.95-9.72,10.67-12C879.8,830.09,879.39,831.85,879,833.6Z"/><path class="clsWindow-1" d="M905.83,815.39l6.54.61,5.72,4.54c-3.28.76-7.8-1.46-9.2,3.83-2.1.18-2.67-1.21-3-2.87Z"/><path class="clsWindow-3" d="M960.68,820.55c4,.7,2.6,3.5,2.27,5.88-3,.44-5.61,8.12-9.16.59A18.76,18.76,0,0,0,960.68,820.55Z"/><path class="clsWindow-6" d="M938.93,794.21l-3.08-1C937.7,791,938.7,791.46,938.93,794.21Z"/><path class="clsWindow-1" d="M900.14,823.77a3.07,3.07,0,0,1,2.11,3.41A3.07,3.07,0,0,1,900.14,823.77Z"/><path class="clsWindow-3" d="M932.45,857.79a6.18,6.18,0,0,0-5.81,2.37c-.83.12-1.66.21-2.5.27,0,1,.07,2.07.11,3.11-.11,1.91-.29,3.87,2.59,4.48C929.63,865.2,933.79,863,932.45,857.79Z"/><path class="clsWindow-8" d="M1007.42,848.08c-7.74-1.19-12.86,5-19.7,3a3,3,0,0,1-.1-2.68c2.77-1.84,6.6-2.07,8.3-5.46,1.85-3.95-6.64-5.77-2-10.22-5-5-7,.18-9.7,2.92a5,5,0,0,1-3.84,3.5c.29,4.59,4.18,6.42,6.95,9.12-4.18-.15-10-2-5.8,6.24-3.14.48-3.37,2.75-3,5.17.55,3.6,3,4.31,6.16,3.69,0,0,3.81-3.8.2-6.22-.09-1-.18-2-.28-3,8.73,2.83,10.22,12.65,18,17.24l12.48-4.82C1018,857.36,1012.89,851.89,1007.42,848.08Z"/><path class="clsWindow-11" d="M949.63,859c-2.86-3.75-2.87-7.25.34-10.81C953.54,852,952.31,855.45,949.63,859Z"/><path class="clsWindow-8" d="M985.41,864.66c1.44-.82,3.53,0,3,.7C986.2,868.29,985.41,864.66,985.41,864.66Z"/><path class="clsWindow-1" d="M911.93,862.69c-.63,1.29-.72,4.31-2.83.89A5.79,5.79,0,0,0,911.93,862.69Z"/></g></g></g></svg>